<?xml version="1.0" encoding="UTF-8" standalone="no"?>
<!-- Created with Inkscape (http://www.inkscape.org/) -->

<svg
   xmlns:dc="http://purl.org/dc/elements/1.1/"
   xmlns:cc="http://creativecommons.org/ns#"
   xmlns:rdf="http://www.w3.org/1999/02/22-rdf-syntax-ns#"
   xmlns:svg="http://www.w3.org/2000/svg"
   xmlns="http://www.w3.org/2000/svg"
   xmlns:sodipodi="http://sodipodi.sourceforge.net/DTD/sodipodi-0.dtd"
   xmlns:inkscape="http://www.inkscape.org/namespaces/inkscape"
   id="svg2"
   sodipodi:docname="MultiTouch-Interface-Mouse-theme-2-fingers-Drag-Up.svg"
   inkscape:export-filename="/home/leon/_DATA/gnu/img/20110914_MickeyMouse_Multi-Touch Interfaces Set/MultiTouch-Interface_Mouse-theme_2-fingers-Drag-Up.png"
   viewBox="0 0 256 256"
   inkscape:export-xdpi="90"
   version="1.1"
   inkscape:export-ydpi="90"
   inkscape:version="0.92.1 r15371"
   width="273.06668"
   height="273.06668">
  <defs
     id="defs20" />
  <sodipodi:namedview
     id="base"
     bordercolor="#666666"
     inkscape:pageshadow="2"
     inkscape:window-y="0"
     pagecolor="#ffffff"
     inkscape:showpageshadow="false"
     inkscape:window-maximized="1"
     inkscape:zoom="1.4142136"
     inkscape:window-x="1280"
     inkscape:window-height="970"
     showgrid="false"
     borderopacity="1.0"
     inkscape:current-layer="layer1"
     inkscape:cx="135.27131"
     inkscape:cy="108.55594"
     showguides="true"
     inkscape:guide-bbox="true"
     inkscape:window-width="1280"
     inkscape:pageopacity="0.0"
     inkscape:document-units="px" />
  <g
     id="layer1"
     inkscape:label="Layer 1"
     inkscape:groupmode="layer"
     transform="translate(0,-796.36)">
    <rect
       id="rect5238"
       style="fill:#cccccc"
       height="256"
       width="256"
       y="796.35999"
       x="0" />
    <g
       id="g5603"
       transform="translate(180,-1640)">
      <path
         id="rect5404-5-9-9-1-3-3-0"
         style="fill:#000000"
         d="m -65,2466 c -3.6094,6.3546 -9.5256,10.399 -14.944,14.944 h 8.479 c -0.17515,4.39 -1.5406,9.1763 -2.477,13.82 7.5661,-4.3684 10.554,-1e-4 17.885,-1e-4 -0.82601,-4.6098 -2.3912,-8.9743 -2.5088,-13.82 h 8.5107 c -5.6068,-4.7738 -11.545,-9.435 -14.945,-14.944 z"
         inkscape:transform-center-x="-6.5576139"
         inkscape:transform-center-y="-11.09219"
         inkscape:connector-curvature="0" />
      <path
         id="rect5404-5-9-9-1-3-3-6-8"
         style="fill:#000000"
         d="m -11,2457 c -3.6094,6.3546 -9.5256,10.399 -14.944,14.944 h 8.479 c -0.17515,4.39 -1.5406,9.1763 -2.477,13.82 7.5661,-4.3684 10.554,-1e-4 17.885,-1e-4 -0.82601,-4.6098 -2.3912,-8.9743 -2.5088,-13.82 h 8.5107 c -5.6068,-4.7738 -11.545,-9.435 -14.945,-14.944 z"
         inkscape:transform-center-x="-6.5576139"
         inkscape:transform-center-y="-11.09219"
         inkscape:connector-curvature="0" />
      <g
         id="g3915-6-1-5-2-2-9"
         transform="matrix(1.2311,0,0,1.2311,-113.75,1345.6)">
        <path
           id="path3894-6-1-3-8-7-8"
           sodipodi:nodetypes="cssc"
           style="fill:#ffffff;stroke:#000000;stroke-width:4.06139994;stroke-linecap:round;stroke-linejoin:round"
           inkscape:connector-curvature="0"
           d="m 89.471,1065.9 c 3.7268,6.1263 -0.48379,10.049 -6.16,12.947 -8.0302,4.0988 -27.898,2.1019 -34.7,-2.0136 -6.2427,-3.777 -9.0128,-9.3495 -6.0403,-14.184" />
        <path
           id="path3112-2-8-9-4-0-8"
           sodipodi:nodetypes="ssssscsscsscs"
           style="fill:#ffffff;stroke:#000000;stroke-width:4.06139994;stroke-linecap:round;stroke-linejoin:round"
           inkscape:connector-curvature="0"
           d="m 21.354,1021 c -0.85728,15.682 13.892,40.298 31.364,46.018 9.0217,2.9538 29.326,3.8464 36.494,-1.431 12.273,-9.0365 18.48,-20.686 21.285,-35.088 0.99446,-5.1051 1.707,-10.986 0.95737,-15.702 -3.18,-20.02 -15.201,-18.19 -19.672,-19.34 -1.947,-12.67 -0.706,-32.56 1.882,-50.81 2.751,-19.4 -24.341,-14.51 -26.732,3.69 -1.1198,8.5239 -3.0565,15.509 -5.109,34.59 -3.1459,-10.276 -8.4312,-25.036 -10.205,-35.24 -2.9255,-16.826 -27.057,-6.7396 -23.048,13.758 2.7304,13.959 7.0695,24.243 9.7385,37.541 -2.8062,2.259 -16.056,5.6852 -16.951,22.058 z" />
        <path
           id="path3882-6-1-3-9-3-9"
           d="m 59.576,982.54 c 3.0369,12.661 7.4917,18.465 9.1495,21.42 -2.1204,-7.8868 -2.8679,-9.8306 -4.494,-18.415 -0.2757,-1.4554 -0.35672,-3.1981 -0.11641,-5.3248 z"
           sodipodi:nodetypes="ccscc"
           style="color:#000000;text-indent:0;text-transform:none;fill:#000000"
           inkscape:connector-curvature="0" />
        <path
           id="path3884-6-1-1-1-6-2"
           d="m 93.585,993.73 -4.1137,-0.29062 c 0.76134,6.99842 2.4669,9.38872 5.3267,15.11602 -0.16663,-5.2958 -0.7891,-7.7078 -1.213,-14.82502 z"
           sodipodi:nodetypes="cccc"
           style="color:#000000;text-indent:0;text-transform:none;fill:#000000"
           inkscape:connector-curvature="0" />
        <path
           id="path3886-8-5-6-4-2-7"
           sodipodi:nodetypes="cc"
           style="fill:none;stroke:#000000;stroke-width:4.06139994;stroke-linecap:round;stroke-linejoin:round"
           inkscape:connector-curvature="0"
           d="m 79.642,1058.3 c 4.0369,-9.6783 3.976,-12.465 5.1951,-17.405" />
        <path
           id="path3888-4-4-0-5-4-6"
           sodipodi:nodetypes="cc"
           style="fill:none;stroke:#000000;stroke-width:4.06139994;stroke-linecap:round;stroke-linejoin:round"
           inkscape:connector-curvature="0"
           d="m 70.26,1059 c 1.6922,-11.475 1.4242,-17.152 1.8555,-24.898" />
        <path
           id="path3890-1-8-2-9-7-3"
           sodipodi:nodetypes="cc"
           style="fill:none;stroke:#000000;stroke-width:4.06139994;stroke-linecap:round;stroke-linejoin:round"
           inkscape:connector-curvature="0"
           d="m 59.041,1059.5 c 0.0971,-7.9806 -0.59887,-11.754 -1.049,-16.831" />
        <path
           id="path3892-0-9-95-7-2-3"
           d="m 36.025,998.02 c 3.8912,16.757 -1.2012,23.343 -4.5873,31.905 5.1449,-8.8636 12.14,-11.79 8.8407,-31.439 z"
           sodipodi:nodetypes="cccc"
           style="color:#000000;text-indent:0;text-transform:none;fill:#000000"
           inkscape:connector-curvature="0" />
      </g>
    </g>
  </g>
  <metadata
     id="metadata17">
    <rdf:RDF>
      <cc:Work>
        <dc:format>image/svg+xml</dc:format>
        <dc:type
           rdf:resource="http://purl.org/dc/dcmitype/StillImage" />
        <cc:license
           rdf:resource="http://creativecommons.org/licenses/publicdomain/" />
        <dc:publisher>
          <cc:Agent
             rdf:about="http://openclipart.org/">
            <dc:title>Openclipart</dc:title>
          </cc:Agent>
        </dc:publisher>
        <dc:title>MultiTouch-Interface Mouse-theme 2-fingers-Drag-Up</dc:title>
        <dc:date>2011-09-15T11:19:05</dc:date>
        <dc:description>a dedicated set of mutlitouch functions icons in cartoon style</dc:description>
        <dc:source>https://openclipart.org/detail/160477/multitouch-interface-mouse-theme-2-fingers-drag-up-by-benbois</dc:source>
        <dc:creator>
          <cc:Agent>
            <dc:title>BenBois</dc:title>
          </cc:Agent>
        </dc:creator>
        <dc:subject>
          <rdf:Bag>
            <rdf:li>android</rdf:li>
            <rdf:li>cartoon</rdf:li>
            <rdf:li>gesture</rdf:li>
            <rdf:li>ios</rdf:li>
            <rdf:li>ipad</rdf:li>
            <rdf:li>iphone</rdf:li>
            <rdf:li>mickey</rdf:li>
            <rdf:li>mouse</rdf:li>
            <rdf:li>multitouch</rdf:li>
            <rdf:li>tablet</rdf:li>
          </rdf:Bag>
        </dc:subject>
      </cc:Work>
      <cc:License
         rdf:about="http://creativecommons.org/licenses/publicdomain/">
        <cc:permits
           rdf:resource="http://creativecommons.org/ns#Reproduction" />
        <cc:permits
           rdf:resource="http://creativecommons.org/ns#Distribution" />
        <cc:permits
           rdf:resource="http://creativecommons.org/ns#DerivativeWorks" />
      </cc:License>
    </rdf:RDF>
  </metadata>
</svg>
