<?xml version="1.0" encoding="UTF-8" standalone="no"?>
<!-- Created with Inkscape (http://www.inkscape.org/) -->

<svg
   xmlns:dc="http://purl.org/dc/elements/1.1/"
   xmlns:cc="http://creativecommons.org/ns#"
   xmlns:rdf="http://www.w3.org/1999/02/22-rdf-syntax-ns#"
   xmlns:svg="http://www.w3.org/2000/svg"
   xmlns="http://www.w3.org/2000/svg"
   xmlns:sodipodi="http://sodipodi.sourceforge.net/DTD/sodipodi-0.dtd"
   xmlns:inkscape="http://www.inkscape.org/namespaces/inkscape"
   id="svg2"
   sodipodi:docname="MultiTouch-Interface-Mouse-theme-Spread.svg"
   inkscape:export-filename="/home/leon/_DATA/gnu/img/20110914_MickeyMouse_Multi-Touch Interfaces Set/MultiTouch-Interface_Mouse-theme_Spread.png"
   viewBox="0 0 256 256"
   inkscape:export-xdpi="90"
   version="1.1"
   inkscape:export-ydpi="90"
   inkscape:version="0.92.1 r15371"
   width="273.06668"
   height="273.06668">
  <defs
     id="defs20" />
  <sodipodi:namedview
     id="base"
     bordercolor="#666666"
     inkscape:pageshadow="2"
     inkscape:window-y="0"
     pagecolor="#ffffff"
     inkscape:showpageshadow="false"
     inkscape:window-maximized="1"
     inkscape:zoom="2"
     inkscape:window-x="1280"
     inkscape:window-height="970"
     showgrid="false"
     borderopacity="1.0"
     inkscape:current-layer="layer1"
     inkscape:cx="131.45037"
     inkscape:cy="128.62129"
     showguides="true"
     inkscape:guide-bbox="true"
     inkscape:window-width="1280"
     inkscape:pageopacity="0.0"
     inkscape:document-units="px" />
  <g
     id="layer1"
     inkscape:label="Layer 1"
     inkscape:groupmode="layer"
     transform="translate(0,-796.36)">
    <rect
       id="rect5238"
       style="fill:#cccccc"
       height="256"
       width="256"
       y="796.35999"
       x="0" />
    <g
       id="g5413"
       transform="translate(780,-560)">
      <g
         id="g5638"
         transform="translate(391.29,506.12)">
        <path
           id="rect5404-5-9-9"
           style="fill:#000000"
           d="m -1069.2,936.33 c -6.3031,3.6985 -13.449,4.2433 -20.414,5.4701 l 7.343,4.2394 c -2.3467,3.7143 -5.9224,7.1766 -9.0553,10.73 8.7366,-2e-5 9.1403,5.2772 15.489,8.9426 1.5896,-4.4052 2.4163,-8.9676 4.7374,-13.223 l 7.3705,4.2554 c -2.4687,-6.9376 -5.2807,-13.943 -5.4701,-20.415 z"
           inkscape:transform-center-x="-6.5576139"
           inkscape:transform-center-y="-11.09219"
           inkscape:connector-curvature="0" />
        <path
           id="rect5404-5-9-4-2"
           style="fill:#000000"
           d="m -1103,995.89 c 6.3032,-3.6984 13.449,-4.2433 20.415,-5.47 l -7.343,-4.2394 c 2.3467,-3.7143 5.9223,-7.1767 9.0553,-10.73 -8.7366,3e-5 -9.1403,-5.2772 -15.489,-8.9426 -1.5896,4.4052 -2.4163,8.9676 -4.7375,13.223 l -7.3704,-4.2553 c 2.4687,6.9376 5.2806,13.943 5.47,20.414 z"
           inkscape:transform-center-x="6.5575861"
           inkscape:transform-center-y="11.092175"
           inkscape:connector-curvature="0" />
      </g>
      <g
         id="g3915-8-3"
         transform="matrix(1.2311,0,0,1.2311,-713.75,265.62)">
        <path
           id="path3894-3-6"
           sodipodi:nodetypes="cssc"
           style="fill:#ffffff;stroke:#000000;stroke-width:4.06139994;stroke-linecap:round;stroke-linejoin:round"
           inkscape:connector-curvature="0"
           d="m 89.471,1065.9 c 3.7268,6.1263 -0.48379,10.049 -6.16,12.947 -8.0302,4.0988 -27.898,2.1019 -34.7,-2.0136 -6.2427,-3.777 -9.0128,-9.3495 -6.0403,-14.184" />
        <path
           id="path3112-8-6"
           sodipodi:nodetypes="ssssssccsscs"
           style="fill:#ffffff;stroke:#000000;stroke-width:4.06139994;stroke-linecap:round;stroke-linejoin:round"
           inkscape:connector-curvature="0"
           d="m -3.2128,1024.9 c -5.6068,10.647 16.858,15.223 23.302,16.037 7.7428,0.9779 19.2,22.194 32.629,26.175 9.1014,2.6983 29.326,3.8464 36.494,-1.431 12.273,-9.0365 18.48,-20.686 21.285,-35.088 0.99446,-5.1051 1.707,-10.986 0.95737,-15.702 -3.1898,-20.064 -14.951,-20.048 -19.514,-20.76 -2.7272,-8.7246 -12.699,-15.044 -26.068,-12.391 -0.1029,-10.746 0.22553,-17.365 1.1122,-27.536 1.4832,-17.013 -28.072,-12.04 -27.471,15.265 0.30164,13.708 6.2504,36.765 -1.6112,54.848 -15.641,-13.196 -30.953,-18.718 -41.116,0.5825 z" />
        <path
           id="path3882-8-1"
           d="m 63.838,981.04 c 0.0308,10.253 1.2148,18.225 7.2258,26.105 -2.5091,-6.5752 -3.3692,-19.666 -3.1766,-27.939 z"
           sodipodi:nodetypes="cccc"
           style="color:#000000;text-indent:0;text-transform:none;fill:#000000"
           inkscape:connector-curvature="0" />
        <path
           id="path3884-7-6"
           d="m 93.471,992.23 -3.8091,1.4862 c 1.929,5.5768 4.0509,11.842 7.1137,15.183 -1.0804,-2.6051 -2.0771,-11.978 -3.3046,-16.669 z"
           sodipodi:nodetypes="cccc"
           style="color:#000000;text-indent:0;text-transform:none;fill:#000000"
           inkscape:connector-curvature="0" />
        <path
           id="path3886-1-1"
           sodipodi:nodetypes="cc"
           style="fill:none;stroke:#000000;stroke-width:4.06139994;stroke-linecap:round;stroke-linejoin:round"
           inkscape:connector-curvature="0"
           d="m 83.386,1059 c 4.9385,-9.2507 5.1427,-12.031 6.8258,-16.832" />
        <path
           id="path3888-9-0"
           sodipodi:nodetypes="cc"
           style="fill:none;stroke:#000000;stroke-width:4.06139994;stroke-linecap:round;stroke-linejoin:round"
           inkscape:connector-curvature="0"
           d="m 73.981,1058.8 c 2.7752,-11.262 3.048,-16.939 4.2136,-24.609" />
        <path
           id="path3890-3-1"
           sodipodi:nodetypes="cc"
           style="fill:none;stroke:#000000;stroke-width:4.06139994;stroke-linecap:round;stroke-linejoin:round"
           inkscape:connector-curvature="0"
           d="m 62.763,1058.3 c 0.85519,-7.9352 0.52098,-11.757 0.55552,-16.855" />
      </g>
    </g>
  </g>
  <metadata
     id="metadata17">
    <rdf:RDF>
      <cc:Work>
        <dc:format>image/svg+xml</dc:format>
        <dc:type
           rdf:resource="http://purl.org/dc/dcmitype/StillImage" />
        <cc:license
           rdf:resource="http://creativecommons.org/licenses/publicdomain/" />
        <dc:publisher>
          <cc:Agent
             rdf:about="http://openclipart.org/">
            <dc:title>Openclipart</dc:title>
          </cc:Agent>
        </dc:publisher>
        <dc:title>MultiTouch-Interface Mouse-theme Spread</dc:title>
        <dc:date>2011-09-15T11:19:17</dc:date>
        <dc:description>a dedicated set of mutlitouch functions icons in cartoon style</dc:description>
        <dc:source>https://openclipart.org/detail/160567/multitouch-interface-mouse-theme-spread-by-benbois</dc:source>
        <dc:creator>
          <cc:Agent>
            <dc:title>BenBois</dc:title>
          </cc:Agent>
        </dc:creator>
        <dc:subject>
          <rdf:Bag>
            <rdf:li>android</rdf:li>
            <rdf:li>cartoon</rdf:li>
            <rdf:li>gesture</rdf:li>
            <rdf:li>ios</rdf:li>
            <rdf:li>ipad</rdf:li>
            <rdf:li>iphone</rdf:li>
            <rdf:li>mickey</rdf:li>
            <rdf:li>mouse</rdf:li>
            <rdf:li>multitouch</rdf:li>
            <rdf:li>tablet</rdf:li>
          </rdf:Bag>
        </dc:subject>
      </cc:Work>
      <cc:License
         rdf:about="http://creativecommons.org/licenses/publicdomain/">
        <cc:permits
           rdf:resource="http://creativecommons.org/ns#Reproduction" />
        <cc:permits
           rdf:resource="http://creativecommons.org/ns#Distribution" />
        <cc:permits
           rdf:resource="http://creativecommons.org/ns#DerivativeWorks" />
      </cc:License>
    </rdf:RDF>
  </metadata>
</svg>
