<?xml version="1.0" encoding="UTF-8" standalone="no"?>
<!-- Created with Inkscape (http://www.inkscape.org/) -->

<svg
   xmlns:dc="http://purl.org/dc/elements/1.1/"
   xmlns:cc="http://creativecommons.org/ns#"
   xmlns:rdf="http://www.w3.org/1999/02/22-rdf-syntax-ns#"
   xmlns:svg="http://www.w3.org/2000/svg"
   xmlns="http://www.w3.org/2000/svg"
   xmlns:sodipodi="http://sodipodi.sourceforge.net/DTD/sodipodi-0.dtd"
   xmlns:inkscape="http://www.inkscape.org/namespaces/inkscape"
   id="svg2"
   sodipodi:docname="paro-AL-standing.svg"
   inkscape:export-filename="C:\Documents and Settings\Compaq_Owner\Desktop\PEC sticks-standing1mm.png"
   viewBox="0 0 117.18 250.52"
   sodipodi:version="0.32"
   inkscape:export-xdpi="90"
   version="1.0"
   inkscape:export-ydpi="90"
   inkscape:version="0.92.1 r15371"
   width="124.992"
   height="267.22134">
  <defs
     id="defs4">
    <linearGradient
       id="linearGradient6747"
       y2="539.27002"
       gradientUnits="userSpaceOnUse"
       x2="247.31"
       gradientTransform="translate(-173.3,-320.12)"
       y1="498.13"
       x1="200.38"
       inkscape:collect="always">
      <stop
         id="stop6741"
         style="stop-color:#000000"
         offset="0" />
      <stop
         id="stop6743"
         style="stop-color:#000000;stop-opacity:0"
         offset="1" />
    </linearGradient>
  </defs>
  <sodipodi:namedview
     id="base"
     bordercolor="#666666"
     inkscape:pageshadow="2"
     inkscape:guide-bbox="true"
     pagecolor="#ffffff"
     inkscape:window-height="713"
     inkscape:zoom="0.98994949"
     inkscape:window-x="0"
     borderopacity="1.0"
     inkscape:current-layer="layer1"
     inkscape:cx="123.00235"
     inkscape:cy="146.05977"
     showguides="true"
     inkscape:window-y="25"
     inkscape:window-width="1014"
     inkscape:pageopacity="0.0"
     inkscape:document-units="px"
     showgrid="false" />
  <g
     id="layer1"
     inkscape:label="Layer 1"
     inkscape:groupmode="layer"
     transform="translate(-3.0305,0.21677)">
    <g
       id="g1897">
      <path
         id="path3075"
         sodipodi:rx="12.857142"
         sodipodi:ry="25"
         style="fill:none;stroke:#000000;stroke-width:2.35339999;stroke-linecap:round"
         sodipodi:type="arc"
         d="m 444.0348,362.03361 a 12.857142,25 0 0 1 18.14636,0.97228 12.857142,25 0 0 1 -0.44121,35.28756 12.857142,25 0 0 1 -18.14922,-0.7435 12.857142,25 0 0 1 0.32354,-35.29239"
         sodipodi:open="true"
         transform="matrix(1.0793,0.11449,-0.12439,0.99342,-385.66,-382.1)"
         sodipodi:cy="380.21933"
         sodipodi:cx="452.85715"
         sodipodi:end="3.9431937"
         sodipodi:start="3.9561603" />
      <path
         id="path3077"
         sodipodi:nodetypes="csc"
         style="fill:none;stroke:#000000;stroke-width:3"
         d="M 53.11,72.037 C 41.48,80.451 43.736,145.56 48.814,143.05 56.427,139.27 42.279,77.615 53.11,72.037 Z"
         inkscape:connector-curvature="0" />
      <path
         id="path4833"
         sodipodi:rx="3.5714285"
         sodipodi:ry="4.6428571"
         style="fill:none;stroke:#000000;stroke-width:2.07500005;stroke-linecap:round"
         sodipodi:type="arc"
         d="m 293.26364,368.62769 a 3.5714285,4.6428571 0 0 1 5.04066,0.18056 3.5714285,4.6428571 0 0 1 -0.12256,6.55341 3.5714285,4.6428571 0 0 1 -5.04145,-0.13808 3.5714285,4.6428571 0 0 1 0.0899,-6.5543"
         sodipodi:open="true"
         transform="translate(-242.36,-330.75)"
         sodipodi:cy="372.00504"
         sodipodi:cx="295.71429"
         sodipodi:end="3.9431937"
         sodipodi:start="3.9561603" />
      <path
         id="path4835"
         sodipodi:rx="3.5714285"
         sodipodi:ry="4.6428571"
         style="fill:none;stroke:#000000;stroke-width:2.07500005;stroke-linecap:round"
         sodipodi:type="arc"
         d="m 293.26364,368.62769 a 3.5714285,4.6428571 0 0 1 5.04066,0.18056 3.5714285,4.6428571 0 0 1 -0.12256,6.55341 3.5714285,4.6428571 0 0 1 -5.04145,-0.13808 3.5714285,4.6428571 0 0 1 0.0899,-6.5543"
         sodipodi:open="true"
         transform="translate(-230.72,-330.75)"
         sodipodi:cy="372.00504"
         sodipodi:cx="295.71429"
         sodipodi:end="3.9431937"
         sodipodi:start="3.9561603" />
      <path
         id="path4837"
         style="fill:none;stroke:#000000;stroke-width:1.25"
         d="m 59.602,61.756 c -3.571,0 -15,0.714 -15,0.714"
         inkscape:connector-curvature="0" />
      <path
         id="path4874"
         sodipodi:nodetypes="cc"
         style="fill:none;stroke:#000000;stroke-width:1.89999998"
         d="M 48.432,77.661 C 27.539,138.06 33.783,145.34 33.785,145.34"
         inkscape:connector-curvature="0" />
      <path
         id="path4876"
         sodipodi:nodetypes="cc"
         style="fill:none;stroke:#000000;stroke-width:1.89999998"
         d="m 50.957,85.237 c 5.051,32.833 13.132,51.013 13.132,51.013"
         inkscape:connector-curvature="0" />
      <path
         id="path4878"
         sodipodi:nodetypes="csc"
         style="fill:none;stroke:#000000;stroke-width:1.89999998"
         d="m 45.106,138.71 c 3.576,67.99 -5.765,61.68 -5.26,63.2 0.505,1.51 1.01,3.54 1.01,3.54"
         inkscape:connector-curvature="0" />
      <path
         id="path4880"
         sodipodi:nodetypes="csc"
         style="fill:none;stroke:#000000;stroke-width:1.89999998"
         d="m 48.785,139.73 c 11.69,30.19 -1.849,59.67 -1.409,62.28 0.266,1.57 13.208,1.48 13.208,1.48"
         inkscape:connector-curvature="0" />
      <path
         id="path4882"
         sodipodi:nodetypes="cssc"
         style="fill:#000000;fill-rule:evenodd;stroke:#000000;stroke-width:1px"
         d="m 39.341,202.41 c -2.444,2.49 -8.163,2.49 -5.556,4.05 5.366,3.2 4.974,6.79 8.586,3.03 3.932,-4.1 13.132,-0.51 -3.03,-7.08 z"
         inkscape:connector-curvature="0" />
      <path
         id="path5757"
         sodipodi:nodetypes="cssc"
         style="fill:#000000;fill-rule:evenodd;stroke:#000000;stroke-width:1px"
         d="m 52.341,199.84 c -2.444,2.49 -5.663,1.06 -3.056,2.62 5.366,3.2 12.831,6.08 16.443,2.31 3.932,-4.1 2.775,1.64 -13.387,-4.93 z"
         inkscape:connector-curvature="0" />
      <path
         id="path5759"
         sodipodi:nodetypes="cssc"
         style="fill:#000000;fill-rule:evenodd;stroke:#000000;stroke-width:1px"
         d="m 37.895,145.37 c -3.48,0.18 -5.417,-8.24 -4.551,-5.33 1.781,6 -3.209,12.92 1.997,12.59 5.668,-0.35 10.01,8.52 2.554,-7.26 z"
         inkscape:connector-curvature="0" />
      <path
         id="path5761"
         sodipodi:nodetypes="cssc"
         style="fill:#000000;fill-rule:evenodd;stroke:#000000;stroke-width:1px"
         d="m 66.816,136.28 c -3.481,0.18 -5.418,-8.24 -4.552,-5.33 1.781,5.99 -3.209,12.92 1.997,12.59 5.668,-0.36 10.01,8.51 2.555,-7.26 z"
         inkscape:connector-curvature="0" />
      <path
         id="path6737"
         style="fill:url(#linearGradient6747)"
         d="m 56.818,206.7 c 12.611,-0.95 -13.479,3.91 -15.069,4.24 -8.064,0.98 17.066,-2.02 25.795,-3.03 18.346,-1.46 -24.619,5.02 -27.055,5.58 0.742,-3.11 33.629,-8.99 24.744,-3.79 -14.033,7.12 -11.483,4.94 2.033,3.43 22.218,-1.9 -4.832,3.65 -12.467,5.43 -4.22,-2.03 38.918,-9.55 19.038,-3.23 -1.228,1.69 -7.704,2.6 1.67,0.23 1.242,-0.32 -2.451,0.75 -3.645,1.21 -4.029,1.57 -4.234,1.99 0.021,2.62 4.239,0.47 8.488,0.81 12.733,1.22 l -6.12,2.53 c -4.291,-0.45 -8.594,-0.77 -12.89,-1.18 -12.007,-1.69 12.466,-10.97 15.285,-8.13 -5.518,1.81 -36.191,7.07 -19.84,1.9 19.093,-3.6 13.323,-0.85 0.258,0.02 -13.201,1.65 -18.32,2.25 -2.871,-5.09 6.406,-3.07 -31.214,6.78 -11.563,-0.06 8.157,-1.49 43.084,-6.87 14.815,-0.12 -10.064,1.06 -46.04,5.82 -14.064,-2.19 14.705,-3.03 18.794,-1.82 2.509,1.07 z"
         inkscape:connector-curvature="0" />
    </g>
  </g>
  <metadata
     id="metadata23">
    <rdf:RDF>
      <cc:Work>
        <dc:format>image/svg+xml</dc:format>
        <dc:type
           rdf:resource="http://purl.org/dc/dcmitype/StillImage" />
        <cc:license
           rdf:resource="http://creativecommons.org/licenses/publicdomain/" />
        <dc:publisher>
          <cc:Agent
             rdf:about="http://openclipart.org/">
            <dc:title>Openclipart</dc:title>
          </cc:Agent>
        </dc:publisher>
        <dc:title>AL_standing</dc:title>
        <dc:date>2006-11-21T15:52:48</dc:date>
        <dc:description>THIS IS AL, HE'S STANDING UP.</dc:description>
        <dc:source>https://openclipart.org/detail/1567/al_standing-by-paro</dc:source>
        <dc:creator>
          <cc:Agent>
            <dc:title>paro</dc:title>
          </cc:Agent>
        </dc:creator>
        <dc:subject>
          <rdf:Bag>
            <rdf:li>pec</rdf:li>
            <rdf:li>pecs</rdf:li>
            <rdf:li>pecs cards</rdf:li>
            <rdf:li>people</rdf:li>
            <rdf:li>standing</rdf:li>
            <rdf:li>stick</rdf:li>
            <rdf:li>stick figure</rdf:li>
            <rdf:li>stick man</rdf:li>
          </rdf:Bag>
        </dc:subject>
      </cc:Work>
      <cc:License
         rdf:about="http://creativecommons.org/licenses/publicdomain/">
        <cc:permits
           rdf:resource="http://creativecommons.org/ns#Reproduction" />
        <cc:permits
           rdf:resource="http://creativecommons.org/ns#Distribution" />
        <cc:permits
           rdf:resource="http://creativecommons.org/ns#DerivativeWorks" />
      </cc:License>
    </rdf:RDF>
  </metadata>
</svg>
