<?xml version="1.0" encoding="UTF-8" standalone="no"?>
<!-- Created with Inkscape (http://www.inkscape.org/) -->

<svg
   xmlns:dc="http://purl.org/dc/elements/1.1/"
   xmlns:cc="http://creativecommons.org/ns#"
   xmlns:rdf="http://www.w3.org/1999/02/22-rdf-syntax-ns#"
   xmlns:svg="http://www.w3.org/2000/svg"
   xmlns="http://www.w3.org/2000/svg"
   xmlns:sodipodi="http://sodipodi.sourceforge.net/DTD/sodipodi-0.dtd"
   xmlns:inkscape="http://www.inkscape.org/namespaces/inkscape"
   id="svg2"
   sodipodi:docname="paro-AL-LISTEN-.svg"
   inkscape:export-filename="C:\Documents and Settings\Compaq_Owner\Desktop\PEC sticks-standighfhng1.png"
   viewBox="0 0 113.28 145.63"
   sodipodi:version="0.32"
   inkscape:export-xdpi="90"
   version="1.0"
   inkscape:export-ydpi="90"
   inkscape:version="0.92.1 r15371"
   width="120.832"
   height="155.33867">
  <defs
     id="defs28" />
  <sodipodi:namedview
     id="base"
     bordercolor="#666666"
     inkscape:pageshadow="2"
     inkscape:guide-bbox="true"
     pagecolor="#ffffff"
     inkscape:window-height="622"
     inkscape:zoom="1"
     inkscape:window-x="57"
     borderopacity="1.0"
     inkscape:current-layer="layer1"
     inkscape:cx="230.77645"
     inkscape:cy="17.39934"
     showguides="true"
     inkscape:window-y="68"
     inkscape:window-width="914"
     inkscape:pageopacity="0.0"
     inkscape:document-units="px"
     showgrid="false" />
  <g
     id="layer1"
     inkscape:label="Layer 1"
     inkscape:groupmode="layer"
     transform="translate(-10.539,-25.822)">
    <g
       id="g1902"
       inkscape:export-ydpi="90"
       inkscape:export-xdpi="90"
       inkscape:export-filename="/home/paro/Desktop/asdad"
       transform="translate(0,20)">
      <rect
         id="rect1900"
         style="fill:#ffffff;stroke-width:1.89999998;stroke-linecap:round"
         height="145.63"
         width="113.28"
         y="5.8221998"
         x="10.539" />
      <path
         id="path3077"
         sodipodi:nodetypes="csc"
         style="fill:none;stroke:#000000;stroke-width:3"
         d="m 52.66,68.91 c -11.629,8.414 -9.374,73.53 -4.296,71.01 7.613,-3.77 -6.535,-65.432 4.296,-71.01 z"
         inkscape:connector-curvature="0" />
      <path
         id="path4833"
         sodipodi:rx="3.5714285"
         sodipodi:ry="4.6428571"
         style="fill:none;stroke:#000000;stroke-width:2.07500005;stroke-linecap:round"
         sodipodi:type="arc"
         d="m 293.26364,368.62769 a 3.5714285,4.6428571 0 0 1 5.04066,0.18056 3.5714285,4.6428571 0 0 1 -0.12256,6.55341 3.5714285,4.6428571 0 0 1 -5.04145,-0.13808 3.5714285,4.6428571 0 0 1 0.0899,-6.5543"
         sodipodi:open="true"
         transform="matrix(0.99182,0.12765,-0.12765,0.99182,-188.1,-368.84)"
         sodipodi:cy="372.00504"
         sodipodi:cx="295.71429"
         sodipodi:end="3.9431937"
         sodipodi:start="3.9561603" />
      <path
         id="path4835"
         sodipodi:rx="3.5714285"
         sodipodi:ry="4.6428571"
         style="fill:none;stroke:#000000;stroke-width:2.07500005;stroke-linecap:round"
         sodipodi:type="arc"
         d="m 293.26364,368.62769 a 3.5714285,4.6428571 0 0 1 5.04066,0.18056 3.5714285,4.6428571 0 0 1 -0.12256,6.55341 3.5714285,4.6428571 0 0 1 -5.04145,-0.13808 3.5714285,4.6428571 0 0 1 0.0899,-6.5543"
         sodipodi:open="true"
         transform="matrix(0.99182,0.12765,-0.12765,0.99182,-176.55,-367.36)"
         sodipodi:cy="372.00504"
         sodipodi:cx="295.71429"
         sodipodi:end="3.9431937"
         sodipodi:start="3.9561603" />
      <path
         id="path4837"
         sodipodi:nodetypes="cc"
         style="fill:none;stroke:#000000;stroke-width:1.25"
         d="M 57.298,58.994 C 54.864,59.463 47.787,56.437 47.33,54.931"
         inkscape:connector-curvature="0" />
      <path
         id="path4874"
         sodipodi:nodetypes="cc"
         style="fill:none;stroke:#000000;stroke-width:1.89999998"
         d="M 47.982,74.535 C 27.089,134.93 33.333,142.21 33.335,142.21"
         inkscape:connector-curvature="0" />
      <path
         id="path4876"
         sodipodi:nodetypes="cc"
         style="fill:none;stroke:#000000;stroke-width:1.89999998"
         d="M 50.508,82.111 C 71.633,112.8 96.166,60.981 89.711,60.981"
         inkscape:connector-curvature="0" />
      <path
         id="path5761"
         sodipodi:nodetypes="cssc"
         style="fill:#000000;fill-rule:evenodd;stroke:#000000;stroke-width:1.37399995px"
         d="m 84.33,53.257 c 4.686,0.054 7.972,12.032 6.572,7.874 -2.884,-8.562 4.765,-23.867 -1.916,-21.765 -7.982,2.51 -15.981,-8.884 -4.656,13.891 z"
         inkscape:connector-curvature="0" />
      <path
         id="path1330"
         sodipodi:nodetypes="cssc"
         style="fill:#ffffff;fill-rule:evenodd;stroke:#000000;stroke-width:2.07500005"
         d="m 75.161,34.67 c 5.042,-4.895 8.247,-4.757 11.983,-0.349 5.712,6.738 -3.44,17.249 -9.55,15.881 l -6.111,-1.367"
         inkscape:connector-curvature="0" />
      <path
         id="path1334"
         style="fill:#ffffff;fill-rule:evenodd;stroke:#000000;stroke-width:1px"
         d="m 77.032,38.623 c 1.525,3.229 3.426,1.067 1.525,3.229 -1.902,2.162 -1.4,-0.287 -1.902,2.162 l -0.502,2.449"
         inkscape:connector-curvature="0" />
      <path
         id="path3075"
         sodipodi:rx="12.857142"
         sodipodi:ry="25"
         style="fill:none;stroke:#000000;stroke-width:2.35339999;stroke-linecap:round"
         sodipodi:type="arc"
         d="m 444.0348,362.03361 a 12.857142,25 0 0 1 18.14636,0.97228 12.857142,25 0 0 1 -0.44121,35.28756 12.857142,25 0 0 1 -18.14922,-0.7435 12.857142,25 0 0 1 0.32354,-35.29239"
         sodipodi:open="true"
         transform="matrix(1.0559,0.25132,-0.25018,0.96942,-323.66,-438.06)"
         sodipodi:cy="380.21933"
         sodipodi:cx="452.85715"
         sodipodi:end="3.9431937"
         sodipodi:start="3.9561603" />
      <path
         id="path3084"
         sodipodi:nodetypes="cc"
         style="fill:none;stroke:#000000;stroke-width:1px"
         d="m 100.47,26.613 c -12.189,17.057 1.71,27.522 2.14,27.858"
         inkscape:connector-curvature="0" />
      <path
         id="path3086"
         sodipodi:nodetypes="cc"
         style="fill:none;stroke:#000000;stroke-width:0.94919997px"
         d="m 104.47,28.35 c -12.189,15.368 1.71,24.797 2.14,25.099"
         inkscape:connector-curvature="0" />
      <path
         id="path3088"
         sodipodi:nodetypes="cc"
         style="fill:none;stroke:#000000;stroke-width:0.82396001px"
         d="m 109.61,31.443 c -12.186,11.58 1.72,18.685 2.14,18.912"
         inkscape:connector-curvature="0" />
      <rect
         id="rect3090"
         style="fill:#ffffff;stroke-width:1.89999998;stroke-linecap:round"
         height="52.692001"
         width="113.28"
         y="98.755997"
         x="10.539" />
      <path
         id="path1332"
         sodipodi:nodetypes="cc"
         style="fill:none;stroke:#000000;stroke-width:1px"
         d="m 78.518,36.192 c 7.828,-3.045 7.323,3.737 7.323,4.041"
         inkscape:connector-curvature="0" />
      <path
         id="path5696"
         sodipodi:nodetypes="cssc"
         style="fill:#ffffff;fill-rule:evenodd;stroke:#000000;stroke-width:2.07500005"
         d="m 48.038,33.783 c -2.844,-6.426 -6.76,-7.498 -11.874,-4.809 -7.818,4.111 -3.266,17.283 2.912,18.302 6.178,1.019 5.285,1.198 5.285,1.198"
         inkscape:connector-curvature="0" />
      <path
         id="path5698"
         style="fill:#ffffff;fill-rule:evenodd;stroke:#000000;stroke-width:1px"
         d="m 43.931,36.748 c -2.623,2.424 -3.577,-0.292 -2.623,2.424 0.954,2.717 1.405,0.258 0.954,2.717 l -0.451,2.459"
         inkscape:connector-curvature="0" />
      <path
         id="path5700"
         sodipodi:nodetypes="cc"
         style="fill:none;stroke:#000000;stroke-width:1px"
         d="m 43.463,33.938 c -6.12,-5.754 -8.19,0.724 -8.304,1.006"
         inkscape:connector-curvature="0" />
      <path
         id="path1335"
         sodipodi:nodetypes="csc"
         style="fill:none;stroke:#000000;stroke-width:1px"
         d="m 47.982,33.371 c 0.953,-7.514 -3.169,-18.887 21.971,-16.163 6.821,0.739 6.061,16.668 6.061,16.668"
         inkscape:connector-curvature="0" />
    </g>
  </g>
  <metadata
     id="metadata25">
    <rdf:RDF>
      <cc:Work>
        <dc:format>image/svg+xml</dc:format>
        <dc:type
           rdf:resource="http://purl.org/dc/dcmitype/StillImage" />
        <cc:license
           rdf:resource="http://creativecommons.org/licenses/publicdomain/" />
        <dc:publisher>
          <cc:Agent
             rdf:about="http://openclipart.org/">
            <dc:title>Openclipart</dc:title>
          </cc:Agent>
        </dc:publisher>
        <dc:title>AL_LISTEN!</dc:title>
        <dc:date>2006-11-21T16:05:21</dc:date>
        <dc:description>THIS IS AL LISTENING TO SOMETHING.</dc:description>
        <dc:source>https://openclipart.org/detail/1569/al_listen!-by-paro</dc:source>
        <dc:creator>
          <cc:Agent>
            <dc:title>paro</dc:title>
          </cc:Agent>
        </dc:creator>
        <dc:subject>
          <rdf:Bag>
            <rdf:li>hear</rdf:li>
            <rdf:li>hearing</rdf:li>
            <rdf:li>listen</rdf:li>
            <rdf:li>listening</rdf:li>
            <rdf:li>pec</rdf:li>
            <rdf:li>pecs</rdf:li>
            <rdf:li>pecs cards</rdf:li>
            <rdf:li>people</rdf:li>
            <rdf:li>stick</rdf:li>
            <rdf:li>stick figures</rdf:li>
          </rdf:Bag>
        </dc:subject>
      </cc:Work>
      <cc:License
         rdf:about="http://creativecommons.org/licenses/publicdomain/">
        <cc:permits
           rdf:resource="http://creativecommons.org/ns#Reproduction" />
        <cc:permits
           rdf:resource="http://creativecommons.org/ns#Distribution" />
        <cc:permits
           rdf:resource="http://creativecommons.org/ns#DerivativeWorks" />
      </cc:License>
    </rdf:RDF>
  </metadata>
</svg>
