<?xml version="1.0" encoding="UTF-8" standalone="no"?>
<!-- Created with Inkscape (http://www.inkscape.org/) -->

<svg
   xmlns:dc="http://purl.org/dc/elements/1.1/"
   xmlns:cc="http://creativecommons.org/ns#"
   xmlns:rdf="http://www.w3.org/1999/02/22-rdf-syntax-ns#"
   xmlns:svg="http://www.w3.org/2000/svg"
   xmlns="http://www.w3.org/2000/svg"
   xmlns:sodipodi="http://sodipodi.sourceforge.net/DTD/sodipodi-0.dtd"
   xmlns:inkscape="http://www.inkscape.org/namespaces/inkscape"
   id="svg2"
   sodipodi:docname="paro-AL-look-left.svg"
   inkscape:export-filename="C:\Documents and Settings\Compaq_Owner\Desktop\PEC sticks-standingeret1.png"
   viewBox="0 0 94.141 132.42"
   sodipodi:version="0.32"
   inkscape:export-xdpi="90"
   version="1.0"
   inkscape:export-ydpi="90"
   inkscape:version="0.92.1 r15371"
   width="100.41707"
   height="141.248">
  <defs
     id="defs21" />
  <sodipodi:namedview
     id="base"
     bordercolor="#666666"
     inkscape:pageshadow="2"
     inkscape:guide-bbox="true"
     pagecolor="#ffffff"
     inkscape:window-height="713"
     inkscape:zoom="1.8101934"
     inkscape:window-x="0"
     borderopacity="1.0"
     inkscape:current-layer="layer1"
     inkscape:cx="77.995089"
     inkscape:cy="64.326573"
     showguides="true"
     inkscape:window-y="25"
     inkscape:window-width="1014"
     inkscape:pageopacity="0.0"
     inkscape:document-units="px"
     showgrid="false" />
  <g
     id="layer1"
     inkscape:label="Layer 1"
     inkscape:groupmode="layer"
     transform="translate(-9.9219,-19.159)">
    <g
       id="g1918"
       inkscape:export-ydpi="90"
       inkscape:export-xdpi="90">
      <rect
         id="rect2832"
         style="fill:#ffffff"
         height="125.78"
         width="94.140999"
         y="19.159"
         x="9.9218998" />
      <path
         id="path3075"
         sodipodi:rx="12.857142"
         sodipodi:ry="25"
         style="fill:none;stroke:#000000;stroke-width:2.35339999;stroke-linecap:round"
         sodipodi:type="arc"
         d="m 444.0348,362.03361 a 12.857142,25 0 0 1 18.14636,0.97228 12.857142,25 0 0 1 -0.44121,35.28756 12.857142,25 0 0 1 -18.14922,-0.7435 12.857142,25 0 0 1 0.32354,-35.29239"
         sodipodi:open="true"
         transform="matrix(1.0793,0.11449,-0.12439,0.99342,-382.51,-376.38)"
         sodipodi:cy="380.21933"
         sodipodi:cx="452.85715"
         sodipodi:end="3.9431937"
         sodipodi:start="3.9561603" />
      <path
         id="path3077"
         sodipodi:nodetypes="csc"
         style="fill:none;stroke:#000000;stroke-width:2.93309999"
         d="M 55.902,78.206 C 44.719,86.57 46.887,151.3 51.77,148.8 59.091,145.04 45.486,83.751 55.902,78.206 Z"
         inkscape:connector-curvature="0" />
      <path
         id="path4833"
         sodipodi:rx="3.5714285"
         sodipodi:ry="4.6428571"
         style="fill:none;stroke:#000000;stroke-width:2.07500005;stroke-linecap:round"
         sodipodi:type="arc"
         d="m 293.26364,368.62769 a 3.5714285,4.6428571 0 0 1 5.04066,0.18056 3.5714285,4.6428571 0 0 1 -0.12256,6.55341 3.5714285,4.6428571 0 0 1 -5.04145,-0.13808 3.5714285,4.6428571 0 0 1 0.0899,-6.5543"
         sodipodi:open="true"
         transform="translate(-241.21,-325.03)"
         sodipodi:cy="372.00504"
         sodipodi:cx="295.71429"
         sodipodi:end="3.9431937"
         sodipodi:start="3.9561603" />
      <path
         id="path4835"
         sodipodi:rx="3.5714285"
         sodipodi:ry="4.6428571"
         style="fill:none;stroke:#000000;stroke-width:2.07500005;stroke-linecap:round"
         sodipodi:type="arc"
         d="m 293.26364,368.62769 a 3.5714285,4.6428571 0 0 1 5.04066,0.18056 3.5714285,4.6428571 0 0 1 -0.12256,6.55341 3.5714285,4.6428571 0 0 1 -5.04145,-0.13808 3.5714285,4.6428571 0 0 1 0.0899,-6.5543"
         sodipodi:open="true"
         transform="translate(-229.57,-325.03)"
         sodipodi:cy="372.00504"
         sodipodi:cx="295.71429"
         sodipodi:end="3.9431937"
         sodipodi:start="3.9561603" />
      <path
         id="path4837"
         sodipodi:nodetypes="cc"
         style="fill:none;stroke:#000000;stroke-width:1.25"
         d="m 64.751,67.47 c 3.035,-1.461 -9.972,1.374 -15.714,0"
         inkscape:connector-curvature="0" />
      <path
         id="path4874"
         sodipodi:nodetypes="cc"
         style="fill:none;stroke:#000000;stroke-width:1.61539996"
         d="M 51.723,83.233 C 30.447,126.11 36.806,131.27 36.807,131.28"
         inkscape:connector-curvature="0" />
      <path
         id="path4876"
         sodipodi:nodetypes="cc"
         style="fill:none;stroke:#000000;stroke-width:1.89999998"
         d="m 54.106,90.952 c 5.051,32.828 13.132,51.008 13.132,51.008"
         inkscape:connector-curvature="0" />
      <path
         id="path2811"
         sodipodi:rx="1.953125"
         sodipodi:ry="2.34375"
         style="fill:#000000"
         sodipodi:type="arc"
         d="m 104.9098,354.56352 a 1.953125,2.34375 0 0 1 2.75661,0.0912 1.953125,2.34375 0 0 1 -0.067,3.30821 1.953125,2.34375 0 0 1 -2.75704,-0.0697 1.953125,2.34375 0 0 1 0.0492,-3.30866"
         sodipodi:open="true"
         transform="translate(-42.148,-308.41)"
         sodipodi:cy="356.26843"
         sodipodi:cx="106.25"
         sodipodi:end="3.9431937"
         sodipodi:start="3.9561603" />
      <path
         id="path2813"
         sodipodi:rx="1.953125"
         sodipodi:ry="2.34375"
         style="fill:#000000"
         sodipodi:type="arc"
         d="m 104.9098,354.56352 a 1.953125,2.34375 0 0 1 2.75661,0.0912 1.953125,2.34375 0 0 1 -0.067,3.30821 1.953125,2.34375 0 0 1 -2.75704,-0.0697 1.953125,2.34375 0 0 1 0.0492,-3.30866"
         sodipodi:open="true"
         transform="translate(-54.148,-308.41)"
         sodipodi:cy="356.26843"
         sodipodi:cx="106.25"
         sodipodi:end="3.9431937"
         sodipodi:start="3.9561603" />
      <path
         id="path2824"
         style="fill:#000000"
         d="m 34.6,47.879 c -0.58,0.021 -1.158,0.055 -1.738,0.084 -4.7,0.168 -9.403,0.184 -14.105,0.221 l 1.61,1.491 c 4.861,0.038 9.723,0.057 14.584,0.221 0.64,0.029 1.279,0.063 1.919,0.084 z"
         inkscape:connector-curvature="0" />
      <path
         id="path2828"
         style="fill:#000000"
         d="m 21.522,44.634 c -0.522,0.339 -1.095,0.62 -1.643,0.927 -1.196,0.739 -2.38,1.488 -3.502,2.309 -0.636,0.683 -0.489,0.894 0.096,1.545 1.566,1.449 3.321,2.72 5.108,3.953 0.287,0.178 0.573,0.355 0.86,0.533 l 3.549,1.222 c -0.299,-0.175 -0.599,-0.35 -0.899,-0.525 -1.759,-1.176 -3.524,-2.388 -4.955,-3.878 -0.705,-0.546 -0.646,-0.346 -0.392,-1.029 1.061,-0.842 2.198,-1.609 3.43,-2.255 0.509,-0.24 1.119,-0.607 1.646,-0.7 z"
         inkscape:connector-curvature="0" />
      <rect
         id="rect2830"
         style="fill:#ffffff"
         height="48.047001"
         width="94.140999"
         y="103.53"
         x="9.9218998" />
    </g>
  </g>
  <metadata
     id="metadata18">
    <rdf:RDF>
      <cc:Work>
        <dc:format>image/svg+xml</dc:format>
        <dc:type
           rdf:resource="http://purl.org/dc/dcmitype/StillImage" />
        <cc:license
           rdf:resource="http://creativecommons.org/licenses/publicdomain/" />
        <dc:publisher>
          <cc:Agent
             rdf:about="http://openclipart.org/">
            <dc:title>Openclipart</dc:title>
          </cc:Agent>
        </dc:publisher>
        <dc:title>AL_look-left</dc:title>
        <dc:date>2006-11-21T16:14:56</dc:date>
        <dc:description>AL looking to your left (his right).</dc:description>
        <dc:source>https://openclipart.org/detail/1571/al_look-left-by-paro</dc:source>
        <dc:creator>
          <cc:Agent>
            <dc:title>paro</dc:title>
          </cc:Agent>
        </dc:creator>
        <dc:subject>
          <rdf:Bag>
            <rdf:li>left</rdf:li>
            <rdf:li>look</rdf:li>
            <rdf:li>look left</rdf:li>
            <rdf:li>man</rdf:li>
            <rdf:li>people</rdf:li>
            <rdf:li>remix problem</rdf:li>
            <rdf:li>stick</rdf:li>
            <rdf:li>stick figure</rdf:li>
            <rdf:li>stickman</rdf:li>
          </rdf:Bag>
        </dc:subject>
      </cc:Work>
      <cc:License
         rdf:about="http://creativecommons.org/licenses/publicdomain/">
        <cc:permits
           rdf:resource="http://creativecommons.org/ns#Reproduction" />
        <cc:permits
           rdf:resource="http://creativecommons.org/ns#Distribution" />
        <cc:permits
           rdf:resource="http://creativecommons.org/ns#DerivativeWorks" />
      </cc:License>
    </rdf:RDF>
  </metadata>
</svg>
