<?xml version="1.0" encoding="UTF-8" standalone="no"?>
<svg
   xmlns:dc="http://purl.org/dc/elements/1.1/"
   xmlns:cc="http://creativecommons.org/ns#"
   xmlns:rdf="http://www.w3.org/1999/02/22-rdf-syntax-ns#"
   xmlns:svg="http://www.w3.org/2000/svg"
   xmlns="http://www.w3.org/2000/svg"
   xmlns:sodipodi="http://sodipodi.sourceforge.net/DTD/sodipodi-0.dtd"
   xmlns:inkscape="http://www.inkscape.org/namespaces/inkscape"
   id="svg2"
   sodipodi:docname="Anonymous-blueman-110.svg"
   sodipodi:version="0.32"
   version="1.0"
   inkscape:output_extension="org.inkscape.output.svg.inkscape"
   inkscape:version="0.92.1 r15371"
   viewBox="0 0 20300 28300"
   width="21653.334"
   height="30186.666">
  <defs
     id="defs27" />
  <sodipodi:namedview
     id="base"
     bordercolor="#666666"
     inkscape:pageshadow="2"
     guidetolerance="10.0"
     pagecolor="#ffffff"
     gridtolerance="10.0"
     objecttolerance="10.0"
     borderopacity="1.0"
     inkscape:window-height="480"
     showgrid="false"
     inkscape:pageopacity="0.0"
     inkscape:window-width="640"
     inkscape:zoom="0.025276061"
     inkscape:cx="10826.667"
     inkscape:cy="15093.333"
     inkscape:current-layer="svg2" />
  <g
     id="g6"
     style="fill:#000080"
     transform="matrix(2.2526,0,0,2.2526,-12851,-14905)">
    <polygon
       id="polygon8"
       points="4753,10918 4791,10886 4749,10858 4749,10858 4754,10852 4760,10846 4767,10841 4775,10838 4783,10836 4791,10836 4800,10836 4808,10839 4815,10842 4828,10853 6983,13315 6908,13380 " />
    <polygon
       id="polygon10"
       points="4832,10913 2883,13888 2800,13833 4749,10858 4791,10886 " />
  </g>
  <g
     id="g12"
     style="fill:#0066cc"
     transform="matrix(2.2526,0,0,2.2526,-12851,-14905)">
    <polygon
       id="polygon14"
       points="1366,13832 1095,13646 881,13452 735,13260 667,13080 685,12924 791,12807 972,12741 1213,12725 1499,12758 1818,12841 2155,12973 2475,13141 2747,13327 2960,13521 3106,13713 3175,13893 3157,14050 3050,14166 2869,14232 2629,14248 2342,14215 2023,14132 1687,14001 " />
  </g>
  <g
     id="g16"
     style="fill:#000080"
     transform="matrix(2.2526,0,0,2.2526,-12851,-14905)">
    <polygon
       id="polygon18"
       points="18126,14200 18108,14247 18156,14236 18156,14236 18157,14245 18157,14253 18155,14261 18152,14269 18148,14276 18143,14282 18136,14287 18129,14292 18121,14295 18113,14296 18105,14296 18089,14293 14520,12834 14557,12741 " />
    <polygon
       id="polygon20"
       points="18059,14257 17375,10958 17472,10937 18156,14236 18108,14247 " />
  </g>
  <g
     id="g22"
     style="fill:#0066cc"
     transform="matrix(2.2526,0,0,2.2526,-12851,-14905)">
    <polygon
       id="polygon24"
       points="18559,11631 18217,11716 17897,11743 17613,11711 17382,11622 17221,11476 17148,11284 17168,11069 17273,10843 17456,10617 17709,10404 18024,10216 18370,10073 18712,9988 19033,9961 19317,9993 19548,10082 19710,10229 19782,10420 19762,10635 19656,10861 19473,11087 19220,11300 18906,11489 " />
  </g>
  <g
     id="g26"
     style="fill:#000080"
     transform="matrix(2.2526,0,0,2.2526,-12851,-14905)">
    <polygon
       id="polygon28"
       points="1589,17109 1546,17020 7401,14171 7444,14260 " />
  </g>
  <g
     id="g30"
     style="fill:#0066cc"
     transform="matrix(2.2526,0,0,2.2526,-12851,-14905)">
    <polygon
       id="polygon32"
       points="972,17804 1044,17484 1163,17211 1320,17006 1506,16891 1695,16885 1864,16984 2003,17174 2100,17441 2145,17769 2128,18116 2056,18436 1937,18709 1780,18913 1595,19029 1405,19035 1236,18936 1097,18746 1000,18479 956,18152 " />
  </g>
  <g
     id="g34"
     style="fill:#000080"
     transform="matrix(2.2526,0,0,2.2526,-12851,-14905)">
    <polygon
       id="polygon36"
       points="11179,9154 11217,9121 11177,9090 11177,9090 11182,9084 11188,9079 11195,9075 11203,9072 11211,9071 11219,9071 11227,9072 11234,9074 11241,9077 11254,9087 13554,11666 13479,11733 " />
    <polygon
       id="polygon38"
       points="11256,9151 9510,11424 9431,11363 11177,9090 11217,9121 " />
  </g>
  <g
     id="g40"
     style="fill:#0066cc"
     transform="matrix(2.2526,0,0,2.2526,-12851,-14905)">
    <polygon
       id="polygon42"
       points="9081,10579 9368,10714 9585,10897 9715,11114 9741,11352 9655,11577 9474,11762 9216,11896 8901,11969 8551,11971 8209,11898 7921,11763 7705,11580 7575,11363 7549,11127 7634,10901 7816,10716 8074,10582 8388,10508 8740,10507 " />
    <polygon
       id="polygon44"
       points="10365,14559 9726,14618 9124,14639 8567,14623 8066,14571 7629,14484 7264,14364 6981,14212 6789,14029 6697,13818 6711,13587 6829,13349 7043,13109 7345,12871 7726,12640 8179,12419 8696,12213 9269,12026 9890,11863 10551,11728 11218,11628 11857,11568 12459,11547 13016,11563 13517,11615 13954,11702 14319,11822 14602,11974 14794,12157 14887,12369 14872,12600 14754,12837 14540,13078 14239,13315 13857,13547 13404,13768 12887,13974 12314,14161 11693,14324 11033,14460 " />
    <polygon
       id="polygon46"
       points="18223,8907 18212,8785 18195,8664 18172,8543 18141,8424 18104,8307 18061,8191 18011,8078 17954,7967 17892,7858 17824,7753 17750,7651 17670,7553 17585,7458 17494,7367 17399,7281 17299,7199 17195,7122 17086,7049 16974,6982 16858,6920 16739,6863 16616,6812 16491,6767 16364,6728 16234,6694 16103,6666 15970,6645 15837,6629 15703,6620 15568,6617 15568,6617 15433,6620 15299,6629 15166,6645 15033,6666 14902,6694 14772,6728 14645,6767 14520,6812 14397,6863 14278,6920 14162,6982 14050,7049 13941,7122 13837,7199 13737,7281 13642,7367 13551,7458 13466,7553 13386,7651 13312,7753 13244,7858 13182,7967 13125,8078 13075,8191 13032,8307 12995,8424 12964,8543 12941,8664 12924,8785 12913,8907 12910,9029 12910,9029 12913,9151 12924,9273 12941,9394 12964,9515 12995,9634 13032,9751 13075,9867 13125,9980 13182,10091 13244,10200 13312,10305 13386,10407 13466,10505 13551,10600 13642,10691 13737,10777 13837,10859 13941,10936 14050,11009 14162,11076 14278,11138 14397,11195 14520,11246 14645,11291 14772,11330 14902,11364 15033,11392 15166,11413 15299,11429 15433,11438 15568,11441 15568,11441 15703,11438 15837,11429 15970,11413 16103,11392 16234,11364 16364,11330 16491,11291 16616,11246 16739,11195 16858,11138 16974,11076 17086,11009 17195,10936 17299,10859 17399,10777 17494,10691 17585,10600 17670,10505 17750,10407 17824,10305 17892,10200 17954,10091 18011,9980 18061,9867 18104,9751 18141,9634 18172,9515 18195,9394 18212,9273 18223,9151 18226,9029 " />
  </g>
  <metadata
     id="metadata24">
    <rdf:RDF>
      <cc:Work>
        <dc:format>image/svg+xml</dc:format>
        <dc:type
           rdf:resource="http://purl.org/dc/dcmitype/StillImage" />
        <cc:license
           rdf:resource="http://creativecommons.org/licenses/publicdomain/" />
        <dc:publisher>
          <cc:Agent
             rdf:about="http://openclipart.org/">
            <dc:title>Openclipart</dc:title>
          </cc:Agent>
        </dc:publisher>
        <dc:title>blueman 110</dc:title>
        <dc:date>2009-04-01T16:30:32</dc:date>
        <dc:description />
        <dc:source>https://openclipart.org/detail/23628/blueman-110-by-anonymous-23628</dc:source>
        <dc:creator>
          <cc:Agent>
            <dc:title>Anonymous</dc:title>
          </cc:Agent>
        </dc:creator>
        <dc:subject>
          <rdf:Bag>
            <rdf:li>blue</rdf:li>
            <rdf:li>figure</rdf:li>
            <rdf:li>man</rdf:li>
            <rdf:li>recline</rdf:li>
          </rdf:Bag>
        </dc:subject>
      </cc:Work>
      <cc:License
         rdf:about="http://creativecommons.org/licenses/publicdomain/">
        <cc:permits
           rdf:resource="http://creativecommons.org/ns#Reproduction" />
        <cc:permits
           rdf:resource="http://creativecommons.org/ns#Distribution" />
        <cc:permits
           rdf:resource="http://creativecommons.org/ns#DerivativeWorks" />
      </cc:License>
    </rdf:RDF>
  </metadata>
</svg>
