<?xml version="1.0" encoding="UTF-8" standalone="no"?>
<svg
   xmlns:dc="http://purl.org/dc/elements/1.1/"
   xmlns:cc="http://creativecommons.org/ns#"
   xmlns:rdf="http://www.w3.org/1999/02/22-rdf-syntax-ns#"
   xmlns:svg="http://www.w3.org/2000/svg"
   xmlns="http://www.w3.org/2000/svg"
   xmlns:sodipodi="http://sodipodi.sourceforge.net/DTD/sodipodi-0.dtd"
   xmlns:inkscape="http://www.inkscape.org/namespaces/inkscape"
   id="svg2"
   sodipodi:docname="Anonymous-blueman-105.svg"
   sodipodi:version="0.32"
   version="1.0"
   inkscape:output_extension="org.inkscape.output.svg.inkscape"
   inkscape:version="0.92.1 r15371"
   viewBox="0 0 20300 28300"
   width="21653.334"
   height="30186.666">
  <defs
     id="defs128" />
  <sodipodi:namedview
     id="base"
     bordercolor="#666666"
     inkscape:pageshadow="2"
     guidetolerance="10.0"
     pagecolor="#ffffff"
     gridtolerance="10.0"
     objecttolerance="10.0"
     borderopacity="1.0"
     inkscape:window-height="480"
     showgrid="false"
     inkscape:pageopacity="0.0"
     inkscape:window-width="640"
     inkscape:zoom="0.025276061"
     inkscape:cx="10826.667"
     inkscape:cy="15093.333"
     inkscape:current-layer="svg2" />
  <g
     id="g6"
     style="fill:#000080"
     transform="matrix(1.639,0,0,1.639,-2025.6,-8055.8)">
    <polygon
       id="polygon8"
       points="12136,16759 12186,16755 12235,16750 12282,17593 12183,17598 " />
    <polygon
       id="polygon10"
       points="12136,16759 12065,15970 12115,15964 12164,15957 12235,16750 12186,16755 " />
    <polygon
       id="polygon12"
       points="12065,15970 11972,15230 12022,15222 12071,15213 12164,15957 12115,15964 " />
    <polygon
       id="polygon14"
       points="11972,15230 11858,14536 11907,14527 11955,14517 12071,15213 12022,15222 " />
    <polygon
       id="polygon16"
       points="11858,14536 11726,13890 11775,13878 11823,13865 11955,14517 11907,14527 " />
    <polygon
       id="polygon18"
       points="11726,13890 11577,13288 11625,13274 11672,13259 11823,13865 11775,13878 " />
    <polygon
       id="polygon20"
       points="11577,13288 11413,12728 11461,12712 11508,12695 11672,13259 11625,13274 " />
    <polygon
       id="polygon22"
       points="11413,12728 11237,12209 11284,12191 11330,12172 11508,12695 11461,12712 " />
    <polygon
       id="polygon24"
       points="11237,12209 11050,11731 11096,11711 11141,11690 11330,12172 11284,12191 " />
    <polygon
       id="polygon26"
       points="11050,11731 10854,11290 10899,11268 10943,11245 11141,11690 11096,11711 " />
    <polygon
       id="polygon28"
       points="10854,11290 10652,10887 10696,10863 10739,10838 10943,11245 10899,11268 " />
    <polygon
       id="polygon30"
       points="10652,10887 10445,10519 10488,10493 10530,10466 10739,10838 10696,10863 " />
    <polygon
       id="polygon32"
       points="10445,10519 10235,10185 10277,10157 10318,10128 10530,10466 10488,10493 " />
    <polygon
       id="polygon34"
       points="10235,10185 10026,9883 10066,9853 10105,9822 10318,10128 10277,10157 " />
    <polygon
       id="polygon36"
       points="10026,9883 9816,9612 9855,9580 9893,9547 10105,9822 10066,9853 " />
    <polygon
       id="polygon38"
       points="9816,9612 9611,9371 9648,9337 9684,9302 9893,9547 9855,9580 " />
    <polygon
       id="polygon40"
       points="9611,9371 9411,9156 9446,9121 9480,9085 9684,9302 9648,9337 " />
    <polygon
       id="polygon42"
       points="9411,9156 9217,8970 9251,8933 9284,8895 9480,9085 9446,9121 " />
    <polygon
       id="polygon44"
       points="9217,8970 9034,8807 9066,8769 9097,8730 9284,8895 9251,8933 " />
    <polygon
       id="polygon46"
       points="9034,8807 8861,8668 8891,8628 8920,8587 9097,8730 9066,8769 " />
    <polygon
       id="polygon48"
       points="8861,8668 8701,8551 8729,8510 8756,8468 8920,8587 8891,8628 " />
    <polygon
       id="polygon50"
       points="8701,8551 8557,8454 8583,8412 8608,8369 8756,8468 8729,8510 " />
    <polygon
       id="polygon52"
       points="8557,8454 8429,8377 8454,8334 8478,8290 8608,8369 8583,8412 " />
    <polygon
       id="polygon54"
       points="8429,8377 8320,8317 8343,8273 8365,8228 8478,8290 8454,8334 " />
    <polygon
       id="polygon56"
       points="8320,8317 8233,8273 8254,8228 8274,8182 8365,8228 8343,8273 " />
    <polygon
       id="polygon58"
       points="8233,8273 8168,8244 8188,8198 8207,8151 8274,8182 8254,8228 " />
    <polygon
       id="polygon60"
       points="8168,8244 8130,8228 8147,8181 8163,8133 8207,8151 8188,8198 " />
    <polygon
       id="polygon62"
       points="8130,8228 8116,8223 8149,8128 8163,8133 8147,8181 " />
  </g>
  <g
     id="g64"
     style="fill:#0066cc"
     transform="matrix(1.639,0,0,1.639,-2025.6,-8055.8)">
    <polygon
       id="polygon66"
       points="13253,17154 13249,17108 13243,17063 13234,17018 13223,16973 13210,16929 13194,16885 13176,16843 13155,16801 13133,16760 13108,16721 13081,16682 13052,16645 13021,16610 12988,16576 12954,16543 12918,16513 12880,16484 12840,16456 12799,16431 12757,16408 12714,16387 12670,16367 12624,16350 12578,16336 12531,16323 12483,16313 12435,16304 12387,16299 12338,16295 12289,16294 12289,16294 12240,16295 12191,16299 12143,16304 12095,16313 12047,16323 12000,16336 11954,16350 11908,16367 11864,16387 11821,16408 11779,16431 11738,16456 11698,16484 11660,16513 11624,16543 11590,16576 11557,16610 11526,16645 11497,16682 11470,16721 11445,16760 11423,16801 11402,16843 11384,16885 11368,16929 11355,16973 11344,17018 11335,17063 11329,17108 11325,17154 11324,17200 11324,17200 11325,17246 11329,17292 11335,17337 11344,17382 11355,17427 11368,17471 11384,17515 11402,17557 11423,17599 11445,17640 11470,17679 11497,17718 11526,17755 11557,17790 11590,17824 11624,17857 11660,17887 11698,17916 11738,17944 11779,17969 11821,17992 11864,18013 11908,18033 11954,18050 12000,18064 12047,18077 12095,18087 12143,18096 12191,18101 12240,18105 12289,18106 12289,18106 12338,18105 12387,18101 12435,18096 12483,18087 12531,18077 12578,18064 12624,18050 12670,18033 12714,18013 12757,17992 12799,17969 12840,17944 12880,17916 12918,17887 12954,17857 12988,17824 13021,17790 13052,17755 13081,17718 13108,17679 13133,17640 13155,17599 13176,17557 13194,17515 13210,17471 13223,17427 13234,17382 13243,17337 13249,17292 13253,17246 13254,17200 " />
    <polygon
       id="polygon68"
       points="4907,18495 4684,18250 4499,17924 4351,17523 4241,17055 4170,16528 4139,15949 4148,15325 4197,14663 4289,13971 4423,13256 4600,12526 4813,11809 5053,11137 5317,10513 5599,9943 5896,9432 6203,8987 6517,8613 6834,8314 7148,8096 7457,7965 7756,7927 8042,7986 8300,8142 8523,8386 8709,8713 8857,9113 8966,9581 9037,10108 9069,10687 9060,11311 9010,11973 8918,12665 8784,13380 8608,14111 8394,14827 8154,15500 7890,16124 7608,16694 7311,17204 7004,17649 6690,18024 6373,18323 6059,18540 5750,18671 5451,18710 5166,18652 " />
  </g>
  <g
     id="g70"
     style="fill:#000080"
     transform="matrix(1.639,0,0,1.639,-2025.6,-8055.8)">
    <polygon
       id="polygon72"
       points="6839,18499 6823,18547 6806,18594 5964,18338 5993,18243 " />
    <polygon
       id="polygon74"
       points="6839,18499 7600,18762 7582,18809 7563,18855 6806,18594 6823,18547 " />
    <polygon
       id="polygon76"
       points="7600,18762 8282,19029 8262,19075 8241,19120 7563,18855 7582,18809 " />
    <polygon
       id="polygon78"
       points="8282,19029 8886,19299 8864,19344 8841,19388 8241,19120 8262,19075 " />
    <polygon
       id="polygon80"
       points="8886,19299 9420,19571 9395,19615 9369,19658 8841,19388 8864,19344 " />
    <polygon
       id="polygon82"
       points="9420,19571 9884,19845 9856,19887 9827,19928 9369,19658 9395,19615 " />
    <polygon
       id="polygon84"
       points="9884,19845 10284,20120 10253,20159 10221,20197 9827,19928 9856,19887 " />
    <polygon
       id="polygon86"
       points="10284,20120 10623,20395 10589,20431 10554,20466 10221,20197 10253,20159 " />
    <polygon
       id="polygon88"
       points="10623,20395 10906,20667 10868,20700 10829,20732 10554,20466 10589,20431 " />
    <polygon
       id="polygon90"
       points="10906,20667 11135,20939 11094,20967 11052,20994 10829,20732 10868,20700 " />
    <polygon
       id="polygon92"
       points="11135,20939 11315,21207 11271,21230 11226,21252 11052,20994 11094,20967 " />
    <polygon
       id="polygon94"
       points="11315,21207 11449,21472 11402,21489 11354,21505 11226,21252 11271,21230 " />
    <polygon
       id="polygon96"
       points="11449,21472 11541,21731 11493,21742 11444,21752 11354,21505 11402,21489 " />
    <polygon
       id="polygon98"
       points="11541,21731 11595,21984 11546,21988 11496,21991 11444,21752 11493,21742 " />
    <polygon
       id="polygon100"
       points="11595,21984 11614,22229 11565,22227 11515,22224 11496,21991 11546,21988 " />
    <polygon
       id="polygon102"
       points="11614,22229 11604,22465 11555,22457 11505,22448 11515,22224 11565,22227 " />
    <polygon
       id="polygon104"
       points="11604,22465 11567,22691 11519,22678 11470,22664 11505,22448 11555,22457 " />
    <polygon
       id="polygon106"
       points="11567,22691 11508,22906 11462,22889 11415,22871 11470,22664 11519,22678 " />
    <polygon
       id="polygon108"
       points="11508,22906 11431,23109 11386,23088 11340,23066 11415,22871 11462,22889 " />
    <polygon
       id="polygon110"
       points="11431,23109 11340,23300 11297,23275 11253,23249 11340,23066 11386,23088 " />
    <polygon
       id="polygon112"
       points="11340,23300 11238,23475 11197,23448 11155,23420 11253,23249 11297,23275 " />
    <polygon
       id="polygon114"
       points="11238,23475 11132,23638 11092,23608 11052,23578 11155,23420 11197,23448 " />
    <polygon
       id="polygon116"
       points="11132,23638 11022,23783 10984,23752 10945,23720 11052,23578 11092,23608 " />
    <polygon
       id="polygon118"
       points="11022,23783 10914,23913 10878,23880 10841,23846 10945,23720 10984,23752 " />
    <polygon
       id="polygon120"
       points="10914,23913 10812,24025 10777,23991 10741,23956 10841,23846 10878,23880 " />
    <polygon
       id="polygon122"
       points="10812,24025 10720,24120 10686,24084 10651,24047 10741,23956 10777,23991 " />
    <polygon
       id="polygon124"
       points="10720,24120 10642,24195 10609,24158 10575,24120 10651,24047 10686,24084 " />
    <polygon
       id="polygon126"
       points="10642,24195 10580,24250 10548,24212 10515,24173 10575,24120 10609,24158 " />
    <polygon
       id="polygon128"
       points="10580,24250 10542,24281 10509,24245 10475,24208 10515,24173 10548,24212 " />
    <polygon
       id="polygon130"
       points="10542,24281 10529,24293 10462,24220 10475,24208 10509,24245 " />
  </g>
  <g
     id="g132"
     style="fill:#0066cc"
     transform="matrix(1.639,0,0,1.639,-2025.6,-8055.8)">
    <polygon
       id="polygon134"
       points="11065,24932 10671,24851 10358,24745 10140,24621 10031,24485 10045,24343 10185,24208 10433,24096 10769,24009 11173,23952 11625,23927 12107,23941 12567,23991 12961,24072 13274,24178 13492,24302 13601,24439 13587,24582 13446,24715 13198,24827 12862,24914 12459,24971 12006,24996 11526,24983 " />
  </g>
  <g
     id="g136"
     style="fill:#000080"
     transform="matrix(1.639,0,0,1.639,-2025.6,-8055.8)">
    <polygon
       id="polygon138"
       points="5836,18561 5809,18603 5781,18644 5024,18230 5073,18143 " />
    <polygon
       id="polygon140"
       points="5836,18561 6465,18969 6435,19009 6404,19048 5781,18644 5809,18603 " />
    <polygon
       id="polygon142"
       points="6465,18969 6972,19368 6937,19404 6901,19439 6404,19048 6435,19009 " />
    <polygon
       id="polygon144"
       points="6972,19368 7362,19757 7323,19788 7283,19818 6901,19439 6937,19404 " />
    <polygon
       id="polygon146"
       points="7642,20128 7642,20128 7647,20136 7603,20159 7563,20189 7283,19818 7323,19788 7362,19757 " />
    <polygon
       id="polygon148"
       points="7829,20494 7829,20494 7833,20503 7785,20517 7740,20539 7558,20181 7603,20159 7647,20136 " />
    <polygon
       id="polygon150"
       points="7926,20848 7926,20848 7927,20859 7878,20862 7829,20875 7736,20530 7785,20517 7833,20503 " />
    <polygon
       id="polygon152"
       points="7941,21189 7941,21189 7941,21200 7892,21192 7842,21194 7828,20864 7878,20862 7927,20859 " />
    <polygon
       id="polygon154"
       points="7884,21515 7884,21515 7881,21525 7835,21507 7785,21498 7842,21183 7892,21192 7941,21200 " />
    <polygon
       id="polygon156"
       points="7881,21525 7758,21832 7716,21807 7673,21781 7788,21488 7835,21507 " />
    <polygon
       id="polygon158"
       points="7758,21832 7584,22121 7545,22090 7505,22058 7673,21781 7716,21807 " />
    <polygon
       id="polygon160"
       points="7584,22121 7366,22392 7331,22357 7295,22321 7505,22058 7545,22090 " />
    <polygon
       id="polygon162"
       points="7366,22392 7113,22643 7081,22605 7048,22566 7295,22321 7331,22357 " />
    <polygon
       id="polygon164"
       points="7113,22643 6835,22876 6806,22836 6776,22795 7048,22566 7081,22605 " />
    <polygon
       id="polygon166"
       points="6835,22876 6542,23090 6515,23048 6487,23005 6776,22795 6806,22836 " />
    <polygon
       id="polygon168"
       points="6542,23090 6240,23283 6216,23240 6191,23196 6487,23005 6515,23048 " />
    <polygon
       id="polygon170"
       points="6240,23283 5941,23456 5918,23412 5894,23367 6191,23196 6216,23240 " />
    <polygon
       id="polygon172"
       points="5941,23456 5652,23608 5631,23564 5609,23519 5894,23367 5918,23412 " />
    <polygon
       id="polygon174"
       points="5652,23608 5384,23739 5364,23694 5343,23648 5609,23519 5631,23564 " />
    <polygon
       id="polygon176"
       points="5384,23739 5143,23847 5124,23801 5104,23754 5343,23648 5364,23694 " />
    <polygon
       id="polygon178"
       points="5143,23847 4941,23932 4923,23886 4904,23839 5104,23754 5124,23801 " />
    <polygon
       id="polygon180"
       points="4941,23932 4784,23994 4767,23948 4749,23901 4904,23839 4923,23886 " />
    <polygon
       id="polygon182"
       points="4784,23994 4685,24031 4668,23985 4650,23938 4749,23901 4767,23948 " />
    <polygon
       id="polygon184"
       points="4685,24031 4650,24044 4615,23951 4650,23938 4668,23985 " />
  </g>
  <g
     id="g186"
     style="fill:#0066cc"
     transform="matrix(1.639,0,0,1.639,-2025.6,-8055.8)">
    <polygon
       id="polygon188"
       points="5027,24791 4632,24707 4318,24597 4098,24468 3987,24326 4000,24179 4139,24040 4386,23924 4721,23834 5125,23775 5577,23751 6059,23766 6519,23818 6914,23902 7229,24012 7448,24141 7559,24283 7547,24431 7407,24569 7161,24685 6825,24775 6422,24834 5970,24858 5489,24844 " />
  </g>
  <g
     id="g190"
     style="fill:#000080"
     transform="matrix(1.639,0,0,1.639,-2025.6,-8055.8)">
    <polygon
       id="polygon192"
       points="1549,16337 1598,16348 1646,16358 1513,17192 1414,17177 " />
    <polygon
       id="polygon194"
       points="1549,16337 1713,15550 1762,15563 1810,15575 1646,16358 1598,16348 " />
    <polygon
       id="polygon196"
       points="1713,15550 1905,14812 1953,14827 2000,14841 1810,15575 1762,15563 " />
    <polygon
       id="polygon198"
       points="1905,14812 2120,14121 2167,14139 2213,14156 2000,14841 1953,14827 " />
    <polygon
       id="polygon200"
       points="2120,14121 2357,13478 2403,13498 2448,13517 2213,14156 2167,14139 " />
    <polygon
       id="polygon202"
       points="2357,13478 2612,12880 2657,12902 2701,12923 2448,13517 2403,13498 " />
    <polygon
       id="polygon204"
       points="2612,12880 2881,12324 2925,12349 2968,12373 2701,12923 2657,12902 " />
    <polygon
       id="polygon206"
       points="2881,12324 3164,11812 3207,11839 3249,11865 2968,12373 2925,12349 " />
    <polygon
       id="polygon208"
       points="3164,11812 3456,11340 3498,11369 3539,11397 3249,11865 3207,11839 " />
    <polygon
       id="polygon210"
       points="3456,11340 3755,10907 3795,10938 3834,10968 3539,11397 3498,11369 " />
    <polygon
       id="polygon212"
       points="3755,10907 4058,10512 4097,10545 4135,10577 3834,10968 3795,10938 " />
    <polygon
       id="polygon214"
       points="4058,10512 4363,10153 4400,10188 4436,10222 4135,10577 4097,10545 " />
    <polygon
       id="polygon216"
       points="4363,10153 4666,9829 4701,9865 4735,9900 4436,10222 4400,10188 " />
    <polygon
       id="polygon218"
       points="4666,9829 4963,9538 4997,9576 5030,9613 4735,9900 4701,9865 " />
    <polygon
       id="polygon220"
       points="4963,9538 5254,9280 5286,9319 5317,9357 5030,9613 4997,9576 " />
    <polygon
       id="polygon222"
       points="5254,9280 5535,9050 5565,9091 5594,9131 5317,9357 5286,9319 " />
    <polygon
       id="polygon224"
       points="5535,9050 5801,8851 5830,8893 5858,8934 5594,9131 5565,9091 " />
    <polygon
       id="polygon226"
       points="5801,8851 6053,8678 6080,8721 6106,8763 5858,8934 5830,8893 " />
    <polygon
       id="polygon228"
       points="6053,8678 6285,8532 6311,8576 6336,8619 6106,8763 6080,8721 " />
    <polygon
       id="polygon230"
       points="6285,8532 6497,8409 6521,8454 6544,8498 6336,8619 6311,8576 " />
    <polygon
       id="polygon232"
       points="6497,8409 6683,8310 6705,8355 6726,8399 6544,8498 6521,8454 " />
    <polygon
       id="polygon234"
       points="6683,8310 6842,8232 6863,8278 6883,8323 6726,8399 6705,8355 " />
    <polygon
       id="polygon236"
       points="6842,8232 6971,8173 6991,8220 7010,8266 6883,8323 6863,8278 " />
    <polygon
       id="polygon238"
       points="6971,8173 7067,8134 7085,8181 7102,8227 7010,8266 6991,8220 " />
    <polygon
       id="polygon240"
       points="7067,8134 7128,8111 7144,8159 7159,8206 7102,8227 7085,8181 " />
    <polygon
       id="polygon242"
       points="7128,8111 7149,8104 7180,8199 7159,8206 7144,8159 " />
  </g>
  <g
     id="g244"
     style="fill:#0066cc"
     transform="matrix(1.639,0,0,1.639,-2025.6,-8055.8)">
    <polygon
       id="polygon246"
       points="3220,16883 3216,16839 3210,16795 3201,16752 3190,16709 3177,16666 3161,16624 3143,16584 3123,16543 3100,16504 3075,16466 3049,16429 3020,16394 2989,16360 2956,16327 2922,16296 2886,16266 2848,16238 2809,16212 2768,16188 2726,16165 2683,16145 2638,16127 2593,16110 2547,16096 2500,16084 2453,16074 2405,16066 2356,16060 2308,16057 2259,16056 2259,16056 2210,16057 2162,16060 2113,16066 2065,16074 2018,16084 1971,16096 1925,16110 1880,16127 1835,16145 1792,16165 1750,16188 1709,16212 1670,16238 1632,16266 1596,16296 1562,16327 1529,16360 1498,16394 1469,16429 1443,16466 1418,16504 1395,16543 1375,16584 1357,16624 1341,16666 1328,16709 1317,16752 1308,16795 1302,16839 1298,16883 1297,16927 1297,16927 1298,16971 1302,17015 1308,17059 1317,17102 1328,17145 1341,17188 1357,17230 1375,17270 1395,17311 1418,17350 1443,17388 1469,17425 1498,17460 1529,17494 1562,17527 1596,17558 1632,17588 1670,17616 1709,17642 1750,17666 1792,17689 1835,17709 1880,17727 1925,17744 1971,17758 2018,17770 2065,17780 2113,17788 2162,17794 2210,17797 2259,17798 2259,17798 2308,17797 2356,17794 2405,17788 2453,17780 2500,17770 2547,17758 2593,17744 2638,17727 2683,17709 2726,17689 2768,17666 2809,17642 2848,17616 2886,17588 2922,17558 2956,17527 2989,17494 3020,17460 3049,17425 3075,17388 3100,17350 3123,17311 3143,17270 3161,17230 3177,17188 3190,17145 3201,17102 3210,17059 3216,17015 3220,16971 3221,16927 " />
    <polygon
       id="polygon248"
       points="12982,4837 12969,4692 12946,4547 12914,4403 12874,4261 12824,4121 12766,3983 12699,3847 12624,3715 12540,3585 12449,3460 12350,3338 12243,3220 12130,3107 12009,2999 11882,2896 11748,2798 11608,2706 11463,2619 11313,2539 11158,2465 10998,2397 10835,2336 10667,2282 10497,2235 10324,2195 10148,2162 9971,2136 9793,2118 9613,2107 9433,2103 9433,2103 9253,2107 9073,2118 8895,2136 8718,2162 8542,2195 8369,2235 8199,2282 8031,2336 7868,2397 7708,2465 7553,2539 7403,2619 7258,2706 7118,2798 6984,2896 6857,2999 6736,3107 6623,3220 6516,3338 6417,3460 6326,3585 6242,3715 6167,3847 6100,3983 6042,4121 5992,4261 5952,4403 5920,4547 5897,4692 5884,4837 5879,4983 5879,4983 5884,5129 5897,5274 5920,5419 5952,5563 5992,5705 6042,5845 6100,5983 6167,6119 6242,6251 6326,6381 6417,6506 6516,6628 6623,6746 6736,6859 6857,6967 6984,7070 7118,7168 7258,7260 7403,7347 7553,7427 7708,7501 7868,7569 8031,7630 8199,7684 8369,7731 8542,7771 8718,7804 8895,7830 9073,7848 9253,7859 9433,7863 9433,7863 9613,7859 9793,7848 9971,7830 10148,7804 10324,7771 10497,7731 10667,7684 10835,7630 10998,7569 11158,7501 11313,7427 11463,7347 11608,7260 11748,7168 11882,7070 12009,6967 12130,6859 12243,6746 12350,6628 12449,6506 12540,6381 12624,6251 12699,6119 12766,5983 12824,5845 12874,5705 12914,5563 12946,5419 12969,5274 12982,5129 12987,4983 " />
  </g>
  <metadata
     id="metadata125">
    <rdf:RDF>
      <cc:Work>
        <dc:format>image/svg+xml</dc:format>
        <dc:type
           rdf:resource="http://purl.org/dc/dcmitype/StillImage" />
        <cc:license
           rdf:resource="http://creativecommons.org/licenses/publicdomain/" />
        <dc:publisher>
          <cc:Agent
             rdf:about="http://openclipart.org/">
            <dc:title>Openclipart</dc:title>
          </cc:Agent>
        </dc:publisher>
        <dc:title>blueman 105</dc:title>
        <dc:date>2009-04-01T16:23:13</dc:date>
        <dc:description />
        <dc:source>https://openclipart.org/detail/23618/blueman-105-by-anonymous-23618</dc:source>
        <dc:creator>
          <cc:Agent>
            <dc:title>Anonymous</dc:title>
          </cc:Agent>
        </dc:creator>
        <dc:subject>
          <rdf:Bag>
            <rdf:li>blue</rdf:li>
            <rdf:li>figure</rdf:li>
            <rdf:li>hunch</rdf:li>
            <rdf:li>man</rdf:li>
          </rdf:Bag>
        </dc:subject>
      </cc:Work>
      <cc:License
         rdf:about="http://creativecommons.org/licenses/publicdomain/">
        <cc:permits
           rdf:resource="http://creativecommons.org/ns#Reproduction" />
        <cc:permits
           rdf:resource="http://creativecommons.org/ns#Distribution" />
        <cc:permits
           rdf:resource="http://creativecommons.org/ns#DerivativeWorks" />
      </cc:License>
    </rdf:RDF>
  </metadata>
</svg>
