<?xml version="1.0" encoding="UTF-8" standalone="no"?>
<svg
   xmlns:dc="http://purl.org/dc/elements/1.1/"
   xmlns:cc="http://creativecommons.org/ns#"
   xmlns:rdf="http://www.w3.org/1999/02/22-rdf-syntax-ns#"
   xmlns:svg="http://www.w3.org/2000/svg"
   xmlns="http://www.w3.org/2000/svg"
   xmlns:sodipodi="http://sodipodi.sourceforge.net/DTD/sodipodi-0.dtd"
   xmlns:inkscape="http://www.inkscape.org/namespaces/inkscape"
   id="svg2"
   sodipodi:docname="Anonymous-blueman-210.svg"
   sodipodi:version="0.32"
   version="1.0"
   inkscape:output_extension="org.inkscape.output.svg.inkscape"
   inkscape:version="0.92.1 r15371"
   viewBox="0 0 20300 28300"
   width="21653.334"
   height="30186.666">
  <defs
     id="defs100" />
  <sodipodi:namedview
     id="base"
     bordercolor="#666666"
     inkscape:pageshadow="2"
     guidetolerance="10.0"
     pagecolor="#ffffff"
     gridtolerance="10.0"
     objecttolerance="10.0"
     borderopacity="1.0"
     inkscape:window-height="480"
     showgrid="false"
     inkscape:pageopacity="0.0"
     inkscape:window-width="640"
     inkscape:zoom="0.025276061"
     inkscape:cx="10826.667"
     inkscape:cy="15093.333"
     inkscape:current-layer="svg2" />
  <g
     id="g6"
     style="fill:#0066cc"
     transform="matrix(1.355,0,0,1.355,-2961.2,-4895.7)">
    <polygon
       id="polygon8"
       points="15414,23898 15055,23638 14777,23363 14590,23089 14508,22829 14544,22600 14697,22425 14948,22321 15278,22287 15668,22323 16098,22430 16551,22607 16977,22838 17336,23098 17615,23373 17801,23647 17883,23907 17849,24137 17695,24311 17443,24415 17113,24449 16723,24413 16292,24306 15841,24130 " />
  </g>
  <g
     id="g10"
     style="fill:#000080"
     transform="matrix(1.355,0,0,1.355,-2961.2,-4895.7)">
    <polygon
       id="polygon12"
       points="9848,17903 9835,17952 9821,18000 9006,17805 9029,17708 " />
    <polygon
       id="polygon14"
       points="9848,17903 10596,18111 10581,18159 10565,18206 9821,18000 9835,17952 " />
    <polygon
       id="polygon16"
       points="10596,18111 11275,18329 11258,18376 11240,18422 10565,18206 10581,18159 " />
    <polygon
       id="polygon18"
       points="11275,18329 11888,18554 11869,18601 11849,18647 11240,18422 11258,18376 " />
    <polygon
       id="polygon20"
       points="11888,18554 12439,18789 12418,18834 12396,18878 11849,18647 11869,18601 " />
    <polygon
       id="polygon22"
       points="12439,18789 12932,19028 12908,19072 12883,19115 12396,18878 12418,18834 " />
    <polygon
       id="polygon24"
       points="12932,19028 13369,19272 13342,19315 13314,19357 12883,19115 12908,19072 " />
    <polygon
       id="polygon26"
       points="13369,19272 13752,19519 13723,19560 13693,19600 13314,19357 13342,19315 " />
    <polygon
       id="polygon28"
       points="13752,19519 14087,19769 14055,19807 14022,19844 13693,19600 13723,19560 " />
    <polygon
       id="polygon30"
       points="14087,19769 14375,20020 14340,20055 14304,20089 14022,19844 14055,19807 " />
    <polygon
       id="polygon32"
       points="14375,20020 14619,20269 14581,20301 14542,20332 14304,20089 14340,20055 " />
    <polygon
       id="polygon34"
       points="14619,20269 14824,20516 14783,20545 14741,20573 14542,20332 14581,20301 " />
    <polygon
       id="polygon36"
       points="14824,20516 14991,20759 14948,20784 14904,20808 14741,20573 14783,20545 " />
    <polygon
       id="polygon38"
       points="14991,20759 15124,20998 15079,21019 15033,21039 14904,20808 14948,20784 " />
    <polygon
       id="polygon40"
       points="15124,20998 15226,21229 15179,21246 15131,21262 15033,21039 15079,21019 " />
    <polygon
       id="polygon42"
       points="15226,21229 15301,21453 15253,21465 15204,21476 15131,21262 15179,21246 " />
    <polygon
       id="polygon44"
       points="15301,21453 15351,21668 15302,21675 15252,21681 15204,21476 15253,21465 " />
    <polygon
       id="polygon46"
       points="15351,21668 15379,21871 15330,21874 15280,21876 15252,21681 15302,21675 " />
    <polygon
       id="polygon48"
       points="15379,21871 15389,22061 15340,22060 15290,22058 15280,21876 15330,21874 " />
    <polygon
       id="polygon50"
       points="15389,22061 15385,22238 15336,22233 15286,22227 15290,22058 15340,22060 " />
    <polygon
       id="polygon52"
       points="15385,22238 15369,22399 15320,22391 15270,22382 15286,22227 15336,22233 " />
    <polygon
       id="polygon54"
       points="15369,22399 15344,22543 15296,22532 15247,22520 15270,22382 15320,22391 " />
    <polygon
       id="polygon56"
       points="15344,22543 15314,22669 15267,22655 15219,22640 15247,22520 15296,22532 " />
    <polygon
       id="polygon58"
       points="15314,22669 15283,22775 15236,22759 15188,22742 15219,22640 15267,22655 " />
    <polygon
       id="polygon60"
       points="15283,22775 15252,22861 15206,22843 15159,22824 15188,22742 15236,22759 " />
    <polygon
       id="polygon62"
       points="15252,22861 15226,22924 15181,22904 15135,22883 15159,22824 15206,22843 " />
    <polygon
       id="polygon64"
       points="15226,22924 15209,22962 15164,22942 15118,22921 15135,22883 15181,22904 " />
    <polygon
       id="polygon66"
       points="15209,22962 15203,22975 15112,22934 15118,22921 15164,22942 " />
  </g>
  <g
     id="g68"
     style="fill:#0066cc"
     transform="matrix(1.355,0,0,1.355,-2961.2,-4895.7)">
    <polygon
       id="polygon70"
       points="2603,21996 2897,21769 3183,21617 3448,21546 3678,21562 3857,21671 3964,21864 3991,22120 3944,22421 3826,22751 3641,23093 3395,23430 3110,23725 2816,23952 2530,24104 2265,24175 2035,24159 1857,24051 1750,23857 1722,23601 1770,23300 1888,22970 2072,22628 2319,22292 " />
  </g>
  <g
     id="g72"
     style="fill:#000080"
     transform="matrix(1.355,0,0,1.355,-2961.2,-4895.7)">
    <polygon
       id="polygon74"
       points="7098,18117 7083,18070 7067,18022 7846,17825 7871,17922 " />
    <polygon
       id="polygon76"
       points="7098,18117 6411,18333 6394,18287 6376,18240 7067,18022 7083,18070 " />
    <polygon
       id="polygon78"
       points="6411,18333 5809,18565 5788,18520 5766,18474 6376,18240 6394,18287 " />
    <polygon
       id="polygon80"
       points="5809,18565 5284,18810 5260,18767 5235,18723 5766,18474 5788,18520 " />
    <polygon
       id="polygon82"
       points="5284,18810 4832,19066 4804,19025 4775,18983 5235,18723 5260,18767 " />
    <polygon
       id="polygon84"
       points="4832,19066 4448,19329 4416,19291 4383,19252 4775,18983 4804,19025 " />
    <polygon
       id="polygon86"
       points="4448,19329 4125,19597 4090,19563 4054,19528 4383,19252 4416,19291 " />
    <polygon
       id="polygon88"
       points="4125,19597 3860,19868 3821,19838 3781,19807 4054,19528 4090,19563 " />
    <polygon
       id="polygon90"
       points="3860,19868 3647,20139 3605,20113 3562,20086 3781,19807 3821,19838 " />
    <polygon
       id="polygon92"
       points="3647,20139 3481,20406 3436,20385 3390,20363 3562,20086 3605,20113 " />
    <polygon
       id="polygon94"
       points="3481,20406 3357,20667 3310,20651 3262,20634 3390,20363 3436,20385 " />
    <polygon
       id="polygon96"
       points="3357,20667 3269,20920 3221,20909 3172,20897 3262,20634 3310,20651 " />
    <polygon
       id="polygon98"
       points="3269,20920 3213,21161 3164,21155 3114,21148 3172,20897 3221,20909 " />
    <polygon
       id="polygon100"
       points="3213,21161 3184,21388 3135,21387 3085,21385 3114,21148 3164,21155 " />
    <polygon
       id="polygon102"
       points="3184,21388 3177,21600 3128,21603 3078,21605 3085,21385 3135,21387 " />
    <polygon
       id="polygon104"
       points="3177,21600 3187,21792 3138,21799 3088,21805 3078,21605 3128,21603 " />
    <polygon
       id="polygon106"
       points="3187,21792 3209,21962 3160,21972 3110,21981 3088,21805 3138,21799 " />
    <polygon
       id="polygon108"
       points="3209,21962 3238,22107 3190,22120 3141,22132 3110,21981 3160,21972 " />
    <polygon
       id="polygon110"
       points="3238,22107 3268,22224 3221,22240 3173,22255 3141,22132 3190,22120 " />
    <polygon
       id="polygon112"
       points="3268,22224 3296,22312 3250,22330 3203,22347 3173,22255 3221,22240 " />
    <polygon
       id="polygon114"
       points="3296,22312 3316,22364 3271,22385 3225,22405 3203,22347 3250,22330 " />
    <polygon
       id="polygon116"
       points="3316,22364 3325,22384 3234,22425 3225,22405 3271,22385 " />
  </g>
  <g
     id="g118"
     style="fill:#0066cc"
     transform="matrix(1.355,0,0,1.355,-2961.2,-4895.7)">
    <polygon
       id="polygon120"
       points="7215,9026 6671,8867 6173,8635 5733,8339 5358,7986 5058,7585 4841,7143 4715,6671 4691,6175 4771,5684 4948,5228 5214,4814 5558,4449 5970,4140 6440,3894 6960,3720 7519,3624 8109,3613 8693,3690 9237,3848 9735,4080 10175,4376 10550,4729 10850,5131 11067,5572 11193,6045 11218,6542 11137,7032 10960,7487 10694,7901 10350,8267 9938,8575 9468,8821 8948,8995 8389,9092 7800,9104 " />
  </g>
  <g
     id="g122"
     style="fill:#000080"
     transform="matrix(1.355,0,0,1.355,-2961.2,-4895.7)">
    <polygon
       id="polygon124"
       points="8654,10093 8637,10140 8619,10186 7795,9810 7836,9719 " />
    <polygon
       id="polygon126"
       points="8654,10093 9401,10371 9388,10420 9374,10468 8619,10186 8637,10140 " />
    <polygon
       id="polygon128"
       points="9401,10371 10077,10562 10069,10612 10060,10661 9374,10468 9388,10420 " />
    <polygon
       id="polygon130"
       points="10077,10562 10688,10670 10686,10720 10683,10769 10060,10661 10069,10612 " />
    <polygon
       id="polygon132"
       points="10688,10670 11237,10703 11241,10753 11244,10802 10683,10769 10686,10720 " />
    <polygon
       id="polygon134"
       points="11237,10703 11724,10667 11736,10716 11747,10764 11244,10802 11241,10753 " />
    <polygon
       id="polygon136"
       points="11724,10667 12158,10568 12177,10615 12195,10661 11747,10764 11736,10716 " />
    <polygon
       id="polygon138"
       points="12158,10568 12537,10415 12564,10458 12590,10500 12195,10661 12177,10615 " />
    <polygon
       id="polygon140"
       points="12537,10415 12869,10211 12902,10249 12934,10286 12590,10500 12564,10458 " />
    <polygon
       id="polygon142"
       points="12869,10211 13157,9964 13195,9997 13232,10029 12934,10286 12902,10249 " />
    <polygon
       id="polygon144"
       points="13157,9964 13402,9678 13444,9706 13485,9733 13232,10029 13195,9997 " />
    <polygon
       id="polygon146"
       points="13402,9678 13608,9361 13653,9384 13697,9406 13485,9733 13444,9706 " />
    <polygon
       id="polygon148"
       points="13608,9361 13779,9018 13826,9036 13872,9053 13697,9406 13653,9384 " />
    <polygon
       id="polygon150"
       points="13779,9018 13917,8655 13966,8669 14014,8682 13872,9053 13826,9036 " />
    <polygon
       id="polygon152"
       points="13917,8655 14026,8279 14075,8290 14123,8300 14014,8682 13966,8669 " />
    <polygon
       id="polygon154"
       points="14026,8279 14107,7897 14157,7905 14206,7912 14123,8300 14075,8290 " />
    <polygon
       id="polygon156"
       points="14107,7897 14166,7515 14216,7520 14265,7524 14206,7912 14157,7905 " />
    <polygon
       id="polygon158"
       points="14166,7515 14204,7138 14254,7141 14303,7143 14265,7524 14216,7520 " />
    <polygon
       id="polygon160"
       points="14204,7138 14224,6774 14274,6775 14323,6775 14303,7143 14254,7141 " />
    <polygon
       id="polygon162"
       points="14224,6774 14230,6428 14280,6428 14329,6427 14323,6775 14274,6775 " />
    <polygon
       id="polygon164"
       points="14230,6428 14225,6109 14275,6107 14324,6104 14329,6427 14280,6428 " />
    <polygon
       id="polygon166"
       points="14225,6109 14212,5821 14262,5818 14311,5814 14324,6104 14275,6107 " />
    <polygon
       id="polygon168"
       points="14212,5821 14194,5571 14244,5567 14293,5562 14311,5814 14262,5818 " />
    <polygon
       id="polygon170"
       points="14194,5571 14174,5366 14224,5361 14273,5355 14293,5562 14244,5567 " />
    <polygon
       id="polygon172"
       points="14174,5366 14157,5212 14207,5206 14256,5199 14273,5355 14224,5361 " />
    <polygon
       id="polygon174"
       points="14157,5212 14144,5115 14194,5108 14243,5100 14256,5199 14207,5206 " />
    <polygon
       id="polygon176"
       points="14144,5115 14139,5082 14238,5067 14243,5100 14194,5108 " />
  </g>
  <g
     id="g178"
     style="fill:#0066cc"
     transform="matrix(1.355,0,0,1.355,-2961.2,-4895.7)">
    <polygon
       id="polygon180"
       points="14636,4521 14923,4616 15166,4762 15354,4952 15476,5176 15519,5425 15476,5673 15354,5897 15166,6087 14923,6233 14636,6328 14317,6362 13997,6328 13710,6233 13467,6087 13279,5897 13157,5673 13115,5425 13157,5176 13279,4952 13467,4762 13710,4616 13997,4521 14317,4488 " />
  </g>
  <g
     id="g182"
     style="fill:#000080"
     transform="matrix(1.355,0,0,1.355,-2961.2,-4895.7)">
    <polygon
       id="polygon184"
       points="1368,10629 1364,10580 1327,10614 1327,10614 1322,10607 1318,10600 1315,10592 1314,10583 1314,10575 1315,10566 1318,10558 1323,10551 1328,10544 1335,10539 1342,10534 1359,10530 7393,9926 7402,10025 " />
    <polygon
       id="polygon186"
       points="1400,10545 4264,13562 4191,13631 1327,10614 1364,10580 " />
  </g>
  <g
     id="g188"
     style="fill:#0066cc"
     transform="matrix(1.355,0,0,1.355,-2961.2,-4895.7)">
    <polygon
       id="polygon190"
       points="5465,13849 5460,13797 5454,13746 5444,13695 5432,13644 5417,13594 5399,13545 5379,13497 5356,13450 5331,13404 5303,13359 5273,13315 5241,13274 5206,13233 5170,13195 5131,13158 5091,13123 5048,13090 5004,13060 4959,13031 4912,13005 4863,12981 4814,12959 4763,12940 4711,12923 4659,12909 4606,12897 4552,12888 4498,12881 4444,12877 4389,12876 4389,12876 4334,12877 4280,12881 4226,12888 4172,12897 4119,12909 4067,12923 4015,12940 3964,12959 3915,12981 3866,13005 3819,13031 3774,13060 3730,13090 3687,13123 3647,13158 3608,13195 3572,13233 3537,13274 3505,13315 3475,13359 3447,13404 3422,13450 3399,13497 3379,13545 3361,13594 3346,13644 3334,13695 3324,13746 3318,13797 3313,13849 3312,13901 3312,13901 3313,13953 3318,14005 3324,14056 3334,14107 3346,14158 3361,14208 3379,14257 3399,14305 3422,14352 3447,14398 3475,14443 3505,14487 3537,14528 3572,14569 3608,14607 3647,14644 3687,14679 3730,14712 3774,14742 3819,14771 3866,14797 3915,14821 3964,14843 4015,14862 4067,14879 4119,14893 4172,14905 4226,14914 4280,14921 4334,14925 4389,14926 4389,14926 4444,14925 4498,14921 4552,14914 4606,14905 4659,14893 4711,14879 4763,14862 4814,14843 4863,14821 4912,14797 4959,14771 5004,14742 5048,14712 5091,14679 5131,14644 5170,14607 5206,14569 5241,14528 5273,14487 5303,14443 5331,14398 5356,14352 5379,14305 5399,14257 5417,14208 5432,14158 5444,14107 5454,14056 5460,14005 5465,13953 5466,13901 " />
    <polygon
       id="polygon192"
       points="8311,18426 8024,18319 7742,18124 7468,17849 7207,17499 6963,17081 6738,16602 6538,16069 6365,15488 6224,14865 6119,14207 6054,13544 6033,12906 6054,12300 6113,11734 6210,11216 6341,10751 6505,10348 6701,10014 6925,9756 7175,9582 7451,9499 7738,9512 8025,9619 8307,9814 8581,10089 8842,10439 9086,10856 9311,11335 9512,11868 9685,12450 9826,13072 9932,13731 9995,14394 10016,15032 9996,15637 9936,16203 9840,16722 9708,17186 9544,17589 9348,17923 9124,18181 8874,18356 8599,18440 " />
  </g>
  <metadata
     id="metadata97">
    <rdf:RDF>
      <cc:Work>
        <dc:format>image/svg+xml</dc:format>
        <dc:type
           rdf:resource="http://purl.org/dc/dcmitype/StillImage" />
        <cc:license
           rdf:resource="http://creativecommons.org/licenses/publicdomain/" />
        <dc:publisher>
          <cc:Agent
             rdf:about="http://openclipart.org/">
            <dc:title>Openclipart</dc:title>
          </cc:Agent>
        </dc:publisher>
        <dc:title>blueman 210</dc:title>
        <dc:date>2009-04-01T16:46:58</dc:date>
        <dc:description />
        <dc:source>https://openclipart.org/detail/23648/blueman-210-by-anonymous-23648</dc:source>
        <dc:creator>
          <cc:Agent>
            <dc:title>Anonymous</dc:title>
          </cc:Agent>
        </dc:creator>
        <dc:subject>
          <rdf:Bag>
            <rdf:li>blue</rdf:li>
            <rdf:li>dance</rdf:li>
            <rdf:li>figure</rdf:li>
            <rdf:li>man</rdf:li>
          </rdf:Bag>
        </dc:subject>
      </cc:Work>
      <cc:License
         rdf:about="http://creativecommons.org/licenses/publicdomain/">
        <cc:permits
           rdf:resource="http://creativecommons.org/ns#Reproduction" />
        <cc:permits
           rdf:resource="http://creativecommons.org/ns#Distribution" />
        <cc:permits
           rdf:resource="http://creativecommons.org/ns#DerivativeWorks" />
      </cc:License>
    </rdf:RDF>
  </metadata>
</svg>
