<?xml version="1.0" encoding="UTF-8" standalone="no"?>
<svg
   xmlns:dc="http://purl.org/dc/elements/1.1/"
   xmlns:cc="http://creativecommons.org/ns#"
   xmlns:rdf="http://www.w3.org/1999/02/22-rdf-syntax-ns#"
   xmlns:svg="http://www.w3.org/2000/svg"
   xmlns="http://www.w3.org/2000/svg"
   xmlns:sodipodi="http://sodipodi.sourceforge.net/DTD/sodipodi-0.dtd"
   xmlns:inkscape="http://www.inkscape.org/namespaces/inkscape"
   id="svg2"
   sodipodi:docname="Anonymous-blueman-109.svg"
   sodipodi:version="0.32"
   version="1.0"
   inkscape:output_extension="org.inkscape.output.svg.inkscape"
   inkscape:version="0.92.1 r15371"
   viewBox="0 0 20300 28300"
   width="21653.334"
   height="30186.666">
  <defs
     id="defs112" />
  <sodipodi:namedview
     id="base"
     bordercolor="#666666"
     inkscape:pageshadow="2"
     guidetolerance="10.0"
     pagecolor="#ffffff"
     gridtolerance="10.0"
     objecttolerance="10.0"
     borderopacity="1.0"
     inkscape:window-height="480"
     showgrid="false"
     inkscape:pageopacity="0.0"
     inkscape:window-width="640"
     inkscape:zoom="0.025276061"
     inkscape:cx="10826.667"
     inkscape:cy="15093.333"
     inkscape:current-layer="svg2" />
  <g
     id="g6"
     style="fill:#000080"
     transform="matrix(1.6079,0,0,1.6079,-7500.2,-6110.4)">
    <polygon
       id="polygon8"
       points="11982,9617 11971,9666 11959,9714 11122,9452 11151,9357 " />
    <polygon
       id="polygon10"
       points="11982,9617 12739,9803 12731,9853 12722,9902 11959,9714 11971,9666 " />
    <polygon
       id="polygon12"
       points="12739,9803 13426,9920 13422,9970 13417,10019 12722,9902 12731,9853 " />
    <polygon
       id="polygon14"
       points="13426,9920 14044,9973 14045,10023 14045,10072 13417,10019 13422,9970 " />
    <polygon
       id="polygon16"
       points="14044,9973 14600,9966 14606,10016 14611,10065 14045,10072 14045,10023 " />
    <polygon
       id="polygon18"
       points="14600,9966 15094,9907 15106,9956 15117,10004 14611,10065 14606,10016 " />
    <polygon
       id="polygon20"
       points="15094,9907 15530,9800 15549,9847 15567,9893 15117,10004 15106,9956 " />
    <polygon
       id="polygon22"
       points="15530,9800 15914,9651 15939,9695 15963,9738 15567,9893 15549,9847 " />
    <polygon
       id="polygon24"
       points="15914,9651 16248,9465 16279,9505 16309,9544 15963,9738 15939,9695 " />
    <polygon
       id="polygon26"
       points="16248,9465 16536,9246 16572,9282 16607,9317 16309,9544 16279,9505 " />
    <polygon
       id="polygon28"
       points="16536,9246 16781,9001 16821,9032 16860,9062 16607,9317 16572,9282 " />
    <polygon
       id="polygon30"
       points="16781,9001 16988,8733 17031,8759 17073,8784 16860,9062 16821,9032 " />
    <polygon
       id="polygon32"
       points="16988,8733 17157,8449 17203,8470 17248,8490 17073,8784 17031,8759 " />
    <polygon
       id="polygon34"
       points="17157,8449 17294,8152 17342,8169 17389,8185 17248,8490 17203,8470 " />
    <polygon
       id="polygon36"
       points="17294,8152 17402,7849 17451,7862 17499,7874 17389,8185 17342,8169 " />
    <polygon
       id="polygon38"
       points="17402,7849 17482,7544 17532,7554 17581,7563 17499,7874 17451,7862 " />
    <polygon
       id="polygon40"
       points="17482,7544 17540,7243 17590,7250 17639,7256 17581,7563 17532,7554 " />
    <polygon
       id="polygon42"
       points="17540,7243 17578,6952 17628,6956 17677,6959 17639,7256 17590,7250 " />
    <polygon
       id="polygon44"
       points="17578,6952 17600,6674 17650,6676 17699,6677 17677,6959 17628,6956 " />
    <polygon
       id="polygon46"
       points="17600,6674 17607,6417 17657,6417 17706,6416 17699,6677 17650,6676 " />
    <polygon
       id="polygon48"
       points="17607,6417 17604,6185 17654,6183 17703,6180 17706,6416 17657,6417 " />
    <polygon
       id="polygon50"
       points="17604,6185 17594,5983 17644,5980 17693,5976 17703,6180 17654,6183 " />
    <polygon
       id="polygon52"
       points="17594,5983 17581,5818 17631,5813 17680,5807 17693,5976 17644,5980 " />
    <polygon
       id="polygon54"
       points="17581,5818 17567,5693 17617,5687 17666,5680 17680,5807 17631,5813 " />
    <polygon
       id="polygon56"
       points="17567,5693 17557,5614 17607,5607 17656,5599 17666,5680 17617,5687 " />
    <polygon
       id="polygon58"
       points="17557,5614 17553,5587 17652,5572 17656,5599 17607,5607 " />
  </g>
  <g
     id="g60"
     style="fill:#0066cc"
     transform="matrix(1.6079,0,0,1.6079,-7500.2,-6110.4)">
    <polygon
       id="polygon62"
       points="17668,4493 17940,4603 18154,4770 18295,4983 18346,5227 18295,5470 18154,5683 17940,5850 17668,5960 17355,6000 17041,5960 16769,5850 16555,5683 16414,5470 16364,5227 16414,4983 16555,4770 16769,4603 17041,4493 17355,4454 " />
  </g>
  <g
     id="g64"
     style="fill:#000080"
     transform="matrix(1.6079,0,0,1.6079,-7500.2,-6110.4)">
    <polygon
       id="polygon66"
       points="9718,9942 9702,9895 9685,9847 10474,9477 10517,9568 " />
    <polygon
       id="polygon68"
       points="9718,9942 8976,10208 8965,10160 8953,10111 9685,9847 9702,9895 " />
    <polygon
       id="polygon70"
       points="8976,10208 8289,10375 8283,10326 8276,10276 8953,10111 8965,10160 " />
    <polygon
       id="polygon72"
       points="8289,10375 7653,10452 7654,10403 7654,10353 8276,10276 8283,10326 " />
    <polygon
       id="polygon74"
       points="7653,10452 7068,10448 7076,10399 7083,10349 7654,10353 7654,10403 " />
    <polygon
       id="polygon76"
       points="7068,10448 6533,10372 6547,10324 6560,10275 7083,10349 7076,10399 " />
    <polygon
       id="polygon78"
       points="6533,10372 6046,10232 6066,10187 6085,10141 6560,10275 6547,10324 " />
    <polygon
       id="polygon80"
       points="6046,10232 5605,10040 5631,9998 5656,9955 6085,10141 6066,10187 " />
    <polygon
       id="polygon82"
       points="5605,10040 5209,9804 5240,9765 5270,9725 5656,9955 5631,9998 " />
    <polygon
       id="polygon84"
       points="5209,9804 4855,9533 4890,9497 4924,9460 5270,9725 5240,9765 " />
    <polygon
       id="polygon86"
       points="4855,9533 4543,9238 4581,9205 4618,9171 4924,9460 4890,9497 " />
    <polygon
       id="polygon88"
       points="4543,9238 4268,8926 4309,8897 4349,8867 4618,9171 4581,9205 " />
    <polygon
       id="polygon90"
       points="4268,8926 4032,8609 4075,8582 4117,8554 4349,8867 4309,8897 " />
    <polygon
       id="polygon92"
       points="4032,8609 3830,8294 3874,8270 3917,8245 4117,8554 4075,8582 " />
    <polygon
       id="polygon94"
       points="3830,8294 3662,7991 3707,7969 3751,7946 3917,8245 3874,8270 " />
    <polygon
       id="polygon96"
       points="3662,7991 3524,7709 3570,7690 3615,7670 3751,7946 3707,7969 " />
    <polygon
       id="polygon98"
       points="3524,7709 3415,7457 3462,7440 3508,7422 3615,7670 3570,7690 " />
    <polygon
       id="polygon100"
       points="3415,7457 3334,7246 3382,7230 3429,7213 3508,7422 3462,7440 " />
    <polygon
       id="polygon102"
       points="3334,7246 3278,7083 3326,7069 3373,7054 3429,7213 3382,7230 " />
    <polygon
       id="polygon104"
       points="3278,7083 3246,6978 3295,6965 3343,6951 3373,7054 3326,7069 " />
    <polygon
       id="polygon106"
       points="3246,6978 3236,6942 3333,6915 3343,6951 3295,6965 " />
  </g>
  <g
     id="g108"
     style="fill:#0066cc"
     transform="matrix(1.6079,0,0,1.6079,-7500.2,-6110.4)">
    <polygon
       id="polygon110"
       points="4462,6285 4458,6248 4451,6210 4442,6173 4430,6136 4415,6100 4398,6064 4379,6029 4357,5995 4333,5961 4306,5929 4277,5897 4246,5867 4213,5838 4178,5810 4140,5783 4101,5758 4061,5734 4018,5712 3975,5691 3929,5672 3883,5654 3835,5638 3786,5624 3736,5612 3686,5602 3635,5593 3583,5587 3531,5582 3479,5579 3426,5578 3426,5578 3373,5579 3321,5582 3269,5587 3217,5593 3166,5602 3116,5612 3066,5624 3017,5638 2969,5654 2923,5672 2877,5691 2834,5712 2791,5734 2751,5758 2712,5783 2674,5810 2639,5838 2606,5867 2575,5897 2546,5929 2519,5961 2495,5995 2473,6029 2454,6064 2437,6100 2422,6136 2410,6173 2401,6210 2394,6248 2390,6285 2389,6323 2389,6323 2390,6361 2394,6398 2401,6436 2410,6473 2422,6510 2437,6546 2454,6582 2473,6617 2495,6651 2519,6685 2546,6717 2575,6749 2606,6779 2639,6808 2674,6836 2712,6863 2751,6888 2791,6912 2834,6934 2877,6955 2923,6974 2969,6992 3017,7008 3066,7022 3116,7034 3166,7044 3217,7053 3269,7059 3321,7064 3373,7067 3426,7068 3426,7068 3479,7067 3531,7064 3583,7059 3635,7053 3686,7044 3736,7034 3786,7022 3835,7008 3883,6992 3929,6974 3975,6955 4018,6934 4061,6912 4101,6888 4140,6863 4178,6836 4213,6808 4246,6779 4277,6749 4306,6717 4333,6685 4357,6651 4379,6617 4398,6582 4415,6546 4430,6510 4442,6473 4451,6436 4458,6398 4462,6361 4463,6323 " />
  </g>
  <g
     id="g112"
     style="fill:#000080"
     transform="matrix(1.6079,0,0,1.6079,-7500.2,-6110.4)">
    <polygon
       id="polygon114"
       points="12954,16146 12941,16195 12927,16243 12116,16046 12139,15949 " />
    <polygon
       id="polygon116"
       points="12954,16146 13682,16358 13666,16406 13649,16453 12927,16243 12941,16195 " />
    <polygon
       id="polygon118"
       points="13682,16358 14328,16582 14310,16629 14291,16675 13649,16453 13666,16406 " />
    <polygon
       id="polygon120"
       points="14328,16582 14897,16816 14876,16861 14854,16905 14291,16675 14310,16629 " />
    <polygon
       id="polygon122"
       points="14897,16816 15393,17056 15369,17100 15344,17143 14854,16905 14876,16861 " />
    <polygon
       id="polygon124"
       points="15393,17056 15822,17302 15794,17344 15765,17385 15344,17143 15369,17100 " />
    <polygon
       id="polygon126"
       points="15822,17302 16187,17552 16156,17591 16124,17629 15765,17385 15794,17344 " />
    <polygon
       id="polygon128"
       points="16187,17552 16494,17804 16459,17840 16423,17875 16124,17629 16156,17591 " />
    <polygon
       id="polygon130"
       points="16494,17804 16746,18055 16708,18087 16669,18118 16423,17875 16459,17840 " />
    <polygon
       id="polygon132"
       points="16746,18055 16949,18304 16908,18332 16866,18359 16669,18118 16708,18087 " />
    <polygon
       id="polygon134"
       points="16949,18304 17108,18548 17064,18571 17019,18593 16866,18359 16908,18332 " />
    <polygon
       id="polygon136"
       points="17108,18548 17226,18785 17180,18803 17133,18820 17019,18593 17064,18571 " />
    <polygon
       id="polygon138"
       points="17226,18785 17309,19013 17261,19025 17212,19036 17133,18820 17180,18803 " />
    <polygon
       id="polygon140"
       points="17309,19013 17361,19230 17312,19237 17262,19243 17212,19036 17261,19025 " />
    <polygon
       id="polygon142"
       points="17361,19230 17386,19432 17337,19434 17287,19435 17262,19243 17312,19237 " />
    <polygon
       id="polygon144"
       points="17386,19432 17391,19620 17342,19617 17292,19613 17287,19435 17337,19434 " />
    <polygon
       id="polygon146"
       points="17391,19620 17379,19788 17330,19781 17280,19773 17292,19613 17342,19617 " />
    <polygon
       id="polygon148"
       points="17379,19788 17356,19938 17308,19927 17259,19915 17280,19773 17330,19781 " />
    <polygon
       id="polygon150"
       points="17356,19938 17325,20064 17278,20050 17230,20035 17259,19915 17308,19927 " />
    <polygon
       id="polygon152"
       points="17325,20064 17294,20166 17248,20149 17201,20131 17230,20035 17278,20050 " />
    <polygon
       id="polygon154"
       points="17294,20166 17265,20243 17220,20223 17174,20202 17201,20131 17248,20149 " />
    <polygon
       id="polygon156"
       points="17265,20243 17244,20289 17199,20269 17153,20248 17174,20202 17220,20223 " />
    <polygon
       id="polygon158"
       points="17244,20289 17237,20305 17146,20264 17153,20248 17199,20269 " />
  </g>
  <g
     id="g160"
     style="fill:#0066cc"
     transform="matrix(1.6079,0,0,1.6079,-7500.2,-6110.4)">
    <polygon
       id="polygon162"
       points="19469,20571 19463,20536 19454,20501 19440,20467 19423,20433 19402,20399 19378,20366 19349,20333 19318,20301 19282,20270 19244,20240 19202,20211 19157,20182 19109,20155 19058,20129 19004,20104 18947,20081 18888,20059 18827,20038 18764,20019 18698,20001 18630,19985 18561,19970 18491,19957 18419,19946 18345,19936 18271,19928 18196,19922 18121,19918 18045,19915 17969,19914 17969,19914 17893,19915 17817,19918 17742,19922 17667,19928 17593,19936 17519,19946 17447,19957 17377,19970 17308,19985 17240,20001 17174,20019 17111,20038 17050,20059 16991,20081 16934,20104 16880,20129 16829,20155 16781,20182 16736,20211 16694,20240 16656,20270 16620,20301 16589,20333 16560,20366 16536,20399 16515,20433 16498,20467 16484,20501 16475,20536 16469,20571 16467,20606 16467,20606 16469,20641 16475,20676 16484,20711 16498,20745 16515,20779 16536,20813 16560,20846 16589,20879 16620,20911 16656,20942 16694,20972 16736,21001 16781,21030 16829,21057 16880,21083 16934,21108 16991,21131 17050,21153 17111,21174 17174,21193 17240,21211 17308,21227 17377,21242 17447,21255 17519,21266 17593,21276 17667,21284 17742,21290 17817,21294 17893,21297 17969,21298 17969,21298 18045,21297 18121,21294 18196,21290 18271,21284 18345,21276 18419,21266 18491,21255 18561,21242 18630,21227 18698,21211 18764,21193 18827,21174 18888,21153 18947,21131 19004,21108 19058,21083 19109,21057 19157,21030 19202,21001 19244,20972 19282,20942 19318,20911 19349,20879 19378,20846 19402,20813 19423,20779 19440,20745 19454,20711 19463,20676 19469,20641 19471,20606 " />
  </g>
  <g
     id="g164"
     style="fill:#000080"
     transform="matrix(1.6079,0,0,1.6079,-7500.2,-6110.4)">
    <polygon
       id="polygon166"
       points="10451,16304 10439,16256 10426,16207 11200,16045 11221,16142 " />
    <polygon
       id="polygon168"
       points="10451,16304 9769,16481 9754,16434 9738,16386 10426,16207 10439,16256 " />
    <polygon
       id="polygon170"
       points="9769,16481 9170,16673 9152,16627 9133,16580 9738,16386 9754,16434 " />
    <polygon
       id="polygon172"
       points="9170,16673 8647,16875 8626,16830 8604,16784 9133,16580 9152,16627 " />
    <polygon
       id="polygon174"
       points="8647,16875 8197,17086 8173,17043 8148,16999 8604,16784 8626,16830 " />
    <polygon
       id="polygon176"
       points="8197,17086 7815,17304 7787,17263 7758,17221 8148,16999 8173,17043 " />
    <polygon
       id="polygon178"
       points="7815,17304 7495,17525 7463,17487 7430,17448 7758,17221 7787,17263 " />
    <polygon
       id="polygon180"
       points="7495,17525 7232,17748 7196,17714 7159,17679 7430,17448 7463,17487 " />
    <polygon
       id="polygon182"
       points="7232,17748 7021,17971 6981,17941 6941,17911 7159,17679 7196,17714 " />
    <polygon
       id="polygon184"
       points="7021,17971 6856,18189 6813,18165 6769,18140 6941,17911 6981,17941 " />
    <polygon
       id="polygon186"
       points="6856,18189 6733,18403 6687,18384 6640,18364 6769,18140 6813,18165 " />
    <polygon
       id="polygon188"
       points="6733,18403 6647,18610 6599,18597 6550,18583 6640,18364 6687,18384 " />
    <polygon
       id="polygon190"
       points="6647,18610 6591,18807 6542,18800 6492,18792 6550,18583 6599,18597 " />
    <polygon
       id="polygon192"
       points="6591,18807 6562,18993 6513,18992 6463,18990 6492,18792 6542,18800 " />
    <polygon
       id="polygon194"
       points="6562,18993 6555,19165 6506,19169 6456,19172 6463,18990 6513,18992 " />
    <polygon
       id="polygon196"
       points="6555,19165 6565,19323 6516,19331 6466,19338 6456,19172 6506,19169 " />
    <polygon
       id="polygon198"
       points="6565,19323 6586,19462 6538,19474 6489,19485 6466,19338 6516,19331 " />
    <polygon
       id="polygon200"
       points="6586,19462 6614,19580 6567,19596 6519,19611 6489,19485 6538,19474 " />
    <polygon
       id="polygon202"
       points="6614,19580 6645,19676 6599,19695 6552,19713 6519,19611 6567,19596 " />
    <polygon
       id="polygon204"
       points="6645,19676 6673,19749 6628,19769 6582,19788 6552,19713 6599,19695 " />
    <polygon
       id="polygon206"
       points="6673,19749 6691,19790 6648,19815 6604,19839 6582,19788 6628,19769 " />
    <polygon
       id="polygon208"
       points="6691,19790 6700,19806 6613,19855 6604,19839 6648,19815 " />
  </g>
  <g
     id="g210"
     style="fill:#0066cc"
     transform="matrix(1.6079,0,0,1.6079,-7500.2,-6110.4)">
    <polygon
       id="polygon212"
       points="7467,20242 7461,20213 7452,20184 7438,20155 7421,20126 7400,20098 7375,20071 7347,20043 7315,20017 7280,19991 7241,19966 7199,19941 7153,19918 7105,19895 7054,19873 7000,19853 6943,19833 6884,19815 6822,19797 6759,19781 6693,19767 6625,19753 6556,19741 6485,19730 6412,19720 6339,19712 6265,19706 6189,19701 6114,19697 6037,19695 5961,19694 5961,19694 5885,19695 5808,19697 5733,19701 5657,19706 5583,19712 5510,19720 5437,19730 5366,19741 5297,19753 5229,19767 5163,19781 5100,19797 5038,19815 4979,19833 4922,19853 4868,19873 4817,19895 4769,19918 4723,19941 4681,19966 4642,19991 4607,20017 4575,20043 4547,20071 4522,20098 4501,20126 4484,20155 4470,20184 4461,20213 4455,20242 4453,20271 4453,20271 4455,20300 4461,20329 4470,20358 4484,20387 4501,20416 4522,20444 4547,20471 4575,20499 4607,20525 4642,20551 4681,20576 4723,20601 4769,20624 4817,20647 4868,20669 4922,20689 4979,20709 5038,20727 5100,20745 5163,20761 5229,20775 5297,20789 5366,20801 5437,20812 5510,20822 5583,20830 5657,20836 5733,20841 5808,20845 5885,20847 5961,20848 5961,20848 6037,20847 6114,20845 6189,20841 6265,20836 6339,20830 6412,20822 6485,20812 6556,20801 6625,20789 6693,20775 6759,20761 6822,20745 6884,20727 6943,20709 7000,20689 7054,20669 7105,20647 7153,20624 7199,20601 7241,20576 7280,20551 7315,20525 7347,20499 7375,20471 7400,20444 7421,20416 7438,20387 7452,20358 7461,20329 7467,20300 7469,20271 " />
    <polygon
       id="polygon214"
       points="11519,16544 11259,16435 11005,16239 10761,15965 10530,15619 10318,15209 10128,14742 9965,14225 9833,13665 9736,13070 9679,12469 9666,11894 9694,11353 9760,10854 9862,10405 9998,10013 10165,9687 10362,9435 10586,9266 10835,9186 11095,9202 11355,9311 11609,9506 11853,9781 12084,10126 12296,10536 12486,11004 12649,11521 12782,12081 12880,12677 12936,13277 12949,13852 12921,14393 12855,14892 12753,15342 12617,15733 12449,16059 12252,16311 12028,16480 11780,16561 " />
    <polygon
       id="polygon216"
       points="13449,6210 13438,6088 13419,5967 13392,5846 13358,5727 13316,5610 13267,5494 13211,5380 13148,5269 13078,5161 13002,5056 12918,4954 12829,4855 12733,4760 12632,4670 12525,4583 12413,4501 12296,4424 12174,4351 12048,4284 11918,4222 11784,4166 11646,4115 11506,4069 11363,4030 11218,3996 11070,3968 10922,3947 10772,3931 10621,3922 10470,3919 10470,3919 10319,3922 10168,3931 10018,3947 9870,3968 9722,3996 9577,4030 9434,4069 9294,4115 9156,4166 9022,4222 8892,4284 8766,4351 8644,4424 8527,4501 8415,4583 8308,4670 8207,4760 8111,4855 8022,4954 7938,5056 7862,5161 7792,5269 7729,5380 7673,5494 7624,5610 7582,5727 7548,5846 7521,5967 7502,6088 7491,6210 7487,6332 7487,6332 7491,6454 7502,6576 7521,6697 7548,6818 7582,6937 7624,7054 7673,7170 7729,7284 7792,7395 7862,7503 7938,7608 8022,7710 8111,7809 8207,7904 8308,7994 8415,8081 8527,8163 8644,8240 8766,8313 8892,8380 9022,8442 9156,8498 9294,8549 9434,8595 9577,8634 9722,8668 9870,8696 10018,8717 10168,8733 10319,8742 10470,8745 10470,8745 10621,8742 10772,8733 10922,8717 11070,8696 11218,8668 11363,8634 11506,8595 11646,8549 11784,8498 11918,8442 12048,8380 12174,8313 12296,8240 12413,8163 12525,8081 12632,7994 12733,7904 12829,7809 12918,7710 13002,7608 13078,7503 13148,7395 13211,7284 13267,7170 13316,7054 13358,6937 13392,6818 13419,6697 13438,6576 13449,6454 13453,6332 " />
  </g>
  <metadata
     id="metadata109">
    <rdf:RDF>
      <cc:Work>
        <dc:format>image/svg+xml</dc:format>
        <dc:type
           rdf:resource="http://purl.org/dc/dcmitype/StillImage" />
        <cc:license
           rdf:resource="http://creativecommons.org/licenses/publicdomain/" />
        <dc:publisher>
          <cc:Agent
             rdf:about="http://openclipart.org/">
            <dc:title>Openclipart</dc:title>
          </cc:Agent>
        </dc:publisher>
        <dc:title>blueman 109</dc:title>
        <dc:date>2009-04-01T16:29:11</dc:date>
        <dc:description />
        <dc:source>https://openclipart.org/detail/23626/blueman-109-by-anonymous-23626</dc:source>
        <dc:creator>
          <cc:Agent>
            <dc:title>Anonymous</dc:title>
          </cc:Agent>
        </dc:creator>
        <dc:subject>
          <rdf:Bag>
            <rdf:li>blue</rdf:li>
            <rdf:li>figure</rdf:li>
            <rdf:li>lift</rdf:li>
            <rdf:li>man</rdf:li>
          </rdf:Bag>
        </dc:subject>
      </cc:Work>
      <cc:License
         rdf:about="http://creativecommons.org/licenses/publicdomain/">
        <cc:permits
           rdf:resource="http://creativecommons.org/ns#Reproduction" />
        <cc:permits
           rdf:resource="http://creativecommons.org/ns#Distribution" />
        <cc:permits
           rdf:resource="http://creativecommons.org/ns#DerivativeWorks" />
      </cc:License>
    </rdf:RDF>
  </metadata>
</svg>
