<?xml version="1.0" encoding="UTF-8" standalone="no"?>
<svg
   xmlns:dc="http://purl.org/dc/elements/1.1/"
   xmlns:cc="http://creativecommons.org/ns#"
   xmlns:rdf="http://www.w3.org/1999/02/22-rdf-syntax-ns#"
   xmlns:svg="http://www.w3.org/2000/svg"
   xmlns="http://www.w3.org/2000/svg"
   xmlns:sodipodi="http://sodipodi.sourceforge.net/DTD/sodipodi-0.dtd"
   xmlns:inkscape="http://www.inkscape.org/namespaces/inkscape"
   id="svg2"
   sodipodi:docname="Anonymous-blueman-205.svg"
   sodipodi:version="0.32"
   version="1.0"
   inkscape:output_extension="org.inkscape.output.svg.inkscape"
   inkscape:version="0.92.1 r15371"
   viewBox="0 0 20300 28300"
   width="21653.334"
   height="30186.666">
  <defs
     id="defs79" />
  <sodipodi:namedview
     id="base"
     bordercolor="#666666"
     inkscape:pageshadow="2"
     guidetolerance="10.0"
     pagecolor="#ffffff"
     gridtolerance="10.0"
     objecttolerance="10.0"
     borderopacity="1.0"
     inkscape:window-height="480"
     showgrid="false"
     inkscape:pageopacity="0.0"
     inkscape:window-width="640"
     inkscape:zoom="0.025276061"
     inkscape:cx="10826.667"
     inkscape:cy="15093.333"
     inkscape:current-layer="svg2" />
  <g
     id="g6"
     style="fill:#000080"
     transform="matrix(1.4646,0,0,1.4646,-4711.4,-4664.3)">
    <polygon
       id="polygon8"
       points="10252,20349 10290,20317 10327,20284 10973,20836 10908,20911 " />
    <polygon
       id="polygon10"
       points="10252,20349 9738,19756 9781,19730 9823,19703 10327,20284 10290,20317 " />
    <polygon
       id="polygon12"
       points="9738,19756 9351,19146 9397,19126 9442,19105 9823,19703 9781,19730 " />
    <polygon
       id="polygon14"
       points="9351,19146 9076,18528 9125,18515 9173,18501 9442,19105 9397,19126 " />
    <polygon
       id="polygon16"
       points="9076,18528 8900,17915 8950,17908 8999,17900 9173,18501 9125,18515 " />
    <polygon
       id="polygon18"
       points="8900,17915 8806,17320 8856,17318 8905,17315 8999,17900 8950,17908 " />
    <polygon
       id="polygon20"
       points="8806,17320 8779,16751 8829,16754 8878,16756 8905,17315 8856,17318 " />
    <polygon
       id="polygon22"
       points="8779,16751 8804,16222 8854,16229 8903,16235 8878,16756 8829,16754 " />
    <polygon
       id="polygon24"
       points="8804,16222 8865,15744 8915,15754 8964,15763 8903,16235 8854,16229 " />
    <polygon
       id="polygon26"
       points="8865,15744 8950,15327 8999,15340 9047,15352 8964,15763 8915,15754 " />
    <polygon
       id="polygon28"
       points="8950,15327 9042,14982 9090,14998 9137,15013 9047,15352 8999,15340 " />
    <polygon
       id="polygon30"
       points="9042,14982 9127,14722 9174,14740 9220,14757 9137,15013 9090,14998 " />
    <polygon
       id="polygon32"
       points="9127,14722 9189,14556 9235,14576 9280,14595 9220,14757 9174,14740 " />
    <polygon
       id="polygon34"
       points="9189,14556 9213,14500 9304,14539 9280,14595 9235,14576 " />
  </g>
  <g
     id="g36"
     style="fill:#0066cc"
     transform="matrix(1.4646,0,0,1.4646,-4711.4,-4664.3)">
    <polygon
       id="polygon38"
       points="9743,20581 10026,20314 10316,20134 10590,20055 10827,20091 10991,20242 11066,20484 11051,20793 10948,21145 10759,21517 10504,21857 10221,22125 9932,22304 9658,22383 9422,22347 9257,22196 9182,21954 9197,21646 9299,21294 9489,20923 " />
  </g>
  <g
     id="g40"
     style="fill:#000080"
     transform="matrix(1.4646,0,0,1.4646,-4711.4,-4664.3)">
    <polygon
       id="polygon42"
       points="13468,10006 13423,10028 13377,10049 13044,9270 13135,9231 " />
    <polygon
       id="polygon44"
       points="13468,10006 13795,10691 13752,10715 13708,10738 13377,10049 13423,10028 " />
    <polygon
       id="polygon46"
       points="13795,10691 14120,11288 14078,11315 14035,11341 13708,10738 13752,10715 " />
    <polygon
       id="polygon48"
       points="14120,11288 14437,11806 14397,11835 14356,11863 14035,11341 14078,11315 " />
    <polygon
       id="polygon50"
       points="14437,11806 14748,12246 14710,12278 14671,12309 14356,11863 14397,11835 " />
    <polygon
       id="polygon52"
       points="14748,12246 15051,12617 15015,12652 14978,12686 14671,12309 14710,12278 " />
    <polygon
       id="polygon54"
       points="15051,12617 15343,12922 15311,12960 15278,12997 14978,12686 15015,12652 " />
    <polygon
       id="polygon56"
       points="15343,12922 15625,13168 15597,13209 15568,13249 15278,12997 15311,12960 " />
    <polygon
       id="polygon58"
       points="15625,13168 15897,13359 15873,13403 15848,13446 15568,13249 15597,13209 " />
    <polygon
       id="polygon60"
       points="15897,13359 16154,13501 16136,13548 16117,13594 15848,13446 15873,13403 " />
    <polygon
       id="polygon62"
       points="16154,13501 16399,13600 16387,13649 16374,13697 16117,13594 16136,13548 " />
    <polygon
       id="polygon64"
       points="16399,13600 16629,13662 16623,13712 16616,13761 16374,13697 16387,13649 " />
    <polygon
       id="polygon66"
       points="16629,13662 16845,13691 16845,13741 16844,13790 16616,13761 16623,13712 " />
    <polygon
       id="polygon68"
       points="16845,13691 17044,13693 17050,13743 17055,13792 16844,13790 16845,13741 " />
    <polygon
       id="polygon70"
       points="17044,13693 17227,13672 17238,13721 17248,13769 17055,13792 17050,13743 " />
    <polygon
       id="polygon72"
       points="17227,13672 17392,13635 17408,13683 17423,13730 17248,13769 17238,13721 " />
    <polygon
       id="polygon74"
       points="17392,13635 17538,13586 17559,13632 17579,13677 17423,13730 17408,13683 " />
    <polygon
       id="polygon76"
       points="17538,13586 17665,13531 17689,13575 17712,13618 17579,13677 17559,13632 " />
    <polygon
       id="polygon78"
       points="17665,13531 17771,13473 17798,13516 17824,13558 17712,13618 17689,13575 " />
    <polygon
       id="polygon80"
       points="17771,13473 17855,13420 17885,13461 17914,13501 17824,13558 17798,13516 " />
    <polygon
       id="polygon82"
       points="17855,13420 17915,13377 17948,13416 17980,13454 17914,13501 17885,13461 " />
    <polygon
       id="polygon84"
       points="17915,13377 17955,13344 17986,13384 18016,13423 17980,13454 17948,13416 " />
    <polygon
       id="polygon86"
       points="17955,13344 17969,13333 18030,13412 18016,13423 17986,13384 " />
  </g>
  <g
     id="g88"
     style="fill:#0066cc"
     transform="matrix(1.4646,0,0,1.4646,-4711.4,-4664.3)">
    <polygon
       id="polygon90"
       points="17550,13357 17495,13128 17517,12899 17614,12689 17784,12516 18005,12402 18249,12362 18496,12394 18727,12494 18923,12661 19055,12873 19110,13103 19088,13331 18992,13541 18823,13716 18600,13828 18356,13867 18109,13836 17878,13736 17683,13570 " />
    <polygon
       id="polygon92"
       points="7786,14988 7710,14632 7725,14201 7826,13708 8009,13165 8270,12586 8604,11983 9007,11369 9475,10757 9981,10183 10494,9680 11005,9255 11500,8912 11970,8659 12404,8500 12790,8443 13118,8492 13376,8655 13546,8923 13622,9279 13607,9710 13506,10203 13323,10745 13062,11324 12728,11927 12325,12541 11858,13154 11351,13728 10838,14230 10327,14656 9832,14998 9362,15252 8928,15410 8542,15468 8214,15418 7957,15257 " />
  </g>
  <g
     id="g94"
     style="fill:#000080"
     transform="matrix(1.4646,0,0,1.4646,-4711.4,-4664.3)">
    <polygon
       id="polygon96"
       points="11941,8437 11958,8390 11974,8342 12760,8662 12723,8755 " />
    <polygon
       id="polygon98"
       points="11941,8437 11206,8185 11220,8137 11233,8088 11974,8342 11958,8390 " />
    <polygon
       id="polygon100"
       points="11206,8185 10518,7992 10529,7944 10539,7895 11233,8088 11220,8137 " />
    <polygon
       id="polygon102"
       points="10518,7992 9874,7855 9882,7806 9889,7756 10539,7895 10529,7944 " />
    <polygon
       id="polygon104"
       points="9874,7855 9275,7767 9279,7718 9282,7668 9889,7756 9882,7806 " />
    <polygon
       id="polygon106"
       points="9275,7767 8719,7723 8720,7674 8720,7624 9282,7668 9279,7718 " />
    <polygon
       id="polygon108"
       points="8719,7723 8207,7718 8204,7669 8200,7619 8720,7624 8720,7674 " />
    <polygon
       id="polygon110"
       points="8207,7718 7737,7748 7731,7699 7724,7649 8200,7619 8204,7669 " />
    <polygon
       id="polygon112"
       points="7737,7748 7308,7806 7298,7758 7287,7709 7724,7649 7731,7699 " />
    <polygon
       id="polygon114"
       points="7308,7806 6920,7888 6907,7840 6893,7791 7287,7709 7298,7758 " />
    <polygon
       id="polygon116"
       points="6920,7888 6573,7987 6556,7941 6538,7894 6893,7791 6907,7840 " />
    <polygon
       id="polygon118"
       points="6573,7987 6264,8100 6244,8055 6223,8009 6538,7894 6556,7941 " />
    <polygon
       id="polygon120"
       points="6264,8100 5994,8221 5971,8177 5947,8132 6223,8009 6244,8055 " />
    <polygon
       id="polygon122"
       points="5994,8221 5762,8344 5736,8302 5709,8259 5947,8132 5971,8177 " />
    <polygon
       id="polygon124"
       points="5762,8344 5568,8465 5539,8425 5509,8384 5709,8259 5736,8302 " />
    <polygon
       id="polygon126"
       points="5568,8465 5409,8578 5378,8540 5346,8501 5509,8384 5539,8425 " />
    <polygon
       id="polygon128"
       points="5409,8578 5288,8678 5254,8642 5219,8605 5346,8501 5378,8540 " />
    <polygon
       id="polygon130"
       points="5288,8678 5202,8760 5165,8727 5127,8693 5219,8605 5254,8642 " />
    <polygon
       id="polygon132"
       points="5147,8821 5110,8788 5067,8762 5067,8762 5072,8754 5127,8693 5165,8727 5202,8760 " />
    <polygon
       id="polygon134"
       points="5152,8813 5132,8846 5047,8795 5067,8762 5110,8788 " />
  </g>
  <g
     id="g136"
     style="fill:#0066cc"
     transform="matrix(1.4646,0,0,1.4646,-4711.4,-4664.3)">
    <polygon
       id="polygon138"
       points="4261,9812 4065,9656 3925,9450 3850,9210 3853,8952 3935,8709 4082,8514 4281,8377 4514,8308 4769,8318 5009,8408 5205,8564 5346,8769 5421,9009 5419,9268 5336,9510 5188,9705 4990,9842 4756,9912 4502,9903 " />
  </g>
  <g
     id="g140"
     style="fill:#000080"
     transform="matrix(1.4646,0,0,1.4646,-4711.4,-4664.3)">
    <polygon
       id="polygon142"
       points="5078,13071 5103,13028 5060,13000 5060,13000 5066,12994 5072,12988 5079,12983 5087,12980 5095,12978 5103,12978 5111,12978 5127,12984 8063,14646 8014,14733 " />
    <polygon
       id="polygon144"
       points="5145,13055 3429,15714 3344,15659 5060,13000 5103,13028 " />
  </g>
  <g
     id="g146"
     style="fill:#0066cc"
     transform="matrix(1.4646,0,0,1.4646,-4711.4,-4664.3)">
    <polygon
       id="polygon148"
       points="1795,15659 1527,15430 1321,15191 1186,14954 1132,14734 1167,14542 1291,14399 1488,14319 1745,14300 2044,14342 2373,14445 2716,14607 3037,14814 3305,15044 3512,15283 3646,15519 3701,15740 3666,15932 3541,16074 3344,16154 3088,16173 2788,16131 2459,16028 2117,15867 " />
    <polygon
       id="polygon150"
       points="16252,5511 16241,5391 16224,5271 16201,5152 16171,5034 16134,4918 16090,4803 16041,4691 15985,4581 15923,4474 15855,4370 15781,4269 15701,4172 15617,4078 15527,3988 15432,3903 15333,3822 15229,3745 15121,3674 15009,3607 14893,3546 14774,3490 14652,3439 14528,3395 14401,3355 14272,3322 14142,3295 14010,3274 13877,3258 13743,3249 13609,3246 13609,3246 13475,3249 13341,3258 13208,3274 13076,3295 12946,3322 12817,3355 12690,3395 12566,3439 12444,3490 12325,3546 12209,3607 12097,3674 11989,3745 11885,3822 11786,3903 11691,3988 11601,4078 11517,4172 11437,4269 11363,4370 11295,4474 11233,4581 11177,4691 11128,4803 11084,4918 11047,5034 11017,5152 10994,5271 10977,5391 10966,5511 10963,5632 10963,5632 10966,5753 10977,5873 10994,5993 11017,6112 11047,6230 11084,6346 11128,6461 11177,6573 11233,6683 11295,6790 11363,6894 11437,6995 11517,7092 11601,7186 11691,7276 11786,7361 11885,7442 11989,7519 12097,7590 12209,7657 12325,7718 12444,7774 12566,7825 12690,7869 12817,7909 12946,7942 13076,7969 13208,7990 13341,8006 13475,8015 13609,8018 13609,8018 13743,8015 13877,8006 14010,7990 14142,7969 14272,7942 14401,7909 14528,7869 14652,7825 14774,7774 14893,7718 15009,7657 15121,7590 15229,7519 15333,7442 15432,7361 15527,7276 15617,7186 15701,7092 15781,6995 15855,6894 15923,6790 15985,6683 16041,6573 16090,6461 16134,6346 16171,6230 16201,6112 16224,5993 16241,5873 16252,5753 16255,5632 " />
  </g>
  <metadata
     id="metadata76">
    <rdf:RDF>
      <cc:Work>
        <dc:format>image/svg+xml</dc:format>
        <dc:type
           rdf:resource="http://purl.org/dc/dcmitype/StillImage" />
        <cc:license
           rdf:resource="http://creativecommons.org/licenses/publicdomain/" />
        <dc:publisher>
          <cc:Agent
             rdf:about="http://openclipart.org/">
            <dc:title>Openclipart</dc:title>
          </cc:Agent>
        </dc:publisher>
        <dc:title>blueman 205</dc:title>
        <dc:date>2009-04-01T16:39:35</dc:date>
        <dc:description />
        <dc:source>https://openclipart.org/detail/23638/blueman-205-by-anonymous-23638</dc:source>
        <dc:creator>
          <cc:Agent>
            <dc:title>Anonymous</dc:title>
          </cc:Agent>
        </dc:creator>
        <dc:subject>
          <rdf:Bag>
            <rdf:li>blue</rdf:li>
            <rdf:li>figure</rdf:li>
            <rdf:li>kick</rdf:li>
            <rdf:li>man</rdf:li>
          </rdf:Bag>
        </dc:subject>
      </cc:Work>
      <cc:License
         rdf:about="http://creativecommons.org/licenses/publicdomain/">
        <cc:permits
           rdf:resource="http://creativecommons.org/ns#Reproduction" />
        <cc:permits
           rdf:resource="http://creativecommons.org/ns#Distribution" />
        <cc:permits
           rdf:resource="http://creativecommons.org/ns#DerivativeWorks" />
      </cc:License>
    </rdf:RDF>
  </metadata>
</svg>
