<?xml version="1.0" encoding="UTF-8" standalone="no"?>
<svg
   xmlns:dc="http://purl.org/dc/elements/1.1/"
   xmlns:cc="http://creativecommons.org/ns#"
   xmlns:rdf="http://www.w3.org/1999/02/22-rdf-syntax-ns#"
   xmlns:svg="http://www.w3.org/2000/svg"
   xmlns="http://www.w3.org/2000/svg"
   xmlns:sodipodi="http://sodipodi.sourceforge.net/DTD/sodipodi-0.dtd"
   xmlns:inkscape="http://www.inkscape.org/namespaces/inkscape"
   id="svg2"
   sodipodi:docname="Anonymous-blueman-212.svg"
   sodipodi:version="0.32"
   version="1.0"
   inkscape:output_extension="org.inkscape.output.svg.inkscape"
   inkscape:version="0.92.1 r15371"
   viewBox="0 0 20300 28300"
   width="21653.334"
   height="30186.666">
  <defs
     id="defs68" />
  <sodipodi:namedview
     id="base"
     bordercolor="#666666"
     inkscape:pageshadow="2"
     guidetolerance="10.0"
     pagecolor="#ffffff"
     gridtolerance="10.0"
     objecttolerance="10.0"
     borderopacity="1.0"
     inkscape:window-height="480"
     showgrid="false"
     inkscape:pageopacity="0.0"
     inkscape:window-width="640"
     inkscape:zoom="0.025276061"
     inkscape:cx="10826.667"
     inkscape:cy="15093.333"
     inkscape:current-layer="svg2" />
  <g
     id="g6"
     style="fill:#000080"
     transform="matrix(1.3972,0,0,1.3972,-1982.7,-6914.4)">
    <polygon
       id="polygon8"
       points="14101,13093 14074,13190 5170,10622 5197,10525 " />
  </g>
  <g
     id="g10"
     style="fill:#0066cc"
     transform="matrix(1.3972,0,0,1.3972,-1982.7,-6914.4)">
    <polygon
       id="polygon12"
       points="15838,13219 15833,13165 15826,13110 15816,13057 15802,13003 15786,12951 15768,12899 15746,12848 15722,12798 15695,12750 15666,12703 15634,12657 15599,12613 15563,12571 15524,12530 15483,12491 15440,12455 15395,12420 15348,12388 15300,12357 15250,12330 15198,12304 15146,12282 15092,12261 15037,12244 14981,12228 14924,12216 14867,12206 14810,12200 14752,12195 14694,12194 14694,12194 14636,12195 14578,12200 14521,12206 14464,12216 14407,12228 14351,12244 14296,12261 14242,12282 14190,12304 14138,12330 14088,12357 14040,12388 13993,12420 13948,12455 13905,12491 13864,12530 13825,12571 13789,12613 13754,12657 13722,12703 13693,12750 13666,12798 13642,12848 13620,12899 13602,12951 13586,13003 13572,13057 13562,13110 13555,13165 13550,13219 13549,13274 13549,13274 13550,13329 13555,13383 13562,13438 13572,13491 13586,13545 13602,13597 13620,13649 13642,13700 13666,13750 13693,13798 13722,13845 13754,13891 13789,13935 13825,13977 13864,14018 13905,14057 13948,14093 13993,14128 14040,14160 14088,14191 14138,14218 14190,14244 14242,14266 14296,14287 14351,14304 14407,14320 14464,14332 14521,14342 14578,14348 14636,14353 14694,14354 14694,14354 14752,14353 14810,14348 14867,14342 14924,14332 14981,14320 15037,14304 15092,14287 15146,14266 15198,14244 15250,14218 15300,14191 15348,14160 15395,14128 15440,14093 15483,14057 15524,14018 15563,13977 15599,13935 15634,13891 15666,13845 15695,13798 15722,13750 15746,13700 15768,13649 15786,13597 15802,13545 15816,13491 15826,13438 15833,13383 15838,13329 15839,13274 " />
    <polygon
       id="polygon14"
       points="2100,19336 1903,19109 1738,18806 1607,18433 1510,17999 1447,17509 1419,16971 1427,16390 1471,15775 1553,15132 1672,14467 1829,13788 2018,13121 2232,12496 2466,11915 2717,11386 2980,10911 3253,10497 3532,10148 3813,9870 4092,9668 4367,9546 4632,9510 4885,9565 5114,9710 5311,9937 5476,10240 5607,10613 5704,11047 5767,11537 5795,12075 5787,12656 5742,13271 5661,13914 5542,14579 5385,15259 5195,15925 4982,16550 4748,17131 4497,17660 4234,18135 3961,18549 3682,18898 3401,19176 3122,19378 2847,19500 2582,19536 2330,19482 " />
  </g>
  <g
     id="g16"
     style="fill:#000080"
     transform="matrix(1.3972,0,0,1.3972,-1982.7,-6914.4)">
    <polygon
       id="polygon18"
       points="3516,19320 3503,19369 3489,19417 2708,19239 2731,19142 " />
    <polygon
       id="polygon20"
       points="3516,19320 4210,19515 4194,19563 4177,19610 3489,19417 3503,19369 " />
    <polygon
       id="polygon22"
       points="4210,19515 4818,19726 4799,19773 4779,19819 4177,19610 4194,19563 " />
    <polygon
       id="polygon24"
       points="4818,19726 5347,19951 5324,19996 5300,20040 4779,19819 4799,19773 " />
    <polygon
       id="polygon26"
       points="5347,19951 5802,20189 5776,20232 5749,20274 5300,20040 5324,19996 " />
    <polygon
       id="polygon28"
       points="5802,20189 6192,20440 6161,20479 6129,20517 5749,20274 5776,20232 " />
    <polygon
       id="polygon30"
       points="6192,20440 6518,20702 6483,20738 6447,20773 6129,20517 6161,20479 " />
    <polygon
       id="polygon32"
       points="6518,20702 6790,20974 6751,21006 6711,21037 6447,20773 6483,20738 " />
    <polygon
       id="polygon34"
       points="6790,20974 7012,21255 6970,21282 6927,21308 6711,21037 6751,21006 " />
    <polygon
       id="polygon36"
       points="7012,21255 7190,21544 7145,21566 7099,21587 6927,21308 6970,21282 " />
    <polygon
       id="polygon38"
       points="7190,21544 7330,21838 7284,21856 7237,21873 7099,21587 7145,21566 " />
    <polygon
       id="polygon40"
       points="7330,21838 7440,22138 7392,22152 7343,22165 7237,21873 7284,21856 " />
    <polygon
       id="polygon42"
       points="7440,22138 7523,22441 7475,22452 7426,22462 7343,22165 7392,22152 " />
    <polygon
       id="polygon44"
       points="7523,22441 7589,22746 7540,22755 7490,22763 7426,22462 7475,22452 " />
    <polygon
       id="polygon46"
       points="7589,22746 7642,23053 7593,23061 7543,23068 7490,22763 7540,22755 " />
    <polygon
       id="polygon48"
       points="7642,23053 7688,23359 7639,23367 7589,23374 7543,23068 7593,23061 " />
    <polygon
       id="polygon50"
       points="7688,23359 7735,23665 7686,23674 7636,23682 7589,23374 7639,23367 " />
    <polygon
       id="polygon52"
       points="7735,23665 7786,23969 7738,23980 7689,23990 7636,23682 7686,23674 " />
    <polygon
       id="polygon54"
       points="7786,23969 7851,24270 7803,24284 7754,24297 7689,23990 7738,23980 " />
    <polygon
       id="polygon56"
       points="7851,24270 7933,24567 7886,24584 7838,24600 7754,24297 7803,24284 " />
    <polygon
       id="polygon58"
       points="7933,24567 8038,24859 7993,24881 7947,24902 7838,24600 7886,24584 " />
    <polygon
       id="polygon60"
       points="8038,24859 8173,25145 8131,25172 8088,25198 7947,24902 7993,24881 " />
    <polygon
       id="polygon62"
       points="8173,25145 8345,25426 8306,25457 8266,25487 8088,25198 8131,25172 " />
    <polygon
       id="polygon64"
       points="8345,25426 8563,25704 8484,25765 8266,25487 8306,25457 " />
  </g>
  <g
     id="g66"
     style="fill:#0066cc"
     transform="matrix(1.3972,0,0,1.3972,-1982.7,-6914.4)">
    <polygon
       id="polygon68"
       points="9237,26197 8832,26246 8484,26233 8208,26162 8022,26035 7943,25855 7981,25637 8130,25405 8375,25171 8699,24949 9088,24749 9528,24584 9973,24472 10378,24423 10726,24435 11002,24506 11188,24633 11268,24815 11229,25032 11079,25264 10835,25498 10510,25720 10121,25920 9682,26086 " />
  </g>
  <g
     id="g70"
     style="fill:#000080"
     transform="matrix(1.3972,0,0,1.3972,-1982.7,-6914.4)">
    <polygon
       id="polygon72"
       points="4418,18715 4419,18765 4419,18814 3652,18867 3645,18768 " />
    <polygon
       id="polygon74"
       points="4418,18715 5109,18704 5107,18754 5104,18803 4419,18814 4419,18765 " />
    <polygon
       id="polygon76"
       points="5109,18704 5721,18733 5716,18783 5710,18832 5104,18803 5107,18754 " />
    <polygon
       id="polygon78"
       points="5721,18733 6264,18798 6254,18847 6243,18895 5710,18832 5716,18783 " />
    <polygon
       id="polygon80"
       points="6264,18798 6741,18897 6727,18945 6712,18992 6243,18895 6254,18847 " />
    <polygon
       id="polygon82"
       points="6741,18897 7159,19026 7140,19072 7120,19117 6712,18992 6727,18945 " />
    <polygon
       id="polygon84"
       points="7159,19026 7524,19182 7500,19226 7475,19269 7120,19117 7140,19072 " />
    <polygon
       id="polygon86"
       points="7524,19182 7843,19363 7814,19404 7784,19444 7475,19269 7500,19226 " />
    <polygon
       id="polygon88"
       points="7843,19363 8119,19565 8086,19603 8052,19640 7784,19444 7814,19404 " />
    <polygon
       id="polygon90"
       points="8119,19565 8361,19785 8324,19819 8286,19852 8052,19640 8086,19603 " />
    <polygon
       id="polygon92"
       points="8361,19785 8572,20018 8533,20049 8493,20079 8286,19852 8324,19819 " />
    <polygon
       id="polygon94"
       points="8572,20018 8760,20262 8719,20291 8677,20319 8493,20079 8533,20049 " />
    <polygon
       id="polygon96"
       points="8760,20262 8932,20514 8890,20541 8847,20567 8677,20319 8719,20291 " />
    <polygon
       id="polygon98"
       points="8932,20514 9092,20770 9050,20796 9007,20821 8847,20567 8890,20541 " />
    <polygon
       id="polygon100"
       points="9092,20770 9248,21026 9206,21053 9163,21079 9007,20821 9050,20796 " />
    <polygon
       id="polygon102"
       points="9248,21026 9405,21281 9364,21309 9322,21336 9163,21079 9206,21053 " />
    <polygon
       id="polygon104"
       points="9405,21281 9571,21531 9531,21561 9490,21590 9322,21336 9364,21309 " />
    <polygon
       id="polygon106"
       points="9571,21531 9748,21773 9711,21806 9673,21838 9490,21590 9531,21561 " />
    <polygon
       id="polygon108"
       points="9748,21773 9947,22005 9913,22041 9878,22076 9673,21838 9711,21806 " />
    <polygon
       id="polygon110"
       points="9947,22005 10170,22222 10140,22262 10109,22301 9878,22076 9913,22041 " />
    <polygon
       id="polygon112"
       points="10170,22222 10427,22423 10401,22466 10374,22508 10109,22301 10140,22262 " />
    <polygon
       id="polygon114"
       points="10427,22423 10727,22609 10674,22694 10374,22508 10401,22466 " />
  </g>
  <g
     id="g116"
     style="fill:#0066cc"
     transform="matrix(1.3972,0,0,1.3972,-1982.7,-6914.4)">
    <polygon
       id="polygon118"
       points="10956,22990 10630,23184 10332,23301 10075,23338 9876,23292 9749,23157 9709,22944 9759,22679 9888,22377 10089,22055 10351,21730 10668,21419 11007,21153 11333,20960 11632,20842 11888,20805 12088,20851 12216,20987 12254,21199 12205,21465 12075,21767 11875,22089 11612,22414 11296,22726 " />
  </g>
  <g
     id="g120"
     style="fill:#000080"
     transform="matrix(1.3972,0,0,1.3972,-1982.7,-6914.4)">
    <polygon
       id="polygon122"
       points="11554,15526 11497,15607 4344,10614 4401,10533 " />
  </g>
  <g
     id="g124"
     style="fill:#0066cc"
     transform="matrix(1.3972,0,0,1.3972,-1982.7,-6914.4)">
    <polygon
       id="polygon126"
       points="13831,15852 13827,15794 13819,15736 13808,15679 13794,15622 13777,15566 13757,15511 13734,15457 13708,15404 13679,15353 13648,15303 13613,15254 13577,15207 13537,15162 13496,15119 13452,15078 13406,15039 13358,15002 13308,14968 13256,14936 13202,14906 13147,14879 13091,14855 13033,14833 12975,14815 12915,14799 12855,14785 12793,14775 12732,14768 12670,14763 12608,14762 12608,14762 12546,14763 12484,14768 12423,14775 12361,14785 12301,14799 12241,14815 12183,14833 12125,14855 12069,14879 12014,14906 11960,14936 11908,14968 11858,15002 11810,15039 11764,15078 11720,15119 11679,15162 11639,15207 11603,15254 11568,15303 11537,15353 11508,15404 11482,15457 11459,15511 11439,15566 11422,15622 11408,15679 11397,15736 11389,15794 11385,15852 11383,15910 11383,15910 11385,15968 11389,16026 11397,16084 11408,16141 11422,16198 11439,16254 11459,16309 11482,16363 11508,16416 11537,16467 11568,16517 11603,16566 11639,16613 11679,16658 11720,16701 11764,16742 11810,16781 11858,16818 11908,16852 11960,16884 12014,16914 12069,16941 12125,16965 12183,16987 12241,17005 12301,17021 12361,17035 12423,17045 12484,17052 12546,17057 12608,17058 12608,17058 12670,17057 12732,17052 12793,17045 12855,17035 12915,17021 12975,17005 13033,16987 13091,16965 13147,16941 13202,16914 13256,16884 13308,16852 13358,16818 13406,16781 13452,16742 13496,16701 13537,16658 13577,16613 13613,16566 13648,16517 13679,16467 13708,16416 13734,16363 13757,16309 13777,16254 13794,16198 13808,16141 13819,16084 13827,16026 13831,15968 13833,15910 " />
    <polygon
       id="polygon128"
       points="7003,9906 6431,9701 5915,9416 5464,9063 5088,8651 4794,8190 4592,7688 4491,7157 4500,6605 4620,6065 4842,5568 5156,5123 5550,4736 6012,4416 6534,4169 7103,4003 7708,3925 8340,3945 8960,4062 9532,4267 10048,4552 10499,4905 10875,5317 11169,5778 11371,6280 11472,6811 11464,7364 11343,7903 11121,8400 10807,8845 10413,9232 9951,9552 9429,9799 8860,9965 8255,10043 7624,10024 " />
  </g>
  <metadata
     id="metadata65">
    <rdf:RDF>
      <cc:Work>
        <dc:format>image/svg+xml</dc:format>
        <dc:type
           rdf:resource="http://purl.org/dc/dcmitype/StillImage" />
        <cc:license
           rdf:resource="http://creativecommons.org/licenses/publicdomain/" />
        <dc:publisher>
          <cc:Agent
             rdf:about="http://openclipart.org/">
            <dc:title>Openclipart</dc:title>
          </cc:Agent>
        </dc:publisher>
        <dc:title>blueman 212</dc:title>
        <dc:date>2009-04-01T16:56:01</dc:date>
        <dc:description />
        <dc:source>https://openclipart.org/detail/23652/blueman-212-by-anonymous-23652</dc:source>
        <dc:creator>
          <cc:Agent>
            <dc:title>Anonymous</dc:title>
          </cc:Agent>
        </dc:creator>
        <dc:subject>
          <rdf:Bag>
            <rdf:li>blue</rdf:li>
            <rdf:li>figure</rdf:li>
            <rdf:li>jump</rdf:li>
            <rdf:li>man</rdf:li>
          </rdf:Bag>
        </dc:subject>
      </cc:Work>
      <cc:License
         rdf:about="http://creativecommons.org/licenses/publicdomain/">
        <cc:permits
           rdf:resource="http://creativecommons.org/ns#Reproduction" />
        <cc:permits
           rdf:resource="http://creativecommons.org/ns#Distribution" />
        <cc:permits
           rdf:resource="http://creativecommons.org/ns#DerivativeWorks" />
      </cc:License>
    </rdf:RDF>
  </metadata>
</svg>
