<?xml version="1.0" encoding="UTF-8" standalone="no"?>
<!-- Created with Inkscape (http://www.inkscape.org/) -->

<svg
   xmlns:dc="http://purl.org/dc/elements/1.1/"
   xmlns:cc="http://creativecommons.org/ns#"
   xmlns:rdf="http://www.w3.org/1999/02/22-rdf-syntax-ns#"
   xmlns:svg="http://www.w3.org/2000/svg"
   xmlns="http://www.w3.org/2000/svg"
   xmlns:sodipodi="http://sodipodi.sourceforge.net/DTD/sodipodi-0.dtd"
   xmlns:inkscape="http://www.inkscape.org/namespaces/inkscape"
   id="svg2"
   sodipodi:docname="kattekrab-Stick-Figures.svg"
   viewBox="0 0 611.17 297.56"
   sodipodi:version="0.32"
   version="1.0"
   inkscape:output_extension="org.inkscape.output.svg.inkscape"
   inkscape:version="0.92.1 r15371"
   width="651.91467"
   height="317.39734">
  <defs
     id="defs27" />
  <sodipodi:namedview
     id="base"
     bordercolor="#666666"
     inkscape:pageshadow="2"
     inkscape:window-y="24"
     pagecolor="#ffffff"
     inkscape:window-height="951"
     inkscape:zoom="1.9225388"
     inkscape:window-x="0"
     showgrid="false"
     borderopacity="1.0"
     inkscape:current-layer="layer1"
     inkscape:cx="305.58551"
     inkscape:cy="148.77921"
     inkscape:window-width="1280"
     inkscape:pageopacity="0.0"
     inkscape:document-units="px" />
  <g
     id="layer1"
     inkscape:label="Layer 1"
     inkscape:groupmode="layer"
     transform="translate(-36.377,-38.392)">
    <g
       id="g11187"
       style="stroke-width:2"
       transform="translate(1.9045e-6)">
      <circle
         id="path11189"
         style="color:#000000;fill:none;stroke:#000000;stroke-width:4.13640022"
         transform="matrix(0.44192,-0.11167,0.12566,0.49726,7.345,3.943)"
         cx="141.54579"
         cy="166.16245"
         r="61.541649" />
      <path
         id="path11191"
         sodipodi:nodetypes="cc"
         style="color:#000000;fill:none;stroke:#000000;stroke-width:2"
         d="m 89.36,100.97 0.45385,119.19"
         inkscape:connector-curvature="0" />
      <path
         id="path11193"
         sodipodi:nodetypes="csssc"
         style="color:#000000;fill:none;stroke:#000000;stroke-width:2"
         d="m 160.03,155.17 -15.851,10.452 c -7.9852,5.2654 -15.634,-32.489 -30.213,-42.157 -15.525,-10.296 -50.791,-8.3882 -52.697,-1.4052 -7.1009,26.015 -9.9486,53.917 -23.889,77.289"
         inkscape:connector-curvature="0" />
      <path
         id="path11195"
         sodipodi:nodetypes="ccc"
         style="color:#000000;fill:none;stroke:#000000;stroke-width:2"
         d="M 52.835,333.54 89.825,219.69 134.34,334.95"
         inkscape:connector-curvature="0" />
    </g>
    <g
       id="g4020"
       transform="translate(243.31,-310.79)">
      <ellipse
         id="path3060"
         style="color:#000000;fill:none;stroke:#000000;stroke-width:4.13640022"
         transform="matrix(0.40149,-0.21905,0.19878,0.48471,234.93,358.3)"
         cx="141.54579"
         cy="166.16245"
         rx="55.298965"
         ry="61.541649" />
      <path
         id="path3062"
         sodipodi:nodetypes="csc"
         style="color:#000000;fill:none;stroke:#000000;stroke-width:1.97800004"
         d="m 335.3,438.26 c 0.14588,5.4829 3.3393,8.5745 3.0708,13.166 -1.9154,32.745 9.2776,47.416 15.512,71.106"
         inkscape:connector-curvature="0" />
      <path
         id="path3064"
         sodipodi:nodetypes="csssc"
         style="color:#000000;fill:none;stroke:#000000;stroke-width:2.13540006;stroke-linecap:round;stroke-linejoin:round"
         d="m 368.81,518.48 c 5.0536,-23.488 27.176,-23.806 25.607,-29.359 -5.0206,-17.763 -17.589,-26.985 -34.205,-35.026 -16.492,-7.9806 -34.034,-2.8876 -38.15,6.3957 -12.462,28.113 -18.397,35.159 -37.815,51.75"
         inkscape:connector-curvature="0" />
      <path
         id="path3066"
         sodipodi:nodetypes="csczz"
         style="color:#000000;fill:none;stroke:#000000;stroke-width:2.13540006;stroke-linecap:round;stroke-linejoin:round"
         d="m 310.53,637.15 c 0,0 24.592,-15.251 13.315,-33.162 -20.044,-31.838 30.31,-81.617 30.31,-81.617 0,0 -3.5584,72.819 10.353,75.906 13.66,3.0318 26.626,-22.552 38.666,-11.976"
         inkscape:connector-curvature="0" />
    </g>
    <g
       id="g3870"
       style="stroke-width:3.01999998"
       transform="matrix(0.66226,0,0,0.66226,86.204,82.272)">
      <circle
         id="path3862"
         style="color:#000000;fill:none;stroke:#000000;stroke-width:6.96850014"
         transform="matrix(-0.35937,-0.19433,0.21867,-0.40438,283.46,205.45)"
         cx="141.54579"
         cy="166.16245"
         r="61.541649" />
      <path
         id="path3864"
         sodipodi:nodetypes="cc"
         style="color:#000000;fill:none;stroke:#000000;stroke-width:3.01999998"
         d="M 267.66,137.82 V 249.94"
         inkscape:connector-curvature="0" />
      <path
         id="path3866"
         sodipodi:nodetypes="csssss"
         style="color:#000000;fill:none;stroke:#000000;stroke-width:3.01999998"
         d="m 309.25,231.67 c 0,0 8.7132,-27.696 0,-35.897 -11.418,-10.747 -5.3984,-24.738 -19.542,-37.786 -9.0866,-8.383 -34.581,-9.8528 -47.233,-1.2595 -12.857,8.7322 0.52929,38.454 -13.769,44.546 l -19.609,8.355"
         inkscape:connector-curvature="0" />
      <path
         id="path3868"
         sodipodi:nodetypes="ccc"
         style="color:#000000;fill:none;stroke:#000000;stroke-width:3.01999998"
         d="m 234.92,346.29 32.748,-96.355 40.305,97.615"
         inkscape:connector-curvature="0" />
    </g>
    <g
       id="g3992"
       transform="matrix(-1,0,0,1,1002.7,-15.605)">
      <circle
         id="path3072"
         style="color:#000000;fill:none;stroke:#000000;stroke-width:4.61490011"
         transform="matrix(0.38023,-0.14945,-0.16817,-0.42785,557.25,197.92)"
         cx="141.54579"
         cy="166.16245"
         r="61.541649" />
      <path
         id="path3074"
         sodipodi:nodetypes="csc"
         style="color:#000000;fill:none;stroke:#000000;stroke-width:2"
         d="m 581.33,133.19 c 3.3588,19.537 5.7698,41.676 -1.9203,64.212 -4.4632,13.079 -0.9759,15.992 1.9203,29.49"
         inkscape:connector-curvature="0" />
      <path
         id="path3076"
         sodipodi:nodetypes="cssssc"
         style="color:#000000;fill:none;stroke:#000000;stroke-width:2"
         d="m 539.88,223.98 7.6927,-22.05 c 5.1044,-14.631 2.6218,-38.216 16.31,-45.479 13.913,-7.3819 42.582,-16.307 47.233,-1.2595 0,0 3.3594,33.005 13.769,44.546 4.7587,5.276 19.609,8.355 19.609,8.355"
         inkscape:connector-curvature="0" />
      <path
         id="path3078"
         sodipodi:nodetypes="ccc"
         style="color:#000000;fill:none;stroke:#000000;stroke-width:2"
         d="m 615.6,333.98 c -9.5138,-57.288 -20.674,-96.466 -34.287,-108.66 -9.4652,47.012 -25.661,73.834 -38.767,109.92"
         inkscape:connector-curvature="0" />
    </g>
  </g>
  <metadata
     id="metadata24">
    <rdf:RDF>
      <cc:Work>
        <dc:format>image/svg+xml</dc:format>
        <dc:type
           rdf:resource="http://purl.org/dc/dcmitype/StillImage" />
        <cc:license
           rdf:resource="http://creativecommons.org/licenses/publicdomain/" />
        <dc:publisher>
          <cc:Agent
             rdf:about="http://openclipart.org/">
            <dc:title>Openclipart</dc:title>
          </cc:Agent>
        </dc:publisher>
        <dc:title>Stick Figures</dc:title>
        <dc:date>2009-03-18T08:57:55</dc:date>
        <dc:description />
        <dc:source>https://openclipart.org/detail/22529/stick-figures-by-kattekrab</dc:source>
        <dc:creator>
          <cc:Agent>
            <dc:title>kattekrab</dc:title>
          </cc:Agent>
        </dc:creator>
      </cc:Work>
      <cc:License
         rdf:about="http://creativecommons.org/licenses/publicdomain/">
        <cc:permits
           rdf:resource="http://creativecommons.org/ns#Reproduction" />
        <cc:permits
           rdf:resource="http://creativecommons.org/ns#Distribution" />
        <cc:permits
           rdf:resource="http://creativecommons.org/ns#DerivativeWorks" />
      </cc:License>
    </rdf:RDF>
  </metadata>
</svg>
