<?xml version="1.0" encoding="UTF-8" standalone="no"?>
<!-- Created with Inkscape (http://www.inkscape.org/) -->

<svg
   xmlns:dc="http://purl.org/dc/elements/1.1/"
   xmlns:cc="http://creativecommons.org/ns#"
   xmlns:rdf="http://www.w3.org/1999/02/22-rdf-syntax-ns#"
   xmlns:svg="http://www.w3.org/2000/svg"
   xmlns="http://www.w3.org/2000/svg"
   xmlns:sodipodi="http://sodipodi.sourceforge.net/DTD/sodipodi-0.dtd"
   xmlns:inkscape="http://www.inkscape.org/namespaces/inkscape"
   id="svg3912"
   sodipodi:docname="kattekrab-Seated-Stick-Figure.svg"
   viewBox="0 0 343.54 508.6"
   sodipodi:version="0.32"
   version="1.0"
   inkscape:output_extension="org.inkscape.output.svg.inkscape"
   inkscape:version="0.92.1 r15371"
   width="366.44269"
   height="542.50665">
  <defs
     id="defs12" />
  <sodipodi:namedview
     id="base"
     bordercolor="#666666"
     inkscape:pageshadow="2"
     inkscape:window-y="24"
     pagecolor="#ffffff"
     inkscape:window-height="951"
     inkscape:zoom="0.35"
     inkscape:window-x="0"
     showgrid="false"
     borderopacity="1.0"
     inkscape:current-layer="layer1"
     inkscape:cx="-496.08801"
     inkscape:cy="-37.126272"
     inkscape:window-width="1280"
     inkscape:pageopacity="0.0"
     inkscape:document-units="px" />
  <g
     id="layer1"
     inkscape:label="Layer 1"
     inkscape:groupmode="layer"
     transform="translate(-871.09,13.369)">
    <circle
       id="path3052"
       style="color:#000000;fill:none;stroke:#000000;stroke-width:13.84500027;stroke-linecap:round;stroke-linejoin:round"
       transform="matrix(-0.63034,-0.33711,0.38354,-0.70149,1096.4,204.05)"
       cx="141.54579"
       cy="166.16245"
       r="61.541649" />
    <path
       id="path3054"
       sodipodi:nodetypes="cc"
       style="color:#000000;fill:none;stroke:#000000;stroke-width:10.4659996;stroke-linecap:round;stroke-linejoin:round"
       d="m 1074.1,86.733 c -8.868,31.6 35.565,137.67 7.6377,218.84"
       inkscape:connector-curvature="0" />
    <path
       id="path3056"
       sodipodi:nodetypes="ccsscc"
       style="color:#000000;fill:none;stroke:#000000;stroke-width:10.4659996;stroke-linecap:round;stroke-linejoin:round"
       d="m 984.84,241.52 70.164,-48.927 c 0,0 86.614,-60.609 57.747,-70.887 -25.664,-9.1379 -57.071,-24.73 -66.655,-7.5229 -22.66,40.684 -46.685,51.534 -70.027,71.937 l -45.189,3.8179"
       inkscape:connector-curvature="0" />
    <path
       id="path3058"
       sodipodi:nodetypes="cscsc"
       style="color:#000000;fill:none;stroke:#000000;stroke-width:10.4659996;stroke-linecap:round;stroke-linejoin:round"
       d="m 876.32,483.06 c 0,0 -0.61749,-212.57 19.656,-215.89 30.505,-5.0036 156.87,36.186 185.04,38.523 0.668,6.6067 -131.04,-10.61 -156.34,-3.9922 -25.351,6.6316 4.2208,159.53 4.2208,159.53"
       inkscape:connector-curvature="0" />
    <path
       id="rect3070"
       sodipodi:nodetypes="ccccccccccccccccccccc"
       style="fill:none;stroke:#000000;stroke-width:6.97739983;stroke-linecap:round;stroke-linejoin:round"
       d="m 1146.3,166.37 c -11.006,-0.18955 -20.844,7.7702 -22.638,18.703 l -21.651,131.84 -143.66,-2.4395 c -11.8,1.9142 -20.012,12.898 -18.417,24.612 l 17.43,128.15 c 4.0018,17.323 20.643,19.573 35.957,20.546 l 202.26,3.9574 c 11.933,0.2342 18.369,-7.3944 14.471,-17.131 l -7.5094,-18.703 c -3.8986,-9.7361 -16.625,-17.764 -28.557,-17.998 l -165.7,-3.3068 -9.4278,-68.902 128.76,6.6679 c 9.4458,0.49055 17.613,-5.0409 20.829,-13.227 1.572,-2.4501 2.6854,-5.2309 3.1791,-8.24 l 26.146,-159.49 c 1.9132,-11.661 -6.1089,-22.197 -17.979,-23.582 l -11.237,-1.301 c -0.7419,-0.0866 -1.5136,-0.15006 -2.2473,-0.16255 v -9e-5 z"
       inkscape:connector-curvature="0" />
  </g>
  <metadata
     id="metadata9">
    <rdf:RDF>
      <cc:Work>
        <dc:format>image/svg+xml</dc:format>
        <dc:type
           rdf:resource="http://purl.org/dc/dcmitype/StillImage" />
        <cc:license
           rdf:resource="http://creativecommons.org/licenses/publicdomain/" />
        <dc:publisher>
          <cc:Agent
             rdf:about="http://openclipart.org/">
            <dc:title>Openclipart</dc:title>
          </cc:Agent>
        </dc:publisher>
        <dc:title>Seated Stick Figure</dc:title>
        <dc:date>2009-03-18T07:48:58</dc:date>
        <dc:description>Simple stick figure person sitting on a chair</dc:description>
        <dc:source>https://openclipart.org/detail/22513/seated-stick-figure-by-kattekrab</dc:source>
        <dc:creator>
          <cc:Agent>
            <dc:title>kattekrab</dc:title>
          </cc:Agent>
        </dc:creator>
        <dc:subject>
          <rdf:Bag>
            <rdf:li>chair</rdf:li>
            <rdf:li>people</rdf:li>
            <rdf:li>person</rdf:li>
            <rdf:li>sitting</rdf:li>
            <rdf:li>sketch</rdf:li>
            <rdf:li>stick figure</rdf:li>
          </rdf:Bag>
        </dc:subject>
      </cc:Work>
      <cc:License
         rdf:about="http://creativecommons.org/licenses/publicdomain/">
        <cc:permits
           rdf:resource="http://creativecommons.org/ns#Reproduction" />
        <cc:permits
           rdf:resource="http://creativecommons.org/ns#Distribution" />
        <cc:permits
           rdf:resource="http://creativecommons.org/ns#DerivativeWorks" />
      </cc:License>
    </rdf:RDF>
  </metadata>
</svg>
