<?xml version="1.0" encoding="UTF-8" standalone="no"?>
<!-- Created with Inkscape (http://www.inkscape.org/) -->

<svg
   xmlns:dc="http://purl.org/dc/elements/1.1/"
   xmlns:cc="http://creativecommons.org/ns#"
   xmlns:rdf="http://www.w3.org/1999/02/22-rdf-syntax-ns#"
   xmlns:svg="http://www.w3.org/2000/svg"
   xmlns="http://www.w3.org/2000/svg"
   xmlns:sodipodi="http://sodipodi.sourceforge.net/DTD/sodipodi-0.dtd"
   xmlns:inkscape="http://www.inkscape.org/namespaces/inkscape"
   id="svg14350"
   sodipodi:docname="Leomarc-sign-no-U-turn.svg"
   viewBox="0 0 87.636 158.95"
   sodipodi:version="0.32"
   version="1.0"
   inkscape:output_extension="org.inkscape.output.svg.inkscape"
   inkscape:version="0.92.1 r15371"
   width="93.478401"
   height="169.54666">
  <defs
     id="defs12" />
  <sodipodi:namedview
     id="base"
     bordercolor="#666666"
     inkscape:pageshadow="2"
     inkscape:window-y="22"
     pagecolor="#ffffff"
     inkscape:window-height="968"
     inkscape:zoom="4.8570225"
     inkscape:window-x="0"
     borderopacity="1.0"
     inkscape:current-layer="layer1"
     inkscape:cx="43.818134"
     inkscape:cy="79.472557"
     inkscape:window-width="1280"
     inkscape:pageopacity="0.0"
     inkscape:document-units="mm"
     showgrid="false" />
  <g
     id="layer1"
     inkscape:label="Layer 1"
     inkscape:groupmode="layer"
     transform="translate(-581.05,-8.019)">
    <rect
       id="rect3594"
       style="fill:none;stroke:#000000;stroke-width:2.52670002"
       ry="7.4548001"
       height="156.42"
       width="85.110001"
       y="9.2823"
       x="582.32001" />
    <g
       id="g3626"
       transform="matrix(0.84223,0,0,0.84223,364.83,-739.71)">
      <path
         id="path3600"
         style="fill:#000000;fill-rule:evenodd;stroke:#000000;stroke-width:0.40874001px"
         d="m 307.9,908.3 c -11.84,-0.11 -13.85,7.99 -13.82,12.3 0,0.11 0.02,0.22 0.04,0.32 h -0.04 v 4.74 c 0,0 -3.85,-1.54 -5.67,-1.51 -1.83,0.03 -1.64,1.64 -1.64,1.64 l 11.5,17.21 11.42,-16.45 c 0,0 0.79,-2.83 -0.88,-2.46 -2,0.44 -6.48,1.48 -6.48,1.48 v -4.53 h -0.12 c 0.03,-0.01 0.13,-0.06 0.13,-0.06 0,0 0.28,-4.67 6.01,-4.67 5.73,0 6.18,5.6 6.18,5.6 v 31.79 h 7.77 v -33.51 c 0,-0.98 -2.56,-11.77 -14.4,-11.89 z"
         inkscape:connector-curvature="0" />
      <path
         id="path3608"
         style="fill:#ff0000"
         d="m 307.39,899.7 c -17.68,0 -32.03,14.34 -32.03,32.02 0,17.68 14.35,32.03 32.03,32.03 17.68,0 32.03,-14.35 32.03,-32.03 0,-17.68 -14.35,-32.02 -32.03,-32.02 z m 0,4.66 c 15.1,0 27.37,12.25 27.37,27.36 0,6.83 -2.52,13.08 -6.67,17.88 l -38.56,-38.57 c 4.79,-4.14 11.03,-6.67 17.86,-6.67 z m -21.08,9.93 38.51,38.52 c -4.74,3.91 -10.81,6.27 -17.43,6.27 -15.1,0 -27.35,-12.26 -27.35,-27.36 0,-6.63 2.35,-12.7 6.27,-17.43 z"
         inkscape:connector-curvature="0" />
    </g>
    <path
       id="text3445"
       style="fill:#000000"
       transform="scale(0.965,1.0363)"
       d="m 625.5,77.283 h 6.26 l 8.17,12.007 V 77.283 h 6.32 v 21.704 h -6.32 L 631.8,87.069 v 11.918 h -6.3 z m 24.4,10.867 c 0,-3.543 0.98,-6.302 2.96,-8.276 1.97,-1.974 4.72,-2.961 8.24,-2.961 3.62,0 6.4,0.97 8.35,2.909 1.96,1.94 2.93,4.656 2.93,8.15 0,2.537 -0.42,4.617 -1.28,6.241 -0.85,1.623 -2.08,2.886 -3.7,3.79 -1.61,0.903 -3.62,1.354 -6.03,1.354 -2.45,0 -4.47,-0.39 -6.08,-1.169 -1.6,-0.78 -2.9,-2.014 -3.9,-3.702 -1,-1.687 -1.49,-3.799 -1.49,-6.336 z m 6.7,0.03 c 0,2.191 0.41,3.765 1.22,4.722 0.82,0.958 1.93,1.436 3.33,1.436 1.44,0 2.55,-0.468 3.34,-1.406 0.79,-0.938 1.19,-2.621 1.19,-5.049 0,-2.043 -0.41,-3.535 -1.24,-4.478 -0.82,-0.943 -1.94,-1.414 -3.35,-1.414 -1.35,0 -2.44,0.479 -3.26,1.436 -0.82,0.958 -1.23,2.542 -1.23,4.753 z m -15.21,19.69 h 3.56 v 9.55 c 0,1.52 0.04,2.5 0.13,2.95 0.15,0.72 0.51,1.3 1.09,1.74 0.57,0.43 1.35,0.65 2.35,0.65 1.01,0 1.77,-0.21 2.28,-0.62 0.52,-0.41 0.83,-0.92 0.93,-1.52 0.1,-0.6 0.16,-1.6 0.16,-2.99 v -9.76 h 3.56 v 9.26 c 0,2.12 -0.1,3.61 -0.29,4.49 -0.19,0.87 -0.55,1.61 -1.07,2.21 -0.51,0.6 -1.21,1.08 -2.07,1.44 -0.87,0.35 -2,0.53 -3.39,0.53 -1.69,0 -2.96,-0.19 -3.83,-0.58 -0.87,-0.39 -1.56,-0.89 -2.07,-1.52 -0.5,-0.62 -0.83,-1.27 -0.99,-1.95 -0.24,-1.01 -0.35,-2.5 -0.35,-4.47 z m -21.34,42.26 v -14.65 h -5.23 v -2.98 h 14.01 v 2.98 h -5.22 v 14.65 z m 11.07,-17.63 h 3.56 v 9.55 c 0,1.52 0.04,2.5 0.13,2.95 0.15,0.72 0.51,1.3 1.09,1.73 0.57,0.44 1.35,0.66 2.35,0.66 1.01,0 1.77,-0.21 2.28,-0.62 0.52,-0.41 0.83,-0.92 0.93,-1.52 0.1,-0.6 0.16,-1.6 0.16,-3 v -9.75 h 3.56 v 9.26 c 0,2.12 -0.1,3.61 -0.29,4.49 -0.2,0.87 -0.55,1.61 -1.07,2.21 -0.51,0.6 -1.21,1.08 -2.07,1.44 -0.87,0.35 -2,0.53 -3.39,0.53 -1.69,0 -2.96,-0.19 -3.83,-0.58 -0.87,-0.39 -1.56,-0.89 -2.07,-1.52 -0.5,-0.62 -0.83,-1.27 -0.99,-1.95 -0.24,-1.01 -0.35,-2.5 -0.35,-4.47 z m 17.83,17.63 V 132.5 h 7.49 c 1.89,0 3.26,0.16 4.11,0.48 0.86,0.31 1.54,0.88 2.05,1.69 0.51,0.81 0.77,1.73 0.77,2.77 0,1.33 -0.39,2.42 -1.17,3.28 -0.77,0.86 -1.94,1.41 -3.48,1.63 0.77,0.45 1.4,0.94 1.9,1.48 0.5,0.54 1.18,1.49 2.03,2.86 l 2.15,3.44 h -4.25 l -2.58,-3.83 c -0.91,-1.38 -1.54,-2.24 -1.87,-2.6 -0.34,-0.35 -0.7,-0.6 -1.07,-0.73 -0.38,-0.13 -0.98,-0.2 -1.8,-0.2 h -0.72 v 7.36 z m 3.56,-10.17 h 2.64 c 1.7,0 2.77,-0.07 3.19,-0.22 0.43,-0.14 0.76,-0.39 1,-0.74 0.24,-0.36 0.36,-0.8 0.36,-1.33 0,-0.59 -0.15,-1.07 -0.47,-1.43 -0.32,-0.37 -0.77,-0.6 -1.34,-0.7 -0.29,-0.04 -1.16,-0.06 -2.6,-0.06 h -2.78 z m 14.26,10.17 V 132.5 h 3.47 l 7.21,11.78 V 132.5 h 3.31 v 17.63 h -3.57 l -7.11,-11.49 v 11.49 z"
       inkscape:connector-curvature="0" />
  </g>
  <metadata
     id="metadata9">
    <rdf:RDF>
      <cc:Work>
        <dc:format>image/svg+xml</dc:format>
        <dc:type
           rdf:resource="http://purl.org/dc/dcmitype/StillImage" />
        <cc:license
           rdf:resource="http://creativecommons.org/licenses/publicdomain/" />
        <dc:publisher>
          <cc:Agent
             rdf:about="http://openclipart.org/">
            <dc:title>Openclipart</dc:title>
          </cc:Agent>
        </dc:publisher>
        <dc:title>sign_no U turn</dc:title>
        <dc:date>2007-10-20T00:13:08</dc:date>
        <dc:description />
        <dc:source>https://openclipart.org/detail/7249/sign_no-u-turn-by-leomarc</dc:source>
        <dc:creator>
          <cc:Agent>
            <dc:title>Leomarc</dc:title>
          </cc:Agent>
        </dc:creator>
        <dc:subject>
          <rdf:Bag>
            <rdf:li>roadsign</rdf:li>
            <rdf:li>sign</rdf:li>
          </rdf:Bag>
        </dc:subject>
      </cc:Work>
      <cc:License
         rdf:about="http://creativecommons.org/licenses/publicdomain/">
        <cc:permits
           rdf:resource="http://creativecommons.org/ns#Reproduction" />
        <cc:permits
           rdf:resource="http://creativecommons.org/ns#Distribution" />
        <cc:permits
           rdf:resource="http://creativecommons.org/ns#DerivativeWorks" />
      </cc:License>
    </rdf:RDF>
  </metadata>
</svg>
