<?xml version="1.0" encoding="UTF-8" standalone="no"?>
<!-- Created with Inkscape (http://www.inkscape.org/) -->

<svg
   xmlns:dc="http://purl.org/dc/elements/1.1/"
   xmlns:cc="http://creativecommons.org/ns#"
   xmlns:rdf="http://www.w3.org/1999/02/22-rdf-syntax-ns#"
   xmlns:svg="http://www.w3.org/2000/svg"
   xmlns="http://www.w3.org/2000/svg"
   xmlns:sodipodi="http://sodipodi.sourceforge.net/DTD/sodipodi-0.dtd"
   xmlns:inkscape="http://www.inkscape.org/namespaces/inkscape"
   id="svg2"
   sodipodi:docname="Al-very-sad.svg"
   viewBox="0 0 92.421 187.76"
   version="1.1"
   inkscape:version="0.92.1 r15371"
   width="98.582397"
   height="200.27733">
  <defs
     id="defs4">
    <linearGradient
       id="linearGradient3770"
       y2="518.84003"
       gradientUnits="userSpaceOnUse"
       x2="304.94"
       gradientTransform="matrix(1.2246,0,0,1,-183.26,-620.31)"
       y1="500.42001"
       x1="197.38"
       inkscape:collect="always">
      <stop
         id="stop6741"
         style="stop-color:rgb(0, 0, 0)"
         offset="0" />
      <stop
         id="stop6743"
         style="stop-color:rgb(0, 0, 0);stop-opacity:0"
         offset="1" />
    </linearGradient>
  </defs>
  <sodipodi:namedview
     id="base"
     bordercolor="#666666"
     inkscape:pageshadow="2"
     inkscape:window-y="0"
     pagecolor="#ffffff"
     inkscape:window-height="1025"
     inkscape:window-maximized="0"
     inkscape:zoom="2.1820312"
     inkscape:window-x="0"
     showgrid="false"
     borderopacity="1.0"
     inkscape:current-layer="layer3"
     inkscape:cx="97.829895"
     inkscape:cy="147.75759"
     inkscape:window-width="1680"
     inkscape:pageopacity="0.0"
     inkscape:document-units="px" />
  <g
     id="layer3"
     inkscape:label="al"
     inkscape:groupmode="layer"
     transform="translate(-61.239,280.92)">
    <g
       id="g3793">
      <path
         id="path6737"
         style="fill:url(#linearGradient3770)"
         d="m 111.96,-109.6 c 18.92,-0.95673 -20.223,3.9073 -22.609,4.2426 -12.098,0.97493 25.605,-2.0201 38.701,-3.0373 27.524,-1.4611 -36.936,5.02 -40.591,5.5816 1.1135,-3.1136 50.453,-8.9851 37.123,-3.784 -21.053,7.1103 -17.228,4.9317 3.0499,3.4211 33.334,-1.8947 -7.2492,3.6567 -18.704,5.4335 -6.3313,-2.0254 58.388,-9.5542 28.563,-3.2312 -1.8433,1.6942 -11.56,2.6047 2.5056,0.23081 1.8624,-0.31433 -3.6781,0.74906 -5.4687,1.2132 -6.0456,1.567 -6.3527,1.9892 0.031,2.6185 6.3589,0.46827 12.735,0.8133 19.104,1.2157 l -9.1822,2.5372 c -6.4385,-0.45518 -12.894,-0.77239 -19.339,-1.1824 -18.014,-1.6894 18.702,-10.975 22.932,-8.1286 -8.2779,1.809 -54.297,7.0647 -29.766,1.9021 28.645,-3.6075 19.988,-0.85571 0.38706,0.0141 -19.806,1.6484 -27.486,2.2494 -4.3074,-5.089 9.6104,-3.0746 -46.83,6.7803 -17.348,-0.058 12.238,-1.4871 64.638,-6.8722 22.227,-0.1219 -15.1,1.0589 -69.075,5.8169 -21.1,-2.1852 22.062,-3.034 28.195,-1.8277 3.763,1.0611 l 10.027,-2.6537 z"
         inkscape:connector-curvature="0" />
      <path
         id="path3841"
         sodipodi:nodetypes="cc"
         style="fill:none;stroke:#000000;stroke-width:1px"
         d="m 129.54,-235.25 c -0.74061,4.3145 1.3875,1.4598 0,0 z"
         inkscape:connector-curvature="0" />
      <path
         id="path3841-2"
         sodipodi:nodetypes="cc"
         style="fill:none;stroke:#000000;stroke-width:1px"
         d="m 120.37,-257.83 c -3.1107,3.6341 0.3435,2.3929 0,0 z"
         inkscape:connector-curvature="0" />
      <path
         id="path3841-2-0"
         sodipodi:nodetypes="cc"
         style="fill:none;stroke:#000000;stroke-width:1px"
         d="m 119.32,-260.48 c -4.1754,0.57658 -1.5811,1.5954 0,0 z"
         inkscape:connector-curvature="0" />
      <path
         id="path3841-2-1"
         sodipodi:nodetypes="cc"
         style="fill:none;stroke:#000000;stroke-width:1px"
         d="m 123.96,-240.19 c -2.5531,4.3303 1.1397,2.3775 0,0 z"
         inkscape:connector-curvature="0" />
      <path
         id="path3841-2-5"
         sodipodi:nodetypes="cc"
         style="fill:none;stroke:#000000;stroke-width:1px"
         d="m 128.26,-254.9 c 0.26519,4.5114 2.3502,1.5964 0,0 z"
         inkscape:connector-curvature="0" />
      <path
         id="path4874"
         sodipodi:nodetypes="ccc"
         style="fill:none;stroke:#000000;stroke-width:1.89999998"
         d="m 99.293,-239.68 c -15.608,-0.97839 -31.285,-4.8814 -37.104,-1.0787 15.376,28.145 18.681,25.045 17.64,36.313"
         inkscape:connector-curvature="0" />
      <path
         id="path4876"
         style="fill:none;stroke:#000000;stroke-width:1.89999998"
         d="m 94.149,-195.75 c 6.0523,-3.7952 17.866,-5.0866 32.783,-16.549 -5.9627,-14.122 -25.602,-27.079 -25.602,-27.079"
         inkscape:transform-center-x="-11.136675"
         inkscape:transform-center-y="19.725172"
         sodipodi:nodetypes="ccc"
         inkscape:connector-curvature="0" />
      <path
         id="path4878"
         sodipodi:nodetypes="csc"
         style="fill:none;stroke:#000000;stroke-width:1.89999998"
         d="m 78.835,-176.85 c 3.5767,67.984 -6.1701,61.924 -5.665,63.439 0.50508,1.5152 1.0102,3.5355 1.0102,3.5355"
         inkscape:connector-curvature="0" />
      <path
         id="path4882"
         sodipodi:nodetypes="cssc"
         style="fill:#000000;fill-rule:evenodd;stroke:#000000;stroke-width:1px"
         d="m 72.665,-112.91 c -2.444,2.4847 -8.1626,2.4836 -5.5558,4.0406 5.3668,3.2055 4.9739,6.7943 8.5863,3.0305 3.9322,-4.0971 13.132,-0.50508 -3.0305,-7.0711 z"
         inkscape:connector-curvature="0" />
      <g
         id="g3816"
         transform="matrix(0.99692,-0.2116,0.21359,0.98763,17.693,-308.19)">
        <path
           id="path4880"
           sodipodi:nodetypes="csc"
           style="fill:none;stroke:#000000;stroke-width:1.87230003"
           d="m 33.628,141.93 c 11.69,30.184 -1.8496,59.663 -1.4093,62.275 0.2655,1.575 13.208,1.4878 13.208,1.4878"
           inkscape:connector-curvature="0" />
        <path
           id="path5757"
           sodipodi:nodetypes="cssc"
           style="fill:#000000;fill-rule:evenodd;stroke:#000000;stroke-width:0.98543px"
           d="m 37.184,202.04 c -2.444,2.4847 -5.6626,1.0551 -3.0558,2.612 5.3668,3.2055 12.831,6.08 16.443,2.3162 3.9322,-4.0971 2.7748,1.6378 -13.388,-4.9282 z"
           inkscape:connector-curvature="0" />
      </g>
      <path
         id="path5761"
         style="fill:#000000;fill-rule:evenodd;stroke:#000000;stroke-width:1px"
         d="m 91.503,-192.94 c 1.4357,-1.3397 2.9004,-5.3853 3.5597,-2.1276 1.2931,6.3899 3.8441,8.7012 -1.4152,9.3037 -5.7249,0.6559 -11.721,9.9976 -2.1445,-7.1761 z"
         inkscape:transform-center-x="-0.27664175"
         inkscape:transform-center-y="-3.2176845"
         sodipodi:nodetypes="cssc"
         inkscape:connector-curvature="0" />
      <path
         id="path3787"
         style="fill:#000000;fill-rule:evenodd;stroke:#000000;stroke-width:1px"
         d="m 80.408,-200.88 c 0.33062,-0.56875 0.66348,-6.7615 -1.258,-4.6211 -4.3552,4.8514 -8.0466,5.3099 -4.251,9 4.1316,4.0168 2.5985,15.068 5.5091,-4.3789 z"
         sodipodi:nodetypes="cssc"
         inkscape:transform-center-y="-2.1271526"
         inkscape:transform-center-x="-0.12599757"
         inkscape:connector-curvature="0" />
      <path
         id="path3077"
         sodipodi:nodetypes="ccssc"
         style="fill:none;stroke:#000000;stroke-width:3"
         d="m 103.21,-244.29 c -0.30734,2.4398 -1.9497,3.0284 -3.871,5.6406 -12.008,16.326 -24.001,64.093 -19.2,63.189 7.3852,-1.3909 10.211,-49.44 19.285,-63.155 1.1449,-1.7304 3.0778,-4.3357 3.7857,-5.6744 z"
         inkscape:connector-curvature="0" />
      <g
         id="g3810"
         inkscape:transform-center-x="-19.157255"
         inkscape:transform-center-y="-17.693152"
         transform="matrix(0.67503,0.73779,-0.82322,0.58165,131.29,-321.19)">
        <path
           id="path3075"
           sodipodi:rx="12.857142"
           sodipodi:ry="25"
           style="fill:none;stroke:#000000;stroke-width:2.35339999;stroke-linecap:round"
           sodipodi:type="arc"
           d="m 444.0348,362.03361 a 12.857142,25 0 0 1 18.14636,0.97228 12.857142,25 0 0 1 -0.44121,35.28756 12.857142,25 0 0 1 -18.14922,-0.7435 12.857142,25 0 0 1 0.32354,-35.29239"
           sodipodi:open="true"
           transform="matrix(1.0693,-0.18627,0.15316,0.9894,-497.38,-244.48)"
           sodipodi:cy="380.21933"
           sodipodi:cx="452.85715"
           sodipodi:end="3.9431937"
           sodipodi:start="3.9561603" />
        <path
           id="path4833"
           sodipodi:rx="3.5714285"
           sodipodi:ry="4.6428571"
           style="fill:none;stroke:#000000;stroke-width:2.07500005;stroke-linecap:round"
           sodipodi:type="arc"
           d="m 293.26364,368.62769 a 3.5714285,4.6428571 0 0 1 5.04066,0.18056 3.5714285,4.6428571 0 0 1 -0.12256,6.55341 3.5714285,4.6428571 0 0 1 -5.04145,-0.13808 3.5714285,4.6428571 0 0 1 0.0899,-6.5543"
           sodipodi:open="true"
           transform="matrix(0.96157,-0.27458,0.27458,0.96157,-345.5,-234.45)"
           sodipodi:cy="372.00504"
           sodipodi:cx="295.71429"
           sodipodi:end="3.9431937"
           sodipodi:start="3.9561603" />
        <path
           id="path4835"
           sodipodi:rx="3.5714285"
           sodipodi:ry="4.6428571"
           style="fill:none;stroke:#000000;stroke-width:2.07500005;stroke-linecap:round"
           sodipodi:type="arc"
           d="m 293.26364,368.62769 a 3.5714285,4.6428571 0 0 1 5.04066,0.18056 3.5714285,4.6428571 0 0 1 -0.12256,6.55341 3.5714285,4.6428571 0 0 1 -5.04145,-0.13808 3.5714285,4.6428571 0 0 1 0.0899,-6.5543"
           sodipodi:open="true"
           transform="matrix(0.96157,-0.27458,0.27458,0.96157,-334.3,-237.64)"
           sodipodi:cy="372.00504"
           sodipodi:cx="295.71429"
           sodipodi:end="3.9431937"
           sodipodi:start="3.9561603" />
        <path
           id="path4837"
           sodipodi:nodetypes="cc"
           style="fill:none;stroke:#000000;stroke-width:1.25"
           d="M 53.876,62.506 C 52.025,56.459 43.458,61.886 41.362,64.207"
           inkscape:connector-curvature="0" />
      </g>
      <path
         id="path3841-2-5-8"
         sodipodi:nodetypes="cc"
         style="fill:none;stroke:#000000;stroke-width:1px"
         d="m 133.38,-243.84 c 3.4236,2.95 -0.15858,2.8367 0,0 z"
         inkscape:connector-curvature="0" />
    </g>
  </g>
  <metadata
     id="metadata31">
    <rdf:RDF>
      <cc:Work>
        <dc:format>image/svg+xml</dc:format>
        <dc:type
           rdf:resource="http://purl.org/dc/dcmitype/StillImage" />
        <cc:license
           rdf:resource="http://creativecommons.org/licenses/publicdomain/" />
        <dc:publisher>
          <cc:Agent
             rdf:about="http://openclipart.org/">
            <dc:title>Openclipart</dc:title>
          </cc:Agent>
        </dc:publisher>
        <dc:title>Al very sad</dc:title>
        <dc:date>2011-04-15T19:21:22</dc:date>
        <dc:description>a remix from paro</dc:description>
        <dc:source>https://openclipart.org/detail/132637/al-very-sad-by-cybergedeon</dc:source>
        <dc:creator>
          <cc:Agent>
            <dc:title>dominiquechappard</dc:title>
          </cc:Agent>
        </dc:creator>
        <dc:subject>
          <rdf:Bag>
            <rdf:li>cry</rdf:li>
            <rdf:li>man</rdf:li>
            <rdf:li>sad</rdf:li>
            <rdf:li>stickman</rdf:li>
            <rdf:li>styckyman</rdf:li>
          </rdf:Bag>
        </dc:subject>
      </cc:Work>
      <cc:License
         rdf:about="http://creativecommons.org/licenses/publicdomain/">
        <cc:permits
           rdf:resource="http://creativecommons.org/ns#Reproduction" />
        <cc:permits
           rdf:resource="http://creativecommons.org/ns#Distribution" />
        <cc:permits
           rdf:resource="http://creativecommons.org/ns#DerivativeWorks" />
      </cc:License>
    </rdf:RDF>
  </metadata>
</svg>
