<?xml version="1.0" encoding="UTF-8" standalone="no"?>
<!-- Created with Inkscape (http://www.inkscape.org/) -->

<svg
   xmlns:dc="http://purl.org/dc/elements/1.1/"
   xmlns:cc="http://creativecommons.org/ns#"
   xmlns:rdf="http://www.w3.org/1999/02/22-rdf-syntax-ns#"
   xmlns:svg="http://www.w3.org/2000/svg"
   xmlns="http://www.w3.org/2000/svg"
   xmlns:sodipodi="http://sodipodi.sourceforge.net/DTD/sodipodi-0.dtd"
   xmlns:inkscape="http://www.inkscape.org/namespaces/inkscape"
   id="svg2"
   sodipodi:docname="cybergedeon-Al-music-hall-.svg"
   viewBox="0 0 144.5 240.93"
   version="1.1"
   inkscape:version="0.92.1 r15371"
   width="154.13333"
   height="256.992">
  <defs
     id="defs4">
    <linearGradient
       id="linearGradient3144"
       y2="539.27002"
       gradientUnits="userSpaceOnUse"
       x2="247.31"
       gradientTransform="matrix(1.8854,0,0,1,38.598,128.35)"
       y1="498.13"
       x1="200.38"
       inkscape:collect="always">
      <stop
         id="stop6741"
         style="stop-color:rgb(0, 0, 0)"
         offset="0" />
      <stop
         id="stop6743"
         style="stop-color:rgb(0, 0, 0);stop-opacity:0"
         offset="1" />
    </linearGradient>
  </defs>
  <sodipodi:namedview
     id="base"
     bordercolor="#666666"
     inkscape:pageshadow="2"
     inkscape:window-y="-2"
     pagecolor="#ffffff"
     inkscape:window-height="1027"
     inkscape:window-maximized="0"
     inkscape:zoom="1.5467961"
     inkscape:window-x="2"
     showgrid="false"
     borderopacity="1.0"
     inkscape:current-layer="layer3"
     inkscape:cx="49.699108"
     inkscape:cy="68.938335"
     inkscape:window-width="1678"
     inkscape:pageopacity="0.0"
     inkscape:document-units="px" />
  <g
     id="layer3"
     inkscape:label="2"
     inkscape:groupmode="layer"
     transform="translate(4.2815,23.434)">
    <g
       id="g4272">
      <g
         id="g4220"
         transform="translate(-385.06,-436.3)">
        <path
           id="path6737"
           style="fill:url(#linearGradient3144)"
           d="m 448.63,637.35 c 34.771,-0.95673 -37.165,3.9073 -41.55,4.2426 -22.234,0.97493 47.057,-2.0201 71.125,-3.0373 50.583,-1.4611 -67.882,5.02 -74.597,5.5816 2.0463,-3.1136 92.723,-8.9851 68.224,-3.784 -38.691,7.1103 -31.661,4.9317 5.6051,3.4211 61.262,-1.8947 -13.323,3.6567 -34.373,5.4335 -11.636,-2.0254 107.31,-9.5542 52.493,-3.2312 -3.3875,1.6942 -21.244,2.6047 4.6048,0.23081 3.4228,-0.31433 -6.7596,0.74906 -10.05,1.2132 -11.11,1.567 -11.675,1.9892 0.057,2.6185 11.686,0.46827 23.404,0.8133 35.109,1.2157 l -16.875,2.5372 c -11.833,-0.45518 -23.696,-0.77239 -35.541,-1.1824 -33.106,-1.6894 34.371,-10.975 42.144,-8.1286 -15.213,1.809 -99.786,7.0647 -54.703,1.9021 52.644,-3.6075 36.734,-0.85571 0.71134,0.0141 -36.399,1.6484 -50.514,2.2494 -7.9162,-5.089 17.662,-3.0746 -86.064,6.7803 -31.882,-0.058 22.491,-1.4871 118.79,-6.8722 40.849,-0.1219 -27.751,1.0589 -126.95,5.8169 -38.777,-2.1852 40.545,-3.034 51.817,-1.8277 6.9156,1.0611 l 18.428,-2.6537 z"
           inkscape:connector-curvature="0" />
        <path
           id="path4876"
           style="fill:none;stroke:#000000;stroke-width:1.89999998"
           d="m 436.67,581.99 c 0.31231,-25.284 -0.969,-35.312 -0.969,-35.312 4.3403,-19.495 0.5715,-33.613 0.5715,-33.613"
           sodipodi:nodetypes="ccc"
           inkscape:transform-center-y="-3.267335"
           inkscape:transform-center-x="31.396716"
           inkscape:connector-curvature="0" />
        <path
           id="path4878"
           sodipodi:nodetypes="cssc"
           style="fill:none;stroke:#000000;stroke-width:1.89999998"
           d="m 465.26,569.44 c 2.5165,9.6158 -3.1533,24.575 -5.5619,32.366 -9.6188,31.116 -13.338,27.84 -13.201,29.141 0.16684,1.5884 0.14039,3.6743 0.14039,3.6743"
           inkscape:connector-curvature="0" />
        <path
           id="path4880"
           sodipodi:nodetypes="ccsc"
           style="fill:none;stroke:#000000;stroke-width:1.89999998"
           d="m 468.64,569.79 c 4.6886,4.9871 12.657,15.503 18.671,27.299 3.6384,14.794 6.1745,29.165 7.86,34.043 0.52158,1.5096 11.848,0.81572 11.848,0.81572"
           inkscape:connector-curvature="0" />
        <path
           id="path4882"
           sodipodi:nodetypes="cssc"
           style="fill:#000000;fill-rule:evenodd;stroke:#000000;stroke-width:1px"
           d="m 447.97,630.18 c -2.444,2.4847 -8.1626,2.4836 -5.5558,4.0406 5.3668,3.2055 4.9739,6.7943 8.5863,3.0305 3.9322,-4.0971 13.132,-0.50508 -3.0305,-7.0711 z"
           inkscape:connector-curvature="0" />
        <path
           id="path5757"
           sodipodi:nodetypes="cssc"
           style="fill:#000000;fill-rule:evenodd;stroke:#000000;stroke-width:1px"
           d="m 498.32,628.57 c -2.444,3.2016 -5.6626,2.7163 -3.0558,3.5085 5.3668,1.6311 12.831,2.3158 16.443,-2.5077 3.9322,-5.2506 2.7748,0.82375 -13.388,-1.0008 z"
           inkscape:connector-curvature="0" />
        <path
           id="path5759"
           style="fill:#000000;fill-rule:evenodd;stroke:#000000;stroke-width:1px"
           d="m 418.01,439.7 c 3.0607,3.9427 7.3803,4.4638 4.8662,4.5846 -5.1759,0.24878 -6.8912,7.3894 -11.431,1.4679 -0.54628,-0.71249 2.3848,-0.94697 1.7168,-1.6557 -5.3746,-5.7028 -12.97,-10.636 4.8484,-4.3968 z"
           sodipodi:nodetypes="csssc"
           inkscape:transform-center-y="-1.8458945"
           inkscape:transform-center-x="-7.2163301"
           inkscape:connector-curvature="0" />
        <path
           id="path5761"
           sodipodi:nodetypes="cssc"
           style="fill:#000000;fill-rule:evenodd;stroke:#000000;stroke-width:1px"
           d="m 438.49,591.56 c -0.84277,2.5969 -0.28308,8.7219 -1.383,5.7978 -2.4074,-6.3997 -7.8124,-7.3769 -3.6801,-10.685 4.4982,-3.6015 4.0334,-14.749 5.0631,4.8877 z"
           inkscape:connector-curvature="0" />
        <path
           id="path4874"
           style="fill:none;stroke:#000000;stroke-width:1.89999998"
           d="m 420.64,443.25 c 16.7,10.097 26.28,30.478 25.944,34.811 -1.269,16.37 -2.9384,21.295 -9.2507,35.438"
           sodipodi:nodetypes="csc"
           inkscape:transform-center-y="-33.650578"
           inkscape:transform-center-x="10.774565"
           inkscape:connector-curvature="0" />
        <path
           id="path3077"
           sodipodi:nodetypes="ccssc"
           style="fill:none;stroke:#000000;stroke-width:3"
           d="m 433.31,507.36 c 0.75468,2.3404 1.6073,3.0258 3.98,5.2362 14.829,13.815 35.476,58.527 30.591,58.529 -7.5151,0.004 -19.207,-46.687 -30.668,-58.48 -1.4461,-1.4879 -3.2513,-3.4687 -3.9024,-5.2852 z"
           inkscape:connector-curvature="0" />
        <path
           id="path3075"
           sodipodi:rx="12.857142"
           sodipodi:ry="25"
           style="fill:none;stroke:#000000;stroke-width:2.35339999;stroke-linecap:round"
           sodipodi:type="arc"
           d="m 444.0348,362.03361 a 12.857142,25 0 0 1 18.14636,0.97228 12.857142,25 0 0 1 -0.44121,35.28756 12.857142,25 0 0 1 -18.14922,-0.7435 12.857142,25 0 0 1 0.32354,-35.29239"
           sodipodi:open="true"
           transform="matrix(0.39916,-1.0093,0.9239,0.38571,-122.09,810.21)"
           sodipodi:cy="380.21933"
           sodipodi:cx="452.85715"
           sodipodi:end="3.9431937"
           sodipodi:start="3.9561603" />
        <path
           id="path4833"
           sodipodi:rx="3.5714285"
           sodipodi:ry="4.6428571"
           style="fill:none;stroke:#000000;stroke-width:2.22909999;stroke-linecap:round"
           sodipodi:type="arc"
           d="m 293.26364,368.62769 a 3.5714285,4.6428571 0 0 1 5.04066,0.18056 3.5714285,4.6428571 0 0 1 -0.12256,6.55341 3.5714285,4.6428571 0 0 1 -5.04145,-0.13808 3.5714285,4.6428571 0 0 1 0.0899,-6.5543"
           sodipodi:open="true"
           transform="matrix(0.2132,-0.91486,0.88061,0.28549,13.441,667.64)"
           sodipodi:cy="372.00504"
           sodipodi:cx="295.71429"
           sodipodi:end="3.9431937"
           sodipodi:start="3.9561603" />
        <path
           id="path4835"
           sodipodi:rx="3.5714285"
           sodipodi:ry="4.6428571"
           style="fill:none;stroke:#000000;stroke-width:2.07500005;stroke-linecap:round"
           sodipodi:type="arc"
           d="m 293.26364,368.62769 a 3.5714285,4.6428571 0 0 1 5.04066,0.18056 3.5714285,4.6428571 0 0 1 -0.12256,6.55341 3.5714285,4.6428571 0 0 1 -5.04145,-0.13808 3.5714285,4.6428571 0 0 1 0.0899,-6.5543"
           sodipodi:open="true"
           transform="matrix(0.26762,-0.96352,0.96352,0.26762,-31.436,676.81)"
           sodipodi:cy="372.00504"
           sodipodi:cx="295.71429"
           sodipodi:end="3.9431937"
           sodipodi:start="3.9561603" />
        <path
           id="path4837"
           sodipodi:nodetypes="ccc"
           style="fill:none;stroke:#000000;stroke-width:2;stroke-linecap:round;stroke-linejoin:round"
           d="m 423.66,497.74 c 4.1909,4.0016 2.5833,10.179 -2.6402,12.427 -2.4467,0.50592 -0.19057,-11.855 2.6402,-12.427 z"
           inkscape:connector-curvature="0" />
      </g>
      <path
         id="path2816"
         sodipodi:nodetypes="csssccz"
         style="fill:#000000;stroke:#000000;stroke-width:2"
         d="m 9.4367,-18.463 c 0.18576,-2.0227 -0.87679,-2.7283 0.3677,-3.0468 8.5413,-2.1863 13.286,-0.60256 20.24,5.9404 0.64601,0.60787 1.2276,0.93947 -0.5723,2.7489 -4.098,4.1179 -4.349,13.055 -4.023,17.889 -7.158,-0.9558 -19.831,-3.523 -24.298,-7.3868 5.6987,-3.4238 8.099,-14.123 8.2847,-16.145 z"
         inkscape:connector-curvature="0" />
      <path
         id="path2818"
         style="fill:#000000;stroke-opacity:0"
         d="m 23.448,-0.84611 c -8.829,-3.9179 -20.779,-5.9011 -24.841,-4.4008 -4.56,1.6845 -2.2171,3.9778 3.8635,6.9017 6.0807,2.924 12.998,4.7797 20.224,5.7589 7.226,0.9792 10.286,-3.1676 3.846,-6.7324 -0.97,-0.53664 -2.008,-1.0463 -3.092,-1.5274 z m -2.106,1.5139 c 0.938,0.40462 1.82,0.83362 2.621,1.287 4.976,2.8128 3.317,4.2693 -2.226,3.2697 -5.544,-0.9996 -10.943,-2.4402 -15.817,-4.3814 -4.8735,-1.9412 -7.2371,-3.0698 -3.5961,-3.8739 3.1859,-0.7036 12.454,0.8659 19.018,3.6986 z"
         inkscape:connector-curvature="0" />
      <path
         id="path4209"
         sodipodi:nodetypes="czzc"
         style="fill:none;stroke:#ffffff;stroke-width:1px;stroke-linecap:round;stroke-linejoin:round"
         d="m 3.5444,-6.5005 c -0.7406,0.7484 -1.154,1.1699 -1.7539,2.0243 -0.6,0.8545 -0.536,1.2795 1.088,2.5174 1.624,1.2379 10.102,5.7892 20.436,5.7603"
         inkscape:connector-curvature="0" />
      <path
         id="path4212"
         sodipodi:nodetypes="ccc"
         style="fill:none;stroke:#000000;stroke-width:3;stroke-linecap:round;stroke-linejoin:round"
         d="m 7.3326,196.85 c 0.91658,-1.8332 52.703,-52.245 52.703,-52.245 11.201,-11.089 11.618,3.8301 6.7631,5.9538"
         inkscape:connector-curvature="0" />
      <path
         id="path4216"
         sodipodi:nodetypes="cc"
         style="fill:none;stroke:#ffffff;stroke-width:1px"
         d="m 54.038,147.87 c 0.0022,1.968 -0.06288,3.3727 0.25256,5.3017"
         inkscape:connector-curvature="0" />
      <path
         id="path4218"
         sodipodi:nodetypes="cc"
         style="fill:none;stroke:#ffffff;stroke-width:1px"
         d="m 46.867,155.37 2.0659,2.1874"
         inkscape:connector-curvature="0" />
    </g>
  </g>
  <metadata
     id="metadata30">
    <rdf:RDF>
      <cc:Work>
        <dc:format>image/svg+xml</dc:format>
        <dc:type
           rdf:resource="http://purl.org/dc/dcmitype/StillImage" />
        <cc:license
           rdf:resource="http://creativecommons.org/licenses/publicdomain/" />
        <dc:publisher>
          <cc:Agent
             rdf:about="http://openclipart.org/">
            <dc:title>Openclipart</dc:title>
          </cc:Agent>
        </dc:publisher>
        <dc:title>Al playing music hall</dc:title>
        <dc:date>2011-04-20T09:00:41</dc:date>
        <dc:description>This is Al, originaly designed by Paro</dc:description>
        <dc:source>https://openclipart.org/detail/133285/al-playing-music-hall-by-cybergedeon</dc:source>
        <dc:creator>
          <cc:Agent>
            <dc:title>dominiquechappard</dc:title>
          </cc:Agent>
        </dc:creator>
        <dc:subject>
          <rdf:Bag>
            <rdf:li>cabaret</rdf:li>
            <rdf:li>danser</rdf:li>
            <rdf:li>man</rdf:li>
            <rdf:li>music hall</rdf:li>
            <rdf:li>music-hall</rdf:li>
            <rdf:li>stickman</rdf:li>
          </rdf:Bag>
        </dc:subject>
      </cc:Work>
      <cc:License
         rdf:about="http://creativecommons.org/licenses/publicdomain/">
        <cc:permits
           rdf:resource="http://creativecommons.org/ns#Reproduction" />
        <cc:permits
           rdf:resource="http://creativecommons.org/ns#Distribution" />
        <cc:permits
           rdf:resource="http://creativecommons.org/ns#DerivativeWorks" />
      </cc:License>
    </rdf:RDF>
  </metadata>
</svg>
