<?xml version="1.0" encoding="UTF-8" standalone="no"?>
<!-- Created with Inkscape (http://www.inkscape.org/) -->

<svg
   xmlns:dc="http://purl.org/dc/elements/1.1/"
   xmlns:cc="http://creativecommons.org/ns#"
   xmlns:rdf="http://www.w3.org/1999/02/22-rdf-syntax-ns#"
   xmlns:svg="http://www.w3.org/2000/svg"
   xmlns="http://www.w3.org/2000/svg"
   xmlns:sodipodi="http://sodipodi.sourceforge.net/DTD/sodipodi-0.dtd"
   xmlns:inkscape="http://www.inkscape.org/namespaces/inkscape"
   id="svg1316"
   sodipodi:docname="cybergedeon-cartoon-melody.svg"
   viewBox="0 0 311.94 187.09"
   sodipodi:version="0.32"
   version="1.0"
   inkscape:output_extension="org.inkscape.output.svg.inkscape"
   y="0"
   x="0"
   inkscape:version="0.92.1 r15371"
   width="332.73599"
   height="199.56267">
  <defs
     id="defs12" />
  <sodipodi:namedview
     id="base"
     bordercolor="#666666"
     inkscape:pageshadow="2"
     inkscape:window-width="1680"
     pagecolor="#ffffff"
     inkscape:window-maximized="0"
     inkscape:zoom="0.64987578"
     inkscape:window-x="0"
     showgrid="false"
     borderopacity="1.0"
     inkscape:current-layer="svg1316"
     inkscape:cx="81.714976"
     inkscape:cy="-155.18553"
     inkscape:window-y="0"
     inkscape:window-height="1025"
     inkscape:pageopacity="0.0" />
  <g
     id="layer1"
     transform="matrix(0.13648,-0.094009,0.065093,0.11151,20.07,118.44)">
    <path
       id="path5065"
       sodipodi:nodetypes="ccsscccssccccccc"
       style="fill:#000000"
       d="m 374.44,235.15 c -28.01,122.41 -59.79,323.52 -95.43,421.8 -104.65,-72.46 -170.09,-41.87 -159.54,41.06 6.7707,53.218 107.92,95.879 173.7,-8.6655 39.841,-63.316 52.861,-191.32 75.437,-296.09 62.46,37.494 122.31,101.13 202.86,111.59 -16.838,75.898 -47.082,194.01 -65.21,272.82 -104.65,-72.46 -192.89,-41.986 -182.34,40.945 6.7707,53.218 177.12,90.859 205.55,-23.531 l 103.19,-415.31 c -65.16,35.4 -188.96,-100.04 -258.22,-144.62 z m 10.854,74.896 c 65.248,37.815 131,118.89 206.47,122.72 -2.5111,11.129 -2.0944,26.125 -4.5591,37.149 -77.915,-10.686 -144.21,-80.519 -211.05,-117.12 2.1323,-10.115 7.3372,-33.949 9.1345,-42.74 z"
       inkscape:connector-curvature="0" />
  </g>
  <path
     id="path5065-6"
     sodipodi:nodetypes="ccssscccsscc"
     style="fill:#000000"
     d="m 9.876,117.83 c 3.2731,15.381 9.2106,34.641 10.888,49.374 -18.389,-1.0377 -25.932,8.6771 -17.03,14.174 4.7433,2.929 17.72,4.1608 22.187,-9.5309 0.3711,-1.1375 0.40359,-4.1927 0.09805,-5.7636 -2.712,-13.944 -9.8196,-33.415 -12.463,-44.908 10.642,1.8616 25.904,6.5372 37.433,2.3254 2.1154,9.5157 6.0945,35.614 8.2038,45.538 -18.389,-1.0377 -28.924,8.1774 -21.116,15.179 5.3609,4.8077 26.345,-3.6431 24.531,-14.049 l -9.3358,-53.558 c -6.7846,8.2572 -31.421,1.5321 -43.395,1.2181 z"
     inkscape:connector-curvature="0" />
  <path
     id="path5065-6-4"
     sodipodi:nodetypes="ccsssccccc"
     style="fill:#000000"
     d="m 180,76.995 c 4.5579,19.497 12.826,43.913 15.161,62.589 -25.608,-1.3154 -36.111,10.999 -23.715,17.968 6.6054,3.713 24.676,5.2744 30.896,-12.082 0.51679,-1.442 0.56202,-5.3149 0.13655,-7.3063 -3.7766,-17.676 -14.218,-44.534 -17.899,-59.103 5.7628,5.2231 9.5292,10.577 11.589,10.238 -0.0333,-2.1135 0.70723,-4.169 0.77173,-5.7904 -6.5367,-3.7211 -4.8977,-1.435 -12.864,-8.5487 -1.1084,-0.98971 -0.46277,1.5319 -4.0772,2.0362 z"
     inkscape:connector-curvature="0" />
  <path
     id="path5065-6-4-9"
     sodipodi:nodetypes="ccsssccccc"
     style="fill:#000000"
     d="m 238.4,35.069 c 4.5579,23.722 12.826,53.428 15.161,76.152 -25.608,-1.6005 -36.111,13.383 -23.715,21.861 6.6054,4.5176 24.676,6.4174 30.896,-14.7 0.51679,-1.7545 0.56202,-6.4666 0.13655,-8.8895 -3.7766,-21.507 -14.218,-54.185 -17.899,-71.911 5.7628,6.3549 9.5292,12.869 11.589,12.456 -0.0333,-2.5714 0.70723,-5.0724 0.77173,-7.0452 -6.5367,-4.5274 -4.8977,-1.7459 -12.864,-10.401 -1.1084,-1.2042 -0.46277,1.8638 -4.0772,2.4775 z"
     inkscape:connector-curvature="0" />
  <path
     id="path5065-6-4-0"
     sodipodi:nodetypes="ccsssccccc"
     style="fill:#000000"
     d="m 289.17,3.1638 c 4.5579,27.243 12.826,61.358 15.161,87.454 -25.608,-1.838 -36.111,15.369 -23.715,25.106 6.6054,5.188 24.676,7.3698 30.896,-16.882 0.51679,-2.0149 0.56202,-7.4263 0.13655,-10.209 -3.7766,-24.698 -14.218,-62.227 -17.899,-82.584 5.7628,7.298 9.5292,14.779 11.589,14.305 -0.0333,-2.9531 0.70723,-5.8252 0.77173,-8.0908 -6.5367,-5.1994 -4.8977,-2.005 -12.864,-11.945 -1.1084,-1.3829 -0.46277,2.1405 -4.0772,2.8452 z"
     inkscape:connector-curvature="0" />
  <metadata
     id="metadata9">
    <rdf:RDF>
      <cc:Work>
        <dc:format>image/svg+xml</dc:format>
        <dc:type
           rdf:resource="http://purl.org/dc/dcmitype/StillImage" />
        <cc:license
           rdf:resource="http://creativecommons.org/licenses/publicdomain/" />
        <dc:publisher>
          <cc:Agent
             rdf:about="http://openclipart.org/">
            <dc:title>Openclipart</dc:title>
          </cc:Agent>
        </dc:publisher>
        <dc:title>Cartoon melody</dc:title>
        <dc:date>2011-04-21T10:10:50</dc:date>
        <dc:description />
        <dc:source>https://openclipart.org/detail/133435/cartoon-melody-by-cybergedeon</dc:source>
        <dc:creator>
          <cc:Agent>
            <dc:title>dominiquechappard</dc:title>
          </cc:Agent>
        </dc:creator>
        <dc:subject>
          <rdf:Bag>
            <rdf:li>cartoon</rdf:li>
            <rdf:li>melody</rdf:li>
            <rdf:li>music</rdf:li>
            <rdf:li>musical note</rdf:li>
            <rdf:li>note</rdf:li>
            <rdf:li>onomatopoeia</rdf:li>
            <rdf:li>sing</rdf:li>
            <rdf:li>sound</rdf:li>
          </rdf:Bag>
        </dc:subject>
      </cc:Work>
      <cc:License
         rdf:about="http://creativecommons.org/licenses/publicdomain/">
        <cc:permits
           rdf:resource="http://creativecommons.org/ns#Reproduction" />
        <cc:permits
           rdf:resource="http://creativecommons.org/ns#Distribution" />
        <cc:permits
           rdf:resource="http://creativecommons.org/ns#DerivativeWorks" />
      </cc:License>
    </rdf:RDF>
  </metadata>
</svg>
