<?xml version="1.0" encoding="UTF-8" standalone="no"?>
<!-- Created with Inkscape (http://www.inkscape.org/) -->

<svg
   xmlns:dc="http://purl.org/dc/elements/1.1/"
   xmlns:cc="http://creativecommons.org/ns#"
   xmlns:rdf="http://www.w3.org/1999/02/22-rdf-syntax-ns#"
   xmlns:svg="http://www.w3.org/2000/svg"
   xmlns="http://www.w3.org/2000/svg"
   xmlns:sodipodi="http://sodipodi.sourceforge.net/DTD/sodipodi-0.dtd"
   xmlns:inkscape="http://www.inkscape.org/namespaces/inkscape"
   id="svg2"
   sodipodi:docname="cybergedeon-AL-singing-melody.svg"
   inkscape:export-filename="C:\Documents and Settings\Compaq_Owner\Desktop\PEC sticks-standing1mm.png"
   viewBox="0 0 106.57 198.11"
   sodipodi:version="0.32"
   inkscape:export-xdpi="90"
   version="1.0"
   inkscape:export-ydpi="90"
   inkscape:version="0.92.1 r15371"
   width="113.67467"
   height="211.31734">
  <defs
     id="defs4">
    <linearGradient
       id="linearGradient4219"
       y2="539.27002"
       gradientUnits="userSpaceOnUse"
       x2="247.31"
       gradientTransform="matrix(1.21,0,0,1,169.55,-481.7)"
       y1="498.13"
       x1="200.38"
       inkscape:collect="always">
      <stop
         id="stop6741"
         style="stop-color:rgb(0, 0, 0)"
         offset="0" />
      <stop
         id="stop6743"
         style="stop-color:rgb(0, 0, 0);stop-opacity:0"
         offset="1" />
    </linearGradient>
  </defs>
  <sodipodi:namedview
     id="base"
     bordercolor="#666666"
     inkscape:pageshadow="2"
     inkscape:guide-bbox="true"
     pagecolor="#ffffff"
     inkscape:window-height="947"
     inkscape:window-maximized="0"
     inkscape:zoom="2.9331837"
     inkscape:window-x="0"
     showgrid="false"
     borderopacity="1.0"
     inkscape:current-layer="layer3"
     inkscape:cx="113.65431"
     inkscape:cy="163.54772"
     showguides="true"
     inkscape:window-y="15"
     inkscape:window-width="1197"
     inkscape:pageopacity="0.0"
     inkscape:document-units="px" />
  <g
     id="layer3"
     inkscape:label="layer"
     inkscape:groupmode="layer"
     transform="translate(-385.54,154.38)">
    <g
       id="g4198">
      <path
         id="path6737"
         style="fill:url(#linearGradient4219)"
         d="m 432.7,27.294 c 22.315,-0.95673 -23.852,3.9073 -26.666,4.2426 -14.269,0.97493 30.2,-2.0201 45.646,-3.0373 32.463,-1.4611 -43.564,5.02 -47.874,5.5816 1.3133,-3.1136 59.507,-8.9851 43.784,-3.784 -24.831,7.1103 -20.319,4.9317 3.5972,3.4211 39.316,-1.8947 -8.5501,3.6567 -22.06,5.4335 -7.4674,-2.0254 68.866,-9.5542 33.688,-3.2312 -2.174,1.6942 -13.634,2.6047 2.9552,0.23081 2.1966,-0.31433 -4.3381,0.74906 -6.45,1.2132 -7.1304,1.567 -7.4927,1.9892 0.0365,2.6185 7.5,0.46827 15.02,0.8133 22.532,1.2157 l -10.83,2.5372 c -7.5938,-0.45518 -15.208,-0.77239 -22.809,-1.1824 -21.247,-1.6894 22.058,-10.975 27.047,-8.1286 -9.7633,1.809 -64.04,7.0647 -35.107,1.9021 33.785,-3.6075 23.575,-0.85571 0.45653,0.0141 -23.36,1.6484 -32.419,2.2494 -5.0804,-5.089 11.335,-3.0746 -55.234,6.7803 -20.461,-0.058 14.434,-1.4871 76.237,-6.8722 26.216,-0.1219 -17.81,1.0589 -81.47,5.8169 -24.886,-2.1852 26.021,-3.034 33.255,-1.8277 4.4382,1.0611 l 11.827,-2.6537 z"
         inkscape:connector-curvature="0" />
      <path
         id="path4876"
         style="fill:none;stroke:#000000;stroke-width:1.89999998"
         d="m 427.67,-95.073 c -15.432,14.603 -31.337,19.875 -34.316,22.428 1.1804,0.28342 16.758,-29.664 19.829,-30.028"
         inkscape:transform-center-x="27.543977"
         inkscape:transform-center-y="-3.2673304"
         sodipodi:nodetypes="ccc"
         inkscape:connector-curvature="0" />
      <path
         id="path4878"
         sodipodi:nodetypes="cssc"
         style="fill:none;stroke:#000000;stroke-width:1.89999998"
         d="m 424.97,-35.355 c -2.2404,11.296 -6.158,21.21 -6.5701,28.763 -1.9697,36.094 -1.8743,31.796 -1.4172,33.069 0.5398,1.5032 -2.0582,2.8537 -2.0582,2.8537"
         inkscape:connector-curvature="0" />
      <path
         id="path4880"
         sodipodi:nodetypes="csc"
         style="fill:none;stroke:#000000;stroke-width:1.89999998"
         d="m 428.65,-36.382 c 5.5678,29.068 1.1816,56.125 0.17978,62.03 -0.26715,1.5747 11.619,1.7323 11.619,1.7323"
         inkscape:connector-curvature="0" />
      <path
         id="path4882"
         sodipodi:nodetypes="cssc"
         style="fill:#000000;fill-rule:evenodd;stroke:#000000;stroke-width:1px"
         d="m 416.82,22.891 c -2.444,2.4847 -17.079,4.8144 -14.249,5.9157 2.9803,1.1599 -2.8674,2.7032 8.0749,1.6668 5.6534,-0.53547 6.3135,1.5405 6.1746,-7.5825 z"
         inkscape:connector-curvature="0" />
      <path
         id="path5757"
         sodipodi:nodetypes="cssc"
         style="fill:#000000;fill-rule:evenodd;stroke:#000000;stroke-width:1px"
         d="m 428.79,23.729 c -2.444,2.4847 -5.6626,1.0551 -3.0558,2.612 5.3668,3.2055 12.831,6.08 16.443,2.3162 3.9322,-4.0971 2.7748,1.6378 -13.388,-4.9282 z"
         inkscape:connector-curvature="0" />
      <path
         id="path5759"
         style="fill:#000000;fill-rule:evenodd;stroke:#000000;stroke-width:1px"
         d="m 428.31,-94.672 c -4.2734,2.579 -5.0553,5.606 -4.8815,3.0951 0.35782,-5.1695 -3.8267,-4.2242 0.4212,-7.6806 6.3003,-5.1264 13.768,-14.49 4.4603,4.5856 z"
         inkscape:transform-center-x="-1.3001931"
         inkscape:transform-center-y="7.6102603"
         sodipodi:nodetypes="cssc"
         inkscape:connector-curvature="0" />
      <path
         id="path5761"
         sodipodi:nodetypes="cssc"
         style="fill:#000000;fill-rule:evenodd;stroke:#000000;stroke-width:1px"
         d="m 481.81,-82.982 c -2.7185,0.25344 -8.2425,2.2291 -5.9921,0.06201 4.9251,-4.7429 4.2366,-8.0079 9.1991,-6.165 3.7876,1.4066 14.295,-2.7363 -3.207,6.103 z"
         inkscape:connector-curvature="0" />
      <path
         id="path4874"
         style="fill:none;stroke:#000000;stroke-width:1.89999998"
         d="m 478.04,-82.757 c -18.222,4.3701 -34.35,6.5417 -38.252,7.705 -12.771,-9.473 -13.617,-12.524 -23.379,-22.141"
         inkscape:transform-center-x="-33.479203"
         inkscape:transform-center-y="1.9227115"
         sodipodi:nodetypes="ccc"
         inkscape:connector-curvature="0" />
      <path
         id="path3077"
         sodipodi:nodetypes="ccssc"
         style="fill:none;stroke:#000000;stroke-width:3"
         d="m 412.63,-106.05 c 0.021,2.459 1.1108,4.089 2.7148,6.9072 10.025,17.614 16.372,66.453 11.708,64.995 -7.1729,-2.2417 -4.3819,-50.293 -11.797,-64.972 -0.93556,-1.852 -2.5474,-5.0028 -2.6261,-6.9308 z"
         inkscape:connector-curvature="0" />
      <path
         id="path3075"
         sodipodi:rx="12.857142"
         sodipodi:ry="25"
         style="fill:none;stroke:#000000;stroke-width:2.35339999;stroke-linecap:round"
         sodipodi:type="arc"
         d="m 444.0348,362.03361 a 12.857142,25 0 0 1 18.14636,0.97228 12.857142,25 0 0 1 -0.44121,35.28756 12.857142,25 0 0 1 -18.14922,-0.7435 12.857142,25 0 0 1 0.32354,-35.29239"
         sodipodi:open="true"
         transform="matrix(1,-0.42183,0.37162,0.92966,-191.54,-291.73)"
         sodipodi:cy="380.21933"
         sodipodi:cx="452.85715"
         sodipodi:end="3.9431937"
         sodipodi:start="3.9561603" />
      <path
         id="path4833"
         sodipodi:rx="3.5714285"
         sodipodi:ry="4.6428571"
         style="fill:none;stroke:#000000;stroke-width:2.07500005;stroke-linecap:round"
         sodipodi:type="arc"
         d="m 293.26364,368.62769 a 3.5714285,4.6428571 0 0 1 5.04066,0.18056 3.5714285,4.6428571 0 0 1 -0.12256,6.55341 3.5714285,4.6428571 0 0 1 -5.04145,-0.13808 3.5714285,4.6428571 0 0 1 0.0899,-6.5543"
         sodipodi:open="true"
         transform="rotate(-28.925383,-631.22871,-84.517918)"
         sodipodi:cy="372.00504"
         sodipodi:cx="295.71429"
         sodipodi:end="3.9431937"
         sodipodi:start="3.9561603" />
      <path
         id="path4835"
         sodipodi:rx="3.5714285"
         sodipodi:ry="4.6428571"
         style="fill:none;stroke:#000000;stroke-width:2.07500005;stroke-linecap:round"
         sodipodi:type="arc"
         d="m 293.26364,368.62769 a 3.5714285,4.6428571 0 0 1 5.04066,0.18056 3.5714285,4.6428571 0 0 1 -0.12256,6.55341 3.5714285,4.6428571 0 0 1 -5.04145,-0.13808 3.5714285,4.6428571 0 0 1 0.0899,-6.5543"
         sodipodi:open="true"
         transform="rotate(-28.925383,-639.44046,-103.66199)"
         sodipodi:cy="372.00504"
         sodipodi:cx="295.71429"
         sodipodi:end="3.9431937"
         sodipodi:start="3.9561603" />
      <path
         id="path4837"
         sodipodi:nodetypes="csssc"
         style="fill:none;stroke:#000000;stroke-width:2;stroke-linecap:round;stroke-linejoin:round"
         d="m 417.74,-124.84 c -0.60994,1.4571 1.7535,7.1918 -0.22717,9.1535 -2.7154,2.6894 -9.8303,1.0616 -10.019,-0.63172 -0.44025,-3.9403 6.7296,-8.1717 10.006,-7.9191 l 0.24102,-0.60268 z"
         inkscape:connector-curvature="0" />
      <g
         id="g4149"
         transform="matrix(0.9988,0.049038,-0.049038,0.9988,-103.2,-3.3394)">
        <path
           id="path3358"
           sodipodi:nodetypes="cccc"
           style="fill:#000000;stroke:#000000;stroke-width:2"
           d="m 522.36,-128.67 6.8304,14.402 c 0.53714,0.25814 1.406,0.8211 1.2309,-1.1847 l -5.3116,-15.007 -2.7498,1.7897 z"
           inkscape:connector-curvature="0" />
        <path
           id="path3360"
           sodipodi:rx="5.469183"
           sodipodi:ry="4.9883757"
           style="fill:#000000"
           sodipodi:type="arc"
           d="m 511.61244,384.72849 a 5.469183,4.9883757 0 0 1 7.71911,0.194 5.469183,4.9883757 0 0 1 -0.18768,7.04111 5.469183,4.9883757 0 0 1 -7.72033,-0.14836 5.469183,4.9883757 0 0 1 0.13763,-7.04206"
           sodipodi:open="true"
           transform="matrix(0.68803,-0.65909,0.73646,0.46866,-118,25.262)"
           sodipodi:cy="388.35718"
           sodipodi:cx="515.3653"
           sodipodi:end="3.9431937"
           sodipodi:start="3.9561603" />
      </g>
      <path
         id="path4153"
         sodipodi:nodetypes="cc"
         style="fill:none;stroke:#ffffff;stroke-width:1px;stroke-linecap:round;stroke-linejoin:round;stroke-opacity:0.94118"
         d="m 424.93,-101.42 c 3.3308,-0.35136 5.2837,-1.7207 4.9899,-3.9024"
         inkscape:connector-curvature="0" />
      <path
         id="path4153-8"
         sodipodi:nodetypes="cc"
         style="fill:none;stroke:#ffffff;stroke-width:0.89999998;stroke-linecap:round;stroke-linejoin:round;stroke-opacity:0.94118"
         d="m 428.97,-93.979 c 2.2108,-2.3409 1.8952,-4.0335 2.6997,-5.5899"
         inkscape:connector-curvature="0" />
    </g>
    <g
       id="layer1"
       transform="matrix(0.02461,-0.013836,0.011737,0.016411,432.98,-134.31)">
      <path
         id="path5065"
         sodipodi:nodetypes="ccsscccssccccccc"
         style="fill:#000000"
         d="m 374.44,235.15 c -28.01,122.41 -59.79,323.52 -95.43,421.8 -104.65,-72.46 -170.09,-41.87 -159.54,41.06 6.7707,53.218 107.92,95.879 173.7,-8.6655 39.841,-63.316 52.861,-191.32 75.437,-296.09 62.46,37.494 122.31,101.13 202.86,111.59 -16.838,75.898 -47.082,194.01 -65.21,272.82 -104.65,-72.46 -192.89,-41.986 -182.34,40.945 6.7707,53.218 177.12,90.859 205.55,-23.531 l 103.19,-415.31 c -65.16,35.4 -188.96,-100.04 -258.22,-144.62 z m 10.854,74.896 c 65.248,37.815 131,118.89 206.47,122.72 -2.5111,11.129 -2.0944,26.125 -4.5591,37.149 -77.915,-10.686 -144.21,-80.519 -211.05,-117.12 2.1323,-10.115 7.3372,-33.949 9.1345,-42.74 z"
         inkscape:connector-curvature="0" />
    </g>
    <path
       id="path5065-6"
       sodipodi:nodetypes="ccssscccsscc"
       style="fill:#000000"
       d="m 431.14,-134.4 c 0.59019,2.2636 1.6608,5.0982 1.9632,7.2666 -3.3158,-0.15267 -4.6759,1.277 -3.0707,2.086 0.8553,0.43108 3.1952,0.61235 4.0006,-1.4027 0.0669,-0.16735 0.0727,-0.61704 0.0177,-0.84824 -0.48902,-2.0522 -1.7706,-4.9178 -2.2472,-6.6092 1.919,0.27396 4.6708,0.96208 6.7496,0.34221 0.38144,1.4005 1.0989,5.2415 1.4793,6.702 -3.3158,-0.15267 -5.2154,1.2035 -3.8076,2.234 0.96664,0.70756 4.7504,-0.53617 4.4234,-2.0676 l -1.6834,-7.8823 c -1.2234,1.2152 -5.6656,0.22548 -7.8248,0.17927 z"
       inkscape:connector-curvature="0" />
    <path
       id="path5065-6-4"
       sodipodi:nodetypes="ccsssccccc"
       style="fill:#000000"
       d="m 461.81,-140.41 c 0.82185,2.8695 2.3128,6.4628 2.7338,9.2115 -4.6174,-0.19361 -6.5114,1.6188 -4.2762,2.6444 1.191,0.54644 4.4495,0.77626 5.5711,-1.7781 0.0933,-0.21223 0.10134,-0.78221 0.0246,-1.0753 -0.68097,-2.6014 -2.5638,-6.5542 -3.2274,-8.6984 1.0391,0.76868 1.7182,1.5566 2.0897,1.5067 -0.006,-0.31104 0.1275,-0.61356 0.13917,-0.8522 -1.1787,-0.54764 -0.88312,-0.21119 -2.3196,-1.2581 -0.19985,-0.14559 -0.0834,0.22547 -0.73518,0.29968 z"
       inkscape:connector-curvature="0" />
    <path
       id="path5065-6-4-9"
       sodipodi:nodetypes="ccsssccccc"
       style="fill:#000000"
       d="m 472.34,-146.58 c 0.82186,3.4913 2.3128,7.8632 2.7338,11.208 -4.6174,-0.23556 -6.5114,1.9696 -4.2762,3.2174 1.191,0.66485 4.4495,0.94446 5.571,-2.1634 0.0933,-0.25821 0.10134,-0.95172 0.0246,-1.3083 -0.68098,-3.1652 -2.5638,-7.9745 -3.2274,-10.583 1.0391,0.93526 1.7182,1.894 2.0897,1.8332 -0.006,-0.37845 0.12749,-0.74651 0.13917,-1.0369 -1.1786,-0.66632 -0.88312,-0.25696 -2.3196,-1.5308 -0.19984,-0.17722 -0.0834,0.27431 -0.73517,0.36461 z"
       inkscape:connector-curvature="0" />
    <path
       id="path5065-6-4-0"
       sodipodi:nodetypes="ccsssccccc"
       style="fill:#000000"
       d="m 481.5,-151.28 c 0.82185,4.0094 2.3128,9.0302 2.7338,12.871 -4.6174,-0.27051 -6.5114,2.262 -4.2762,3.6949 1.191,0.76353 4.4495,1.0846 5.5711,-2.4845 0.0932,-0.29652 0.10134,-1.0929 0.0246,-1.5025 -0.68097,-3.6349 -2.5638,-9.1581 -3.2274,-12.154 1.0391,1.0741 1.7182,2.1751 2.0897,2.1053 -0.006,-0.43461 0.12749,-0.85731 0.13917,-1.1908 -1.1787,-0.76519 -0.88313,-0.29507 -2.3196,-1.758 -0.19985,-0.20353 -0.0834,0.31502 -0.73517,0.41873 z"
       inkscape:connector-curvature="0" />
  </g>
  <metadata
     id="metadata34">
    <rdf:RDF>
      <cc:Work>
        <dc:format>image/svg+xml</dc:format>
        <dc:type
           rdf:resource="http://purl.org/dc/dcmitype/StillImage" />
        <cc:license
           rdf:resource="http://creativecommons.org/licenses/publicdomain/" />
        <dc:publisher>
          <cc:Agent
             rdf:about="http://openclipart.org/">
            <dc:title>Openclipart</dc:title>
          </cc:Agent>
        </dc:publisher>
        <dc:title>Al singing melody</dc:title>
        <dc:date>2011-04-21T10:12:51</dc:date>
        <dc:description>This is Al</dc:description>
        <dc:source>https://openclipart.org/detail/133441/al-singing-melody-by-cybergedeon</dc:source>
        <dc:creator>
          <cc:Agent>
            <dc:title>dominiquechappard</dc:title>
          </cc:Agent>
        </dc:creator>
        <dc:subject>
          <rdf:Bag>
            <rdf:li>crooner</rdf:li>
            <rdf:li>man</rdf:li>
            <rdf:li>melody</rdf:li>
            <rdf:li>music</rdf:li>
            <rdf:li>singing</rdf:li>
            <rdf:li>stick man</rdf:li>
            <rdf:li>stickman</rdf:li>
          </rdf:Bag>
        </dc:subject>
      </cc:Work>
      <cc:License
         rdf:about="http://creativecommons.org/licenses/publicdomain/">
        <cc:permits
           rdf:resource="http://creativecommons.org/ns#Reproduction" />
        <cc:permits
           rdf:resource="http://creativecommons.org/ns#Distribution" />
        <cc:permits
           rdf:resource="http://creativecommons.org/ns#DerivativeWorks" />
      </cc:License>
    </rdf:RDF>
  </metadata>
</svg>
