<?xml version="1.0" encoding="UTF-8" standalone="no"?>
<!-- Created with Inkscape (http://www.inkscape.org/) -->

<svg
   xmlns:dc="http://purl.org/dc/elements/1.1/"
   xmlns:cc="http://creativecommons.org/ns#"
   xmlns:rdf="http://www.w3.org/1999/02/22-rdf-syntax-ns#"
   xmlns:svg="http://www.w3.org/2000/svg"
   xmlns="http://www.w3.org/2000/svg"
   xmlns:sodipodi="http://sodipodi.sourceforge.net/DTD/sodipodi-0.dtd"
   xmlns:inkscape="http://www.inkscape.org/namespaces/inkscape"
   id="svg2"
   sodipodi:docname="cybergedeon-AL-singing.svg"
   inkscape:export-filename="C:\Documents and Settings\Compaq_Owner\Desktop\PEC sticks-standing1mm.png"
   viewBox="0 0 106.57 198.11"
   sodipodi:version="0.32"
   inkscape:export-xdpi="90"
   version="1.0"
   inkscape:export-ydpi="90"
   inkscape:version="0.92.1 r15371"
   width="113.67467"
   height="211.31734">
  <defs
     id="defs4">
    <linearGradient
       id="linearGradient4219"
       y2="539.27002"
       gradientUnits="userSpaceOnUse"
       x2="247.31"
       gradientTransform="matrix(1.21,0,0,1,169.55,-481.7)"
       y1="498.13"
       x1="200.38"
       inkscape:collect="always">
      <stop
         id="stop6741"
         style="stop-color:rgb(0, 0, 0)"
         offset="0" />
      <stop
         id="stop6743"
         style="stop-color:rgb(0, 0, 0);stop-opacity:0"
         offset="1" />
    </linearGradient>
  </defs>
  <sodipodi:namedview
     id="base"
     bordercolor="#666666"
     inkscape:pageshadow="2"
     inkscape:guide-bbox="true"
     pagecolor="#ffffff"
     inkscape:window-height="947"
     inkscape:window-maximized="0"
     inkscape:zoom="2.9331837"
     inkscape:window-x="0"
     showgrid="false"
     borderopacity="1.0"
     inkscape:current-layer="layer3"
     inkscape:cx="63.540547"
     inkscape:cy="116.17199"
     showguides="true"
     inkscape:window-y="15"
     inkscape:window-width="1197"
     inkscape:pageopacity="0.0"
     inkscape:document-units="px" />
  <g
     id="layer3"
     inkscape:label="layer"
     inkscape:groupmode="layer"
     transform="translate(-385.54,154.38)">
    <g
       id="g4198">
      <path
         id="path6737"
         style="fill:url(#linearGradient4219)"
         d="m 432.7,27.294 c 22.315,-0.95673 -23.852,3.9073 -26.666,4.2426 -14.269,0.97493 30.2,-2.0201 45.646,-3.0373 32.463,-1.4611 -43.564,5.02 -47.874,5.5816 1.3133,-3.1136 59.507,-8.9851 43.784,-3.784 -24.831,7.1103 -20.319,4.9317 3.5972,3.4211 39.316,-1.8947 -8.5501,3.6567 -22.06,5.4335 -7.4674,-2.0254 68.866,-9.5542 33.688,-3.2312 -2.174,1.6942 -13.634,2.6047 2.9552,0.23081 2.1966,-0.31433 -4.3381,0.74906 -6.45,1.2132 -7.1304,1.567 -7.4927,1.9892 0.0365,2.6185 7.5,0.46827 15.02,0.8133 22.532,1.2157 l -10.83,2.5372 c -7.5938,-0.45518 -15.208,-0.77239 -22.809,-1.1824 -21.247,-1.6894 22.058,-10.975 27.047,-8.1286 -9.7633,1.809 -64.04,7.0647 -35.107,1.9021 33.785,-3.6075 23.575,-0.85571 0.45653,0.0141 -23.36,1.6484 -32.419,2.2494 -5.0804,-5.089 11.335,-3.0746 -55.234,6.7803 -20.461,-0.058 14.434,-1.4871 76.237,-6.8722 26.216,-0.1219 -17.81,1.0589 -81.47,5.8169 -24.886,-2.1852 26.021,-3.034 33.255,-1.8277 4.4382,1.0611 l 11.827,-2.6537 z"
         inkscape:connector-curvature="0" />
      <path
         id="path4876"
         style="fill:none;stroke:#000000;stroke-width:1.89999998"
         d="m 427.67,-95.073 c -15.432,14.603 -31.337,19.875 -34.316,22.428 1.1804,0.28342 16.758,-29.664 19.829,-30.028"
         inkscape:transform-center-x="27.543977"
         inkscape:transform-center-y="-3.2673304"
         sodipodi:nodetypes="ccc"
         inkscape:connector-curvature="0" />
      <path
         id="path4878"
         sodipodi:nodetypes="cssc"
         style="fill:none;stroke:#000000;stroke-width:1.89999998"
         d="m 424.97,-35.355 c -2.2404,11.296 -6.158,21.21 -6.5701,28.763 -1.9697,36.094 -1.8743,31.796 -1.4172,33.069 0.5398,1.5032 -2.0582,2.8537 -2.0582,2.8537"
         inkscape:connector-curvature="0" />
      <path
         id="path4880"
         sodipodi:nodetypes="csc"
         style="fill:none;stroke:#000000;stroke-width:1.89999998"
         d="m 428.65,-36.382 c 5.5678,29.068 1.1816,56.125 0.17978,62.03 -0.26715,1.5747 11.619,1.7323 11.619,1.7323"
         inkscape:connector-curvature="0" />
      <path
         id="path4882"
         sodipodi:nodetypes="cssc"
         style="fill:#000000;fill-rule:evenodd;stroke:#000000;stroke-width:1px"
         d="m 416.82,22.891 c -2.444,2.4847 -17.079,4.8144 -14.249,5.9157 2.9803,1.1599 -2.8674,2.7032 8.0749,1.6668 5.6534,-0.53547 6.3135,1.5405 6.1746,-7.5825 z"
         inkscape:connector-curvature="0" />
      <path
         id="path5757"
         sodipodi:nodetypes="cssc"
         style="fill:#000000;fill-rule:evenodd;stroke:#000000;stroke-width:1px"
         d="m 428.79,23.729 c -2.444,2.4847 -5.6626,1.0551 -3.0558,2.612 5.3668,3.2055 12.831,6.08 16.443,2.3162 3.9322,-4.0971 2.7748,1.6378 -13.388,-4.9282 z"
         inkscape:connector-curvature="0" />
      <path
         id="path5759"
         style="fill:#000000;fill-rule:evenodd;stroke:#000000;stroke-width:1px"
         d="m 428.31,-94.672 c -4.2734,2.579 -5.0553,5.606 -4.8815,3.0951 0.35782,-5.1695 -3.8267,-4.2242 0.4212,-7.6806 6.3003,-5.1264 13.768,-14.49 4.4603,4.5856 z"
         inkscape:transform-center-x="-1.3001931"
         inkscape:transform-center-y="7.6102603"
         sodipodi:nodetypes="cssc"
         inkscape:connector-curvature="0" />
      <path
         id="path5761"
         sodipodi:nodetypes="cssc"
         style="fill:#000000;fill-rule:evenodd;stroke:#000000;stroke-width:1px"
         d="m 481.81,-82.982 c -2.7185,0.25344 -8.2425,2.2291 -5.9921,0.06201 4.9251,-4.7429 4.2366,-8.0079 9.1991,-6.165 3.7876,1.4066 14.295,-2.7363 -3.207,6.103 z"
         inkscape:connector-curvature="0" />
      <path
         id="path4874"
         style="fill:none;stroke:#000000;stroke-width:1.89999998"
         d="m 478.04,-82.757 c -18.222,4.3701 -34.35,6.5417 -38.252,7.705 -12.771,-9.473 -13.617,-12.524 -23.379,-22.141"
         inkscape:transform-center-x="-33.479203"
         inkscape:transform-center-y="1.9227115"
         sodipodi:nodetypes="ccc"
         inkscape:connector-curvature="0" />
      <path
         id="path3077"
         sodipodi:nodetypes="ccssc"
         style="fill:none;stroke:#000000;stroke-width:3"
         d="m 412.63,-106.05 c 0.021,2.459 1.1108,4.089 2.7148,6.9072 10.025,17.614 16.372,66.453 11.708,64.995 -7.1729,-2.2417 -4.3819,-50.293 -11.797,-64.972 -0.93556,-1.852 -2.5474,-5.0028 -2.6261,-6.9308 z"
         inkscape:connector-curvature="0" />
      <path
         id="path3075"
         sodipodi:rx="12.857142"
         sodipodi:ry="25"
         style="fill:none;stroke:#000000;stroke-width:2.35339999;stroke-linecap:round"
         sodipodi:type="arc"
         d="m 444.0348,362.03361 a 12.857142,25 0 0 1 18.14636,0.97228 12.857142,25 0 0 1 -0.44121,35.28756 12.857142,25 0 0 1 -18.14922,-0.7435 12.857142,25 0 0 1 0.32354,-35.29239"
         sodipodi:open="true"
         transform="matrix(1,-0.42183,0.37162,0.92966,-191.54,-291.73)"
         sodipodi:cy="380.21933"
         sodipodi:cx="452.85715"
         sodipodi:end="3.9431937"
         sodipodi:start="3.9561603" />
      <path
         id="path4833"
         sodipodi:rx="3.5714285"
         sodipodi:ry="4.6428571"
         style="fill:none;stroke:#000000;stroke-width:2.07500005;stroke-linecap:round"
         sodipodi:type="arc"
         d="m 293.26364,368.62769 a 3.5714285,4.6428571 0 0 1 5.04066,0.18056 3.5714285,4.6428571 0 0 1 -0.12256,6.55341 3.5714285,4.6428571 0 0 1 -5.04145,-0.13808 3.5714285,4.6428571 0 0 1 0.0899,-6.5543"
         sodipodi:open="true"
         transform="rotate(-28.925383,-631.22871,-84.517918)"
         sodipodi:cy="372.00504"
         sodipodi:cx="295.71429"
         sodipodi:end="3.9431937"
         sodipodi:start="3.9561603" />
      <path
         id="path4835"
         sodipodi:rx="3.5714285"
         sodipodi:ry="4.6428571"
         style="fill:none;stroke:#000000;stroke-width:2.07500005;stroke-linecap:round"
         sodipodi:type="arc"
         d="m 293.26364,368.62769 a 3.5714285,4.6428571 0 0 1 5.04066,0.18056 3.5714285,4.6428571 0 0 1 -0.12256,6.55341 3.5714285,4.6428571 0 0 1 -5.04145,-0.13808 3.5714285,4.6428571 0 0 1 0.0899,-6.5543"
         sodipodi:open="true"
         transform="rotate(-28.925383,-639.44046,-103.66199)"
         sodipodi:cy="372.00504"
         sodipodi:cx="295.71429"
         sodipodi:end="3.9431937"
         sodipodi:start="3.9561603" />
      <path
         id="path4837"
         sodipodi:nodetypes="csssc"
         style="fill:none;stroke:#000000;stroke-width:2;stroke-linecap:round;stroke-linejoin:round"
         d="m 417.74,-124.84 c -0.60994,1.4571 1.7535,7.1918 -0.22717,9.1535 -2.7154,2.6894 -9.8303,1.0616 -10.019,-0.63172 -0.44025,-3.9403 6.7296,-8.1717 10.006,-7.9191 l 0.24102,-0.60268 z"
         inkscape:connector-curvature="0" />
      <g
         id="g4149"
         transform="matrix(0.9988,0.049038,-0.049038,0.9988,-103.2,-3.3394)">
        <path
           id="path3358"
           sodipodi:nodetypes="cccc"
           style="fill:#000000;stroke:#000000;stroke-width:2"
           d="m 522.36,-128.67 6.8304,14.402 c 0.53714,0.25814 1.406,0.8211 1.2309,-1.1847 l -5.3116,-15.007 -2.7498,1.7897 z"
           inkscape:connector-curvature="0" />
        <path
           id="path3360"
           sodipodi:rx="5.469183"
           sodipodi:ry="4.9883757"
           style="fill:#000000"
           sodipodi:type="arc"
           d="m 511.61244,384.72849 a 5.469183,4.9883757 0 0 1 7.71911,0.194 5.469183,4.9883757 0 0 1 -0.18768,7.04111 5.469183,4.9883757 0 0 1 -7.72033,-0.14836 5.469183,4.9883757 0 0 1 0.13763,-7.04206"
           sodipodi:open="true"
           transform="matrix(0.68803,-0.65909,0.73646,0.46866,-118,25.262)"
           sodipodi:cy="388.35718"
           sodipodi:cx="515.3653"
           sodipodi:end="3.9431937"
           sodipodi:start="3.9561603" />
      </g>
      <path
         id="path4153"
         sodipodi:nodetypes="cc"
         style="fill:none;stroke:#ffffff;stroke-width:1px;stroke-linecap:round;stroke-linejoin:round;stroke-opacity:0.94118"
         d="m 424.93,-101.42 c 3.3308,-0.35136 5.2837,-1.7207 4.9899,-3.9024"
         inkscape:connector-curvature="0" />
      <path
         id="path4153-8"
         sodipodi:nodetypes="cc"
         style="fill:none;stroke:#ffffff;stroke-width:0.89999998;stroke-linecap:round;stroke-linejoin:round;stroke-opacity:0.94118"
         d="m 428.97,-93.979 c 2.2108,-2.3409 1.8952,-4.0335 2.6997,-5.5899"
         inkscape:connector-curvature="0" />
    </g>
  </g>
  <metadata
     id="metadata28">
    <rdf:RDF>
      <cc:Work>
        <dc:format>image/svg+xml</dc:format>
        <dc:type
           rdf:resource="http://purl.org/dc/dcmitype/StillImage" />
        <cc:license
           rdf:resource="http://creativecommons.org/licenses/publicdomain/" />
        <dc:publisher>
          <cc:Agent
             rdf:about="http://openclipart.org/">
            <dc:title>Openclipart</dc:title>
          </cc:Agent>
        </dc:publisher>
        <dc:title>Al singing</dc:title>
        <dc:date>2011-04-21T09:44:45</dc:date>
        <dc:description>This  is Al</dc:description>
        <dc:source>https://openclipart.org/detail/133429/al-singing-by-cybergedeon</dc:source>
        <dc:creator>
          <cc:Agent>
            <dc:title>dominiquechappard</dc:title>
          </cc:Agent>
        </dc:creator>
        <dc:subject>
          <rdf:Bag>
            <rdf:li>crooner</rdf:li>
            <rdf:li>man</rdf:li>
            <rdf:li>music</rdf:li>
            <rdf:li>sing</rdf:li>
            <rdf:li>singer</rdf:li>
            <rdf:li>singing</rdf:li>
            <rdf:li>stick man</rdf:li>
            <rdf:li>stickman</rdf:li>
          </rdf:Bag>
        </dc:subject>
      </cc:Work>
      <cc:License
         rdf:about="http://creativecommons.org/licenses/publicdomain/">
        <cc:permits
           rdf:resource="http://creativecommons.org/ns#Reproduction" />
        <cc:permits
           rdf:resource="http://creativecommons.org/ns#Distribution" />
        <cc:permits
           rdf:resource="http://creativecommons.org/ns#DerivativeWorks" />
      </cc:License>
    </rdf:RDF>
  </metadata>
</svg>
