<?xml version="1.0" encoding="UTF-8" standalone="no"?>
<!-- Created with Inkscape (http://www.inkscape.org/) -->

<svg
   xmlns:dc="http://purl.org/dc/elements/1.1/"
   xmlns:cc="http://creativecommons.org/ns#"
   xmlns:rdf="http://www.w3.org/1999/02/22-rdf-syntax-ns#"
   xmlns:svg="http://www.w3.org/2000/svg"
   xmlns="http://www.w3.org/2000/svg"
   xmlns:sodipodi="http://sodipodi.sourceforge.net/DTD/sodipodi-0.dtd"
   xmlns:inkscape="http://www.inkscape.org/namespaces/inkscape"
   id="svg2"
   sodipodi:docname="cybergedeon--AL-drinking-a-toast.svg"
   inkscape:export-filename="C:\Documents and Settings\Compaq_Owner\Desktop\PEC sticks-standing1mm.png"
   viewBox="0 0 87.48 203.06"
   sodipodi:version="0.32"
   inkscape:export-xdpi="90"
   version="1.0"
   inkscape:export-ydpi="90"
   inkscape:version="0.92.1 r15371"
   width="93.312004"
   height="216.59734">
  <defs
     id="defs4">
    <linearGradient
       id="linearGradient3304"
       y2="539.27002"
       gradientUnits="userSpaceOnUse"
       x2="247.31"
       gradientTransform="matrix(1.5121,0,0,1,-299.22,-302.57)"
       y1="498.13"
       x1="200.38"
       inkscape:collect="always">
      <stop
         id="stop6741"
         style="stop-color:rgb(0, 0, 0)"
         offset="0" />
      <stop
         id="stop6743"
         style="stop-color:rgb(0, 0, 0);stop-opacity:0"
         offset="1" />
    </linearGradient>
  </defs>
  <sodipodi:namedview
     id="base"
     bordercolor="#666666"
     inkscape:pageshadow="2"
     inkscape:guide-bbox="true"
     pagecolor="#ffffff"
     inkscape:window-height="939"
     inkscape:window-maximized="0"
     inkscape:zoom="1.0255144"
     inkscape:window-x="0"
     showgrid="false"
     borderopacity="1.0"
     inkscape:current-layer="layer1"
     inkscape:cx="67.57722"
     inkscape:cy="153.80237"
     showguides="true"
     inkscape:window-y="23"
     inkscape:window-width="1197"
     inkscape:pageopacity="0.0"
     inkscape:document-units="px" />
  <g
     id="layer1"
     sodipodi:insensitive="true"
     inkscape:label="layer"
     inkscape:groupmode="layer"
     transform="translate(-34.075,-2.9688)">
    <g
       id="g5490">
      <path
         id="path6737"
         style="fill:url(#linearGradient3304)"
         transform="translate(10.847,-17.335)"
         d="m 65.136,206.92 c 19.069,-0.95673 -20.382,3.9073 -22.787,4.2426 -12.193,0.97493 25.807,-2.0201 39.006,-3.0373 27.74,-1.4611 -37.227,5.02 -40.91,5.5816 1.1222,-3.1136 50.85,-8.9851 37.415,-3.784 -21.219,7.1103 -17.363,4.9317 3.0739,3.4211 33.597,-1.8947 -7.3063,3.6567 -18.851,5.4335 -6.3811,-2.0254 58.848,-9.5542 28.788,-3.2312 -1.8578,1.6942 -11.65,2.6047 2.5253,0.23081 1.8771,-0.31433 -3.707,0.74906 -5.5117,1.2132 -6.0931,1.567 -6.4027,1.9892 0.03127,2.6185 6.4089,0.46827 12.835,0.8133 19.254,1.2157 l -9.2544,2.5372 c -6.4892,-0.45518 -12.995,-0.77239 -19.491,-1.1824 -18.156,-1.6894 18.85,-10.975 23.112,-8.1286 -8.343,1.809 -54.724,7.0647 -30,1.9021 28.87,-3.6075 20.146,-0.85571 0.39011,0.0141 -19.962,1.6484 -27.703,2.2494 -4.3413,-5.089 9.6861,-3.0746 -47.199,6.7803 -17.485,-0.058 12.334,-1.4871 65.147,-6.8722 22.402,-0.1219 -15.219,1.0589 -69.618,5.8169 -21.266,-2.1852 22.236,-3.034 28.417,-1.8277 3.7926,1.0611 l 10.106,-2.6537 z"
         inkscape:connector-curvature="0" />
      <path
         id="path4874"
         style="fill:none;stroke:#000000;stroke-width:1.89999998"
         d="m 42.419,75.605 c -7.7374,11.139 -9.1448,16.837 -13.44,24.418 3.8624,16.649 3.6818,20.982 4.1024,29.113"
         inkscape:transform-center-x="6.9049889"
         inkscape:transform-center-y="18.382588"
         transform="translate(10.847,-17.335)"
         sodipodi:nodetypes="ccc"
         inkscape:connector-curvature="0" />
      <path
         id="path4876"
         sodipodi:nodetypes="ccc"
         style="fill:none;stroke:#000000;stroke-width:1.89999998"
         transform="translate(10.847,-17.335)"
         d="m 45.365,80.413 c 9.3137,-3.7383 20.622,0.84461 26.624,-3.3662 6.667,-7.654 17.961,-23.646 17.961,-23.646"
         inkscape:connector-curvature="0" />
      <path
         id="path4878"
         sodipodi:nodetypes="csc"
         style="fill:none;stroke:#000000;stroke-width:1.89999998"
         transform="translate(10.847,-17.335)"
         d="m 42.075,138.93 c 3.5767,67.984 -5.765,61.681 -5.26,63.196 0.50508,1.5152 1.0102,3.5355 1.0102,3.5355"
         inkscape:connector-curvature="0" />
      <path
         id="path4880"
         sodipodi:nodetypes="csc"
         style="fill:none;stroke:#000000;stroke-width:1.89999998"
         transform="translate(10.847,-17.335)"
         d="m 45.755,139.95 c 11.69,30.184 -1.8496,59.663 -1.4093,62.275 0.2655,1.575 13.208,1.4878 13.208,1.4878"
         inkscape:connector-curvature="0" />
      <path
         id="path4882"
         sodipodi:nodetypes="cssc"
         style="fill:#000000;fill-rule:evenodd;stroke:#000000;stroke-width:1px"
         transform="translate(10.847,-17.335)"
         d="m 36.31,202.63 c -2.444,2.4847 -8.1626,2.4836 -5.5558,4.0406 5.3668,3.2055 4.9739,6.7943 8.5863,3.0305 3.9322,-4.0971 13.132,-0.50508 -3.0305,-7.0711 z"
         inkscape:connector-curvature="0" />
      <path
         id="path5757"
         sodipodi:nodetypes="cssc"
         style="fill:#000000;fill-rule:evenodd;stroke:#000000;stroke-width:1px"
         transform="translate(10.847,-17.335)"
         d="m 49.31,200.06 c -2.444,2.4847 -5.6626,1.0551 -3.0558,2.612 5.3668,3.2055 12.831,6.08 16.443,2.3162 3.9322,-4.0971 2.7748,1.6378 -13.388,-4.9282 z"
         inkscape:connector-curvature="0" />
      <path
         id="path5759"
         sodipodi:nodetypes="cssc"
         style="fill:#000000;fill-rule:evenodd;stroke:#000000;stroke-width:1px"
         transform="translate(10.847,-17.335)"
         d="m 35.653,130.95 c -3.416,-0.69125 -3.2101,-9.3252 -3.0916,-6.2912 0.24404,6.2464 -6.3041,11.719 -1.1786,12.69 5.5793,1.058 7.592,10.727 4.2701,-6.3992 z"
         inkscape:connector-curvature="0" />
      <path
         id="path5761"
         sodipodi:nodetypes="csssc"
         style="fill:#000000;fill-rule:evenodd;stroke:#000000;stroke-width:1px"
         transform="translate(10.847,-17.335)"
         d="m 95.864,48.217 c -0.38181,1.6739 -3.9092,3.0451 -5.2237,4.102 -1.443,1.1602 -1.8476,1.9507 -0.23038,1.38 6.4478,-2.2755 8.0153,-2.8234 12.84,-2.2993 8.3996,0.91238 12.52,-20.35 -7.386,-3.1827 z"
         inkscape:connector-curvature="0" />
      <path
         id="path3077"
         sodipodi:nodetypes="ccssc"
         style="fill:none;stroke:#000000;stroke-width:3"
         transform="translate(10.847,-17.335)"
         d="m 42.275,70.777 c -0.3646,2.4319 0.09441,3.4249 1.2369,6.4597 7.1402,18.967 5.7548,68.197 1.3775,66.027 -6.733,-3.3382 3.5542,-50.359 -1.4688,-66.018 -0.63375,-1.9758 -1.37,-4.5525 -1.1456,-6.4691 z"
         inkscape:connector-curvature="0" />
      <path
         id="path3075"
         sodipodi:rx="12.857142"
         sodipodi:ry="25"
         style="fill:none;stroke:#000000;stroke-width:2.35339999;stroke-linecap:round"
         sodipodi:type="arc"
         d="m 444.0348,362.03361 a 12.857142,25 0 0 1 18.14636,0.97228 12.857142,25 0 0 1 -0.44121,35.28756 12.857142,25 0 0 1 -18.14922,-0.7435 12.857142,25 0 0 1 0.32354,-35.29239"
         sodipodi:open="true"
         transform="matrix(1.0693,-0.18627,0.15316,0.9894,-492.89,-262.79)"
         sodipodi:cy="380.21933"
         sodipodi:cx="452.85715"
         sodipodi:end="3.9431937"
         sodipodi:start="3.9561603" />
      <path
         id="path4833"
         sodipodi:rx="3.5714285"
         sodipodi:ry="4.6428571"
         style="fill:none;stroke:#000000;stroke-width:2.07500005;stroke-linecap:round"
         sodipodi:type="arc"
         d="m 293.26364,368.62769 a 3.5714285,4.6428571 0 0 1 5.04066,0.18056 3.5714285,4.6428571 0 0 1 -0.12256,6.55341 3.5714285,4.6428571 0 0 1 -5.04145,-0.13808 3.5714285,4.6428571 0 0 1 0.0899,-6.5543"
         sodipodi:open="true"
         transform="matrix(0.96156,-0.27458,0.27458,0.96156,-341.01,-252.76)"
         sodipodi:cy="372.00504"
         sodipodi:cx="295.71429"
         sodipodi:end="3.9431937"
         sodipodi:start="3.9561603" />
      <path
         id="path4835"
         sodipodi:rx="3.5714285"
         sodipodi:ry="4.6428571"
         style="fill:none;stroke:#000000;stroke-width:2.07500005;stroke-linecap:round"
         sodipodi:type="arc"
         d="m 293.26364,368.62769 a 3.5714285,4.6428571 0 0 1 5.04066,0.18056 3.5714285,4.6428571 0 0 1 -0.12256,6.55341 3.5714285,4.6428571 0 0 1 -5.04145,-0.13808 3.5714285,4.6428571 0 0 1 0.0899,-6.5543"
         sodipodi:open="true"
         transform="matrix(0.96156,-0.27458,0.27458,0.96156,-329.81,-255.96)"
         sodipodi:cy="372.00504"
         sodipodi:cx="295.71429"
         sodipodi:end="3.9431937"
         sodipodi:start="3.9561603" />
      <path
         id="path4837"
         sodipodi:nodetypes="cc"
         style="fill:none;stroke:#000000;stroke-width:1.25"
         transform="translate(10.847,-17.335)"
         d="m 35.739,60.222 c 5.4289,5.6268 12.26,0.40379 12.514,-1.7006"
         inkscape:connector-curvature="0" />
      <path
         id="path3306"
         sodipodi:nodetypes="cc"
         style="fill:none;stroke:#000000;stroke-width:1.25"
         transform="translate(10.847,-17.335)"
         d="M 48.498,58.595 C 48.50926,51.8022 37.346,58.46348 35.25,60.7846"
         inkscape:connector-curvature="0" />
      <path
         id="path2860"
         sodipodi:nodetypes="cc"
         style="fill:none;stroke:#000000;stroke-width:1px"
         d="m 106.7,12.384 c 2.7298,14.844 13.55,11.581 13.425,-1.6848"
         inkscape:connector-curvature="0" />
      <path
         id="path2862"
         sodipodi:rx="111.36413"
         sodipodi:ry="29.330469"
         style="fill:none;stroke:#000000;stroke-width:16.39900017"
         sodipodi:type="arc"
         d="m 208.18103,273.01704 a 111.36413,29.330469 0 0 1 157.17752,1.14071 111.36413,29.330469 0 0 1 -3.82158,41.40003 111.36413,29.330469 0 0 1 -157.2023,-0.8723 111.36413,29.330469 0 0 1 2.8024,-41.40569"
         sodipodi:open="true"
         transform="matrix(0.060086,-0.0068344,0.0069493,0.061095,94.253,-4.3376)"
         sodipodi:cy="294.35287"
         sodipodi:cx="284.5972"
         sodipodi:end="3.9431937"
         sodipodi:start="3.9561603" />
      <path
         id="path3636"
         sodipodi:nodetypes="cc"
         style="fill:none;stroke:#000000;stroke-width:1px"
         d="m 113.71,22.083 c 1.0211,5.5276 1.6965,10.627 1.6508,15.044"
         inkscape:connector-curvature="0" />
      <path
         id="path3636-4"
         sodipodi:nodetypes="cc"
         style="fill:none;stroke:#000000;stroke-width:1px"
         d="m 115.07,21.85 c 0.24636,5.6157 0.7751,10.573 1.8116,14.867"
         inkscape:connector-curvature="0" />
      <path
         id="path2862-3"
         sodipodi:rx="111.36413"
         sodipodi:ry="29.330469"
         style="fill:none;stroke:#000000;stroke-width:21.48800087"
         sodipodi:type="arc"
         d="m 302.52198,265.40483 a 111.36413,29.330469 0 0 1 93.14773,31.06927 111.36413,29.330469 0 0 1 -109.19163,27.20506 111.36413,29.330469 0 0 1 -112.618,-26.21825 111.36413,29.330469 0 0 1 89.11038,-31.88012"
         sodipodi:open="true"
         transform="matrix(0.036586,-0.0041615,0.006647,0.058438,103.83,21.645)"
         sodipodi:cy="294.35287"
         sodipodi:cx="284.5972"
         sodipodi:end="4.5169487"
         sodipodi:start="4.8740487" />
      <path
         id="path2862-1"
         sodipodi:rx="111.36413"
         sodipodi:ry="29.330469"
         style="fill:none;stroke:#000000;stroke-width:23.83399963"
         sodipodi:type="arc"
         d="m 208.18103,273.01704 a 111.36413,29.330469 0 0 1 157.17752,1.14071 111.36413,29.330469 0 0 1 -3.82158,41.40003 111.36413,29.330469 0 0 1 -157.2023,-0.8723 111.36413,29.330469 0 0 1 2.8024,-41.40569"
         sodipodi:open="true"
         transform="matrix(0.05261,-0.0026855,0.0017036,0.033375,98.411,6.5342)"
         sodipodi:cy="294.35287"
         sodipodi:cx="284.5972"
         sodipodi:end="3.9431937"
         sodipodi:start="3.9561603" />
    </g>
  </g>
  <metadata
     id="metadata30">
    <rdf:RDF>
      <cc:Work>
        <dc:format>image/svg+xml</dc:format>
        <dc:type
           rdf:resource="http://purl.org/dc/dcmitype/StillImage" />
        <cc:license
           rdf:resource="http://creativecommons.org/licenses/publicdomain/" />
        <dc:publisher>
          <cc:Agent
             rdf:about="http://openclipart.org/">
            <dc:title>Openclipart</dc:title>
          </cc:Agent>
        </dc:publisher>
        <dc:title>Al drinking a toast</dc:title>
        <dc:date>2011-04-18T20:18:53</dc:date>
        <dc:description />
        <dc:source>https://openclipart.org/detail/133003/al-drinking-a-toast-by-cybergedeon</dc:source>
        <dc:creator>
          <cc:Agent>
            <dc:title>dominiquechappard</dc:title>
          </cc:Agent>
        </dc:creator>
        <dc:subject>
          <rdf:Bag>
            <rdf:li>drink</rdf:li>
            <rdf:li>glass</rdf:li>
            <rdf:li>man</rdf:li>
            <rdf:li>stick-man</rdf:li>
            <rdf:li>stickyman</rdf:li>
          </rdf:Bag>
        </dc:subject>
      </cc:Work>
      <cc:License
         rdf:about="http://creativecommons.org/licenses/publicdomain/">
        <cc:permits
           rdf:resource="http://creativecommons.org/ns#Reproduction" />
        <cc:permits
           rdf:resource="http://creativecommons.org/ns#Distribution" />
        <cc:permits
           rdf:resource="http://creativecommons.org/ns#DerivativeWorks" />
      </cc:License>
    </rdf:RDF>
  </metadata>
</svg>
