<?xml version="1.0" encoding="UTF-8" standalone="no"?>
<!-- Created with Inkscape (http://www.inkscape.org/) -->

<svg
   xmlns:dc="http://purl.org/dc/elements/1.1/"
   xmlns:cc="http://creativecommons.org/ns#"
   xmlns:rdf="http://www.w3.org/1999/02/22-rdf-syntax-ns#"
   xmlns:svg="http://www.w3.org/2000/svg"
   xmlns="http://www.w3.org/2000/svg"
   xmlns:sodipodi="http://sodipodi.sourceforge.net/DTD/sodipodi-0.dtd"
   xmlns:inkscape="http://www.inkscape.org/namespaces/inkscape"
   id="svg2"
   sodipodi:docname="paro-AL-running.svg"
   inkscape:export-filename="C:\Documents and Settings\Compaq_Owner\Desktop\PEC sticks-standing1mm.png"
   viewBox="0 0 174.27 197.66"
   sodipodi:version="0.32"
   inkscape:export-xdpi="90"
   version="1.0"
   inkscape:export-ydpi="90"
   inkscape:version="0.92.1 r15371"
   width="185.888"
   height="210.83734">
  <defs
     id="defs4">
    <linearGradient
       id="linearGradient2910"
       y2="610.07001"
       gradientUnits="userSpaceOnUse"
       x2="415.35999"
       gradientTransform="translate(-125.42,-400.38)"
       y1="610.07001"
       x1="158.03999"
       inkscape:collect="always">
      <stop
         id="stop6741"
         style="stop-color:rgb(0, 0, 0)"
         offset="0" />
      <stop
         id="stop6743"
         style="stop-color:rgb(0, 0, 0);stop-opacity:0"
         offset="1" />
    </linearGradient>
  </defs>
  <sodipodi:namedview
     id="base"
     bordercolor="#666666"
     inkscape:pageshadow="2"
     inkscape:guide-bbox="true"
     pagecolor="#ffffff"
     inkscape:window-height="999"
     inkscape:window-maximized="0"
     inkscape:zoom="2.2238683"
     inkscape:window-x="-4"
     showgrid="false"
     borderopacity="1.0"
     inkscape:current-layer="layer3"
     inkscape:cx="69.724634"
     inkscape:cy="67.379213"
     showguides="true"
     inkscape:window-y="-2"
     inkscape:window-width="1280"
     inkscape:pageopacity="0.0"
     inkscape:document-units="px" />
  <g
     id="layer3"
     inkscape:label="layer"
     transform="translate(-50.905,80.475)"
     inkscape:groupmode="layer"
     sodipodi:insensitive="true">
    <g
       id="g2895">
      <path
         id="path6737"
         sodipodi:nodetypes="ccccccccccccccccc"
         style="fill:url(#linearGradient2910)"
         d="m 118.07,96.164 c 38.223,2.2479 -40.855,2.8739 -45.675,2.9831 -24.441,-0.77307 51.729,1.7153 78.186,2.622 55.605,3.1433 -74.621,1.3775 -82.003,1.6326 2.2495,-5.4601 101.93,-5.7744 74.998,0.92259 -42.532,8.5574 -34.804,5.3806 6.1616,6.9022 24.945,1.4269 45.124,-1.9386 68.473,-2.9098 0.82753,1.8313 2.2266,3.7077 6.9672,6.7789 -11.443,-0.14532 -11.67,-0.96574 -32.205,-0.52548 -22.082,-1.1211 -74.96,3.3865 -65.374,2.0018 45.954,-1.53 -102.71,7.1538 -4.6174,-12.655 19.415,-3.5933 -94.609,2.507 -35.047,-3.7718 24.724,-0.1343 130.59,1.088 44.905,4.4738 -30.506,-1.2539 -139.55,-3.9557 -42.627,-8.4557 44.571,-0.8879 56.961,2.6146 7.6022,2.7361 l 20.258,-2.7353 9e-5,4e-5 z"
         inkscape:connector-curvature="0" />
      <path
         id="path4876"
         sodipodi:nodetypes="ccc"
         style="fill:none;stroke:#000000;stroke-width:1.89999998"
         transform="translate(-3.0305,0.21678)"
         d="m 105.43,9.9457 c 1.3535,-0.0444 0.98372,-6.4112 1.7031,-7.2105 10.808,-15.473 26.677,-19.63 44.056,-24.228"
         inkscape:connector-curvature="0" />
      <path
         id="path4878"
         style="fill:none;stroke:#000000;stroke-width:1.89999998"
         d="m 129.45,40.799 c 31.87,7.6316 40.723,31.81 61.236,52.443 1.9029,0.07196 8.5452,-7.2155 8.5452,-7.2155"
         inkscape:transform-center-x="7.6413888"
         inkscape:transform-center-y="15.654291"
         transform="translate(-3.0305,0.21678)"
         sodipodi:nodetypes="ccc"
         inkscape:connector-curvature="0" />
      <path
         id="path4880"
         sodipodi:nodetypes="ccc"
         style="fill:none;stroke:#000000;stroke-width:1.89999998"
         transform="translate(-3.0305,0.21678)"
         d="m 126.37,41.834 c -18.682,26.077 -33.119,34.508 -64.407,31.998 -2.3517,-0.26747 2.8822,9.255 2.8822,9.255"
         inkscape:connector-curvature="0" />
      <path
         id="path4882"
         sodipodi:nodetypes="cssc"
         style="fill:#000000;fill-rule:evenodd;stroke:#000000;stroke-width:1px"
         transform="translate(-3.0305,0.21678)"
         d="m 199.52,85.709 c 3.4135,1.7532 8.4917,-1.6605 6.4267,0.2911 -4.2514,4.018 -4.3858,2.6433 -8.863,5.1218 -4.8486,2.6841 -11.524,3.883 2.4363,-5.4129 z"
         inkscape:connector-curvature="0" />
      <path
         id="path5757"
         sodipodi:nodetypes="cssc"
         style="fill:#000000;fill-rule:evenodd;stroke:#000000;stroke-width:1px"
         transform="translate(-3.0305,0.21678)"
         d="m 65.144,74.796 c -3.4837,0.10173 -4.8173,-3.1579 -4.0135,-0.22985 1.6548,6.0282 5.0526,13.269 10.265,13.053 5.6738,-0.23541 0.86916,3.1027 -6.2515,-12.823 z"
         inkscape:connector-curvature="0" />
      <path
         id="path5759"
         style="fill:#000000;fill-rule:evenodd;stroke:#000000;stroke-width:1px"
         d="m 103.76,10.069 c 1.1317,2.4918 -0.22136,2.8764 0.82254,4.1894 2.0895,2.6282 3.6387,2.3528 2.5355,-2.8244 -1.2008,-5.6357 1.9891,-16.869 -3.358,-1.365 z"
         inkscape:transform-center-x="0.6172445"
         inkscape:transform-center-y="3.8355153"
         transform="translate(-3.0305,0.21678)"
         sodipodi:nodetypes="cssc"
         inkscape:connector-curvature="0" />
      <path
         id="path4874"
         sodipodi:nodetypes="cc"
         style="fill:none;stroke:#000000;stroke-width:1.89999998"
         transform="translate(-3.0305,0.21678)"
         d="m 153.13,-21.912 c 20.872,14.58 35.699,14.431 59.479,17.394"
         inkscape:connector-curvature="0" />
      <path
         id="path5761"
         style="fill:#000000;fill-rule:evenodd;stroke:#000000;stroke-width:1px"
         d="m 217.71,-7.9723 c 2.8835,-0.8314 7.8616,-4.2338 7.2561,-2.3397 -0.57967,1.8142 -2.4091,7.9973 -5.8522,6.7082 -3.7479,-1.4033 -11.716,1.971 -1.4039,-4.3685 z"
         inkscape:transform-center-x="-2.9851548"
         transform="translate(-3.0305,0.21678)"
         sodipodi:nodetypes="cssc"
         inkscape:connector-curvature="0" />
      <path
         id="path3077"
         sodipodi:nodetypes="ccssc"
         style="fill:none;stroke:#000000;stroke-width:3"
         d="m 149.88,-31.012 c -0.52538,3.0394 -0.29758,4.8157 -0.98365,7.1792 5.5591,19.023 -18.12,65.318 -24.569,65.256 -4.8536,-0.04681 23.875,-42.339 24.474,-65.247 0.0556,-2.125 0.73696,-3.2275 1.0786,-7.1885 z"
         inkscape:connector-curvature="0" />
      <path
         id="path3075"
         sodipodi:rx="12.857142"
         sodipodi:ry="25"
         style="fill:none;stroke:#000000;stroke-width:2.35339999;stroke-linecap:round"
         sodipodi:type="arc"
         d="m 444.0348,362.03361 a 12.857142,25 0 0 1 18.14636,0.97228 12.857142,25 0 0 1 -0.44121,35.28756 12.857142,25 0 0 1 -18.14922,-0.7435 12.857142,25 0 0 1 0.32354,-35.29239"
         sodipodi:open="true"
         transform="matrix(1.0534,0.26143,-0.25945,0.96698,-220.3,-540.89)"
         sodipodi:cy="380.21933"
         sodipodi:cx="452.85715"
         sodipodi:end="3.9431937"
         sodipodi:start="3.9561603" />
      <path
         id="path4835"
         sodipodi:rx="3.5714285"
         sodipodi:ry="4.6428571"
         style="fill:none;stroke:#000000;stroke-width:2.07500005;stroke-linecap:round"
         sodipodi:type="arc"
         d="m 293.26364,368.62769 a 3.5714285,4.6428571 0 0 1 5.04066,0.18056 3.5714285,4.6428571 0 0 1 -0.12256,6.55341 3.5714285,4.6428571 0 0 1 -5.04145,-0.13808 3.5714285,4.6428571 0 0 1 0.0899,-6.5543"
         sodipodi:open="true"
         transform="matrix(0.99055,0.13714,-0.13714,0.99055,-74.388,-468.71)"
         sodipodi:cy="372.00504"
         sodipodi:cx="295.71429"
         sodipodi:end="3.9431937"
         sodipodi:start="3.9561603" />
      <path
         id="path4837"
         sodipodi:nodetypes="cc"
         style="fill:none;stroke:#000000;stroke-width:1.25"
         d="m 165.23,-38.568 c -4.1711,0.29138 -6.769,-2.2382 -8.0164,-5.108"
         inkscape:connector-curvature="0" />
    </g>
  </g>
  <metadata
     id="metadata22">
    <rdf:RDF>
      <cc:Work>
        <dc:format>image/svg+xml</dc:format>
        <dc:type
           rdf:resource="http://purl.org/dc/dcmitype/StillImage" />
        <cc:license
           rdf:resource="http://creativecommons.org/licenses/publicdomain/" />
        <dc:publisher>
          <cc:Agent
             rdf:about="http://openclipart.org/">
            <dc:title>Openclipart</dc:title>
          </cc:Agent>
        </dc:publisher>
        <dc:title>Al running</dc:title>
        <dc:date>2010-10-19T13:18:27</dc:date>
        <dc:description />
        <dc:source>https://openclipart.org/detail/91519/al-running-by-cybergedeon</dc:source>
        <dc:creator>
          <cc:Agent>
            <dc:title>dominiquechappard</dc:title>
          </cc:Agent>
        </dc:creator>
        <dc:subject>
          <rdf:Bag>
            <rdf:li>man</rdf:li>
            <rdf:li>running</rdf:li>
          </rdf:Bag>
        </dc:subject>
      </cc:Work>
      <cc:License
         rdf:about="http://creativecommons.org/licenses/publicdomain/">
        <cc:permits
           rdf:resource="http://creativecommons.org/ns#Reproduction" />
        <cc:permits
           rdf:resource="http://creativecommons.org/ns#Distribution" />
        <cc:permits
           rdf:resource="http://creativecommons.org/ns#DerivativeWorks" />
      </cc:License>
    </rdf:RDF>
  </metadata>
</svg>
