<?xml version="1.0" encoding="UTF-8" standalone="no"?>
<!-- Created with Inkscape (http://www.inkscape.org/) -->

<svg
   xmlns:dc="http://purl.org/dc/elements/1.1/"
   xmlns:cc="http://creativecommons.org/ns#"
   xmlns:rdf="http://www.w3.org/1999/02/22-rdf-syntax-ns#"
   xmlns:svg="http://www.w3.org/2000/svg"
   xmlns="http://www.w3.org/2000/svg"
   xmlns:sodipodi="http://sodipodi.sourceforge.net/DTD/sodipodi-0.dtd"
   xmlns:inkscape="http://www.inkscape.org/namespaces/inkscape"
   id="svg2"
   sodipodi:docname="paro-AL-in-love.svg"
   inkscape:export-filename="C:\Documents and Settings\Compaq_Owner\Desktop\PEC sticks-standing1mm.png"
   viewBox="0 0 130.54 228.5"
   sodipodi:version="0.32"
   inkscape:export-xdpi="90"
   version="1.0"
   inkscape:export-ydpi="90"
   inkscape:version="0.92.1 r15371"
   width="139.24266"
   height="243.73334">
  <defs
     id="defs4">
    <linearGradient
       id="linearGradient4009"
       y2="540.09998"
       gradientUnits="userSpaceOnUse"
       x2="306.87"
       gradientTransform="translate(-202.75,-323.7)"
       y1="540.09998"
       x1="212.74001"
       inkscape:collect="always">
      <stop
         id="stop6741"
         style="stop-color:rgb(0, 0, 0)"
         offset="0" />
      <stop
         id="stop6743"
         style="stop-color:rgb(0, 0, 0);stop-opacity:0"
         offset="1" />
    </linearGradient>
  </defs>
  <sodipodi:namedview
     id="base"
     bordercolor="#666666"
     inkscape:pageshadow="2"
     inkscape:guide-bbox="true"
     pagecolor="#ffffff"
     inkscape:window-height="937"
     inkscape:window-maximized="0"
     inkscape:zoom="2.0452675"
     inkscape:window-x="0"
     showgrid="false"
     borderopacity="1.0"
     inkscape:current-layer="layer3"
     inkscape:cx="154.48386"
     inkscape:cy="109.28758"
     showguides="true"
     inkscape:window-y="25"
     inkscape:window-width="1197"
     inkscape:pageopacity="0.0"
     inkscape:document-units="px" />
  <g
     id="layer3"
     inkscape:label="layer"
     transform="translate(26.418,3.7953)"
     inkscape:groupmode="layer"
     sodipodi:insensitive="true">
    <path
       id="path6737"
       style="fill:url(#linearGradient4009)"
       d="m 42.4,208.26 c 18.443,-0.95673 -19.712,3.9073 -22.038,4.2426 -11.793,0.97493 24.959,-2.0201 37.724,-3.0373 26.829,-1.4611 -36.004,5.02 -39.566,5.5816 1.0854,-3.1136 49.18,-8.9851 36.186,-3.784 -20.522,7.1103 -16.793,4.9317 2.9729,3.4211 32.493,-1.8947 -7.0662,3.6567 -18.231,5.4335 -6.1714,-2.0254 56.915,-9.5542 27.842,-3.2312 -1.7967,1.6942 -11.268,2.6047 2.4423,0.23081 1.8154,-0.31433 -3.5852,0.74906 -5.3306,1.2132 -5.8929,1.567 -6.1924,1.9892 0.03024,2.6185 6.1984,0.46827 12.413,0.8133 18.621,1.2157 l -8.9504,2.5372 c -6.276,-0.45518 -12.568,-0.77239 -18.851,-1.1824 -17.559,-1.6894 18.23,-10.975 22.353,-8.1286 -8.0689,1.809 -52.926,7.0647 -29.014,1.9021 27.922,-3.6075 19.484,-0.85571 0.37729,0.0141 -19.306,1.6484 -26.792,2.2494 -4.1987,-5.089 9.3678,-3.0746 -45.648,6.7803 -16.91,-0.058 11.929,-1.4871 63.007,-6.8722 21.666,-0.1219 -14.719,1.0589 -67.331,5.8169 -20.567,-2.1852 21.505,-3.034 27.484,-1.8277 3.668,1.0611 l 9.7742,-2.6537 z"
       inkscape:connector-curvature="0" />
    <path
       id="path4874"
       sodipodi:nodetypes="ccc"
       style="fill:none;stroke:#000000;stroke-width:1.89999998"
       d="m 43.908,79.38 c -16.043,13.405 -27.525,19.407 -33.075,27.36 16.406,0.51 14.674,-5.1 24.087,-5.27"
       inkscape:connector-curvature="0" />
    <path
       id="path4876"
       sodipodi:nodetypes="cscc"
       style="fill:none;stroke:#000000;stroke-width:1.89999998"
       d="m 45.609,79.191 c -0.45926,1.758 3.542,0.48395 3.8148,1.433 4.3135,15.008 3.15,26.118 3.15,26.118 l 26.303,-9.9281"
       inkscape:connector-curvature="0" />
    <path
       id="path4878"
       sodipodi:nodetypes="csc"
       style="fill:none;stroke:#000000;stroke-width:1.89999998"
       d="m 42.075,138.93 c -1.8483,65.272 -5.8126,61.657 -5.26,63.196 0.5398,1.5032 1.0102,3.5355 1.0102,3.5355"
       inkscape:connector-curvature="0" />
    <path
       id="path4880"
       sodipodi:nodetypes="csc"
       style="fill:none;stroke:#000000;stroke-width:1.89999998"
       d="m 45.755,139.95 c 0.11298,23.613 1.1816,56.125 0.17977,62.03 -0.26714,1.5747 11.619,1.7323 11.619,1.7323"
       inkscape:connector-curvature="0" />
    <path
       id="path4882"
       sodipodi:nodetypes="cssc"
       style="fill:#000000;fill-rule:evenodd;stroke:#000000;stroke-width:1px"
       d="m 36.31,202.63 c -2.444,2.4847 -8.1626,2.4836 -5.5558,4.0406 5.3668,3.2055 4.9739,6.7943 8.5863,3.0305 3.9322,-4.0971 13.132,-0.50508 -3.0305,-7.0711 z"
       inkscape:connector-curvature="0" />
    <path
       id="path5757"
       sodipodi:nodetypes="cssc"
       style="fill:#000000;fill-rule:evenodd;stroke:#000000;stroke-width:1px"
       d="m 49.31,200.06 c -2.444,2.4847 -5.6626,1.0551 -3.0558,2.612 5.3668,3.2055 12.831,6.08 16.443,2.3162 3.9322,-4.0971 2.7748,1.6378 -13.388,-4.9282 z"
       inkscape:connector-curvature="0" />
    <path
       id="path5759"
       style="fill:#000000;fill-rule:evenodd;stroke:#000000;stroke-width:1px"
       d="m 29.241,106.45 c -0.60894,-2.5594 -4.9993,-3.6808 2.6201,-5.0536 23.605,-7.4227 4.3056,3.5824 -2.6201,5.0536 z"
       sodipodi:nodetypes="ccc"
       inkscape:transform-center-y="5.1820881"
       inkscape:transform-center-x="1.005043"
       inkscape:connector-curvature="0" />
    <path
       id="path5761"
       style="fill:#000000;fill-rule:evenodd;stroke:#000000;stroke-width:1px"
       d="m 78.491,95.328 c -1.1371,3.3624 -10.364,4.5838 -7.0994,3.9731 6.7209,-1.2574 11.824,4.0724 13.46,-0.96208 1.7811,-5.4802 12.374,-8.9816 -6.3607,-3.011 z"
       sodipodi:nodetypes="cssc"
       inkscape:transform-center-y="-3.3987015"
       inkscape:transform-center-x="1.1515583"
       inkscape:connector-curvature="0" />
    <path
       id="path2841"
       sodipodi:nodetypes="cscsc"
       style="fill:#000000;stroke-width:0"
       d="m -21.56,61.646 c -4.7363,-2.3221 -6.5034,2.5362 -3.0594,4.314 4.2922,2.2156 4.1745,2.5718 9.8155,3.4768 0.47485,-0.21063 -0.50928,-1.0547 -0.53088,-7.4425 -0.02271,-6.7152 -6.5205,-4.4634 -6.2252,-0.34827 z"
       inkscape:connector-curvature="0" />
    <path
       id="path2841-2"
       sodipodi:nodetypes="cscsc"
       style="fill:#000000;stroke-width:0"
       d="m 8.3095,34.679 c -5.3413,-2.0628 -8.0788,2.6978 -4.4423,4.5733 4.364,2.2506 3.483,-0.10758 10.507,3.5632 -0.30304,-3.8408 0.22428,-5.5184 0.33344,-9.4304 0.1695,-6.0743 -5.4833,-4.982 -6.3981,1.2939 z"
       inkscape:connector-curvature="0" />
    <path
       id="path2841-2-0"
       sodipodi:nodetypes="cscsc"
       style="fill:#000000;stroke-width:0"
       d="m 62.312,70.982 c -0.49409,-3.8321 -4.8047,-3.992 -4.7968,-1.2369 0.0095,3.3062 1.3353,2.0484 1.3168,7.3848 2.5689,-1.3721 3.9296,-1.5772 6.6974,-2.7251 4.2975,-1.7823 1.4904,-4.8222 -3.2174,-3.4228 z"
       inkscape:connector-curvature="0" />
    <path
       id="path2841-2-6"
       sodipodi:nodetypes="cscsc"
       style="fill:#000000;stroke-width:0"
       d="m 18.593,73.267 c -4.0118,-1.5329 -6.068,2.0048 -3.3366,3.3984 3.2778,1.6724 2.6161,-0.07995 7.8918,2.6478 -0.22761,-2.8541 0.16846,-4.1007 0.25045,-7.0077 0.12731,-4.5138 -4.1185,-3.7021 -4.8056,0.96153 z"
       inkscape:connector-curvature="0" />
    <path
       id="path2841-1"
       sodipodi:nodetypes="cscsc"
       style="fill:#000000;stroke-width:0"
       inkscape:transform-center-x="7.9517502"
       d="m 71.16,46.461 c 0.41808,-5.2583 -5.9481,-5.0489 -5.1367,-1.2591 1.0579,4.9408 0.42918,4.3192 0.37558,10.406 0.37046,0.36415 0.79356,-0.86137 6.726,-3.23 6.2365,-2.49 1.7534,-7.7048 -1.9649,-5.9172 z"
       inkscape:connector-curvature="0" />
    <path
       id="path2841-5"
       style="fill:#000000;stroke-width:0"
       d="M 5.0974,60.443 C 1.6858,59.0465 0.413,61.9682 2.8937,63.0373 5.9854,64.3697 5.9006,64.5839 9.9639,65.1282 10.30594,65.00153 9.59707,64.49394 9.58151,60.6524 9.565152,56.614 4.88471,57.9682 5.09741,60.44296 Z"
       sodipodi:nodetypes="cscsc"
       inkscape:transform-center-y="5.0939"
       inkscape:transform-center-x="-1.4941809"
       inkscape:connector-curvature="0" />
    <path
       id="path2841-4"
       style="fill:#000000;stroke-width:0"
       d="m 75.933,12.661 c 0.94112,-5.1902 -5.505,-5.458 -5.5353,-1.5824 -0.04318,5.5285 0.68214,4.7791 -0.1155,10.208 0.33224,0.39933 0.87562,-0.77782 7.0149,-2.5422 6.454,-1.8548 2.5141,-7.4912 -1.3642,-6.0839 z"
       sodipodi:nodetypes="cscsc"
       inkscape:transform-center-y="13.137674"
       inkscape:transform-center-x="1.3829131"
       inkscape:connector-curvature="0" />
    <path
       id="path2841-5-7"
       style="fill:#000000;stroke-width:0"
       d="m 53.421,-2.3437 c 2.3037,-2.8778 4.8355,-0.94223 3.1865,1.1973 -2.0553,2.6665 -1.8771,2.8125 -5.1644,5.2619 -0.3605,0.055422 0.01256,-0.7326 -1.8398,-4.098 -1.9473,-3.5379 2.8016,-4.6277 3.8178,-2.3612 z"
       sodipodi:nodetypes="cscsc"
       inkscape:transform-center-y="6.310822"
       inkscape:transform-center-x="-0.95759683"
       inkscape:connector-curvature="0" />
    <path
       id="path2841-4-6"
       style="fill:#000000;stroke-width:0"
       d="m 73.502,28.364 c 1.6014,-1.3704 3.2244,1.5655 1.869,2.2775 -1.9333,1.0157 -1.8419,0.54491 -3.5614,1.892 -0.21918,-0.08189 -0.78101,-0.4368 -0.76997,-3.7053 0.0076,-2.2523 2.0373,-2.513 2.4623,-0.46418 z"
       sodipodi:nodetypes="cscsc"
       inkscape:transform-center-y="3.5973475"
       inkscape:transform-center-x="3.7309457"
       inkscape:connector-curvature="0" />
    <g
       id="g3874"
       transform="translate(-62.68,73.068)">
      <path
         id="path3778"
         d="m 141.79,12.929 c -1.5082,-13.25 3.6735,-23.083 7.5605,-32.464"
         sodipodi:nodetypes="cc"
         style="fill:none;stroke:#000000;stroke-width:1px"
         transform="translate(4.2773,18.954)"
         inkscape:connector-curvature="0" />
      <path
         id="path3780"
         sodipodi:rx="4.1487393"
         sodipodi:ry="5.1859241"
         style="opacity:0.99251003;fill:#000000"
         sodipodi:type="arc"
         d="m 148.58219,-28.147495 a 4.1487393,5.1859241 0 0 1 5.85546,0.201689 4.1487393,5.1859241 0 0 1 -0.14236,7.319945 4.1487393,5.1859241 0 0 1 -5.85639,-0.154232 4.1487393,5.1859241 0 0 1 0.1044,-7.320944"
         sodipodi:open="true"
         transform="translate(4.2773,18.954)"
         sodipodi:cy="-24.375103"
         sodipodi:cx="151.42899"
         sodipodi:end="3.9431937"
         sodipodi:start="3.9561603" />
      <path
         id="path3782"
         sodipodi:nodetypes="cc"
         style="fill:none;stroke:#000000;stroke-width:1px"
         d="m 153.73,-3.5143 c -7.137,6.3809 -12.71,-6.0965 -0.73326,-3.0095"
         inkscape:connector-curvature="0" />
      <path
         id="path3782-5"
         sodipodi:nodetypes="cc"
         style="fill:none;stroke:#000000;stroke-width:1px"
         d="m 154.51,-8.7543 c -6.7575,-7.7408 5.4003,-14.863 2.9654,-1.0215"
         inkscape:connector-curvature="0" />
      <path
         id="path3782-9"
         sodipodi:nodetypes="cc"
         style="fill:none;stroke:#000000;stroke-width:1px"
         d="m 151.91,-7.1002 c -9.3787,-1.9218 -2.6888,-13.838 1.978,-2.3837"
         inkscape:connector-curvature="0" />
      <path
         id="path3782-3"
         sodipodi:nodetypes="cc"
         style="fill:none;stroke:#000000;stroke-width:1px"
         d="m 159.12,-6.944 c 8.6212,-4.1627 10.533,9.3684 -0.12602,3.0949"
         inkscape:connector-curvature="0" />
      <path
         id="path3782-5-7"
         sodipodi:nodetypes="cc"
         style="fill:none;stroke:#000000;stroke-width:1px"
         d="m 157.17,-1.389 c 4.358,9.3055 -9.2936,12.795 -3.1322,0.16319"
         inkscape:connector-curvature="0" />
      <path
         id="path3782-9-4"
         sodipodi:nodetypes="cc"
         style="fill:none;stroke:#000000;stroke-width:1px"
         d="m 159.64,-3.1167 c 8.4837,4.4362 -1.2357,14.042 -2.5592,1.7451"
         inkscape:connector-curvature="0" />
      <path
         id="path3782-5-5"
         sodipodi:nodetypes="cc"
         style="fill:none;stroke:#000000;stroke-width:1px"
         d="m 157.64,-9.914 c 4.2168,-9.3703 15.761,-1.2912 2.1653,2.2691"
         inkscape:connector-curvature="0" />
      <path
         id="path3782-5-54"
         sodipodi:nodetypes="cc"
         style="fill:none;stroke:#000000;stroke-width:1px"
         d="m 153.92,-0.84264 c -2.24,10.027 -12.61,2.1157 -1.72,-1.5422"
         inkscape:connector-curvature="0" />
    </g>
    <path
       id="path3077"
       sodipodi:nodetypes="ccssc"
       style="fill:none;stroke:#000000;stroke-width:3"
       d="m 42.275,70.777 c -0.3646,2.4319 0.09441,3.4249 1.2369,6.4597 7.1402,18.967 5.7548,68.197 1.3775,66.027 -6.733,-3.3382 3.5542,-50.359 -1.4688,-66.018 -0.63375,-1.9758 -1.37,-4.5525 -1.1456,-6.4691 z"
       inkscape:connector-curvature="0" />
    <path
       id="path3075"
       sodipodi:rx="12.857142"
       sodipodi:ry="25"
       style="fill:none;stroke:#000000;stroke-width:2.35339999;stroke-linecap:round"
       sodipodi:type="arc"
       d="m 444.0348,362.03361 a 12.857142,25 0 0 1 18.14636,0.97228 12.857142,25 0 0 1 -0.44121,35.28756 12.857142,25 0 0 1 -18.14922,-0.7435 12.857142,25 0 0 1 0.32354,-35.29239"
       sodipodi:open="true"
       transform="matrix(1.0721,-0.16942,0.13758,0.99168,-498.94,-255.05)"
       sodipodi:cy="380.21933"
       sodipodi:cx="452.85715"
       sodipodi:end="3.9431937"
       sodipodi:start="3.9561603" />
    <path
       id="path4833"
       sodipodi:rx="3.5714285"
       sodipodi:ry="4.6428571"
       style="fill:none;stroke:#000000;stroke-width:2.07500005;stroke-linecap:round"
       sodipodi:type="arc"
       d="m 293.26364,368.62769 a 3.5714285,4.6428571 0 0 1 5.04066,0.18056 3.5714285,4.6428571 0 0 1 -0.12256,6.55341 3.5714285,4.6428571 0 0 1 -5.04145,-0.13808 3.5714285,4.6428571 0 0 1 0.0899,-6.5543"
       sodipodi:open="true"
       transform="matrix(0.96577,-0.25942,0.25942,0.96577,-347.24,-242.63)"
       sodipodi:cy="372.00504"
       sodipodi:cx="295.71429"
       sodipodi:end="3.9431937"
       sodipodi:start="3.9561603" />
    <path
       id="path4835"
       sodipodi:rx="3.5714285"
       sodipodi:ry="4.6428571"
       style="fill:none;stroke:#000000;stroke-width:2.07500005;stroke-linecap:round"
       sodipodi:type="arc"
       d="m 293.26364,368.62769 a 3.5714285,4.6428571 0 0 1 5.04066,0.18056 3.5714285,4.6428571 0 0 1 -0.12256,6.55341 3.5714285,4.6428571 0 0 1 -5.04145,-0.13808 3.5714285,4.6428571 0 0 1 0.0899,-6.5543"
       sodipodi:open="true"
       transform="matrix(0.96577,-0.25942,0.25942,0.96577,-335.99,-245.65)"
       sodipodi:cy="372.00504"
       sodipodi:cx="295.71429"
       sodipodi:end="3.9431937"
       sodipodi:start="3.9561603" />
    <path
       id="path4837"
       sodipodi:nodetypes="cc"
       style="fill:none;stroke:#000000;stroke-width:1.25"
       d="m 48.227,58.018 c -2.7847,3.4803 -11.222,3.3484 -12.53,1.2426"
       inkscape:connector-curvature="0" />
  </g>
  <metadata
     id="metadata42">
    <rdf:RDF>
      <cc:Work>
        <dc:format>image/svg+xml</dc:format>
        <dc:type
           rdf:resource="http://purl.org/dc/dcmitype/StillImage" />
        <cc:license
           rdf:resource="http://creativecommons.org/licenses/publicdomain/" />
        <dc:publisher>
          <cc:Agent
             rdf:about="http://openclipart.org/">
            <dc:title>Openclipart</dc:title>
          </cc:Agent>
        </dc:publisher>
        <dc:title>Al in love</dc:title>
        <dc:date>2010-10-19T20:34:15</dc:date>
        <dc:description>THIS IS AL</dc:description>
        <dc:source>https://openclipart.org/detail/91555/al-in-love-by-cybergedeon</dc:source>
        <dc:creator>
          <cc:Agent>
            <dc:title>dominiquechappard</dc:title>
          </cc:Agent>
        </dc:creator>
        <dc:subject>
          <rdf:Bag>
            <rdf:li>flower</rdf:li>
            <rdf:li>love</rdf:li>
            <rdf:li>stick</rdf:li>
            <rdf:li>stick figure</rdf:li>
            <rdf:li>stick man</rdf:li>
          </rdf:Bag>
        </dc:subject>
      </cc:Work>
      <cc:License
         rdf:about="http://creativecommons.org/licenses/publicdomain/">
        <cc:permits
           rdf:resource="http://creativecommons.org/ns#Reproduction" />
        <cc:permits
           rdf:resource="http://creativecommons.org/ns#Distribution" />
        <cc:permits
           rdf:resource="http://creativecommons.org/ns#DerivativeWorks" />
      </cc:License>
    </rdf:RDF>
  </metadata>
</svg>
