<?xml version="1.0" encoding="UTF-8" standalone="no"?>
<!-- Created with Inkscape (http://www.inkscape.org/) -->

<svg
   xmlns:dc="http://purl.org/dc/elements/1.1/"
   xmlns:cc="http://creativecommons.org/ns#"
   xmlns:rdf="http://www.w3.org/1999/02/22-rdf-syntax-ns#"
   xmlns:svg="http://www.w3.org/2000/svg"
   xmlns="http://www.w3.org/2000/svg"
   xmlns:sodipodi="http://sodipodi.sourceforge.net/DTD/sodipodi-0.dtd"
   xmlns:inkscape="http://www.inkscape.org/namespaces/inkscape"
   id="svg2"
   sodipodi:docname="paro-AL-blind.svg"
   inkscape:export-filename="C:\Documents and Settings\Compaq_Owner\Desktop\PEC sticks-standing1mm.png"
   viewBox="0 0 68.513 204.03"
   sodipodi:version="0.32"
   inkscape:export-xdpi="90"
   version="1.0"
   inkscape:export-ydpi="90"
   inkscape:version="0.92.1 r15371"
   width="73.080536"
   height="217.632">
  <defs
     id="defs4">
    <linearGradient
       id="linearGradient2855"
       y2="539.27002"
       gradientUnits="userSpaceOnUse"
       x2="247.31"
       gradientTransform="translate(-160.12,-300.58)"
       y1="498.13"
       x1="200.38"
       inkscape:collect="always">
      <stop
         id="stop6741"
         style="stop-color:rgb(0, 0, 0)"
         offset="0" />
      <stop
         id="stop6743"
         style="stop-color:rgb(0, 0, 0);stop-opacity:0"
         offset="1" />
    </linearGradient>
  </defs>
  <sodipodi:namedview
     id="base"
     bordercolor="#666666"
     inkscape:pageshadow="2"
     inkscape:guide-bbox="true"
     pagecolor="#ffffff"
     inkscape:window-height="937"
     inkscape:window-maximized="0"
     inkscape:zoom="2.0452675"
     inkscape:window-x="0"
     showgrid="false"
     borderopacity="1.0"
     inkscape:current-layer="layer3"
     inkscape:cx="8.8562862"
     inkscape:cy="167.59543"
     showguides="true"
     inkscape:window-y="25"
     inkscape:window-width="1197"
     inkscape:pageopacity="0.0"
     inkscape:document-units="px" />
  <g
     id="layer3"
     inkscape:label="layer"
     transform="translate(-16.203,-19.326)"
     inkscape:groupmode="layer"
     sodipodi:insensitive="true">
    <g
       id="g2891">
      <path
         id="path4833"
         sodipodi:rx="3.5714285"
         sodipodi:ry="4.6428571"
         style="fill:none;stroke:#000000;stroke-width:2.07500005;stroke-linecap:round"
         sodipodi:type="arc"
         d="m 293.26364,368.62769 a 3.5714285,4.6428571 0 0 1 5.04066,0.18056 3.5714285,4.6428571 0 0 1 -0.12256,6.55341 3.5714285,4.6428571 0 0 1 -5.04145,-0.13808 3.5714285,4.6428571 0 0 1 0.0899,-6.5543"
         sodipodi:open="true"
         transform="matrix(0.96157,-0.27458,0.27458,0.96157,-344.8,-235.14)"
         sodipodi:cy="372.00504"
         sodipodi:cx="295.71429"
         sodipodi:end="3.9431937"
         sodipodi:start="3.9561603" />
      <path
         id="path6737"
         style="fill:url(#linearGradient2855)"
         d="m 53.788,206.92 c 12.611,-0.95673 -13.479,3.9073 -15.069,4.2426 -8.0638,0.97493 17.067,-2.0201 25.796,-3.0373 18.345,-1.4611 -24.619,5.02 -27.055,5.5816 0.74216,-3.1136 33.629,-8.9851 24.744,-3.784 -14.033,7.1103 -11.483,4.9317 2.0329,3.4211 22.218,-1.8947 -4.8319,3.6567 -12.467,5.4335 -4.22,-2.0254 38.918,-9.5542 19.038,-3.2312 -1.2286,1.6942 -7.7048,2.6047 1.6701,0.23081 1.2414,-0.31433 -2.4516,0.74906 -3.645,1.2132 -4.0296,1.567 -4.2343,1.9892 0.02068,2.6185 4.2384,0.46827 8.4882,0.8133 12.733,1.2157 l -6.1202,2.5372 c -4.2915,-0.45518 -8.5942,-0.77239 -12.89,-1.1824 -12.007,-1.6894 12.466,-10.975 15.285,-8.1286 -5.5175,1.809 -36.191,7.0647 -19.84,1.9021 19.093,-3.6075 13.323,-0.85571 0.25799,0.0141 -13.201,1.6484 -18.321,2.2494 -2.871,-5.089 6.4057,-3.0746 -31.214,6.7803 -11.563,-0.058 8.157,-1.4871 43.084,-6.8722 14.815,-0.1219 -10.065,1.0589 -46.041,5.8169 -14.064,-2.1852 14.705,-3.034 18.793,-1.8277 2.5082,1.0611 l 6.6835,-2.6537 z"
         inkscape:connector-curvature="0" />
      <path
         id="path4874"
         sodipodi:nodetypes="cc"
         style="fill:none;stroke:#000000;stroke-width:1.89999998"
         d="M 46.561,76.188 C -7.922,62.859 27.656,64.286 39.986,39.552"
         inkscape:connector-curvature="0" />
      <path
         id="path4876"
         sodipodi:nodetypes="csc"
         style="fill:none;stroke:#000000;stroke-width:1.89999998"
         d="M 47.531,76.577 C 59.225,77.058 82.945,62.51 83.685,56.467 85.42,42.282 58.82,37.657 58.82,37.657"
         inkscape:connector-curvature="0" />
      <path
         id="path4878"
         sodipodi:nodetypes="csc"
         style="fill:none;stroke:#000000;stroke-width:1.89999998"
         d="m 42.075,138.93 c 3.5767,67.984 -5.765,61.681 -5.26,63.196 0.50508,1.5152 1.0102,3.5355 1.0102,3.5355"
         inkscape:connector-curvature="0" />
      <path
         id="path4880"
         sodipodi:nodetypes="csc"
         style="fill:none;stroke:#000000;stroke-width:1.89999998"
         d="m 45.755,139.95 c 11.69,30.184 -1.8496,59.663 -1.4093,62.275 0.2655,1.575 13.208,1.4878 13.208,1.4878"
         inkscape:connector-curvature="0" />
      <path
         id="path4882"
         sodipodi:nodetypes="cssc"
         style="fill:#000000;fill-rule:evenodd;stroke:#000000;stroke-width:1px"
         d="m 36.31,202.63 c -2.444,2.4847 -8.1626,2.4836 -5.5558,4.0406 5.3668,3.2055 4.9739,6.7943 8.5863,3.0305 3.9322,-4.0971 13.132,-0.50508 -3.0305,-7.0711 z"
         inkscape:connector-curvature="0" />
      <path
         id="path5757"
         sodipodi:nodetypes="cssc"
         style="fill:#000000;fill-rule:evenodd;stroke:#000000;stroke-width:1px"
         d="m 49.31,200.06 c -2.444,2.4847 -5.6626,1.0551 -3.0558,2.612 5.3668,3.2055 12.831,6.08 16.443,2.3162 3.9322,-4.0971 2.7748,1.6378 -13.388,-4.9282 z"
         inkscape:connector-curvature="0" />
      <path
         id="path5761"
         style="fill:#000000;fill-rule:evenodd;stroke:#000000;stroke-width:1px"
         d="m 56.75,39.982 c 1.0478,-3.3913 6.6677,-1.5463 3.5741,-2.7542 -6.073,-2.3712 -8.5096,-5.1636 -10.012,-0.08761 -1.6356,5.5254 -12.132,9.3055 6.4381,2.8418 z"
         inkscape:transform-center-x="-3.0617347"
         inkscape:transform-center-y="-0.44314198"
         sodipodi:nodetypes="cssc"
         inkscape:connector-curvature="0" />
      <path
         id="path3077"
         sodipodi:nodetypes="ccssc"
         style="fill:none;stroke:#000000;stroke-width:3"
         d="m 48.398,70.777 c 0.3646,2.4319 -0.09441,3.4249 -1.2369,6.4597 -7.1402,18.967 -5.7548,68.197 -1.3775,66.027 6.733,-3.3382 -3.5542,-50.359 1.4688,-66.018 0.63375,-1.9758 1.37,-4.5525 1.1456,-6.4691 z"
         inkscape:connector-curvature="0" />
      <path
         id="path3075"
         sodipodi:rx="12.857142"
         sodipodi:ry="25"
         style="fill:none;stroke:#000000;stroke-width:2.35339999;stroke-linecap:round"
         sodipodi:type="arc"
         d="m 444.0348,362.03361 a 12.857142,25 0 0 1 18.14636,0.97228 12.857142,25 0 0 1 -0.44121,35.28756 12.857142,25 0 0 1 -18.14922,-0.7435 12.857142,25 0 0 1 0.32354,-35.29239"
         sodipodi:open="true"
         transform="matrix(1.0693,-0.18627,0.15316,0.9894,-497.38,-246.43)"
         sodipodi:cy="380.21933"
         sodipodi:cx="452.85715"
         sodipodi:end="3.9431937"
         sodipodi:start="3.9561603" />
      <path
         id="path4835"
         sodipodi:rx="3.5714285"
         sodipodi:ry="4.6428571"
         style="fill:none;stroke:#000000;stroke-width:1.97950006;stroke-linecap:round"
         sodipodi:type="arc"
         d="m 293.26364,368.62769 a 3.5714285,4.6428571 0 0 1 5.04066,0.18056 3.5714285,4.6428571 0 0 1 -0.12256,6.55341 3.5714285,4.6428571 0 0 1 -5.04145,-0.13808 3.5714285,4.6428571 0 0 1 0.0899,-6.5543"
         sodipodi:open="true"
         transform="matrix(1.143,-0.25381,0.32639,0.88884,-407.17,-216.54)"
         sodipodi:cy="372.00504"
         sodipodi:cx="295.71429"
         sodipodi:end="3.9431937"
         sodipodi:start="3.9561603" />
      <path
         id="path4837"
         sodipodi:nodetypes="cc"
         style="fill:none;stroke:#000000;stroke-width:1.25"
         d="M 54.481,60.012 C 52.6292,56.775 44.063,59.6799 41.967,60.92226"
         inkscape:connector-curvature="0" />
      <path
         id="path3787"
         style="fill:#000000;fill-rule:evenodd;stroke:#000000;stroke-width:1px"
         d="m 41.094,44.287 c -2.9655,-1.9506 -6.1288,3.0474 -4.5097,0.14774 3.1784,-5.6922 3.2827,-9.3968 7.6705,-6.4354 4.7763,3.2236 15.281,-0.53536 -3.1608,6.2876 z"
         sodipodi:nodetypes="cssc"
         inkscape:transform-center-y="1.3880789"
         inkscape:transform-center-x="1.6053984"
         inkscape:connector-curvature="0" />
    </g>
  </g>
  <metadata
     id="metadata23">
    <rdf:RDF>
      <cc:Work>
        <dc:format>image/svg+xml</dc:format>
        <dc:type
           rdf:resource="http://purl.org/dc/dcmitype/StillImage" />
        <cc:license
           rdf:resource="http://creativecommons.org/licenses/publicdomain/" />
        <dc:publisher>
          <cc:Agent
             rdf:about="http://openclipart.org/">
            <dc:title>Openclipart</dc:title>
          </cc:Agent>
        </dc:publisher>
        <dc:title>Al blind</dc:title>
        <dc:date>2010-10-19T20:47:41</dc:date>
        <dc:description />
        <dc:source>https://openclipart.org/detail/91573/al-blind-by-cybergedeon</dc:source>
        <dc:creator>
          <cc:Agent>
            <dc:title>dominiquechappard</dc:title>
          </cc:Agent>
        </dc:creator>
        <dc:subject>
          <rdf:Bag>
            <rdf:li>cartoon</rdf:li>
            <rdf:li>comic</rdf:li>
            <rdf:li>cry</rdf:li>
            <rdf:li>figure</rdf:li>
            <rdf:li>man</rdf:li>
          </rdf:Bag>
        </dc:subject>
      </cc:Work>
      <cc:License
         rdf:about="http://creativecommons.org/licenses/publicdomain/">
        <cc:permits
           rdf:resource="http://creativecommons.org/ns#Reproduction" />
        <cc:permits
           rdf:resource="http://creativecommons.org/ns#Distribution" />
        <cc:permits
           rdf:resource="http://creativecommons.org/ns#DerivativeWorks" />
      </cc:License>
    </rdf:RDF>
  </metadata>
</svg>
