<?xml version="1.0" encoding="UTF-8" standalone="no"?>
<!-- Created with Inkscape (http://www.inkscape.org/) -->

<svg
   xmlns:dc="http://purl.org/dc/elements/1.1/"
   xmlns:cc="http://creativecommons.org/ns#"
   xmlns:rdf="http://www.w3.org/1999/02/22-rdf-syntax-ns#"
   xmlns:svg="http://www.w3.org/2000/svg"
   xmlns="http://www.w3.org/2000/svg"
   xmlns:sodipodi="http://sodipodi.sourceforge.net/DTD/sodipodi-0.dtd"
   xmlns:inkscape="http://www.inkscape.org/namespaces/inkscape"
   id="svg2"
   sodipodi:docname="paro-AL-dancing.svg"
   inkscape:export-filename="C:\Documents and Settings\Compaq_Owner\Desktop\PEC sticks-standing1mm.png"
   viewBox="0 0 178.59 242.69"
   sodipodi:version="0.32"
   inkscape:export-xdpi="90"
   version="1.0"
   inkscape:export-ydpi="90"
   inkscape:version="0.92.1 r15371"
   width="190.496"
   height="258.86932">
  <defs
     id="defs4">
    <linearGradient
       id="linearGradient3768"
       y2="883.59003"
       gradientUnits="userSpaceOnUse"
       x2="591.52002"
       gradientTransform="translate(-0.1101,-523.69)"
       y1="883.59003"
       x1="326.98999"
       inkscape:collect="always">
      <stop
         id="stop6741"
         style="stop-color:rgb(0, 0, 0)"
         offset="0" />
      <stop
         id="stop6743"
         style="stop-color:rgb(0, 0, 0);stop-opacity:0"
         offset="1" />
    </linearGradient>
  </defs>
  <sodipodi:namedview
     id="base"
     bordercolor="#666666"
     inkscape:pageshadow="2"
     inkscape:guide-bbox="true"
     pagecolor="#ffffff"
     inkscape:window-height="937"
     inkscape:window-maximized="0"
     inkscape:zoom="0.51131687"
     inkscape:window-x="0"
     showgrid="false"
     borderopacity="1.0"
     inkscape:current-layer="layer3"
     inkscape:cx="217.76257"
     inkscape:cy="-15.509212"
     showguides="true"
     inkscape:window-y="25"
     inkscape:window-width="1197"
     inkscape:pageopacity="0.0"
     inkscape:document-units="px" />
  <g
     id="layer3"
     inkscape:label="layer"
     transform="translate(-176.22,203.78)"
     inkscape:groupmode="layer"
     sodipodi:insensitive="true">
    <g
       id="g3752">
      <path
         id="path6737"
         style="fill:url(#linearGradient3768)"
         d="m 276.08,22.469 c -44.799,-0.95673 47.883,3.9073 53.532,4.2426 28.646,0.97493 -60.627,-2.0201 -91.635,-3.0373 -65.17,-1.4611 87.457,5.02 96.109,5.5816 -2.6364,-3.1136 -119.46,-8.9851 -87.899,-3.784 49.849,7.1103 40.792,4.9317 -7.2215,3.4211 -78.928,-1.8947 17.165,3.6567 44.286,5.4335 14.991,-2.0254 -138.25,-9.5542 -67.631,-3.2312 4.3644,1.6942 27.37,2.6047 -5.9327,0.23081 -4.4098,-0.31433 8.7088,0.74906 12.949,1.2132 14.314,1.567 15.042,1.9892 -0.0733,2.6185 -15.056,0.46827 -30.153,0.8133 -45.233,1.2157 l 21.741,2.5372 c 15.245,-0.45518 30.53,-0.77239 45.79,-1.1824 42.653,-1.6894 -44.283,-10.975 -54.298,-8.1286 19.6,1.809 128.56,7.0647 70.478,1.9021 -67.825,-3.6075 -47.328,-0.85571 -0.9165,0.0141 46.896,1.6484 65.081,2.2494 10.199,-5.089 -22.755,-3.0746 110.88,6.7803 41.076,-0.058 -28.977,-1.4871 -153.05,-6.8722 -52.629,-0.1219 35.753,1.0589 163.55,5.8169 49.96,-2.1852 -52.238,-3.034 -66.76,-1.8277 -8.9099,1.0611 l -23.742,-2.6537 z"
         inkscape:connector-curvature="0" />
      <path
         id="path4874"
         sodipodi:nodetypes="ccc"
         style="fill:none;stroke:#000000;stroke-width:1.89999998"
         transform="translate(-3.0305,0.2167)"
         d="m 264.73,-143.44 c -19.167,-1.841 -30.36,-1.5928 -38.732,-4.9499 -16.124,-2.871 -10.911,-2.2356 -33.186,-11.919"
         inkscape:connector-curvature="0" />
      <path
         id="path4876"
         sodipodi:nodetypes="cscc"
         style="fill:none;stroke:#000000;stroke-width:1.89999998"
         transform="translate(-3.0305,0.2167)"
         d="m 263.31,-140.13 c 2.2986,0.28904 0.18327,-3.572 1.3604,-3.9343 18.613,-5.7289 32.926,-5.6331 32.926,-5.6331 9.1244,-1.0023 34.996,-3.0153 34.996,-3.0153"
         inkscape:connector-curvature="0" />
      <path
         id="path4878"
         sodipodi:nodetypes="cssc"
         style="fill:none;stroke:#000000;stroke-width:1.89999998"
         transform="translate(-3.0305,0.2167)"
         d="m 268.23,-84.24 c -0.35819,17.19 -0.79583,30.864 -1.2647,41.755 -1.9505,45.309 -4.4409,42.443 -3.9953,44.129 0.53979,2.0429 1.0102,4.8048 1.0102,4.8048"
         inkscape:connector-curvature="0" />
      <path
         id="path4880"
         style="fill:none;stroke:#000000;stroke-width:1.89999998"
         d="m 270.76,-85.57 c 9.6813,-9.06 17.205,-26.548 26.953,-38.192 14.141,-13.336 26.286,-25.266 29.981,-28.468 1.7289,-1.4983 5.3742,-14.646 5.3742,-14.646"
         inkscape:transform-center-x="-28.41448"
         inkscape:transform-center-y="-40.116124"
         transform="translate(-3.0305,0.2167)"
         sodipodi:nodetypes="ccsc"
         inkscape:connector-curvature="0" />
      <path
         id="path4882"
         sodipodi:nodetypes="csssssc"
         style="fill:#000000;fill-rule:evenodd;stroke:#000000;stroke-width:1px"
         transform="translate(-3.0305,0.2167)"
         d="m 262.44,16.216 c -1.0058,4.2505 0.14519,7.809 -1.4604,8.7705 -3.0511,1.8272 -10.582,2.7603 -7.9261,0.80406 7.1041,-5.2333 1.4947,-11.13 5.7117,-16.97 1.7604,-2.4379 2.2734,-6.6095 3.9736,-6.2472 1.7152,0.36546 1.6192,0.062679 3.0279,0.77111 2.2315,1.1223 -2.8784,7.6288 -3.3266,12.872 z"
         inkscape:connector-curvature="0" />
      <path
         id="path5757"
         style="fill:#000000;fill-rule:evenodd;stroke:#000000;stroke-width:1px"
         d="m 334.23,-156.89 c -4.8415,0.26235 -6.3845,4.5626 -5.5451,0.74409 1.7281,-7.8615 5.7596,-17.463 13.01,-17.774 7.8919,-0.3385 0.91363,-4.0482 -7.4644,17.03 z"
         inkscape:transform-center-x="-6.5734273"
         inkscape:transform-center-y="-7.1461683"
         transform="translate(-3.0305,0.2167)"
         sodipodi:nodetypes="cssc"
         inkscape:connector-curvature="0" />
      <path
         id="path5759"
         style="fill:#000000;fill-rule:evenodd;stroke:#000000;stroke-width:1px"
         d="m 191.18,-162.05 c 3.8393,3.1895 8.1696,2.7662 5.7408,3.4267 -5.0003,1.3597 -1.5489,8.4078 -7.2599,3.6054 -6.2166,-5.2276 -19.555,-9.5592 1.5191,-7.032 z"
         inkscape:transform-center-x="-6.2204225"
         inkscape:transform-center-y="-2.8567412"
         transform="translate(-3.0305,0.2167)"
         sodipodi:nodetypes="cssc"
         inkscape:connector-curvature="0" />
      <path
         id="path5761"
         style="fill:#000000;fill-rule:evenodd;stroke:#000000;stroke-width:1px"
         d="m 337.62,-152.12 c -2.7637,-2.2273 -11.205,1.6927 -8.1227,0.45652 6.3462,-2.5451 7.7927,-9.7808 11.875,-6.4103 4.4434,3.6689 15.261,0.9397 -3.752,5.9538 z"
         inkscape:transform-center-x="-10.303226"
         inkscape:transform-center-y="-3.9133471"
         transform="translate(-3.0305,0.2167)"
         sodipodi:nodetypes="cssc"
         inkscape:connector-curvature="0" />
      <path
         id="path3077"
         sodipodi:nodetypes="ccssc"
         style="fill:none;stroke:#000000;stroke-width:3"
         d="m 261.96,-153.28 c 0.56599,2.3931 0.19133,3.4208 -0.69426,6.5403 -5.5348,19.496 -0.0518,68.44 4.1295,65.912 6.4314,-3.8876 -7.7383,-49.887 -4.0378,-65.911 0.4669,-2.0217 0.98587,-4.6508 0.60256,-6.5421 z"
         inkscape:connector-curvature="0" />
      <path
         id="path3075"
         sodipodi:rx="12.857142"
         sodipodi:ry="25"
         style="fill:none;stroke:#000000;stroke-width:2.35339999;stroke-linecap:round"
         sodipodi:type="arc"
         d="m 444.0348,362.03361 a 12.857142,25 0 0 1 18.14636,0.97228 12.857142,25 0 0 1 -0.44121,35.28756 12.857142,25 0 0 1 -18.14922,-0.7435 12.857142,25 0 0 1 0.32354,-35.29239"
         sodipodi:open="true"
         transform="matrix(1.0721,-0.16942,0.13758,0.99168,-275.99,-478)"
         sodipodi:cy="380.21933"
         sodipodi:cx="452.85715"
         sodipodi:end="3.9431937"
         sodipodi:start="3.9561603" />
      <path
         id="path4833"
         sodipodi:rx="3.5714285"
         sodipodi:ry="4.6428571"
         style="fill:none;stroke:#000000;stroke-width:2.07500005;stroke-linecap:round"
         sodipodi:type="arc"
         d="m 293.26364,368.62769 a 3.5714285,4.6428571 0 0 1 5.04066,0.18056 3.5714285,4.6428571 0 0 1 -0.12256,6.55341 3.5714285,4.6428571 0 0 1 -5.04145,-0.13808 3.5714285,4.6428571 0 0 1 0.0899,-6.5543"
         sodipodi:open="true"
         transform="matrix(0.96577,-0.25942,0.25942,0.96577,-124.28,-465.58)"
         sodipodi:cy="372.00504"
         sodipodi:cx="295.71429"
         sodipodi:end="3.9431937"
         sodipodi:start="3.9561603" />
      <path
         id="path4835"
         sodipodi:rx="3.5714285"
         sodipodi:ry="4.6428571"
         style="fill:none;stroke:#000000;stroke-width:2.07500005;stroke-linecap:round"
         sodipodi:type="arc"
         d="m 293.26364,368.62769 a 3.5714285,4.6428571 0 0 1 5.04066,0.18056 3.5714285,4.6428571 0 0 1 -0.12256,6.55341 3.5714285,4.6428571 0 0 1 -5.04145,-0.13808 3.5714285,4.6428571 0 0 1 0.0899,-6.5543"
         sodipodi:open="true"
         transform="matrix(0.96577,-0.25942,0.25942,0.96577,-113.04,-468.6)"
         sodipodi:cy="372.00504"
         sodipodi:cx="295.71429"
         sodipodi:end="3.9431937"
         sodipodi:start="3.9561603" />
      <path
         id="path4837"
         sodipodi:nodetypes="cc"
         style="fill:none;stroke:#000000;stroke-width:1.25"
         d="m 272,-165.99 c -2.8317,6.053 -8.0902,8.7888 -14.735,0.39788"
         inkscape:connector-curvature="0" />
    </g>
  </g>
  <metadata
     id="metadata23">
    <rdf:RDF>
      <cc:Work>
        <dc:format>image/svg+xml</dc:format>
        <dc:type
           rdf:resource="http://purl.org/dc/dcmitype/StillImage" />
        <cc:license
           rdf:resource="http://creativecommons.org/licenses/publicdomain/" />
        <dc:publisher>
          <cc:Agent
             rdf:about="http://openclipart.org/">
            <dc:title>Openclipart</dc:title>
          </cc:Agent>
        </dc:publisher>
        <dc:title>Al dancing</dc:title>
        <dc:date>2010-10-20T19:17:00</dc:date>
        <dc:description>This Al !</dc:description>
        <dc:source>https://openclipart.org/detail/91681/al-dancing-by-cybergedeon</dc:source>
        <dc:creator>
          <cc:Agent>
            <dc:title>dominiquechappard</dc:title>
          </cc:Agent>
        </dc:creator>
        <dc:subject>
          <rdf:Bag>
            <rdf:li>classical dance</rdf:li>
            <rdf:li>dance</rdf:li>
            <rdf:li>dancing</rdf:li>
            <rdf:li>stick</rdf:li>
            <rdf:li>stick figure</rdf:li>
            <rdf:li>stick man</rdf:li>
          </rdf:Bag>
        </dc:subject>
      </cc:Work>
      <cc:License
         rdf:about="http://creativecommons.org/licenses/publicdomain/">
        <cc:permits
           rdf:resource="http://creativecommons.org/ns#Reproduction" />
        <cc:permits
           rdf:resource="http://creativecommons.org/ns#Distribution" />
        <cc:permits
           rdf:resource="http://creativecommons.org/ns#DerivativeWorks" />
      </cc:License>
    </rdf:RDF>
  </metadata>
</svg>
