<?xml version="1.0" encoding="UTF-8" standalone="no"?>
<!-- Created with Inkscape (http://www.inkscape.org/) -->

<svg
   xmlns:dc="http://purl.org/dc/elements/1.1/"
   xmlns:cc="http://creativecommons.org/ns#"
   xmlns:rdf="http://www.w3.org/1999/02/22-rdf-syntax-ns#"
   xmlns:svg="http://www.w3.org/2000/svg"
   xmlns="http://www.w3.org/2000/svg"
   xmlns:sodipodi="http://sodipodi.sourceforge.net/DTD/sodipodi-0.dtd"
   xmlns:inkscape="http://www.inkscape.org/namespaces/inkscape"
   id="svg2"
   sodipodi:docname="paro-AL-sat-on-the-ground.svg"
   inkscape:export-filename="C:\Documents and Settings\Compaq_Owner\Desktop\PEC sticks-standing1mm.png"
   viewBox="0 0 121.28 130.8"
   sodipodi:version="0.32"
   inkscape:export-xdpi="90"
   version="1.0"
   inkscape:export-ydpi="90"
   inkscape:version="0.92.1 r15371"
   width="129.36533"
   height="139.52">
  <defs
     id="defs4">
    <linearGradient
       id="linearGradient3718"
       y2="43.896999"
       gradientUnits="userSpaceOnUse"
       x2="299.64001"
       gradientTransform="translate(113.88,68.216)"
       y1="43.896999"
       x1="103.95"
       inkscape:collect="always">
      <stop
         id="stop3687"
         style="stop-color:#000000"
         offset="0" />
      <stop
         id="stop3689"
         style="stop-color:#000000;stop-opacity:0"
         offset="1" />
    </linearGradient>
  </defs>
  <sodipodi:namedview
     id="base"
     bordercolor="#666666"
     inkscape:pageshadow="2"
     inkscape:guide-bbox="true"
     pagecolor="#ffffff"
     inkscape:window-height="972"
     inkscape:window-maximized="0"
     inkscape:zoom="3.0350303"
     inkscape:window-x="-4"
     showgrid="false"
     borderopacity="1.0"
     inkscape:current-layer="layer3"
     inkscape:cx="72.83534"
     inkscape:cy="44.523201"
     showguides="true"
     inkscape:window-y="-2"
     inkscape:window-width="1246"
     inkscape:pageopacity="0.0"
     inkscape:document-units="px" />
  <g
     id="layer3"
     inkscape:label="layer"
     transform="translate(-115.13,79.126)"
     inkscape:groupmode="layer"
     sodipodi:insensitive="true">
    <g
       id="g3703">
      <path
         id="path6737"
         sodipodi:nodetypes="cccccccscccccccc"
         style="fill:url(#linearGradient3718)"
         d="m 176.99,40.731 c 34.812,1.0233 -37.209,1.3083 -41.599,1.358 -22.26,-0.35192 47.113,0.78087 71.209,1.1936 50.643,1.4309 -67.962,0.62707 -74.685,0.74322 2.0487,-2.4856 92.832,-2.6287 68.305,0.41999 -38.737,3.8956 -31.699,2.4494 5.6117,3.1421 13.691,0.39145 7.0871,-0.66835 19.207,-1.1455 24.748,-3.07e-4 1.8414,2.9693 -1.088,3.3589 -14.046,1.868 -29.526,1.2716 -38.283,1.8674 41.853,-0.6965 -83.801,1.2797 -4.2054,-7.4083 17.683,-1.6358 -86.166,1.1412 -31.92,-1.717 22.517,-0.06114 118.93,0.49528 40.898,2.0366 -27.784,-0.5708 -127.1,-1.8008 -38.823,-3.8493 40.593,-0.4042 51.878,1.1902 6.9238,1.2455 l 18.45,-1.2452 8e-5,1.8e-5 z"
         inkscape:connector-curvature="0" />
      <path
         id="path4876"
         style="fill:none;stroke:#000000;stroke-width:1.89999998"
         d="m 197.26,21.969 c -0.16574,-1.4065 -8.3594,-1.8078 -9.4494,-2.6508 -20.851,-13.093 -27.49,-30.031 -34.82,-48.587"
         inkscape:transform-center-x="-22.726995"
         inkscape:transform-center-y="26.83043"
         transform="translate(-3.0305,0.21678)"
         sodipodi:nodetypes="ccc"
         inkscape:connector-curvature="0" />
      <path
         id="path4878"
         style="fill:none;stroke:#000000;stroke-width:1.89999998"
         d="m 132.57,39.055 c 7.6369,-9.7569 27.545,-40.723 36.096,-32.892 10.56,9.6698 20.995,25.366 32.334,36.771 1.9029,0.07196 8.5452,-7.2155 8.5452,-7.2155"
         inkscape:transform-center-x="7.6413888"
         inkscape:transform-center-y="15.654291"
         transform="translate(-3.0305,0.21678)"
         sodipodi:nodetypes="cscc"
         inkscape:connector-curvature="0" />
      <path
         id="path4880"
         style="fill:none;stroke:#000000;stroke-width:1.89999998"
         d="m 132.69,40.277 c 36.793,-15.35 58.565,-16.659 93.935,-0.78466 2.6137,1.2641 1.8707,-5.0903 1.8707,-5.0903"
         inkscape:transform-center-x="-49.367108"
         inkscape:transform-center-y="-5.6225259"
         transform="translate(-3.0305,0.21678)"
         sodipodi:nodetypes="ccc"
         inkscape:connector-curvature="0" />
      <path
         id="path4882"
         sodipodi:nodetypes="cssc"
         style="fill:#000000;fill-rule:evenodd;stroke:#000000;stroke-width:1px"
         transform="translate(-3.0305,0.21678)"
         d="m 210.31,34.447 c 3.4135,1.7532 8.4917,-1.6605 6.4267,0.2911 -4.2514,4.018 -4.3858,2.6433 -8.863,5.1218 -4.8486,2.6841 -11.524,3.883 2.4363,-5.4129 z"
         inkscape:connector-curvature="0" />
      <path
         id="path5757"
         sodipodi:nodetypes="cssc"
         style="fill:#000000;fill-rule:evenodd;stroke:#000000;stroke-width:1px"
         transform="translate(-3.0305,0.21678)"
         d="m 226.94,34.78 c 1.3251,3.2235 -1.2538,5.6219 1.2019,3.8362 5.0558,-3.6764 10.631,-9.4119 8.5886,-14.212 -2.2233,-5.2254 2.596,-1.9086 -9.7905,10.376 z"
         inkscape:connector-curvature="0" />
      <path
         id="path5759"
         style="fill:#000000;fill-rule:evenodd;stroke:#000000;stroke-width:1px"
         d="m 197.21,19.584 c 1.945,1.9254 2.7748,0.7895 3.6445,2.2238 1.7409,2.871 0.94556,4.2287 -3.5282,1.3991 -4.8699,-3.0801 -16.513,-3.9821 -0.11624,-3.623 z"
         inkscape:transform-center-x="-3.4380628"
         inkscape:transform-center-y="1.9124638"
         transform="translate(-3.0305,0.21678)"
         sodipodi:nodetypes="cssc"
         inkscape:connector-curvature="0" />
      <path
         id="path4874"
         style="fill:none;stroke:#000000;stroke-width:1.89999998"
         d="m 153.02,-27.247 c 0.60035,31.585 21.158,34.742 43.126,44.317"
         inkscape:transform-center-x="-5.396003"
         inkscape:transform-center-y="-8.5436714"
         transform="translate(-3.0305,0.21678)"
         sodipodi:nodetypes="cc"
         inkscape:connector-curvature="0" />
      <path
         id="path5761"
         style="fill:#000000;fill-rule:evenodd;stroke:#000000;stroke-width:1px"
         d="m 199.98,13.644 c 2.8835,-0.8314 7.8616,-4.2338 7.2561,-2.3397 -0.57967,1.8142 -2.4091,7.9973 -5.8522,6.7082 -3.7479,-1.4033 -11.716,1.971 -1.4039,-4.3685 z"
         inkscape:transform-center-x="-2.9851548"
         transform="translate(-3.0305,0.21678)"
         sodipodi:nodetypes="cssc"
         inkscape:connector-curvature="0" />
      <path
         id="path3077"
         sodipodi:nodetypes="cccsc"
         style="fill:none;stroke:#000000;stroke-width:3;stroke-linecap:round;stroke-linejoin:round"
         d="m 151.07,-28.841 c -2.7737,2.1401 -1.9871,1.1365 -4.422,3.659 -13.511,6.1976 -27.514,54.906 -17.374,65.256 -15.091,-2.9746 -23.357,-49.441 14.845,-66.069 1.9491,-0.84836 8.0407,-2.2237 6.9515,-2.8461 z"
         inkscape:connector-curvature="0" />
      <path
         id="path3075"
         sodipodi:rx="12.857142"
         sodipodi:ry="25"
         style="fill:none;stroke:#000000;stroke-width:2.35339999;stroke-linecap:round"
         sodipodi:type="arc"
         d="m 444.0348,362.03361 a 12.857142,25 0 0 1 18.14636,0.97228 12.857142,25 0 0 1 -0.44121,35.28756 12.857142,25 0 0 1 -18.14922,-0.7435 12.857142,25 0 0 1 0.32354,-35.29239"
         sodipodi:open="true"
         transform="matrix(1.0534,0.26143,-0.25945,0.96698,-218.95,-539.54)"
         sodipodi:cy="380.21933"
         sodipodi:cx="452.85715"
         sodipodi:end="3.9431937"
         sodipodi:start="3.9561603" />
      <path
         id="path4835"
         sodipodi:rx="3.5714285"
         sodipodi:ry="4.6428571"
         style="fill:none;stroke:#000000;stroke-width:2.07500005;stroke-linecap:round"
         sodipodi:type="arc"
         d="m 293.26364,368.62769 a 3.5714285,4.6428571 0 0 1 5.04066,0.18056 3.5714285,4.6428571 0 0 1 -0.12256,6.55341 3.5714285,4.6428571 0 0 1 -5.04145,-0.13808 3.5714285,4.6428571 0 0 1 0.0899,-6.5543"
         sodipodi:open="true"
         transform="matrix(0.99055,0.13714,-0.13714,0.99055,-73.039,-467.36)"
         sodipodi:cy="372.00504"
         sodipodi:cx="295.71429"
         sodipodi:end="3.9431937"
         sodipodi:start="3.9561603" />
      <path
         id="path4837"
         sodipodi:nodetypes="cc"
         style="fill:none;stroke:#000000;stroke-width:1.25"
         d="m 166.58,-37.219 c -4.1711,0.29138 -6.769,-2.2382 -8.0164,-5.108"
         inkscape:connector-curvature="0" />
    </g>
  </g>
  <metadata
     id="metadata22">
    <rdf:RDF>
      <cc:Work>
        <dc:format>image/svg+xml</dc:format>
        <dc:type
           rdf:resource="http://purl.org/dc/dcmitype/StillImage" />
        <cc:license
           rdf:resource="http://creativecommons.org/licenses/publicdomain/" />
        <dc:publisher>
          <cc:Agent
             rdf:about="http://openclipart.org/">
            <dc:title>Openclipart</dc:title>
          </cc:Agent>
        </dc:publisher>
        <dc:title>Al sat down on the ground</dc:title>
        <dc:date>2010-10-19T14:51:35</dc:date>
        <dc:description />
        <dc:source>https://openclipart.org/detail/91525/al-sat-down-on-the-ground-by-cybergedeon</dc:source>
        <dc:creator>
          <cc:Agent>
            <dc:title>dominiquechappard</dc:title>
          </cc:Agent>
        </dc:creator>
        <dc:subject>
          <rdf:Bag>
            <rdf:li>man</rdf:li>
            <rdf:li>sat down</rdf:li>
            <rdf:li>sit down</rdf:li>
          </rdf:Bag>
        </dc:subject>
      </cc:Work>
      <cc:License
         rdf:about="http://creativecommons.org/licenses/publicdomain/">
        <cc:permits
           rdf:resource="http://creativecommons.org/ns#Reproduction" />
        <cc:permits
           rdf:resource="http://creativecommons.org/ns#Distribution" />
        <cc:permits
           rdf:resource="http://creativecommons.org/ns#DerivativeWorks" />
      </cc:License>
    </rdf:RDF>
  </metadata>
</svg>
