<?xml version="1.0" encoding="UTF-8" standalone="no"?>
<!-- Created with Inkscape (http://www.inkscape.org/) -->

<svg
   xmlns:dc="http://purl.org/dc/elements/1.1/"
   xmlns:cc="http://creativecommons.org/ns#"
   xmlns:rdf="http://www.w3.org/1999/02/22-rdf-syntax-ns#"
   xmlns:svg="http://www.w3.org/2000/svg"
   xmlns="http://www.w3.org/2000/svg"
   xmlns:sodipodi="http://sodipodi.sourceforge.net/DTD/sodipodi-0.dtd"
   xmlns:inkscape="http://www.inkscape.org/namespaces/inkscape"
   id="svg2"
   sodipodi:docname="paro-AL-sad.svg"
   inkscape:export-filename="C:\Documents and Settings\Compaq_Owner\Desktop\PEC sticks-standing1mm.png"
   viewBox="0 0 105.82 206.03"
   sodipodi:version="0.32"
   inkscape:export-xdpi="90"
   version="1.0"
   inkscape:export-ydpi="90"
   inkscape:version="0.92.1 r15371"
   width="112.87466"
   height="219.76534">
  <defs
     id="defs4">
    <linearGradient
       id="linearGradient2927"
       y2="539.27002"
       gradientUnits="userSpaceOnUse"
       x2="247.31"
       gradientTransform="translate(-187.17,-302.57)"
       y1="498.13"
       x1="200.38"
       inkscape:collect="always">
      <stop
         id="stop6741"
         style="stop-color:rgb(0, 0, 0)"
         offset="0" />
      <stop
         id="stop6743"
         style="stop-color:rgb(0, 0, 0);stop-opacity:0"
         offset="1" />
    </linearGradient>
  </defs>
  <sodipodi:namedview
     id="base"
     bordercolor="#666666"
     inkscape:pageshadow="2"
     inkscape:guide-bbox="true"
     pagecolor="#ffffff"
     inkscape:window-height="937"
     inkscape:window-maximized="0"
     inkscape:zoom="2.0452675"
     inkscape:window-x="0"
     showgrid="false"
     borderopacity="1.0"
     inkscape:current-layer="layer3"
     inkscape:cx="-1.9947919"
     inkscape:cy="167.30478"
     showguides="true"
     inkscape:window-y="25"
     inkscape:window-width="1197"
     inkscape:pageopacity="0.0"
     inkscape:document-units="px" />
  <g
     id="layer3"
     inkscape:label="layer"
     inkscape:groupmode="layer"
     transform="translate(10.847,-17.335)">
    <g
       id="g2941">
      <path
         id="path6737"
         style="fill:url(#linearGradient2927)"
         d="m 53.887,208.14 c 15.45,-0.95673 -16.513,3.9073 -18.462,4.2426 -9.8789,0.97493 20.908,-2.0201 31.602,-3.0373 22.475,-1.4611 -30.161,5.02 -33.145,5.5816 0.90922,-3.1136 41.198,-8.9851 30.313,-3.784 -17.191,7.1103 -14.068,4.9317 2.4905,3.4211 27.22,-1.8947 -5.9195,3.6567 -15.273,5.4335 -5.1699,-2.0254 47.678,-9.5542 23.324,-3.2312 -1.5051,1.6942 -9.4391,2.6047 2.046,0.23081 1.5208,-0.31433 -3.0034,0.74906 -4.4655,1.2132 -4.9366,1.567 -5.1874,1.9892 0.02533,2.6185 5.1925,0.46827 10.399,0.8133 15.599,1.2157 l -7.4979,2.5372 c -5.2575,-0.45518 -10.529,-0.77239 -15.792,-1.1824 -14.71,-1.6894 15.272,-10.975 18.725,-8.1286 -6.7594,1.809 -44.337,7.0647 -24.306,1.9021 23.391,-3.6075 16.322,-0.85571 0.31606,0.0141 -16.173,1.6484 -22.444,2.2494 -3.5173,-5.089 7.8476,-3.0746 -38.24,6.7803 -14.166,-0.058 9.9931,-1.4871 52.782,-6.8722 18.15,-0.1219 -12.33,1.0589 -56.404,5.8169 -17.23,-2.1852 18.015,-3.034 23.023,-1.8277 3.0727,1.0611 l 8.188,-2.6537 z"
         inkscape:connector-curvature="0" />
      <path
         id="path3841"
         sodipodi:nodetypes="cc"
         style="fill:none;stroke:#000000;stroke-width:1px"
         d="m 65.494,51.2 c -1.8561,3.9646 0.95166,1.775 0,0 z"
         inkscape:connector-curvature="0" />
      <path
         id="path3841-2"
         sodipodi:nodetypes="cc"
         style="fill:none;stroke:#000000;stroke-width:1px"
         d="m 66.721,57.681 c -1.3794,4.5805 1.28,2.0507 0,0 z"
         inkscape:connector-curvature="0" />
      <path
         id="path3841-2-0"
         sodipodi:nodetypes="cc"
         style="fill:none;stroke:#000000;stroke-width:1px"
         d="m 59.525,49.963 c -2.8184,3.1343 -0.17882,2.239 0,0 z"
         inkscape:connector-curvature="0" />
      <path
         id="path3841-2-1"
         sodipodi:nodetypes="cc"
         style="fill:none;stroke:#000000;stroke-width:1px"
         d="m 67.914,70.589 c -2.5531,4.3303 1.1397,2.3775 0,0 z"
         inkscape:connector-curvature="0" />
      <path
         id="path3841-2-5"
         sodipodi:nodetypes="cc"
         style="fill:none;stroke:#000000;stroke-width:1px"
         d="m 71.887,65.268 c 0.2652,4.5114 2.3502,1.5964 0,0 z"
         inkscape:connector-curvature="0" />
      <path
         id="path4874"
         sodipodi:nodetypes="ccc"
         style="fill:none;stroke:#000000;stroke-width:1.89999998"
         transform="translate(-3.0305,0.21677)"
         d="M 50.812,77.841 C 35.204,76.862 19.527,72.959 13.708,76.762 5.7516,93.241 33.037,105.37 26.811,113.08"
         inkscape:connector-curvature="0" />
      <path
         id="path4876"
         style="fill:none;stroke:#000000;stroke-width:1.89999998"
         d="m 81.559,53.706 c 6.3662,11.178 7.6752,24.431 6.6657,31.022 -15.142,2.3909 -36.514,-7.4489 -36.514,-7.4489"
         inkscape:transform-center-x="-17.428199"
         inkscape:transform-center-y="-9.2111442"
         transform="translate(-3.0305,0.21677)"
         sodipodi:nodetypes="ccc"
         inkscape:connector-curvature="0" />
      <path
         id="path4878"
         sodipodi:nodetypes="csc"
         style="fill:none;stroke:#000000;stroke-width:1.89999998"
         transform="translate(-3.0305,0.21677)"
         d="m 29.949,140.91 c 3.5767,67.984 -5.765,61.681 -5.26,63.196 0.50508,1.5152 1.0102,3.5355 1.0102,3.5355"
         inkscape:connector-curvature="0" />
      <path
         id="path4882"
         sodipodi:nodetypes="cssc"
         style="fill:#000000;fill-rule:evenodd;stroke:#000000;stroke-width:1px"
         transform="translate(-3.0305,0.21677)"
         d="m 24.184,204.61 c -2.444,2.4847 -8.1626,2.4836 -5.5558,4.0406 5.3668,3.2055 4.9739,6.7943 8.5863,3.0305 3.9322,-4.0971 13.132,-0.50508 -3.0305,-7.0711 z"
         inkscape:connector-curvature="0" />
      <g
         id="g3816"
         transform="matrix(0.97781,-0.2095,0.2095,0.97781,-31.965,11.517)">
        <path
           id="path4880"
           sodipodi:nodetypes="csc"
           style="fill:none;stroke:#000000;stroke-width:1.89999998"
           d="m 33.628,141.93 c 11.69,30.184 -1.8496,59.663 -1.4093,62.275 0.2655,1.575 13.208,1.4878 13.208,1.4878"
           inkscape:connector-curvature="0" />
        <path
           id="path5757"
           sodipodi:nodetypes="cssc"
           style="fill:#000000;fill-rule:evenodd;stroke:#000000;stroke-width:1px"
           d="m 37.184,202.04 c -2.444,2.4847 -5.6626,1.0551 -3.0558,2.612 5.3668,3.2055 12.831,6.08 16.443,2.3162 3.9322,-4.0971 2.7748,1.6378 -13.388,-4.9282 z"
           inkscape:connector-curvature="0" />
      </g>
      <path
         id="path5761"
         style="fill:#000000;fill-rule:evenodd;stroke:#000000;stroke-width:1px"
         d="m 77.58,53.301 c 3.1471,-1.6415 5.7902,3.6501 4.4718,0.60191 -2.5879,-5.9838 -2.318,-9.68 -6.9822,-7.1763 -5.0772,2.7254 -15.149,-2.0741 2.5104,6.5744 z"
         inkscape:transform-center-x="-1.3070476"
         inkscape:transform-center-y="2.0342818"
         transform="translate(-3.0305,0.21677)"
         sodipodi:nodetypes="cssc"
         inkscape:connector-curvature="0" />
      <path
         id="path3787"
         style="fill:#000000;fill-rule:evenodd;stroke:#000000;stroke-width:1px"
         d="m 25.283,113.66 c 3.2097,-1.5155 0.59078,-6.8191 2.2228,-3.9267 3.2037,5.678 6.3117,7.6966 1.4983,9.8998 -5.2396,2.3983 -7.502,13.323 -3.7211,-5.9731 z"
         sodipodi:nodetypes="cssc"
         inkscape:transform-center-y="-2.8648816"
         transform="translate(-3.0305,0.21677)"
         inkscape:transform-center-x="-0.58682935"
         inkscape:connector-curvature="0" />
      <path
         id="path3077"
         sodipodi:nodetypes="ccssc"
         style="fill:none;stroke:#000000;stroke-width:3"
         d="m 50.77,73.204 c -0.30734,2.4398 -1.018,3.2714 -2.9393,5.8837 -12.008,16.326 -24.001,64.093 -19.2,63.189 7.3852,-1.3909 10.211,-49.44 19.285,-63.155 1.1449,-1.7304 2.5512,-4.0117 2.8541,-5.9174 z"
         inkscape:connector-curvature="0" />
      <g
         id="g3810"
         inkscape:transform-center-x="-10.68602"
         inkscape:transform-center-y="-23.78777"
         transform="matrix(0.91026,0.41405,-0.52925,0.85786,43.219,-9.6454)">
        <path
           id="path3075"
           sodipodi:rx="12.857142"
           sodipodi:ry="25"
           style="fill:none;stroke:#000000;stroke-width:2.35339999;stroke-linecap:round"
           sodipodi:type="arc"
           d="m 444.0348,362.03361 a 12.857142,25 0 0 1 18.14636,0.97228 12.857142,25 0 0 1 -0.44121,35.28756 12.857142,25 0 0 1 -18.14922,-0.7435 12.857142,25 0 0 1 0.32354,-35.29239"
           sodipodi:open="true"
           transform="matrix(1.0693,-0.18627,0.15316,0.9894,-497.38,-244.48)"
           sodipodi:cy="380.21933"
           sodipodi:cx="452.85715"
           sodipodi:end="3.9431937"
           sodipodi:start="3.9561603" />
        <path
           id="path4833"
           sodipodi:rx="3.5714285"
           sodipodi:ry="4.6428571"
           style="fill:none;stroke:#000000;stroke-width:2.07500005;stroke-linecap:round"
           sodipodi:type="arc"
           d="m 293.26364,368.62769 a 3.5714285,4.6428571 0 0 1 5.04066,0.18056 3.5714285,4.6428571 0 0 1 -0.12256,6.55341 3.5714285,4.6428571 0 0 1 -5.04145,-0.13808 3.5714285,4.6428571 0 0 1 0.0899,-6.5543"
           sodipodi:open="true"
           transform="matrix(0.96157,-0.27458,0.27458,0.96157,-345.5,-234.45)"
           sodipodi:cy="372.00504"
           sodipodi:cx="295.71429"
           sodipodi:end="3.9431937"
           sodipodi:start="3.9561603" />
        <path
           id="path4835"
           sodipodi:rx="3.5714285"
           sodipodi:ry="4.6428571"
           style="fill:none;stroke:#000000;stroke-width:2.07500005;stroke-linecap:round"
           sodipodi:type="arc"
           d="m 293.26364,368.62769 a 3.5714285,4.6428571 0 0 1 5.04066,0.18056 3.5714285,4.6428571 0 0 1 -0.12256,6.55341 3.5714285,4.6428571 0 0 1 -5.04145,-0.13808 3.5714285,4.6428571 0 0 1 0.0899,-6.5543"
           sodipodi:open="true"
           transform="matrix(0.96157,-0.27458,0.27458,0.96157,-334.3,-237.64)"
           sodipodi:cy="372.00504"
           sodipodi:cx="295.71429"
           sodipodi:end="3.9431937"
           sodipodi:start="3.9561603" />
        <path
           id="path4837"
           sodipodi:nodetypes="cc"
           style="fill:none;stroke:#000000;stroke-width:1.25"
           d="M 53.876,62.506 C 52.025,56.459 43.458,61.886 41.362,64.207"
           inkscape:connector-curvature="0" />
      </g>
    </g>
  </g>
  <metadata
     id="metadata30">
    <rdf:RDF>
      <cc:Work>
        <dc:format>image/svg+xml</dc:format>
        <dc:type
           rdf:resource="http://purl.org/dc/dcmitype/StillImage" />
        <cc:license
           rdf:resource="http://creativecommons.org/licenses/publicdomain/" />
        <dc:publisher>
          <cc:Agent
             rdf:about="http://openclipart.org/">
            <dc:title>Openclipart</dc:title>
          </cc:Agent>
        </dc:publisher>
        <dc:title>Al sad</dc:title>
        <dc:date>2010-10-17T20:35:47</dc:date>
        <dc:description />
        <dc:source>https://openclipart.org/detail/91297/al-sad-by-cybergedeon</dc:source>
        <dc:creator>
          <cc:Agent>
            <dc:title>dominiquechappard</dc:title>
          </cc:Agent>
        </dc:creator>
        <dc:subject>
          <rdf:Bag>
            <rdf:li>sad</rdf:li>
            <rdf:li>stickman</rdf:li>
          </rdf:Bag>
        </dc:subject>
      </cc:Work>
      <cc:License
         rdf:about="http://creativecommons.org/licenses/publicdomain/">
        <cc:permits
           rdf:resource="http://creativecommons.org/ns#Reproduction" />
        <cc:permits
           rdf:resource="http://creativecommons.org/ns#Distribution" />
        <cc:permits
           rdf:resource="http://creativecommons.org/ns#DerivativeWorks" />
      </cc:License>
    </rdf:RDF>
  </metadata>
</svg>
