<?xml version="1.0" encoding="UTF-8" standalone="no"?>
<!-- Created with Inkscape (http://www.inkscape.org/) -->

<svg
   xmlns:dc="http://purl.org/dc/elements/1.1/"
   xmlns:cc="http://creativecommons.org/ns#"
   xmlns:rdf="http://www.w3.org/1999/02/22-rdf-syntax-ns#"
   xmlns:svg="http://www.w3.org/2000/svg"
   xmlns="http://www.w3.org/2000/svg"
   xmlns:sodipodi="http://sodipodi.sourceforge.net/DTD/sodipodi-0.dtd"
   xmlns:inkscape="http://www.inkscape.org/namespaces/inkscape"
   id="svg2"
   sodipodi:docname="paro-AL-walking.svg"
   inkscape:export-filename="C:\Documents and Settings\Compaq_Owner\Desktop\PEC sticks-standing1mm.png"
   viewBox="0 0 150.89 221.94"
   sodipodi:version="0.32"
   inkscape:export-xdpi="90"
   version="1.0"
   inkscape:export-ydpi="90"
   inkscape:version="0.92.1 r15371"
   width="160.94933"
   height="236.73601">
  <defs
     id="defs4">
    <linearGradient
       id="linearGradient2965"
       y2="610.07001"
       gradientUnits="userSpaceOnUse"
       x2="415.35999"
       gradientTransform="translate(-108.34,-400.38)"
       y1="610.07001"
       x1="158.03999"
       inkscape:collect="always">
      <stop
         id="stop6741"
         style="stop-color:rgb(0, 0, 0)"
         offset="0" />
      <stop
         id="stop6743"
         style="stop-color:rgb(0, 0, 0);stop-opacity:0"
         offset="1" />
    </linearGradient>
  </defs>
  <sodipodi:namedview
     id="base"
     bordercolor="#666666"
     inkscape:pageshadow="2"
     inkscape:guide-bbox="true"
     pagecolor="#ffffff"
     inkscape:window-height="999"
     inkscape:window-maximized="0"
     inkscape:zoom="2.2238683"
     inkscape:window-x="-4"
     showgrid="false"
     borderopacity="1.0"
     inkscape:current-layer="layer3"
     inkscape:cx="-9.1919089"
     inkscape:cy="91.661226"
     showguides="true"
     inkscape:window-y="-2"
     inkscape:window-width="1280"
     inkscape:pageopacity="0.0"
     inkscape:document-units="px" />
  <g
     id="layer3"
     inkscape:label="layer"
     inkscape:groupmode="layer"
     transform="translate(-67.992,80.475)">
    <path
       id="path6737"
       sodipodi:nodetypes="ccccccccccccccccc"
       style="fill:url(#linearGradient2965)"
       d="m 126.15,120.45 c 33.095,2.2479 -35.373,2.8739 -39.547,2.9831 -21.162,-0.77307 44.788,1.7153 67.695,2.622 48.144,3.1433 -64.609,1.3775 -71,1.6326 1.9476,-5.4601 88.252,-5.7744 64.935,0.92259 -36.826,8.5574 -30.135,5.3806 5.3349,6.9022 21.598,1.4269 39.07,-1.9386 59.285,-2.9098 0.7165,1.8313 1.9278,3.7077 6.0324,6.7789 -9.9075,-0.14532 -10.104,-0.96574 -27.884,-0.52548 -19.119,-1.1211 -64.902,3.3865 -56.603,2.0018 39.788,-1.53 -88.927,7.1538 -3.9979,-12.655 16.81,-3.5933 -81.915,2.507 -30.345,-3.7718 21.406,-0.1343 113.06,1.088 38.88,4.4738 -26.413,-1.2539 -120.82,-3.9557 -36.908,-8.4557 38.59,-0.8879 49.319,2.6146 6.5822,2.7361 l 17.54,-2.7353 8e-5,4e-5 z"
       inkscape:connector-curvature="0" />
    <path
       id="path4876"
       sodipodi:nodetypes="ccc"
       style="fill:none;stroke:#000000;stroke-width:1.89999998"
       d="m 149.01,-24.329 c -0.17004,1.3435 -6.4749,0.38341 -7.3376,1.0253 -16.411,9.323 -22.025,24.736 -28.219,41.613"
       inkscape:connector-curvature="0" />
    <path
       id="path4878"
       style="fill:none;stroke:#000000;stroke-width:1.89999998"
       d="m 143.79,44.363 c 20.707,25.399 13.079,49.992 16.872,78.838 1.4692,1.2115 11.17,-0.55298 11.17,-0.55298"
       sodipodi:nodetypes="ccc"
       inkscape:transform-center-y="5.4306282"
       inkscape:transform-center-x="13.382174"
       inkscape:connector-curvature="0" />
    <path
       id="path4880"
       sodipodi:nodetypes="ccc"
       style="fill:none;stroke:#000000;stroke-width:1.89999998"
       d="m 144.93,41.11 c -18.682,34.112 -33.119,48.752 -64.407,59.698 -2.3517,0.74393 2.8822,8.0154 2.8822,8.0154"
       inkscape:connector-curvature="0" />
    <path
       id="path4882"
       style="fill:#000000;fill-rule:evenodd;stroke:#000000;stroke-width:1px"
       d="m 175.4,119.93 c 2.7471,3.132 10.281,2.4509 6.895,3.2276 -6.9717,1.599 -6.3323,0.31777 -12.671,0.44714 -6.8643,0.14011 -14.885,-1.8808 5.7758,-3.6748 z"
       sodipodi:nodetypes="cssc"
       inkscape:transform-center-y="11.69134"
       inkscape:transform-center-x="-27.299545"
       inkscape:connector-curvature="0" />
    <path
       id="path5757"
       sodipodi:nodetypes="cssc"
       style="fill:#000000;fill-rule:evenodd;stroke:#000000;stroke-width:1px"
       d="m 82.349,101.99 c -3.4837,0.10173 -4.8173,-3.1579 -4.0135,-0.22985 1.6548,6.0282 5.0526,13.269 10.265,13.053 5.6738,-0.23541 0.86916,3.1027 -6.2515,-12.823 z"
       inkscape:connector-curvature="0" />
    <path
       id="path5759"
       style="fill:#000000;fill-rule:evenodd;stroke:#000000;stroke-width:1px"
       d="m 109.56,22.179 c 0.20681,2.729 -1.196,2.6253 -0.66676,4.217 1.0594,3.1861 2.6089,3.4597 3.3515,-1.7815 0.80831,-5.7052 7.6633,-15.159 -2.6847,-2.4355 z"
       sodipodi:nodetypes="cssc"
       inkscape:transform-center-y="-9.2379958"
       inkscape:transform-center-x="10.105951"
       inkscape:connector-curvature="0" />
    <path
       id="path4874"
       sodipodi:nodetypes="cc"
       style="fill:none;stroke:#000000;stroke-width:1.89999998"
       d="M 167.14,34.077 C 167.60965,8.621 159.2204,-3.605 148.424,-24.999"
       inkscape:connector-curvature="0" />
    <path
       id="path5761"
       style="fill:#000000;fill-rule:evenodd;stroke:#000000;stroke-width:1px"
       d="m 172.43,35.881 c 1.8203,2.3859 6.796,5.7917 4.8113,5.9141 -1.9009,0.11752 -8.3266,0.65428 -8.3736,-3.0219 -0.0511,-4.0017 -6.0847,-10.204 3.5622,-2.8922 z"
       sodipodi:nodetypes="cssc"
       inkscape:transform-center-y="2.7575582"
       inkscape:transform-center-x="-1.3414904"
       inkscape:connector-curvature="0" />
    <path
       id="path3077"
       sodipodi:nodetypes="ccssc"
       style="fill:none;stroke:#000000;stroke-width:3"
       d="m 150.27,-30.786 c 0.18144,3.0792 0.80822,4.7567 0.67908,7.2144 9.7498,17.254 -2.7504,67.729 -9.044,69.139 -4.7364,1.061 13.593,-46.667 8.9536,-69.108 -0.43036,-2.0817 -0.0183,-3.3105 -0.58877,-7.2451 z"
       inkscape:connector-curvature="0" />
    <path
       id="path3075"
       sodipodi:rx="12.857142"
       sodipodi:ry="25"
       style="fill:none;stroke:#000000;stroke-width:2.35339999;stroke-linecap:round"
       sodipodi:type="arc"
       d="m 444.0348,362.03361 a 12.857142,25 0 0 1 18.14636,0.97228 12.857142,25 0 0 1 -0.44121,35.28756 12.857142,25 0 0 1 -18.14922,-0.7435 12.857142,25 0 0 1 0.32354,-35.29239"
       sodipodi:open="true"
       transform="matrix(1.0846,0.04035,-0.056105,0.99961,-317.15,-453.63)"
       sodipodi:cy="380.21933"
       sodipodi:cx="452.85715"
       sodipodi:end="3.9431937"
       sodipodi:start="3.9561603" />
    <path
       id="path4835"
       sodipodi:rx="3.5714285"
       sodipodi:ry="4.6428571"
       style="fill:none;stroke:#000000;stroke-width:2.07500005;stroke-linecap:round"
       sodipodi:type="arc"
       d="m 293.26364,368.62769 a 3.5714285,4.6428571 0 0 1 5.04066,0.18056 3.5714285,4.6428571 0 0 1 -0.12256,6.55341 3.5714285,4.6428571 0 0 1 -5.04145,-0.13808 3.5714285,4.6428571 0 0 1 0.0899,-6.5543"
       sodipodi:open="true"
       transform="matrix(0.99766,-0.068443,0.068443,0.99766,-159.55,-412.83)"
       sodipodi:cy="372.00504"
       sodipodi:cx="295.71429"
       sodipodi:end="3.9431937"
       sodipodi:start="3.9561603" />
    <path
       id="path4837"
       sodipodi:nodetypes="cc"
       style="fill:none;stroke:#000000;stroke-width:1.25"
       d="m 163.01,-40.821 c -4.0232,1.1387 -7.0838,-0.8058 -8.892,-3.3596"
       inkscape:connector-curvature="0" />
  </g>
  <metadata
     id="metadata21">
    <rdf:RDF>
      <cc:Work>
        <dc:format>image/svg+xml</dc:format>
        <dc:type
           rdf:resource="http://purl.org/dc/dcmitype/StillImage" />
        <cc:license
           rdf:resource="http://creativecommons.org/licenses/publicdomain/" />
        <dc:publisher>
          <cc:Agent
             rdf:about="http://openclipart.org/">
            <dc:title>Openclipart</dc:title>
          </cc:Agent>
        </dc:publisher>
        <dc:title>Al walking</dc:title>
        <dc:date>2010-10-19T20:05:28</dc:date>
        <dc:description>THIS IS AL</dc:description>
        <dc:source>https://openclipart.org/detail/91549/al-walking-by-cybergedeon</dc:source>
        <dc:creator>
          <cc:Agent>
            <dc:title>dominiquechappard</dc:title>
          </cc:Agent>
        </dc:creator>
        <dc:subject>
          <rdf:Bag>
            <rdf:li>stick</rdf:li>
            <rdf:li>stick figure</rdf:li>
            <rdf:li>stick man</rdf:li>
            <rdf:li>walking</rdf:li>
          </rdf:Bag>
        </dc:subject>
      </cc:Work>
      <cc:License
         rdf:about="http://creativecommons.org/licenses/publicdomain/">
        <cc:permits
           rdf:resource="http://creativecommons.org/ns#Reproduction" />
        <cc:permits
           rdf:resource="http://creativecommons.org/ns#Distribution" />
        <cc:permits
           rdf:resource="http://creativecommons.org/ns#DerivativeWorks" />
      </cc:License>
    </rdf:RDF>
  </metadata>
</svg>
