<?xml version="1.0" encoding="UTF-8" standalone="no"?>
<!-- Created with Inkscape (http://www.inkscape.org/) -->

<svg
   xmlns:dc="http://purl.org/dc/elements/1.1/"
   xmlns:cc="http://creativecommons.org/ns#"
   xmlns:rdf="http://www.w3.org/1999/02/22-rdf-syntax-ns#"
   xmlns:svg="http://www.w3.org/2000/svg"
   xmlns="http://www.w3.org/2000/svg"
   xmlns:sodipodi="http://sodipodi.sourceforge.net/DTD/sodipodi-0.dtd"
   xmlns:inkscape="http://www.inkscape.org/namespaces/inkscape"
   id="svg2"
   sodipodi:docname="paro-AL-old-man.svg"
   inkscape:export-filename="C:\Documents and Settings\Compaq_Owner\Desktop\PEC sticks-standing1mm.png"
   viewBox="0 0 120.57 191.43"
   sodipodi:version="0.32"
   inkscape:export-xdpi="90"
   version="1.0"
   inkscape:export-ydpi="90"
   inkscape:version="0.92.1 r15371"
   width="128.608"
   height="204.19199">
  <defs
     id="defs23" />
  <sodipodi:namedview
     id="base"
     bordercolor="#666666"
     inkscape:pageshadow="2"
     inkscape:guide-bbox="true"
     pagecolor="#ffffff"
     inkscape:window-height="937"
     inkscape:window-maximized="0"
     inkscape:zoom="2.0452675"
     inkscape:window-x="0"
     showgrid="false"
     borderopacity="1.0"
     inkscape:current-layer="layer3"
     inkscape:cx="-21.237187"
     inkscape:cy="77.898391"
     showguides="true"
     inkscape:window-y="25"
     inkscape:window-width="1197"
     inkscape:pageopacity="0.0"
     inkscape:document-units="px" />
  <g
     id="layer3"
     inkscape:label="layer"
     transform="translate(-29.588,-31.935)"
     inkscape:groupmode="layer"
     sodipodi:insensitive="true">
    <g
       id="g2854">
      <path
         id="path6737"
         style="fill:#888888"
         d="m 84.205,206.92 c 29.921,-0.95673 -31.981,3.9073 -35.754,4.2426 -19.132,0.97493 40.492,-2.0201 61.203,-3.0373 43.526,-1.4611 -58.412,5.02 -64.191,5.5816 1.7609,-3.1136 79.788,-8.9851 58.707,-3.784 -33.294,7.1103 -27.244,4.9317 4.8232,3.4211 52.716,-1.8947 -11.464,3.6567 -29.578,5.4335 -10.012,-2.0254 92.337,-9.5542 45.17,-3.2312 -2.915,1.6942 -18.28,2.6047 3.9624,0.23081 2.9453,-0.31433 -5.8166,0.74906 -8.6483,1.2132 -9.5605,1.567 -10.046,1.9892 0.0491,2.6185 10.056,0.46827 20.139,0.8133 30.211,1.2157 l -14.521,2.5372 c -10.182,-0.45518 -20.391,-0.77239 -30.583,-1.1824 -28.488,-1.6894 29.576,-10.975 36.265,-8.1286 -13.091,1.809 -85.866,7.0647 -47.072,1.9021 45.3,-3.6075 31.61,-0.85571 0.61211,0.0141 -31.321,1.6484 -43.467,2.2494 -6.8118,-5.089 15.198,-3.0746 -74.058,6.7803 -27.435,-0.058 19.353,-1.4871 102.22,-6.8722 35.151,-0.1219 -23.879,1.0589 -109.24,5.8169 -33.368,-2.1852 34.889,-3.034 44.589,-1.8277 5.9509,1.0611 l 15.857,-2.6537 z"
         inkscape:connector-curvature="0" />
      <path
         id="path4874"
         sodipodi:nodetypes="csc"
         style="fill:none;stroke:#000000;stroke-width:1.89999998"
         transform="translate(-3.0305,0.21677)"
         d="M 84.507,85.084 C 71.598,89.645 54.21,85.142 50.438,91.591 42.964,104.37 48.888,109.92 49.235,119.76"
         inkscape:connector-curvature="0" />
      <path
         id="path4876"
         sodipodi:nodetypes="csc"
         style="fill:none;stroke:#000000;stroke-width:1.89999998"
         transform="translate(-3.0305,0.21677)"
         d="m 85.358,87.148 c 5.4161,10.425 7.8488,21.924 13.974,27.716 10.302,9.7431 31.884,14.767 31.884,14.767"
         inkscape:connector-curvature="0" />
      <path
         id="path4878"
         sodipodi:nodetypes="csc"
         style="fill:none;stroke:#000000;stroke-width:1.89999998"
         transform="translate(-3.0305,0.21677)"
         d="m 45.106,138.71 c 3.5767,67.984 -5.765,61.681 -5.26,63.196 0.50508,1.5152 1.0102,3.5355 1.0102,3.5355"
         inkscape:connector-curvature="0" />
      <path
         id="path4880"
         sodipodi:nodetypes="csc"
         style="fill:none;stroke:#000000;stroke-width:1.89999998"
         transform="translate(-3.0305,0.21677)"
         d="m 48.785,139.73 c 11.69,30.184 -1.8496,59.663 -1.4093,62.275 0.2655,1.575 13.208,1.4878 13.208,1.4878"
         inkscape:connector-curvature="0" />
      <path
         id="path4882"
         sodipodi:nodetypes="cssc"
         style="fill:#000000;fill-rule:evenodd;stroke:#000000;stroke-width:1px"
         transform="translate(-3.0305,0.21677)"
         d="m 39.341,202.41 c -2.444,2.4847 -8.1626,2.4836 -5.5558,4.0406 5.3668,3.2055 4.9739,6.7943 8.5863,3.0305 3.9322,-4.0971 13.132,-0.50508 -3.0305,-7.0711 z"
         inkscape:connector-curvature="0" />
      <path
         id="path5757"
         sodipodi:nodetypes="cssc"
         style="fill:#000000;fill-rule:evenodd;stroke:#000000;stroke-width:1px"
         transform="translate(-3.0305,0.21677)"
         d="m 52.341,199.84 c -2.444,2.4847 -5.6626,1.0551 -3.0558,2.612 5.3668,3.2055 12.831,6.08 16.443,2.3162 3.9322,-4.0971 2.7748,1.6378 -13.388,-4.9282 z"
         inkscape:connector-curvature="0" />
      <path
         id="path5759"
         sodipodi:nodetypes="cccsc"
         style="fill:#000000;fill-rule:evenodd;stroke:#000000;stroke-width:1px"
         transform="translate(-3.0305,0.21677)"
         d="m 49.325,124.19 c -1.0653,-1.0333 0.20966,-3.4628 0.32014,-4.4165 0.1545,0.25707 0.23809,-0.23151 -0.68926,-0.4956 -4.0743,3.2222 -9.8558,3.837 -6.9688,7.2226 3.6847,4.321 -0.80654,13.117 7.3379,-2.3105 z"
         inkscape:connector-curvature="0" />
      <path
         id="path5761"
         sodipodi:nodetypes="cssc"
         style="fill:#000000;fill-rule:evenodd;stroke:#000000;stroke-width:1px"
         transform="translate(-3.0305,0.21677)"
         d="m 141.58,133.34 c -2.2911,-5.3474 -17.063,-1.7034 -10.955,-4.7837 5.393,-2.7198 7.442,-6.2143 13.285,-2.7014 5.4663,3.2866 14.102,8.1581 -2.3294,7.4851 z"
         inkscape:connector-curvature="0" />
      <path
         id="path4024"
         sodipodi:nodetypes="ccc"
         style="fill:none;stroke:#000000;stroke-width:3;stroke-linecap:round;stroke-linejoin:round"
         transform="translate(-3.0305,0.21677)"
         d="m 126.41,214.1 c 9.9563,-30.943 15.361,-62.696 18.322,-75.578 2.2337,-7.3915 -5.9658,-10.741 -10.298,-3.3246"
         inkscape:connector-curvature="0" />
      <path
         id="path3077"
         sodipodi:nodetypes="ccssc"
         style="fill:none;stroke:#000000;stroke-width:3"
         d="m 85.188,82.533 c -1.0509,2.2232 -1.985,2.7925 -4.6236,4.6776 -16.491,11.782 -42.746,53.449 -37.901,54.083 7.4515,0.97512 25.082,-43.812 37.972,-54.025 1.6264,-1.2885 3.6724,-3.0192 4.553,-4.7362 z"
         inkscape:connector-curvature="0" />
      <path
         id="path3075"
         sodipodi:rx="12.857142"
         sodipodi:ry="25"
         style="fill:none;stroke:#000000;stroke-width:2.35339999;stroke-linecap:round"
         sodipodi:type="arc"
         d="m 444.0348,362.03361 a 12.857142,25 0 0 1 18.14636,0.97228 12.857142,25 0 0 1 -0.44121,35.28756 12.857142,25 0 0 1 -18.14922,-0.7435 12.857142,25 0 0 1 0.32354,-35.29239"
         sodipodi:open="true"
         transform="matrix(0.98291,0.33164,-0.36144,0.9834,-211.59,-465.98)"
         sodipodi:cy="380.21933"
         sodipodi:cx="452.85715"
         sodipodi:end="3.9431937"
         sodipodi:start="3.9561603" />
      <path
         id="path4833"
         sodipodi:rx="3.5714285"
         sodipodi:ry="4.6428571"
         style="fill:none;stroke:#000000;stroke-width:2.07500005;stroke-linecap:round"
         sodipodi:type="arc"
         d="m 293.26364,368.62769 a 3.5714285,4.6428571 0 0 1 5.04066,0.18056 3.5714285,4.6428571 0 0 1 -0.12256,6.55341 3.5714285,4.6428571 0 0 1 -5.04145,-0.13808 3.5714285,4.6428571 0 0 1 0.0899,-6.5543"
         sodipodi:open="true"
         transform="matrix(0.93683,0.19961,-0.24653,1.0149,-90.005,-385.26)"
         sodipodi:cy="372.00504"
         sodipodi:cx="295.71429"
         sodipodi:end="3.9431937"
         sodipodi:start="3.9561603" />
      <path
         id="path4835"
         sodipodi:rx="3.5714285"
         sodipodi:ry="4.6428571"
         style="fill:none;stroke:#000000;stroke-width:2.07500005;stroke-linecap:round"
         sodipodi:type="arc"
         d="m 293.26364,368.62769 a 3.5714285,4.6428571 0 0 1 5.04066,0.18056 3.5714285,4.6428571 0 0 1 -0.12256,6.55341 3.5714285,4.6428571 0 0 1 -5.04145,-0.13808 3.5714285,4.6428571 0 0 1 0.0899,-6.5543"
         sodipodi:open="true"
         transform="matrix(0.93683,0.19961,-0.24653,1.0149,-79.098,-382.94)"
         sodipodi:cy="372.00504"
         sodipodi:cx="295.71429"
         sodipodi:end="3.9431937"
         sodipodi:start="3.9561603" />
      <path
         id="path4837"
         sodipodi:nodetypes="cc"
         style="fill:none;stroke:#000000;stroke-width:1.25"
         d="m 84.681,71.122 c 4.9222,0.03856 11.181,4.094 12.222,5.2016"
         inkscape:connector-curvature="0" />
    </g>
  </g>
  <metadata
     id="metadata20">
    <rdf:RDF>
      <cc:Work>
        <dc:format>image/svg+xml</dc:format>
        <dc:type
           rdf:resource="http://purl.org/dc/dcmitype/StillImage" />
        <cc:license
           rdf:resource="http://creativecommons.org/licenses/publicdomain/" />
        <dc:publisher>
          <cc:Agent
             rdf:about="http://openclipart.org/">
            <dc:title>Openclipart</dc:title>
          </cc:Agent>
        </dc:publisher>
        <dc:title>Al old man</dc:title>
        <dc:date>2010-10-17T20:35:08</dc:date>
        <dc:description />
        <dc:source>https://openclipart.org/detail/91291/al-old-man-by-cybergedeon</dc:source>
        <dc:creator>
          <cc:Agent>
            <dc:title>dominiquechappard</dc:title>
          </cc:Agent>
        </dc:creator>
        <dc:subject>
          <rdf:Bag>
            <rdf:li>old man</rdf:li>
            <rdf:li>stickman</rdf:li>
          </rdf:Bag>
        </dc:subject>
      </cc:Work>
      <cc:License
         rdf:about="http://creativecommons.org/licenses/publicdomain/">
        <cc:permits
           rdf:resource="http://creativecommons.org/ns#Reproduction" />
        <cc:permits
           rdf:resource="http://creativecommons.org/ns#Distribution" />
        <cc:permits
           rdf:resource="http://creativecommons.org/ns#DerivativeWorks" />
      </cc:License>
    </rdf:RDF>
  </metadata>
</svg>
