<?xml version="1.0" encoding="UTF-8" standalone="no"?>
<!-- Created with Inkscape (http://www.inkscape.org/) -->

<svg
   xmlns:dc="http://purl.org/dc/elements/1.1/"
   xmlns:cc="http://creativecommons.org/ns#"
   xmlns:rdf="http://www.w3.org/1999/02/22-rdf-syntax-ns#"
   xmlns:svg="http://www.w3.org/2000/svg"
   xmlns="http://www.w3.org/2000/svg"
   xmlns:sodipodi="http://sodipodi.sourceforge.net/DTD/sodipodi-0.dtd"
   xmlns:inkscape="http://www.inkscape.org/namespaces/inkscape"
   id="svg2"
   sodipodi:docname="paro-AL-calling.svg"
   inkscape:export-filename="C:\Documents and Settings\Compaq_Owner\Desktop\PEC sticks-standing1mm.png"
   viewBox="0 0 92.808 202.6"
   sodipodi:version="0.32"
   inkscape:export-xdpi="90"
   version="1.0"
   inkscape:export-ydpi="90"
   inkscape:version="0.92.1 r15371"
   width="98.995201"
   height="216.10667">
  <defs
     id="defs4">
    <linearGradient
       id="linearGradient3858"
       y2="539.27002"
       gradientUnits="userSpaceOnUse"
       x2="247.31"
       gradientTransform="translate(-158.46,-303.67)"
       y1="498.13"
       x1="200.38"
       inkscape:collect="always">
      <stop
         id="stop6741"
         style="stop-color:rgb(0, 0, 0)"
         offset="0" />
      <stop
         id="stop6743"
         style="stop-color:rgb(0, 0, 0);stop-opacity:0"
         offset="1" />
    </linearGradient>
  </defs>
  <sodipodi:namedview
     id="base"
     bordercolor="#666666"
     inkscape:pageshadow="2"
     inkscape:guide-bbox="true"
     pagecolor="#ffffff"
     inkscape:window-height="937"
     inkscape:window-maximized="0"
     inkscape:zoom="1.4462225"
     inkscape:window-x="0"
     showgrid="false"
     borderopacity="1.0"
     inkscape:current-layer="layer3"
     inkscape:cx="86.889381"
     inkscape:cy="42.700671"
     showguides="true"
     inkscape:window-y="25"
     inkscape:window-width="1197"
     inkscape:pageopacity="0.0"
     inkscape:document-units="px" />
  <g
     id="layer3"
     inkscape:label="layer"
     transform="translate(-6.868,-19.171)"
     inkscape:groupmode="layer"
     sodipodi:insensitive="true">
    <g
       id="g3842">
      <path
         id="path6737"
         style="fill:url(#linearGradient3858)"
         d="m 59.024,205.33 c 18.443,-0.95673 -19.712,3.9073 -22.038,4.2426 -11.793,0.97493 24.959,-2.0201 37.724,-3.0373 26.829,-1.4611 -36.004,5.02 -39.566,5.5816 1.0854,-3.1136 49.18,-8.9851 36.186,-3.784 -20.522,7.1103 -16.793,4.9317 2.9729,3.4211 32.493,-1.8947 -7.0662,3.6567 -18.231,5.4335 -6.1714,-2.0254 56.915,-9.5542 27.842,-3.2312 -1.7967,1.6942 -11.268,2.6047 2.4423,0.23081 1.8154,-0.31433 -3.5852,0.74906 -5.3306,1.2132 -5.8929,1.567 -6.1924,1.9892 0.03024,2.6185 6.1984,0.46827 12.413,0.8133 18.621,1.2157 l -8.9504,2.5372 c -6.276,-0.45518 -12.568,-0.77239 -18.851,-1.1824 -17.559,-1.6894 18.23,-10.975 22.353,-8.1286 -8.0689,1.809 -52.926,7.0647 -29.014,1.9021 27.922,-3.6075 19.484,-0.85571 0.37729,0.0141 -19.306,1.6484 -26.792,2.2494 -4.1987,-5.089 9.3678,-3.0746 -45.648,6.7803 -16.91,-0.058 11.929,-1.4871 63.007,-6.8722 21.666,-0.1219 -14.719,1.0589 -67.331,5.8169 -20.567,-2.1852 21.505,-3.034 27.484,-1.8277 3.668,1.0611 l 9.7742,-2.6537 z"
         inkscape:connector-curvature="0" />
      <path
         id="path4876"
         style="fill:none;stroke:#000000;stroke-width:1.89999998"
         d="m 20.983,53.365 c -2.895,26.044 -10.135,44.43 -10.135,44.43 7.549,0.67 35.86,-17.572 35.86,-17.572"
         inkscape:transform-center-x="31.396716"
         inkscape:transform-center-y="-3.267335"
         transform="translate(-3.0305,0.21678)"
         sodipodi:nodetypes="ccc"
         inkscape:connector-curvature="0" />
      <path
         id="path4878"
         sodipodi:nodetypes="csc"
         style="fill:none;stroke:#000000;stroke-width:1.89999998"
         transform="translate(-3.0305,0.21678)"
         d="m 45.106,138.71 c -1.8483,65.272 -5.8126,61.657 -5.26,63.196 0.5398,1.5032 1.0102,3.5355 1.0102,3.5355"
         inkscape:connector-curvature="0" />
      <path
         id="path4880"
         sodipodi:nodetypes="csc"
         style="fill:none;stroke:#000000;stroke-width:1.89999998"
         transform="translate(-3.0305,0.21678)"
         d="m 48.785,139.73 c 0.11298,23.613 1.1816,56.125 0.17977,62.03 -0.26714,1.5747 11.619,1.7323 11.619,1.7323"
         inkscape:connector-curvature="0" />
      <path
         id="path4882"
         sodipodi:nodetypes="cssc"
         style="fill:#000000;fill-rule:evenodd;stroke:#000000;stroke-width:1px"
         transform="translate(-3.0305,0.21678)"
         d="m 39.341,202.41 c -2.444,2.4847 -8.1626,2.4836 -5.5558,4.0406 5.3668,3.2055 4.9739,6.7943 8.5863,3.0305 3.9322,-4.0971 13.132,-0.50508 -3.0305,-7.0711 z"
         inkscape:connector-curvature="0" />
      <path
         id="path5757"
         sodipodi:nodetypes="cssc"
         style="fill:#000000;fill-rule:evenodd;stroke:#000000;stroke-width:1px"
         transform="translate(-3.0305,0.21678)"
         d="m 52.341,199.84 c -2.444,2.4847 -5.6626,1.0551 -3.0558,2.612 5.3668,3.2055 12.831,6.08 16.443,2.3162 3.9322,-4.0971 2.7748,1.6378 -13.388,-4.9282 z"
         inkscape:connector-curvature="0" />
      <path
         id="path5759"
         style="fill:#000000;fill-rule:evenodd;stroke:#000000;stroke-width:1px"
         d="m 96.42,34.964 c -3.6434,3.4115 -3.7636,7.7607 -4.116,5.2686 -0.7254,-5.1309 -8.1489,-2.5856 -2.6717,-7.6529 5.9622,-5.516 11.924,-18.21 6.7876,2.3843 z"
         inkscape:transform-center-x="-2.27052"
         inkscape:transform-center-y="6.8333093"
         transform="translate(-3.0305,0.21678)"
         sodipodi:nodetypes="cssc"
         inkscape:connector-curvature="0" />
      <path
         id="path5761"
         sodipodi:nodetypes="cssc"
         style="fill:#000000;fill-rule:evenodd;stroke:#000000;stroke-width:1px"
         transform="translate(-3.0305,0.21678)"
         d="m 22.274,48.465 c -0.84277,2.5969 -0.28308,8.7219 -1.383,5.7978 -2.4073,-6.3997 -7.8124,-7.3769 -3.6801,-10.685 4.4982,-3.6015 4.0334,-14.749 5.0631,4.8877 z"
         inkscape:connector-curvature="0" />
      <path
         id="path4874"
         style="fill:none;stroke:#000000;stroke-width:1.89999998"
         d="M 93.631,35.912 C 87.974,53.776 81.514,68.713 80.498,72.655 65.794,78.709 62.744,77.859 49.47,81.261"
         inkscape:transform-center-x="-15.618263"
         inkscape:transform-center-y="-29.675758"
         transform="translate(-3.0305,0.21678)"
         sodipodi:nodetypes="ccc"
         inkscape:connector-curvature="0" />
      <path
         id="path3077"
         sodipodi:nodetypes="ccssc"
         style="fill:none;stroke:#000000;stroke-width:3"
         d="m 42.275,70.777 c -0.3646,2.4319 0.09441,3.4249 1.2369,6.4597 7.1402,18.967 5.7548,68.197 1.3775,66.027 -6.733,-3.3382 3.5542,-50.359 -1.4688,-66.018 -0.63375,-1.9758 -1.37,-4.5525 -1.1456,-6.4691 z"
         inkscape:connector-curvature="0" />
      <path
         id="path3075"
         sodipodi:rx="12.857142"
         sodipodi:ry="25"
         style="fill:none;stroke:#000000;stroke-width:2.35339999;stroke-linecap:round"
         sodipodi:type="arc"
         d="m 444.0348,362.03361 a 12.857142,25 0 0 1 18.14636,0.97228 12.857142,25 0 0 1 -0.44121,35.28756 12.857142,25 0 0 1 -18.14922,-0.7435 12.857142,25 0 0 1 0.32354,-35.29239"
         sodipodi:open="true"
         transform="matrix(1.0721,-0.16942,0.13758,0.99168,-498.94,-255.05)"
         sodipodi:cy="380.21933"
         sodipodi:cx="452.85715"
         sodipodi:end="3.9431937"
         sodipodi:start="3.9561603" />
      <path
         id="path4833"
         sodipodi:rx="3.5714285"
         sodipodi:ry="4.6428571"
         style="fill:none;stroke:#000000;stroke-width:2.07500005;stroke-linecap:round"
         sodipodi:type="arc"
         d="m 293.26364,368.62769 a 3.5714285,4.6428571 0 0 1 5.04066,0.18056 3.5714285,4.6428571 0 0 1 -0.12256,6.55341 3.5714285,4.6428571 0 0 1 -5.04145,-0.13808 3.5714285,4.6428571 0 0 1 0.0899,-6.5543"
         sodipodi:open="true"
         transform="matrix(0.96577,-0.25942,0.25942,0.96577,-347.24,-242.63)"
         sodipodi:cy="372.00504"
         sodipodi:cx="295.71429"
         sodipodi:end="3.9431937"
         sodipodi:start="3.9561603" />
      <path
         id="path4835"
         sodipodi:rx="3.5714285"
         sodipodi:ry="4.6428571"
         style="fill:none;stroke:#000000;stroke-width:2.07500005;stroke-linecap:round"
         sodipodi:type="arc"
         d="m 293.26364,368.62769 a 3.5714285,4.6428571 0 0 1 5.04066,0.18056 3.5714285,4.6428571 0 0 1 -0.12256,6.55341 3.5714285,4.6428571 0 0 1 -5.04145,-0.13808 3.5714285,4.6428571 0 0 1 0.0899,-6.5543"
         sodipodi:open="true"
         transform="matrix(0.96577,-0.25942,0.25942,0.96577,-335.99,-245.65)"
         sodipodi:cy="372.00504"
         sodipodi:cx="295.71429"
         sodipodi:end="3.9431937"
         sodipodi:start="3.9561603" />
      <path
         id="path4837"
         sodipodi:nodetypes="css"
         style="fill:none;stroke:#000000;stroke-width:2;stroke-linecap:round;stroke-linejoin:round"
         d="m 46.802,58.808 c 2.0004,11.902 -11.819,6.4499 -11.105,2.2096 0.96099,-5.7084 10.73,-4.4425 11.105,-2.2096 z"
         inkscape:connector-curvature="0" />
    </g>
  </g>
  <metadata
     id="metadata23">
    <rdf:RDF>
      <cc:Work>
        <dc:format>image/svg+xml</dc:format>
        <dc:type
           rdf:resource="http://purl.org/dc/dcmitype/StillImage" />
        <cc:license
           rdf:resource="http://creativecommons.org/licenses/publicdomain/" />
        <dc:publisher>
          <cc:Agent
             rdf:about="http://openclipart.org/">
            <dc:title>Openclipart</dc:title>
          </cc:Agent>
        </dc:publisher>
        <dc:title>Al calling</dc:title>
        <dc:date>2010-10-23T10:40:08</dc:date>
        <dc:description>This is Al.</dc:description>
        <dc:source>https://openclipart.org/detail/92065/al-calling-by-cybergedeon</dc:source>
        <dc:creator>
          <cc:Agent>
            <dc:title>dominiquechappard</dc:title>
          </cc:Agent>
        </dc:creator>
        <dc:subject>
          <rdf:Bag>
            <rdf:li>calling</rdf:li>
            <rdf:li>man</rdf:li>
            <rdf:li>stick man</rdf:li>
            <rdf:li>styckyman</rdf:li>
          </rdf:Bag>
        </dc:subject>
      </cc:Work>
      <cc:License
         rdf:about="http://creativecommons.org/licenses/publicdomain/">
        <cc:permits
           rdf:resource="http://creativecommons.org/ns#Reproduction" />
        <cc:permits
           rdf:resource="http://creativecommons.org/ns#Distribution" />
        <cc:permits
           rdf:resource="http://creativecommons.org/ns#DerivativeWorks" />
      </cc:License>
    </rdf:RDF>
  </metadata>
</svg>
