<?xml version="1.0" encoding="UTF-8" standalone="no"?>
<!-- Created with Inkscape (http://www.inkscape.org/) -->

<svg
   xmlns:dc="http://purl.org/dc/elements/1.1/"
   xmlns:cc="http://creativecommons.org/ns#"
   xmlns:rdf="http://www.w3.org/1999/02/22-rdf-syntax-ns#"
   xmlns:svg="http://www.w3.org/2000/svg"
   xmlns="http://www.w3.org/2000/svg"
   xmlns:sodipodi="http://sodipodi.sourceforge.net/DTD/sodipodi-0.dtd"
   xmlns:inkscape="http://www.inkscape.org/namespaces/inkscape"
   id="svg2"
   sodipodi:docname="paro-AL-handwalk.svg"
   inkscape:export-filename="C:\Documents and Settings\Compaq_Owner\Desktop\PEC sticks-standing1mm.png"
   viewBox="0 0 87.284 208.55"
   sodipodi:version="0.32"
   inkscape:export-xdpi="90"
   version="1.0"
   inkscape:export-ydpi="90"
   inkscape:version="0.92.1 r15371"
   width="93.102928"
   height="222.45334">
  <defs
     id="defs4">
    <linearGradient
       id="linearGradient2927"
       y2="517.87"
       gradientUnits="userSpaceOnUse"
       x2="92.385002"
       gradientTransform="translate(-134.59,-385.64)"
       y1="556.44"
       x1="260.84"
       inkscape:collect="always">
      <stop
         id="stop6741"
         style="stop-color:#6b6b6b"
         offset="0" />
      <stop
         id="stop3679"
         style="stop-color:#000000;stop-opacity:.49804"
         offset=".51454" />
      <stop
         id="stop6743"
         style="stop-color:rgb(0, 0, 0);stop-opacity:0"
         offset="1" />
    </linearGradient>
  </defs>
  <sodipodi:namedview
     id="base"
     bordercolor="#666666"
     inkscape:pageshadow="2"
     inkscape:guide-bbox="true"
     inkscape:snap-page="true"
     pagecolor="#ffffff"
     inkscape:window-height="999"
     inkscape:window-maximized="0"
     inkscape:zoom="1.5725124"
     inkscape:window-x="0"
     showgrid="false"
     borderopacity="1.0"
     inkscape:current-layer="layer2"
     inkscape:cx="47.533347"
     inkscape:cy="-2.4350603"
     showguides="true"
     inkscape:window-y="0"
     inkscape:window-width="1280"
     inkscape:pageopacity="0.0"
     inkscape:document-units="px" />
  <g
     id="layer2"
     inkscape:label="ombre"
     inkscape:groupmode="layer"
     transform="translate(-41.74,65.735)">
    <path
       id="path6737"
       sodipodi:nodetypes="ccccccccccccccccc"
       style="fill:url(#linearGradient2927)"
       d="m 74.694,121.79 c 18.4,2.2479 -19.666,2.8739 -21.987,2.9831 -11.765,-0.77307 24.901,1.7153 37.636,2.622 26.767,3.1433 -35.92,1.3775 -39.474,1.6326 1.0828,-5.4601 49.065,-5.7744 36.102,0.92259 -20.474,8.5574 -16.754,5.3806 2.966,6.9022 12.008,1.4269 21.721,-1.9386 32.961,-2.9098 0.39835,1.8313 1.0718,3.7077 3.3538,6.7789 -5.5083,-0.14532 -5.6175,-0.96574 -15.502,-0.52548 -10.63,-1.1211 -36.084,3.3865 -31.469,2.0018 22.121,-1.53 -49.441,7.1538 -2.2227,-12.655 9.3461,-3.5933 -45.542,2.507 -16.871,-3.7718 11.901,-0.1343 62.86,1.088 21.616,4.4738 -14.685,-1.2539 -67.175,-3.9557 -20.52,-8.4557 21.455,-0.8879 27.42,2.6146 3.6595,2.7361 l 9.7515,-2.7353 4e-5,4e-5 z"
       inkscape:connector-curvature="0" />
  </g>
  <g
     id="layer1"
     inkscape:label="Layer 1"
     inkscape:groupmode="layer"
     transform="translate(-44.77,65.951)">
    <path
       id="path4876"
       sodipodi:nodetypes="cscc"
       style="fill:none;stroke:#000000;stroke-width:1.89999998"
       d="m 99.788,121.13 c -0.0361,-1.3538 6.5111,2.5438 7.1646,1.6898 10.333,-13.504 14.698,-20.409 14.698,-20.409 2.6873,-6.051 6.8694,-25.009 6.8694,-25.009"
       inkscape:connector-curvature="0" />
    <path
       id="path4878"
       style="fill:none;stroke:#000000;stroke-width:1.89999998"
       d="m 104.25,4.1648 c 3.3788,-14.595 7.2882,-25.57 8.6148,-34.133 -2.7811,-10.501 -7.059,-28.477 -6.3128,-29.489 0.94841,-1.2851 8.5023,-2.4225 8.5023,-2.4225"
       sodipodi:nodetypes="ccsc"
       inkscape:transform-center-y="-0.31842005"
       inkscape:transform-center-x="10.751824"
       inkscape:connector-curvature="0" />
    <path
       id="path4880"
       sodipodi:nodetypes="ccsc"
       style="fill:none;stroke:#000000;stroke-width:1.89999998"
       d="m 102.07,5.2424 c -7.516,-8.5029 -16.707,-21.766 -26.249,-29.241 -8.6499,-0.94278 -22.15,-0.77504 -28.808,0.03367 -2.0101,0.24415 2.4636,-8.4479 2.4636,-8.4479"
       inkscape:connector-curvature="0" />
    <path
       id="path4882"
       sodipodi:nodetypes="cssc"
       style="fill:#000000;fill-rule:evenodd;stroke:#000000;stroke-width:1px"
       d="m 117.86,-60.544 c 2.2168,-3.8005 8.2978,-4.9531 5.5646,-4.9056 -5.6271,0.09779 -5.1109,1.2234 -10.227,2.6367 -5.5403,1.5305 -12.014,5.5034 4.6622,2.2689 z"
       inkscape:connector-curvature="0" />
    <path
       id="path5757"
       sodipodi:nodetypes="cssc"
       style="fill:#000000;fill-rule:evenodd;stroke:#000000;stroke-width:1px"
       d="m 49.51,-26.397 c -3.4837,-0.10173 -4.8173,3.1579 -4.0135,0.22985 1.6548,-6.0282 5.0526,-13.269 10.265,-13.053 5.6738,0.2354 0.86916,-3.1027 -6.2515,12.823 z"
       inkscape:connector-curvature="0" />
    <path
       id="path5759"
       style="fill:#000000;fill-rule:evenodd;stroke:#000000;stroke-width:1px"
       d="m 97.085,124.25 c -3.2276,-2.3502 -3.8357,-0.50769 -5.5042,-2.3921 -3.3398,-3.7719 -2.8627,-5.9288 3.9332,-2.8475 7.3975,3.3541 22.545,1.9802 1.571,5.2396 z"
       sodipodi:nodetypes="cssc"
       inkscape:transform-center-y="-1.1731305"
       inkscape:transform-center-x="5.0557675"
       inkscape:connector-curvature="0" />
    <g
       id="g2851"
       transform="matrix(0.72981,0,0,0.80444,35.611,14.866)">
      <path
         id="path4874"
         sodipodi:nodetypes="ccc"
         style="fill:none;stroke:#000000;stroke-width:2.47970009"
         d="m 129.59,76.976 c -0.78172,24.434 1.5233,16.182 1.227,37.294 -4.0574,22.514 -1.4112,5.3452 -6.761,38.058 -1.2959,-0.46113 -11.638,0.43821 -11.638,0.43821"
         inkscape:connector-curvature="0" />
      <path
         id="path5761"
         style="fill:#000000;fill-rule:evenodd;stroke:#000000;stroke-width:1.30509996px"
         d="m 116.86,153.55 c 3.9291,-1.1003 8.979,0.009 6.8626,-1.5477 -2.0269,-1.4913 -7.806,-6.0637 -10.784,-2.3773 -3.2414,4.0127 -12.658,4.3602 3.9212,3.9251 z"
         inkscape:transform-center-x="-1.0354559"
         inkscape:transform-center-y="-0.17235711"
         sodipodi:nodetypes="cssc"
         inkscape:connector-curvature="0" />
    </g>
  </g>
  <g
     id="layer4"
     inkscape:label="buste"
     inkscape:groupmode="layer"
     transform="translate(-41.74,65.735)">
    <path
       id="path3077"
       sodipodi:nodetypes="ccssc"
       style="fill:none;stroke:#000000;stroke-width:3"
       d="m 126.35,77.472 c -1.3203,-2.4035 -1.2515,-3.3849 -1.3016,-6.3843 7.15,-18.07 -18.12,-65.319 -24.57,-65.257 -4.856,0.0469 27.76,42.569 24.47,65.247 -0.26238,1.8071 0.419,4.4994 1.3965,6.3936 z"
       inkscape:connector-curvature="0" />
  </g>
  <g
     id="layer3"
     inkscape:label="tete"
     inkscape:groupmode="layer"
     transform="translate(-41.74,65.735)">
    <path
       id="path3075"
       sodipodi:rx="12.857142"
       sodipodi:ry="25"
       style="fill:none;stroke:#000000;stroke-width:2.35339999;stroke-linecap:round"
       sodipodi:type="arc"
       d="m 444.0348,362.03361 a 12.857142,25 0 0 1 18.14636,0.97228 12.857142,25 0 0 1 -0.44121,35.28756 12.857142,25 0 0 1 -18.14922,-0.7435 12.857142,25 0 0 1 0.32354,-35.29239"
       sodipodi:open="true"
       transform="matrix(0.41172,1.0043,0.91902,-0.39721,-434.44,-219.95)"
       sodipodi:cy="380.21933"
       sodipodi:cx="452.85715"
       sodipodi:end="3.9431937"
       sodipodi:start="3.9561603" />
    <path
       id="path4835"
       sodipodi:rx="3.5714285"
       sodipodi:ry="4.6428571"
       style="fill:none;stroke:#000000;stroke-width:2.07500005;stroke-linecap:round"
       sodipodi:type="arc"
       d="m 293.26364,368.62769 a 3.5714285,4.6428571 0 0 1 5.04066,0.18056 3.5714285,4.6428571 0 0 1 -0.12256,6.55341 3.5714285,4.6428571 0 0 1 -5.04145,-0.13808 3.5714285,4.6428571 0 0 1 0.0899,-6.5543"
       sodipodi:open="true"
       transform="matrix(0.27962,0.96011,0.96011,-0.27962,-341.82,-86.069)"
       sodipodi:cy="372.00504"
       sodipodi:cx="295.71429"
       sodipodi:end="3.9431937"
       sodipodi:start="3.9561603" />
    <path
       id="path4837"
       sodipodi:nodetypes="cc"
       style="fill:none;stroke:#000000;stroke-width:1.25"
       d="m 117.92,90.121 c -3.7674,-2.8591 -2.0074,-7.1895 -1.3942,-8.5404"
       inkscape:connector-curvature="0" />
  </g>
  <metadata
     id="metadata26">
    <rdf:RDF>
      <cc:Work>
        <dc:format>image/svg+xml</dc:format>
        <dc:type
           rdf:resource="http://purl.org/dc/dcmitype/StillImage" />
        <cc:license
           rdf:resource="http://creativecommons.org/licenses/publicdomain/" />
        <dc:publisher>
          <cc:Agent
             rdf:about="http://openclipart.org/">
            <dc:title>Openclipart</dc:title>
          </cc:Agent>
        </dc:publisher>
        <dc:title>Al handwalking</dc:title>
        <dc:date>2010-10-19T08:11:29</dc:date>
        <dc:description />
        <dc:source>https://openclipart.org/detail/91483/al-handwalking-by-cybergedeon</dc:source>
        <dc:creator>
          <cc:Agent>
            <dc:title>dominiquechappard</dc:title>
          </cc:Agent>
        </dc:creator>
        <dc:subject>
          <rdf:Bag>
            <rdf:li>acrobat</rdf:li>
            <rdf:li>handwalk</rdf:li>
            <rdf:li>man</rdf:li>
          </rdf:Bag>
        </dc:subject>
      </cc:Work>
      <cc:License
         rdf:about="http://creativecommons.org/licenses/publicdomain/">
        <cc:permits
           rdf:resource="http://creativecommons.org/ns#Reproduction" />
        <cc:permits
           rdf:resource="http://creativecommons.org/ns#Distribution" />
        <cc:permits
           rdf:resource="http://creativecommons.org/ns#DerivativeWorks" />
      </cc:License>
    </rdf:RDF>
  </metadata>
</svg>
