<?xml version="1.0" encoding="UTF-8" standalone="no"?>
<!-- Created with Inkscape (http://www.inkscape.org/) -->

<svg
   xmlns:dc="http://purl.org/dc/elements/1.1/"
   xmlns:cc="http://creativecommons.org/ns#"
   xmlns:rdf="http://www.w3.org/1999/02/22-rdf-syntax-ns#"
   xmlns:svg="http://www.w3.org/2000/svg"
   xmlns="http://www.w3.org/2000/svg"
   xmlns:sodipodi="http://sodipodi.sourceforge.net/DTD/sodipodi-0.dtd"
   xmlns:inkscape="http://www.inkscape.org/namespaces/inkscape"
   id="svg2"
   sodipodi:docname="paro-AL-fighting.svg"
   inkscape:export-filename="C:\Documents and Settings\Compaq_Owner\Desktop\PEC sticks-standing1mm.png"
   viewBox="0 0 127.81 189.21"
   sodipodi:version="0.32"
   inkscape:export-xdpi="90"
   version="1.0"
   inkscape:export-ydpi="90"
   inkscape:version="0.92.1 r15371"
   width="136.33066"
   height="201.82401">
  <defs
     id="defs4">
    <linearGradient
       id="linearGradient5118"
       y2="215.05"
       gradientUnits="userSpaceOnUse"
       x2="93.355003"
       gradientTransform="translate(26.256,14.858)"
       y1="215.05"
       x1="17.107"
       inkscape:collect="always">
      <stop
         id="stop5112"
         style="stop-color:#434343"
         offset="0" />
      <stop
         id="stop5122"
         style="stop-color:#000000;stop-opacity:.74902"
         offset=".25" />
      <stop
         id="stop5120"
         style="stop-color:#000000;stop-opacity:.49804"
         offset=".5" />
      <stop
         id="stop5114"
         style="stop-color:#000000;stop-opacity:0"
         offset="1" />
    </linearGradient>
  </defs>
  <sodipodi:namedview
     id="base"
     bordercolor="#666666"
     inkscape:pageshadow="2"
     inkscape:guide-bbox="true"
     pagecolor="#ffffff"
     inkscape:window-height="937"
     inkscape:window-maximized="0"
     inkscape:zoom="2.0452675"
     inkscape:window-x="0"
     showgrid="false"
     borderopacity="1.0"
     inkscape:current-layer="layer3"
     inkscape:cx="-19.917854"
     inkscape:cy="21.451481"
     showguides="true"
     inkscape:window-y="25"
     inkscape:window-width="1197"
     inkscape:pageopacity="0.0"
     inkscape:document-units="px" />
  <g
     id="layer3"
     inkscape:label="tete"
     inkscape:groupmode="layer"
     transform="translate(-15.409,-32.194)">
    <g
       id="g2856">
      <path
         id="path6737"
         style="fill:url(#linearGradient5118)"
         d="m 59.615,204.96 c 20.852,-0.95673 -22.287,3.9073 -24.917,4.2426 -13.333,0.97493 28.219,-2.0201 42.652,-3.0373 30.334,-1.4611 -40.707,5.02 -44.734,5.5816 1.2271,-3.1136 55.604,-8.9851 40.913,-3.784 -23.202,7.1103 -18.987,4.9317 3.3613,3.4211 36.737,-1.8947 -7.9893,3.6567 -20.613,5.4335 -6.9776,-2.0254 64.349,-9.5542 31.479,-3.2312 -2.0314,1.6942 -12.74,2.6047 2.7614,0.23081 2.0526,-0.31433 -4.0536,0.74906 -6.027,1.2132 -6.6627,1.567 -7.0013,1.9892 0.03419,2.6185 7.0081,0.46827 14.035,0.8133 21.054,1.2157 l -10.12,2.5372 c -7.0958,-0.45518 -14.21,-0.77239 -21.313,-1.1824 -19.853,-1.6894 20.612,-10.975 25.273,-8.1286 -9.1229,1.809 -59.84,7.0647 -32.804,1.9021 31.569,-3.6075 22.029,-0.85571 0.42658,0.0141 -21.828,1.6484 -30.292,2.2494 -4.7472,-5.089 10.592,-3.0746 -51.611,6.7803 -19.119,-0.058 13.487,-1.4871 71.237,-6.8722 24.496,-0.1219 -16.642,1.0589 -76.127,5.8169 -23.254,-2.1852 24.314,-3.034 31.074,-1.8277 4.1471,1.0611 l 11.051,-2.6537 z"
         inkscape:connector-curvature="0" />
      <path
         id="path4874"
         sodipodi:nodetypes="ccc"
         style="fill:none;stroke:#000000;stroke-width:1.89999998"
         transform="translate(-3.0305,0.21677)"
         d="m 68.071,84.143 c -11.192,4.71 -26.761,24.687 -25.593,33.977 13.572,1.4268 40.323,-7.1345 56.955,-8.4664"
         inkscape:connector-curvature="0" />
      <path
         id="path4876"
         sodipodi:nodetypes="ccc"
         style="fill:none;stroke:#000000;stroke-width:1.89999998"
         transform="translate(-3.0305,0.21677)"
         d="m 67.943,84.723 c 9.9327,3.7286 20.417,5.2089 28.887,7.069 13.885,-0.25138 35.689,-8.1863 35.689,-8.1863"
         inkscape:connector-curvature="0" />
      <path
         id="path4878"
         sodipodi:nodetypes="csc"
         style="fill:none;stroke:#000000;stroke-width:1.89999998"
         transform="translate(-3.0305,0.21677)"
         d="m 47.51,143.52 c -20.258,64.994 -26.829,55.839 -26.881,57.435 -0.05261,1.5963 -0.28066,3.6663 -0.28066,3.6663"
         inkscape:connector-curvature="0" />
      <path
         id="path4880"
         sodipodi:nodetypes="cssc"
         style="fill:none;stroke:#000000;stroke-width:1.89999998"
         transform="translate(-3.0305,0.21677)"
         d="m 52.452,141.44 c 3.6718,9.4809 28.938,14.818 25.298,22.534 -7.2891,15.451 -12.342,32.571 -12.04,34.362 0.2655,1.575 13.208,1.4878 13.208,1.4878"
         inkscape:connector-curvature="0" />
      <path
         id="path4882"
         sodipodi:nodetypes="cssc"
         style="fill:#000000;fill-rule:evenodd;stroke:#000000;stroke-width:1px"
         transform="translate(-3.0305,0.21677)"
         d="m 25.161,199.48 c -2.444,2.4847 -8.1626,2.4836 -5.5558,4.0406 5.3668,3.2055 4.9739,6.7943 8.5863,3.0305 3.9322,-4.0971 13.132,-0.50508 -3.0305,-7.0711 z"
         inkscape:connector-curvature="0" />
      <path
         id="path5757"
         sodipodi:nodetypes="cssc"
         style="fill:#000000;fill-rule:evenodd;stroke:#000000;stroke-width:1px"
         transform="translate(-3.0305,0.21677)"
         d="m 66.275,197.37 c -2.444,2.8966 -5.6626,2.0094 -3.0558,3.127 5.3668,2.301 12.831,3.9176 16.443,-0.45499 3.9322,-4.7597 2.7748,1.1701 -13.388,-2.672 z"
         inkscape:connector-curvature="0" />
      <path
         id="path5761"
         sodipodi:nodetypes="csssssc"
         style="fill:#000000;fill-rule:evenodd;stroke:#000000;stroke-width:1px"
         transform="translate(-3.0305,0.21677)"
         d="m 136.15,78.83 c -0.51876,3.273 -11.031,7.3117 -7.7151,6.2083 6.8278,-2.2718 13.008,1.3814 15.199,-0.52961 0.96948,-0.84565 2.8484,-4.0147 1.8266,-5.7399 -0.64254,-1.0849 -1.3437,-2.9508 -2.0055,-2.4069 -3.3755,2.7744 -1.6481,-0.40265 -2.3399,-0.29058 -1.3185,0.21359 -2.5433,1.0593 -4.9648,2.7587 z"
         inkscape:connector-curvature="0" />
      <path
         id="path5761-2"
         sodipodi:nodetypes="csssssc"
         style="fill:#000000;fill-rule:evenodd;stroke:#000000;stroke-width:1px"
         transform="translate(-3.0305,0.21677)"
         d="m 101.6,112.2 c -2.2759,-2.4087 -13.233,0.1926 -9.8729,-0.76886 6.9182,-1.9794 9.9569,-8.4837 12.844,-8.1431 1.2776,0.1507 4.6175,1.7057 4.7481,3.7065 0.0821,1.2582 0.55673,3.1942 -0.29657,3.1188 -4.3524,-0.38442 -1.133,1.2628 -1.7674,1.5608 -1.2089,0.56807 -2.6973,0.56142 -5.6554,0.52578 z"
         inkscape:connector-curvature="0" />
      <path
         id="path3077"
         sodipodi:nodetypes="ccssc"
         style="fill:none;stroke:#000000;stroke-width:3"
         d="m 67.423,79.759 c -0.1724,2.3136 -0.61809,1.6766 -2.728,4.0415 -13.187,14.78 -23.788,59.655 -18.056,59.128 8.8164,-0.81082 8.3095,-46.602 18.162,-59.09 1.2431,-1.5756 2.4116,-2.277 2.6221,-4.0798 z"
         inkscape:connector-curvature="0" />
      <path
         id="path3075"
         sodipodi:rx="12.857142"
         sodipodi:ry="25"
         style="fill:none;stroke:#000000;stroke-width:2.35339999;stroke-linecap:round"
         sodipodi:type="arc"
         d="m 444.0348,362.03361 a 12.857142,25 0 0 1 18.14636,0.97228 12.857142,25 0 0 1 -0.44121,35.28756 12.857142,25 0 0 1 -18.14922,-0.7435 12.857142,25 0 0 1 0.32354,-35.29239"
         sodipodi:open="true"
         transform="matrix(0.9977,0.42736,-0.41152,0.9127,-217.02,-483.67)"
         sodipodi:cy="380.21933"
         sodipodi:cx="452.85715"
         sodipodi:end="3.9431937"
         sodipodi:start="3.9561603" />
      <path
         id="path4833"
         sodipodi:rx="3.5714285"
         sodipodi:ry="4.6428571"
         style="fill:none;stroke:#000000;stroke-width:2.07500005;stroke-linecap:round"
         sodipodi:type="arc"
         d="m 293.26364,368.62769 a 3.5714285,4.6428571 0 0 1 5.04066,0.18056 3.5714285,4.6428571 0 0 1 -0.12256,6.55341 3.5714285,4.6428571 0 0 1 -5.04145,-0.13808 3.5714285,4.6428571 0 0 1 0.0899,-6.5543"
         sodipodi:open="true"
         transform="matrix(0.95563,0.29458,-0.29458,0.95563,-95.209,-392.39)"
         sodipodi:cy="372.00504"
         sodipodi:cx="295.71429"
         sodipodi:end="3.9431937"
         sodipodi:start="3.9561603" />
      <path
         id="path4835"
         sodipodi:rx="3.5714285"
         sodipodi:ry="4.6428571"
         style="fill:none;stroke:#000000;stroke-width:2.07500005;stroke-linecap:round"
         sodipodi:type="arc"
         d="m 293.26364,368.62769 a 3.5714285,4.6428571 0 0 1 5.04066,0.18056 3.5714285,4.6428571 0 0 1 -0.12256,6.55341 3.5714285,4.6428571 0 0 1 -5.04145,-0.13808 3.5714285,4.6428571 0 0 1 0.0899,-6.5543"
         sodipodi:open="true"
         transform="matrix(0.95563,0.29458,-0.29458,0.95563,-84.083,-388.96)"
         sodipodi:cy="372.00504"
         sodipodi:cx="295.71429"
         sodipodi:end="3.9431937"
         sodipodi:start="3.9561603" />
      <path
         id="path4837"
         sodipodi:nodetypes="cc"
         style="fill:none;stroke:#000000;stroke-width:1.25"
         d="M 77.435,72.826 C 74.049,70.85 69.043,70.379 66.02,70.539"
         inkscape:connector-curvature="0" />
    </g>
  </g>
  <metadata
     id="metadata25">
    <rdf:RDF>
      <cc:Work>
        <dc:format>image/svg+xml</dc:format>
        <dc:type
           rdf:resource="http://purl.org/dc/dcmitype/StillImage" />
        <cc:license
           rdf:resource="http://creativecommons.org/licenses/publicdomain/" />
        <dc:publisher>
          <cc:Agent
             rdf:about="http://openclipart.org/">
            <dc:title>Openclipart</dc:title>
          </cc:Agent>
        </dc:publisher>
        <dc:title>Al fighting</dc:title>
        <dc:date>2010-10-17T20:36:50</dc:date>
        <dc:description />
        <dc:source>https://openclipart.org/detail/91303/al-fighting-by-cybergedeon</dc:source>
        <dc:creator>
          <cc:Agent>
            <dc:title>dominiquechappard</dc:title>
          </cc:Agent>
        </dc:creator>
        <dc:subject>
          <rdf:Bag>
            <rdf:li>fight</rdf:li>
            <rdf:li>stickman</rdf:li>
          </rdf:Bag>
        </dc:subject>
      </cc:Work>
      <cc:License
         rdf:about="http://creativecommons.org/licenses/publicdomain/">
        <cc:permits
           rdf:resource="http://creativecommons.org/ns#Reproduction" />
        <cc:permits
           rdf:resource="http://creativecommons.org/ns#Distribution" />
        <cc:permits
           rdf:resource="http://creativecommons.org/ns#DerivativeWorks" />
      </cc:License>
    </rdf:RDF>
  </metadata>
</svg>
