<?xml version="1.0" encoding="UTF-8" standalone="no"?>
<!-- Created with Inkscape (http://www.inkscape.org/) -->

<svg
   xmlns:dc="http://purl.org/dc/elements/1.1/"
   xmlns:cc="http://creativecommons.org/ns#"
   xmlns:rdf="http://www.w3.org/1999/02/22-rdf-syntax-ns#"
   xmlns:svg="http://www.w3.org/2000/svg"
   xmlns="http://www.w3.org/2000/svg"
   xmlns:sodipodi="http://sodipodi.sourceforge.net/DTD/sodipodi-0.dtd"
   xmlns:inkscape="http://www.inkscape.org/namespaces/inkscape"
   id="svg2"
   sodipodi:docname="paro-AL-tired.svg"
   inkscape:export-filename="C:\Documents and Settings\Compaq_Owner\Desktop\PEC sticks-standing1mm.png"
   viewBox="0 0 93.604 176.04"
   sodipodi:version="0.32"
   inkscape:export-xdpi="90"
   version="1.0"
   inkscape:export-ydpi="90"
   inkscape:version="0.92.1 r15371"
   width="99.844261"
   height="187.77599">
  <defs
     id="defs4">
    <linearGradient
       id="linearGradient2974"
       y2="539.27002"
       gradientUnits="userSpaceOnUse"
       x2="247.31"
       gradientTransform="translate(-164.25,-294.93)"
       y1="498.13"
       x1="200.38"
       inkscape:collect="always">
      <stop
         id="stop6741"
         style="stop-color:rgb(0, 0, 0)"
         offset="0" />
      <stop
         id="stop6743"
         style="stop-color:rgb(0, 0, 0);stop-opacity:0"
         offset="1" />
    </linearGradient>
  </defs>
  <sodipodi:namedview
     id="base"
     bordercolor="#666666"
     inkscape:pageshadow="2"
     inkscape:guide-bbox="true"
     pagecolor="#ffffff"
     inkscape:window-height="937"
     inkscape:window-maximized="0"
     inkscape:zoom="4.090535"
     inkscape:window-x="0"
     showgrid="false"
     borderopacity="1.0"
     inkscape:current-layer="layer1"
     inkscape:cx="8.9054391"
     inkscape:cy="139.65946"
     showguides="true"
     inkscape:window-y="25"
     inkscape:window-width="1197"
     inkscape:pageopacity="0.0"
     inkscape:document-units="px" />
  <g
     id="layer1"
     sodipodi:insensitive="true"
     inkscape:label="layer"
     inkscape:groupmode="layer"
     transform="translate(-12.077,-24.972)">
    <path
       id="path6737"
       sodipodi:nodetypes="cccccccccccccccccccccc"
       style="fill:url(#linearGradient2974)"
       d="m 48.658,181.67 c 17.918,-1.1256 -19.152,4.597 -21.411,4.9915 -11.457,1.147 24.249,-2.3767 36.651,-3.5734 26.066,-1.719 -34.98,5.9061 -38.441,6.5668 1.0545,-3.6632 47.781,-10.571 35.157,-4.452 -19.938,8.3655 -16.315,5.8023 2.8884,4.025 31.569,-2.2292 -6.8653,4.3022 -17.713,6.3926 -5.9959,-2.3829 55.296,-11.241 27.05,-3.8016 -6.1835,2.1098 -8.972,4.135 -2.7768,4.7796 6.0221,0.55093 12.06,0.95687 18.092,1.4303 -1.3857,1.7624 -4.2858,2.7567 -8.6958,2.9851 -6.0975,-0.53553 -12.211,-0.90874 -18.315,-1.3911 -17.06,-1.9876 17.712,-12.913 21.717,-9.5635 -7.8394,2.1283 -51.421,8.3118 -28.189,2.2379 27.128,-4.2443 18.93,-1.0068 0.36656,0.0166 -18.757,1.9394 -26.03,2.6465 -4.0793,-5.9874 9.1014,-3.6174 -44.35,7.9772 -16.429,-0.0682 11.59,-1.7496 61.215,-8.0853 21.05,-0.14342 -14.3,1.2458 -65.416,6.8438 -19.982,-2.571 20.893,-3.5696 26.702,-2.1504 3.5637,1.2484 l 9.4962,-3.1222 6e-6,4e-5 z"
       inkscape:connector-curvature="0" />
    <path
       id="path4874"
       sodipodi:nodetypes="ccc"
       style="fill:none;stroke:#000000;stroke-width:1.89999998"
       d="m 55.228,60.55 c -1.0096,21.033 0.10322,25.781 -0.17375,33.103 0.25601,17.906 1.3379,26.226 3.3503,36.044"
       inkscape:connector-curvature="0" />
    <path
       id="path4876"
       style="fill:none;stroke:#000000;stroke-width:1.89999998"
       d="M 77.593,126.25 C 73.195,117.28 63.407,105.78 59.798,91.244 59.51,79.92 57.307,58.755 57.307,58.755"
       sodipodi:nodetypes="ccc"
       inkscape:transform-center-y="-4.3208492"
       inkscape:transform-center-x="21.59797"
       inkscape:connector-curvature="0" />
    <path
       id="path4878"
       sodipodi:nodetypes="csc"
       style="fill:none;stroke:#000000;stroke-width:1.89999998"
       d="m 24.564,116.95 c 3.5767,67.984 -5.765,61.681 -5.26,63.196 0.50508,1.5152 1.0102,3.5355 1.0102,3.5355"
       inkscape:connector-curvature="0" />
    <path
       id="path4882"
       sodipodi:nodetypes="cssc"
       style="fill:#000000;fill-rule:evenodd;stroke:#000000;stroke-width:1px"
       d="m 18.799,180.65 c -2.444,2.4847 -8.1626,2.4836 -5.5558,4.0406 5.3668,3.2055 4.9739,6.7943 8.5863,3.0305 3.9322,-4.0971 13.132,-0.50508 -3.0305,-7.0711 z"
       inkscape:connector-curvature="0" />
    <g
       id="g3816"
       transform="matrix(0.97781,-0.2095,0.2095,0.97781,-21.118,-5.8183)">
      <path
         id="path4880"
         sodipodi:nodetypes="csc"
         style="fill:none;stroke:#000000;stroke-width:1.89999998"
         d="m 22.154,132.47 c 11.69,30.184 -1.8496,59.663 -1.4093,62.275 0.2655,1.575 13.208,1.4878 13.208,1.4878"
         inkscape:connector-curvature="0" />
      <path
         id="path5757"
         sodipodi:nodetypes="cssc"
         style="fill:#000000;fill-rule:evenodd;stroke:#000000;stroke-width:1px"
         d="m 25.709,192.58 c -2.444,2.4847 -5.6626,1.0551 -3.0558,2.612 5.3668,3.2055 12.831,6.08 16.443,2.3162 3.9322,-4.0971 2.7748,1.6378 -13.388,-4.9282 z"
         inkscape:connector-curvature="0" />
    </g>
    <path
       id="path5761"
       style="fill:#000000;fill-rule:evenodd;stroke:#000000;stroke-width:1px"
       d="m 79.113,134.97 c 1.4708,1.052 1.623,7.4151 2.9705,4.3796 1.9594,-4.4136 3.0913,-8.4699 -0.39248,-10.834 -4.7683,-3.2354 -7.6468,-12.545 -2.578,6.4541 z"
       sodipodi:nodetypes="cssc"
       inkscape:transform-center-y="2.9659841"
       inkscape:transform-center-x="-0.51913535"
       inkscape:connector-curvature="0" />
    <path
       id="path3787"
       style="fill:#000000;fill-rule:evenodd;stroke:#000000;stroke-width:1px"
       d="m 57.424,126.74 c -2.4166,-7.6297 5.7344,3.1241 3.5989,10.007 -2.4945,5.1945 -7.3798,9.2896 -3.5989,-10.007 z"
       inkscape:transform-center-x="-0.58682935"
       inkscape:transform-center-y="-2.8648816"
       sodipodi:nodetypes="ccc"
       inkscape:connector-curvature="0" />
    <path
       id="path3077"
       sodipodi:nodetypes="cszsssc"
       style="fill:none;stroke:#000000;stroke-width:3"
       d="m 60.883,56.113 c -0.30734,2.4398 -6.9365,0.0745 -11.985,2.7056 -5.0481,2.6311 -11.75,5.7974 -17.372,19.086 -5.6219,13.289 -7.6547,41.768 -4.7612,40.191 3.3875,-1.8463 1.8046,-22.977 10.711,-39.181 3.0531,-5.5544 4.2207,-7.7753 11.018,-14.44 1.4816,-1.4526 12.085,-6.4563 12.388,-8.3621 z"
       inkscape:connector-curvature="0" />
    <path
       id="path3075"
       sodipodi:rx="12.857142"
       sodipodi:ry="25"
       style="fill:none;stroke:#000000;stroke-width:2.35339999;stroke-linecap:round"
       sodipodi:type="arc"
       d="m 444.0348,362.03361 a 12.857142,25 0 0 1 18.14636,0.97228 12.857142,25 0 0 1 -0.44121,35.28756 12.857142,25 0 0 1 -18.14922,-0.7435 12.857142,25 0 0 1 0.32354,-35.29239"
       sodipodi:open="true"
       transform="matrix(0.73779,0.82745,-0.82378,0.5487,60.878,-539.79)"
       sodipodi:cy="380.21933"
       sodipodi:cx="452.85715"
       sodipodi:end="3.9431937"
       sodipodi:start="3.9561603" />
    <path
       id="path4833"
       sodipodi:rx="3.5714285"
       sodipodi:ry="4.6428571"
       style="fill:none;stroke:#000000;stroke-width:2.07500005;stroke-linecap:round"
       sodipodi:type="arc"
       d="m 293.26364,368.62769 a 3.5714285,4.6428571 0 0 1 5.04066,0.18056 3.5714285,4.6428571 0 0 1 -0.12256,6.55341 3.5714285,4.6428571 0 0 1 -5.04145,-0.13808 3.5714285,4.6428571 0 0 1 0.0899,-6.5543"
       sodipodi:open="true"
       transform="matrix(0.76142,0.69877,-0.73389,0.63983,133.03,-405.58)"
       sodipodi:cy="372.00504"
       sodipodi:cx="295.71429"
       sodipodi:end="3.9431937"
       sodipodi:start="3.9561603" />
    <path
       id="path4835"
       sodipodi:rx="3.5714285"
       sodipodi:ry="4.6428571"
       style="fill:none;stroke:#000000;stroke-width:2.07500005;stroke-linecap:round"
       sodipodi:type="arc"
       d="m 293.26364,368.62769 a 3.5714285,4.6428571 0 0 1 5.04066,0.18056 3.5714285,4.6428571 0 0 1 -0.12256,6.55341 3.5714285,4.6428571 0 0 1 -5.04145,-0.13808 3.5714285,4.6428571 0 0 1 0.0899,-6.5543"
       sodipodi:open="true"
       transform="matrix(0.76142,0.69877,-0.73389,0.63983,141.65,-397.93)"
       sodipodi:cy="372.00504"
       sodipodi:cx="295.71429"
       sodipodi:end="3.9431937"
       sodipodi:start="3.9561603" />
    <path
       id="path4837"
       sodipodi:nodetypes="cc"
       style="fill:none;stroke:#000000;stroke-width:1.25"
       d="m 75.273,59.869 c 4.55,-4.13 -4.96,-9.093 -8.196,-9.887"
       inkscape:connector-curvature="0" />
  </g>
  <metadata
     id="metadata23">
    <rdf:RDF>
      <cc:Work>
        <dc:format>image/svg+xml</dc:format>
        <dc:type
           rdf:resource="http://purl.org/dc/dcmitype/StillImage" />
        <cc:license
           rdf:resource="http://creativecommons.org/licenses/publicdomain/" />
        <dc:publisher>
          <cc:Agent
             rdf:about="http://openclipart.org/">
            <dc:title>Openclipart</dc:title>
          </cc:Agent>
        </dc:publisher>
        <dc:title>Al tired</dc:title>
        <dc:date>2010-10-19T11:35:24</dc:date>
        <dc:description />
        <dc:source>https://openclipart.org/detail/91513/al-tired-by-cybergedeon</dc:source>
        <dc:creator>
          <cc:Agent>
            <dc:title>dominiquechappard</dc:title>
          </cc:Agent>
        </dc:creator>
        <dc:subject>
          <rdf:Bag>
            <rdf:li>man</rdf:li>
            <rdf:li>tired</rdf:li>
          </rdf:Bag>
        </dc:subject>
      </cc:Work>
      <cc:License
         rdf:about="http://creativecommons.org/licenses/publicdomain/">
        <cc:permits
           rdf:resource="http://creativecommons.org/ns#Reproduction" />
        <cc:permits
           rdf:resource="http://creativecommons.org/ns#Distribution" />
        <cc:permits
           rdf:resource="http://creativecommons.org/ns#DerivativeWorks" />
      </cc:License>
    </rdf:RDF>
  </metadata>
</svg>
