<?xml version="1.0" encoding="UTF-8" standalone="no"?>
<!-- Created with Inkscape (http://www.inkscape.org/) -->

<svg
   xmlns:dc="http://purl.org/dc/elements/1.1/"
   xmlns:cc="http://creativecommons.org/ns#"
   xmlns:rdf="http://www.w3.org/1999/02/22-rdf-syntax-ns#"
   xmlns:svg="http://www.w3.org/2000/svg"
   xmlns="http://www.w3.org/2000/svg"
   xmlns:sodipodi="http://sodipodi.sourceforge.net/DTD/sodipodi-0.dtd"
   xmlns:inkscape="http://www.inkscape.org/namespaces/inkscape"
   id="svg2"
   sodipodi:docname="paro-AL-sleeping.svg"
   inkscape:export-filename="C:\Documents and Settings\Compaq_Owner\Desktop\PEC sticks-standing1mm.png"
   viewBox="0 0 236.3 81.748"
   sodipodi:version="0.32"
   inkscape:export-xdpi="90"
   version="1.0"
   inkscape:export-ydpi="90"
   inkscape:version="0.92.1 r15371"
   width="252.05333"
   height="87.197868">
  <defs
     id="defs4">
    <linearGradient
       id="linearGradient2996"
       y2="610.07001"
       gradientUnits="userSpaceOnUse"
       x2="415.35999"
       gradientTransform="translate(-170.36,-336.71)"
       y1="610.07001"
       x1="158.03999"
       inkscape:collect="always">
      <stop
         id="stop6741"
         style="stop-color:rgb(0, 0, 0)"
         offset="0" />
      <stop
         id="stop6743"
         style="stop-color:rgb(0, 0, 0);stop-opacity:0"
         offset="1" />
    </linearGradient>
  </defs>
  <sodipodi:namedview
     id="base"
     bordercolor="#666666"
     inkscape:pageshadow="2"
     inkscape:guide-bbox="true"
     pagecolor="#ffffff"
     inkscape:window-height="999"
     inkscape:window-maximized="0"
     inkscape:zoom="2.2238683"
     inkscape:window-x="-4"
     showgrid="false"
     borderopacity="1.0"
     inkscape:current-layer="layer3"
     inkscape:cx="179.57332"
     inkscape:cy="31.641707"
     showguides="true"
     inkscape:window-y="-2"
     inkscape:window-width="1280"
     inkscape:pageopacity="0.0"
     inkscape:document-units="px" />
  <g
     id="layer3"
     inkscape:label="tete"
     inkscape:groupmode="layer"
     transform="translate(-5.965,16.809)">
    <path
       id="path6737"
       sodipodi:nodetypes="cccscccccccccc"
       style="fill:url(#linearGradient2996)"
       d="m 98.507,53.529 c 51.143,3.537 -54.665,4.522 -61.114,4.694 106.08,2.109 157.17,7.083 -5.108,6.694 129.52,-18.527 118.82,-20.435 152.82,-20.041 4.0359,0.04678 -1.083,5.5033 4.7897,5.824 -53.259,3.4195 -70.017,8.7891 38.556,-8.6258 1.1072,2.8817 7.4758,1.3376 13.819,6.1703 -15.311,-0.22867 1.0234,3.8764 -26.452,4.5691 -29.546,-1.764 -92.203,7.5772 -79.378,5.3982 -18.709,-6.0973 -97.663,4.8133 -78.253,1.5813 263.89,6.9059 -205.84,2.311 3.0474,-6.2658 59.636,-1.3971 76.215,4.1142 10.172,4.3054 l 27.105,-4.3041 1.2e-4,6.3e-5 z"
       inkscape:connector-curvature="0" />
    <path
       id="path4876"
       style="fill:none;stroke:#000000;stroke-width:1.89999998"
       d="m 32.997,18.543 c -0.76666,1.1908 2.0468,-43.103 6.5052,-32.864 3.9807,9.1416 5.6389,10.087 20.25,46.15"
       sodipodi:nodetypes="csc"
       inkscape:transform-center-y="-35.159125"
       inkscape:transform-center-x="-3.3970573"
       inkscape:connector-curvature="0" />
    <path
       id="path4878"
       style="fill:none;stroke:#000000;stroke-width:1.89999998"
       d="m 129.54,42.906 c 7.4584,-10.795 26.901,-45.057 35.253,-36.393 10.314,10.699 20.505,28.065 31.579,40.684 1.8584,0.07962 8.3455,-7.9834 8.3455,-7.9834"
       sodipodi:nodetypes="cscc"
       inkscape:transform-center-y="17.320286"
       inkscape:transform-center-x="7.4628359"
       inkscape:connector-curvature="0" />
    <path
       id="path4880"
       style="fill:none;stroke:#000000;stroke-width:1.89999998"
       d="m 130.11,37.796 c 36.793,-15.35 58.565,-16.659 93.935,-0.78466 2.6137,1.2641 1.8707,-5.0903 1.8707,-5.0903"
       sodipodi:nodetypes="ccc"
       inkscape:transform-center-y="-5.6225259"
       inkscape:transform-center-x="-49.367108"
       inkscape:connector-curvature="0" />
    <path
       id="path4882"
       sodipodi:nodetypes="cssc"
       style="fill:#000000;fill-rule:evenodd;stroke:#000000;stroke-width:1px"
       inkscape:transform-center-y="-2.876889"
       d="m 207.45,39.118 c 4.218,1.5532 10.493,-2.158 7.9414,-0.08539 -5.2534,4.2671 -5.4195,2.9002 -10.952,5.641 -5.9914,2.9682 -14.24,4.5581 3.0105,-5.5556 z"
       inkscape:connector-curvature="0" />
    <path
       id="path5757"
       sodipodi:nodetypes="cssc"
       style="fill:#000000;fill-rule:evenodd;stroke:#000000;stroke-width:1px"
       d="m 223.91,34.997 c 1.3251,3.2235 -1.2538,5.6219 1.2019,3.8362 5.0558,-3.6764 10.631,-9.4119 8.5886,-14.212 -2.2233,-5.2254 2.596,-1.9086 -9.7905,10.376 z"
       inkscape:connector-curvature="0" />
    <path
       id="path4874"
       style="fill:none;stroke:#000000;stroke-width:1.89999998"
       d="M 61.231,40.408 C 74.114,25.675 78.944,10.95 78.068,-2.206 77.628,-8.8014 39.497,66.106 25.85,51.269"
       sodipodi:nodetypes="csc"
       inkscape:transform-center-y="-10.202131"
       inkscape:transform-center-x="3.049289"
       inkscape:connector-curvature="0" />
    <path
       id="path5761"
       style="fill:#000000;fill-rule:evenodd;stroke:#000000;stroke-width:1px"
       d="m 29.369,49.512 c -3.0007,0.03928 -8.7508,-1.7757 -7.6228,-0.13812 1.0802,1.5686 4.6219,6.957 7.5441,4.726 3.181,-2.4285 11.785,-1.5064 0.07865,-4.5878 z"
       sodipodi:nodetypes="cssc"
       inkscape:transform-center-y="32.933667"
       inkscape:transform-center-x="-4.2615592"
       inkscape:connector-curvature="0" />
    <path
       id="path3077"
       sodipodi:nodetypes="cccsc"
       style="fill:none;stroke:#000000;stroke-width:3;stroke-linecap:round;stroke-linejoin:round"
       d="m 57.411,30.62 c 2.6968,2.2363 1.545,1.6892 4.5404,3.511 9.5895,5.4699 60.228,7.9554 67.478,2.6265 0.41042,15.376 -39.961,23.748 -68.166,5.4157 -1.782,-1.158 -3.484,-12.752 -3.852,-11.553 z"
       inkscape:connector-curvature="0" />
    <path
       id="path3075"
       sodipodi:rx="12.857142"
       sodipodi:ry="25"
       style="fill:none;stroke:#000000;stroke-width:2.35339999;stroke-linecap:round"
       sodipodi:type="arc"
       d="m 444.0348,362.03361 a 12.857142,25 0 0 1 18.14636,0.97228 12.857142,25 0 0 1 -0.44121,35.28756 12.857142,25 0 0 1 -18.14922,-0.7435 12.857142,25 0 0 1 0.32354,-35.29239"
       sodipodi:open="true"
       inkscape:transform-center-x="23.744032"
       inkscape:transform-center-y="1.7857664"
       transform="matrix(-0.023654,-1.0851,1.0012,-0.0029157,-337.68,526.69)"
       sodipodi:cy="380.21933"
       sodipodi:cx="452.85715"
       sodipodi:end="3.9431937"
       sodipodi:start="3.9561603" />
    <path
       id="path4835"
       sodipodi:rx="3.5714285"
       sodipodi:ry="4.6428571"
       style="fill:none;stroke:#000000;stroke-width:2.07500005;stroke-linecap:round"
       sodipodi:type="arc"
       d="m 293.26364,368.62769 a 3.5714285,4.6428571 0 0 1 5.04066,0.18056 3.5714285,4.6428571 0 0 1 -0.12256,6.55341 3.5714285,4.6428571 0 0 1 -5.04145,-0.13808 3.5714285,4.6428571 0 0 1 0.0899,-6.5543"
       sodipodi:open="true"
       inkscape:transform-center-x="30.866835"
       inkscape:transform-center-y="-6.0409516"
       transform="matrix(-0.12713,-0.99189,0.99189,-0.12713,-306.24,366.96)"
       sodipodi:cy="372.00504"
       sodipodi:cx="295.71429"
       sodipodi:end="3.9431937"
       sodipodi:start="3.9561603" />
    <path
       id="path4837"
       style="fill:none;stroke:#000000;stroke-width:1.25"
       d="m 46.113,23.036 c 1.3738,3.9491 -0.38684,7.1189 -2.8297,9.0745"
       sodipodi:nodetypes="cc"
       inkscape:transform-center-y="-4.8227816"
       inkscape:transform-center-x="11.082911"
       inkscape:connector-curvature="0" />
  </g>
  <metadata
     id="metadata20">
    <rdf:RDF>
      <cc:Work>
        <dc:format>image/svg+xml</dc:format>
        <dc:type
           rdf:resource="http://purl.org/dc/dcmitype/StillImage" />
        <cc:license
           rdf:resource="http://creativecommons.org/licenses/publicdomain/" />
        <dc:publisher>
          <cc:Agent
             rdf:about="http://openclipart.org/">
            <dc:title>Openclipart</dc:title>
          </cc:Agent>
        </dc:publisher>
        <dc:title>Al sleeping</dc:title>
        <dc:date>2010-10-20T17:31:42</dc:date>
        <dc:description>This is Al !</dc:description>
        <dc:source>https://openclipart.org/detail/91651/al-sleeping-by-cybergedeon</dc:source>
        <dc:creator>
          <cc:Agent>
            <dc:title>dominiquechappard</dc:title>
          </cc:Agent>
        </dc:creator>
        <dc:subject>
          <rdf:Bag>
            <rdf:li>man</rdf:li>
            <rdf:li>relax</rdf:li>
            <rdf:li>sleeping</rdf:li>
            <rdf:li>stick</rdf:li>
            <rdf:li>stick figure</rdf:li>
            <rdf:li>stick man</rdf:li>
          </rdf:Bag>
        </dc:subject>
      </cc:Work>
      <cc:License
         rdf:about="http://creativecommons.org/licenses/publicdomain/">
        <cc:permits
           rdf:resource="http://creativecommons.org/ns#Reproduction" />
        <cc:permits
           rdf:resource="http://creativecommons.org/ns#Distribution" />
        <cc:permits
           rdf:resource="http://creativecommons.org/ns#DerivativeWorks" />
      </cc:License>
    </rdf:RDF>
  </metadata>
</svg>
