<?xml version="1.0" encoding="UTF-8" standalone="no"?>
<!-- Created with Inkscape (http://www.inkscape.org/) -->

<svg
   xmlns:dc="http://purl.org/dc/elements/1.1/"
   xmlns:cc="http://creativecommons.org/ns#"
   xmlns:rdf="http://www.w3.org/1999/02/22-rdf-syntax-ns#"
   xmlns:svg="http://www.w3.org/2000/svg"
   xmlns="http://www.w3.org/2000/svg"
   xmlns:sodipodi="http://sodipodi.sourceforge.net/DTD/sodipodi-0.dtd"
   xmlns:inkscape="http://www.inkscape.org/namespaces/inkscape"
   id="svg2"
   sodipodi:docname="paro-AL-hip-hop.svg"
   inkscape:export-filename="C:\Documents and Settings\Compaq_Owner\Desktop\PEC sticks-standing1mm.png"
   viewBox="0 0 107.15 227.42"
   sodipodi:version="0.32"
   inkscape:export-xdpi="90"
   version="1.0"
   inkscape:export-ydpi="90"
   inkscape:version="0.92.1 r15371"
   width="114.29333"
   height="242.58133">
  <defs
     id="defs4">
    <linearGradient
       id="linearGradient3818"
       y2="558.13"
       gradientUnits="userSpaceOnUse"
       x2="366.12"
       gradientTransform="translate(-92.928,-388.16)"
       y1="525.78003"
       x1="91.486"
       inkscape:collect="always">
      <stop
         id="stop6741"
         style="stop-color:rgb(0, 0, 0)"
         offset="0" />
      <stop
         id="stop6743"
         style="stop-color:rgb(0, 0, 0);stop-opacity:0"
         offset="1" />
    </linearGradient>
  </defs>
  <sodipodi:namedview
     id="base"
     bordercolor="#666666"
     inkscape:pageshadow="2"
     inkscape:guide-bbox="true"
     pagecolor="#ffffff"
     inkscape:window-height="999"
     inkscape:window-maximized="0"
     inkscape:zoom="4.4477366"
     inkscape:window-x="0"
     showgrid="false"
     borderopacity="1.0"
     inkscape:current-layer="layer3"
     inkscape:cx="69.429585"
     inkscape:cy="-0.91123331"
     showguides="true"
     inkscape:window-y="0"
     inkscape:window-width="1280"
     inkscape:pageopacity="0.0"
     inkscape:document-units="px" />
  <g
     id="layer3"
     inkscape:label="layer"
     inkscape:groupmode="layer"
     transform="translate(-83.399,68.258)">
    <path
       id="path6737"
       sodipodi:nodetypes="cccccccccccccccc"
       style="fill:url(#linearGradient3818)"
       d="m 131.81,137.76 c 20.964,2.2479 -22.407,2.8739 -25.051,2.9831 -13.405,-0.77307 28.371,1.7153 42.882,2.622 30.497,3.1433 -40.926,1.3775 -44.975,1.6326 1.2337,-5.4601 55.903,-5.7744 41.133,0.92259 -23.327,8.5574 -19.089,5.3806 3.3794,6.9022 15.255,0.0779 24.749,-1.9386 37.554,-2.9098 0.45387,1.8313 1.2212,3.7077 3.8212,6.7789 -6.2759,-0.14532 -5.0514,-0.0664 -16.314,0.37385 -19.622,1.433 -79.057,7.6439 -39.737,-11.553 10.649,-3.5933 -51.889,2.507 -19.222,-3.7718 13.56,-0.1343 71.621,1.088 24.628,4.4738 -16.731,-1.2539 -76.536,-3.9557 -23.379,-8.4557 24.445,-0.8879 31.241,2.6146 4.1695,2.7361 l 11.11,-2.7353 4e-5,4e-5 z"
       inkscape:connector-curvature="0" />
    <path
       id="path4876"
       sodipodi:nodetypes="cccc"
       style="fill:none;stroke:#000000;stroke-width:1.89999998"
       d="m 185.7,101.83 c -1.8039,0.0721 3.2541,-8.2312 2.1019,-9.0353 -10,-16.463 -10.929,-23.798 -19.419,-27.911 -11.357,0.32953 -25.134,-1.0253 -41.579,1.7134"
       inkscape:connector-curvature="0" />
    <path
       id="path4878"
       style="fill:none;stroke:#000000;stroke-width:1.89999998"
       d="m 98.786,4.8292 c 14.918,-1.3739 32.411,8.3354 40.958,6.9067 1.9025,-16.729 -5.3061,-43.971 -4.1118,-43.58 1.5179,0.49702 10.815,1.0166 10.815,1.0166"
       sodipodi:nodetypes="ccsc"
       inkscape:transform-center-y="-13.969906"
       inkscape:transform-center-x="3.073081"
       inkscape:connector-curvature="0" />
    <path
       id="path4880"
       sodipodi:nodetypes="ccsc"
       style="fill:none;stroke:#000000;stroke-width:1.89999998"
       d="m 98.664,5.6034 c -0.0591,-11.345 8.9445,-27.156 6.6801,-39.063 -5.8921,-6.4026 -15.268,-21.231 -20.813,-25.005 -1.6741,-1.1391 8.7636,-4.7392 8.7636,-4.7392"
       inkscape:connector-curvature="0" />
    <path
       id="path4882"
       sodipodi:nodetypes="cssc"
       style="fill:#000000;fill-rule:evenodd;stroke:#000000;stroke-width:1px"
       d="m 145.86,-28.414 c 2.2168,-2.9111 8.2978,-1.6242 5.5646,-2.6732 -5.6271,-2.1597 -5.1109,-0.82701 -10.227,-1.4661 -5.5403,-0.69213 -12.014,0.68377 4.6622,4.1393 z"
       inkscape:connector-curvature="0" />
    <path
       id="path5757"
       sodipodi:nodetypes="cssc"
       style="fill:#000000;fill-rule:evenodd;stroke:#000000;stroke-width:1px"
       inkscape:transform-center-y="-5.2078558"
       d="m 88.465,-58.342 c -3.0818,-1.6276 -5.7161,0.70987 -3.7035,-1.5636 4.1436,-4.6806 10.386,-9.6812 14.969,-7.1886 4.9885,2.7134 -1.1878,-0.73333 -11.266,8.7522 z"
       inkscape:connector-curvature="0" />
    <path
       id="path5759"
       style="fill:#000000;fill-rule:evenodd;stroke:#000000;stroke-width:1px"
       d="m 187.8,102.87 c -2.2874,1.9924 -1.2281,3.0525 -2.8472,3.8819 -3.2408,1.6601 -4.5357,0.61517 -0.93701,-4.1393 3.9174,-5.1754 6.564,-18.242 3.7842,0.25747 z"
       sodipodi:nodetypes="cssc"
       inkscape:transform-center-y="7.5444327"
       inkscape:transform-center-x="-7.2864975"
       inkscape:connector-curvature="0" />
    <g
       id="g2851"
       transform="matrix(0.72487,0.094721,-0.17301,0.88293,44.079,-5.6892)">
      <path
         id="path4874"
         sodipodi:nodetypes="ccc"
         style="fill:none;stroke:#000000;stroke-width:2.34509993"
         d="m 129.59,76.976 c -0.78172,24.434 1.5233,16.182 1.227,37.294 -4.0574,22.514 -1.4112,5.3452 -6.761,38.058 -1.2959,-0.46113 -11.638,0.43821 -11.638,0.43821"
         inkscape:connector-curvature="0" />
      <path
         id="path5761"
         style="fill:#000000;fill-rule:evenodd;stroke:#000000;stroke-width:1.23430002px"
         d="m 116.86,153.55 c 3.9291,-1.1003 8.979,0.009 6.8626,-1.5477 -2.0269,-1.4913 -7.806,-6.0637 -10.784,-2.3773 -3.2414,4.0127 -12.658,4.3602 3.9212,3.9251 z"
         inkscape:transform-center-x="-1.0354559"
         inkscape:transform-center-y="-0.17235711"
         sodipodi:nodetypes="cssc"
         inkscape:connector-curvature="0" />
    </g>
    <path
       id="path3077"
       sodipodi:nodetypes="ccssssc"
       style="fill:none;stroke:#000000;stroke-width:3"
       d="m 126.35,77.472 c -1.3203,-2.4035 -1.2515,-3.3849 -1.3016,-6.3843 2.0819,-9.34 -8.4736,-21.975 -15.335,-38.552 -3.6158,-8.7358 -1.9519,-21.714 -9.2346,-26.705 -4.2787,-2.9322 2.9349,23.248 4.589,27.765 2.7078,7.3948 17.317,27.297 19.885,37.482 0.44648,1.7706 0.419,4.4994 1.3965,6.3936 z"
       inkscape:connector-curvature="0" />
    <path
       id="path3075"
       sodipodi:rx="12.857142"
       sodipodi:ry="25"
       style="fill:none;stroke:#000000;stroke-width:2.35339999;stroke-linecap:round"
       sodipodi:type="arc"
       d="m 444.0348,362.03361 a 12.857142,25 0 0 1 18.14636,0.97228 12.857142,25 0 0 1 -0.44121,35.28756 12.857142,25 0 0 1 -18.14922,-0.7435 12.857142,25 0 0 1 0.32354,-35.29239"
       sodipodi:open="true"
       transform="matrix(0.9719,-0.48317,-0.46254,-0.88793,-124.61,653.26)"
       sodipodi:cy="380.21933"
       sodipodi:cx="452.85715"
       sodipodi:end="3.9431937"
       sodipodi:start="3.9561603" />
    <path
       id="path4835"
       sodipodi:rx="3.5714285"
       sodipodi:ry="4.6428571"
       style="fill:none;stroke:#000000;stroke-width:2.07500005;stroke-linecap:round"
       sodipodi:type="arc"
       d="m 293.26364,368.62769 a 3.5714285,4.6428571 0 0 1 5.04066,0.18056 3.5714285,4.6428571 0 0 1 -0.12256,6.55341 3.5714285,4.6428571 0 0 1 -5.04145,-0.13808 3.5714285,4.6428571 0 0 1 0.0899,-6.5543"
       sodipodi:open="true"
       transform="matrix(0.93741,-0.34822,-0.34822,-0.93741,-0.12861,547.56)"
       sodipodi:cy="372.00504"
       sodipodi:cx="295.71429"
       sodipodi:end="3.9431937"
       sodipodi:start="3.9561603" />
    <path
       id="path4837"
       sodipodi:nodetypes="cc"
       style="fill:none;stroke:#000000;stroke-width:1.25"
       d="m 143.26,79.085 c -4.5534,1.2785 -4.5039,5.9527 -4.4287,7.4343"
       inkscape:connector-curvature="0" />
  </g>
  <metadata
     id="metadata22">
    <rdf:RDF>
      <cc:Work>
        <dc:format>image/svg+xml</dc:format>
        <dc:type
           rdf:resource="http://purl.org/dc/dcmitype/StillImage" />
        <cc:license
           rdf:resource="http://creativecommons.org/licenses/publicdomain/" />
        <dc:publisher>
          <cc:Agent
             rdf:about="http://openclipart.org/">
            <dc:title>Openclipart</dc:title>
          </cc:Agent>
        </dc:publisher>
        <dc:title>Al dancing hip-hop</dc:title>
        <dc:date>2010-10-19T17:03:45</dc:date>
        <dc:description>THIS IS AL</dc:description>
        <dc:source>https://openclipart.org/detail/91531/al-dancing-hip-hop-by-cybergedeon</dc:source>
        <dc:creator>
          <cc:Agent>
            <dc:title>dominiquechappard</dc:title>
          </cc:Agent>
        </dc:creator>
        <dc:subject>
          <rdf:Bag>
            <rdf:li>dancing</rdf:li>
            <rdf:li>hip-hop</rdf:li>
            <rdf:li>stick</rdf:li>
            <rdf:li>stick figure</rdf:li>
            <rdf:li>stick man</rdf:li>
          </rdf:Bag>
        </dc:subject>
      </cc:Work>
      <cc:License
         rdf:about="http://creativecommons.org/licenses/publicdomain/">
        <cc:permits
           rdf:resource="http://creativecommons.org/ns#Reproduction" />
        <cc:permits
           rdf:resource="http://creativecommons.org/ns#Distribution" />
        <cc:permits
           rdf:resource="http://creativecommons.org/ns#DerivativeWorks" />
      </cc:License>
    </rdf:RDF>
  </metadata>
</svg>
