<?xml version="1.0" encoding="UTF-8" standalone="no"?>
<!-- Created with Inkscape (http://www.inkscape.org/) -->

<svg
   xmlns:dc="http://purl.org/dc/elements/1.1/"
   xmlns:cc="http://creativecommons.org/ns#"
   xmlns:rdf="http://www.w3.org/1999/02/22-rdf-syntax-ns#"
   xmlns:svg="http://www.w3.org/2000/svg"
   xmlns="http://www.w3.org/2000/svg"
   xmlns:sodipodi="http://sodipodi.sourceforge.net/DTD/sodipodi-0.dtd"
   xmlns:inkscape="http://www.inkscape.org/namespaces/inkscape"
   id="svg2"
   sodipodi:docname="paro-AL-hip-hop-2.svg"
   inkscape:export-filename="C:\Documents and Settings\Compaq_Owner\Desktop\PEC sticks-standing1mm.png"
   viewBox="0 0 139.65 188.99"
   sodipodi:version="0.32"
   inkscape:export-xdpi="90"
   version="1.0"
   inkscape:export-ydpi="90"
   inkscape:version="0.92.1 r15371"
   width="148.95999"
   height="201.58934">
  <defs
     id="defs4">
    <linearGradient
       id="linearGradient2927"
       y2="626.03003"
       gradientUnits="userSpaceOnUse"
       x2="378.26001"
       gradientTransform="translate(-98.085,-331.14)"
       y1="615.44"
       x1="185.47"
       inkscape:collect="always">
      <stop
         id="stop6741"
         style="stop-color:rgb(0, 0, 0)"
         offset="0" />
      <stop
         id="stop6743"
         style="stop-color:rgb(0, 0, 0);stop-opacity:0"
         offset="1" />
    </linearGradient>
  </defs>
  <sodipodi:namedview
     id="base"
     bordercolor="#666666"
     inkscape:pageshadow="2"
     inkscape:guide-bbox="true"
     pagecolor="#ffffff"
     inkscape:window-height="981"
     inkscape:window-maximized="0"
     inkscape:zoom="1.075926"
     inkscape:window-x="140"
     showgrid="false"
     borderopacity="1.0"
     inkscape:current-layer="layer3"
     inkscape:cx="27.233736"
     inkscape:cy="87.067858"
     showguides="true"
     inkscape:window-y="19"
     inkscape:window-width="1102"
     inkscape:pageopacity="0.0"
     inkscape:document-units="px" />
  <g
     id="layer3"
     inkscape:label="head"
     inkscape:groupmode="layer"
     transform="translate(-78.242,11.239)">
    <path
       id="path3075"
       sodipodi:rx="12.857142"
       sodipodi:ry="25"
       style="fill:none;stroke:#000000;stroke-width:2.35339999;stroke-linecap:round"
       sodipodi:type="arc"
       d="m 444.0348,362.03361 a 12.857142,25 0 0 1 18.14636,0.97228 12.857142,25 0 0 1 -0.44121,35.28756 12.857142,25 0 0 1 -18.14922,-0.7435 12.857142,25 0 0 1 0.32354,-35.29239"
       sodipodi:open="true"
       transform="matrix(1.085,-0.029188,-0.045816,-1.0001,-338.44,514.97)"
       sodipodi:cy="380.21933"
       sodipodi:cx="452.85715"
       sodipodi:end="3.9431937"
       sodipodi:start="3.9561603" />
    <path
       id="path4835"
       sodipodi:rx="3.5714285"
       sodipodi:ry="4.6428571"
       style="fill:none;stroke:#000000;stroke-width:2.07500005;stroke-linecap:round"
       sodipodi:type="arc"
       d="m 293.26364,368.62769 a 3.5714285,4.6428571 0 0 1 5.04066,0.18056 3.5714285,4.6428571 0 0 1 -0.12256,6.55341 3.5714285,4.6428571 0 0 1 -5.04145,-0.13808 3.5714285,4.6428571 0 0 1 0.0899,-6.5543"
       sodipodi:open="true"
       transform="matrix(0.9969,0.078705,0.078705,-0.9969,-181.04,471.48)"
       sodipodi:cy="372.00504"
       sodipodi:cx="295.71429"
       sodipodi:end="3.9431937"
       sodipodi:start="3.9561603" />
    <path
       id="path4837"
       sodipodi:nodetypes="cc"
       style="fill:none;stroke:#000000;stroke-width:1.25"
       d="m 143.66,110.09 c -7.0072,-6.9289 -11.574,-0.83832 -12.491,1.5057"
       inkscape:connector-curvature="0" />
    <path
       id="path4835-2"
       sodipodi:rx="3.5714285"
       sodipodi:ry="4.6428571"
       style="fill:none;stroke:#000000;stroke-width:2.07500005;stroke-linecap:round"
       sodipodi:type="arc"
       d="m 293.26364,368.62769 a 3.5714285,4.6428571 0 0 1 5.04066,0.18056 3.5714285,4.6428571 0 0 1 -0.12256,6.55341 3.5714285,4.6428571 0 0 1 -5.04145,-0.13808 3.5714285,4.6428571 0 0 1 0.0899,-6.5543"
       sodipodi:open="true"
       transform="matrix(0.9969,0.078705,0.078705,-0.9969,-192.24,471.67)"
       sodipodi:cy="372.00504"
       sodipodi:cx="295.71429"
       sodipodi:end="3.9431937"
       sodipodi:start="3.9561603" />
    <path
       id="path3077"
       sodipodi:nodetypes="ccccc"
       style="fill:none;stroke:#000000;stroke-width:3;stroke-linecap:round;stroke-linejoin:round"
       d="m 134,96.37 c -0.98019,-2.6515 -0.77502,-3.5871 -0.40733,-6.5095 -2.6336,-11.97 -15.35,-46.738 -15.91,-69.59 -9.5575,11.238 8.4899,56.379 14.995,69.558 0.1981,1.826 0.61232,4.4671 1.3221,6.5415 z"
       inkscape:connector-curvature="0" />
    <path
       id="path4876"
       style="fill:none;stroke:#000000;stroke-width:1.89999998"
       sodipodi:nodetypes="csc"
       transform="translate(-3.0305,0.21678)"
       d="M 123.23,153.39 C 108.16,150.47 80.122,146.98 82.882,143.38 88.458,136.11 119.82,95.868 134.16,88.045"
       inkscape:connector-curvature="0" />
    <path
       id="path4878"
       style="fill:none;stroke:#000000;stroke-width:1.89999998"
       d="m 121.1,20.298 c 35.551,-2.2786 59.08,-2.4993 86.4,-20.726 1.2246,-0.87792 4.247,11.978 4.247,11.978"
       inkscape:transform-center-x="3.3950747"
       inkscape:transform-center-y="-16.81724"
       transform="translate(-3.0305,0.21678)"
       sodipodi:nodetypes="ccc"
       inkscape:connector-curvature="0" />
    <path
       id="path4880"
       style="fill:none;stroke:#000000;stroke-width:1.89999998"
       sodipodi:nodetypes="ccc"
       transform="translate(-3.0305,0.21678)"
       d="m 120.5,20.584 c 3.3772,-3.619 68.701,-29.654 88.499,-30.004 0.96926,1.2791 2.6497,1.7845 6.1168,3.0742"
       inkscape:connector-curvature="0" />
    <path
       id="path4882"
       style="fill:#000000;fill-rule:evenodd;stroke:#000000;stroke-width:1px"
       sodipodi:nodetypes="cssc"
       transform="translate(-3.0305,0.21678)"
       d="m 207.85,5.6362 c 1.5784,-3.3011 -2.3423,-8.1244 -0.16138,-6.1713 4.49,4.021 3.0686,4.17 5.9723,8.4302 3.1446,4.6136 4.875,11.001 -5.811,-2.2589 z"
       inkscape:connector-curvature="0" />
    <path
       id="path5757"
       style="fill:#000000;fill-rule:evenodd;stroke:#000000;stroke-width:1px"
       d="m 208.64,-6.5598 c 0.64822,-3.4244 -2.3612,-5.2539 0.40406,-3.9997 5.693,2.5821 12.31,7.0762 11.277,12.19 -1.1246,5.5663 0.35116,-1.3511 -11.681,-8.19 z"
       inkscape:transform-center-x="-4.7100162"
       sodipodi:nodetypes="cssc"
       inkscape:transform-center-y="-1.3539256"
       transform="translate(-3.0305,0.21678)"
       inkscape:connector-curvature="0" />
    <path
       id="path5759"
       style="fill:#000000;fill-rule:evenodd;stroke:#000000;stroke-width:1px"
       d="m 129.49,152.77 c 1.5965,2.1304 2.8139,0.91402 3.3707,2.4893 1.1145,3.153 -0.12595,4.611 -4.2363,1.447 -4.4743,-3.4441 -16.942,-4.6618 0.86566,-3.9363 z"
       inkscape:transform-center-x="-11.153184"
       inkscape:transform-center-y="1.9728538"
       transform="translate(-3.0305,0.21678)"
       sodipodi:nodetypes="cssc"
       inkscape:connector-curvature="0" />
    <g
       id="g2851"
       transform="matrix(0.72487,0.094721,-0.17301,0.88293,110.3,2.7884)">
      <path
         id="path4874"
         sodipodi:nodetypes="cccc"
         style="fill:none;stroke:#000000;stroke-width:2.34509993"
         d="m 53.999,91.609 c 30.684,3.1627 28.868,7.638 49.737,16.619 2.0792,10.091 13.779,54.277 13.779,54.277 l 12.36,-1.0837"
         inkscape:connector-curvature="0" />
      <path
         id="path5761"
         style="fill:#000000;fill-rule:evenodd;stroke:#000000;stroke-width:1.23430002px"
         d="m 132.05,161.39 c 6.074,-1.3304 13.573,-0.4838 10.563,-1.9448 -2.8819,-1.3996 -11.06,-5.7146 -16.012,-1.8165 -5.3902,4.2433 -19.669,5.1123 5.4484,3.7612 z"
         inkscape:transform-center-x="-1.578883"
         inkscape:transform-center-y="-0.17235954"
         sodipodi:nodetypes="cssc"
         inkscape:connector-curvature="0" />
    </g>
    <path
       id="path6737"
       sodipodi:nodetypes="cccccccccccccccc"
       style="fill:url(#linearGradient2927)"
       d="m 124.39,156.35 c 26.264,2.2479 -28.072,2.8739 -31.384,2.9831 -16.794,-0.77307 35.544,1.7153 53.723,2.622 38.207,3.1433 -51.273,1.3775 -56.346,1.6326 1.5456,-5.4601 70.037,-5.7744 51.532,0.92259 -29.225,8.5574 -23.915,5.3806 4.2338,6.9022 19.112,0.0779 31.006,-1.9386 47.049,-2.9098 0.56861,1.8313 1.5299,3.7077 4.7873,6.7789 -7.8626,-0.14532 -6.3285,-0.0664 -20.438,0.37385 -24.583,1.433 -99.045,7.6439 -49.783,-11.553 13.341,-3.5933 -65.008,2.507 -24.082,-3.7718 16.988,-0.1343 89.728,1.088 30.855,4.4738 -20.961,-1.2539 -95.887,-3.9557 -29.29,-8.4557 30.625,-0.8879 39.139,2.6146 5.2236,2.7361 l 13.919,-2.7353 5e-5,4e-5 z"
       inkscape:connector-curvature="0" />
  </g>
  <metadata
     id="metadata23">
    <rdf:RDF>
      <cc:Work>
        <dc:format>image/svg+xml</dc:format>
        <dc:type
           rdf:resource="http://purl.org/dc/dcmitype/StillImage" />
        <cc:license
           rdf:resource="http://creativecommons.org/licenses/publicdomain/" />
        <dc:publisher>
          <cc:Agent
             rdf:about="http://openclipart.org/">
            <dc:title>Openclipart</dc:title>
          </cc:Agent>
        </dc:publisher>
        <dc:title>Al dancing Hip-Hop</dc:title>
        <dc:date>2010-10-19T19:32:12</dc:date>
        <dc:description>THIS IS AL</dc:description>
        <dc:source>https://openclipart.org/detail/91537/al-dancing-hip-hop-by-cybergedeon-91537</dc:source>
        <dc:creator>
          <cc:Agent>
            <dc:title>dominiquechappard</dc:title>
          </cc:Agent>
        </dc:creator>
        <dc:subject>
          <rdf:Bag>
            <rdf:li>dance</rdf:li>
            <rdf:li>dancing</rdf:li>
            <rdf:li>hip-hop</rdf:li>
            <rdf:li>stick</rdf:li>
            <rdf:li>stick figure</rdf:li>
            <rdf:li>stick man</rdf:li>
          </rdf:Bag>
        </dc:subject>
      </cc:Work>
      <cc:License
         rdf:about="http://creativecommons.org/licenses/publicdomain/">
        <cc:permits
           rdf:resource="http://creativecommons.org/ns#Reproduction" />
        <cc:permits
           rdf:resource="http://creativecommons.org/ns#Distribution" />
        <cc:permits
           rdf:resource="http://creativecommons.org/ns#DerivativeWorks" />
      </cc:License>
    </rdf:RDF>
  </metadata>
</svg>
