<?xml version="1.0" encoding="UTF-8" standalone="no"?>
<!-- Created with Inkscape (http://www.inkscape.org/) -->

<svg
   xmlns:dc="http://purl.org/dc/elements/1.1/"
   xmlns:cc="http://creativecommons.org/ns#"
   xmlns:rdf="http://www.w3.org/1999/02/22-rdf-syntax-ns#"
   xmlns:svg="http://www.w3.org/2000/svg"
   xmlns="http://www.w3.org/2000/svg"
   xmlns:sodipodi="http://sodipodi.sourceforge.net/DTD/sodipodi-0.dtd"
   xmlns:inkscape="http://www.inkscape.org/namespaces/inkscape"
   width="160.44353mm"
   height="64.721466mm"
   viewBox="0 0 568.50069 229.32803"
   id="svg2"
   version="1.1"
   inkscape:version="0.91 r13725"
   sodipodi:docname="car racing.svg">
  <defs
     id="defs4" />
  <sodipodi:namedview
     id="base"
     pagecolor="#ffffff"
     bordercolor="#666666"
     borderopacity="1.0"
     inkscape:pageopacity="0.0"
     inkscape:pageshadow="2"
     inkscape:zoom="1.2204877"
     inkscape:cx="313.58112"
     inkscape:cy="108.4468"
     inkscape:document-units="px"
     inkscape:current-layer="layer1"
     showgrid="false"
     inkscape:window-width="1366"
     inkscape:window-height="705"
     inkscape:window-x="-8"
     inkscape:window-y="-8"
     inkscape:window-maximized="1"
     fit-margin-top="0"
     fit-margin-left="0"
     fit-margin-right="0"
     fit-margin-bottom="0" />
  <metadata
     id="metadata7">
    <rdf:RDF>
      <cc:Work
         rdf:about="">
        <dc:format>image/svg+xml</dc:format>
        <dc:type
           rdf:resource="http://purl.org/dc/dcmitype/StillImage" />
        <dc:title></dc:title>
      </cc:Work>
    </rdf:RDF>
  </metadata>
  <g
     inkscape:label="Layer 1"
     inkscape:groupmode="layer"
     id="layer1"
     transform="translate(-1595.6415,-1110.2553)">
    <path
       style="fill:#6e776b;fill-opacity:1;fill-rule:evenodd;stroke:#000000;stroke-width:1px;stroke-linecap:butt;stroke-linejoin:miter;stroke-opacity:1"
       d="m 2083.8496,1211.041 -11.5488,8.7774 -16.6289,30.2578 -14.0899,30.4883 28.1797,22.6367 14.0879,-2.541 15.4766,-12.7051 11.5488,-31.6426 c 0,0 3.4642,-30.4885 -1.6172,-34.877 -5.0814,-4.3885 -5.082,-4.1582 -5.082,-4.1582 l -20.3262,-6.2363 z m -231.6894,7.8809 -23.7579,14.0039 -16.0058,22.0078 -9.7539,22.2578 9.2539,46.5176 61.0215,7.7519 6.5019,-11.2539 15.7559,-13.5039 8.7519,-50.0176 -13.5039,-34.5136 -38.2636,-3.25 z"
       id="path4239"
       inkscape:connector-curvature="0" />
    <path
       style="fill:#be4222;fill-opacity:1;fill-rule:evenodd;stroke:none;stroke-width:1px;stroke-linecap:butt;stroke-linejoin:miter;stroke-opacity:1"
       d="m 1861.1094,1110.8789 -39.9629,0.7129 -35.707,40.5527 -30.6602,3.6914 -62.7969,9.2774 -64.2265,14.9863 -18.5528,9.2774 -7.1367,35.6796 0,13.5586 2.8535,14.9864 7.1367,11.4179 16.4141,10.7051 146.291,32.8262 32.1113,-44.959 17.8418,-25.6895 12.1309,-12.8457 19.2676,-6.4218 47.0976,27.1172 -2.1406,49.9531 139.8692,-17.127 29.9726,-58.5156 13.5586,-9.9922 17.8398,3.5684 17.127,27.832 -9.2773,25.6895 13.5586,-2.8536 14.2714,-9.9921 5.709,-10.7032 -3.5664,-20.6953 -11.418,-22.8359 -15.7011,-16.4121 -14.2715,-3.5684 -15.6992,0.7129 -14.2735,3.5684 -17.125,-7.1368 2.1407,-10.7031 2.8535,-22.8359 -0.7129,-9.9903 -4.9961,-7.8496 -7.1367,4.9942 5.709,7.8496 0,9.2773 -3.5665,27.1172 -3.5683,0.7149 -0.7149,12.8437 -56.375,-9.2773 -28.5449,-0.7129 22.836,-52.0938 -27.8301,-6.4219 -45.6719,-6.4238 -44.957,-2.8535 z m -18.5821,5.1387 35.1407,0.5762 45.7968,4.3203 34.8516,4.6074 14.9766,3.7441 -16.9942,41.7656 -10.08,-5.4726 -25.6348,1.4394 -38.5957,-2.8808 -21.0274,-4.6074 5.1856,-5.4727 9.2168,0 0.5762,-5.7617 -18.4336,-1.7266 -3.7442,1.4395 0.5762,4.8965 7.4883,1.4394 -3.7442,4.8965 -67.9765,-5.1836 -0.5743,-2.3047 32.5469,-35.1386 20.4492,-0.5762 z"
       id="path4193"
       inkscape:connector-curvature="0" />
    <path
       style="opacity:1;fill:#ffffff;fill-opacity:1;stroke:none;stroke-width:1;stroke-miterlimit:4;stroke-dasharray:none;stroke-opacity:1"
       id="path4198"
       sodipodi:type="arc"
       sodipodi:cx="1770.3763"
       sodipodi:cy="1268.5287"
       sodipodi:rx="4.4644647"
       sodipodi:ry="5.3285546"
       sodipodi:start="0"
       sodipodi:end="6.2646674"
       sodipodi:open="true"
       d="m 1774.8408,1268.5287 a 4.4644647,5.3285546 0 0 1 -4.4438,5.3285 4.4644647,5.3285546 0 0 1 -4.4849,-5.2792 4.4644647,5.3285546 0 0 1 4.4022,-5.3774 4.4644647,5.3285546 0 0 1 4.5257,5.2294" />
    <path
       style="opacity:1;fill:#ffffff;fill-opacity:1;stroke:none;stroke-width:1;stroke-miterlimit:4;stroke-dasharray:none;stroke-opacity:1"
       id="path4198-3"
       sodipodi:type="arc"
       sodipodi:cx="1608.7468"
       sodipodi:cy="1245.8306"
       sodipodi:rx="4.4644647"
       sodipodi:ry="5.3285546"
       sodipodi:start="0"
       sodipodi:end="6.2646674"
       sodipodi:open="true"
       d="m 1613.2113,1245.8306 a 4.4644647,5.3285546 0 0 1 -4.4438,5.3285 4.4644647,5.3285546 0 0 1 -4.4849,-5.2792 4.4644647,5.3285546 0 0 1 4.4022,-5.3774 4.4644647,5.3285546 0 0 1 4.5257,5.2294" />
    <path
       style="opacity:1;fill:#ffffff;fill-opacity:1;stroke:none;stroke-width:1;stroke-miterlimit:4;stroke-dasharray:none;stroke-opacity:1"
       id="path4198-38"
       sodipodi:type="arc"
       sodipodi:cx="1610.187"
       sodipodi:cy="1211.267"
       sodipodi:rx="14.545514"
       sodipodi:ry="18.001875"
       sodipodi:start="0"
       sodipodi:end="6.2646674"
       sodipodi:open="true"
       d="m 1624.7325,1211.267 a 14.545514,18.001875 0 0 1 -14.4782,18.0016 14.545514,18.001875 0 0 1 -14.6122,-17.835 14.545514,18.001875 0 0 1 14.3429,-18.1668 14.545514,18.001875 0 0 1 14.745,17.6668" />
    <path
       style="opacity:1;fill:#ffffff;fill-opacity:1;stroke:none;stroke-width:1;stroke-miterlimit:4;stroke-dasharray:none;stroke-opacity:1"
       id="path4198-5"
       sodipodi:type="arc"
       sodipodi:cx="1770.5203"
       sodipodi:cy="1227.9164"
       sodipodi:rx="17.713842"
       sodipodi:ry="20.738159"
       sodipodi:start="0"
       sodipodi:end="6.2646674"
       sodipodi:open="true"
       d="m 1788.2341,1227.9164 a 17.713842,20.738159 0 0 1 -17.6318,20.7379 17.713842,20.738159 0 0 1 -17.7951,-20.5459 17.713842,20.738159 0 0 1 17.4671,-20.9282 17.713842,20.738159 0 0 1 17.9568,20.3522" />
    <path
       transform="matrix(0.98619923,0.16556294,-0.06736431,0.99772844,0,0)"
       style="opacity:1;fill:#ffffff;fill-opacity:1;stroke:none;stroke-width:1;stroke-miterlimit:4;stroke-dasharray:none;stroke-opacity:1"
       d="m 1842.5114,952.55122 c 0,12.98806 -30.9251,21.29973 -58.8409,24.20858 -38.1012,3.97018 -62.3525,-10.38795 -62.6705,-23.37545 -0.318,-12.9875 19.8471,-25.89077 61.5153,-23.81034 36.9305,1.84388 61.1566,6.07909 61.7925,19.06492"
       id="path4198-0"
       inkscape:connector-curvature="0"
       sodipodi:nodetypes="csssc" />
    <path
       transform="matrix(0.99717677,-0.07508992,0.07570401,0.99713033,0,0)"
       style="opacity:1;fill:#cccccc;fill-opacity:1;stroke:none;stroke-width:1;stroke-miterlimit:4;stroke-dasharray:none;stroke-opacity:1"
       d="m 1785.6864,1412.9406 c 0,16.7958 -9.7454,30.0082 -21.781,30.511 -19.1226,0.7989 -21.8711,-13.4334 -21.9827,-30.2285 -0.1115,-16.7952 9.5329,-30.5578 21.5775,-30.791 12.0445,-0.2332 23.8564,11.2869 24.0795,28.0799"
       id="path4234"
       inkscape:connector-curvature="0"
       sodipodi:nodetypes="csssc" />
    <path
       style="fill:#ffffff;fill-rule:evenodd;stroke:#000000;stroke-width:1px;stroke-linecap:butt;stroke-linejoin:miter;stroke-opacity:1"
       d="m 1886.4222,1281.4438 72.7759,-10.2536 28.2601,-2.2508 -39.5141,0.7502 -19.507,1.7507 -40.7645,3.5012 -8.503,0.2501 -6.5023,-1.5005 -1.0004,3.001 -0.5002,6.5024 2.5009,6.5023 1.2505,0 1.2504,-6.0022 5.0018,-3.5012 z"
       id="path4241"
       inkscape:connector-curvature="0" />
    <path
       style="opacity:1;fill:#cccccc;fill-opacity:1;stroke:none;stroke-width:1;stroke-miterlimit:4;stroke-dasharray:none;stroke-opacity:1"
       d="m 2100.6421,1249.0407 c 0.9873,13.3939 -5.763,24.685 -15.0714,25.6392 -12.9118,1.3236 -12.8739,-8.9371 -13.9476,-22.3239 -1.0736,-13.3867 1.1964,-23.555 10.5088,-24.4643 9.3123,-0.9093 18.6735,5.7204 19.8334,19.0986"
       id="path4234-3"
       inkscape:connector-curvature="0"
       sodipodi:nodetypes="csssc" />
    <path
       style="fill:#ffffff;fill-rule:evenodd;stroke:none;stroke-width:1px;stroke-linecap:butt;stroke-linejoin:miter;stroke-opacity:1"
       d="m 2093.6439,1254.8833 c 0.1634,-3.9197 0.1634,-3.7564 0.1634,-3.7564 l 54.55,-3.5931 -0.8166,3.9198 -24.1719,1.1432 z"
       id="path4261"
       inkscape:connector-curvature="0" />
    <path
       style="fill:#ffffff;fill-rule:evenodd;stroke:#000000;stroke-width:1px;stroke-linecap:butt;stroke-linejoin:miter;stroke-opacity:1"
       d="m 1836.0148,1327.4526 3.0026,5.7744 48.7356,4.3885 54.51,-29.7957 -46.4259,-1.6168 -24.0213,23.5593 z"
       id="path4263"
       inkscape:connector-curvature="0" />
    <path
       style="fill:#ffffff;fill-rule:evenodd;stroke:#000000;stroke-width:1px;stroke-linecap:butt;stroke-linejoin:miter;stroke-opacity:1"
       d="m 1626.983,1283.1055 c 19.8638,11.3178 15.4753,8.3151 15.4753,8.3151 l 4.3885,-4.1575 -13.8584,-12.7036 -14.5514,-4.6195 0.4619,4.8505 z"
       id="path4265"
       inkscape:connector-curvature="0" />
    <path
       style="fill:#552200;fill-rule:evenodd;stroke:#000000;stroke-width:1px;stroke-linecap:butt;stroke-linejoin:miter;stroke-opacity:1"
       d="m 1909.7417,1162.4422 4.7364,0.6533 7.0229,-4.2464 10.126,0.6533 13.7192,3.9198 10.1261,6.6962 2.7765,-5.7163 -17.3123,-8.6561 -13.3926,-2.2865 -7.6762,1.3065 -5.553,1.9599 z"
       id="path4267"
       inkscape:connector-curvature="0" />
    <path
       style="fill:#9d7449;fill-opacity:1;fill-rule:evenodd;stroke:none;stroke-width:1px;stroke-linecap:butt;stroke-linejoin:miter;stroke-opacity:1"
       d="m 1959.5554,1177.1414 5.7163,-15.6791 16.659,-8.8195 22.212,-2.1232 25.3151,7.0229 7.5129,6.6963 5.063,10.7794 -12.9025,9.3094 -43.2808,-4.0831 z"
       id="path4275"
       inkscape:connector-curvature="0" />
    <path
       style="fill:#ddaeae;fill-opacity:1;fill-rule:evenodd;stroke:none;stroke-width:1px;stroke-linecap:butt;stroke-linejoin:miter;stroke-opacity:1"
       d="m 2002.1828,1142.3535 4.8997,0.4899 0.49,1.7966 14.0458,1.1432 1.3066,7.5129 3.1031,-0.1633 1.3066,4.4097 -13.8825,4.7364 -6.2063,-5.7163 -3.4298,-5.3897 z"
       id="path4271"
       inkscape:connector-curvature="0" />
    <path
       style="fill:#c4b44c;fill-opacity:1;fill-rule:evenodd;stroke:none;stroke-width:1px;stroke-linecap:butt;stroke-linejoin:miter;stroke-opacity:1"
       d="m 1999.7329,1128.9609 3.4298,-2.1232 4.4098,-10.126 12.5759,-5.0631 10.126,2.1232 7.1863,6.3697 3.1031,12.0859 -10.2894,16.9856 -8.0967,3.9714 -0.4729,-8.2445 4.453,-3.2124 0.1969,-7.5402 -24.3352,0 z"
       id="path4269"
       inkscape:connector-curvature="0"
       sodipodi:nodetypes="cccccccccccccc" />
    <path
       style="fill:#808080;fill-rule:evenodd;stroke:#000000;stroke-width:1px;stroke-linecap:butt;stroke-linejoin:miter;stroke-opacity:1"
       d="m 2003.1627,1140.0669 1.6333,-6.0429 21.722,1.9598 9.7994,1.1433 -2.4499,6.2063 -8.8194,-0.9799 -5.553,3.1031 -8.8195,0 -2.9398,-0.49 -0.98,-2.4498 z"
       id="path4273"
       inkscape:connector-curvature="0" />
    <path
       style="fill:#000000"
       d="m 2021.2929,1110.2621 c -7.5253,-0.2187 -15.4675,4.8788 -18.0645,12.4512 -0.8142,2.374 -2.0919,4.0903 -3.2011,4.2988 -3.1613,0.5942 -3.6262,1.8719 -1.4668,4.0313 1.563,1.563 1.9288,2.8305 1.4746,5.1015 -0.3858,1.929 -0.1969,3.0195 0.5215,3.0195 0.6295,0 1.125,1.6212 1.125,3.6797 0,3.9649 1.9336,10.3203 3.1406,10.3203 1.506,0 2.0699,-2.2505 0.7656,-3.0566 -0.7472,-0.4586 -1.079,-1.1045 -0.748,-1.4355 0.3311,-0.3311 1.2944,0.089 2.1406,0.9355 1.0492,1.0491 2.5142,1.3437 4.6035,0.9258 4.1085,-0.8217 3.1173,-1.9885 -2.3906,-2.8145 -3.5654,-0.5347 -4.5117,-1.0833 -4.5117,-2.6152 0,-1.0663 0.4761,-1.9395 1.0586,-1.9395 0.5824,0 0.7888,0.4372 0.4589,0.9707 -0.6565,1.0631 3.1659,2.3085 6.1231,1.9961 1.0221,-0.108 3.3219,-0.145 5.1094,-0.082 3.0027,0.1064 3.25,0.3726 3.25,3.4942 0,2.8154 -0.504,3.5877 -3.0176,4.6289 -1.6592,0.6872 -4.9731,1.0294 -7.3652,0.7597 -3.5664,-0.4019 -4.3294,-0.2008 -4.2344,1.1211 0.077,1.0753 -0.6986,1.6113 -2.3321,1.6113 -2.1219,0 -2.456,-0.4669 -2.5,-3.5 l -0.051,-3.5 -8,0.049 c -9.6254,0.057 -14.4764,0.6044 -15.1602,1.7109 -0.8453,1.3676 -8.4264,5.8819 -9.3223,5.5508 -0.7109,-0.2628 4.9595,-15.6003 10.334,-27.9512 1.5421,-3.5435 1.5237,-3.6581 -0.6347,-4.2715 -6.3515,-1.805 -25.3225,-5.5351 -33.2168,-6.5312 -4.95,-0.6246 -13.5,-1.7714 -19,-2.5469 -32.0604,-4.5203 -46.2514,-5.5789 -76.5,-5.709 -23.0827,-0.099 -30,0.4308 -30,2.2989 0,0.5448 1.1556,0.6158 2.75,0.1699 4.0898,-1.1438 51.7174,-0.6968 67.25,0.6308 15.5251,1.3269 61.9037,7.4868 73,9.6953 6.6413,1.3225 13.6896,3.275 14.9336,4.1387 0.239,0.1659 -0.9609,3.3325 -2.668,7.0352 -1.7071,3.7026 -3.8473,8.5324 -4.7539,10.7324 -3.1661,7.6832 -3.5208,8.5171 -4.6817,11 -1.1699,2.5019 -2.83,3.3821 -2.83,1.5 0,-0.55 0.3397,-1 0.7558,-1 0.4161,0 1.3489,-1.9125 2.0723,-4.25 0.7234,-2.3375 3.0835,-8.1887 5.2441,-13.002 2.1605,-4.8132 3.9278,-9.3809 3.9278,-10.1503 0,-1.9699 -9.6468,-4.0393 -35,-7.5059 -33.9078,-4.6362 -66.6123,-7.0518 -97.4043,-7.1973 l -24.9043,-0.1191 -7.3867,7.8613 c -4.0627,4.3239 -12.087,12.6899 -17.8321,18.5899 l -10.4472,10.7265 -12.2618,0.4883 c -24.5291,0.9755 -68.5548,7.3415 -97.4433,14.0899 -31.3601,7.3251 -33.9691,8.0451 -47.8203,13.1777 -13.4502,4.984 -25.4708,14.7488 -27.5196,22.3574 -1.7719,6.58 -0.8664,14.8805 2.0703,18.9981 2.124,2.9781 2.455,4.5651 2.5,11.9355 0.029,4.675 0.3872,9.85 0.7969,11.5 2.2522,9.0716 4.2824,14.2285 6.3418,16.1152 1.2704,1.164 2.3106,2.5942 2.3106,3.1778 0,0.5836 1.125,1.9458 2.5,3.0273 1.375,1.0816 2.5,2.4937 2.5,3.1387 0,3.5586 10.8019,14.5885 17.625,17.9961 5.2183,2.6062 5.4928,3.5425 1.125,3.8398 -7.0142,0.4773 -20.0656,3.6328 -22.1446,5.3535 -1.0357,0.8572 1.1736,6.8516 2.5254,6.8516 0.4892,0 2.7974,0.8777 5.1289,1.9512 4.0585,1.8687 28.9808,7.8991 35.2403,8.5273 1.65,0.1656 3.225,0.4039 3.5,0.5293 0.275,0.1212 0.8213,0.1801 1.2148,0.1211 0.3934,-0.059 1.8539,0.3262 3.2461,0.8555 1.3922,0.5293 5.1208,1.197 8.2852,1.4843 3.1644,0.2881 9.1289,0.9423 13.2539,1.4532 4.125,0.5109 12.675,1.4718 19,2.1367 6.325,0.665 14.8346,2.0481 18.9101,3.0742 4.0755,1.0261 10.628,1.8672 14.5625,1.8672 3.9345,0 12.2999,0.6943 18.5899,1.543 6.29,0.8487 13.0125,1.7394 14.9375,1.9804 1.925,0.2409 5.075,0.7217 7,1.0684 1.925,0.3468 5.975,0.777 9,0.957 8.0334,0.4779 17.1742,1.2473 28.5,2.3965 9.799,0.9943 14.7979,1.3476 37,2.6172 6.05,0.3459 11.2826,0.804 11.6289,1.0176 3.4165,2.1082 56.6559,2.5304 74.3711,0.5898 6.05,-0.6628 14.15,-1.404 18,-1.6465 3.85,-0.2424 10.825,-1.1125 15.5,-1.9336 4.675,-0.8211 11.2,-1.7586 14.5,-2.0839 3.3,-0.3254 10.725,-1.2948 16.5,-2.1543 11.8626,-1.7654 17.3922,-2.5302 34.5,-4.7696 14.0602,-1.8405 28.9746,-4.1446 39.5,-6.1035 4.125,-0.7678 12.225,-1.901 18,-2.5176 5.775,-0.6166 12.525,-1.5092 15,-1.9843 2.475,-0.4751 9.45,-1.5455 15.5,-2.377 6.05,-0.8315 13.925,-1.9118 17.5,-2.4023 3.575,-0.4906 7.2875,-1.2346 8.25,-1.6524 8.5371,-3.4395 12.9474,-5.6654 13.2109,-12.541 l 0,-0.2285 c -1.7915,-6.5275 -7.0152,-8.7597 -11.1582,-10.082 l -6.1934,-1.8965 c -2.8781,-0.3254 -10.4574,-1.6875 -17.6074,-2.6992 -7.15,-1.0117 -15.4499,-2.1372 -18.4453,-2.5 -2.9955,-0.3628 -5.6604,-0.8714 -5.9199,-1.1309 -0.2595,-0.2596 0.015,-1.484 0.6074,-2.7207 0.5927,-1.2367 1.3339,-3.0509 1.6484,-4.0313 0.4139,-1.2902 1.4739,-1.7283 3.8399,-1.5878 8.1096,0.4816 17.8027,-3.9544 25.6953,-11.7618 2.9836,-2.9515 5.8223,-5.3672 6.3086,-5.3672 0.4863,0 0.5903,-0.4763 0.2305,-1.0585 -0.3986,-0.6449 -1.8886,-0.7757 -3.8106,-0.334 -1.7352,0.3988 -4.1499,0.6582 -5.3672,0.5742 -1.4864,-0.1023 -2.0422,0.292 -1.6933,1.2012 0.3096,0.807 -0.8505,2.1621 -2.8731,3.3554 -1.8661,1.101 -4.3292,2.8023 -5.4726,3.7813 -2.2221,1.9026 -9.3746,4.688 -10.1211,3.9414 -0.247,-0.2469 0.27,-1.9143 1.1484,-3.7051 0.8783,-1.7908 1.8361,-4.0434 2.1289,-5.0059 0.3737,-1.2285 1.5683,-1.75 4.0059,-1.75 1.9098,0 3.7673,-0.4793 4.1289,-1.0644 0.4454,-0.7206 -0.5019,-0.846 -2.9395,-0.3887 -2.3029,0.432 -3.5996,0.2916 -3.5996,-0.3906 0,-0.5863 1.4625,-1.2984 3.25,-1.582 2.9207,-0.4634 17.3541,-1.471 22.1367,-1.545 1.7506,-0.027 1.846,-0.6946 1.336,-9.2793 -0.3998,-6.7281 -1.2839,-11.0987 -3.2442,-16.0293 -3.5005,-8.8043 -10.3698,-21.8645 -13.2285,-25.1503 -1.2375,-1.4224 -2.2558,-2.9199 -2.2558,-3.3282 0,-0.4083 -1.6006,-1.8268 -3.5469,-3.1523 -2.046,-1.3935 -3.3208,-2.9753 -3.0235,-3.75 0.3333,-0.8686 -0.2668,-1.3473 -1.705,-1.3613 -1.2202,-0.012 -3.3438,-0.9463 -4.7188,-2.0743 l -2.5,-2.0507 13,0.4257 c 7.15,0.2336 11.875,0.086 10.5,-0.3281 -1.375,-0.4135 -8.35,-0.8127 -15.5,-0.8867 -7.4346,-0.077 -15.5687,-0.7555 -19,-1.584 -10.0521,-2.4272 -21.7446,-1.7224 -29.1777,1.7598 -1.1978,0.5611 -3.2228,0.7683 -4.5,0.459 -12.9466,-3.1356 -13.3229,-3.286 -13.1172,-5.2461 0.1127,-1.0736 0.4205,-4.534 0.6836,-7.6895 0.263,-3.1556 0.7577,-6.1909 1.0996,-6.7441 0.3419,-0.5532 0.84,-2.9204 1.1074,-5.2617 0.2675,-2.3412 0.6889,-4.9342 0.9356,-5.7618 0.7403,-2.4875 0.7353,-13.2428 -0.01,-17.1171 l -0.6973,-3.6231 9.3379,0.3262 c 18.6442,0.652 33.5154,1.5244 41.8379,2.4531 8.8148,0.9836 17.6413,1.2708 16.916,0.5508 -0.2292,-0.2275 -3.566,-0.6887 -7.416,-1.0254 -3.85,-0.3367 -8.8868,-0.8491 -11.1914,-1.1387 -6.3427,-0.797 -13.1612,-1.2042 -31.8086,-1.8984 -9.35,-0.3482 -18.0125,-0.8423 -19.25,-1.0977 -4.1386,-0.8542 -2.3099,-2.4246 3,-2.5761 5.9433,-0.1696 4.0846,-0.4725 -8.5234,-1.3926 -8.4026,-0.6131 -8.8347,-0.7628 -10.2754,-3.5488 l -1.5039,-2.9083 6.2754,-0.07 c 4.2396,-0.048 5.6285,-0.3334 4.2773,-0.8808 -1.1,-0.4457 -3.8,-0.6368 -6,-0.4258 -4.5565,0.4371 -10.405,-1.447 -8.3789,-2.6992 0.6918,-0.4272 6.123,-0.5915 12.0684,-0.3653 7.2013,0.2739 10.8105,0.057 10.8105,-0.6484 0,-0.7042 -4.608,-0.9905 -13.75,-0.8535 -8.3985,0.1259 -14.8469,-0.2327 -16.5664,-0.9238 -1.6214,-0.6517 -3.3357,-0.9847 -5.0723,-1.0352 l 0,0 z m 44.3477,2.4688 c -4.444,-0.015 -7.959,0.1145 -7.959,0.4472 0,0.5108 5.7375,1.0551 12.75,1.209 12.5011,0.2744 14.0065,0.2018 13.166,-0.6348 -0.5698,-0.5672 -10.5512,-0.9962 -17.957,-1.0214 z m -44.5313,0.5292 c 2.5672,0.016 5.4309,0.8137 8.5352,2.3868 4.9101,2.4881 6.7271,4.1615 5.6699,5.2187 -0.3116,0.3116 -2.0708,-0.756 -3.9102,-2.3711 -4.3548,-3.8235 -11.5201,-4.5228 -13.5078,-1.3183 -1.5071,2.4296 -0.832,3.9882 1.7266,3.9882 1.0034,0 2.0526,0.8752 2.332,1.9434 0.6129,2.3438 0.019,3.0566 -2.5469,3.0566 -1.3137,0 -1.755,0.4843 -1.3652,1.5 0.6521,1.6994 -0.1749,1.7175 -8.1113,0.1641 -2.8875,-0.5652 -5.25,-1.4121 -5.25,-1.8808 0,-2.0281 4.5128,-7.9111 7,-9.127 0.825,-0.4033 2.625,-1.3844 4,-2.1797 1.6137,-0.9334 3.431,-1.3934 5.4277,-1.3809 z m 66.6641,0.057 c -2.134,0 -3.0918,0.2394 -3.0918,0.7305 0,0.6763 2.0753,1.1389 5.25,1.1679 7.7286,0.071 23.1845,1.0829 23.666,1.5489 0.2292,0.2217 2.9292,0.3501 6,0.2851 l 5.584,-0.1172 -5,-0.8457 c -2.75,-0.4644 -8.15,-1.077 -12,-1.3613 -3.85,-0.2843 -10.7125,-0.8046 -15.25,-1.1563 -2.1736,-0.1684 -3.8779,-0.2526 -5.1582,-0.2519 z m -31.0078,3.5918 c -3.3997,0.01 -6.084,0.1396 -6.084,0.4394 0,0.4502 4.5743,0.8184 10.166,0.8184 5.5917,0 9.9792,-0.1851 9.75,-0.4121 -0.5152,-0.5103 -8.1661,-0.8552 -13.832,-0.8457 z m -213.9512,0.1933 0,0 c 23.7856,-0.038 41.8577,0.7564 41.8769,1.9414 0.01,0.3417 4.8067,0.7185 10.67,0.8378 6.6774,0.136 10.924,0.6416 11.3652,1.3555 0.5262,0.8493 0.8842,0.8479 1.4141,-0.01 0.3899,-0.635 1.4583,-0.9166 2.375,-0.6348 1.9863,0.6113 7.0055,1.2174 17.166,2.0703 4.125,0.3462 9.075,1.0294 11,1.5195 1.925,0.49 6.65,1.1275 10.5,1.416 3.85,0.2885 10.15,1.2011 14,2.0274 3.85,0.8262 7.3375,1.5095 7.75,1.5195 1.7196,0.04 0.4858,4.3858 -3.7383,13.1778 -2.4679,5.1366 -4.49,9.8466 -4.5,10.4668 -0.01,0.6201 -0.6408,1.6481 -1.4082,2.2851 -0.7675,0.6369 -1.6874,2.7177 -2.0449,4.6231 -0.3574,1.9054 -1.1532,3.4628 -1.7676,3.4628 -0.6144,0 -3.18,-1.3146 -5.7031,-2.9218 -14.5155,-9.2462 -33.6769,-9.6063 -41.9043,-0.7891 -2.1912,2.3482 -2.7647,2.4566 -10.6329,2.0039 -5.434,-0.3127 -8.5525,-0.1013 -8.9941,0.6133 -0.7623,1.2335 -6.8254,1.4949 -7.9707,0.3437 -0.4104,-0.4125 -4.5595,-1.2627 -9.2207,-1.8886 -4.6613,-0.6258 -8.7863,-1.4508 -9.168,-1.8321 -1.5926,-1.5933 3.0161,-3.2834 7.7422,-2.8398 4.3173,0.4053 4.9555,0.2126 5.5586,-1.6875 0.3748,-1.1806 0.4177,-3.2046 0.094,-4.4961 -0.5171,-2.0602 -1.3574,-2.4213 -6.8418,-2.9531 -16.7075,-1.6204 -17.75,-1.3859 -17.75,3.9824 0,2.7565 0.4089,3.4908 2,3.5898 4.1331,0.2583 4.5,0.4112 4.5,1.875 0,0.825 -0.7579,1.4411 -1.6836,1.3711 -9.0608,-0.6877 -17.8113,-1.6715 -25.3164,-2.8457 -4.95,-0.7744 -16.2,-1.7016 -25,-2.0605 -8.8,-0.3589 -16.1461,-0.794 -16.3243,-0.9668 -0.5619,-0.5447 10.1162,-12.3291 25.4493,-28.0859 l 6.1269,-6.295 9.8731,-0.1113 c 3.5952,-0.041 7.1098,-0.063 10.5078,-0.068 z m 233.7461,0.1915 c -0.5438,-0.01 -1.123,0.053 -1.6094,0.1796 -0.973,0.2536 -0.4195,0.4781 1.2305,0.4981 1.65,0.02 2.4465,-0.187 1.7695,-0.461 -0.3386,-0.1367 -0.8469,-0.21 -1.3906,-0.2167 z m 54.1211,0 c -0.4532,0 -0.9063,0.07 -1.25,0.2089 -0.6875,0.2774 -0.125,0.5039 1.25,0.5039 1.375,0 1.9375,-0.2265 1.25,-0.5039 -0.3438,-0.1387 -0.7969,-0.2089 -1.25,-0.2089 z m -26,1.9921 c -0.6344,0 -1.2688,0.064 -1.75,0.1895 -0.9625,0.2515 -0.175,0.457 1.75,0.457 1.925,0 2.7125,-0.2055 1.75,-0.457 -0.4813,-0.1258 -1.1157,-0.1895 -1.75,-0.1895 z m -67.9532,4.045 c 0.05,2e-4 0.1,0.04 0.1524,0.123 0.423,0.6656 0.7751,3.0953 0.7851,5.4004 0.01,2.305 -0.3218,4.4004 -0.7343,4.6543 -0.4125,0.2548 -0.7662,-2.1776 -0.7852,-5.4023 -0.017,-2.8216 0.2357,-4.7764 0.582,-4.7754 z m 33.2266,2.0898 c -3.2723,0.018 -5.2095,0.1347 -4.9668,0.3789 0.4441,0.4467 3.8191,0.8856 7.5,0.9746 11.776,0.2846 38.6732,1.6216 39.25,1.9512 0.3064,0.1751 5.0314,0.6245 10.5,0.998 5.4685,0.3736 10.1178,0.8386 10.332,1.0332 0.2142,0.1945 0.8892,0.032 1.5,-0.3613 1.1539,-0.7432 -3.594,-1.4382 -21.3886,-3.1269 -11.0727,-1.0508 -32.9098,-1.9005 -42.7266,-1.8477 z m -65.2734,3.5352 c 2.2345,0.017 6.0824,0.7325 12,2.1738 l 7.5,1.8262 -6.5,-0.047 c -10.1524,-0.072 -15.5,-1.0182 -15.5,-2.7422 0,-0.8158 0.762,-1.2242 2.5,-1.2109 z m -126.084,0.332 c -0.3474,-0.014 -0.7426,0.049 -1.1035,0.1934 -0.7977,0.3192 -0.5614,0.5555 0.6035,0.6035 1.0542,0.043 1.6448,-0.1931 1.3125,-0.5254 -0.1662,-0.1662 -0.4651,-0.2571 -0.8125,-0.2715 z m 17,0 c -0.3474,-0.014 -0.7426,0.049 -1.1035,0.1934 -0.7977,0.3192 -0.5614,0.5555 0.6035,0.6035 1.0542,0.043 1.6448,-0.1931 1.3125,-0.5254 -0.1662,-0.1662 -0.4651,-0.2571 -0.8125,-0.2715 z m -25.916,0.01 c -0.4532,0 -0.9063,0.068 -1.25,0.207 -0.6875,0.2774 -0.125,0.5058 1.25,0.5058 1.375,0 1.9375,-0.2284 1.25,-0.5058 -0.3438,-0.1387 -0.7969,-0.207 -1.25,-0.207 z m 14,0 c -0.4532,0 -0.9063,0.068 -1.25,0.207 -0.6875,0.2774 -0.125,0.5058 1.25,0.5058 1.375,0 1.9375,-0.2284 1.25,-0.5058 -0.3438,-0.1387 -0.7969,-0.207 -1.25,-0.207 z m 166.6093,0.07 c 2.9521,0.1902 5.6645,5.612 5.6036,12.4082 -0.043,4.8334 -0.9334,8.8652 -3.3633,15.2383 -0.4922,1.2909 -1.1221,5.1159 -1.3985,8.5 -0.2764,3.3841 -0.7468,6.9398 -1.0449,7.9023 -0.2981,0.9625 -0.9669,1.75 -1.4863,1.75 -0.9495,0 -0.5275,-4.3678 1.2539,-13 0.5108,-2.475 0.903,-6.075 0.873,-8 -0.03,-1.925 0.3212,-4.85 0.7813,-6.5 0.9848,-3.5317 -0.8996,-11.8166 -3.2891,-14.457 -1.4525,-1.6052 -1.4516,-1.8692 0.02,-3.0899 0.6757,-0.5608 1.3695,-0.7958 2.0507,-0.7519 z m -206.1562,0.6914 c -3.4541,0.024 -6.9095,0.2317 -7.2774,0.5996 -0.2802,0.2802 3.016,0.5078 7.3243,0.5078 4.3084,0 7.5582,-0.2738 7.2226,-0.6094 -0.3628,-0.3629 -3.8154,-0.5219 -7.2695,-0.498 z m -12.4531,0.1074 c -1.1,0 -2,0.4094 -2,0.9082 0,0.4978 0.9,0.6705 2,0.3828 1.1,-0.2876 2,-0.6954 2,-0.9062 0,-0.2109 -0.9,-0.3848 -2,-0.3848 z m 112.916,0.125 c -0.3474,-0.014 -0.7426,0.049 -1.1035,0.1934 -0.7977,0.3192 -0.5614,0.5555 0.6035,0.6035 1.0542,0.043 1.6448,-0.1931 1.3125,-0.5254 -0.1662,-0.1662 -0.4651,-0.2571 -0.8125,-0.2715 z m 6,0 c -0.3474,-0.014 -0.7426,0.049 -1.1035,0.1934 -0.7977,0.3192 -0.5614,0.5555 0.6035,0.6035 1.0542,0.043 1.6448,-0.1931 1.3125,-0.5254 -0.1662,-0.1662 -0.4651,-0.2571 -0.8125,-0.2715 z m -130.3086,0.875 c -3.1491,0 -5.4823,0.3955 -5.1836,0.8789 0.4932,0.7981 9.5039,0.3587 10.4922,-0.5117 0.2292,-0.2018 -2.1595,-0.3672 -5.3086,-0.3672 z m 166.8926,1.2285 -5,0.088 5,0.6856 c 2.75,0.3772 5.9,0.7234 7,0.7714 2,0.087 2,0.088 0,-0.7714 -1.1,-0.4727 -4.25,-0.8215 -7,-0.7735 z m -185.4414,1.7715 c 0.5824,0 0.7814,0.45 0.4414,1 -0.3399,0.55 -0.816,1 -1.0586,1 -0.2425,0 -0.4414,-0.45 -0.4414,-1 0,-0.55 0.4761,-1 1.0586,-1 z m 241.5,1.4961 c 0.2998,-0.026 0.5774,-3e-4 0.8222,0.098 0.9308,0.3572 2.3517,1.9226 3.1563,3.4786 1.3236,2.5596 1.2962,2.937 -0.2871,3.955 -1.6159,1.039 -1.6061,1.0782 0.1308,0.5293 1.7604,-0.5563 1.8363,-0.1472 1.1953,6.3575 -0.7457,7.5682 -0.828,8.1537 -2.6562,18.8359 -0.6825,3.9875 -1.6182,7.25 -2.0801,7.25 -0.9493,0 -1.1491,-0.7253 -0.8926,-3.248 0.2241,-2.2036 -5.8318,-10.752 -7.6172,-10.752 -0.7317,0 -1.33,-0.45 -1.33,-1 0,-0.55 -0.675,-1 -1.5,-1 -0.825,0 -1.5,0.459 -1.5,1.0195 0,0.5843 -1.054,0.7559 -2.4707,0.4004 -1.6122,-0.4047 -3.0276,-0.064 -4.0723,0.9805 -0.8806,0.8806 -2.42,1.5996 -3.4219,1.5996 -1.0019,0 -2.1039,0.7369 -2.4492,1.6367 -0.5696,1.4844 -0.8167,1.4652 -2.6602,-0.2031 -2.0119,-1.8208 -1.9841,-1.8517 2.7715,-3.2266 2.6415,-0.7637 5.5574,-2.0623 6.4805,-2.8867 1.0629,-0.9492 2.482,-1.245 3.8691,-0.8047 2.1883,0.6946 2.1893,0.692 0.3614,-2.4023 l -1.8301,-3.0957 3.9609,-4.2344 c 2.1785,-2.3292 4.2378,-4.4695 4.5762,-4.7578 0.3383,-0.2884 0.909,-1.4672 1.2676,-2.6172 0.8752,-2.8089 4.0768,-5.7291 6.1758,-5.9121 z m -134.7579,0.6113 c -14.8294,0 -36.5739,0.3504 -45.8007,0.8848 -6.325,0.3624 4.6461,0.5345 24.3808,0.373 19.7346,-0.1615 36.1362,-0.5481 36.4473,-0.8593 0.2786,-0.2785 -6.1297,-0.4007 -15.0274,-0.3985 z m 122.4493,1.0117 c 2.0625,-0.065 3.75,0.3309 3.75,0.8809 0,1.1018 -0.1701,1.1018 -4.5,0 -2.9857,-0.7597 -2.9822,-0.7631 0.75,-0.8809 z m -86.4414,0.031 -5.3086,0.1504 4.5,0.6992 c 2.475,0.3848 4.5864,0.7686 4.6914,0.8516 0.1051,0.083 0.4687,-0.3016 0.8086,-0.8516 0.3864,-0.6252 -1.3723,-0.9436 -4.6914,-0.8496 z m 79.5898,0.066 c 0.1689,0.019 0.397,0.1803 0.6934,0.4766 3.3429,3.3429 -5.3681,7.8362 -10.1895,5.2558 -1.701,-0.9098 -2.4065,-0.9345 -2.6875,-0.092 -0.4129,1.2387 -2.4896,1.5358 -3.5215,0.5039 -1.4234,-1.4234 0.5143,-2.0627 5.1485,-1.6972 5.8397,0.4605 10.1582,-0.9577 10.1582,-3.3379 0,-0.7796 0.1169,-1.1414 0.3984,-1.1094 z m 18.8906,0.092 c -0.2214,0.056 -0.289,0.4059 -0.289,1.0703 0,0.8923 0.675,1.6211 1.5,1.6211 0.825,0 1.5,-0.1693 1.5,-0.377 0,-0.2076 -0.675,-0.9383 -1.5,-1.623 -0.6143,-0.5098 -0.9895,-0.7471 -1.211,-0.6914 z m -29.0312,0.7109 0,0 c 0.8668,0.052 1.9933,0.5763 2.7422,1.4785 1.0043,1.21 0.9782,1.4859 -0.1289,1.4219 -2.1688,-0.1248 -3.8711,-1.0061 -3.8711,-2.0039 0,-0.5438 0.3696,-0.8307 0.9043,-0.8887 0.1113,-0.012 0.2297,-0.015 0.3535,-0.01 z m -25.3789,0.094 c -1.0875,0 -2.2127,0.053 -3.1114,0.164 -1.7974,0.2225 -0.5675,0.4041 2.7325,0.4141 3.3,0.01 4.7701,-0.1762 3.2675,-0.4043 -0.7513,-0.114 -1.8011,-0.1719 -2.8886,-0.1738 z m 21.7324,0.2304 c 0.1195,0.02 0.2512,0.071 0.3887,0.1563 0.55,0.3399 1,0.818 1,1.0605 0,0.2426 -0.45,0.4395 -1,0.4395 -0.55,0 -1,-0.4762 -1,-1.0586 0,-0.4369 0.2527,-0.658 0.6113,-0.5977 z m -167.4414,0.025 c -0.7173,-0.049 -3.9908,0.046 -10.1699,0.2579 -7.975,0.2734 -16.075,0.889 -18,1.3691 -3.7432,0.9335 5.2636,0.5295 23,-1.0313 4.0484,-0.3563 5.8872,-0.5471 5.1699,-0.5957 z m 162.8301,0.6309 c 0.55,0 1,0.45 1,1 0,0.55 -0.45,1 -1,1 -0.55,0 -1,-0.45 -1,-1 0,-0.55 0.45,-1 1,-1 z m 59.25,0.016 c -2.0013,0.011 -2.3675,0.2589 -1.3418,0.9082 0.7751,0.4907 2.0126,0.6599 2.75,0.377 2.1146,-0.8115 1.5781,-1.3022 -1.4082,-1.2852 z m 15.4414,0.1367 c -7.1417,0.1052 -8.8449,0.3297 -5.6914,0.75 8.6519,1.1532 17.1948,1.225 16.5234,0.1387 -0.3864,-0.6252 -4.6988,-0.9787 -10.832,-0.8887 z m -50.25,0.8477 c 1.9575,0 3.5586,0.4204 3.5586,0.9336 0,1.1561 -5.8756,1.0794 -6.5957,-0.086 -0.2879,-0.4657 1.0797,-0.8477 3.0371,-0.8477 z m 66.2539,0.127 c -2.5785,0.028 -3.8679,0.1954 -2.6563,0.5234 0.847,0.2293 8.722,1.0184 17.5,1.7539 8.778,0.7355 18.886,1.3365 22.461,1.3359 l 6.5,0 -8,-0.8339 c -4.4,-0.4587 -12.4049,-1.2999 -17.7871,-1.8692 -5.843,-0.6182 -13.7202,-0.957 -18.0176,-0.9101 z m -52.7793,2.998 c -0.3474,-0.014 -0.7426,0.049 -1.1035,0.1934 -0.7977,0.3192 -0.5614,0.5555 0.6035,0.6035 1.0542,0.043 1.6448,-0.1931 1.3125,-0.5254 -0.1662,-0.1662 -0.4651,-0.2571 -0.8125,-0.2715 z m -16.3262,0.2441 c 0.602,-0.016 1.2365,0.053 1.8887,0.2168 3.2016,0.8035 3.1775,1.7532 -0.1133,4.3418 -3.6729,2.8891 -6.3652,2.7248 -6.3652,-0.3906 0,-2.4328 1.9811,-4.0977 4.5898,-4.168 z m 116.4102,0.7618 c -0.4532,0 -0.9063,0.068 -1.25,0.207 -0.6875,0.2774 -0.125,0.5058 1.25,0.5058 1.375,0 1.9375,-0.2284 1.25,-0.5058 -0.3438,-0.1387 -0.7969,-0.207 -1.25,-0.207 z m -79.3887,0.2128 c -0.3586,-0.06 -0.6113,0.1608 -0.6113,0.5977 0,0.5824 0.45,1.0606 1,1.0606 0.55,0 1,-0.1989 1,-0.4415 0,-0.2425 -0.45,-0.7186 -1,-1.0585 -0.1375,-0.085 -0.2692,-0.1382 -0.3887,-0.1583 z m 19.3887,0.6583 c -0.55,0 -1,0.45 -1,1 0,0.55 0.45,1 1,1 0.55,0 1,-0.45 1,-1 0,-0.55 -0.45,-1 -1,-1 z m -14.1211,0.125 c -0.5438,-0.01 -1.123,0.053 -1.6094,0.1796 -0.973,0.2536 -0.4195,0.4781 1.2305,0.4981 1.65,0.02 2.4465,-0.187 1.7695,-0.461 -0.3386,-0.1361 -0.8469,-0.21 -1.3906,-0.2167 z m 6.1211,0 c -0.4532,0 -0.9063,0.07 -1.25,0.2089 -0.6875,0.2774 -0.125,0.5039 1.25,0.5039 1.375,0 1.9375,-0.2265 1.25,-0.5039 -0.3438,-0.1387 -0.7969,-0.2089 -1.25,-0.2089 z m 21.8789,0.9941 c -0.5438,-0.01 -1.123,0.053 -1.6094,0.1797 -0.973,0.2536 -0.4195,0.478 1.2305,0.498 1.65,0.02 2.4465,-0.1869 1.7695,-0.4609 -0.3386,-0.1362 -0.8469,-0.2101 -1.3906,-0.2168 z m -238.9746,1.084 c 1.7832,-0.042 4.2997,0.1195 7.791,0.4512 8.0282,0.7626 8.7749,1.0121 8.4707,2.8359 -0.1835,1.1 -0.6335,2.2299 -1,2.5098 -1.1202,0.8556 -8.166,-0.066 -8.166,-1.0684 0,-1.3381 -2.7574,-1.169 -3.2129,0.1973 -0.5281,1.5844 -7.7871,-1.0902 -7.7871,-2.8692 0,-1.3508 0.9322,-1.9867 3.9043,-2.0566 z m 208.0957,4.789 c -2.75,0 -5,0.3513 -5,0.7813 0,0.4293 2.25,0.865 5,0.9668 2.75,0.1019 5,-0.2515 5,-0.7832 0,-0.5316 -2.25,-0.9649 -5,-0.9649 z m 14.4394,0.7266 c -3.0395,0.01 -5.4394,0.1326 -5.4394,0.4043 0,0.4336 3.7125,0.9183 8.25,1.0781 7.668,0.2699 10.3566,0.064 9.5586,-0.7344 -0.4617,-0.4616 -7.3034,-0.7633 -12.3692,-0.748 z m -88.6543,0.2832 c 1.3736,0.062 1.0685,0.501 0.086,1.625 -0.8961,1.025 -2.4226,3.4383 -3.3907,5.3633 -0.9681,1.925 -2.0353,3.725 -2.3711,4 -0.671,0.5496 -3.1823,5.6794 -5.2636,10.75 -0.7337,1.7875 -1.5998,3.25 -1.9239,3.25 -1.5268,0 -1.8082,-1.5341 -0.6269,-3.4199 0.7166,-1.1439 2.171,-4.7801 3.2305,-8.0801 1.0596,-3.3 2.5003,-6.9342 3.2031,-8.0781 1.2224,-1.9897 0.8569,-3.4219 -0.8731,-3.4219 -0.4455,0 -1.6619,1.6875 -2.7031,3.75 -4.505,8.9242 -5.3639,10.2376 -6.3203,9.6465 -0.5746,-0.3551 -0.7484,-2.1944 -0.4004,-4.2598 0.5718,-3.395 0.5119,-3.508 -0.9102,-1.6953 -0.8368,1.0677 -1.5556,3.7677 -1.5976,6 l -0.076,4.0586 -1.1738,-3.1777 c -2.0329,-5.5037 -2.9859,-5.1205 -2.3047,0.9277 0.6933,6.1556 -0.5214,7.704 -2.5508,3.25 -0.6265,-1.375 -1.5168,-2.5 -1.9785,-2.5 -1.1513,0 -1.0534,-2.4355 0.209,-5.2012 1.0558,-2.3131 6.9956,-6.7988 9.0039,-6.7988 0.5945,0 2.6406,-1.1885 4.5469,-2.6426 2.6246,-2.0018 4.9761,-2.7574 9.6836,-3.1133 2.2494,-0.1701 3.6778,-0.2694 4.5019,-0.2324 z m 104.3731,0.4707 c -1.3611,4e-4 -1.9006,0.1717 -1.5508,0.5176 0.4902,0.4847 3.1426,1.0528 5.8926,1.2617 2.75,0.2088 7.25,0.4007 10,0.4277 l 5,0.049 -6,-0.8535 c -6.5215,-0.9291 -11.0734,-1.4032 -13.3418,-1.4024 z m -71.8535,0.8008 c 0.2123,0.013 0.3774,0.067 0.4765,0.166 0.8653,0.8652 -1.7375,3.3074 -4.0625,3.8125 -1.2207,0.2651 -3.0062,0.8122 -3.9687,1.2168 -1.0557,0.4438 -1.75,0.2967 -1.75,-0.3711 0,-0.6089 0.9,-1.1074 2,-1.1074 1.1,0 2,-0.4598 2,-1.0235 0,-0.9976 3.8185,-2.7919 5.3047,-2.6933 z m -240.4532,0.094 c 0.1207,0 0.216,0.027 0.2774,0.088 0.2452,0.2452 9.654,0.6573 20.9082,0.916 11.6142,0.267 24.787,1.1675 30.4629,2.084 9.6167,1.5527 14.5623,2.278 21,3.0743 1.65,0.204 7.05,1.1049 12,2.0039 4.95,0.8989 11.25,2.0438 14,2.5429 2.75,0.4992 8.6,1.3643 13,1.9219 4.4,0.5576 9.125,1.4295 10.5,1.9375 1.375,0.508 6.6625,1.6945 11.75,2.6367 5.0875,0.9422 9.25,2.0972 9.25,2.5664 0,0.4693 -6.6375,0.9266 -14.75,1.0176 -24.2623,0.2722 -34.1456,1.0073 -66.25,4.9258 -7.45,0.9093 -35.1148,6.3041 -45,8.7754 -11.0619,2.7655 -26.0214,9.1898 -32.7422,14.0605 -2.3327,1.6906 -4.7045,3.0723 -5.2715,3.0723 -0.5671,0 -2.9874,1.8035 -5.3789,4.0078 -3.409,3.1424 -4.7162,5.3209 -6.0527,10.084 -2.9233,10.4189 -0.9723,18.8505 5.6582,24.4414 10.1612,8.5671 22.8089,6.5677 29.1386,-4.6074 2.5738,-4.544 3.5105,-16.9192 1.4375,-18.9922 -0.7972,-0.7973 -1.2646,-2.0088 -1.0371,-2.6914 0.2276,-0.6826 -0.024,-1.2422 -0.5605,-1.2422 -0.5362,0 -1.2473,-1.0841 -1.5801,-2.4102 -0.6196,-2.4686 -7.9652,-8.5898 -10.3086,-8.5898 -0.7166,0 -1.3027,-0.45 -1.3027,-1 0,-0.55 0.7997,-1 1.7773,-1 0.9777,0 2.6652,-0.6098 3.75,-1.3555 1.0849,-0.7457 4.4477,-2.1537 7.4727,-3.1308 3.025,-0.9771 5.95,-2.1022 6.5,-2.5 0.55,-0.3978 1.9,-0.9762 3,-1.2852 1.1,-0.309 5.2077,-1.4862 9.1289,-2.6152 19.5087,-5.6169 52.4887,-11.0223 80.3711,-13.1739 26.6146,-2.0538 81.1573,-0.3756 85.7578,2.6387 1.2565,0.8233 3.6161,3.6168 5.2441,6.209 2.4363,3.8794 2.9625,5.7992 2.9785,10.8477 0.022,7.1679 -0.3102,7.3913 -9.4804,6.3671 -6.9663,-0.7781 -56.0046,-0.4857 -68.5,0.4082 -17.9944,1.2873 -29.177,2.8849 -29.6993,4.2461 -0.2836,0.739 -1.8356,1.3438 -3.4492,1.3438 -1.6137,0 -5.9525,0.974 -9.6425,2.1641 -17.6079,5.6789 -29.7275,13.9937 -39.1153,26.8359 -4.5256,6.191 -6.5068,9.4401 -13.4082,22 -1.6622,3.025 -3.3957,5.6507 -3.8535,5.834 -0.4578,0.1834 -0.832,0.7929 -0.832,1.3554 0,1.4177 -5.8884,8.79 -9.42,11.793 -5.7202,4.8641 -12.1004,8.2705 -16.3086,8.709 -4.1073,0.428 -4.2743,0.3371 -4.3593,-2.3731 -0.049,-1.55 -0.2505,-4.9031 -0.4473,-7.4511 -0.3187,-4.1269 -0.023,-4.9304 2.7051,-7.3614 2.7303,-2.4327 3.004,-3.1758 2.5117,-6.8457 -0.3037,-2.2642 -1.0574,-4.2848 -1.6738,-4.4902 -0.6163,-0.2055 -1.9953,-1.3114 -3.0645,-2.459 -1.6452,-1.766 -1.9433,-1.8314 -1.9433,-0.4218 0,0.9159 -1.125,2.4036 -2.5,3.3046 -3.1623,2.072 -3.3882,7.0769 -0.461,10.2188 1.1214,1.2037 2.3589,2.1855 2.75,2.1855 1.2453,0 0.1542,16.096 -1.1172,16.4844 -5.357,1.6364 -47.4158,-0.041 -58.6718,-2.3398 -8.1003,-1.6543 -23.5034,-4.1719 -31.5,-5.1485 -3.85,-0.4702 -8.8,-1.3194 -11,-1.8867 -2.2,-0.5672 -9.175,-2.3253 -15.5,-3.9062 -15.8708,-3.967 -18.854,-5.0583 -20.0782,-7.3457 -0.8056,-1.5053 -1.3822,-1.7183 -2.3867,-0.8848 -0.9811,0.8151 -2.3227,0.6365 -5.1797,-0.6856 -2.1208,-0.9814 -4.0804,-2.0545 -4.3554,-2.3847 -0.275,-0.3302 -1.5377,-1.1471 -2.8047,-1.8145 -4.8466,-2.5534 -8.2523,-12.3582 -4.7578,-13.6992 1.981,-0.7602 2.8573,-5.4789 1.6211,-8.7305 -0.5629,-1.4804 -2.1558,-3.1225 -3.5391,-3.6484 -2.1733,-0.8263 -2.4526,-1.4339 -2.0625,-4.4805 0.2483,-1.9392 0.021,-3.5273 -0.5039,-3.5273 -1.0606,0 -1.0609,0.01 -1.3223,5.1953 -0.2426,4.8158 -1.5944,6.1405 -1.7578,1.7227 -0.2364,-6.3913 -0.3732,-7.417 -1.1504,-8.6153 -0.5531,-0.8531 -0.1214,-1.0338 1.5,-0.6289 6.4962,1.6223 9.7855,1.4844 13.0723,-0.5469 1.8487,-1.1426 3.8791,-3.213 4.5117,-4.6015 0.6326,-1.3885 1.7689,-2.5254 2.5254,-2.5254 0.7565,0 2.4972,-1.0125 3.8691,-2.25 10.3633,-9.3478 26.8023,-20.5372 37.3457,-25.4199 2.1736,-1.0065 4.5412,-2.6176 5.2598,-3.5801 0.7187,-0.9625 1.7945,-1.75 2.3906,-1.75 0.5961,0 2.9332,-0.8581 5.1934,-1.9082 2.2603,-1.0501 5.5719,-2.4541 7.3594,-3.1211 1.7875,-0.6659 3.25,-1.6085 3.25,-2.0918 0,-1.2169 -1.0771,-1.0497 -4,0.6211 -1.375,0.786 -3.85,1.4535 -5.5,1.4805 -1.65,0.028 -5.025,0.7483 -7.5,1.6035 -5.4104,1.8695 -20.297,8.4756 -21,9.3183 -0.275,0.3297 -2.9103,1.8882 -5.8555,3.4649 -6.7127,3.5935 -16.7972,10.2596 -17.6797,11.6875 -0.3665,0.593 -0.4292,1.3147 -0.1406,1.6035 0.9299,0.9293 4.0859,-0.5708 7.6758,-3.6504 1.925,-1.6514 4.175,-2.9887 5,-2.9727 1.1193,0.022 0.9924,0.406 -0.5,1.5157 -1.1,0.8179 -2.793,2.1541 -3.7618,2.9687 -0.9688,0.8145 -1.9527,1.4805 -2.1875,1.4805 -0.2347,0 -1.9063,1.35 -3.7128,3 -4.0768,3.7236 -5.2287,3.7872 -4.5235,0.25 1.4756,-7.4016 -5.9425,-20.3105 -12.6836,-22.0723 l -3.1308,-0.8183 4,-2.5352 c 2.2004,-1.394 7.1504,-3.5439 11,-4.7793 3.8496,-1.2353 7.9,-2.6283 9,-3.0957 3.1462,-1.337 30.3028,-7.7897 37.5,-8.9101 3.575,-0.5565 9.65,-1.8689 13.5,-2.9161 3.85,-1.0471 9.25,-2.2634 12,-2.7031 2.75,-0.4398 5.675,-0.9281 6.5,-1.0859 4.4447,-0.8498 16.0862,-2.429 20,-2.7129 2.475,-0.1796 7.2,-0.8392 10.5,-1.4668 5.9796,-1.1372 23.5656,-2.7119 39.2656,-3.5137 4.5462,-0.2322 8.8624,-0.9162 9.5918,-1.5215 0.547,-0.4542 1.1322,-0.7345 1.4941,-0.7422 z m 142.5957,0.6348 c 3.8874,0.029 8.0517,0.6566 11.8242,1.9121 7.0544,2.3475 17.1266,8.0167 16.9747,9.5527 -0.1599,1.6176 -1.9236,1.7035 -3.4571,0.17 -3.0767,-3.0767 -13.937,-7.6509 -20.6308,-8.6895 -7.3858,-1.1459 -13.3673,-0.261 -17.9082,2.6485 -3.5139,2.2514 -2.6383,-0.1913 0.9961,-2.7793 2.6628,-1.8961 7.2031,-2.8516 12.2011,-2.8145 z m 195.5528,0.9902 c -0.55,0 -1,0.45 -1,1 0,0.55 0.45,1 1,1 0.55,0 1,-0.45 1,-1 0,-0.55 -0.45,-1 -1,-1 z m -4.084,0.1231 c -0.3474,-0.014 -0.7426,0.049 -1.1035,0.1933 -0.7977,0.3192 -0.5614,0.5556 0.6035,0.6036 1.0542,0.043 1.6448,-0.1931 1.3125,-0.5254 -0.1662,-0.1662 -0.4651,-0.2571 -0.8125,-0.2715 z m 10.084,0.998 c -0.6344,0 -1.2688,0.064 -1.75,0.1895 -0.9625,0.2515 -0.175,0.457 1.75,0.457 1.925,0 2.7125,-0.2055 1.75,-0.457 -0.4813,-0.1258 -1.1157,-0.1895 -1.75,-0.1895 z m -65.1075,0.072 c -3.0701,9e-4 -4.9257,0.071 -4.7753,0.2285 0.3396,0.3554 6.6396,0.8882 14,1.1836 7.3603,0.2954 19.6828,0.8496 27.3828,1.2324 7.7,0.3827 16.2234,0.8114 18.9414,0.9532 2.718,0.1419 4.7384,0.055 4.4902,-0.1934 -0.4328,-0.4327 -7.0001,-1.0889 -20.9316,-2.0918 -9.7506,-0.702 -29.8972,-1.3153 -39.1075,-1.3125 z m -68.8984,0.3047 -1.5117,3.75 c -0.8307,2.0625 -1.3055,3.75 -1.0567,3.75 0.2488,0 -1.2418,2.7877 -3.3125,6.1933 -3.5563,5.8484 -6.1132,8.3112 -6.1132,5.8868 0,-1.3435 4.3002,-10.3553 5.83,-12.2168 0.6159,-0.7494 2.2556,-2.7133 3.6426,-4.3633 l 2.5215,-3 z m -31.7441,2.5117 c 1.296,-0.02 0.8406,1.6538 -2.291,8.4199 -3.2158,6.9477 -5.9015,9.1953 -3.3672,2.8184 2.7941,-7.0308 4.9072,-11.2273 5.6582,-11.2383 z m -37.2266,0.3848 c 6.2544,0.098 14.1159,1.6405 16.4258,3.7402 1.3012,1.1827 -8.1677,0.8783 -17.9492,-0.5781 -7.3146,-1.0891 -7.7715,-1.2873 -5.336,-2.3164 1.5064,-0.6365 4.0165,-0.8903 6.8594,-0.8457 z m -125.3008,0.6816 c -7.644,-0.059 -35.7191,2.8945 -44.7226,4.8984 -23.9679,5.3348 -27.9632,6.2696 -35,8.1797 -4.125,1.1197 -11.325,3.5257 -16,5.3477 -4.675,1.822 -13.1217,4.7458 -18.7696,6.4961 -5.6479,1.7502 -10.9024,3.8165 -11.6777,4.5918 -0.7753,0.7753 -1.8326,1.4082 -2.3477,1.4082 -1.2383,0 -6.205,3.932 -6.205,4.9121 0,1.8452 5.7754,3.0872 14.2968,3.0742 11.4044,-0.018 47.2615,2.7278 58.7032,4.4942 10.5227,1.6246 18,1.8393 18,0.5195 0,-0.55 -2.2014,-1 -4.8926,-1 -2.6912,0 -8.2037,-0.6317 -12.25,-1.4043 -10.1542,-1.9384 -24.9821,-3.3911 -47.2813,-4.6348 -10.4078,-0.5805 -19.3174,-1.3 -19.7988,-1.5976 -1.5899,-0.9826 1.2178,-3.129 7.0117,-5.3633 3.1409,-1.2112 7.8196,-3.0577 10.3965,-4.1016 5.7029,-2.3102 7.2167,-2.3879 6.4277,-0.332 -0.4518,1.1773 -0.1367,1.419 1.2696,0.9727 1.3097,-0.4157 2.0192,-0.015 2.373,1.3378 0.4261,1.6292 1.738,2.0296 8.375,2.5606 22.3179,1.7854 32.2482,2.7831 35.8692,3.6055 5.0765,1.1529 10.5,1.2118 10.5,0.1132 0,-0.4648 -0.9,-1.6607 -2,-2.6562 -1.8474,-1.6719 -2.7502,-4.5 -1.4356,-4.5 1.3184,0 4.9778,2.4493 6.5371,4.375 1.4337,1.7704 2.0341,1.9051 4.041,0.916 6.4399,-3.1739 12.9329,-5.6391 18.3575,-6.9707 3.3,-0.81 6.675,-1.6387 7.5,-1.8418 0.825,-0.2031 4.65,-1.2981 8.5,-2.4336 8.41,-2.4804 26.8789,-5.6741 38.2714,-6.6191 8.4937,-0.7046 10.9457,-1.7445 7.0391,-2.9844 -1.2198,-0.3872 -2.8335,-1.3199 -3.5859,-2.0723 -1.9025,-1.9025 -3.5382,-1.7777 -22.7559,1.7266 -9.3327,1.702 -18.9937,3.4511 -21.4687,3.8867 -2.475,0.4357 -7.2,1.5538 -10.5,2.4844 -3.3,0.9306 -9.2359,2.5306 -13.1914,3.5566 -3.9554,1.0261 -8.5855,2.5849 -10.2872,3.4649 -2.5913,1.3401 -4.02,1.4241 -8.8066,0.5078 -11.5596,-2.2129 -24.6896,-3.9987 -30.1289,-4.0957 -10.013,-0.1786 -11.0453,-1.1664 -3.3867,-3.2422 3.74,-1.0144 7.9258,-2.2053 9.3008,-2.6484 1.375,-0.4432 6.1,-1.5538 10.5,-2.4668 4.4,-0.913 10.8702,-2.3279 14.3789,-3.1446 6.6078,-1.5379 10.4362,-2.1228 35.5273,-5.4199 14.8811,-1.9555 16.546,-2.3563 15.2246,-3.6777 -0.1429,-0.1429 -0.8162,-0.2143 -1.9082,-0.2227 z m 201.4395,1.1348 c 1.3384,-0.037 2.789,1.4156 2.8222,3.0371 0.01,0.4125 -1.1093,0.75 -2.4843,0.75 -2.8325,0 -3.49,-2.6821 -0.9004,-3.6758 0.1822,-0.07 0.3713,-0.106 0.5625,-0.1113 z m 7.8965,1.7871 c 1.7847,0 2.802,0.4166 2.4414,1 -0.3399,0.55 -1.716,1 -3.0586,1 -1.3425,0 -2.4414,-0.45 -2.4414,-1 0,-0.55 1.3761,-1 3.0586,-1 z m 64,2.0019 c -0.5825,0 -1.0586,0.45 -1.0586,1 0,0.55 0.1989,1 0.4414,1 0.2426,0 0.7187,-0.45 1.0586,-1 0.34,-0.55 0.141,-1 -0.4414,-1 z m -10.1856,0.1133 c -0.9062,0 -1.8493,0.053 -2.6094,0.168 -1.5201,0.2291 -0.5136,0.4216 2.2364,0.4316 2.7498,0.01 3.9935,-0.1806 2.7636,-0.4179 -0.6149,-0.1188 -1.4843,-0.1792 -2.3906,-0.1817 z m 16.543,0.2324 c -0.8706,-0.027 -1.6234,0.1813 -1.8555,0.5567 -0.3127,0.5059 3.7484,1.2342 9.1445,1.6387 5.3395,0.4003 11.9783,1.0612 14.752,1.4687 7.0166,1.0307 7.9651,1.0784 7.2559,0.3691 -0.9742,-0.9742 -8.5674,-2.1953 -17.7774,-2.8574 -4.6394,-0.3335 -9.4212,-0.8142 -10.625,-1.0683 -0.3009,-0.063 -0.6043,-0.098 -0.8945,-0.1075 z m -45.1367,0.022 c 0.3923,-0.036 0.8856,0.375 1.8007,1.2032 1.0562,0.9559 1.92,2.1191 1.92,2.5839 0,0.4647 -0.3375,0.784 -0.75,0.709 -5.253,-0.9538 -5.2683,-0.9633 -4.17,-3.0156 0.5136,-0.9596 0.8069,-1.4444 1.1993,-1.4805 z m -36.2344,0.6582 c 0.083,0 0.1677,-4e-4 0.2539,0.018 0.4138,0.078 0.8558,0.3968 1.2129,0.9746 0.3936,0.6369 3.0467,0.7723 7.0586,0.3613 3.5356,-0.3594 6.4297,-0.3607 6.4297,0 0,0.3606 -1.575,2.1853 -3.5,4.0547 -1.925,1.8694 -3.5,4.3367 -3.5,5.4825 0,1.3812 -0.5886,2.0221 -1.75,1.9062 -0.9625,-0.096 -3.775,-0.3508 -6.25,-0.5644 -2.475,-0.2137 -4.844,-0.7262 -5.2637,-1.1387 -1.0752,-1.0567 1.1109,-6.8505 2.834,-7.5117 0.7866,-0.3019 1.4297,-1.2379 1.4297,-2.0801 0,-0.9485 0.4663,-1.4732 1.0449,-1.502 z m -49.8457,1.5078 c 0.3751,-0.063 1.3019,0.3597 2.2285,1.0372 1.059,0.7744 1.7337,1.6001 1.498,1.8359 -0.2357,0.2355 -1.2965,-0.2042 -2.3554,-0.9785 -1.059,-0.7744 -1.7318,-1.6003 -1.4961,-1.836 0.029,-0.029 0.071,-0.05 0.125,-0.059 z m -3.4746,0.5899 c 1.0664,-0.085 1.2231,0.5317 1.6347,2.1719 0.3175,1.2651 1.8243,2.7875 3.3575,3.3925 2.7164,1.0722 2.6886,1.0974 -1.2168,1.0254 -8.7001,-0.1607 -13.3947,-0.8809 -14.5098,-2.2246 -0.9477,-1.1419 -0.6311,-1.5151 1.6719,-1.9824 1.561,-0.3167 4.2192,-1.0101 5.9082,-1.541 1.546,-0.4859 2.5144,-0.7906 3.1543,-0.8418 z m 91.9472,2.875 c 2.9118,0 1.046,2.0743 -4.0195,4.4707 -5.2505,2.4846 -6.6523,2.9332 -6.6523,2.125 0,-0.8017 9.373,-6.5957 10.6718,-6.5957 z m -63.1992,1.9844 c 0.5379,-0.091 1.0274,0.2793 1.0274,1.1836 0,0.6416 -0.6056,1.3686 -1.3457,1.6152 -0.8411,0.2796 -1.2159,-0.1779 -1,-1.2207 0.1941,-0.937 0.7805,-1.4874 1.3183,-1.5781 z m -11.5312,0.016 c 0.5176,0 1.2187,0.45 1.5586,1 0.34,0.55 -0.084,1 -0.9414,1 -0.8575,0 -1.5586,-0.45 -1.5586,-1 0,-0.55 0.4239,-1 0.9414,-1 z m -151.0645,1.459 c 0.4164,0.048 0.2908,0.2199 -0.3769,0.5156 -1.9098,0.8456 -8.2867,1.4182 -7.418,0.666 0.2291,-0.1985 2.443,-0.6297 4.918,-0.957 1.5024,-0.1986 2.4606,-0.273 2.8769,-0.2246 z m -112.1933,2.0019 c -0.5652,-0.062 -2.3162,0.3619 -4.2227,1.041 -2.1789,0.776 -3.2039,1.4311 -2.2773,1.4551 2.061,0.054 7.2574,-1.848 6.666,-2.4394 -0.029,-0.029 -0.085,-0.048 -0.166,-0.057 z m 343.875,0.5391 c 0.2425,0 0.4414,0.45 0.4414,1 0,0.55 -0.4761,1 -1.0586,1 -0.5824,0 -0.7813,-0.45 -0.4414,-1 0.34,-0.55 0.816,-1 1.0586,-1 z m 4.5058,0.2461 c 0.3294,0.045 0.6214,0.2063 0.7969,0.4746 0.3511,0.5377 2.6637,1.2836 5.1387,1.6582 6.4271,0.9727 11.1107,2.6328 10.4492,3.7031 -0.3125,0.5057 -3.1596,0.918 -6.3281,0.918 -4.9431,0 -6.2214,-0.4107 -9.0079,-2.8985 -2.1983,-1.9627 -2.8665,-3.1355 -2.0683,-3.6289 0.3242,-0.2004 0.6901,-0.2713 1.0195,-0.2265 z m 42.2266,2.9219 c 1.0582,0 2.1131,0.025 3.1562,0.092 11.9106,0.764 20.3509,4.4643 28.0782,12.3066 5.0206,5.0953 13.4746,17.0812 13.4746,19.1055 0,0.29 0.7204,2.1695 1.6015,4.1777 0.8811,2.0081 1.968,4.5504 2.416,5.6504 1.345,3.3026 2.9825,11.1872 2.9825,14.3633 0,3.4919 -2.852,8.9553 -5,9.5781 -3.019,0.8754 -16.5189,1.7204 -17.1582,1.0742 -0.3622,-0.3662 -0.2497,-2.0915 0.25,-3.834 1.425,-4.9687 1.0686,-14.4798 -0.7911,-21.1074 -1.3696,-4.8812 -2.7777,-7.1586 -7.25,-11.7285 -6.4085,-6.5471 -11.252,-8.3635 -20.1738,-7.5625 -6.4915,0.5824 -9.6183,2.351 -15.8769,8.9805 l -4.5,4.7675 -5.5,-1.5039 c -3.025,-0.8268 -6.5687,-1.5036 -7.875,-1.5136 -2.1588,-0.011 -2.3094,-0.3094 -1.6563,-3.2637 1.563,-7.0695 1.8456,-9.4702 1.7656,-15 -0.081,-5.651 -0.035,-5.75 2.7188,-5.75 1.5408,0 3.3622,-0.675 4.0469,-1.5 0.6847,-0.825 1.9901,-1.5 2.9004,-1.5 0.9103,0 2.5611,-0.6336 3.6699,-1.4102 3.8068,-2.6664 11.3132,-4.3909 18.7207,-4.4218 z m -112.461,0.3418 c 0.4129,0 0.8788,0.031 1.3985,0.084 12.7521,1.3066 24.2252,2.6464 29.7715,3.4766 3.575,0.5351 11.675,1.4358 18,2.002 22.5115,2.0154 28.0146,2.6103 28.4824,3.0781 0.2606,0.2606 0.5967,1.5664 0.7461,2.9023 0.2649,2.3696 0.1192,2.4204 -5.9141,2.0996 -9.4369,-0.5018 -12.7039,1.2234 -8.5644,4.5215 4.971,3.9604 5.7348,4.2315 9.5058,3.3809 2.0654,-0.4654 3.9714,-0.4956 4.2364,-0.066 0.265,0.4288 -0.1822,2.9701 -0.9942,5.6465 -2.0758,6.8424 -1.9534,7.3601 1.752,7.4101 5.0621,0.069 13.221,2.5233 13.5097,4.0645 0.1432,0.7649 -0.7571,2.9656 -2,4.8906 -2.6283,4.0708 -15.0143,26.868 -17.3867,32 -0.8898,1.925 -2.2632,4.625 -3.0508,6 -0.7875,1.375 -2.045,3.85 -2.7949,5.5 -2.7839,6.1249 -6.2686,8.2068 -14.9394,8.9258 -4.3514,0.3608 -8.1764,0.8201 -8.5,1.0195 -0.6088,0.3753 -29.0319,3.775 -46.5879,5.5723 -44.3621,4.5417 -58.8008,6.1149 -64,6.9765 -3.3,0.547 -6.3831,1 -6.8496,1 -1.2217,0.01 0.3706,-12.3338 1.7187,-13.3222 0.6306,-0.4623 -0.1946,-0.5601 -1.8691,-0.2207 -1.65,0.3344 -7.8092,0.791 -13.6856,1.0136 -9.5077,0.36 -10.937,0.6558 -12.9765,2.6953 -1.4114,1.4114 -2.1712,3.2086 -1.9786,4.6778 0.2085,1.5911 -0.068,2.1518 -0.832,1.6797 -0.6299,-0.3893 -1.0537,-1.6783 -0.9394,-2.8633 0.1143,-1.185 -0.1193,-2.9095 -0.5196,-3.832 -1.9887,-4.5833 2.2184,-10.1134 4.9239,-6.4727 0.7562,1.0176 1.856,1.5537 2.4453,1.1895 0.5893,-0.3642 5.9066,-0.6678 11.8164,-0.6778 5.9099,-0.01 12.9961,-0.4023 15.7461,-0.875 2.75,-0.4727 9.6457,-1.393 15.3261,-2.0449 5.6804,-0.6518 9.9554,-1.5572 9.5,-2.0117 -0.4553,-0.4547 -3.4322,-0.4736 -6.6171,-0.041 -3.1852,0.4332 -6.0074,0.4388 -6.2715,0.012 -0.2642,-0.4274 0.2379,-4.2607 1.1172,-8.5176 2.9708,-14.3828 0.2003,-26.156 -8.2168,-34.916 -8.0344,-8.3618 -12.6313,-10.8009 -24.8379,-13.1758 -4.4,-0.856 -8.675,-1.7665 -9.5,-2.0234 -3.2904,-1.0243 3.2949,-2.1695 18.9726,-3.2969 13.9435,-1.0018 16.3887,-0.9587 17.8418,0.3105 0.9262,0.809 4.8356,1.7697 8.6856,2.1348 12.5789,1.1926 15.8802,1.5331 25,2.5879 4.95,0.5725 9.9,1.1445 11,1.2695 1.5839,0.1801 2.0643,-0.4494 2.3125,-3.0234 0.2251,-2.3346 -0.1006,-3.25 -1.1563,-3.25 -1.0041,0 -1.2944,0.6702 -0.916,2.1172 0.5412,2.0697 0.3656,2.102 -7.8438,1.4433 -11.7826,-0.9456 -23.6355,-2.5251 -26.2128,-3.4941 -3.2036,-1.2044 12.1778,-2.1601 26.8164,-1.666 6.6,0.2227 15.2379,0.4479 19.1953,0.5019 l 7.1933,0.098 0.3321,4.75 0.332,4.75 1.3027,-4.5957 c 1.0871,-3.8337 1.6645,-4.5447 3.4746,-4.291 1.1936,0.1673 4.3075,0.5765 6.92,0.9082 5.4309,0.6896 5.7492,1.6125 3.3222,9.6093 -1.741,5.7361 -1.1745,18.5376 1.0996,24.8692 1.8267,5.0862 7.4361,13.2666 10.6387,15.5098 1.2695,0.8892 4.379,1.4902 7.6797,1.4902 5.7073,0 11.0247,-2.5523 15.2578,-7.3281 5.6659,-6.3921 10.1937,-21.8574 9.5117,-32.4844 l -0.4707,-7.3535 6.1055,0.1972 c 3.3578,0.109 6.5555,0.097 7.1055,-0.031 1.6715,-0.39 -4.7371,-1.7502 -9,-1.9102 -4.4197,-0.1659 -7.4127,-1.888 -6.7422,-3.8789 0.2391,-0.7102 -0.9899,-3.6425 -2.7324,-6.5176 -7.7329,-12.7592 -19.7963,-12.6985 -30.9707,0.1563 l -4.9141,5.6523 -7.668,-0.5 -7.6679,-0.5 -0.088,-6.9668 c -0.092,-7.2373 -1.1645,-10.4891 -4.7227,-14.3086 -2.3283,-2.499 -2.0542,-3.7313 0.8359,-3.7148 l 0,0 z m 161.8282,0.8906 c -0.4295,-0.051 -0.8893,0.1648 -1.1485,0.584 -0.3454,0.559 0.074,1.0175 0.9317,1.0175 1.7566,0 2.014,-0.6017 0.6269,-1.4589 -0.128,-0.079 -0.267,-0.1254 -0.4101,-0.1426 z m -434.5996,0.5996 c 0.5175,0 0.9414,0.45 0.9414,1 0,0.55 -0.7011,1 -1.5586,1 -0.858,0 -1.2813,-0.45 -0.9414,-1 0.34,-0.55 1.041,-1 1.5586,-1 z m 2.4414,1.123 14,0.375 c 7.7,0.2069 15.125,0.8272 16.5,1.377 2.4892,0.9949 2.487,0.9978 -0.5,0.9258 -1.65,-0.04 -3.9,-0.2517 -5,-0.4707 -1.1,-0.219 -7.175,-0.8051 -13.5,-1.3028 l -11.5,-0.9043 z m 414,2.0098 9.5,0.9531 c 5.225,0.524 12.2509,1.1985 15.6132,1.4981 l 5.2598,0.4707 0,-1.0313 -2.1348,-0.375 c -1.7809,-0.3136 -8.8632,-0.7826 -15.7382,-1.0429 l -12.5,-0.4727 z m -375.6211,0.9961 c 0.5437,0.01 1.052,0.08 1.3906,0.2168 0.677,0.2745 -0.1195,0.4809 -1.7695,0.4609 -1.65,-0.02 -2.2035,-0.2444 -1.2305,-0.498 0.4864,-0.1268 1.0656,-0.1864 1.6094,-0.1797 z m 328.166,1.2676 c -2.1591,0.078 -2.6146,0.4099 -1.8438,1.3418 0.7381,0.8924 0.5047,1.4386 -0.8359,1.9531 -2.0267,0.7777 -6.3652,4.8024 -6.3652,5.9043 0,0.3776 -0.7434,1.2279 -1.6524,1.8926 -0.9835,0.7191 -1.3393,1.7186 -0.8769,2.4668 0.5707,0.9233 1.4295,0.5537 3.2324,-1.3907 1.6785,-1.8101 3.064,-2.4557 4.3769,-2.039 2.0868,0.6624 2.5475,-0.4955 0.8672,-2.1758 -0.7351,-0.7352 -0.2945,-1.5465 1.4649,-2.6992 1.3839,-0.9068 2.9639,-2.484 3.5097,-3.5039 0.8632,-1.613 0.6184,-1.841 -1.8769,-1.75 z m 57.8242,3.7246 c -0.725,0 -1.4855,0.052 -2.1074,0.1719 -1.2439,0.2392 -0.4617,0.444 1.7383,0.455 2.1997,0.011 3.2178,-0.1833 2.2617,-0.4336 -0.4781,-0.1251 -1.1676,-0.1896 -1.8926,-0.1933 z m 10.1309,0.014 c -2.3063,0.095 -2.2676,0.1629 0.5,0.8671 4.3225,1.0999 5.202,1.0999 3.5,0 -0.825,-0.5332 -2.625,-0.9241 -4,-0.8671 z m -531.6817,1.0214 c 1.8174,0.015 3.2867,0.6409 5.6563,2.209 5.1164,3.3858 7.02,7.1961 7.1777,14.3613 0.1693,7.6872 -1.6172,13.7073 -4.8125,16.2208 -2.8375,2.2319 -9.5393,2.7493 -12.5898,0.9726 -2.8932,-1.6853 -1.9724,-2.828 1.2871,-1.5976 4.0134,1.5148 7.6323,-0.4678 10.6816,-5.8516 3.1664,-5.5898 2.9944,-6.5422 -0.9687,-5.3633 -3.3225,0.9884 -13.5206,0.2997 -17.42,-1.1758 -1.313,-0.4968 -2.0616,-1.5325 -1.8964,-2.625 0.2353,-1.5561 1.0871,-1.7536 6.1699,-1.4297 3.2431,0.2068 7.9215,0.432 10.3965,0.5 3.4362,0.095 4.4231,0.4777 4.1777,1.6231 -0.2109,0.9841 0.01,1.156 0.6426,0.5 1.8493,-1.9181 -0.017,-7.6204 -3.793,-11.5899 -3.2128,-3.3773 -4.3095,-3.9101 -8.0723,-3.9101 -5.1934,0 -4.2879,-1.7457 1.3829,-2.666 0.7294,-0.1183 1.3746,-0.1828 1.9804,-0.1778 z m 465.0703,2.2286 c -0.1195,-0.01 -0.2511,0.03 -0.3886,0.1152 -0.55,0.3399 -1,1.043 -1,1.5605 0,0.5176 0.45,0.9395 1,0.9395 0.55,0 1,-0.7012 1,-1.5586 0,-0.6435 -0.2528,-1.0408 -0.6114,-1.0566 z m -423.2714,1.6152 c 0.55,0 0.7228,0.45 0.3828,1 -0.3399,0.55 -1.0692,1 -1.6192,1 -0.55,0 -0.7207,-0.45 -0.3808,-1 0.34,-0.55 1.0672,-1 1.6172,-1 z m 394.7519,0.1582 c 0.5511,-0.018 1.1791,-0.01 1.8809,0.037 2.6125,0.1676 4.6702,0.7451 4.5742,1.2812 -0.2138,1.1912 -0.8069,1.2746 -5.5742,0.7872 -4.8259,-0.4934 -4.7388,-1.9825 -0.8809,-2.1055 z m -438.9492,0.1172 c 2.2077,-0.1274 7.2959,3.7184 6.6992,5.2734 -0.279,0.7271 0.031,1.5415 0.6875,1.8086 0.6566,0.2672 -0.2205,0.5215 -1.9492,0.5645 -1.8133,0.045 -3.3867,0.7127 -3.7188,1.5781 -0.5731,1.4934 -1.1243,1.5518 -7.4804,0.7715 -3.0628,-0.3759 -3.2853,-0.6342 -2.67,-3.086 0.8305,-3.3088 2.3262,-5.1855 4.1329,-5.1855 1.5985,0 1.841,1.5964 0.3789,2.5 -1.2383,0.7653 -1.3254,3.5 -0.1114,3.5 0.4888,0 1.1882,-1.5969 1.5547,-3.5508 0.3666,-1.9539 1.3011,-3.7963 2.0762,-4.0937 0.119,-0.046 0.2532,-0.072 0.4004,-0.08 z m 526.293,0.8359 c -0.7797,0 -1.2129,0.297 -1.2129,0.8906 0,0.55 1.4625,0.9687 3.25,0.9297 2.7236,-0.059 2.9261,-0.2095 1.25,-0.9297 -1.3814,-0.5936 -2.5075,-0.8906 -3.2871,-0.8906 z m 8.6816,0.066 c -1.8807,-0.035 -2.8945,0.2175 -2.8945,0.7403 0,0.6498 2.2656,1.084 5.666,1.0839 6.8129,0 6.4436,-1.0295 -0.6074,-1.6914 -0.8141,-0.076 -1.5372,-0.121 -2.1641,-0.1328 z m -495.7773,1.8223 c 0.55,0 0.7228,0.45 0.3828,1 -0.3399,0.55 -1.0692,1 -1.6192,1 -0.55,0 -0.7207,-0.45 -0.3808,-1 0.34,-0.55 1.0672,-1 1.6172,-1 z m 427.9921,1.0234 c -0.9181,-0.046 -2.4253,0.5107 -3.9355,1.5684 -1.723,1.2069 -2.0059,1.9075 -1.1738,2.9101 0.7586,0.9137 0.7739,1.5207 0.049,1.9688 -0.5767,0.3569 -1.0488,1.2973 -1.0488,2.0898 0,0.7926 0.45,1.4395 1,1.4395 0.55,0 1,-0.675 1,-1.5 0,-1.7804 1.6615,-2.0134 2.2285,-0.3125 0.2537,0.7613 1.1933,0.3906 2.6191,-1.0352 1.2232,-1.2232 1.9203,-2.7158 1.5488,-3.3164 -0.4436,-0.718 -0.9866,-0.5337 -1.5859,0.5371 -0.5012,0.8956 -1.3641,1.627 -1.918,1.627 -0.5538,0 -0.3054,-0.9983 0.5508,-2.2207 0.8562,-1.2224 1.5567,-2.5724 1.5567,-3 0,-0.482 -0.3398,-0.7282 -0.8907,-0.7559 z m 69.8907,2.0879 c -1.1782,0 -2.3563,0.055 -3.25,0.166 -1.7875,0.2218 -0.325,0.4043 3.25,0.4043 3.575,0 5.0375,-0.1825 3.25,-0.4043 -0.8938,-0.1109 -2.0719,-0.166 -3.25,-0.166 z m -79.67,1.3613 c -0.1754,0.025 -0.4708,0.2308 -0.9082,0.5938 -0.7818,0.6488 -1.4218,1.574 -1.4218,2.0566 0,1.741 1.7791,0.8303 2.3047,-1.1797 0.2759,-1.0549 0.318,-1.5125 0.025,-1.4707 z m -212.5761,1.0235 c -0.28,-0.02 -0.9224,0.432 -1.543,1.1054 -0.7092,0.7696 -0.8497,1.3985 -0.3105,1.3985 1.0384,0 2.5423,-1.9014 1.9492,-2.4649 -0.024,-0.023 -0.056,-0.036 -0.096,-0.039 z m -240.7539,0.5039 c 0.55,0 1,0.45 1,1 0,0.55 -0.45,1 -1,1 -0.55,0 -1,-0.45 -1,-1 0,-0.55 0.45,-1 1,-1 z m 5.0586,0 c 0.5175,0 0.9414,0.45 0.9414,1 0,0.55 -0.7011,1 -1.5586,1 -0.858,0 -1.2813,-0.45 -0.9414,-1 0.34,-0.55 1.041,-1 1.5586,-1 z m 396.4414,1 c 0.825,0 1.5,0.45 1.5,1 0,0.55 -0.675,1 -1.5,1 -0.825,0 -1.5,-0.45 -1.5,-1 0,-0.55 0.675,-1 1.5,-1 z m 53.0586,1 c -0.2426,0 -0.7186,0.45 -1.0586,1 -0.3399,0.55 -0.141,1 0.4414,1 0.5825,0 1.0586,-0.45 1.0586,-1 0,-0.55 -0.1989,-1 -0.4414,-1 z m -145.6426,0.1211 c 0.3474,0.014 0.6463,0.1054 0.8125,0.2715 0.3323,0.3323 -0.2583,0.5684 -1.3125,0.5254 -1.1649,-0.048 -1.4012,-0.2844 -0.6035,-0.6036 0.3609,-0.1444 0.7561,-0.2076 1.1035,-0.1933 z m 224.9531,0 c -0.725,0 -1.4855,0.052 -2.1074,0.1719 -1.2439,0.2392 -0.4617,0.444 1.7383,0.455 2.1997,0.011 3.2178,-0.1833 2.2617,-0.4336 -0.4781,-0.1251 -1.1676,-0.1896 -1.8926,-0.1933 z m -124.0234,0.012 c 0.7272,0 1.6618,0.073 2.7929,0.2285 2.5518,0.3497 5.2518,0.6348 6,0.6348 0.7482,0 1.3614,0.45 1.3614,1 0,0.55 -1.6875,0.9402 -3.75,0.8652 -5.5709,-0.2023 -8.25,-0.8753 -8.25,-2.0703 0,-0.4333 0.6337,-0.6541 1.8457,-0.6582 z m -250.8203,0.018 c 2.4709,-0.019 3.7734,0.5414 6.1425,2.164 2.0178,1.382 3.9303,2.2494 4.25,1.9297 0.3197,-0.3197 0.5821,-0.072 0.5821,0.5508 0,0.6226 1.35,3.2615 3,5.8633 5.7294,9.0342 3.0537,21.4136 -5.9727,27.6348 -3.5903,2.4745 -13.0672,2.3214 -16.168,-0.2618 -1.2984,-1.0817 -1.8229,-1.982 -1.1679,-2 0.6551,-0.018 1.4687,0.4149 1.8086,0.9649 0.8444,1.3663 8.13,1.2655 10.8144,-0.1504 2.9559,-1.5591 6.6856,-5.6403 6.6856,-7.3164 0,-0.7515 0.5495,-1.5478 1.2207,-1.7715 1.8277,-0.6092 1.369,-11.1259 -0.6836,-15.6777 -2.5633,-5.6844 -6.9515,-8.5682 -13.0371,-8.5782 -2.75,0 -6.125,0.3796 -7.5,0.8496 l -2.5,0.8536 2.082,-2.1582 c 1.4365,-1.4893 3.7639,-2.3286 7.5,-2.7032 1.1661,-0.1169 2.1197,-0.187 2.9434,-0.1933 z m 76.4589,1.3066 c -1.9929,0.018 -6.4843,2.3212 -6.4843,3.5664 0,1.5823 3.3126,1.0715 5.8847,-0.9062 1.5317,-1.1778 1.9898,-2.0785 1.2793,-2.5176 -0.1623,-0.1004 -0.395,-0.1452 -0.6797,-0.1426 z m 164.8516,1.3535 c 0.094,0 0.1916,0.013 0.291,0.031 1.0304,0.1905 1.9692,0.4365 2.086,0.5469 0.3457,0.3266 -5.2105,17.4269 -8.6446,26.6074 -3.1472,8.4132 -5.3414,11.9866 -6.3554,10.3457 -0.2881,-0.4654 0.6127,-4.2217 2.0019,-8.3457 1.3892,-4.124 3.9903,-12.45 5.7813,-18.5 2.5921,-8.7563 3.4339,-10.7162 4.8398,-10.6856 z m -176.1211,1.1856 c -1.1639,0 -2.3453,0.8349 -2.6816,1.8945 -0.3307,1.0418 -2.1579,2.9543 -4.0606,4.25 -1.9026,1.2956 -3.4668,2.6319 -3.4668,2.9688 -0.01,0.5347 -4.0398,6.0695 -6.9941,9.5957 -0.5566,0.6643 -1.0117,1.4518 -1.0117,1.75 0,0.2982 0.421,0.541 0.9355,0.541 0.9884,0 12.3031,-12.398 12.9317,-14.1699 0.2024,-0.5705 1.7317,-2.3409 3.3984,-3.9336 2.7513,-2.6293 2.8386,-2.8965 0.9492,-2.8965 z m 188.6172,0 c 3.7583,0 7.1157,0.2837 7.4609,0.6289 0.3451,0.3451 -0.5547,2.7076 -2,5.25 -7.2751,12.7976 -10.5572,18.8259 -11.3418,20.8242 -0.4753,1.2107 -2.0161,4.0232 -3.4218,6.25 -2.5516,4.0421 -5.5293,5.4028 -5.5293,2.5273 0,-1.942 8.2076,-18.3243 12.7109,-25.371 3.7388,-5.8504 3.404,-7.0638 -1.9609,-7.0938 -1.7709,-0.01 -2.75,-0.5496 -2.75,-1.5156 0,-1.187 1.4246,-1.5 6.832,-1.5 z m -256.6895,0.3027 c 0.9483,0.014 1.9033,0.4087 2.5313,1.2676 0.7295,0.9975 1.3262,1.265 1.3262,0.5957 0,-0.8814 0.827,-0.7897 3,0.334 1.65,0.8532 3,1.8932 3,2.3105 0,1.2739 -6.0168,4.3988 -7.4278,3.8575 -0.7478,-0.2871 -1.8046,0.5446 -2.4277,1.9121 -1.0649,2.3374 -3.0986,3.1338 -4.4785,1.7539 -1.0345,-1.0344 -0.7846,-6.1426 0.334,-6.834 0.55,-0.3399 1,-1.4599 1,-2.4903 0,-1.697 1.5621,-2.7302 3.1425,-2.707 z m -5.7363,1.6973 c 1.7779,0 2.0701,1.1097 0.6719,2.5508 -0.5069,0.5225 -1.3503,2.5242 -1.8731,4.4492 -0.7627,2.8083 -1.098,3.1492 -1.6953,1.7246 -0.6189,-1.476 -1.0089,-1.5604 -2.3144,-0.5 -1.3404,1.0887 -1.4694,1.0088 -0.8828,-0.5547 0.378,-1.0075 0.6875,-2.245 0.6875,-2.75 0,-0.505 0.622,-0.9199 1.3828,-0.9199 0.7609,0 1.6185,-0.9 1.9062,-2 0.2877,-1.1 1.2407,-2 2.1172,-2 z m -162.4062,1 c 0.55,0 1,0.45 1,1 0,0.55 -0.45,1 -1,1 -0.55,0 -1,-0.45 -1,-1 0,-0.55 0.45,-1 1,-1 z m 16.5664,0.3867 c 1.0908,-0.073 1.3035,1.4762 -0.078,2.623 -0.8189,0.6797 -1.4882,2.0276 -1.4882,2.9961 0,0.9808 -0.9967,2.0295 -2.25,2.3653 -3.3272,0.8917 -5.9177,0.5918 -9.0196,-1.041 -2.7763,-1.4614 -2.8729,-3.3301 -0.1718,-3.3301 0.7925,0 1.3289,-0.5625 1.1914,-1.25 -0.173,-0.8654 1.2886,-1.2517 4.75,-1.2617 2.75,-0.01 5.5303,-0.3529 6.1797,-0.7676 0.3365,-0.2139 0.6349,-0.3171 0.8867,-0.334 z m 469.5234,0.045 c 3.0613,0.093 6.566,1.25 8.8965,3.211 1.5409,1.2966 3.3001,2.3574 3.9082,2.3574 0.6081,0 1.1055,0.6284 1.1055,1.3945 0,0.7662 0.675,1.6522 1.5,1.9688 0.825,0.3166 1.5,1.399 1.5,2.4062 0,1.0073 0.3717,2.2588 0.8261,2.7813 0.8293,0.9537 2.5946,6.6201 3.627,11.6386 0.3162,1.5373 0.059,2.9951 -0.6035,3.4043 -0.6926,0.4281 -0.8894,0.28 -0.4883,-0.3691 0.369,-0.597 0.2642,-1.3375 -0.2324,-1.6445 -0.4966,-0.3069 -1.2171,-2.2336 -1.6016,-4.2832 -1.6488,-8.7887 -7.8416,-15.6726 -14.4238,-16.0313 -6.2538,-0.3407 -13.3613,3.0164 -16.5313,7.8066 -1.4145,2.1375 -2.5722,4.3464 -2.5722,4.9082 0,0.5618 -0.45,1.0196 -1,1.0196 -0.55,0 -1,0.8638 -1,1.918 0,1.0541 -0.5036,2.0838 -1.1192,2.289 -1.2733,0.4245 -2.1413,7.162 -2.1933,17.0215 -0.026,4.9527 -0.3393,6.4758 -1.1856,5.7734 -0.7437,-0.6172 -1.5654,-0.5381 -2.3262,0.2227 -0.9017,0.9014 -1.1757,0.8969 -1.1757,-0.023 0,-0.66 0.45,-1.2032 1,-1.2032 1.5069,0 1.2006,-2.7599 -0.6114,-5.5254 -0.8855,-1.3514 -1.3354,-3.168 -1.0019,-4.0371 0.3335,-0.8691 0.1148,-2.4979 -0.4863,-3.6211 -0.8838,-1.6514 -0.5681,-3.025 1.6523,-7.1777 1.5102,-2.8245 3.2214,-5.7433 3.8027,-6.4863 0.5814,-0.743 1.1452,-1.9569 1.2539,-2.6973 0.4397,-2.9964 8.8711,-14.4551 10.6368,-14.4551 1.0027,0 2.8761,-0.6866 4.1621,-1.5293 1.1683,-0.7655 2.8448,-1.0931 4.6816,-1.0371 z m -315.4824,0.5684 c -0.2161,0 -0.6522,0.675 -0.9688,1.5 -0.3166,0.825 -0.1401,1.5 0.3926,1.5 0.5328,0 0.9688,-0.675 0.9688,-1.5 0,-0.825 -0.1764,-1.5 -0.3926,-1.5 z m 282.3945,0.9785 0,0 c -0.1924,0 -0.3844,0.068 -0.5293,0.2129 -0.6094,0.6094 -9.1399,24.603 -10.5976,29.8067 -0.5392,1.925 -1.6338,4.85 -2.4317,6.5 -0.7978,1.65 -2.251,5.25 -3.2285,8 l -1.7773,5 -18.9141,1.914 c -14.0994,1.426 -19.0137,1.6169 -19.3027,0.75 -0.2132,-0.6396 -1.363,-1.1269 -2.5547,-1.0839 -1.1917,0.043 -1.6035,0.3065 -0.916,0.5839 2.9721,1.1992 0.7238,2.1457 -6.5,2.7364 -4.2625,0.3485 -10.7875,0.8968 -14.5,1.2187 -9.3956,0.8147 -8.6169,-1.0487 1,-2.3926 l 7.75,-1.0839 -11.5,0.3984 c -6.325,0.2191 -13.525,1.0429 -16,1.8301 -5.0167,1.5958 -3.0254,1.926 4.33,0.7168 4.4985,-0.7395 4.8913,-0.6333 5.7247,1.5586 1.0309,2.7117 3.7373,2.9697 14.7519,1.4023 16.6434,-2.3684 51.1325,-6.0627 56.5508,-6.0527 3.6121,0 3.819,-0.1553 3.2344,-2.4844 -0.3434,-1.3684 -0.2256,-3.2809 0.2617,-4.25 2.3032,-4.5807 5.1465,-11.4231 5.1465,-12.3867 0,-0.5897 0.6567,-2.4895 1.459,-4.2227 2.4301,-5.2505 9.6489,-27.8765 9.0761,-28.4492 -0.1471,-0.1479 -0.3407,-0.2229 -0.5332,-0.2246 z m 96.0567,0.023 c -0.5825,0 -1.0586,0.45 -1.0586,1 0,0.55 0.1989,1 0.4414,1 0.2426,0 0.7187,-0.45 1.0586,-1 0.34,-0.55 0.141,-1 -0.4414,-1 z m -479.2364,0.1797 0,0 c -11.8489,-0.1094 -21.8078,1.7262 -26.6797,5.3145 -4.3639,3.2142 -10.3058,9.5099 -9.9589,10.5508 0.4405,1.3213 2.0256,0.043 5.6328,-4.543 1.0835,-1.3775 5.1767,-3.8692 9.0957,-5.5371 6.5286,-2.7773 8.1064,-3.0386 18.8554,-3.0996 17.7664,-0.1013 30.906,2.0774 53.1602,8.8105 14.157,4.2833 20.6421,7.8198 28.2129,15.3906 3.7729,3.7728 6.8594,7.5664 6.8594,8.4297 0,5.0891 -9.0863,11.2447 -21.6485,14.6719 -6.4942,1.7696 -10.6194,2.1406 -23.8515,2.1406 -18.4927,0 -28.0217,-1.6895 -46,-8.1679 -13.2649,-4.7801 -19.6459,-8.2428 -22.9786,-12.4707 -1.3739,-1.7435 -2.5017,-2.6726 -2.5117,-2.0625 -0.024,2.3989 8.32,10.4016 13.2754,12.7324 2.8677,1.3496 9.9399,3.8934 15.7149,5.6543 5.775,1.7608 11.4474,3.6492 12.6054,4.1953 1.158,0.5462 4.533,1.3463 7.5,1.7773 l 0,-0.01 c 10.3595,1.5048 39.5913,1.1657 46.25,-0.5371 7.4989,-1.9178 15.8746,-6.423 20.8946,-11.2383 4.2055,-4.0338 4.4176,-4.9822 2.1699,-9.7188 -3.2595,-6.8689 -15.5955,-16.6259 -25.3438,-20.0449 -2.5171,-0.8828 -5.3198,-1.9906 -6.2285,-2.4629 -2.0902,-1.0864 -15.5778,-4.1883 -32.3476,-7.4394 -7.7781,-1.5079 -15.5684,-2.2743 -22.6778,-2.3399 z m -57.8222,0.8184 c -0.55,0 -1,0.45 -1,1 0,0.55 0.45,1 1,1 0.55,0 1,-0.45 1,-1 0,-0.55 -0.45,-1 -1,-1 z m 166.75,1.0234 c 2.4416,-0.043 1.1909,1.5127 -3,3.7324 -2.3375,1.2381 -4.8386,2.2481 -5.5586,2.2481 -1.6249,0 -0.5267,-1.9944 1.1172,-2.0254 0.655,-0.012 2.3164,-0.903 3.6914,-1.9785 1.375,-1.0755 3.0625,-1.9646 3.75,-1.9766 z m 199.9004,2.3965 c -0.2666,0.027 -0.7842,1.7412 -1.7813,5.5801 -1.0713,4.125 -2.5568,8.798 -3.3008,10.3828 l -1.3515,2.8809 -0.6954,-3.1661 c -0.7327,-3.3364 -3.2792,-5.5336 -7.6582,-6.6093 -3.5148,-0.8634 -6.024,1.8963 -8.9648,9.8593 -1.2499,3.3845 -2.5808,6.3774 -2.959,6.6524 -0.3782,0.275 -1.0124,1.9926 -1.4082,3.8164 l -0.7187,3.3164 3.8027,-0.3164 c 3.044,-0.2528 3.9152,-0.7861 4.3555,-2.6699 0.3942,-1.6868 1.9109,-2.8712 5.3476,-4.1758 2.6382,-1.0009 5.4549,-2.3675 6.2617,-3.0371 2.3913,-1.9846 2.4528,-0.7099 0.293,6.1094 -2.019,6.3749 -4.873,16.6294 -4.873,17.5058 0,0.2482 0.3896,0.4512 0.8672,0.4512 0.4775,0 1.6463,-2.8125 2.5957,-6.25 0.9494,-3.4375 2.7988,-9.625 4.1113,-13.75 1.3124,-4.125 2.5527,-8.4 2.7558,-9.5 0.203,-1.1 0.6226,-2.675 0.9317,-3.5 1.9272,-5.1423 2.7265,-8.7375 2.6465,-11.8985 -0.028,-1.1059 -0.098,-1.6976 -0.2578,-1.6816 z m -198.3555,1.0059 c 0.7932,0.054 1.291,0.6895 1.5273,1.9082 0.2569,1.3247 -0.462,1.6625 -3.5,1.6445 l -3.8222,-0.022 2.5,-1.9551 c 1.4141,-1.1053 2.5017,-1.6306 3.2949,-1.5761 z m -118.252,0.9726 c -5.6149,0.078 -9.4659,0.8351 -13.5429,2.4121 -6.2217,2.4067 -8.8728,4.3394 -7.3106,5.3301 1.0039,0.6366 0.9282,0.8337 -0.3262,0.8457 -1.0542,0.01 -1.796,1.0975 -2.0839,3.0586 -0.8802,5.9972 4.4254,12.492 14.2207,17.4102 9.0847,4.5614 21.0025,8.207 31,9.4824 4.675,0.5964 9.625,1.2432 11,1.4375 11.2745,1.5935 36.1127,-0.052 45.998,-3.0488 5.4938,-1.6653 11.002,-5.9467 11.002,-8.5508 0,-2.7431 -8.3767,-9.7502 -16.3516,-13.6778 -15.2704,-7.5206 -34.5439,-11.9751 -61.1641,-14.1367 -5.0678,-0.4115 -9.0724,-0.6092 -12.4414,-0.5625 z m 94.2989,1.0625 0,0 c 0.7098,0.045 1.616,0.2467 2.7656,0.5801 1.8658,0.5413 7.656,1.4639 12.8672,2.0507 5.2112,0.5869 9.784,1.2585 10.1621,1.4922 0.3778,0.2336 0.3569,1.66 -0.047,3.1699 -0.4038,1.5098 -1.3767,2.8059 -2.1621,2.8789 -2.8161,0.2635 -15.528,-1.6875 -20.6777,-3.1738 -4.4643,-1.2885 -5.25,-1.8778 -5.25,-3.9297 0,-1.986 0.3985,-2.925 1.6953,-3.0605 0.1945,-0.02 0.4099,-0.023 0.6465,-0.01 z m 93.8691,0.3262 c 1.8444,0.05 3.3343,0.3597 3.9355,0.9609 0.5663,0.5659 -1.4126,2.3677 -5.1015,4.6446 -5.5719,3.4392 -15.0449,13.4128 -15.0449,15.8398 0,0.5765 -0.6511,1.5475 -1.4453,2.1582 -1.7023,1.3087 -6.4007,13.1834 -7.7598,19.6094 -1.1564,5.4678 -1.5935,24.9938 -0.5449,24.3457 0.4125,-0.2545 0.75,0.39 0.75,1.4316 0,3.308 4.1093,14.5599 6.3457,17.375 1.1847,1.4912 3.2647,4.2523 4.623,6.1367 1.3583,1.8843 3.8274,4.3898 5.4863,5.5684 3.3801,2.4013 2.5857,2.4937 -5.7636,0.668 -8.5489,-1.8694 -18.0599,-9.1288 -21.2344,-16.2071 -0.7848,-1.7499 -1.8492,-3.4408 -2.3652,-3.7597 -0.516,-0.3189 -1.2553,-2.024 -1.6426,-3.7871 -0.3872,-1.7632 -1.0592,-3.8954 -1.4922,-4.7383 -1.7232,-3.3551 -2.593,-18.4613 -1.3848,-24.0332 1.3068,-6.0269 4.0437,-12 5.5,-12 0.5097,0 0.9278,-0.8719 0.9278,-1.9395 0,-1.0675 0.4034,-2.1914 0.8964,-2.4961 0.4932,-0.3047 1.8736,-2.4285 3.0684,-4.7207 3.7759,-7.2442 16.5587,-20.44 22.5586,-23.2871 2.557,-1.2134 6.6135,-1.8524 9.6875,-1.7695 z m -186.2832,0.1797 c 1.9474,-0.022 3.3389,0.092 2.9883,0.3984 -0.2292,0.2005 -3.3118,0.6155 -6.8496,0.9219 -4.0181,0.3479 -5.8947,0.2166 -5,-0.3496 0.8268,-0.5231 5.6156,-0.9347 8.8613,-0.9707 z m 153.3418,2.1582 c -0.4154,-0.053 -0.9216,0.2873 -1.2734,0.916 -1.5909,2.8428 -11.1703,14.4556 -12.5879,15.2598 -0.7752,0.4398 -1.4082,1.257 -1.4082,1.8164 0,0.5594 -1.125,2.4922 -2.5,4.2949 -1.375,1.8027 -2.5,3.9745 -2.5,4.8262 0,0.8517 -0.6465,1.7968 -1.4356,2.0996 -0.789,0.3028 -1.9563,1.5279 -2.5957,2.7226 -0.936,1.7495 -0.9011,2.0768 0.1836,1.6817 0.7409,-0.2699 1.2236,-1.0312 1.0723,-1.6914 -0.179,-0.7812 0.432,-0.9769 1.75,-0.5586 1.4986,0.4757 2.0254,0.1949 2.0254,-1.0801 0,-1.8873 3.7578,-7.1891 8.4804,-11.9649 1.6607,-1.6794 3.6935,-4.3794 4.5176,-6 0.8241,-1.6207 2.0117,-3.2781 2.6387,-3.6835 0.627,-0.4055 1.4501,-1.9763 1.8301,-3.4903 0.38,-1.514 1.2059,-3.0709 1.8339,-3.459 0.6279,-0.3881 0.7836,-1.0622 0.3457,-1.5 -0.1093,-0.1094 -0.2384,-0.1716 -0.3769,-0.1894 z m -127.2695,0.01 c 0.4531,0 0.9062,0.068 1.25,0.2071 0.6875,0.2774 0.125,0.5058 -1.25,0.5058 -1.375,0 -1.9375,-0.2284 -1.25,-0.5058 0.3437,-0.1387 0.7968,-0.2071 1.25,-0.2071 z m -24.793,0.7247 c 0.6622,0.2245 0.095,3.2221 -1.6738,8.6406 -1.3934,4.2685 -2.5332,9.4769 -2.5332,11.5742 0,2.0974 -0.5204,4.1343 -1.1563,4.5273 -2.947,1.8214 1.0115,-20.3568 4.2891,-24.0293 0.4948,-0.5544 0.8535,-0.7876 1.0742,-0.7128 z m -4.3906,0.09 c 1.1015,-0.052 0.7964,1.7788 -0.8887,5.6641 -1.1669,2.6903 -2.3662,7.4918 -2.666,10.6699 -0.5278,5.5954 -1.2944,7.356 -2.6231,6.0273 -1.9929,-1.9929 1.8157,-19.9297 4.6055,-21.6894 0.6803,-0.4291 1.2051,-0.6547 1.5723,-0.6719 z m 9.4316,0.055 c 1.4957,0 1.7834,0.4189 1.2051,1.75 -2.7278,6.2781 -4.8142,13.5695 -5.3418,18.6699 -0.3867,3.7392 -1.1256,6.0914 -2.0059,6.3828 -2.0784,0.6879 -0.9003,-11.6136 1.92,-20.0527 1.7645,-5.2799 2.6846,-6.75 4.2226,-6.75 z m 4.4902,0 c 1.7141,0 1.634,0.6864 -1.2382,10.5976 -1.375,4.7448 -2.5,10.8272 -2.5,13.5157 0,4.7305 -1.4353,6.5232 -2.6621,3.3261 -1.5844,-4.1287 3.853,-27.4394 6.4003,-27.4394 z m 22.1407,0.1289 c 0.5437,0.01 1.052,0.08 1.3906,0.2168 0.677,0.2745 -0.1195,0.4809 -1.7695,0.4609 -1.65,-0.02 -2.2035,-0.2444 -1.2305,-0.498 0.4864,-0.1268 1.0656,-0.1864 1.6094,-0.1797 z m 169.9023,0.016 6.7188,0.1426 -6.5,0.6777 c -3.575,0.3734 -8.3,1.5114 -10.5,2.5274 -2.2,1.016 -4.4068,2.0665 -4.9043,2.334 -0.4974,0.2675 -0.6131,0.014 -0.2559,-0.5645 1.8062,-2.9225 8.8482,-5.2565 15.4414,-5.1172 z m -187.3047,0.336 c 0.073,-0.012 0.1446,-0.01 0.2168,0.01 0.1652,0.035 0.3281,0.1386 0.4942,0.3047 0.8193,0.8193 0.56,2.6515 -0.9825,6.9141 -1.1541,3.1891 -2.4116,8.2718 -2.7949,11.2968 -0.3834,3.025 -0.8245,6.175 -0.9785,7 -0.1539,0.825 -0.3135,2.0625 -0.3555,2.75 -0.042,0.6875 -0.5261,1.25 -1.0761,1.25 -1.623,0 -1.1123,-9.9496 0.8984,-17.5 2.2718,-8.5311 3.4831,-11.841 4.5781,-12.0214 l 0,0 z m 3.8067,0.5097 c 0.2972,-10e-5 0.6511,0.1574 1.1367,0.3438 1.3055,0.501 1.2418,1.1767 -0.4727,5.0527 -1.0884,2.4606 -2.5192,9.0057 -3.1816,14.5449 -1.1483,9.6026 -2.102,11.9632 -3.4316,8.4981 -0.9539,-2.4858 0.4509,-12.8998 2.7988,-20.7442 1.8796,-6.2795 2.2588,-7.6949 3.1504,-7.6953 z m -28.7832,0.012 c 1.835,0 1.835,0.1635 0,7 -0.8119,3.025 -1.4783,6.9363 -1.4883,8.6914 -0.017,4.5948 -1.7242,4.9884 -2.4512,0.5645 -0.3606,-2.1941 0.017,-6.1656 0.9102,-9.5547 0.8406,-3.1893 1.5293,-6.0018 1.5293,-6.25 0,-0.2482 0.675,-0.4512 1.5,-0.4512 z m 45.9336,0.092 c 1.588,-0.056 7.0972,1.1106 8.5664,1.9707 0.825,0.4831 1.05,0.8457 0.5,0.8067 -2.1855,-0.153 -8.9154,-1.9531 -9.4414,-2.5254 -0.1489,-0.162 0.01,-0.239 0.375,-0.252 z m -12.9512,0.7774 3.5078,0.6543 c 1.9298,0.3603 3.6393,0.7811 3.7969,0.9355 0.1577,0.1544 -0.8102,3.6031 -2.1485,7.6621 -1.3384,4.0591 -2.7397,10.4164 -3.1152,14.1289 -0.3756,3.7125 -1.0973,6.75 -1.6035,6.75 -1.9441,0 -0.9135,-13.398 1.5723,-20.4433 2.7927,-7.915 2.5883,-9.921 -0.3477,-3.416 -2.3676,5.2458 -4.1274,12.8191 -4.3262,18.6093 -0.096,2.8065 -0.6001,4.25 -1.4824,4.25 -2.1963,0 -1.0108,-11.7572 2.3145,-22.9589 l 1.832,-6.1719 z m -37.166,0.2207 c 0.6607,-0.086 0.7354,0.5135 0.2968,2.0273 -0.3799,1.3112 -0.9274,3.9578 -1.2168,5.8828 -0.2889,1.925 -0.7305,4.5125 -0.9804,5.75 -0.2498,1.2375 -0.8961,2.25 -1.4356,2.25 -2.457,0 0.3922,-14.9574 3.0157,-15.832 0.1185,-0.039 0.2259,-0.066 0.3203,-0.078 z m 294.7968,0.2519 c -2.7475,0.1202 -4.9432,1.8412 -5.6386,4.6133 -0.3511,1.3997 -2.1765,5.6693 -4.0567,9.4863 -1.8802,3.817 -3.4179,7.8135 -3.4179,8.8809 0,1.638 0.5161,1.8572 3.3066,1.4043 6.6826,-1.0844 10.5173,-3.4505 13.6289,-8.4062 4.7269,-7.5282 3.9088,-14.5354 -1.8437,-15.7989 -0.6813,-0.1496 -1.3445,-0.2074 -1.9786,-0.1797 z m -299.3085,0.6582 c 0.9445,0 1.1759,0.5773 0.7031,1.75 -0.388,0.9625 -0.9472,3.4495 -1.2422,5.5254 -0.5477,3.8538 -1.7904,5.6542 -2.4785,3.5899 -0.7745,-2.3235 1.5979,-10.8653 3.0176,-10.8653 z m 441.1718,0.082 c 1.8149,0.063 3.3064,0.7957 5.377,2.375 3.6181,2.7597 7.1565,11.0965 6.3965,15.0722 -0.4363,2.2826 -0.1787,2.4707 3.3886,2.4707 3.4521,0 3.8614,-0.265 3.8614,-2.5 0,-1.375 0.45,-2.5 1,-2.5 0.55,0 1,0.9 1,2 0,1.1 0.675,2.056 1.5,2.125 0.825,0.069 1.95,0.2375 2.5,0.375 0.55,0.1375 1.9743,0.306 3.166,0.375 4.5378,0.2618 0.8037,1.1721 -7.7383,1.8848 l -8.8887,0.7402 -0.2207,2.8907 c -0.2869,3.7639 -4.6501,12.6328 -7.5586,15.3652 -3.0557,2.8707 -9.4467,3.716 -13.0097,1.7207 -1.5125,-0.847 -2.75,-2.1663 -2.75,-2.9316 0,-1.1598 0.5081,-1.1367 3.0527,0.1328 2.4943,1.2443 3.5834,1.3012 5.9609,0.3164 4.346,-1.8002 9.2784,-6.9591 9.5137,-9.9512 0.114,-1.4483 0.5215,-3.6253 0.9063,-4.8379 0.403,-1.2697 0.277,-2.2031 -0.2989,-2.2031 -0.55,0 -1.2855,0.9 -1.6347,2 -0.7002,2.2064 -2.1331,2.4692 -5.8125,1.0703 -2.1742,-0.8266 -2.389,-1.3843 -1.961,-5.0898 0.4592,-3.9758 0.3864,-4.1125 -1.623,-3.0371 -2.3136,1.2382 -2.9287,3.3096 -0.7324,2.4668 1.0124,-0.3886 1.2432,0.151 0.8789,2.0566 -0.4582,2.397 -0.5902,2.4538 -1.8399,0.8066 -1.6009,-2.11 -1.8432,-0.9523 -0.375,1.791 0.5694,1.0639 1.7306,1.9356 2.5821,1.9356 2.0478,0 1.2002,2.4057 -0.9981,2.832 -4.7369,0.9185 -6.493,-8.1806 -2.5469,-13.1972 2.6197,-3.3306 4.7037,-3.3551 5.9532,-0.068 0.76,1.9989 1.4342,2.422 3.0468,1.9102 1.3224,-0.4197 2.7667,-0.026 3.9981,1.0878 1.8753,1.6972 1.9297,1.6283 1.9297,-2.4609 0,-6.9604 -4.6502,-14.0891 -9.209,-14.1191 -1.2605,-0.01 -2.893,-0.3961 -3.627,-0.8614 -0.9967,-0.6318 -0.7436,-1.0057 1,-1.4726 1.5165,-0.4061 2.7236,-0.6081 3.8125,-0.5703 z m -218.0644,0.3398 c 7.5613,-0.029 22.0879,7.6557 22.0879,12.0938 0,0.6827 0.675,1.7996 1.5,2.4843 0.825,0.6847 1.5,2.1335 1.5,3.2188 0,1.0852 0.8456,3.167 1.8789,4.6269 2.0241,2.8607 4.5569,18.1018 3.2304,19.4395 -0.6321,0.6375 -3.1325,-10.0467 -3.2265,-13.7852 -0.014,-0.55 -0.6153,-1.675 -1.336,-2.5 -0.7208,-0.825 -1.5898,-2.4206 -1.9316,-3.5468 -0.9771,-3.2194 -7.8249,-10.0085 -12.502,-12.3946 -8.9681,-4.5752 -21.4453,-2.0753 -28.8867,5.7891 -3.7611,3.9748 -9.2057,11.5212 -9.2597,12.834 -0.063,1.5308 -3.5977,8.3555 -4.0782,7.875 -0.2633,-0.2628 -0.3025,1.0265 -0.088,2.8652 0.2247,1.925 -0.12,3.658 -0.8125,4.086 -0.8582,0.5305 -1.0086,0.1357 -0.5273,-1.3809 0.5682,-1.7902 0.2702,-2.127 -1.8926,-2.127 -2.9085,0 -2.9994,-0.4039 -1.4531,-6.5449 0.6566,-2.6072 1.5429,-4.1649 2.1543,-3.7871 0.6209,0.3837 0.7378,0.1536 0.2891,-0.5723 -1.6945,-2.741 3.9005,-11.847 11.6445,-18.9492 6.7142,-6.1579 10.5144,-7.9571 20.2969,-9.6113 0.4358,-0.074 0.908,-0.1114 1.4121,-0.1133 z m -170.1739,0.5781 c 1.7133,0 1.631,0.4929 -2.164,12.9493 -1.4157,4.6468 -2.5742,10.1593 -2.5742,12.25 0,2.0908 -0.45,3.8007 -1,3.8007 -1.5164,0 -1.1981,-10.8075 0.5175,-17.539 2.1698,-8.5139 3.5133,-11.461 5.2207,-11.461 z m 56.6778,0 c 0.8708,0 1.584,0.7308 1.584,1.6231 0,1.2439 0.3129,1.3637 1.3418,0.5098 2.0566,-1.7069 2.8819,-0.036 1.0058,2.0371 -2.0714,2.2888 -2.9469,2.3068 -3.7324,0.08 -0.3395,-0.9625 -0.8788,-2.3125 -1.1992,-3 -0.3352,-0.719 0.089,-1.25 1,-1.25 z m -49.6934,1 -2.3066,6.8496 c -1.2684,3.7667 -2.6682,10.1418 -3.1113,14.168 -0.5327,4.8411 -1.281,7.4785 -2.211,7.7871 -1.1591,0.3846 -1.2979,-0.8228 -0.791,-6.8691 0.3383,-4.035 1.4209,-10.6208 2.4063,-14.6348 1.5198,-6.1939 2.11,-7.2979 3.9023,-7.2988 l 2.1113,0 z m 4.0957,0.9864 c 1.5584,-0.028 1.2929,0.2232 -0.9433,6.0136 -1.1682,3.025 -2.406,9.064 -2.75,13.42 -0.6057,7.6697 -2.3008,10.8907 -3.7481,7.1191 -0.9329,-2.4309 0.4771,-12.8547 2.7227,-20.125 1.5531,-5.0283 2.4027,-6.4141 3.9394,-6.4141 0.2967,0 0.5567,-0.01 0.7793,-0.014 z m -68.8183,0.014 c 0.55,0 1,0.4238 1,0.9414 0,0.5175 -0.45,1.2187 -1,1.5586 -0.55,0.3399 -1,-0.082 -1,-0.9394 0,-0.8574 0.45,-1.5606 1,-1.5606 z m 121.8554,0.2325 c 0.2015,0 0.4431,0.053 0.7266,0.1621 0.87,0.3339 2.22,0.6054 3,0.6054 0.78,0 1.418,0.625 1.418,1.3868 0,0.7617 1.0174,2.0515 2.2617,2.8671 1.8312,1.1999 2.4892,1.2392 3.4551,0.2051 0.9317,-0.9973 0.8552,-1.408 -0.3516,-1.8711 -0.8502,-0.3267 -1.9243,-0.3602 -2.3867,-0.074 -0.4624,0.2857 -1.1233,0.063 -1.4688,-0.4961 -0.3967,-0.6418 1.4209,-1.0176 4.9317,-1.0176 4.3148,0 5.5586,0.3419 5.5586,1.5254 0,0.8386 -1.0894,1.9396 -2.42,2.4453 -1.3306,0.5066 -2.7931,1.565 -3.25,2.3536 -1.2434,2.1459 -6.435,2.8999 -9.3574,1.3593 -1.3894,-0.7324 -3.009,-1.1714 -3.5996,-0.9746 -1.4532,0.4844 -3.7057,-2.361 -2.9004,-3.664 0.3548,-0.5741 1.2934,-1.045 2.086,-1.045 0.7987,0 1.4414,-0.9375 1.4414,-2.1054 0,-1.1325 0.2511,-1.6553 0.8554,-1.6621 z m -49.3711,0.7675 c 2.177,0 2.4185,1.2019 0.9747,4.8633 -1.52,3.8539 -4.5503,18.6086 -4.1797,20.3535 0.2899,1.3657 -1.9332,2.1541 -2.6778,0.9493 -1.7466,-2.8261 3.5007,-26.1661 5.8828,-26.1661 z m 102.6211,0.9629 c -0.7087,0.1439 -2.0697,2.269 -2.0898,3.4785 -0.01,0.5177 0.6223,0.069 1.4023,-0.998 0.78,-1.0668 1.2052,-2.1521 0.9453,-2.4121 -0.069,-0.069 -0.1565,-0.089 -0.2578,-0.068 z m -96.5175,0.2481 c 0.922,0.043 1.0473,2.2441 -0.502,6.3262 -1.5227,4.0123 -3.2466,12.7316 -3.5352,17.8808 -0.068,1.2186 -2.2483,1.9037 -2.8144,0.8848 -0.7997,-1.4392 1.4226,-15.7003 3.0859,-19.8028 1.363,-3.3619 2.7206,-5.0648 3.5703,-5.2695 0.068,-0.016 0.1339,-0.023 0.1954,-0.019 z m -86.7032,0.2636 c -0.2898,0.025 -0.3522,0.8681 -0.125,2.0567 0.2596,1.3583 0.8293,2.4687 1.2637,2.4687 0.9271,0 0.075,-3.8198 -1,-4.4843 -0.05,-0.031 -0.097,-0.045 -0.1387,-0.041 z m 212.4571,0.5254 c 0.3177,0 -1.6681,3.0375 -4.4121,6.75 -9.8304,13.2999 -10.9091,14.2695 -6.3575,5.709 2.3191,-4.3616 9.3185,-12.459 10.7696,-12.459 z m -121.8496,1 c 2.1391,0 2.4451,1.2205 1.0058,4.0039 -0.7821,1.5124 -2.1853,6.6303 -3.1172,11.3731 -1.5514,7.8962 -2.4937,9.891 -3.7187,7.873 -1.3869,-2.2845 3.8705,-23.25 5.8301,-23.25 z m 240.8515,0.2305 c 0.6169,0.055 0.8386,0.6656 0.1973,1.7031 -0.3626,0.5866 -1.4041,1.0664 -2.3145,1.0664 -1.5266,0 -1.5235,-0.1304 0.035,-1.6894 0.6531,-0.6531 1.301,-0.9956 1.7949,-1.0684 0.1029,-0.015 0.199,-0.019 0.2871,-0.012 z m 117.6856,0.086 c 1.9901,-0.084 3.9289,0.9734 5.4218,3.252 2.1571,3.2921 1.1029,4.8418 -1.9375,2.8496 -3.1172,-2.0424 -5.6766,-0.7041 -7.9941,4.1797 -2.9065,6.1252 -0.209,14.4023 4.6934,14.4023 1.0473,0 1.6271,0.45 1.2871,1 -1.0779,1.7441 -6.1144,1.0851 -8.0508,-1.0546 -2.9495,-3.2592 -3.229,-13.4942 -0.5137,-18.8165 1.8923,-3.7093 4.535,-5.7045 7.0938,-5.8125 z m -137.5684,0.9649 c 0.6951,-0.1324 0.6935,1.1523 -0.068,3.1387 -0.3338,0.87 -0.9666,1.58 -1.4062,1.58 -1.0048,0 -0.052,-3.8409 1.1348,-4.5742 0.1275,-0.079 0.2405,-0.1256 0.3398,-0.1445 z m -215.7324,0.7187 c 1.0397,0 1.2562,0.5253 0.7207,1.75 -1.3319,3.0465 -4.3326,14.6579 -4.3926,17 -0.032,1.2375 -0.655,2.25 -1.3848,2.25 -1.4606,0 -1.3185,-3.3146 0.4707,-11 1.6536,-7.1029 2.9831,-10 4.586,-10 z m -120.5528,1.5137 c 0.4631,-0.1043 1.0877,0.2697 2.2559,1.0352 2.4273,1.5905 2.5092,3.3343 0.291,6.2011 -1.3935,1.8009 -2.4942,1.5481 -3.791,-0.875 -0.8324,-1.5546 -0.8431,-2.7728 -0.043,-4.5293 0.5223,-1.1458 0.8241,-1.7277 1.2871,-1.832 z m 125.8575,0.5371 c 1.0202,0.1538 1.0406,1.4644 -0.029,3.6953 -0.7268,1.5148 -1.8301,5.4224 -2.4512,8.6836 -1.4351,7.5363 -4.1692,9.2492 -3.1113,1.9492 1.2018,-8.293 2.7775,-13.5238 4.2422,-14.0859 0.559,-0.2145 1.0095,-0.2934 1.3496,-0.2422 z m 4.082,1.8067 c 0.8481,0.031 0.7512,2.8816 -0.3086,8.2773 -1.3204,6.7222 -2.8273,9.2586 -4.1894,7.0547 -0.5853,-0.9471 2.6569,-13.7976 3.7597,-14.9004 0.2964,-0.2963 0.5426,-0.4388 0.7383,-0.4316 z m 331.8848,0.1425 c 0.55,0 1,0.4238 1,0.9414 0,0.5175 -0.45,1.2187 -1,1.5586 -0.55,0.3399 -1,-0.082 -1,-0.9394 0,-0.8574 0.45,-1.5606 1,-1.5606 z m 81.873,2.0157 -2.084,0.2578 -3.2871,0.4062 3.2168,0.1602 2.1543,0.1074 0,-0.9316 z m -409.8398,0.1855 c 1.3005,0 1.2574,3.631 -0.17,7.9004 -2.4668,7.3789 -4.3103,5.8796 -2.5449,-2.0703 0.6555,-2.9516 1.751,-5.5531 2.4356,-5.7813 0.099,-0.033 0.1926,-0.049 0.2793,-0.049 z m 125.0664,2.916 c 9.5557,-0.023 19.2805,9.2167 20.6621,21.4746 0.4401,3.9046 0.2697,4.4102 -1.4961,4.4102 -1.6056,0 -2.1144,-0.8781 -2.6113,-4.5039 -0.7767,-5.6661 -3.5591,-11.1302 -7.6348,-14.9961 -2.984,-2.8304 -3.6134,-2.9972 -11.1445,-2.9512 l -7.9825,0.049 3.7227,-1.9101 c 2.0824,-1.0683 4.2792,-1.5671 6.4844,-1.5723 z m -119.9649,0.8828 c 0.4964,0 0.6104,1.2375 0.2539,2.75 -0.75,3.182 -2.396,5.4013 -2.375,3.2012 0.025,-2.6398 1.2045,-5.9512 2.1211,-5.9512 z m -130.9433,0.1309 c -0.2864,-0.084 -0.1715,0.7603 0.4316,2.332 0.3429,0.8937 0.8344,1.4138 1.0918,1.1563 0.2575,-0.2574 -0.01,-1.2892 -0.5937,-2.293 -0.4421,-0.7602 -0.7579,-1.145 -0.9297,-1.1953 z m 471.2617,1.1934 c -0.1553,0.033 -0.3487,0.1728 -0.5859,0.4101 -0.6234,0.623 -0.8621,1.8372 -0.5313,2.6992 0.9154,2.3856 1.6641,1.8759 1.6641,-1.1328 0,-1.2568 -0.1137,-1.8847 -0.4043,-1.9726 -0.044,-0.013 -0.091,-0.015 -0.1426,0 l 0,0 z m -30.4356,0.5976 c 0.1729,0.024 0.3655,0.1292 0.5704,0.334 0.3237,0.3236 0.3928,1.4125 0.1543,2.418 -0.4143,1.7468 -0.4674,1.7467 -1.211,0.033 -0.6372,-1.4682 -0.2626,-2.8894 0.4863,-2.7852 z m -442.6543,0.4258 c -0.1515,-0.023 -0.2551,0.3422 -0.2851,1.0703 -0.043,1.0541 0.1931,1.6448 0.5254,1.3125 0.3323,-0.3323 0.369,-1.1961 0.08,-1.918 -0.1198,-0.2991 -0.2294,-0.451 -0.3204,-0.4648 z m 8.0372,0.4395 c -0.1446,0.012 -0.047,0.8882 0.2793,2.7128 0.3939,2.2 0.7385,5.4625 0.7675,7.25 0.029,1.7875 0.5536,3.25 1.166,3.25 1.2168,0 0.078,-8.3058 -1.6894,-12.3183 -0.2628,-0.5968 -0.4367,-0.9019 -0.5234,-0.8945 z m 484.2207,1.5332 c 0.8838,0.023 1.2433,1.4789 0.7129,3.5078 -0.3127,1.1954 -0.9653,2.1718 -1.4512,2.1718 -1.1778,0 -1.1379,-4.7248 0.047,-5.457 0.2552,-0.1577 0.4874,-0.228 0.6914,-0.2226 z m -480.0137,0.8808 c -0.077,-0.011 -0.1617,0.025 -0.25,0.1133 -1.2499,1.2499 1.822,12.5756 3.5176,12.9687 2.7702,0.6413 3.2338,-0.7732 1.5625,-4.7734 -1.2625,-3.0215 -1.8217,-3.5418 -2.6035,-2.4258 -0.716,1.0219 -0.8218,0.6253 -0.375,-1.4121 0.4038,-1.8433 0.2566,-2.6095 -0.42,-2.1914 -0.572,0.3536 -1.039,-0.1349 -1.039,-1.084 0,-0.7119 -0.1624,-1.1626 -0.3926,-1.1953 z m 441.7558,1.1465 c 0.091,0.014 0.2006,0.1657 0.3204,0.4648 0.2888,0.7219 0.2521,1.5857 -0.08,1.918 -0.3323,0.3323 -0.5684,-0.2584 -0.5254,-1.3125 0.03,-0.7281 0.1336,-1.0933 0.2851,-1.0703 z m -452.7421,0.043 c -0.3645,0.012 -0.6211,0.4075 -0.6211,1.0507 0,1.7565 0.5998,2.016 1.457,0.629 0.3165,-0.512 0.1175,-1.2132 -0.4414,-1.5586 -0.1398,-0.086 -0.273,-0.1252 -0.3945,-0.1211 z m 486.9375,1.6093 c 0.2425,0 0.4414,0.45 0.4414,1 0,0.55 -0.4761,1 -1.0586,1 -0.5824,0 -0.7813,-0.45 -0.4414,-1 0.34,-0.55 0.816,-1 1.0586,-1 z m -270.8028,0.1836 c 0.2217,0.067 0.1785,0.6562 -0.1133,1.8164 -0.3456,1.375 -1.1716,5.0875 -1.8359,8.25 -0.6642,3.1625 -1.5679,5.75 -2.0078,5.75 -0.44,0 -0.7988,-0.5796 -0.7988,-1.289 0,-2.6007 3.1351,-13.2406 4.1875,-14.211 0.1917,-0.1768 0.3436,-0.2818 0.457,-0.3125 0.043,-0.011 0.08,-0.014 0.1113,0 l 0,0 z m -210.289,0.2793 c -0.1809,-0.067 -0.3086,0.5059 -0.3086,1.5371 0,1.375 0.2265,1.9375 0.5039,1.25 0.2774,-0.6875 0.2774,-1.8125 0,-2.5 -0.069,-0.1718 -0.135,-0.2646 -0.1953,-0.2871 z m 14.332,1.5371 c -0.127,0 -0.368,0.3334 -0.7988,1 -0.5331,0.825 -0.9441,2.4 -0.9141,3.5 0.055,2 0.055,2 0.9141,0 0.4727,-1.1 0.884,-2.675 0.914,-3.5 0.024,-0.6666 0.012,-1 -0.1152,-1 z m 454.1426,0 c 0.5825,0 1.0586,0.45 1.0586,1 0,0.55 -0.1989,1 -0.4414,1 -0.2426,0 -0.7186,-0.45 -1.0586,-1 -0.3399,-0.55 -0.141,-1 0.4414,-1 z m -450.5157,0.3653 c -0.1903,0 -0.06,0.9672 0.2579,3.1347 0.3228,2.2 1.1318,4.675 1.7988,5.5 0.667,0.825 1.5051,2.3194 1.8613,3.3204 0.9611,2.7015 5.0656,1.815 5.4903,-1.1856 0.1837,-1.301 -0.2095,-2.876 -0.875,-3.5 -0.9334,-0.8753 -1.0996,-0.5119 -0.7286,1.5859 0.4989,2.8225 -0.014,2.8025 -3.4375,-0.1289 -0.9864,-0.8445 -1.8081,-2.2223 -1.8281,-3.0625 -0.019,-0.8403 -0.6742,-2.6543 -1.4531,-4.0293 -0.5969,-1.0537 -0.9379,-1.6359 -1.086,-1.6347 z m 461.0372,0.4219 c 0.138,0 0.2693,0.044 0.3964,0.123 1.1359,0.7058 1.143,1.4802 0.043,4.7168 -0.7239,2.1304 -1.8982,4.5848 -2.6094,5.4531 -0.7112,0.8683 -1.2929,1.9426 -1.2929,2.3887 0,1.2514 -3.2997,3.465 -5.2188,3.5 -1.1912,0.022 -1.5213,0.5451 -1.0762,1.7051 0.483,1.2585 0.2344,1.5186 -1,1.0449 -0.9029,-0.3465 -1.9073,-0.1998 -2.2324,0.3262 -0.7358,1.1905 -3.4726,1.2637 -3.4726,0.094 0,-0.4734 -1.0125,-0.6679 -2.25,-0.4336 -1.3719,0.2598 -3.1281,-0.395 -4.5,-1.6777 -3.2503,-3.0388 -2.7637,-4.1319 1,-2.2442 3.7171,1.8632 8.229,1.7136 11.5,-0.3847 1.2375,-0.7938 2.25,-1.0986 2.25,-0.6758 0,0.4229 1.6875,-2.7008 3.75,-6.9434 2.4558,-5.0518 3.7468,-7.0061 4.7129,-6.9921 z m -42.8516,1.5976 c 0.1195,-0.01 0.2512,0.03 0.3887,0.1152 0.55,0.3399 1,1.0431 1,1.5606 0,0.5176 -0.45,0.9394 -1,0.9394 -0.55,0 -1,-0.7012 -1,-1.5586 0,-0.6435 0.2527,-1.0408 0.6113,-1.0566 z m -4.9668,0.1602 c 0.8487,-0.1791 1.5711,2.5339 1.5937,7.1113 0.016,3.215 0.236,5.013 0.4883,3.9961 0.4025,-1.6223 0.6191,-1.5396 1.7715,0.6816 0.7223,1.3924 1.6384,4.0099 2.0352,5.8164 0.8544,3.8904 2.485,7.0424 4.2168,8.1504 0.6875,0.4398 1.25,1.1991 1.25,1.6875 0,0.4885 -0.7875,0.8137 -1.75,0.7227 -2.928,-0.2776 -6.25,-2.1102 -6.25,-3.4473 0,-0.6946 -0.4276,-1.2637 -0.9493,-1.2637 -1.6713,0 -5.6106,-4.3836 -7.3945,-8.2285 -1.6129,-3.4767 -1.6184,-3.8994 -0.078,-6.25 0.9085,-1.3866 2.0504,-2.5215 2.5371,-2.5215 0.4868,0 0.8107,-0.3375 0.7207,-0.75 -0.09,-0.4125 0.192,-2.0194 0.627,-3.5722 0.3844,-1.3725 0.7958,-2.0514 1.1816,-2.1328 z m -261.6445,0.455 c -0.55,0 -1,0.45 -1,1 0,0.55 0.45,1 1,1 0.55,0 1,-0.45 1,-1 0,-0.55 -0.45,-1 -1,-1 z m -20.7813,0.2969 c 0.9157,-0.038 1.9456,0.4241 2.9668,1.4453 1.8429,1.8429 2.052,2.6799 1.2442,4.9864 -1.8673,5.3311 -7.9312,3.3943 -7.252,-2.3164 0.3086,-2.5951 1.5148,-4.0519 3.041,-4.1153 z m -140.8555,0.055 c 0.091,0.014 0.2006,0.1677 0.3204,0.4668 0.2888,0.7219 0.2521,1.5837 -0.08,1.916 -0.3323,0.3323 -0.5684,-0.2584 -0.5254,-1.3125 0.03,-0.7281 0.1336,-1.0932 0.2851,-1.0703 z m 13.8946,0.8086 c -0.1609,-0.036 -0.216,0.2776 -0.2285,0.9277 -0.017,0.8709 0.27,1.8834 0.6367,2.25 1.22,1.22 1.5319,-0.1561 0.4551,-2.0078 -0.4358,-0.7494 -0.7025,-1.1343 -0.8633,-1.1699 z m -6.5293,0.1 c -0.2241,0.01 -0.4411,0.4388 -0.7695,1.2402 -1.2156,2.9661 -1.1533,3.2421 1.2285,5.461 2.684,2.5005 4.1826,2.6541 2.8203,0.289 -0.5545,-0.9625 -1.5063,-3.1 -2.1172,-4.75 -0.5721,-1.5456 -0.8741,-2.2471 -1.1621,-2.2402 z m 429.2168,0.7402 c 0.4516,0 1.056,0.9 1.3437,2 0.3073,1.175 0.031,2 -0.6699,2 -0.6564,0 -1.2607,-0.9 -1.3437,-2 -0.083,-1.1 0.2182,-2 0.6699,-2 z m -7.9453,1 c 0.55,0 1,0.4238 1,0.9414 0,0.5175 -0.45,1.2187 -1,1.5586 -0.55,0.3399 -1,-0.082 -1,-0.9394 0,-0.8574 0.45,-1.5606 1,-1.5606 z m -213.916,0.2305 c 1.0124,0.038 0.9078,1.2676 -0.1055,4.3379 -1.7444,5.2855 -2.1336,14.5419 -0.6836,16.2891 0.6618,0.7977 1.0014,1.4938 0.7539,1.5468 -0.7859,0.1682 2.1751,9.5977 3.0137,9.5977 0.4415,0 1.0713,0.8478 1.4004,1.8848 1.0328,3.2541 7.919,7.2024 13.998,8.0273 4.7588,0.6458 6.3716,0.4218 10.3379,-1.4414 5.2073,-2.4463 10.5495,-7.9783 12.7187,-13.1699 1.3984,-3.3467 1.4495,-3.3685 3.9493,-1.7305 2.313,1.5152 2.5332,1.518 2.5332,0.043 0,-0.9483 -0.8255,-1.6153 -2,-1.6153 -2.09,0 -2.3778,-0.9933 -1.3711,-4.75 0.4702,-1.7544 1.3267,-2.25 3.8886,-2.25 l 3.2872,0 -1.4219,4.75 c -3.5859,11.9936 -10.3874,20.7911 -19.4707,25.1797 -5.2778,2.5499 -12.9243,2.6035 -18.2285,0.1289 -4.8045,-2.2415 -11.3414,-8.5573 -12.1368,-11.7265 -0.333,-1.3268 -0.9933,-2.1736 -1.4668,-1.8809 -0.8827,0.5455 -2.402,-4.9818 -2.5976,-9.4492 -0.06,-1.375 -0.4395,-4.1875 -0.8418,-6.25 -0.4927,-2.5249 -0.3683,-3.75 0.3808,-3.75 0.6753,0 0.8514,-0.8262 0.4473,-2.0996 -1.037,-3.2672 0.4087,-10.6399 2.2227,-11.336 0.5936,-0.2278 1.0548,-0.3485 1.3926,-0.3359 z m 61.1835,1.0664 c 0.2416,-0.11 0.698,0.2684 1.5606,1.0488 2.1391,1.9366 6.2549,2.171 7.9707,0.4551 0.9334,-0.9333 1.2012,-0.7318 1.2012,0.9043 0,1.8167 -0.6933,2.1499 -5.084,2.4492 -2.7961,0.1908 -5.2711,0.1586 -5.5,-0.07 -0.2289,-0.2291 -0.416,-1.5357 -0.416,-2.9043 0,-1.1736 0.026,-1.7707 0.2675,-1.8808 l 0,0 z m 82.3497,0.7031 c -0.825,0 -1.7772,0.45 -2.1172,1 -0.3399,0.55 0.056,1 0.8808,1 0.825,0 1.7793,-0.45 2.1192,-1 0.34,-0.55 -0.058,-1 -0.8828,-1 z m -123.879,0.051 c 1.3603,-0.019 2.7942,0.5609 4.2579,1.7461 2.1428,1.7351 2.1657,1.9456 0.6933,6.25 -1.1578,3.3847 -1.6883,4.0344 -2.2109,2.709 -0.3783,-0.9593 -1.0917,-1.4938 -1.584,-1.1895 -1.4709,0.909 -1.012,-1.3043 0.6055,-2.9218 2.268,-2.2681 1.7965,-3.2225 -0.545,-1.1035 -2.552,2.3096 -2.1696,5.6466 0.795,6.9472 2.7619,1.2117 2.8934,3.0963 0.3144,4.4766 -4.4989,2.4077 -7.8318,0.013 -8.6894,-6.2442 -0.5116,-3.732 -0.2269,-5.1195 1.5683,-7.6406 1.4184,-1.992 3.0461,-3.005 4.7949,-3.0293 z m 207.4395,0.291 c 0.5591,0.17 2.7364,3.8379 2.7871,4.9082 0.019,0.4125 -0.3618,0.75 -0.8476,0.75 -0.8426,0 -2.1144,-3.3813 -2.0684,-5.5 0,-0.1363 0.049,-0.1824 0.1289,-0.1582 z m -126.6191,0.6582 c -0.7926,0 -1.7186,0.45 -2.0586,1 -0.3399,0.55 0.309,1 1.4414,1 1.1325,0 2.0586,-0.45 2.0586,-1 0,-0.55 -0.6489,-1 -1.4414,-1 z m 6.4414,0.1231 c -0.6344,0 -1.2688,0.064 -1.75,0.1894 -0.9625,0.2515 -0.175,0.4571 1.75,0.4571 1.925,0 2.7125,-0.2056 1.75,-0.4571 -0.4813,-0.1258 -1.1157,-0.1894 -1.75,-0.1894 z m -73.2364,0.209 c 0.1427,0.019 0.2245,0.1168 0.2207,0.2968 -0.048,2.7303 -3.9843,3.8379 -3.9843,1.1211 0,-0.5958 0.2963,-0.7857 0.6582,-0.4238 0.3619,0.3619 1.2619,0.1556 2,-0.457 0.4613,-0.3829 0.8676,-0.5686 1.1054,-0.5371 z m 58.2364,0.7988 c -0.4532,0 -0.9063,0.068 -1.25,0.207 -0.6875,0.2774 -0.125,0.5059 1.25,0.5059 1.375,0 1.9375,-0.2285 1.25,-0.5059 -0.3438,-0.1387 -0.7969,-0.207 -1.25,-0.207 z m 123.7793,0.293 c 0.066,0 0.1399,0.027 0.2168,0.074 0.5523,0.3413 1.0097,1.3825 1.0097,2.3125 0,0.9301 0.6784,2.9793 1.5,4.5547 0.8216,1.5754 1.4942,3.4879 1.4942,4.25 0,0.7621 0.622,1.3867 1.3828,1.3867 0.7609,0 1.6315,0.9443 1.9336,2.0996 0.3025,1.1567 1.0275,1.8046 1.6152,1.4414 0.5871,-0.3628 1.0684,-0.2134 1.0684,0.332 0,0.5454 0.9,1.2779 2,1.627 1.1,0.3491 2,1.3046 2,2.125 0,0.8201 0.4529,1.212 1.0078,0.8691 0.5549,-0.3433 1.9651,-0.3219 3.1328,0.049 1.669,0.5297 1.8266,0.8629 0.7402,1.5507 -1.5934,1.01 -1.3853,1.0216 -5.6074,-0.3339 -1.7745,-0.5697 -3.489,-1.8659 -3.8105,-2.8789 -0.3215,-1.013 -0.9354,-1.7377 -1.3633,-1.6114 -1.3913,0.4107 -6.0935,-5.9886 -6.7266,-9.1543 -0.3392,-1.6958 -0.9006,-2.9097 -1.2461,-2.6972 -0.3455,0.2125 -0.741,-1.1729 -0.8808,-3.0782 -0.1362,-1.855 0.068,-2.9322 0.5332,-2.9179 z m -226.8379,2.5761 c 0.5825,0 1.0586,0.45 1.0586,1 0,0.55 -0.1989,1 -0.4414,1 -0.2426,0 -0.7186,-0.45 -1.0586,-1 -0.3399,-0.55 -0.141,-1 0.4414,-1 z m -210.0684,1.125 c 0.3394,-0.033 0.6925,0.1461 0.9317,0.5196 0.3826,0.5974 1.8203,1.458 3.1953,1.9121 2.451,0.8094 3.2324,0.9842 5.75,1.291 0.6875,0.084 1.25,0.8273 1.25,1.6523 0,0.825 0.6436,1.5 1.4316,1.5 0.7879,0 1.7268,0.9271 2.0859,2.0586 0.3592,1.1315 1.766,2.4806 3.127,2.9981 1.361,0.5175 2.1961,1.3904 1.8555,1.9414 -0.8999,1.4561 -1.6692,1.2842 -7.1016,-1.5879 -6.6225,-3.5014 -11.3984,-7.2207 -11.3984,-8.877 0,-0.7519 -0.5625,-1.5668 -1.25,-1.8125 -0.6875,-0.2447 -0.8877,-0.8328 -0.4453,-1.3046 0.1659,-0.177 0.3647,-0.2715 0.5683,-0.2911 z m 247.7617,1.4981 c 0.6783,-0.089 0.8317,0.649 0.5625,2.4824 -0.2338,1.593 -0.8229,2.8945 -1.3105,2.8945 -1.4078,0 -1.0288,-4.7316 0.4238,-5.289 0.1186,-0.045 0.2273,-0.075 0.3242,-0.088 z m -22.2265,0.3144 0,0 c 0.3462,0.044 0.5918,0.5692 0.5918,1.7402 0,1.4146 0.7555,1.844 3.25,1.834 2.769,-0.01 3.3848,0.446 4.1582,3.0664 1.2644,4.2843 5.5008,6.1141 9.5156,4.1113 2.5929,-1.2964 3.0125,-1.2961 3.5098,0 0.7665,1.9974 0.7801,1.9523 -1.0528,3.7852 -1.8163,1.8159 -1.2294,3.1873 0.8028,1.875 0.7241,-0.4675 2.4414,-0.8516 3.8164,-0.8516 2.0688,0 2.553,-0.5377 2.8047,-3.125 0.3609,-3.7102 4.8022,-8.5602 5.6992,-6.2226 0.632,1.647 -2.5893,9.2917 -5.2422,12.4375 -0.9688,1.1489 -3.1263,3.0226 -4.7949,4.164 -3.6976,2.5293 -8.972,3.4472 -12.8731,2.2383 -6.9877,-2.1652 -13.0049,-11.9149 -12.4043,-20.1015 0.2063,-2.8119 1.4571,-5.0493 2.2188,-4.9532 z m -21.7989,0.064 c 0.677,0 1.3272,3.2135 1.67,8.25 0.5714,8.3961 3.5893,18.5974 7.1738,24.25 1.0463,1.65 4.3819,5.3168 7.4121,8.1484 8.4371,7.884 17.0331,9.8137 30.1348,6.7637 l 2.5,-0.582 -2.5,2.0625 c -2.0886,1.7235 -3.908,2.0669 -11.0586,2.0859 -8.049,0.021 -8.9127,-0.1905 -14.5,-3.5391 -10.9375,-6.5552 -16.8498,-15.3253 -20.0098,-29.6855 -1.9569,-8.8927 -2.367,-17.7541 -0.8223,-17.7539 z m 87.8379,1 c -0.7964,0 -1.4472,0.3814 -1.4472,0.8457 0,0.4647 -1.1513,2.1521 -2.5567,3.75 -1.4054,1.5987 -2.9961,3.6918 -3.5351,4.6543 -1.4318,2.557 0.9966,2.2664 4.1718,-0.5 3.257,-2.8378 5.5321,-8.75 3.3672,-8.75 z m -28.8613,4.0273 c 0.7932,-0.074 1.4083,0.7731 1.3926,2.7227 -0.056,7.0202 -7.7693,18.1804 -14.6778,21.2363 -5.8112,2.5709 -9.7263,2.5441 -15.0664,-0.1 -3.9688,-1.9645 -8.8001,-6.655 -7.8418,-7.6133 0.2316,-0.2316 2.3304,0.9638 4.6641,2.6543 8.1819,5.927 17.9474,3.2438 24.7051,-6.7832 1.7222,-2.5554 3.4489,-5.9965 3.8379,-7.6465 0.6504,-2.7587 1.9665,-4.3753 2.9863,-4.4707 z m -31.9922,1.9727 c -0.8304,0 -3.5937,3.1317 -3.5937,4.0723 0,1.5165 0.6723,1.077 2.4082,-1.5723 0.9009,-1.375 1.4339,-2.5 1.1855,-2.5 z m 16.6094,1.0976 c 0.1379,0.028 0.3811,0.2141 0.7422,0.5469 0.6822,0.6291 1.0263,1.9791 0.7637,3 -0.2628,1.0209 -0.5298,1.33 -0.5938,0.6875 -0.064,-0.6425 -0.4078,-1.9925 -0.7637,-3 -0.3138,-0.8883 -0.3783,-1.2809 -0.1484,-1.2344 z m -12.5176,4.3868 c -0.5147,-0.067 -1.7192,0.5694 -3.2207,1.9609 -1.5163,1.4055 -2.2416,2.5547 -1.6113,2.5547 0.6303,0 1.1977,0.7875 1.2617,1.75 0.094,1.4156 0.2093,1.3678 0.6035,-0.25 0.268,-1.1 1.1884,-2.7901 2.0449,-3.7559 1.2617,-1.4227 1.4366,-2.1927 0.9219,-2.2597 z m 234.1524,0.1093 c 0.6108,-0.053 0.1926,0.5432 -1.3379,1.795 -3.3754,2.7607 -6.7289,3.7173 -8.6856,2.4765 -0.9566,-0.6066 -0.7696,-0.8394 0.6856,-0.8554 1.1,-0.012 3.125,-0.6048 4.5,-1.3184 2.5873,-1.3429 4.2271,-2.0451 4.8379,-2.0977 z m -280.4747,0.7539 c -0.1515,-0.023 -0.2551,0.3423 -0.2851,1.0704 -0.043,1.0541 0.1931,1.6448 0.5254,1.3125 0.3323,-0.3323 0.369,-1.1961 0.08,-1.918 -0.1198,-0.2991 -0.2294,-0.451 -0.3204,-0.4649 z m 53.9454,0.2071 c -0.1487,-0.016 -0.3232,-0.015 -0.5235,0.01 -0.2289,0.024 -0.4898,0.073 -0.7851,0.1504 -1.1,0.2876 -2,1.2702 -2,2.1836 0,0.9135 -0.7252,2.6957 -1.6114,3.961 -1.5659,2.2356 -1.5517,2.2637 0.5,0.9824 1.1612,-0.7252 2.1114,-1.8297 2.1114,-2.4551 0,-0.6254 0.675,-1.6981 1.5,-2.3828 1.6189,-1.3435 1.8495,-2.3323 0.8086,-2.4453 l 0,0 z m 3.3164,4.8086 c -0.3893,-0.058 -1.0857,0.6786 -1.6621,1.8027 -1.1452,2.2328 -1.1184,2.2596 0.6093,0.6094 0.994,-0.9494 1.5344,-2.0008 1.1992,-2.336 -0.042,-0.042 -0.091,-0.068 -0.1464,-0.076 z m -46.9922,11.7676 c -0.072,0.01 -0.1499,0.054 -0.2324,0.1367 -0.3299,0.3298 -0.3036,1.0797 0.059,1.666 0.8503,1.3767 2.541,1.3802 2.541,0.01 0,-0.5825 -0.45,-0.7814 -1,-0.4415 -0.55,0.3399 -1,0.067 -1,-0.6074 0,-0.5059 -0.152,-0.7903 -0.3672,-0.7617 l 0,0 z m 101.8672,1.6894 -2.8653,1.5899 c -3.229,1.7923 -6.6347,2.0951 -6.6347,0.5898 0,-0.55 0.6188,-1 1.375,-1 0.7563,0 2.8938,-0.2654 4.75,-0.5898 l 3.375,-0.5899 z m -14.2227,2.2305 c 0.478,0 0.6138,0.3164 0.2227,0.9492 -0.3399,0.55 -1.3785,0.9963 -2.3086,0.9863 -1.4572,-0.013 -1.484,-0.1509 -0.1914,-0.9863 0.9792,-0.6328 1.7993,-0.9492 2.2773,-0.9492 z m -11.0801,2.2519 c 4.7569,-0.044 5.5671,0.1276 3.3028,0.7012 -4.1621,1.0542 -10.7246,1.1698 -10.1114,0.1777 0.2786,-0.4508 3.3423,-0.8469 6.8086,-0.8789 z m -8.9961,5.7325 c 0.1688,-0.01 0.3349,-0.01 0.4961,0.01 0.7742,0.064 1.4424,0.3739 1.8028,0.957 0.34,0.55 0.029,1.0037 -0.6914,1.0137 -0.72,0.01 -2.4336,0.3109 -3.8086,0.6738 -2.2446,0.5923 -2.3612,0.4889 -1.1289,-1.0136 0.8305,-1.0128 2.149,-1.5833 3.33,-1.6387 l 0,0 z m -47.3418,12.1191 c 0.07,10e-4 0.141,0.014 0.2149,0.039 0.5913,0.197 1.0762,0.7841 1.0762,1.3066 0,0.5225 -0.4849,1.1116 -1.0762,1.3086 -0.5912,0.1971 -1.0742,-0.3919 -1.0742,-1.3086 0,-0.8021 0.3707,-1.3525 0.8593,-1.3457 z"
       id="path4162"
       inkscape:connector-curvature="0" />
  </g>
</svg>
