<?xml version="1.0" encoding="UTF-8" standalone="no"?>
<!-- Created with Inkscape (http://www.inkscape.org/) -->

<svg
   xmlns:dc="http://purl.org/dc/elements/1.1/"
   xmlns:cc="http://creativecommons.org/ns#"
   xmlns:rdf="http://www.w3.org/1999/02/22-rdf-syntax-ns#"
   xmlns:svg="http://www.w3.org/2000/svg"
   xmlns="http://www.w3.org/2000/svg"
   xmlns:sodipodi="http://sodipodi.sourceforge.net/DTD/sodipodi-0.dtd"
   xmlns:inkscape="http://www.inkscape.org/namespaces/inkscape"
   id="svg4865"
   sodipodi:docname="cupcakes-jubilee-cake-stand-blue-2.svg"
   inkscape:export-filename="C:\Users\jparagreen\SkyDrive\Jubilee invites\jubilee cake stand blue 2.png"
   viewBox="0 0 396.08 504.78"
   inkscape:export-xdpi="300"
   version="1.1"
   inkscape:export-ydpi="300"
   inkscape:version="0.92.1 r15371"
   width="422.48532"
   height="538.43201">
  <defs
     id="defs26" />
  <sodipodi:namedview
     id="base"
     bordercolor="#666666"
     inkscape:pageshadow="2"
     inkscape:window-y="-8"
     fit-margin-left="0"
     pagecolor="#ffffff"
     fit-margin-top="0"
     inkscape:window-maximized="1"
     inkscape:zoom="0.7"
     inkscape:window-x="-8"
     inkscape:window-height="706"
     showgrid="false"
     borderopacity="1.0"
     inkscape:current-layer="layer1"
     inkscape:cx="87.68534"
     inkscape:cy="252.39104"
     fit-margin-right="0"
     fit-margin-bottom="0"
     inkscape:window-width="1366"
     inkscape:pageopacity="0.0"
     inkscape:document-units="px" />
  <g
     id="layer1"
     inkscape:label="Layer 1"
     inkscape:groupmode="layer"
     transform="translate(-175.89,-279.97)">
    <path
       id="path4671-6"
       style="color:#000000;text-indent:0;text-transform:none;fill:#092c70"
       inkscape:connector-curvature="0"
       d="m 319.83,548.37 v 0.0312 c -24.372,-1.1042 -44.632,19.435 -42.688,41.281 l 0.1875,2.1875 2.1875,0.0625 c 25.455,0.71876 52.147,0.13175 77.969,0.34375 h 2.25 l 0.21875,-2.2188 c 2.166,-20.949 -16.689,-41.466 -40.125,-41.688 z m -0.15625,4.9375 h 0.0625 0.0312 c 19.702,0.18582 35.548,17.09 35.25,34.031 -24.304,-0.15241 -49.137,0.31061 -72.875,-0.28125 -0.13096,-17.774 16.873,-34.734 37.531,-33.75 z" />
    <path
       id="path4661-8"
       style="fill:#f10002"
       inkscape:connector-curvature="0"
       d="m 274.06,582.65 16.562,62.031 h 55.156 l 16.562,-62.031 -11.031,4.7812 -11.031,-4.7812 -11.031,4.7812 -11.031,-4.7812 -11.062,4.7812 -11.031,-4.7812 -11.031,4.7812 -11.031,-4.7812 z m 22.062,9.5312 h 5.5312 v 47.75 z m 22.094,0 h 5.5 l -5.5,47.75 z m 22.062,0 h 5.5 l -11.031,47.75 5.5312,-47.75 z" />
    <path
       id="path4673-2"
       sodipodi:rx="7.5"
       sodipodi:ry="7.5"
       style="color:#000000;fill:#f10002"
       sodipodi:type="arc"
       d="m 165.0458,615.68974 a 7.5,7.5 0 0 1 3.46562,-7.17903 7.5,7.5 0 0 1 7.97176,-0.003 7.5,7.5 0 0 1 3.47173,7.17607"
       sodipodi:open="true"
       transform="matrix(-1.1035,0,0,0.95455,509.27,-35.063)"
       sodipodi:cy="614.86218"
       sodipodi:cx="172.5"
       sodipodi:end="0.10971459"
       sodipodi:start="3.0310268" />
    <path
       id="path4661-0-5-6"
       style="fill:#092c70"
       inkscape:connector-curvature="0"
       d="m 175.89,581.87 16.562,62.062 h 55.156 l 16.562,-62.062 -11.031,4.7812 -11.031,-4.7812 -11.031,4.7812 -11.062,-4.7812 -11.031,4.7812 -11.031,-4.7812 -11.031,4.7812 -11.031,-4.7812 z m 22.062,9.5625 h 5.5312 v 47.719 z m 22.062,0 h 5.5312 l -5.5312,47.719 z m 22.094,0 h 5.5 l -11.031,47.719 5.5312,-47.719 z" />
    <path
       id="path4829-8"
       style="color:#000000;text-indent:0;text-transform:none;fill:#092c70"
       inkscape:connector-curvature="0"
       d="m 373.29,279.97 a 6.9303,6.9303 0 0 0 -6.8438,7.0312 v 2.2188 h -13.062 a 7.7664,7.7664 0 0 0 -7.75,7.7812 c 0,0 -0.0767,10.693 2.7188,21.875 1.3977,5.5909 3.4435,11.456 7.25,16.531 2.4214,3.2286 5.8766,6.128 10.031,7.8125 v 126 h -92.25 c -3.6724,0.0188 -7.118,2.9922 -7.6562,6.625 -0.5382,3.6328 1.897,7.4798 5.4062,8.5625 0,0 16.702,5.0684 37.688,10.125 18.18,4.3805 39.419,8.8545 56.812,9.9688 v 144.72 h -172.25 c -3.8754,-0.0351 -7.4919,3.2627 -7.8125,7.125 -0.32055,3.8623 2.7031,7.7082 6.5312,8.3125 0,0 108.96,18.36 172.78,19.969 -1.0976,7.1553 -3.8333,18.587 -10.781,31.094 -11.551,20.792 -34.203,44.047 -82.25,53.656 -3.7236,0.76218 -6.5329,4.5929 -6.1562,8.375 0.37667,3.7821 3.8868,6.9872 7.6875,7 h 200 c 3.8008,-0.0128 7.3108,-3.2179 7.6875,-7 0.37667,-3.7821 -2.4327,-7.6128 -6.1562,-8.375 -48.047,-9.6095 -70.699,-32.864 -82.25,-53.656 -6.948,-12.506 -9.6836,-23.938 -10.781,-31.094 63.825,-1.6088 172.78,-19.969 172.78,-19.969 3.8282,-0.60427 6.8518,-4.4502 6.5312,-8.3125 -0.32056,-3.8623 -3.9371,-7.1601 -7.8125,-7.125 h -172.25 v -144.72 c 17.394,-1.1142 38.633,-5.5883 56.812,-9.9688 20.986,-5.0566 37.688,-10.125 37.688,-10.125 3.5092,-1.0827 5.9444,-4.9297 5.4062,-8.5625 -0.5382,-3.6328 -3.9838,-6.6062 -7.6562,-6.625 h -92.25 v -126 c 4.1547,-1.6845 7.6098,-4.5839 10.031,-7.8125 3.8065,-5.0753 5.8523,-10.94 7.25,-16.531 2.7954,-11.182 2.7188,-21.875 2.7188,-21.875 a 7.7664,7.7664 0 0 0 -7.75,-7.7812 h -13.062 v -2.2188 a 6.9303,6.9303 0 0 0 -7.0312,-7.0312 z m -11.594,24.781 h 23.375 c -0.32621,3.1211 -0.80626,6.6938 -1.7188,10.344 -1.1023,4.4091 -2.8065,8.5441 -4.625,10.969 -1.582,2.1093 -2.6351,2.9453 -4.4688,3.125 a 7.7664,7.7664 0 0 0 -1,-0.0625 7.7664,7.7664 0 0 0 -0.78125,0.0625 c -1.8139,-0.18619 -2.8648,-1.028 -4.4375,-3.125 -1.8185,-2.4247 -3.5227,-6.5596 -4.625,-10.969 -0.91249,-3.65 -1.3925,-7.2227 -1.7188,-10.344 z" />
    <path
       id="path4671-6-1"
       style="color:#000000;text-indent:0;text-transform:none;fill:#092c70"
       inkscape:connector-curvature="0"
       d="m 221.43,546.77 v 0.0312 c -24.372,-1.1042 -44.632,19.435 -42.688,41.281 l 0.1875,2.1875 2.1875,0.0625 c 25.455,0.71876 52.147,0.13175 77.969,0.34375 h 2.25 l 0.21875,-2.2188 c 2.166,-20.949 -16.689,-41.466 -40.125,-41.688 z m -0.15625,4.9375 h 0.0625 0.0312 c 19.702,0.18582 35.548,17.09 35.25,34.031 -24.304,-0.15241 -49.137,0.31061 -72.875,-0.28125 -0.13096,-17.774 16.873,-34.734 37.531,-33.75 z" />
    <path
       id="path4673-2-7"
       sodipodi:rx="7.5"
       sodipodi:ry="7.5"
       style="color:#000000;fill:#f10002"
       sodipodi:type="arc"
       d="m 165.0458,615.68974 a 7.5,7.5 0 0 1 3.46562,-7.17903 7.5,7.5 0 0 1 7.97176,-0.003 7.5,7.5 0 0 1 3.47173,7.17607"
       sodipodi:open="true"
       transform="matrix(-1.1035,0,0,0.95455,410.87,-36.662)"
       sodipodi:cy="614.86218"
       sodipodi:cx="172.5"
       sodipodi:end="0.10971459"
       sodipodi:start="3.0310268" />
    <path
       id="path4671-6-4"
       style="color:#000000;text-indent:0;text-transform:none;fill:#092c70"
       inkscape:connector-curvature="0"
       d="m 529.46,548.52 v 0.0312 c -24.372,-1.1042 -44.632,19.435 -42.688,41.281 l 0.1875,2.1875 2.1875,0.0625 c 25.455,0.71876 52.147,0.13175 77.969,0.34375 h 2.25 l 0.21875,-2.2188 c 2.166,-20.949 -16.689,-41.466 -40.125,-41.688 z m -0.15625,4.9375 h 0.0625 0.0312 c 19.702,0.18582 35.548,17.09 35.25,34.031 -24.304,-0.15241 -49.137,0.31061 -72.875,-0.28125 -0.13096,-17.774 16.873,-34.734 37.531,-33.75 z" />
    <path
       id="path4661-8-0"
       style="fill:#f10002"
       inkscape:connector-curvature="0"
       d="m 483.69,582.8 16.562,62.031 h 55.156 L 571.97,582.8 560.939,587.5812 549.908,582.8 538.877,587.5812 527.846,582.8 516.784,587.5812 505.753,582.8 494.722,587.5812 483.691,582.8 Z m 22.062,9.5312 h 5.5312 v 47.75 z m 22.094,0 h 5.5 l -5.5,47.75 z m 22.062,0 h 5.5 l -11.031,47.75 5.5312,-47.75 z" />
    <path
       id="path4673-2-9"
       sodipodi:rx="7.5"
       sodipodi:ry="7.5"
       style="color:#000000;fill:#f10002"
       sodipodi:type="arc"
       d="m 165.0458,615.68974 a 7.5,7.5 0 0 1 3.46562,-7.17903 7.5,7.5 0 0 1 7.97176,-0.003 7.5,7.5 0 0 1 3.47173,7.17607"
       sodipodi:open="true"
       transform="matrix(-1.1035,0,0,0.95455,718.9,-34.911)"
       sodipodi:cy="614.86218"
       sodipodi:cx="172.5"
       sodipodi:end="0.10971459"
       sodipodi:start="3.0310268" />
    <path
       id="path4661-0-5-6-4"
       style="fill:#092c70"
       inkscape:connector-curvature="0"
       d="m 385.52,582.02 16.562,62.062 h 55.156 l 16.562,-62.062 -11.031,4.7812 -11.031,-4.7812 -11.031,4.7812 -11.062,-4.7812 -11.031,4.7812 -11.031,-4.7812 -11.031,4.7812 -11.031,-4.7812 z m 22.062,9.5625 h 5.5312 v 47.719 z m 22.062,0 h 5.5312 l -5.5312,47.719 z m 22.094,0 h 5.5 l -11.031,47.719 5.5312,-47.719 z" />
    <path
       id="path4671-6-1-8"
       style="color:#000000;text-indent:0;text-transform:none;fill:#092c70"
       inkscape:connector-curvature="0"
       d="m 431.06,546.92 v 0.0312 c -24.372,-1.1042 -44.632,19.435 -42.688,41.281 l 0.1875,2.1875 2.1875,0.0625 c 25.455,0.71876 52.147,0.13175 77.969,0.34375 h 2.25 l 0.21875,-2.2188 c 2.166,-20.949 -16.689,-41.466 -40.125,-41.688 z m -0.15625,4.9375 h 0.0625 0.0312 c 19.702,0.18582 35.548,17.09 35.25,34.031 -24.304,-0.15241 -49.137,0.31061 -72.875,-0.28125 -0.13096,-17.774 16.873,-34.734 37.531,-33.75 z" />
    <path
       id="path4673-2-7-8"
       sodipodi:rx="7.5"
       sodipodi:ry="7.5"
       style="color:#000000;fill:#f10002"
       sodipodi:type="arc"
       d="m 165.0458,615.68974 a 7.5,7.5 0 0 1 3.46562,-7.17903 7.5,7.5 0 0 1 7.97176,-0.003 7.5,7.5 0 0 1 3.47173,7.17607"
       sodipodi:open="true"
       transform="matrix(-1.1035,0,0,0.95455,620.5,-36.51)"
       sodipodi:cy="614.86218"
       sodipodi:cx="172.5"
       sodipodi:end="0.10971459"
       sodipodi:start="3.0310268" />
    <path
       id="path4671-6-2"
       style="color:#000000;text-indent:0;text-transform:none;fill:#092c70"
       inkscape:connector-curvature="0"
       d="m 447.31,369.23 v 0.0312 c -24.372,-1.1042 -44.632,19.435 -42.688,41.281 l 0.1875,2.1875 2.1875,0.0625 c 25.455,0.71876 52.147,0.13175 77.969,0.34375 h 2.25 l 0.21875,-2.2188 c 2.166,-20.949 -16.689,-41.466 -40.125,-41.688 z m -0.15625,4.9375 h 0.0625 0.0312 c 19.702,0.18582 35.548,17.09 35.25,34.031 -24.304,-0.15241 -49.137,0.31061 -72.875,-0.28125 -0.13096,-17.774 16.873,-34.734 37.531,-33.75 z" />
    <path
       id="path4661-8-4"
       style="fill:#f10002"
       inkscape:connector-curvature="0"
       d="m 401.55,403.52 16.562,62.031 h 55.156 l 16.562,-62.031 -11.031,4.7812 -11.031,-4.7812 -11.031,4.7812 -11.031,-4.7812 -11.062,4.7812 -11.031,-4.7812 -11.031,4.7812 -11.031,-4.7812 z m 22.062,9.5312 h 5.5312 v 47.75 z m 22.094,0 h 5.5 l -5.5,47.75 z m 22.062,0 h 5.5 l -11.031,47.75 5.5312,-47.75 z" />
    <path
       id="path4673-2-5"
       sodipodi:rx="7.5"
       sodipodi:ry="7.5"
       style="color:#000000;fill:#f10002"
       sodipodi:type="arc"
       d="m 165.0458,615.68974 a 7.5,7.5 0 0 1 3.46562,-7.17903 7.5,7.5 0 0 1 7.97176,-0.003 7.5,7.5 0 0 1 3.47173,7.17607"
       sodipodi:open="true"
       transform="matrix(-1.1035,0,0,0.95455,636.75,-214.2)"
       sodipodi:cy="614.86218"
       sodipodi:cx="172.5"
       sodipodi:end="0.10971459"
       sodipodi:start="3.0310268" />
    <path
       id="path4661-0-5-6-5"
       style="fill:#092c70"
       inkscape:connector-curvature="0"
       d="m 254.8,403.45 16.562,62.062 h 55.156 l 16.562,-62.062 -11.031,4.7812 -11.031,-4.7812 -11.031,4.7812 -11.062,-4.7812 -11.031,4.7812 -11.031,-4.7812 -11.031,4.7812 -11.031,-4.7812 z m 22.062,9.5625 h 5.5312 v 47.719 z m 22.062,0 h 5.5312 l -5.5312,47.719 z m 22.094,0 h 5.5 l -11.031,47.719 5.5312,-47.719 z" />
    <path
       id="path4671-6-1-1"
       style="color:#000000;text-indent:0;text-transform:none;fill:#092c70"
       inkscape:connector-curvature="0"
       d="m 300.35,368.35 v 0.0312 c -24.372,-1.1042 -44.632,19.435 -42.688,41.281 l 0.1875,2.1875 2.1875,0.0625 c 25.455,0.71876 52.147,0.13175 77.969,0.34375 h 2.25 l 0.21875,-2.2188 c 2.166,-20.949 -16.689,-41.466 -40.125,-41.688 z m -0.15625,4.9375 h 0.0625 0.0312 c 19.702,0.18582 35.548,17.09 35.25,34.031 -24.304,-0.15241 -49.137,0.31061 -72.875,-0.28125 -0.13096,-17.774 16.873,-34.734 37.531,-33.75 z" />
    <path
       id="path4673-2-7-7"
       sodipodi:rx="7.5"
       sodipodi:ry="7.5"
       style="color:#000000;fill:#f10002"
       sodipodi:type="arc"
       d="m 165.0458,615.68974 a 7.5,7.5 0 0 1 3.46562,-7.17903 7.5,7.5 0 0 1 7.97176,-0.003 7.5,7.5 0 0 1 3.47173,7.17607"
       sodipodi:open="true"
       transform="matrix(-1.1035,0,0,0.95455,489.79,-215.08)"
       sodipodi:cy="614.86218"
       sodipodi:cx="172.5"
       sodipodi:end="0.10971459"
       sodipodi:start="3.0310268" />
  </g>
  <metadata
     id="metadata23">
    <rdf:RDF>
      <cc:Work>
        <dc:format>image/svg+xml</dc:format>
        <dc:type
           rdf:resource="http://purl.org/dc/dcmitype/StillImage" />
        <cc:license
           rdf:resource="http://creativecommons.org/licenses/publicdomain/" />
        <dc:publisher>
          <cc:Agent
             rdf:about="http://openclipart.org/">
            <dc:title>Openclipart</dc:title>
          </cc:Agent>
        </dc:publisher>
        <dc:title>Jubilee cake stand blue</dc:title>
        <dc:date>2012-05-16T05:10:40</dc:date>
        <dc:description />
        <dc:source>https://openclipart.org/detail/170050/jubilee-cake-stand-blue-by-mr_johnnyp-170050</dc:source>
        <dc:creator>
          <cc:Agent>
            <dc:title>mr_johnnyp</dc:title>
          </cc:Agent>
        </dc:creator>
        <dc:subject>
          <rdf:Bag>
            <rdf:li>Jubilee</rdf:li>
            <rdf:li>blue</rdf:li>
            <rdf:li>cake</rdf:li>
            <rdf:li>stand</rdf:li>
          </rdf:Bag>
        </dc:subject>
      </cc:Work>
      <cc:License
         rdf:about="http://creativecommons.org/licenses/publicdomain/">
        <cc:permits
           rdf:resource="http://creativecommons.org/ns#Reproduction" />
        <cc:permits
           rdf:resource="http://creativecommons.org/ns#Distribution" />
        <cc:permits
           rdf:resource="http://creativecommons.org/ns#DerivativeWorks" />
      </cc:License>
    </rdf:RDF>
  </metadata>
</svg>
