<?xml version="1.0" encoding="UTF-8" standalone="no"?>
<!-- Created with Inkscape (http://www.inkscape.org/) -->

<svg
   xmlns:dc="http://purl.org/dc/elements/1.1/"
   xmlns:cc="http://creativecommons.org/ns#"
   xmlns:rdf="http://www.w3.org/1999/02/22-rdf-syntax-ns#"
   xmlns:svg="http://www.w3.org/2000/svg"
   xmlns="http://www.w3.org/2000/svg"
   xmlns:sodipodi="http://sodipodi.sourceforge.net/DTD/sodipodi-0.dtd"
   xmlns:inkscape="http://www.inkscape.org/namespaces/inkscape"
   width="8.9065084mm"
   height="12.459385mm"
   viewBox="0 0 8.9065084 12.459385"
   id="svg8736"
   version="1.1"
   inkscape:version="0.91+devel r"
   sodipodi:docname="HakanL_Simple_Flower_bw.svg">
  <defs
     id="defs8738" />
  <sodipodi:namedview
     id="base"
     pagecolor="#ffffff"
     bordercolor="#666666"
     borderopacity="1.0"
     inkscape:pageopacity="0.0"
     inkscape:pageshadow="2"
     inkscape:zoom="1.979899"
     inkscape:cx="-37.695907"
     inkscape:cy="-13.846148"
     inkscape:document-units="mm"
     inkscape:current-layer="layer1"
     showgrid="false"
     inkscape:window-width="1280"
     inkscape:window-height="1023"
     inkscape:window-x="1920"
     inkscape:window-y="176"
     inkscape:window-maximized="1"
     fit-margin-top="0"
     fit-margin-left="0"
     fit-margin-right="0"
     fit-margin-bottom="0"
     borderlayer="true" />
  <metadata
     id="metadata8741">
    <rdf:RDF>
      <cc:Work
         rdf:about="">
        <dc:format>image/svg+xml</dc:format>
        <dc:type
           rdf:resource="http://purl.org/dc/dcmitype/StillImage" />
        <dc:title></dc:title>
      </cc:Work>
    </rdf:RDF>
  </metadata>
  <g
     inkscape:label="Ebene 1"
     inkscape:groupmode="layer"
     id="layer1"
     transform="translate(-101.38585,-142.61542)">
    <g
       id="g9308">
      <path
         inkscape:connector-curvature="0"
         sodipodi:nodetypes="ccccccccccccccccccccccc"
         id="path3806"
         style="fill:#ffffff;fill-opacity:1;stroke:#000000;stroke-width:0.155;stroke-miterlimit:4;stroke-dasharray:none;stroke-opacity:1"
         d="m 105.90176,148.21604 c -0.0656,0.7923 -0.55728,1.56231 -1.25849,1.94977 -0.65781,0.35336 -1.59017,0.0959 -1.89411,-0.58042 -0.23534,-0.60677 -0.0144,-1.31457 0.41525,-1.78378 0.33025,-0.36964 0.81902,-0.51733 1.26774,-0.71965 -0.69625,0.0884 -1.43482,-0.0504 -1.97947,-0.47839 -0.33322,-0.24265 -0.66228,-0.60666 -0.6484,-1.03894 0.0334,-0.63821 0.70659,-1.1593 1.36033,-1.05856 0.81053,0.11706 1.43373,0.69874 1.94217,1.28846 -0.18166,-0.16335 -0.35057,-0.42274 -0.42623,-0.65045 -0.22843,-0.94768 0.30881,-2.00875 1.22698,-2.40037 0.19315,-0.0928 0.42973,-0.0533 0.59775,0.083 0.44243,0.33125 0.74074,0.86437 0.7143,1.4112 -0.0684,0.59594 -0.37684,1.11149 -0.70552,1.61005 0.27715,-0.49298 0.64579,-0.91435 1.21406,-1.14632 0.72502,-0.29883 1.6881,-0.29363 2.2496,0.31441 0.35845,0.34628 0.28443,0.9654 -0.0654,1.29141 -0.39325,0.36011 -0.93214,0.49116 -1.43184,0.62629 -0.42971,0.13648 -0.95919,0.008 -1.39341,0.003 0.39869,0.0194 0.90904,0.0248 1.20996,0.2312 0.46483,0.32171 0.93463,0.77944 0.85921,1.38356 -0.0922,0.67367 -0.68272,1.4143 -1.44706,1.29313 -0.79654,-0.13343 -1.44884,-0.94986 -1.80738,-1.62887 z" />
      <path
         inkscape:connector-curvature="0"
         style="fill:#ffffff;fill-opacity:1;stroke:#000000;stroke-width:0.152;stroke-miterlimit:4;stroke-dasharray:none;stroke-opacity:1"
         d="m 106.29084,145.8319 c 0.72521,0.3526 0.8622,1.45911 0.2609,1.99042 -0.53621,0.53259 -1.55036,0.4157 -1.91505,-0.25855 -0.37769,-0.57921 -0.13969,-1.45279 0.49813,-1.74197 0.35144,-0.18365 0.79276,-0.17336 1.15602,0.0101 z"
         id="path3800" />
      <path
         inkscape:connector-curvature="0"
         d="m 108.79332,150.7667 c 0.61897,2.61808 -1.54669,3.36014 -3.14716,4.16797 0.39438,-1.62515 0.10119,-3.63704 3.14716,-4.16797 z"
         id="path38"
         style="fill:#ffffff;fill-opacity:1;stroke:#000000;stroke-width:0.15000001;stroke-miterlimit:4;stroke-dasharray:none;stroke-opacity:1"
         sodipodi:nodetypes="ccc" />
      <path
         inkscape:connector-curvature="0"
         d="m 101.46165,151.07954 c -0.053,2.64203 2.50443,3.04394 4.10039,3.84949 -0.42462,-1.65191 -1.47051,-3.82158 -4.10039,-3.84949 z"
         id="path3789"
         style="fill:#ffffff;fill-opacity:1;stroke:#000000;stroke-width:0.15000001;stroke-miterlimit:4;stroke-dasharray:none;stroke-opacity:1"
         sodipodi:nodetypes="ccc" />
      <path
         inkscape:connector-curvature="0"
         id="path32"
         style="fill:#ffffff;fill-opacity:1;stroke:#000000;stroke-width:0.1;stroke-miterlimit:4;stroke-dasharray:none;stroke-opacity:1"
         d="m 105.60966,154.97124 c -0.64503,-3.92041 0.56213,-3.97056 0.2834,-6.78404 0.64024,1.88874 -0.46767,2.4954 -0.2834,6.78404 z"
         sodipodi:nodetypes="ccc" />
    </g>
  </g>
</svg>
