<?xml version="1.0" encoding="UTF-8" standalone="no"?>
<!-- Created with Inkscape (http://www.inkscape.org/) -->

<svg
   xmlns:dc="http://purl.org/dc/elements/1.1/"
   xmlns:cc="http://creativecommons.org/ns#"
   xmlns:rdf="http://www.w3.org/1999/02/22-rdf-syntax-ns#"
   xmlns:svg="http://www.w3.org/2000/svg"
   xmlns="http://www.w3.org/2000/svg"
   xmlns:sodipodi="http://sodipodi.sourceforge.net/DTD/sodipodi-0.dtd"
   xmlns:inkscape="http://www.inkscape.org/namespaces/inkscape"
   id="svg2"
   sodipodi:docname="hyatena-wood.svg"
   viewBox="0 0 300 300"
   version="1.1"
   inkscape:version="0.92.1 r15371"
   width="320"
   height="320">
  <defs
     id="defs14" />
  <sodipodi:namedview
     id="base"
     bordercolor="#666666"
     inkscape:pageshadow="2"
     inkscape:window-y="-8"
     pagecolor="#ffffff"
     inkscape:window-height="538"
     inkscape:window-maximized="1"
     inkscape:zoom="0.39292929"
     inkscape:window-x="-8"
     showgrid="false"
     borderopacity="1.0"
     inkscape:current-layer="g5558"
     inkscape:cx="299.00256"
     inkscape:cy="239.72237"
     showguides="true"
     inkscape:guide-bbox="true"
     inkscape:window-width="1024"
     inkscape:pageopacity="0.0"
     inkscape:document-units="px" />
  <g
     id="layer1"
     inkscape:label="Layer 1"
     inkscape:groupmode="layer"
     transform="translate(0,-752.36)">
    <text
       id="text3042"
       style="line-height:0%;font-family:'Plantagenet Cherokee';fill:#000000"
       xml:space="preserve"
       transform="translate(0,62.362)"
       y="733.42126"
       x="1016.2135"><tspan
         id="tspan3044"
         sodipodi:role="line"
         x="1016.2135"
         y="733.42126"
         style="font-size:20px;line-height:1.25"> </tspan></text>
    <g
       id="g5042"
       transform="matrix(0.92193,0,0,0.92193,39.407,45.118)">
      <g
         id="g5558"
         style="fill:#d5d5d5"
         transform="matrix(0.94393,0,0,0.94393,14.85,31.044)">
        <path
           id="path4250"
           style="fill:#000000"
           d="m 168.88,835.76 -1.4827,0.70315 -223.62,107.03 -2.6291,-0.30587 v 6.3281 89.43402 5.0136 l 4.983,0.5808 167.7,19.565 6.2823,0.7336 v -1.5896 l 0.32098,0.3515 160.27,-148.97002 1.7884,-1.6661 v -2.4456 l 0.15287,-56.021 0.0145,-4.9983 -4.9678,-0.59611 -107.18,-12.947 -1.6202,-0.19866 z m 3.6837,11.77 5.9002,0.71839 c -9.3511,6.1004 -14.468,8.9252 -23.891,13.283 -5.1607,2.3866 -12.046,5.741 -15.301,7.4592 -3.2551,1.7184 -11.72,5.6341 -18.816,8.6973 -26.944,11.63 -52.277,25.001 -63.419,33.475 -8.4373,6.4169 -8.4348,9.005 0,3.7602 3.0379,-1.8889 8.9858,-5.7649 13.222,-8.6056 8.1967,-5.4968 13.462,-7.7561 29.608,-12.779 18.996,-5.909 81.812,-35.043 87.417,-40.537 1.1944,-1.1709 2.5011,-2.2482 3.8824,-3.2252 l 5.197,0.62671 c -2.2537,0.87657 -3.5226,1.7419 -4.876,3.0723 -1.4717,1.4468 -4.5114,3.8029 -6.7561,5.2429 -6.1598,3.9517 -31.113,16.321 -45.489,22.546 -7.0104,3.0355 -17.819,8.1482 -24.013,11.372 -6.1944,3.2243 -17.625,8.6097 -25.404,11.953 -19.113,8.2144 -27.166,12.23 -37.357,18.648 -14.257,8.978 -24.925,16.707 -38.58,28.431 l -16.279,-1.8954 c 3.828,-3.9884 6.689,-6.3555 11.968,-10.302 2.4534,-1.8341 9.4665,-8.169 15.576,-14.078 9.4122,-9.1033 11.008,-10.855 10.425,-11.449 -0.10636,-0.10829 -0.275,-0.15021 -0.47384,-0.13761 -0.59708,0.0378 -1.572,0.60249 -2.7361,1.605 -1.3829,1.1911 -6.5668,5.1427 -11.51,8.7738 -8.3152,6.1081 -18.488,14.886 -29.042,24.915 l -9.3088,-1.0853 c 1.7838,-1.9123 3.4776,-3.6836 4.8149,-4.9983 3.5593,-3.4988 7.3567,-7.8456 8.9113,-10.18 0.46732,-0.70169 1.374,-1.8056 2.5832,-3.2099 l 100.88,-48.26 c 0.84849,-0.28591 1.7334,-0.60464 2.6749,-0.97823 2.7702,-1.0992 9.2925,-3.7048 14.491,-5.7779 9.2707,-3.6974 38.29,-17.498 50.579,-24.059 1.3992,-0.74702 3.2161,-1.8176 5.1359,-3.0112 z m 40.98,6.6491 c 1.07,0.007 1.7687,0.39638 2.461,1.1006 2.0206,2.0554 0.65947,4.8344 -4.7843,9.8437 -3.5366,3.2543 -4.3177,4.2633 -3.7754,4.8149 0.91057,0.92621 9.6126,-3.4475 17.089,-8.5903 2.015,-1.386 4.8228,-3.6737 8.147,-6.5574 l 4.4022,0.53502 c -5.6655,5.0974 -10.407,9.0328 -13.191,10.837 -7.9745,5.1689 -14.374,8.3969 -26.382,13.298 -6.8611,2.8006 -12.776,4.6832 -14.567,4.6468 -2.8881,-0.0586 -2.9815,-0.16426 -2.5068,-2.354 0.27251,-1.257 0.8403,-2.6206 1.2686,-3.0417 0.42834,-0.42105 5.215,-3.2555 10.639,-6.2976 12.202,-6.8443 15.435,-9.2164 14.215,-10.44 -0.533,-0.54213 -2.5456,-0.0446 -5.2887,1.2993 -2.4376,1.1938 -6.9785,2.6493 -10.088,3.2405 -5.9824,1.1372 -13.692,5.0065 -28.675,14.399 -4.2136,2.6413 -11.96,6.7963 -17.227,9.2323 -5.2668,2.436 -11.493,5.6733 -13.833,7.1994 -2.3403,1.5262 -8.1828,4.0939 -12.977,5.7014 -13.006,4.3606 -21.64,8.3346 -33.567,15.438 -5.906,3.5177 -18.401,10.398 -27.773,15.301 -9.3722,4.9026 -19.212,10.409 -21.858,12.228 -2.2872,1.5727 -5.3169,3.979 -8.9725,7.1077 l -5.3652,-0.62673 c 11.992,-10.21 21.019,-15.364 40.216,-25.45 10.325,-5.4249 21.865,-11.835 25.633,-14.246 7.9857,-5.109 9.9421,-6.0576 28.813,-13.894 7.7878,-3.2341 14.497,-6.2035 14.903,-6.6033 0.40661,-0.39965 3.3274,-1.813 6.481,-3.1335 10.46,-4.3801 16.761,-7.5765 25.099,-12.733 13.258,-8.1994 23.968,-13.563 29.073,-14.552 2.5684,-0.49714 8.041,-2.372 12.152,-4.1729 5.6318,-2.4673 8.4579,-3.5368 10.241,-3.5309 z m 32.16,2.1858 4.9984,0.6114 c -4.4436,3.5063 -10.916,8.5313 -16.844,13.069 -20.315,15.548 -29.207,20.455 -42.753,23.616 -13.435,3.1356 -32.481,8.2308 -36.562,9.7826 -2.8932,1.0999 -3.735,0.9863 -5.3957,-0.7031 l -1.9565,-2.0024 -14.873,6.3281 c -16.037,6.8209 -46.186,22.409 -49.341,25.511 -4.6739,4.5945 3.6028,1.2642 24.961,-10.042 20.7,-10.958 30.675,-14.412 35.966,-12.442 1.4084,0.52432 2.7567,1.1524 2.996,1.391 1.2717,1.2678 8.3797,-0.39199 19.076,-4.4633 6.6009,-2.5124 17.641,-6.0458 24.533,-7.8566 8.2859,-2.1772 17.322,-5.495 25.71,-9.3088 l -17.884,12.641 c -1.1097,0.33088 -2.1358,0.59544 -3.0265,0.74894 -10.884,1.8763 -19.945,4.6853 -20.375,6.3129 -0.3506,1.3269 4.2524,1.6207 8.254,0.53497 2.1391,-0.58037 6.0496,-2.037 8.6974,-3.2405 0.21417,-0.0972 0.49756,-0.21077 0.76425,-0.32098 l -14.597,10.318 c -0.52586,-0.16378 -1.2395,-0.24538 -2.1094,-0.24443 -5.0514,0.007 -14.761,2.5353 -15.927,4.9983 -0.92195,1.9464 0.99,2.7851 5.411,2.3845 1.0216,-0.0925 2.3326,-0.39995 3.7296,-0.84071 l -10.7,7.551 c -2.3684,0.60573 -4.275,1.4685 -6.3434,2.8125 -6.3144,4.103 -16.645,8.1949 -19.779,7.8261 -5.2594,-0.6191 -20.037,6.8732 -31.748,16.111 -1.867,1.4727 -3.3306,2.6958 -4.5244,3.806 l -4.9983,-0.58085 c 0.64334,-0.52626 1.3108,-1.0698 2.094,-1.7273 8.7161,-7.3165 17.905,-13.684 27.865,-19.29 7.1114,-4.0025 8.4303,-4.3908 15.499,-4.5856 3.8919,-0.10733 9.353,-2.7671 12.962,-6.3128 2.2743,-2.2357 2.9368,-3.3697 1.9107,-3.4392 -0.79817,-0.054 -2.6302,0.53852 -5.5027,1.7578 -5.1943,2.2048 -7.1377,2.5142 -12.595,2.0177 -7.6811,-0.69891 -8.9142,-0.38195 -17.609,4.5092 -5.8736,3.3042 -7.6933,4.7268 -14.903,11.602 -5.803,5.5333 -10.951,10.977 -14.185,14.949 l -7.9636,-0.93236 c 0.7629,-0.97915 1.6564,-1.942 2.7972,-3.0571 2.2455,-2.1957 5.7817,-5.2549 7.8567,-6.802 2.075,-1.5472 6.7797,-5.6212 10.455,-9.0489 5.146,-4.7992 8.2637,-7.155 13.558,-10.256 3.7813,-2.2151 7.9906,-4.8382 9.3393,-5.8237 3.3805,-2.4698 6.8828,-3.0563 10.165,-1.6967 5.0267,2.0825 15.663,-0.15094 19.733,-4.1423 1.9009,-1.8597 1.1233,-2.3035 -2.8584,-1.6508 -1.8643,0.30556 -5.5755,-0.10393 -8.2388,-0.90186 -2.0004,-0.59948 -3.2524,-0.92212 -4.6315,-0.856 -1.773,0.085 -3.7531,0.80634 -7.7649,2.3998 -7.4705,2.9673 -44.915,21.402 -56.54,27.835 -4.2965,2.3776 -11.097,6.4058 -18.801,11.097 l -6.7867,-0.79485 c 6.673,-4.3423 10.286,-6.908 10.425,-7.4439 0.07074,-0.27187 -0.11944,-0.37588 -0.5197,-0.35161 -1.7343,0.10539 -7.4738,2.8078 -13.589,6.5269 -0.39328,0.23912 -0.76667,0.46892 -1.1464,0.7031 l -6.3893,-0.73368 c 6.2193,-4.0669 13.199,-8.168 21.552,-12.702 6.9385,-3.7662 19.226,-10.54 27.3,-15.041 20.722,-11.552 37.327,-19.976 46.07,-23.371 4.1293,-1.6034 11.631,-4.8592 16.661,-7.23 10.626,-5.0079 16.153,-6.9437 17.089,-5.9919 0.36538,0.37174 0.60721,1.6896 0.53502,2.9348 -0.17347,2.9916 1.2219,3.1705 7.7038,0.97827 2.9761,-1.0066 11.519,-3.4495 18.984,-5.4416 11.555,-3.0833 14.646,-4.2638 20.834,-7.9331 3.9974,-2.3705 8.8367,-5.5551 10.746,-7.0771 1.9089,-1.5219 8.3029,-6.329 14.215,-10.684 2.9892,-2.202 5.9496,-4.4546 8.3152,-6.2975 z m 25.649,8.2693 -0.0312,12.626 c -6.5736,5.2635 -12.152,9.9911 -12.626,10.73 -1.6482,2.5713 2.0961,0.92357 11.189,-4.9371 l 1.4215,-0.91715 -0.0145,5.2123 -5.9002,3.8213 c -7.3088,4.7272 -15.801,9.9152 -18.862,11.525 -3.0612,1.61 -10.924,6.0274 -17.471,9.8285 -14.958,8.6846 -33.772,17.545 -43.823,20.635 -4.2491,1.3063 -13.245,4.5532 -19.993,7.2147 -0.71607,0.28249 -1.4614,0.56547 -2.2011,0.85595 l 17.15,-12.121 c 1.1161,-0.38522 2.1802,-0.75226 3.1029,-1.0546 13.675,-4.4813 23.131,-9.6248 18.235,-9.9202 -0.077,-0.007 -0.17153,-0.007 -0.2753,0 -1.2681,0.0642 -4.4991,0.86543 -8.361,1.9871 l 12.763,-9.0336 c 5.2099,-1.8968 9.1812,-4.0456 10.226,-5.6862 0.18873,-0.2962 -0.0313,-0.4248 -0.56557,-0.42795 -0.29058,0 -0.7,0.0359 -1.1617,0.10684 l 23.64,-16.71 c 3.1814,-1.9057 6.538,-4.025 10.18,-6.4352 8.518,-5.6369 15.318,-10.605 22.057,-16.371 l 1.3299,-0.93242 z m -30.158,27.3 c -1.244,-0.007 -4.9962,1.8092 -11.357,5.4569 -5.9674,3.422 -10.957,6.3124 -11.082,6.4351 -1.0381,1.0204 1.61,0.74901 7.123,-0.74892 6.5552,-1.781 10.621,-4.2151 14.383,-8.5904 1.4524,-1.6889 1.7836,-2.5486 0.93241,-2.5527 z m 30.051,9.0948 v 3.5462 c -10.711,10.013 -8.8365,8.779 -46.07,24.747 -7.9392,3.4048 -16.238,7.3504 -18.449,8.7738 -2.2118,1.4235 -8.1998,4.599 -13.298,7.0466 -11.583,5.5607 -16.331,8.8725 -28.293,19.749 -8.1353,7.3971 -10.196,8.9743 -14.261,10.898 -4.7939,2.2689 -9.8698,2.8111 -13.099,1.4063 -4.5232,-1.9677 -11.211,-0.19334 -15.622,4.1423 -0.45959,0.45177 -1.2113,1.0968 -2.0482,1.7884 v -11.525 l 13.711,-9.7062 c 2.6144,-1.399 5.4108,-2.9077 7.5357,-4.0965 3.57,-1.9973 11.116,-5.6548 16.768,-8.1318 7.7771,-3.4082 11.53,-4.5743 15.423,-4.7844 4.0976,-0.22095 7.9172,-1.4779 18.74,-6.1447 7.4731,-3.2226 17.913,-7.6861 23.203,-9.9355 15.377,-6.5388 38.886,-16.931 42.952,-18.984 3.0908,-1.5607 5.4982,-3.1696 12.809,-8.789 z m -21.017,23.784 -4.4327,4.6314 c -4.9937,5.2246 -8.3491,7.3927 -24.273,15.698 -16.674,8.6964 -22.601,13.546 -33.75,27.59 -4.6871,5.904 -5.3944,7.1108 -4.6162,7.9025 0.80825,0.82213 2.0034,0.0548 9.9966,-6.3587 8.5822,-6.8859 9.2737,-7.5485 12.335,-12.03 3.1606,-4.6255 3.3551,-4.8021 7.7038,-7.123 2.4528,-1.3091 6.0381,-2.8921 7.9789,-3.5156 l 3.5309,-1.1311 -21.889,21.033 -4.8455,4.6467 -19.046,17.716 -9.2323,6.1295 c -13.511,8.9792 -24.03,15.058 -32.084,18.541 -3.2852,1.4208 -7.5581,3.4462 -9.5074,4.494 -1.5257,0.8199 -4.7837,2.3447 -7.9943,3.7754 v -12.182 c 0.10611,-0.058 0.22071,-0.1311 0.32098,-0.1834 4.1336,-2.1633 25.753,-10.88 39.344,-15.866 7.6737,-2.8154 13.452,-6.3031 15.606,-9.4004 1.1134,-1.6008 0.69048,-2.9414 -0.32097,-2.996 -0.45988,-0.0249 -1.035,0.2195 -1.6508,0.82538 -0.79839,0.78482 -6.4358,4.0237 -12.534,7.1994 -8.9748,4.6738 -13.326,6.38222 -22.79,8.95722 -7.8117,2.1256 -13.022,3.8254 -17.976,6.0835 v -12.59502 c 1.7044,-1.4907 3.0764,-2.6533 3.7449,-3.1335 2.9596,-2.1261 14.228,-6.1704 31.274,-11.25 9.5079,-2.8336 13.405,-5.0941 17.425,-10.073 13.087,-16.208 16.257,-19.75 19.733,-22.057 1.9262,-1.2781 7.3982,-3.6604 12.167,-5.304 10.454,-3.6027 24.005,-9.351 36.517,-15.484 l 9.2629,-4.5397 z m -267.18,12.37 c -3.545,3.5708 -6.8178,6.8628 -9.6756,9.7674 l -3.7755,-0.44331 c 1.7895,-1.8376 3.5494,-3.6226 5.3346,-5.4416 l 8.1165,-3.8825 z m 82.281,5.4416 c -0.60282,0.0664 -1.6635,0.6852 -2.6902,1.712 -1.6534,1.6541 -1.639,1.688 0.44324,0.91712 1.1843,-0.43839 2.3579,-1.2193 2.5986,-1.7272 0.31757,-0.67064 0.11726,-0.95335 -0.35159,-0.90187 z m 72.101,2.9654 -24.885,17.593 -8.5751,-0.99359 c 2.4357,-3.5628 4.3116,-4.2529 9.0642,-6.0835 3.1696,-1.2209 11.173,-4.6581 17.792,-7.6274 2.2182,-0.99509 4.4506,-1.9608 6.6033,-2.889 z m -172.42,0.22943 c -0.04821,0.0489 -0.10466,0.0889 -0.15288,0.13761 l -0.12235,-0.0145 0.275,-0.12211 z m -12.61,10.012 12.595,1.4674 c -4.668,1.0134 -8.8724,2.1747 -12.595,3.5004 z m 115.95,0.0145 c 0.45026,0.007 0.76774,0.10685 0.96299,0.30587 0.6508,0.66199 0.85523,1.0193 0.04579,1.9871 l -6.374,-0.7337 c 2.4656,-1.0462 4.2871,-1.5768 5.3651,-1.5591 z m -85.766,3.5004 62.93,7.3522 c -5.7465,0.59003 -10.707,1.2985 -11.632,1.819 -0.4625,0.26003 -0.65494,0.91359 -0.42798,1.4521 0.59216,1.4054 7.7595,2.013 17.349,1.4674 6.8941,-0.39224 9.6348,-0.2086 19.519,1.2993 17.599,2.6842 27.601,5.1445 38.534,10.027 v 13.436 c -0.89426,-0.54306 -1.8505,-1.0872 -2.8736,-1.6355 -3.3934,-1.8187 -8.2853,-4.7297 -10.868,-6.4657 -2.5825,-1.7361 -6.4704,-3.9817 -8.6362,-4.9983 -3.8745,-1.8183 -4.1483,-1.8575 -16.89,-1.9106 -14.33,-0.0596 -29.339,-1.8215 -35.462,-4.1729 -1.8658,-0.71645 -6.6205,-1.7478 -10.577,-2.2928 -3.9571,-0.54493 -9.7963,-1.4354 -12.962,-1.987 -3.1657,-0.55171 -9.4661,-1.1796 -14.017,-1.391 -1.4212,-0.0661 -2.7622,-0.11 -4.0353,-0.10685 -8.9117,0.0218 -14.789,1.8931 -25.878,7.7038 -3.4526,1.8092 -6.5558,3.2863 -6.8936,3.2863 -0.33773,0 -1.9355,1.0926 -3.5615,2.4304 -2.8021,2.3052 -2.9405,2.593 -2.5985,5.4109 0.32717,2.6962 0.86412,3.4072 5.7625,7.5662 3.0225,2.56642 7.7266,5.71022 10.684,7.13832 3.5892,1.7328 6.6246,3.8637 9.4463,6.6644 4.8261,4.79 12.444,9.624 17.914,11.357 6.0211,1.9073 11.571,4.291 16.065,6.909 2.2777,1.3269 6.6158,3.2426 9.6298,4.2493 3.014,1.0067 8.2227,2.7787 11.586,3.9436 13.356,4.6258 13.905,4.7555 21.751,5.1053 8.5125,0.3795 17.199,-0.5797 21.782,-2.4151 3.7383,-1.4972 13.913,-7.8396 19.535,-12.167 2.4332,-1.8732 6.6387,-4.3424 9.3546,-5.5027 0.60702,-0.2594 1.181,-0.5452 1.7425,-0.8407 v 13.619 c -2.497,1.4432 -4.9304,2.5003 -7.5204,3.2711 -2.0265,0.6031 -6.8171,2.2312 -10.639,3.6073 -8.3871,3.0203 -13.657,4.4023 -20.91,5.0747 l -43.533,-5.0747 c -1.7687,-0.8842 -3.5286,-1.8841 -5.3193,-3.0112 -2.5245,-1.5891 -6.4498,-4.0533 -8.728,-5.4874 -2.2781,-1.4341 -7.5005,-3.7851 -11.602,-5.2276 -7.5914,-2.6702 -12.558,-5.186 -23.463,-11.846 -3.3636,-2.0543 -9.2423,-5.1115 -13.054,-6.7867 -3.2765,-1.4402 -8.1563,-3.936 -11.693,-5.946 v -30.52502 c 6.3648,-3.3918 10.086,-4.6212 15.866,-5.2887 3.0846,-0.35617 6.2542,-0.82569 7.0465,-1.0547 5.5275,-1.5976 32.407,0.0773 43.609,2.7208 5.0724,1.1969 7.911,1.2362 9.584,0.12235 2.03,-1.3518 0.23064,-2.1075 -7.8414,-3.2864 -3.9571,-0.57794 -11.886,-1.8233 -17.624,-2.7666 -6.6472,-1.0928 -9.9142,-1.486 -14.231,-1.4827 -1.4388,0 -2.9964,0.0458 -4.8302,0.12211 -10.481,0.43657 -16.568,1.8018 -29.241,6.5115 -0.69777,0.2594 -1.5682,0.56048 -2.3386,0.84072 v -3.9742 c 12.615,-4.9053 19.915,-6.579 30.189,-6.8631 z m 108.86,12.702 17.41,2.033 v 5.3651 c -4.4347,-1.8426 -9.8859,-4.1561 -16.768,-7.123 -0.22168,-0.0955 -0.42492,-0.18219 -0.64205,-0.27501 z m -92.568,7.6274 c 4.4281,0 8.3311,0.99982 16.523,3.4698 6.4523,1.9453 15.458,4.5093 20.008,5.6862 l 8.2846,2.1399 10.073,-1.1005 c 5.5399,-0.6028 11.21,-1.0881 12.61,-1.0853 4.4539,0.01 10.878,1.9162 19.764,5.8849 4.7485,2.1207 11.042,4.5048 14.001,5.2887 3.6306,0.96187 6.7636,2.57877 8.7126,4.34097 v 8.3611 c -2.8103,4.2243 -7.8958,9.5967 -11.923,12.121 -3.2767,2.0544 -19.475,8.7418 -23.646,9.7673 -3.9861,0.98 -29.318,0.2256 -33.918,-1.0088 -1.9785,-0.5308 -7.3935,-1.9672 -12.045,-3.1946 -10.316,-2.7225 -11.836,-3.4018 -24.992,-11.388 -5.7461,-3.4882 -13.851,-7.8384 -18.006,-9.6603 -7.585,-3.3262 -10.338,-5.3584 -13.955,-10.28697 -2.2155,-3.0189 -2.3306,-5.7156 -0.3974,-9.0489 2.7648,-4.7674 8.8378,-7.6925 19.336,-9.3088 4.0576,-0.62463 6.9118,-0.97893 9.5685,-0.97826 z m 2.2317,5.1817 c -3.4653,-0.0121 -13.566,3.1762 -15.652,4.9372 -2.5839,2.1805 -2.4341,5.051 0.4891,9.0183 1.3907,1.88757 4.6778,4.71237 8.1012,6.98547 3.1657,2.1019 8.7262,6.3007 12.366,9.324 4.327,3.5944 8.4416,6.3213 11.877,7.872 5.2487,2.3692 24.11,7.32 26.367,6.9242 2.6218,-0.4598 1.078,-2.1086 -2.996,-3.2099 -2.2982,-0.6214 -7.4364,-2.3772 -11.433,-3.9131 -6.6331,-2.5488 -7.8802,-3.3243 -14.307,-8.9419 -7.0863,-6.1938 -10.73,-11.094 -10.73,-14.45997 0,-2.3118 4.8335,-6.4574 8.1929,-7.0312 1.7722,-0.30276 4.3868,-0.0782 7.5204,0.65724 10.142,2.3808 15.4,3.1214 16.004,2.2317 0.86974,-1.2812 0.24569,-1.7131 -4.2035,-2.8431 -2.268,-0.57601 -6.8023,-1.9434 -10.073,-3.0418 -6.267,-2.1 -17.652,-4.49 -21.519,-4.5 z m 61.569,10.608 c -0.85016,0.0475 -1.3604,0.29277 -1.3604,0.79481 0,0.59279 0.56089,1.2535 1.2534,1.4674 0.69247,0.21393 4.0866,1.5482 7.5357,2.96526 3.4492,1.4171 7.4907,2.7568 8.9878,2.9654 l 2.7208,0.3668 -2.033,-1.9718 c -3.2956,-3.20756 -13.421,-6.79366 -17.104,-6.58786 z m -48.21,0.71837 c -0.94455,0.0436 -1.574,0.28091 -2.4762,0.67255 -3.4391,1.4935 -3.366,3.90125 0.275,8.08595 4.6719,5.3689 9.1184,9.1849 13.161,11.296 6.9647,3.637 8.7044,2.3251 2.4763,-1.8647 -4.8853,-3.2866 -6.16,-4.9444 -6.16,-7.9484 0,-3.6127 2.0126,-4.9021 7.2758,-4.6926 3.7269,0.1486 4.2341,0.022 4.2341,-1.0547 0,-1.03845 -1.4215,-1.50285 -9.4005,-3.05705 -5.0423,-0.98227 -7.4203,-1.4212 -8.9572,-1.4368 -0.14924,0 -0.29308,-0.007 -0.428,0 z m 25.404,9.9508 c -6.2157,0.014 -11.49,0.1 -12.61,0.2597 -0.32433,0.047 -0.47808,0.7426 -0.35152,1.5439 0.1616,1.0242 2.0441,2.4764 6.3434,4.8913 6.202,3.4835 9.39,4.59 10.837,3.7754 0.51483,-0.2896 0.0097,-1.1943 -1.4369,-2.5526 -3.6011,-3.3835 -2.5885,-4.2978 4.8913,-4.3563 3.4202,-0.028 6.9342,-0.1718 7.8108,-0.321 2.1026,-0.358 5.1654,0.7398 5.7167,2.0482 0.84602,2.0077 -1.69,3.215 -8.2235,3.8978 -4.8277,0.5045 -6.3264,0.8969 -6.4962,1.7119 -0.69123,3.3164 19.814,2.0508 23.28,-1.4368 0.74552,-0.7503 1.0399,-1.7724 0.77952,-2.7055 -0.5394,-1.934 -4.2262,-5.5945 -6.3892,-6.3434 -0.80193,-0.2778 -13.792,-0.4387 -24.151,-0.4127 z m 53.942,3.7144 c -0.77985,-0.012 -1.4122,0.9072 -2.4304,3.0112 -1.9777,4.0875 -5.4772,7.8869 -9.5074,10.318 -3.3851,2.0413 -4.2504,3.6073 -1.9872,3.6073 2.3154,0 7.6232,-1.973 9.6298,-3.5768 2.3043,-1.8417 6.02,-7.1836 6.6797,-9.5992 0.3169,-1.1603 0.10079,-2.05 -0.70312,-2.7819 -0.68237,-0.6214 -1.2134,-0.9704 -1.6814,-0.9782 z m -141.42,0.5044 c 8.4767,4.7181 20.564,10.992 26.887,13.848 2.4278,1.097 6.9055,2.5801 9.9508,3.2863 5.5288,1.2822 6.7269,1.9193 14.964,7.979 2.3632,1.7384 5.1643,3.623 8.0706,5.4721 l -9.0183,-1.0547 c -1.9912,-1.2745 -4.3199,-2.8946 -5.9002,-4.127 -2.8545,-2.2266 -5.4296,-3.492 -9.7062,-4.769 -8.6777,-2.5913 -12.362,-4.1029 -19.366,-7.9484 -3.4895,-1.9157 -8.2334,-4.3545 -10.532,-5.411 -1.1269,-0.518 -3.1049,-1.5624 -5.3499,-2.7973 v -4.4785 z m 126.13,2.0635 c -0.93295,0.025 -2.0004,0.7878 -2.8278,2.3692 -1.6952,3.2398 -4.2479,4.715 -13.13,7.6121 -0.69252,0.2258 -1.2534,0.8698 -1.2534,1.4215 0,0.7708 0.84641,0.9936 3.6838,0.9936 2.0314,0 5.0357,-0.3517 6.6644,-0.7949 3.932,-1.0699 9.0791,-5.726 9.0642,-8.1929 -0.01211,-2.2574 -1.0016,-3.4409 -2.2011,-3.4086 z m 77.023,3.1794 -35.447,32.955 v -13.971 c 2.4252,-1.8473 4.8574,-3.5425 7.23,-5.0136 4.6596,-2.8888 20.197,-10.594 27.712,-13.757 l 0.50446,-0.2139 z m -203.16,7.1382 c 9.9681,5.6814 20.499,11.246 27.483,14.429 l -9.7979,-1.1463 c -6.0883,-3.0543 -12.83,-6.6473 -17.685,-9.5075 v -3.7755 z m 0,10.562 c 0.52675,0.2934 1.0353,0.5701 1.5438,0.8407 l -1.5438,-0.1834 z m 156.46,5.7168 v 7.7496 c -3.2377,1.3207 -6.8932,2.7107 -10.944,4.1576 l -12.687,-1.4673 c 8.1623,-2.7529 16.469,-6.4405 23.631,-10.44 z"
           inkscape:connector-curvature="0" />
      </g>
    </g>
    <text
       id="text4266"
       style="line-height:0%;font-family:'Plantagenet Cherokee';fill:#000000"
       xml:space="preserve"
       transform="translate(0,62.362)"
       y="748.57141"
       x="552.85712"><tspan
         id="tspan4268"
         sodipodi:role="line"
         x="552.85712"
         y="748.57141"
         style="font-size:20px;line-height:1.25"> </tspan></text>
  </g>
  <metadata
     id="metadata11">
    <rdf:RDF>
      <cc:Work>
        <dc:format>image/svg+xml</dc:format>
        <dc:type
           rdf:resource="http://purl.org/dc/dcmitype/StillImage" />
        <cc:license
           rdf:resource="http://creativecommons.org/licenses/publicdomain/" />
        <dc:publisher>
          <cc:Agent
             rdf:about="http://openclipart.org/">
            <dc:title>Openclipart</dc:title>
          </cc:Agent>
        </dc:publisher>
        <dc:title>Wood Block</dc:title>
        <dc:date>2012-06-13T13:02:54</dc:date>
        <dc:description>a wooden block. texture loosely based on photo</dc:description>
        <dc:source>https://openclipart.org/detail/170649/wood-block-by-last-dino-170649</dc:source>
        <dc:creator>
          <cc:Agent>
            <dc:title>Last-Dino</dc:title>
          </cc:Agent>
        </dc:creator>
        <dc:subject>
          <rdf:Bag>
            <rdf:li>2 by 4</rdf:li>
            <rdf:li>2x4</rdf:li>
            <rdf:li>b/w</rdf:li>
            <rdf:li>black</rdf:li>
            <rdf:li>block</rdf:li>
            <rdf:li>board</rdf:li>
            <rdf:li>bw</rdf:li>
            <rdf:li>construction</rdf:li>
            <rdf:li>craft</rdf:li>
            <rdf:li>mono</rdf:li>
            <rdf:li>monochrome</rdf:li>
            <rdf:li>oak</rdf:li>
            <rdf:li>plank</rdf:li>
            <rdf:li>tool</rdf:li>
            <rdf:li>two by four</rdf:li>
            <rdf:li>white</rdf:li>
            <rdf:li>wood</rdf:li>
            <rdf:li>wooden</rdf:li>
          </rdf:Bag>
        </dc:subject>
      </cc:Work>
      <cc:License
         rdf:about="http://creativecommons.org/licenses/publicdomain/">
        <cc:permits
           rdf:resource="http://creativecommons.org/ns#Reproduction" />
        <cc:permits
           rdf:resource="http://creativecommons.org/ns#Distribution" />
        <cc:permits
           rdf:resource="http://creativecommons.org/ns#DerivativeWorks" />
      </cc:License>
    </rdf:RDF>
  </metadata>
</svg>
