<?xml version="1.0" encoding="UTF-8" standalone="no"?>
<!-- Created with Inkscape (http://www.inkscape.org/) -->

<svg
   xmlns:dc="http://purl.org/dc/elements/1.1/"
   xmlns:cc="http://creativecommons.org/ns#"
   xmlns:rdf="http://www.w3.org/1999/02/22-rdf-syntax-ns#"
   xmlns:svg="http://www.w3.org/2000/svg"
   xmlns="http://www.w3.org/2000/svg"
   xmlns:sodipodi="http://sodipodi.sourceforge.net/DTD/sodipodi-0.dtd"
   xmlns:inkscape="http://www.inkscape.org/namespaces/inkscape"
   id="svg2"
   sodipodi:docname="hyatena-digohwelodi-Tableau-blanc.svg"
   viewBox="0 0 381.32 267.71"
   sodipodi:version="0.32"
   version="1.0"
   inkscape:output_extension="org.inkscape.output.svg.inkscape"
   inkscape:version="0.92.1 r15371"
   width="406.74133"
   height="285.55731">
  <defs
     id="defs25" />
  <sodipodi:namedview
     id="base"
     bordercolor="#666666"
     inkscape:pageshadow="2"
     inkscape:window-y="0"
     pagecolor="#ffffff"
     inkscape:window-height="868"
     inkscape:zoom="0.98994949"
     inkscape:window-x="0"
     showgrid="false"
     borderopacity="1.0"
     inkscape:current-layer="layer1"
     inkscape:cx="415.4061"
     inkscape:cy="692.23808"
     inkscape:window-width="1365"
     showborder="false"
     inkscape:pageopacity="0.0"
     inkscape:document-units="px" />
  <g
     id="layer1"
     inkscape:label="Calque 1"
     inkscape:groupmode="layer"
     transform="translate(-131.86,-154.22)">
    <path
       id="path2383"
       sodipodi:nodetypes="ccccc"
       style="fill:#ffffff;stroke:#000000;stroke-width:2;stroke-linecap:round;stroke-linejoin:round;stroke-dashoffset:1.5"
       d="m 147.14,156.65 v 248.57 h 353.44 l 2.28,-250 z"
       inkscape:connector-curvature="0" />
    <path
       id="path2385"
       sodipodi:nodetypes="ccccc"
       style="fill:#ffffff;stroke:#000000;stroke-width:2;stroke-linecap:round;stroke-linejoin:round;stroke-dashoffset:1.5"
       d="m 155.12,166.35 1.14,224.29 335.2,1.43 2.28,-225.72 z"
       inkscape:connector-curvature="0" />
    <g
       id="g2395"
       transform="matrix(1,0,0,0.85942,98.929,-50.847)">
      <path
         id="path2389"
         sodipodi:nodetypes="ccccccc"
         style="fill:#000000;stroke:#000000;stroke-width:2.15739989;stroke-linecap:round;stroke-linejoin:round;stroke-dashoffset:1.5"
         d="m 212.86,521.72 v 12.18 c 0.52,1.16 0.34,2.58 3.57,2.75 l 52.14,-0.39 c 1.95,-0.11 3.88,-0.24 3.96,-2.39 l -0.03,-13.65 z"
         inkscape:connector-curvature="0" />
      <path
         id="path2393"
         sodipodi:nodetypes="ccccc"
         style="fill:#ffffff;stroke:#000000;stroke-width:2.15739989;stroke-linecap:round;stroke-linejoin:round;stroke-dashoffset:1.5"
         d="m 210.36,502.72 v 18.21 l 65.35,-1.07 v -17.14 z"
         inkscape:connector-curvature="0" />
    </g>
    <path
       id="path2401"
       sodipodi:nodetypes="ccccc"
       style="fill:#ffffff;stroke:#000000;stroke-width:2;stroke-linecap:round;stroke-linejoin:round;stroke-dashoffset:1.5"
       d="m 439.75,399.04 14.15,-2.23 c 0.9,4.25 0.16,8.49 0,12.73 l -13.83,-2.22 z"
       inkscape:connector-curvature="0" />
    <path
       id="path2399"
       sodipodi:nodetypes="ccccc"
       style="fill:#ffffff;stroke:#000000;stroke-width:2;stroke-linecap:round;stroke-linejoin:round;stroke-dashoffset:1.5"
       d="m 389.57,395.58 c -0.98,5.6 -0.74,10.72 0,14.64 h 50.82 c 1.43,-4.53 1.65,-8.45 0,-14.33 z"
       inkscape:connector-curvature="0" />
    <path
       id="path2403"
       sodipodi:nodetypes="ccccc"
       style="fill:#ffffff;stroke:#000000;stroke-width:2;stroke-linecap:round;stroke-linejoin:round;stroke-dashoffset:1.5"
       d="m 454.52,406.04 h 3.62 l -0.06,-5.73 h -3.86 z"
       inkscape:connector-curvature="0" />
    <path
       id="path2387"
       sodipodi:nodetypes="ccccc"
       style="fill:#ffffff;stroke:#000000;stroke-width:2;stroke-linecap:round;stroke-linejoin:round;stroke-dashoffset:1.5"
       d="m 132.86,405.22 379.32,-0.09 -3.85,15.8 -371,-1.42 z"
       inkscape:connector-curvature="0" />
    <path
       id="path3193"
       sodipodi:nodetypes="cccc"
       style="fill:#ffffff;fill-rule:evenodd;stroke:#000000;stroke-width:2;stroke-linecap:round;stroke-linejoin:round"
       d="m 318.76,238.83 h 21.54 0.98"
       inkscape:connector-curvature="0" />
    <path
       id="path3196"
       sodipodi:nodetypes="ccccccccc"
       style="fill:none;stroke:#000000;stroke-width:2;stroke-linecap:round;stroke-linejoin:round"
       d="m 261.99,211.38 c 16.16,0.06 32.31,-1.64 48.47,-1.43 5.88,0.88 9.73,9.11 8.31,14.78 -0.1,10.41 0.33,20.83 -0.26,31.23 -1.41,5.4 -6.65,9.52 -11.92,8.32 -15.25,-0.1 -31.4,-0.67 -46.65,-1.07 -5.08,-0.46 -8.63,-7.5 -7.77,-13.67 0.17,-10.45 -0.54,-20.93 0.45,-31.35 1.29,-3.94 5.22,-6.92 9.37,-6.81 z"
       inkscape:connector-curvature="0" />
    <path
       id="path3198"
       style="fill:#ffffff;fill-rule:evenodd;stroke:#000000;stroke-width:2;stroke-linecap:round;stroke-linejoin:round"
       d="m 366.99,285.61 c -9.38,9.15 -18.77,18.3 -28.16,27.45 9.64,9.15 19.27,18.3 28.9,27.45 8.65,-9.15 17.29,-18.3 25.94,-27.45 -8.89,-9.15 -17.79,-18.3 -26.68,-27.45 z"
       inkscape:connector-curvature="0" />
    <path
       id="path3200"
       style="fill:#ffffff;stroke:#000000;stroke-width:2;stroke-linecap:round;stroke-linejoin:round"
       d="m 391.18,239.54 c 1.26,25.35 -34.01,37.79 -45.89,15.89 -13.13,-18.25 4.43,-49.17 24.85,-42.68 11.3,2.11 21.94,13.29 21.04,26.79 z"
       inkscape:export-ydpi="300"
       inkscape:export-filename="/Volumes/LOUIS/Arborescence /isotype/catégorie_1.png"
       inkscape:export-xdpi="300"
       inkscape:connector-curvature="0" />
    <path
       id="path3202"
       sodipodi:nodetypes="cc"
       style="fill:#ffffff;fill-rule:evenodd;stroke:#000000;stroke-width:2;stroke-linecap:round;stroke-linejoin:round"
       d="m 366.74,266.29 v 18.3"
       inkscape:connector-curvature="0" />
    <path
       id="path3204"
       sodipodi:nodetypes="cccc"
       style="fill:#ffffff;fill-rule:evenodd;stroke:#000000;stroke-width:2;stroke-linecap:round;stroke-linejoin:round"
       d="m 340.79,314.07 -39.66,2.04 c -8.38,0.07 -12.67,-2.86 -14.68,-13.22 v -38.64"
       inkscape:connector-curvature="0" />
    <path
       id="path3206"
       sodipodi:nodetypes="cccc"
       style="fill:#ffffff;fill-rule:evenodd;stroke:#000000;stroke-width:2;stroke-linecap:round;stroke-linejoin:round"
       d="m 331,231.72 -0.49,13.72 9.79,-7.11 z"
       inkscape:connector-curvature="0" />
    <path
       id="path3208"
       sodipodi:nodetypes="cccc"
       style="fill:#ffffff;fill-rule:evenodd;stroke:#000000;stroke-width:2;stroke-linecap:round;stroke-linejoin:round"
       d="m 373.6,275.03 -13.72,0.32 7.34,8.05 z"
       inkscape:connector-curvature="0" />
    <path
       id="path3210"
       sodipodi:nodetypes="cccc"
       style="fill:#ffffff;fill-rule:evenodd;stroke:#000000;stroke-width:2;stroke-linecap:round;stroke-linejoin:round"
       d="m 280.74,272.5 13.69,-0.9 -7.65,-7.73 z"
       inkscape:connector-curvature="0" />
  </g>
  <metadata
     id="metadata22">
    <rdf:RDF>
      <cc:Work>
        <dc:format>image/svg+xml</dc:format>
        <dc:type
           rdf:resource="http://purl.org/dc/dcmitype/StillImage" />
        <cc:license
           rdf:resource="http://creativecommons.org/licenses/publicdomain/" />
        <dc:publisher>
          <cc:Agent
             rdf:about="http://openclipart.org/">
            <dc:title>Openclipart</dc:title>
          </cc:Agent>
        </dc:publisher>
        <dc:title>Tableau blanc / White board</dc:title>
        <dc:date>2010-04-23T01:56:45</dc:date>
        <dc:description />
        <dc:source>https://openclipart.org/detail/50305/tableau-blanc-/-white-board-by-lmproulx</dc:source>
        <dc:creator>
          <cc:Agent>
            <dc:title>lmproulx</dc:title>
          </cc:Agent>
        </dc:creator>
        <dc:subject>
          <rdf:Bag>
            <rdf:li>black and white</rdf:li>
            <rdf:li>blackboard</rdf:li>
            <rdf:li>colouring book</rdf:li>
            <rdf:li>outline</rdf:li>
            <rdf:li>school</rdf:li>
            <rdf:li>whiteboard</rdf:li>
          </rdf:Bag>
        </dc:subject>
      </cc:Work>
      <cc:License
         rdf:about="http://creativecommons.org/licenses/publicdomain/">
        <cc:permits
           rdf:resource="http://creativecommons.org/ns#Reproduction" />
        <cc:permits
           rdf:resource="http://creativecommons.org/ns#Distribution" />
        <cc:permits
           rdf:resource="http://creativecommons.org/ns#DerivativeWorks" />
      </cc:License>
    </rdf:RDF>
  </metadata>
</svg>
