<?xml version="1.0" encoding="UTF-8" standalone="no"?>
<svg
   xmlns:dc="http://purl.org/dc/elements/1.1/"
   xmlns:cc="http://creativecommons.org/ns#"
   xmlns:rdf="http://www.w3.org/1999/02/22-rdf-syntax-ns#"
   xmlns:svg="http://www.w3.org/2000/svg"
   xmlns="http://www.w3.org/2000/svg"
   xmlns:sodipodi="http://sodipodi.sourceforge.net/DTD/sodipodi-0.dtd"
   xmlns:inkscape="http://www.inkscape.org/namespaces/inkscape"
   width="432.91666"
   height="211.125"
   viewBox="0 0 324.6875 158.34375"
   version="1.1"
   id="svg2"
   inkscape:version="0.92.1 r15371"
   sodipodi:docname="jisdu-AnimalSilhouettes2-Rabbit.svg">
  <metadata
     id="metadata11474">
    <rdf:RDF>
      <cc:Work
         rdf:about="">
        <dc:format>image/svg+xml</dc:format>
        <dc:type
           rdf:resource="http://purl.org/dc/dcmitype/StillImage" />
        <dc:title />
      </cc:Work>
    </rdf:RDF>
  </metadata>
  <defs
     id="defs11472" />
  <sodipodi:namedview
     pagecolor="#ffffff"
     bordercolor="#666666"
     borderopacity="1"
     objecttolerance="10"
     gridtolerance="10"
     guidetolerance="10"
     inkscape:pageopacity="0"
     inkscape:pageshadow="2"
     inkscape:window-width="1855"
     inkscape:window-height="1056"
     id="namedview11470"
     showgrid="false"
     units="in"
     fit-margin-top="0.25"
     fit-margin-left="0.25"
     fit-margin-right="0.25"
     fit-margin-bottom="0.25"
     inkscape:zoom="0.56869759"
     inkscape:cx="162.60283"
     inkscape:cy="538.38793"
     inkscape:window-x="65"
     inkscape:window-y="24"
     inkscape:window-maximized="1"
     inkscape:current-layer="svg2" />
  <path
     d="m 212.9325,18.7025 c 0.47,-0.16 1.41,-0.47 1.88,-0.63 0.29,-0.01 0.87,-0.02 1.16,-0.02 0.26,0.12 0.79,0.37 1.05,0.5 l 0.5,0.33 c 0.24,0.18 0.72,0.53 0.96,0.7 0.24,0.2 0.73,0.59 0.97,0.78 0.21,0.22 0.63,0.67 0.84,0.89 l 0.61,0.32 c 0.26,0.22 0.78,0.66 1.05,0.88 0.25,0.23 0.77,0.69 1.03,0.93 0.25,0.23 0.77,0.71 1.02,0.95 0.25,0.24 0.76,0.72 1.01,0.96 0.25,0.25 0.74,0.73 0.99,0.98 0.25,0.24 0.73,0.73 0.98,0.98 0.24,0.24 0.72,0.73 0.96,0.98 0.24,0.25 0.71,0.75 0.95,1.01 0.24,0.26 0.71,0.78 0.94,1.04 0.23,0.28 0.69,0.83 0.92,1.11 0.22,0.3 0.66,0.91 0.88,1.21 l 0.44,0.66 c 0.2,0.33 0.62,0.99 0.83,1.32 l 0.4,0.69 c 0.2,0.33 0.58,1 0.77,1.33 l 0.21,0.75 c 0.21,0.28 0.63,0.83 0.84,1.11 l 0.2,0.73 c 0.21,0.28 0.62,0.84 0.83,1.11 l 0.23,0.72 c 0.21,0.26 0.64,0.8 0.85,1.06 0.2,0.3 0.6,0.9 0.8,1.2 l 0.3,0.68 c 0.24,0.23 0.71,0.69 0.94,0.92 0.24,0.25 0.72,0.75 0.95,0.99 0.26,0.22 0.78,0.66 1.04,0.88 0.19,0.24 0.59,0.72 0.79,0.96 l 0.58,0.34 0.35,0.58 0.86,0.07 0.88,0.1 0.82,0.37 c 0.59,0.23 1.77,0.68 2.36,0.9 l 0.93,0.24 c 0.93,1.11 2.08,1.42 3.45,0.91 0.47,0.09 1.41,0.29 1.87,0.38 0.59,0.2 1.75,0.59 2.34,0.79 l 0.8,0.3 c 0.29,0.21 0.88,0.61 1.17,0.82 l 0.74,0.15 c 0.31,0.18 0.92,0.55 1.23,0.74 l 0.6,0.39 c 0.29,0.19 0.85,0.59 1.14,0.78 0.27,0.21 0.81,0.62 1.08,0.83 0.27,0.21 0.82,0.64 1.09,0.86 l 0.55,0.44 c 0.26,0.23 0.79,0.69 1.05,0.91 0.25,0.24 0.74,0.72 0.98,0.96 0.24,0.26 0.7,0.76 0.94,1.01 l 0.32,0.64 c 0.23,0.22 0.71,0.66 0.95,0.88 0.21,0.27 0.64,0.81 0.85,1.07 0.21,0.28 0.64,0.82 0.85,1.09 0.21,0.28 0.63,0.85 0.84,1.13 l 0.42,0.6 c 0.2,0.29 0.61,0.87 0.82,1.16 0.2,0.3 0.6,0.9 0.8,1.19 l 0.4,0.63 c 0.19,0.31 0.58,0.94 0.77,1.25 0.18,0.32 0.55,0.98 0.73,1.31 l 0.35,0.72 c 0.15,0.37 0.45,1.11 0.6,1.48 l 0.18,0.84 0.18,0.88 c -0.34,1.21 -0.34,2.42 0,3.65 -0.09,0.41 -0.28,1.22 -0.38,1.63 -0.13,0.36 -0.4,1.06 -0.53,1.42 l -0.35,0.65 c -0.2,0.29 -0.59,0.87 -0.79,1.16 -0.27,0.23 -0.8,0.68 -1.07,0.9 l -0.62,0.42 c -0.33,0.18 -1,0.53 -1.33,0.71 l -0.76,0.33 c -0.56,0.19 -1.67,0.56 -2.23,0.75 -0.44,0.08 -1.32,0.24 -1.76,0.32 l -0.89,0.08 c -1.28,-0.79 -2.29,-0.54 -3.03,0.75 -0.46,0.05 -1.38,0.14 -1.84,0.19 -1.32,-0.61 -2.42,-0.34 -3.31,0.79 -0.46,0.06 -1.38,0.16 -1.84,0.21 -0.57,0.23 -1.7,0.7 -2.26,0.93 l -0.9,0.02 c -0.51,0.24 -1.53,0.7 -2.04,0.94 l -0.67,0.4 c -0.28,0.21 -0.85,0.63 -1.14,0.83 -0.2,0.27 -0.62,0.81 -0.82,1.08 l -0.38,0.59 c -0.17,0.32 -0.49,0.97 -0.65,1.29 l -0.31,0.74 c -0.21,0.52 -0.63,1.58 -0.85,2.11 l -0.1,0.89 c -1.18,0.79 -1.51,1.86 -0.99,3.2 -0.01,0.69 -0.03,2.06 -0.04,2.74 -1.43,0.59 -1.81,1.52 -1.13,2.81 0.93,1.5 2.16,2.79 3.45,4.01 0.91,1.43 2.76,0.75 3.93,0.11 l 0.89,0.01 c 0.69,0.07 2.06,0.22 2.74,0.29 0.95,1.31 2.76,1.56 4.1,0.68 l 0.91,0.04 c 0.69,0.08 2.07,0.24 2.76,0.32 1.17,1.11 2.91,1.39 4.38,0.72 0.7,0.06 2.1,0.19 2.8,0.26 0.89,1.11 1.99,1.37 3.31,0.78 0.69,0.05 2.08,0.16 2.77,0.21 0.87,1.13 1.96,1.4 3.27,0.82 0.46,0.05 1.39,0.16 1.85,0.21 0.89,1.11 1.99,1.37 3.31,0.79 0.45,0.06 1.37,0.19 1.82,0.25 0.55,0.18 1.63,0.55 2.18,0.73 l 0.88,0.03 0.87,0.09 c 0.49,0.23 1.47,0.69 1.96,0.93 l 0.88,-0.01 h 0.9 c 0.52,0.22 1.57,0.65 2.09,0.86 l 0.88,0.09 0.88,0.15 c 0.55,0.22 1.67,0.67 2.23,0.89 h 0.91 c 0.55,0.25 1.65,0.76 2.2,1.01 l 0.9,0.06 c 0.46,0.37 1.38,1.1 1.84,1.46 l 0.83,0.28 c -0.11,0.37 -0.32,1.1 -0.43,1.47 -0.18,0.27 -0.54,0.82 -0.71,1.09 -0.16,0.24 -0.46,0.71 -0.62,0.95 -0.13,0.22 -0.39,0.67 -0.53,0.89 -0.11,0.23 -0.33,0.68 -0.43,0.91 -0.06,0.25 -0.18,0.75 -0.24,1 l -0.03,0.54 c 0.02,0.27 0.06,0.8 0.09,1.07 0.09,0.28 0.26,0.82 0.35,1.09 0.15,0.29 0.44,0.86 0.59,1.15 0.18,0.33 0.54,1 0.71,1.34 0.05,0.41 0.15,1.24 0.19,1.65 -0.07,0.4 -0.22,1.19 -0.3,1.59 -0.14,0.3 -0.41,0.9 -0.55,1.2 -1.24,-0.39 -2.45,-0.28 -3.63,0.31 -1.62,0 -3.24,-0.06 -4.85,-0.1 -0.92,-1.13 -2.04,-1.38 -3.36,-0.77 -0.45,-0.06 -1.34,-0.19 -1.79,-0.25 l -0.31,-0.8 -0.87,-0.03 c -0.45,-0.01 -1.36,-0.02 -1.81,-0.02 l -0.92,-0.1 c -0.59,-0.22 -1.76,-0.66 -2.35,-0.88 l -0.91,-0.23 c -0.58,-0.21 -1.73,-0.62 -2.31,-0.83 l -0.83,-0.27 c -0.31,-0.18 -0.94,-0.53 -1.25,-0.71 l -0.77,-0.08 -0.73,-0.25 c -0.35,-0.14 -1.04,-0.41 -1.39,-0.55 l -0.72,-0.27 c -0.29,-0.17 -0.89,-0.52 -1.19,-0.69 l -0.76,-0.1 -0.72,-0.28 c -0.35,-0.14 -1.05,-0.42 -1.39,-0.57 l -0.73,-0.27 c -0.3,-0.18 -0.9,-0.52 -1.2,-0.7 l -0.76,-0.1 -0.72,-0.27 c -0.35,-0.14 -1.05,-0.41 -1.4,-0.55 l -0.74,-0.25 -0.36,-0.66 -0.83,-0.03 -0.85,-0.05 -0.83,-0.23 c -1.12,-1.17 -2.82,-1.63 -4.3,-0.93 -1.95,-0.11 -3.9,-0.21 -5.84,-0.29 -1.13,-1.2 -2.86,-1.42 -4.33,-0.78 -0.45,-0.04 -1.36,-0.13 -1.81,-0.17 -0.83,-1.17 -1.9,-1.47 -3.2,-0.88 -0.46,-0.03 -1.37,-0.09 -1.83,-0.12 -0.55,-0.25 -1.66,-0.74 -2.21,-0.99 l -0.91,0.04 c -0.52,-0.24 -1.57,-0.73 -2.09,-0.97 l -0.83,-0.13 c -0.31,-0.18 -0.93,-0.52 -1.24,-0.7 l -0.81,-0.05 -0.83,-0.13 c -0.52,-0.25 -1.56,-0.74 -2.09,-0.99 l -0.9,0.02 c -0.54,-0.26 -1.62,-0.77 -2.16,-1.03 -0.55,-0.26 -1.64,-0.77 -2.18,-1.03 h -0.9 c -0.53,-0.24 -1.59,-0.72 -2.12,-0.97 l -0.82,-0.14 c -0.32,-0.18 -0.94,-0.53 -1.25,-0.7 l -0.82,-0.07 -0.81,-0.17 c -0.53,-0.22 -1.58,-0.64 -2.1,-0.85 l -0.8,-0.29 c -0.38,-0.15 -1.12,-0.47 -1.5,-0.62 l -0.79,-0.31 c -0.51,-0.23 -1.51,-0.7 -2.01,-0.93 l -0.64,-0.47 c -0.27,-0.24 -0.8,-0.72 -1.07,-0.96 l -0.49,-0.51 c -0.29,-0.09 -0.87,-0.28 -1.15,-0.38 -0.2,-0.25 -0.58,-0.76 -0.77,-1.01 l -0.74,-0.3 -0.73,-0.36 c -0.55,-0.18 -1.66,-0.54 -2.21,-0.72 l -0.88,-0.21 c -0.86,-1.16 -1.95,-1.45 -3.26,-0.86 -0.7,-0.06 -2.09,-0.19 -2.78,-0.26 -1.15,-1.16 -2.87,-1.43 -4.33,-0.74 -1.67,-0.05 -4.99,-0.15 -6.66,-0.2 l -0.61,-0.68 -0.94,0.01 c -4.66,-0.1 -9.31,-0.09 -13.96,-0.23 -0.48,-0.04 -1.45,-0.12 -1.94,-0.16 -0.57,-0.23 -1.72,-0.71 -2.3,-0.95 l -0.82,-0.26 c -0.31,-0.19 -0.93,-0.56 -1.24,-0.75 l -0.77,-0.1 -0.71,-0.3 c -0.34,-0.16 -1.02,-0.48 -1.35,-0.64 l -0.69,-0.34 c -0.32,-0.17 -0.98,-0.5 -1.3,-0.67 -0.28,-0.2 -0.83,-0.59 -1.11,-0.79 l -0.72,-0.18 c -0.28,-0.19 -0.85,-0.58 -1.13,-0.78 l -0.73,-0.17 c -0.29,-0.2 -0.86,-0.59 -1.14,-0.78 l -0.74,-0.17 c -0.29,-0.2 -0.87,-0.59 -1.16,-0.78 l -0.74,-0.17 c -0.29,-0.2 -0.87,-0.58 -1.16,-0.78 l -0.75,-0.16 c -0.29,-0.19 -0.88,-0.57 -1.18,-0.76 l -0.76,-0.16 c -0.31,-0.18 -0.92,-0.55 -1.23,-0.74 l -0.81,-0.13 -0.79,-0.28 c -0.39,-0.14 -1.18,-0.41 -1.57,-0.54 l -0.85,-0.22 -0.26,-0.81 h -0.86 c -1.46,-0.44 -3.01,-0.55 -4.5,-0.16 -0.31,0.22 -0.95,0.66 -1.27,0.88 l -0.91,0.27 c -0.63,0.18 -1.89,0.53 -2.51,0.71 l -0.88,0.15 -0.84,0.13 -0.22,0.66 -0.67,0.24 c -0.25,0.22 -0.75,0.64 -1,0.86 -0.33,0.17 -0.98,0.5 -1.31,0.67 l -0.67,0.36 c -0.32,0.18 -0.96,0.53 -1.28,0.71 l -0.73,0.19 c -0.26,0.2 -0.8,0.61 -1.07,0.81 l -0.71,0.17 c -0.27,0.19 -0.81,0.58 -1.08,0.77 l -0.71,0.16 c -0.28,0.2 -0.83,0.58 -1.1,0.77 -0.34,0.16 -1.02,0.47 -1.37,0.62 l -0.75,0.3 -0.84,0.09 c -0.53,0.24 -1.58,0.71 -2.11,0.94 -0.46,0.09 -1.38,0.26 -1.84,0.34 h -0.96 c -6.93,-0.07 -13.85,0.08 -20.77,0.09 -1.6,-0.06 -3.19,-0.1 -4.78,-0.14 -1.76,-0.68 -3.71,-0.38 -5.14,0.88 -0.45,0.04 -1.35,0.14 -1.8,0.19 -0.57,0.23 -1.72,0.67 -2.29,0.9 l -0.91,0.13 c -0.55,0.23 -1.65,0.7 -2.21,0.93 l -0.78,0.34 c -0.35,0.17 -1.05,0.52 -1.4,0.69 l -0.69,0.36 c -0.32,0.18 -0.96,0.54 -1.27,0.73 l -0.63,0.38 c -0.29,0.19 -0.86,0.57 -1.15,0.76 -0.28,0.2 -0.83,0.59 -1.11,0.79 l -0.63,0.28 c -0.22,0.23 -0.67,0.68 -0.9,0.9 -0.26,0.22 -0.78,0.66 -1.04,0.88 -0.25,0.23 -0.76,0.68 -1.02,0.91 -0.25,0.23 -0.75,0.7 -1,0.94 -0.25,0.24 -0.75,0.72 -1,0.96 -0.25,0.25 -0.75,0.74 -1.01,0.99 -0.25,0.24 -0.75,0.74 -1,0.99 -0.25,0.25 -0.76,0.75 -1.01,1 -0.25,0.25 -0.76,0.74 -1.01,0.99 -0.25,0.24 -0.76,0.73 -1.02,0.98 -0.26,0.24 -0.77,0.72 -1.03,0.96 -0.26,0.24 -0.78,0.7 -1.04,0.94 -0.26,0.22 -0.8,0.67 -1.06,0.9 l -0.65,0.3 c -0.23,0.24 -0.68,0.7 -0.91,0.93 -0.27,0.21 -0.82,0.62 -1.09,0.83 -0.28,0.2 -0.84,0.61 -1.11,0.81 l -0.68,0.24 c -0.25,0.22 -0.74,0.66 -0.99,0.88 -0.32,0.19 -0.97,0.56 -1.3,0.75 l -0.71,0.37 c -0.37,0.18 -1.11,0.53 -1.47,0.71 l -0.83,0.34 c -0.61,0.18 -1.84,0.56 -2.45,0.74 -0.47,0.08 -1.41,0.24 -1.88,0.32 l -0.94,0.1 c -1.18,-0.54 -2.39,-0.63 -3.63,-0.24 l -0.8,-0.2 -0.71,-0.26 c -0.31,-0.17 -0.94,-0.5 -1.25,-0.67 -0.18,-0.28 -0.54,-0.86 -0.72,-1.14 0,-0.38 0.01,-1.14 0.01,-1.51 l 0.09,-0.75 c 0.23,-0.25 0.7,-0.76 0.93,-1.02 l 0.5,-0.48 c 0.26,-0.22 0.77,-0.66 1.03,-0.88 0.27,-0.21 0.82,-0.62 1.1,-0.82 l 0.58,-0.41 c 0.29,-0.21 0.86,-0.62 1.14,-0.82 0.29,-0.21 0.87,-0.63 1.15,-0.85 l 0.59,-0.43 c 0.28,-0.22 0.84,-0.67 1.12,-0.89 0.27,-0.22 0.8,-0.68 1.06,-0.91 0.26,-0.23 0.77,-0.7 1.02,-0.93 0.25,-0.24 0.75,-0.71 1,-0.95 0.25,-0.24 0.74,-0.72 0.98,-0.96 0.25,-0.24 0.74,-0.73 0.99,-0.97 0.24,-0.25 0.73,-0.74 0.98,-0.98 0.25,-0.25 0.74,-0.74 0.99,-0.99 0.25,-0.25 0.74,-0.75 0.99,-1 0.25,-0.25 0.75,-0.75 1,-1.01 0.25,-0.25 0.76,-0.76 1.01,-1.02 0.25,-0.26 0.75,-0.78 1,-1.04 0.24,-0.26 0.74,-0.79 0.99,-1.06 0.24,-0.26 0.73,-0.8 0.98,-1.07 0.23,-0.28 0.71,-0.83 0.95,-1.1 0.25,-0.23 0.74,-0.69 0.99,-0.92 l 0.33,-0.64 c 0.23,-0.26 0.68,-0.78 0.9,-1.04 0.22,-0.24 0.66,-0.72 0.88,-0.96 0.21,-0.23 0.62,-0.69 0.83,-0.92 0.2,-0.23 0.58,-0.68 0.78,-0.9 0.18,-0.23 0.54,-0.68 0.72,-0.9 0.18,-0.24 0.52,-0.7 0.7,-0.94 0.18,-0.24 0.54,-0.74 0.72,-0.99 l 0.43,-0.52 c 0.24,-0.28 0.73,-0.84 0.98,-1.13 2.16,-0.77 -0.43,-2.83 -0.75,-0.57 l -0.66,0.39 c -0.24,0.24 -0.72,0.71 -0.96,0.95 -0.32,0.14 -0.95,0.4 -1.26,0.53 l -0.63,0.3 c -0.29,0.16 -0.89,0.48 -1.18,0.64 l -0.67,0.2 c -0.25,0.2 -0.75,0.59 -1.01,0.79 -0.3,0.18 -0.91,0.54 -1.21,0.72 l -0.64,0.37 c -0.31,0.19 -0.94,0.55 -1.25,0.74 l -0.72,0.22 c -0.26,0.21 -0.8,0.63 -1.07,0.85 -0.32,0.18 -0.97,0.56 -1.29,0.74 l -0.68,0.38 c -0.34,0.19 -1,0.57 -1.33,0.76 l -0.68,0.38 c -0.33,0.19 -0.97,0.56 -1.3,0.75 l -0.72,0.22 c -0.27,0.21 -0.8,0.63 -1.06,0.85 -0.32,0.18 -0.95,0.55 -1.26,0.74 l -0.66,0.38 c -0.32,0.19 -0.95,0.56 -1.27,0.75 l -0.72,0.22 c -0.26,0.21 -0.8,0.64 -1.07,0.85 -0.32,0.19 -0.97,0.56 -1.3,0.74 l -0.68,0.38 c -0.33,0.19 -1,0.56 -1.33,0.74 l -0.69,0.36 c -0.33,0.17 -0.99,0.51 -1.32,0.67 l -0.73,0.22 c -0.23,0.22 -0.7,0.67 -0.93,0.9 l -0.77,0.08 c -0.25,0.19 -0.76,0.58 -1.01,0.78 l -0.84,-0.02 c -0.33,0.17 -1,0.51 -1.33,0.67 l -0.85,0.33 c -0.62,0.15 -1.86,0.45 -2.48,0.6 -0.69,-0.02 -2.07,-0.06 -2.75,-0.09 -0.37,-0.13 -1.09,-0.41 -1.45,-0.55 l -0.78,-0.03 c -0.22,-0.3 -0.65,-0.89 -0.87,-1.19 v -0.75 c 0.2,-0.31 0.6,-0.92 0.81,-1.23 0.26,-0.28 0.8,-0.84 1.07,-1.13 l 0.52,-0.58 c 0.24,-0.27 0.72,-0.81 0.96,-1.08 0.24,-0.26 0.71,-0.77 0.94,-1.02 0.23,-0.24 0.69,-0.73 0.92,-0.97 0.23,-0.24 0.69,-0.71 0.92,-0.95 0.23,-0.23 0.69,-0.7 0.92,-0.93 0.23,-0.24 0.7,-0.7 0.94,-0.94 0.24,-0.23 0.72,-0.71 0.96,-0.94 0.25,-0.24 0.75,-0.71 0.99,-0.95 0.26,-0.24 0.77,-0.71 1.03,-0.95 0.27,-0.24 0.8,-0.71 1.07,-0.95 0.28,-0.24 0.84,-0.71 1.13,-0.94 l 0.59,-0.48 c 0.28,-0.24 0.86,-0.7 1.14,-0.94 0.28,-0.23 0.84,-0.69 1.12,-0.93 0.27,-0.22 0.83,-0.68 1.1,-0.91 0.28,-0.23 0.85,-0.68 1.13,-0.9 l 0.67,-0.3 c 0.24,-0.24 0.72,-0.72 0.96,-0.96 0.29,-0.22 0.87,-0.65 1.16,-0.87 0.29,-0.21 0.87,-0.64 1.16,-0.86 l 0.7,-0.28 c 0.25,-0.23 0.75,-0.69 1,-0.92 0.3,-0.2 0.9,-0.61 1.21,-0.81 l 0.7,-0.26 c 0.25,-0.22 0.76,-0.66 1.01,-0.88 0.31,-0.19 0.92,-0.57 1.22,-0.76 l 0.7,-0.22 c 0.26,-0.21 0.78,-0.62 1.04,-0.83 l 0.69,-0.2 c 0.26,-0.2 0.78,-0.6 1.05,-0.8 0.31,-0.16 0.93,-0.5 1.24,-0.67 l 0.64,-0.35 0.74,-0.09 0.73,-0.03 0.44,-0.8 0.92,-0.19 c 10.11,-0.22 20.28,0.37 30.34,-0.85 0.48,-0.05 1.44,-0.15 1.92,-0.21 0.49,-0.31 1.48,-0.94 1.98,-1.26 l 0.66,-0.42 c 0.28,-0.21 0.83,-0.61 1.11,-0.82 0.21,-0.21 0.64,-0.65 0.86,-0.87 0.19,-0.21 0.57,-0.65 0.76,-0.87 0.19,-0.23 0.56,-0.7 0.74,-0.94 0.23,-0.17 0.69,-0.52 0.92,-0.69 l 0.33,-0.66 c 0.17,-0.58 0.51,-1.74 0.68,-2.31 0.14,-0.45 0.42,-1.35 0.56,-1.8 0.19,-0.6 0.56,-1.79 0.75,-2.38 l 0.17,-0.88 c 0.22,-0.31 0.67,-0.93 0.89,-1.24 0.02,-0.43 0.06,-1.31 0.08,-1.75 v -0.91 c 0.25,-0.56 0.75,-1.67 1,-2.23 l 0.06,-0.92 c 0.27,-0.55 0.79,-1.66 1.05,-2.21 0.23,-0.54 0.7,-1.61 0.93,-2.15 l 0.33,-0.76 c 0.16,-0.34 0.47,-1.03 0.62,-1.37 l 0.29,-0.67 c 0.14,-0.32 0.41,-0.95 0.55,-1.26 l 0.25,-0.64 c 0.14,-0.25 0.44,-0.76 0.58,-1.01 l 0.05,-0.65 c 0.18,-0.26 0.56,-0.78 0.75,-1.04 -0.3,-0.41 -0.9,-1.22 -1.2,-1.63 l -0.46,-0.76 c -0.54,-0.2 -1.6,-0.59 -2.14,-0.79 -0.14,-0.29 -0.43,-0.85 -0.58,-1.14 l -0.57,-0.45 c -0.22,-0.29 -0.67,-0.88 -0.89,-1.17 -0.01,-0.42 -0.02,-1.26 -0.03,-1.68 l 0.02,-0.87 c 0.16,-0.22 0.48,-0.66 0.64,-0.88 l 0.13,-0.6 c 0.2,-0.22 0.61,-0.66 0.81,-0.88 0.24,-0.2 0.71,-0.59 0.95,-0.79 0.32,-0.11 0.94,-0.33 1.26,-0.44 1.01,-0.14 2.02,-0.23 3.04,-0.29 0.34,0.09 1.03,0.26 1.37,0.35 l 0.62,0.38 c 0.26,0.23 0.79,0.68 1.05,0.91 l 0.46,0.53 c 0.2,0.28 0.61,0.84 0.81,1.12 l 0.42,0.57 0.41,0.6 c 0.28,0.15 0.84,0.46 1.12,0.62 -0.13,1.65 0.38,1.83 1.51,0.53 l 0.79,-0.15 c 0.36,-0.12 1.07,-0.34 1.42,-0.46 l 0.7,-0.29 0.75,0.07 0.73,0.07 0.41,-0.54 0.67,-0.21 c 0.24,-0.21 0.74,-0.63 0.98,-0.84 l 0.72,-0.25 c 0.36,-0.14 1.08,-0.41 1.44,-0.55 l 0.78,-0.31 c 0.55,-0.24 1.64,-0.71 2.18,-0.95 0.56,-0.24 1.68,-0.74 2.24,-0.99 l 0.92,0.01 c 1.42,0.41 2.47,0.01 3.14,-1.2 1.92,0.16 3.84,0.24 5.77,0.35 2.5,1.42 4.95,1.59 7.33,0.49 1.25,0.08 2.5,0.16 3.75,0.26 0.79,1.15 1.87,1.51 3.22,1.08 0.7,-0.02 2.1,-0.07 2.81,-0.09 0.8,1.17 1.87,1.49 3.21,0.96 l 0.89,0.01 c 0.48,0.24 1.45,0.71 1.93,0.95 l 0.89,-0.01 h 0.91 c 0.56,0.25 1.68,0.75 2.24,1 0.46,0.02 1.38,0.07 1.84,0.1 0.56,0.25 1.68,0.76 2.24,1.02 h 0.92 c 0.55,0.26 1.64,0.8 2.18,1.06 0.54,0.22 1.63,0.65 2.17,0.87 l 0.81,0.24 c 0.3,0.18 0.89,0.54 1.18,0.72 l 0.76,0.09 0.72,0.26 c 0.35,0.15 1.04,0.45 1.39,0.6 l 0.73,0.32 c 0.36,0.17 1.08,0.52 1.45,0.69 l 0.78,0.39 c 0.57,0.19 1.7,0.57 2.27,0.76 0.26,0.23 0.77,0.68 1.02,0.91 l 0.72,0.25 c 0.29,0.18 0.87,0.54 1.16,0.72 l 0.74,0.13 c 0.28,0.2 0.83,0.59 1.11,0.79 l 0.74,0.17 c 0.3,0.16 0.9,0.48 1.2,0.65 l 0.78,0.03 c 0.2,0.26 0.61,0.78 0.81,1.04 l 0.77,0.31 c 0.57,0.23 1.71,0.68 2.28,0.9 0.36,0.22 1.08,0.64 1.44,0.85 l 0.74,0.41 c 0.35,0.19 1.04,0.58 1.38,0.77 l 0.69,0.37 c 0.32,0.18 0.97,0.54 1.29,0.72 0.26,0.19 0.79,0.59 1.06,0.78 l 0.69,0.19 c 0.25,0.19 0.77,0.58 1.02,0.77 l 0.69,0.18 c 0.3,0.17 0.91,0.5 1.22,0.66 l 0.63,0.34 c 0.32,0.17 0.94,0.5 1.26,0.67 l 0.65,0.33 c 0.32,0.17 0.96,0.5 1.27,0.66 l 0.67,0.33 c 0.33,0.17 0.99,0.49 1.32,0.66 l 0.7,0.33 c 0.36,0.17 1.06,0.5 1.42,0.67 l 0.78,0.33 c 0.55,0.25 1.64,0.73 2.18,0.97 0.57,0.25 1.72,0.75 2.29,1 l 0.91,0.2 c 0.6,0.15 1.81,0.45 2.41,0.6 1.12,-0.26 2.23,-0.51 3.35,-0.77 0.32,-0.15 0.98,-0.44 1.3,-0.59 0.26,-0.22 0.76,-0.65 1.01,-0.87 0.22,-0.24 0.66,-0.71 0.87,-0.95 0.2,-0.26 0.61,-0.77 0.81,-1.03 l 0.4,-0.55 c 0.19,-0.28 0.57,-0.83 0.77,-1.1 0.18,-0.29 0.54,-0.86 0.73,-1.14 l 0.35,-0.6 c 0.17,-0.29 0.5,-0.87 0.66,-1.16 l 0.59,-0.33 0.07,-0.65 0.06,-0.64 c 0.04,-0.29 0.13,-0.89 0.17,-1.18 l 0.05,-0.59 c 0.19,-0.2 0.55,-0.59 0.74,-0.79 l -0.7,0.03 -0.61,-0.34 -0.5,-0.47 c -0.27,-0.22 -0.82,-0.64 -1.09,-0.86 l -0.61,-0.4 c -0.31,-0.19 -0.92,-0.56 -1.23,-0.75 l -0.65,-0.37 c -0.31,-0.19 -0.93,-0.56 -1.25,-0.74 -0.25,-0.22 -0.77,-0.65 -1.03,-0.87 l -0.7,-0.24 c -0.3,-0.19 -0.91,-0.59 -1.21,-0.78 -0.25,-0.23 -0.74,-0.69 -0.99,-0.92 l -0.7,-0.27 c -0.29,-0.22 -0.87,-0.65 -1.16,-0.86 -0.29,-0.22 -0.87,-0.66 -1.16,-0.88 -0.24,-0.24 -0.71,-0.73 -0.95,-0.97 l -0.68,-0.31 c -0.27,-0.24 -0.82,-0.7 -1.1,-0.93 -0.27,-0.24 -0.8,-0.72 -1.06,-0.96 -0.26,-0.24 -0.78,-0.73 -1.04,-0.97 -0.25,-0.25 -0.76,-0.74 -1.01,-0.98 -0.25,-0.25 -0.74,-0.74 -0.99,-0.99 -0.24,-0.25 -0.72,-0.74 -0.96,-0.99 -0.23,-0.25 -0.7,-0.75 -0.94,-1 -0.22,-0.25 -0.68,-0.76 -0.91,-1.01 -0.22,-0.26 -0.65,-0.78 -0.87,-1.05 l -0.29,-0.63 c -0.23,-0.23 -0.68,-0.68 -0.91,-0.91 -0.2,-0.28 -0.6,-0.84 -0.8,-1.12 -0.19,-0.29 -0.57,-0.88 -0.76,-1.18 l -0.38,-0.63 c -0.17,-0.33 -0.51,-0.99 -0.69,-1.32 l -0.3,-0.73 c -0.11,-0.38 -0.33,-1.13 -0.44,-1.51 -0.23,-1.17 -0.48,-2.33 -0.73,-3.48 1.17,-0.77 1.44,-1.82 0.81,-3.14 l -0.08,-0.89 c 0.26,-0.36 0.78,-1.08 1.04,-1.45 l 0.53,0.26 c 0.24,0.11 0.72,0.33 0.96,0.44 0.21,0.1 0.65,0.31 0.87,0.41 0.22,0.1 0.67,0.31 0.89,0.41 l 0.48,0.21 0.48,0.25 0.63,-0.15 c 0.5,-0.1 1.49,-0.31 1.99,-0.42 1.49,0.04 2.02,-1.91 1.24,-2.95 z"
     id="path9208"
     inkscape:connector-curvature="0"
     style="fill:#000000;stroke:#000000;stroke-width:0.09375" />
</svg>
