<?xml version="1.0" encoding="UTF-8" standalone="no"?>
<!-- Created with Inkscape (http://www.inkscape.org/) -->

<svg
   xmlns:dc="http://purl.org/dc/elements/1.1/"
   xmlns:cc="http://creativecommons.org/ns#"
   xmlns:rdf="http://www.w3.org/1999/02/22-rdf-syntax-ns#"
   xmlns:svg="http://www.w3.org/2000/svg"
   xmlns="http://www.w3.org/2000/svg"
   xmlns:sodipodi="http://sodipodi.sourceforge.net/DTD/sodipodi-0.dtd"
   xmlns:inkscape="http://www.inkscape.org/namespaces/inkscape"
   width="29.964336mm"
   height="24.875435mm"
   viewBox="0 0 106.17285 88.141304"
   id="svg2"
   version="1.1"
   inkscape:version="0.91 r13725"
   sodipodi:docname="rabbit.svg">
  <defs
     id="defs4" />
  <sodipodi:namedview
     id="base"
     pagecolor="#ffffff"
     bordercolor="#666666"
     borderopacity="1.0"
     inkscape:pageopacity="0.0"
     inkscape:pageshadow="2"
     inkscape:zoom="4.1599956"
     inkscape:cx="73.6372"
     inkscape:cy="21.489559"
     inkscape:document-units="px"
     inkscape:current-layer="layer1"
     showgrid="false"
     fit-margin-top="0"
     fit-margin-left="0"
     fit-margin-right="0"
     fit-margin-bottom="0"
     inkscape:window-width="1393"
     inkscape:window-height="855"
     inkscape:window-x="0"
     inkscape:window-y="1"
     inkscape:window-maximized="1" />
  <metadata
     id="metadata7">
    <rdf:RDF>
      <cc:Work
         rdf:about="">
        <dc:format>image/svg+xml</dc:format>
        <dc:type
           rdf:resource="http://purl.org/dc/dcmitype/StillImage" />
        <dc:title></dc:title>
      </cc:Work>
    </rdf:RDF>
  </metadata>
  <g
     inkscape:label="Layer 1"
     inkscape:groupmode="layer"
     id="layer1"
     transform="translate(-124.6338,-113.36779)">
    <path
       style="fill:#000000"
       d="m 183.49414,115.23047 c -3.81098,12.24179 12.84968,19.95604 11.57001,24.05752 -6.64714,2.5589 -13.99937,-1.18702 -20.98407,0.87803 -5.72124,-0.38319 -11.32489,1.02518 -16.43165,3.53261 -6.1361,1.98224 -10.16977,7.1655 -14.86379,11.22545 -3.46421,1.56846 -4.48943,6.21694 -6.80417,7.97826 -3.67223,-0.51131 -12.52401,-0.30975 -7.96875,6.32032 1.22056,2.38168 5.74481,6.32356 7.58984,4.56054 -2.37787,2.85489 -4.76622,1.41759 -6.31186,4.92149 -2.09973,4.18627 -2.54421,9.11039 -4.5065,13.24648 -0.52992,2.95364 0.25025,11.14353 3.95703,9.28711 7.27436,-4.48497 1.7424,-19.62159 19.27555,-18.14501 4.56831,-0.43332 7.78862,-4.46481 11.285,-7.07374 2.72037,-0.83502 5.98898,-2.79333 8.30898,-4.0823 5.21052,-2.79278 23.44071,-5.8845 25.03713,-4.95161 5.38688,1.5269 11.2458,0.98745 16.5212,3.17114 2.70776,1.45774 11.19537,5.67286 10.5537,-0.10422 -0.34727,-2.5038 -6.75528,-5.51779 -1.17781,-4.02164 3.8735,0.54707 9.87288,4.05325 12.26266,-0.44106 -0.19132,-4.86561 -5.18125,-1.92181 -7.51391,-3.49931 -2.53108,-0.93673 -3.59218,-1.72059 -6.80358,-2.42259 -5.9747,-0.69802 -0.9583,-5.04789 2.5874,-4.86923 5.88263,-0.28877 4.05615,-8.50343 1.56939,-11.28477 -2.49124,-5.22101 -7.8256,-8.04172 -13.19477,-9.428 -2.34911,-4.86553 -4.26139,-10.07952 -7.70373,-14.28498 -2.40041,-2.34951 -8.0586,-4.47652 -10.11463,-2.27948 -1.07473,0.35299 -4.41575,-7.67208 -6.13867,-2.29101 z"
       id="path4301"
       inkscape:connector-curvature="0"
       sodipodi:nodetypes="ccccccccccccccccccccccccccc" />
  </g>
</svg>
