<?xml version="1.0" encoding="UTF-8" standalone="no"?>
<!-- Created with Inkscape (http://www.inkscape.org/) -->

<svg
   xmlns:dc="http://purl.org/dc/elements/1.1/"
   xmlns:cc="http://creativecommons.org/ns#"
   xmlns:rdf="http://www.w3.org/1999/02/22-rdf-syntax-ns#"
   xmlns:svg="http://www.w3.org/2000/svg"
   xmlns="http://www.w3.org/2000/svg"
   xmlns:sodipodi="http://sodipodi.sourceforge.net/DTD/sodipodi-0.dtd"
   xmlns:inkscape="http://www.inkscape.org/namespaces/inkscape"
   id="svg2"
   viewBox="0 0 576.84 451.19"
   version="1.0"
   inkscape:version="0.92.1 r15371"
   sodipodi:docname="lemmling-Abstract-butterfly-1.svg"
   width="615.29602"
   height="481.26935">
  <defs
     id="defs10" />
  <sodipodi:namedview
     pagecolor="#ffffff"
     bordercolor="#666666"
     borderopacity="1"
     objecttolerance="10"
     gridtolerance="10"
     guidetolerance="10"
     inkscape:pageopacity="0"
     inkscape:pageshadow="2"
     inkscape:window-width="640"
     inkscape:window-height="480"
     id="namedview8"
     showgrid="false"
     inkscape:zoom="1.5853908"
     inkscape:cx="307.64801"
     inkscape:cy="240.63467"
     inkscape:current-layer="svg2" />
  <g
     id="layer1"
     transform="translate(-47.094,-233.69)">
    <path
       id="path3321"
       style="fill:#000000;fill-rule:evenodd"
       d="m 47.094,233.69 c 0,0 94.846,99.08 76.626,166.97 -14.1,52.51 2.87,78.93 2.87,78.93 0,0 18.78,-22.56 71.1,-14.71 42.42,6.36 57.5,23.28 57.5,23.28 0,0 -59.63,-43.13 -157.6,23.25 99.74,55.06 34.84,134.14 124,173.47 1.25,-0.18 37.7,-91.53 113.94,-97.79 76.22,6.28 112.66,97.61 113.91,97.79 89.16,-39.33 24.26,-118.41 124,-173.47 -97.96,-66.38 -157.6,-23.25 -157.6,-23.25 0,0 15.08,-16.92 57.5,-23.28 52.32,-7.85 71.1,14.71 71.1,14.71 0,0 16.97,-26.42 2.87,-78.93 -18.22,-67.89 76.63,-166.97 76.63,-166.97 0,0 -187.16,39.63 -279.41,193.59 0.35,-11.92 1.41,-34.53 4.75,-62.25 4.59,-38.01 14.16,-59.37 14.16,-59.37 0,0 8.29,5.46 15.56,-2.85 9.87,-11.28 -4.61,-24.4 -15.56,-14.84 -12.55,10.95 -26.99,85.97 -27.56,154.84 -0.13,0.24 -0.26,0.48 -0.38,0.72 -0.12,-0.24 -0.22,-0.48 -0.34,-0.72 -0.58,-68.87 -15.01,-143.89 -27.57,-154.84 -10.95,-9.56 -25.43,3.56 -15.56,14.84 7.28,8.31 15.56,2.85 15.56,2.85 0,0 9.57,21.36 14.16,59.37 3.35,27.72 4.4,50.33 4.75,62.25 C 234.25,273.32 47.09,233.69 47.09,233.69 Z m 69.596,53.37 c 0,0 56.34,13.55 114.9,57.13 73.54,54.71 103.57,129.97 103.57,129.97 l 0.34,-14.97 0.38,14.97 c 0,0 30.03,-75.26 103.56,-129.97 58.56,-43.58 114.9,-57.13 114.9,-57.13 0,0 -40.95,68.82 -23.53,117.47 14,39.1 -1.75,49.25 -1.75,49.25 0,0 -94.42,-24.98 -143.62,57.22 71.38,-39.11 115.85,-22.06 156.18,-1 0,0 -43.71,28.23 -49.59,70.69 -7.02,50.71 -31.37,62.81 -31.37,62.81 0,0 -33.41,-40.83 -61.69,-53.56 -26.69,-12.01 -59.44,-17.7 -63.09,-18.32 v -0.12 c 0,0 -0.3,0.05 -0.35,0.06 -0.06,-0.01 -0.37,-0.06 -0.37,-0.06 v 0.12 c -3.72,0.63 -36.44,6.32 -63.1,18.32 -28.28,12.73 -61.68,53.56 -61.68,53.56 0,0 -24.36,-12.1 -31.38,-62.81 C 173.12,538.23 129.41,510 129.41,510 c 40.33,-21.06 84.8,-38.11 156.18,1 -49.2,-82.2 -143.62,-57.22 -143.62,-57.22 0,0 -15.75,-10.15 -1.75,-49.25 17.42,-48.65 -23.53,-117.47 -23.53,-117.47 z"
       inkscape:connector-curvature="0" />
    <path
       id="path3201"
       style="fill:#000000;fill-rule:evenodd;stroke:#000000;stroke-width:1px"
       d="m 318.94,440.84 c 24.7,47.11 -3.22,85 -3.22,85 0,0 -4.25,41.34 19.44,125.13 23.68,-83.79 19.46,-125.13 19.46,-125.13 0.01,0 -27.95,-37.89 -3.24,-85 l -16.22,14.28 z"
       inkscape:connector-curvature="0" />
  </g>
  <metadata
     id="metadata5">
    <rdf:RDF>
      <cc:Work>
        <dc:format>image/svg+xml</dc:format>
        <dc:type
           rdf:resource="http://purl.org/dc/dcmitype/StillImage" />
        <cc:license
           rdf:resource="http://creativecommons.org/licenses/publicdomain/" />
        <dc:publisher>
          <cc:Agent
             rdf:about="http://openclipart.org/">
            <dc:title>Openclipart</dc:title>
          </cc:Agent>
        </dc:publisher>
        <dc:title>Abstract butterfly 1</dc:title>
        <dc:date>2006-12-26T00:00:00</dc:date>
        <dc:description />
        <dc:source>https://openclipart.org/detail/17644/-by--17644</dc:source>
        <dc:creator>
          <cc:Agent>
            <dc:title>lemmling</dc:title>
          </cc:Agent>
        </dc:creator>
      </cc:Work>
      <cc:License
         rdf:about="http://creativecommons.org/licenses/publicdomain/">
        <cc:permits
           rdf:resource="http://creativecommons.org/ns#Reproduction" />
        <cc:permits
           rdf:resource="http://creativecommons.org/ns#Distribution" />
        <cc:permits
           rdf:resource="http://creativecommons.org/ns#DerivativeWorks" />
      </cc:License>
    </rdf:RDF>
  </metadata>
</svg>
