<?xml version="1.0" encoding="UTF-8" standalone="no"?>
<!-- Created with Inkscape (http://www.inkscape.org/) -->

<svg
   xmlns:dc="http://purl.org/dc/elements/1.1/"
   xmlns:cc="http://creativecommons.org/ns#"
   xmlns:rdf="http://www.w3.org/1999/02/22-rdf-syntax-ns#"
   xmlns:svg="http://www.w3.org/2000/svg"
   xmlns="http://www.w3.org/2000/svg"
   xmlns:sodipodi="http://sodipodi.sourceforge.net/DTD/sodipodi-0.dtd"
   xmlns:inkscape="http://www.inkscape.org/namespaces/inkscape"
   id="svg2"
   sodipodi:docname="pitr-Candy-icon.svg"
   inkscape:export-filename="C:\joanna\Gfx\drawings_vector\nature_plants\fruits\papa_bananas_2a.png"
   viewBox="0 0 128 128"
   sodipodi:version="0.32"
   inkscape:export-xdpi="90"
   version="1.0"
   inkscape:output_extension="org.inkscape.output.svg.inkscape"
   inkscape:export-ydpi="90"
   inkscape:version="0.92.1 r15371"
   width="136.53334"
   height="136.53334">
  <defs
     id="defs12" />
  <sodipodi:namedview
     id="base"
     inkscape:zoom="4.2109375"
     borderopacity="1.0"
     inkscape:current-layer="layer1"
     inkscape:cx="64"
     inkscape:cy="64"
     borderlayer="true"
     showgrid="false"
     inkscape:guide-bbox="true"
     showguides="true"
     bordercolor="#666666"
     inkscape:window-x="-4"
     guidetolerance="10"
     objecttolerance="10"
     inkscape:window-y="-4"
     inkscape:window-width="1280"
     inkscape:pageopacity="0.0"
     inkscape:pageshadow="2"
     pagecolor="#ffffff"
     gridtolerance="10000"
     inkscape:document-units="px"
     inkscape:window-height="744" />
  <g
     id="layer1"
     inkscape:label="Layer 1"
     inkscape:groupmode="layer"
     transform="translate(-66.38,-391.32)">
    <path
       id="path6298"
       sodipodi:nodetypes="cssscc"
       style="fill:#ffb600;fill-rule:evenodd;stroke:#000000;stroke-width:5.16379976;stroke-linejoin:round"
       d="m 157.3,429.82 c 10.05,10.99 5.39,31.63 -10.4,46.06 -15.79,14.43 -36.76,17.22 -46.8,6.23 -10.051,-10.99 -5.391,-31.63 10.4,-46.06 15.72,-14.37 36.57,-17.21 46.68,-6.36 z"
       inkscape:connector-curvature="0" />
    <path
       id="path6296"
       sodipodi:nodetypes="ccccc"
       style="fill:#ff0000;fill-rule:evenodd"
       d="m 100.63,448.65 c 15.97,5.86 28.88,16.17 34.76,36.69 l 20.79,-21.5 c -4.54,-18.43 -16.11,-30.05 -34.65,-34.88 z"
       inkscape:connector-curvature="0" />
    <path
       id="path5784"
       sodipodi:nodetypes="cssscc"
       style="fill:none;stroke:#000000;stroke-width:6;stroke-linejoin:round"
       d="m 157.52,429.78 c 10.05,10.99 5.39,31.63 -10.4,46.06 -15.79,14.43 -36.76,17.22 -46.8,6.23 -10.049,-11 -5.389,-31.63 10.4,-46.06 15.72,-14.37 36.57,-17.21 46.68,-6.36 z"
       inkscape:connector-curvature="0" />
    <path
       id="path6310"
       sodipodi:nodetypes="ccssscc"
       style="fill:#ff0000;fill-rule:evenodd;stroke:#000000;stroke-width:6;stroke-linecap:round;stroke-linejoin:round"
       d="m 158.25,427.32 c 10,4.4 25.15,2.18 30.2,-3.53 -2.58,-0.54 -5.01,-3.15 -6.51,-6.17 -1.58,-3.17 -0.15,-7.29 -2.82,-9.74 -3.06,-2.79 -7.3,-1.26 -10.54,-2.94 -2.85,-1.47 -3.77,-4.59 -6.72,-8.06 -7.07,9.56 -6.45,21.01 -3.61,30.44 z"
       inkscape:connector-curvature="0" />
    <path
       id="path6312"
       sodipodi:nodetypes="ccssscc"
       style="fill:#ff0000;fill-rule:evenodd;stroke:#000000;stroke-width:6;stroke-linecap:round;stroke-linejoin:round"
       d="m 102.03,483.87 c -9.981,-4.45 -25.143,-2.32 -30.23,3.35 2.578,0.56 4.997,3.19 6.478,6.21 1.555,3.18 0.1,7.29 2.76,9.76 3.036,2.81 7.294,1.3 10.521,3 2.84,1.49 3.74,4.62 6.669,8.1 7.132,-9.51 6.582,-20.97 3.802,-30.42 z"
       inkscape:connector-curvature="0" />
  </g>
  <metadata
     id="metadata9">
    <rdf:RDF>
      <cc:Work>
        <dc:format>image/svg+xml</dc:format>
        <dc:type
           rdf:resource="http://purl.org/dc/dcmitype/StillImage" />
        <cc:license
           rdf:resource="http://creativecommons.org/licenses/publicdomain/" />
        <dc:publisher>
          <cc:Agent
             rdf:about="http://openclipart.org/">
            <dc:title>Openclipart</dc:title>
          </cc:Agent>
        </dc:publisher>
        <dc:title>Candy icon</dc:title>
        <dc:date>2008-11-16T07:01:26</dc:date>
        <dc:description>Simple image of a candy with thick black contour.</dc:description>
        <dc:source>https://openclipart.org/detail/20189/candy-icon-by-pitr-20189</dc:source>
        <dc:creator>
          <cc:Agent>
            <dc:title>pitr</dc:title>
          </cc:Agent>
        </dc:creator>
        <dc:subject>
          <rdf:Bag>
            <rdf:li>candy</rdf:li>
            <rdf:li>contour</rdf:li>
            <rdf:li>editorial pick</rdf:li>
            <rdf:li>food</rdf:li>
            <rdf:li>icon</rdf:li>
            <rdf:li>sweets</rdf:li>
          </rdf:Bag>
        </dc:subject>
      </cc:Work>
      <cc:License
         rdf:about="http://creativecommons.org/licenses/publicdomain/">
        <cc:permits
           rdf:resource="http://creativecommons.org/ns#Reproduction" />
        <cc:permits
           rdf:resource="http://creativecommons.org/ns#Distribution" />
        <cc:permits
           rdf:resource="http://creativecommons.org/ns#DerivativeWorks" />
      </cc:License>
    </rdf:RDF>
  </metadata>
</svg>
