<?xml version="1.0" encoding="UTF-8" standalone="no"?>
<!-- Created with sK1/UniConvertor (http://sk1project.org/) -->

<svg
   xmlns:dc="http://purl.org/dc/elements/1.1/"
   xmlns:cc="http://creativecommons.org/ns#"
   xmlns:rdf="http://www.w3.org/1999/02/22-rdf-syntax-ns#"
   xmlns:svg="http://www.w3.org/2000/svg"
   xmlns="http://www.w3.org/2000/svg"
   xmlns:sodipodi="http://sodipodi.sourceforge.net/DTD/sodipodi-0.dtd"
   xmlns:inkscape="http://www.inkscape.org/namespaces/inkscape"
   width="599.53851"
   height="853.33331"
   viewBox="0 0 449.65391 640"
   id="svg2"
   version="1.1"
   inkscape:version="0.92.1 r15371"
   sodipodi:docname="selu-Corn4.svg"
   style="fill-rule:evenodd">
  <metadata
     id="metadata106">
    <rdf:RDF>
      <cc:Work
         rdf:about="">
        <dc:format>image/svg+xml</dc:format>
        <dc:type
           rdf:resource="http://purl.org/dc/dcmitype/StillImage" />
        <dc:title />
      </cc:Work>
    </rdf:RDF>
  </metadata>
  <defs
     id="defs104">
    <inkscape:perspective
       sodipodi:type="inkscape:persp3d"
       inkscape:vp_x="0 : 526.18131 : 1"
       inkscape:vp_y="0 : 1000 : 0"
       inkscape:vp_z="744.09499 : 526.18131 : 1"
       inkscape:persp3d-origin="372.04751 : 350.78754 : 1"
       id="perspective108" />
    <linearGradient
       id="linearGradient47938-1">
      <stop
         offset="0"
         style="stop-color:#000000;stop-opacity:0.78431374"
         id="stop47940-7" />
      <stop
         offset="1"
         style="stop-color:#000000;stop-opacity:0"
         id="stop47942-4" />
    </linearGradient>
    <linearGradient
       id="linearGradient7546-4">
      <stop
         offset="0"
         style="stop-color:#6d0000;stop-opacity:1"
         id="stop7548-5" />
      <stop
         offset="1"
         style="stop-color:#8a0000;stop-opacity:0"
         id="stop7550-5" />
    </linearGradient>
  </defs>
  <sodipodi:namedview
     pagecolor="#ffffff"
     bordercolor="#666666"
     borderopacity="1"
     objecttolerance="10"
     gridtolerance="10"
     guidetolerance="10"
     inkscape:pageopacity="0"
     inkscape:pageshadow="2"
     inkscape:window-width="1600"
     inkscape:window-height="837"
     id="namedview102"
     showgrid="false"
     inkscape:zoom="0.8375"
     inkscape:cx="281.03369"
     inkscape:cy="400"
     inkscape:window-x="-8"
     inkscape:window-y="-8"
     inkscape:window-maximized="1"
     inkscape:current-layer="g8"
     fit-margin-top="0"
     fit-margin-left="0"
     fit-margin-right="0"
     fit-margin-bottom="0" />
  <g
     id="g4"
     transform="translate(-1258.4686,2119.791)">
    <g
       id="g6">
      <g
         id="g8">
        <g
           id="g4727"
           transform="matrix(12.424704,0,0,12.424704,-6348.951,-5581.8104)">
          <path
             inkscape:connector-curvature="0"
             id="path4707"
             d="m 620.22243,278.63999 -0.67032,7.68996 -0.0298,0.51058 -0.0204,0.51998 -0.009,0.51997 0.009,0.52937 0.0298,0.52937 0.0407,0.53094 0.0689,0.54033 0.0908,0.53877 0.10963,0.54033 0.14096,0.54974 0.15975,0.54032 0.1989,0.5607 0.22083,0.54973 0.25999,0.54974 0.3195,0.6202 -0.15975,-0.15035 -0.41974,-0.33986 -0.44949,-0.33047 -0.45106,-0.28974 -0.37902,-0.23023 -0.36022,-0.22867 -0.36023,-0.23023 -0.33986,-0.24119 -0.33046,-0.22866 -0.3195,-0.2412 -0.32107,-0.23962 -0.30854,-0.24902 -0.30071,-0.25059 -0.28974,-0.25059 -0.28974,-0.25999 -0.28035,-0.25999 -0.27095,-0.26937 -0.26939,-0.27096 -0.25998,-0.27878 -2.70011,-2.98045 0.77996,3.97968 0.10964,0.44949 0.14095,0.4401 0.15036,0.45106 0.17854,0.4401 0.20047,0.44009 0.22083,0.4401 0.22867,0.43854 0.25059,0.44009 0.27095,0.4401 0.27878,0.4401 0.28975,0.4401 0.3101,0.4401 0.32107,0.44009 0.32889,0.4401 0.33047,0.41974 0.20047,0.28035 0.18011,0.28035 0.18011,0.28974 0.15976,0.31951 0.15975,0.33985 0.13939,0.36022 0.14096,0.38999 0.12999,0.41034 0.10963,0.4307 0.10963,0.45889 0.10024,0.48082 0.0799,0.49961 0.0799,0.52937 0.0611,0.5607 0.0485,0.57948 0.0501,0.62021 0.0501,0.77996 0.0501,0.79093 0.0705,0.77996 0.0705,0.77996 0.0689,0.7596 0.0908,0.7596 0.0893,0.7502 0.11119,0.73924 0.11904,0.73141 0.12059,0.71887 0.13939,0.70009 0.15976,0.69069 0.17071,0.67972 0.18011,0.65937 0.1989,0.64997 0.21144,0.6202 0.23962,0.62021 0.24903,0.59046 0.28035,0.57009 0.28974,0.55912 0.32107,0.53094 0.33986,0.49961 0.36962,0.49022 0.38998,0.46046 0.41974,0.41973 0.4495,0.39938 0.48081,0.36962 0.49961,0.33047 0.53094,0.30071 0.55913,0.25999 0.31011,0.11902 -0.0799,0.41974 0.0407,0.57009 0.0188,0.46986 0.011,0.48082 0.009,0.49961 0.009,0.49961 0.011,0.51058 0.0204,0.49961 0.0188,0.49021 0.0407,0.48082 0.0595,0.4589 0.0909,0.45106 0.11902,0.42913 0.17071,0.41974 0.25059,0.41034 0.35866,0.36023 0.45106,0.23962 0.8802,0.22083 0.77996,0.0799 0.7596,-0.0908 0.70008,-0.27878 0.57949,-0.48082 0.41974,-0.60925 0.27095,-0.70008 0.13939,-0.72984 0.0298,-0.29131 0.0204,-0.24903 0.0204,-0.25059 0.009,-0.24902 0.011,-0.25059 0.009,-0.23962 0.009,-0.25059 v -0.23963 l 0.011,-0.23963 v -0.71105 l 0.009,-0.46985 0.009,-0.23023 0.011,-0.3289 -0.0908,-0.51058 0.0204,-0.009 0.28035,-0.23023 0.26938,-0.25058 0.25998,-0.25999 0.25059,-0.28035 0.23963,-0.28974 0.23963,-0.3101 0.22083,-0.31951 0.21927,-0.33046 0.38997,-0.639 -0.0987,-0.74081 0.29913,-0.33046 0.28975,-0.37902 0.27095,-0.36963 0.24902,-0.38997 0.23023,-0.40094 0.20048,-0.39938 0.18951,-0.40095 0.17071,-0.41974 0.14879,-0.41034 0.14096,-0.41973 0.11902,-0.41974 0.1112,-0.41974 0.10024,-0.4307 0.0799,-0.41974 0.0799,-0.42913 0.0689,-0.4307 0.0611,-0.41974 0.0501,-0.4307 0.0501,-0.42913 0.0486,-0.41974 0.0407,-0.4213 0.0407,-0.42914 0.0391,-0.41034 0.0595,-0.52937 0.0611,-0.51997 0.0595,-0.51058 0.0799,-0.51998 0.0799,-0.51057 0.0908,-0.50901 0.10023,-0.51058 0.10964,-0.49961 0.11903,-0.49022 0.14095,-0.49961 0.1394,-0.48082 0.15975,-0.47925 0.17071,-0.48082 0.18011,-0.45889 0.1989,-0.46046 0.22083,-0.46046 0.36963,-0.71888 0.38058,-0.71104 0.38998,-0.67973 0.4103,-0.64997 0.4088,-0.64056 0.42132,-0.62961 0.4197,-0.59985 0.44016,-0.59986 0.44007,-0.57948 0.44008,-0.57009 0.44954,-0.5701 0.44945,-0.56068 0.45107,-0.54974 0.44953,-0.56069 0.44946,-0.54973 2.33991,-2.88021 -3.87007,0.95067 -0.9601,0.26938 -0.93965,0.32107 -0.90998,0.36022 -0.88019,0.39938 -0.83948,0.46045 -0.80971,0.50902 -0.77057,0.57009 -0.70948,0.6296 -0.66094,0.69069 -0.59984,0.7596 -0.51997,0.82069 -0.38999,0.75959 c -0.23999,-5.78 -0.90996,-11.57037 -5.29996,-16.36036 -0.96,-1.04 -2.30936,-1.20893 -3.30936,0.0611 -1.82999,2.31 -3.07076,4.93923 -3.91076,7.77924 l -0.0799,-0.0595 -0.15036,-0.12999 -0.13939,-0.14096 -0.12999,-0.15975 -0.13,-0.15975 -0.10962,-0.18012 -0.12061,-0.1801 -0.10023,-0.19891 -0.10024,-0.21143 -0.0893,-0.21927 -0.0799,-0.23963 -0.0799,-0.24119 -0.0705,-0.25999 -0.0595,-0.26938 -1.42993,-7.37986 z"
             style="fill:#000000" />
          <path
             style="fill:none"
             inkscape:connector-curvature="0"
             id="path364"
             d="m 632.51207,323.26 -0.09,-0.51 0.02,-0.01 0.28,-0.23 0.27,-0.25 0.26,-0.26 0.25,-0.28 0.24,-0.29 0.24,-0.31 0.22,-0.32 0.22,-0.33 0.39,-0.64 -0.1,-0.74 0.3,-0.33 0.29,-0.38 0.27,-0.37 0.25,-0.39 0.23,-0.4 0.2,-0.4 0.19,-0.4 0.17,-0.42 0.15,-0.41 0.14,-0.42 0.12,-0.42 0.11,-0.42 0.1,-0.43 0.08,-0.42 0.08,-0.43 0.07,-0.43 0.06,-0.42 0.05,-0.43 0.05,-0.43 0.05,-0.42 0.04,-0.42 0.04,-0.43 0.04,-0.41 0.06,-0.53 0.06,-0.52 0.06,-0.51 0.08,-0.52 0.08,-0.51 0.09,-0.51 0.1,-0.51 0.11,-0.5 0.12,-0.49 0.14,-0.5 0.14,-0.48 0.16,-0.48 0.17,-0.48 0.18,-0.46 0.2,-0.46 0.22,-0.46 0.37,-0.72 0.38,-0.71 0.39,-0.68 0.41,-0.65 0.41,-0.64 0.42,-0.63 0.42,-0.6 0.44,-0.6 0.44,-0.58 0.44,-0.57 0.45,-0.57 0.45,-0.56 0.45,-0.55 0.45,-0.56 0.45,-0.55 2.34,-2.88 -3.87,0.95 -0.96,0.27 -0.94,0.32 -0.91,0.36 -0.88,0.4 -0.84,0.46 -0.81,0.51 -0.77,0.57 -0.71,0.63 -0.66,0.69 -0.6,0.76 -0.52,0.82 -0.39,0.76 c -0.24,-5.78 -0.91,-11.57 -5.3,-16.36 -0.96,-1.04 -2.31,-1.21 -3.31,0.06 -1.83,2.31 -3.07,4.94 -3.91,7.78 l -0.08,-0.06 -0.15,-0.13 -0.14,-0.14 -0.13,-0.16 -0.13,-0.16 -0.11,-0.18 -0.12,-0.18 -0.1,-0.2 -0.1,-0.21 -0.09,-0.22 -0.08,-0.24 -0.08,-0.24 -0.07,-0.26 -0.06,-0.27 -1.43,-7.38 -0.67,7.69 -0.03,0.51 -0.02,0.52 -0.01,0.52 0.01,0.53 0.03,0.53 0.04,0.53 0.07,0.54 0.09,0.54 0.11,0.54 0.14,0.55 0.16,0.54 0.2,0.56 0.22,0.55 0.26,0.55 0.32,0.62 -0.16,-0.15 -0.42,-0.34 -0.45,-0.33 -0.45,-0.29 -0.38,-0.23 -0.36,-0.23 -0.36,-0.23 -0.34,-0.24 -0.33,-0.23 -0.32,-0.24 -0.32,-0.24 -0.31,-0.25 -0.3,-0.25 -0.29,-0.25 -0.29,-0.26 -0.28,-0.26 -0.27,-0.27 -0.27,-0.27 -0.26,-0.28 -2.7,-2.98 0.78,3.98 0.11,0.45 0.14,0.44 0.15,0.45 0.18,0.44 0.2,0.44 0.22,0.44 0.23,0.44 0.25,0.44 0.27,0.44 0.28,0.44 0.29,0.44 0.31,0.44 0.32,0.44 0.33,0.44 0.33,0.42 0.2,0.28 0.18,0.28 0.18,0.29 0.16,0.32 0.16,0.34 0.14,0.36 0.14,0.39 0.13,0.41 0.11,0.43 0.11,0.46 0.1,0.48 0.08,0.5 0.08,0.53 0.06,0.56 0.05,0.58 0.05,0.62 0.05,0.78 0.05,0.79 0.07,0.78 0.07,0.78 0.07,0.76 0.09,0.76 0.09,0.75 0.11,0.74 0.12,0.73 0.12,0.72 0.14,0.7 0.16,0.69 0.17,0.68 0.18,0.66 0.2,0.65 0.21,0.62 0.24,0.62 0.25,0.59 0.28,0.57 0.29,0.56 0.32,0.53 0.34,0.5 0.37,0.49 0.39,0.46 0.42,0.42 0.45,0.4 0.48,0.37 0.5,0.33 0.53,0.3 0.56,0.26 0.31,0.12 -0.08,0.42 0.04,0.57 0.02,0.47 0.01,0.48 0.01,0.5 0.01,0.5 0.01,0.51 0.02,0.5 0.02,0.49 0.04,0.48 0.06,0.46 0.09,0.45 0.12,0.43 0.17,0.42 0.25,0.41 0.36,0.36 0.45,0.24 0.88,0.22 0.78,0.08 0.76,-0.09 0.7,-0.28 0.58,-0.48 0.42,-0.61 0.27,-0.7 0.14,-0.73 0.03,-0.29 0.02,-0.25 0.02,-0.25 0.01,-0.25 0.01,-0.25 0.01,-0.24 0.01,-0.25 v -0.24 l 0.01,-0.24 v -0.71 l 0.01,-0.47 0.01,-0.23 z" />
          <path
             inkscape:connector-curvature="0"
             style="fill:#428c42;fill-opacity:1"
             id="path366"
             d="m 613.97207,290.01 c 0.34,2.1 1.71,4.31 3.5,6.61 1.24,1.58 1.93,3.93 2.13,7.36 0.51,8.39 1.83,15.97 7.77,17.49 1.1,0.28 1.54,0.67 1.31,1.31 -0.51,-0.05 -1.01,-0.1 -1.51,-0.14 0.18,2.41 -0.18,5.87 1.03,6.26 1.93,0.63 2.96,-0.04 3.16,-1.79 0.14,-1.25 0.09,-2.52 0.14,-3.78 -0.53,0.11 -1.05,0.38 -1.58,0.34 -0.75,-0.05 -0.75,-0.63 0.06,-0.83 1.53,-0.36 2.75,-1.48 3.79,-3.23 -1.2,0.87 -2.34,1.85 -3.58,1.93 -0.82,0.05 -0.73,-0.37 0.07,-0.69 5.75,-2.31 6.09,-6.82 6.53,-11.29 0.28,-2.84 0.79,-5.69 2.06,-8.26 2.02,-4.08 4.57,-6.98 6.95,-9.92 -5.06,1.14 -9.36,3.62 -10.11,9.16 -1.04,7.7 -0.7,15.78 -6.67,19.14 -2.86,-2.81 -3.74,-6.37 -4.05,-10.05 -0.56,-6.45 -1.26,-12.65 -5.85,-15.42 -2.06,-1.25 -3.73,-2.58 -5.15,-4.2 z" />
          <path
             style="fill:#eb872a"
             inkscape:connector-curvature="0"
             id="path368"
             d="m 630.17207,301.85 c -0.83,0 -1.07,0.7 -1.04,1.57 0.02,0.91 0.53,1.48 1.27,1.39 0.73,-0.09 1.54,0.2 2.2,-0.12 0.77,-0.37 0.62,-0.97 0.64,-1.51 0.02,-0.62 -0.17,-1.22 -0.87,-1.27 -0.73,-0.05 -1.47,-0.06 -2.2,-0.06 z m 0,3.31 c -0.83,0 -1.07,0.7 -1.04,1.56 0.02,0.92 0.53,1.49 1.27,1.4 0.73,-0.09 1.54,0.2 2.2,-0.12 0.77,-0.37 0.62,-0.98 0.64,-1.51 0.02,-0.62 -0.17,-1.23 -0.87,-1.27 -0.73,-0.06 -1.47,-0.07 -2.2,-0.06 z m -0.12,3.77 c -0.83,0 -1.07,0.7 -1.04,1.57 0.03,0.91 0.53,1.48 1.28,1.39 0.72,-0.09 1.54,0.2 2.2,-0.12 0.76,-0.37 0.62,-0.97 0.64,-1.51 0.01,-0.62 -0.17,-1.22 -0.87,-1.27 -0.74,-0.05 -1.47,-0.06 -2.21,-0.06 z m -4.69,-7.31 c -0.18,0 -0.33,0.03 -0.45,0.09 l 0.04,0.17 0.12,0.56 0.11,0.57 0.1,0.57 0.1,0.58 0.06,0.42 h 0.15 c 0.73,-0.09 1.54,0.2 2.2,-0.12 0.77,-0.37 0.62,-0.98 0.64,-1.51 0.02,-0.62 -0.17,-1.23 -0.87,-1.27 -0.73,-0.06 -1.47,-0.07 -2.2,-0.06 z m 0.49,6.54 c 0.66,-0.02 1.36,0.18 1.94,-0.1 0.77,-0.37 0.62,-0.98 0.64,-1.51 0.02,-0.62 -0.17,-1.23 -0.87,-1.28 -0.68,-0.05 -1.36,-0.06 -2.04,-0.05 l 0.02,0.12 0.07,0.59 0.07,0.59 0.07,0.6 0.06,0.6 z m 0.38,3.51 c 0.56,0.02 1.12,0.14 1.61,-0.1 0.71,-0.34 0.58,-0.91 0.59,-1.4 0.02,-0.58 -0.15,-1.14 -0.81,-1.19 -0.57,-0.04 -1.13,-0.05 -1.7,-0.05 l 0.05,0.6 0.07,0.68 0.07,0.66 0.1,0.65 z m 0.93,3.41 c 0.24,0 0.47,-0.04 0.68,-0.14 0.71,-0.34 0.58,-0.91 0.59,-1.4 0.02,-0.58 -0.15,-1.14 -0.81,-1.19 -0.42,-0.03 -0.85,-0.05 -1.27,-0.05 l 0.1,0.5 0.16,0.62 0.18,0.62 0.2,0.6 z m 2.57,-2.61 c -0.76,0 -0.98,0.64 -0.95,1.43 0.02,0.83 0.48,1.35 1.16,1.26 0.66,-0.08 1.4,0.19 2,-0.1 l 0.07,-0.04 0.08,-0.16 0.23,-0.51 0.2,-0.51 v -0.16 c 0.02,-0.56 -0.15,-1.11 -0.79,-1.16 -0.66,-0.04 -1.33,-0.05 -2,-0.05 z m -1.33,3.13 c -0.4,0 -0.66,0.16 -0.81,0.42 l 0.17,0.34 0.32,0.55 0.36,0.53 0.39,0.52 0.27,0.32 c 0.07,0.01 0.14,0.01 0.21,0.02 l 0.15,-0.11 0.42,-0.34 0.39,-0.36 0.36,-0.39 0.34,-0.4 0.31,-0.43 0.02,-0.02 c -0.1,-0.32 -0.33,-0.56 -0.78,-0.59 -0.7,-0.05 -1.41,-0.06 -2.12,-0.06 z m 6.11,-13.8 c -0.68,0.1 -0.89,0.76 -0.86,1.56 0.01,0.58 0.22,1.02 0.56,1.24 l 0.06,-0.55 0.08,-0.72 0.07,-0.73 0.09,-0.73 z m -0.37,3.53 c -0.44,0.23 -0.57,0.79 -0.55,1.45 0.01,0.39 0.11,0.71 0.27,0.95 l 0.02,-0.15 0.08,-0.69 0.08,-0.7 0.08,-0.71 z m -4.14,-7.14 c -0.83,0.01 -1.07,0.7 -1.05,1.57 0.03,0.91 0.53,1.48 1.28,1.39 0.73,-0.09 1.54,0.21 2.2,-0.11 0.76,-0.37 0.62,-0.98 0.64,-1.51 0.02,-0.63 -0.17,-1.23 -0.87,-1.28 -0.73,-0.05 -1.47,-0.06 -2.2,-0.06 z m -0.12,-3.6 c -0.83,0.01 -1.07,0.71 -1.04,1.57 0.02,0.91 0.53,1.49 1.27,1.39 0.73,-0.09 1.54,0.21 2.2,-0.11 0.77,-0.37 0.62,-0.98 0.64,-1.51 0.02,-0.63 -0.17,-1.23 -0.87,-1.28 -0.73,-0.05 -1.47,-0.06 -2.2,-0.06 z m -4.42,-0.05 c -0.77,0 -1,0.65 -0.97,1.45 0.03,0.85 0.49,1.38 1.18,1.3 0.68,-0.09 1.44,0.19 2.05,-0.11 0.71,-0.34 0.58,-0.91 0.59,-1.4 0.02,-0.58 -0.15,-1.14 -0.8,-1.19 -0.68,-0.05 -1.37,-0.06 -2.05,-0.05 z m 0.04,3.36 c -0.71,0.01 -0.92,0.76 -0.89,1.7 0.02,0.99 0.45,1.61 1.09,1.51 0.63,-0.1 1.32,0.22 1.89,-0.12 0.66,-0.4 0.54,-1.06 0.55,-1.64 0.02,-0.68 -0.14,-1.33 -0.75,-1.39 -0.63,-0.05 -1.26,-0.06 -1.89,-0.06 z m 3.8,-7.54 c -0.83,0 -1.07,0.84 -1.04,1.87 0.03,1.09 0.53,1.77 1.27,1.66 0.73,-0.11 1.54,0.24 2.2,-0.14 0.77,-0.44 0.63,-1.16 0.64,-1.8 0.02,-0.74 -0.16,-1.46 -0.87,-1.52 -0.73,-0.07 -1.47,-0.07 -2.2,-0.07 z m -3.84,0.06 c -0.59,0 -0.76,0.82 -0.74,1.84 0.02,1.07 0.37,1.74 0.9,1.63 0.51,-0.11 1.09,0.24 1.55,-0.13 0.54,-0.44 0.44,-1.15 0.45,-1.78 0.01,-0.73 -0.12,-1.44 -0.61,-1.5 -0.52,-0.06 -1.04,-0.07 -1.55,-0.06 z m 3.31,-3.89 c -0.68,0 -0.88,0.79 -0.86,1.76 0.02,1.02 0.44,1.67 1.06,1.56 0.6,-0.1 1.28,0.23 1.83,-0.13 0.63,-0.41 0.51,-1.1 0.53,-1.69 0.01,-0.7 -0.14,-1.38 -0.72,-1.44 -0.61,-0.06 -1.22,-0.07 -1.84,-0.06 z m 4.92,11.71 c 0.02,-0.35 0.99,-0.39 1.03,-0.05 0.06,0.63 -0.05,1.51 -0.03,2.22 l -0.08,0.59 c -0.25,0.15 -0.9,0.09 -0.92,-0.17 -0.05,-0.75 -0.05,-1.84 0,-2.59 z m -0.24,-3.48 c -0.01,-0.67 1,-0.66 0.97,0 -0.03,0.82 0.19,1.44 0.2,2.25 0.01,0.7 -1.15,0.56 -1.07,-0.14 0.08,-0.79 -0.1,-1.33 -0.1,-2.11 z m 0.63,-1.32 c 0.06,0.37 -1.06,0.32 -1.12,-0.04 -0.12,-0.72 -0.2,-2.08 -0.24,-2.74 -0.02,-0.3 0.85,-0.2 0.87,0.1 0.06,0.64 0.38,1.96 0.49,2.68 z m -2.19,-6.6 c -0.01,-0.2 0.59,-0.2 0.63,0 0.15,0.81 0.53,1.73 0.78,2.64 0.1,0.37 -0.99,0.4 -1.12,0.05 -0.29,-0.79 -0.28,-1.79 -0.29,-2.69 z m -3.19,-3.21 c 0.29,-0.27 0.87,0.01 1.14,0.29 0.33,0.34 0.37,0.88 0.45,1.34 0.09,0.57 -0.18,0.51 -0.7,0.6 -0.55,0.09 -1.08,-0.02 -1.04,-0.74 0.03,-0.5 -0.22,-1.16 0.15,-1.49 z m 2.33,0.99 c -0.03,0.36 -0.18,0.8 0.05,1.09 0.18,0.23 0.59,0.07 0.89,0.1 0,0 -0.94,-1.24 -0.94,-1.19 z m -3.19,-0.92 c -0.56,0.09 -1.32,1.24 -1.66,1.99 -0.18,0.38 1.52,0.45 1.66,0.14 0.23,-0.51 0.41,-2.2 0,-2.13 z m -1.57,3.37 c 0.04,-0.38 1.19,-0.38 1.14,0 -0.1,0.73 0,1.75 0,2.42 0,0.33 -1.39,0.03 -1.38,-0.33 0.03,-0.63 0.17,-1.5 0.24,-2.09 z m -1.04,-0.09 c 0.11,-0.17 0.58,0.09 0.52,0.28 -0.2,0.66 0.11,1.68 -0.33,2.14 -0.17,0.17 -1.38,-0.13 -1.33,-0.33 0.17,-0.71 0.71,-1.46 1.14,-2.09 z m -1.57,3.37 c 0.12,-0.29 1,-0.01 0.9,0.28 -0.32,0.94 -0.29,2.04 -0.28,2.85 0,0.45 -1.3,0.11 -1.28,-0.33 0.03,-0.94 0.32,-1.99 0.66,-2.8 z m -0.81,4.32 c 0.12,-0.33 1.02,-0.25 1.05,0.1 0.04,0.58 0.16,1.45 0,1.95 -0.09,0.26 -0.6,0.17 -0.94,-0.04 l -0.23,-0.36 -0.06,-0.09 c 0.07,-0.47 0.04,-1.16 0.18,-1.56 z" />
          <path
             inkscape:connector-curvature="0"
             style="fill:#428c42;fill-opacity:1"
             id="path370"
             d="m 621.99207,293.92 c -1.5,-2.75 -1.64,-5.4 -1.39,-8.01 0.3,1.7 0.98,3.02 2.2,3.79 -0.35,1.37 -0.61,2.77 -0.81,4.22 z" />
          <path
             d="m 632.51207,323.26 -0.09,-0.51 0.02,-0.01 0.28,-0.23 0.27,-0.25 0.26,-0.26 0.25,-0.28 0.24,-0.29 0.24,-0.31 0.22,-0.32 0.22,-0.33 0.39,-0.64 -0.1,-0.74 0.3,-0.33 0.29,-0.38 0.27,-0.37 0.25,-0.39 0.23,-0.4 0.2,-0.4 0.19,-0.4 0.17,-0.42 0.15,-0.41 0.14,-0.42 0.12,-0.42 0.11,-0.42 0.1,-0.43 0.08,-0.42 0.08,-0.43 0.07,-0.43 0.06,-0.42 0.05,-0.43 0.05,-0.43 0.05,-0.42 0.04,-0.42 0.04,-0.43 0.04,-0.41 0.06,-0.53 0.06,-0.52 0.06,-0.51 0.08,-0.52 0.08,-0.51 0.09,-0.51 0.1,-0.51 0.11,-0.5 0.12,-0.49 0.14,-0.5 0.14,-0.48 0.16,-0.48 0.17,-0.48 0.18,-0.46 0.2,-0.46 0.22,-0.46 0.37,-0.72 0.38,-0.71 0.39,-0.68 0.41,-0.65 0.41,-0.64 0.42,-0.63 0.42,-0.6 0.44,-0.6 0.44,-0.58 0.44,-0.57 0.45,-0.57 0.45,-0.56 0.45,-0.55 0.45,-0.56 0.45,-0.55 2.34,-2.88 -3.87,0.95 -0.96,0.27 -0.94,0.32 -0.91,0.36 -0.88,0.4 -0.84,0.46 -0.81,0.51 -0.77,0.57 -0.71,0.63 -0.66,0.69 -0.6,0.76 -0.52,0.82 -0.39,0.76 c -0.24,-5.78 -0.91,-11.57 -5.3,-16.36 -0.96,-1.04 -2.31,-1.21 -3.31,0.06 -1.83,2.31 -3.07,4.94 -3.91,7.78 l -0.08,-0.06 -0.15,-0.13 -0.14,-0.14 -0.13,-0.16 -0.13,-0.16 -0.11,-0.18 -0.12,-0.18 -0.1,-0.2 -0.1,-0.21 -0.09,-0.22 -0.08,-0.24 -0.08,-0.24 -0.07,-0.26 -0.06,-0.27 -1.43,-7.38 -0.67,7.69 -0.03,0.51 -0.02,0.52 -0.01,0.52 0.01,0.53 0.03,0.53 0.04,0.53 0.07,0.54 0.09,0.54 0.11,0.54 0.14,0.55 0.16,0.54 0.2,0.56 0.22,0.55 0.26,0.55 0.32,0.62 -0.16,-0.15 -0.42,-0.34 -0.45,-0.33 -0.45,-0.29 -0.38,-0.23 -0.36,-0.23 -0.36,-0.23 -0.34,-0.24 -0.33,-0.23 -0.32,-0.24 -0.32,-0.24 -0.31,-0.25 -0.3,-0.25 -0.29,-0.25 -0.29,-0.26 -0.28,-0.26 -0.27,-0.27 -0.27,-0.27 -0.26,-0.28 -2.7,-2.98 0.78,3.98 0.11,0.45 0.14,0.44 0.15,0.45 0.18,0.44 0.2,0.44 0.22,0.44 0.23,0.44 0.25,0.44 0.27,0.44 0.28,0.44 0.29,0.44 0.31,0.44 0.32,0.44 0.33,0.44 0.33,0.42 0.2,0.28 0.18,0.28 0.18,0.29 0.16,0.32 0.16,0.34 0.14,0.36 0.14,0.39 0.13,0.41 0.11,0.43 0.11,0.46 0.1,0.48 0.08,0.5 0.08,0.53 0.06,0.56 0.05,0.58 0.05,0.62 0.05,0.78 0.05,0.79 0.07,0.78 0.07,0.78 0.07,0.76 0.09,0.76 0.09,0.75 0.11,0.74 0.12,0.73 0.12,0.72 0.14,0.7 0.16,0.69 0.17,0.68 0.18,0.66 0.2,0.65 0.21,0.62 0.24,0.62 0.25,0.59 0.28,0.57 0.29,0.56 0.32,0.53 0.34,0.5 0.37,0.49 0.39,0.46 0.42,0.42 0.45,0.4 0.48,0.37 0.5,0.33 0.53,0.3 0.56,0.26 0.31,0.12 -0.08,0.42 0.04,0.57 0.02,0.47 0.01,0.48 0.01,0.5 0.01,0.5 0.01,0.51 0.02,0.5 0.02,0.49 0.04,0.48 0.06,0.46 0.09,0.45 0.12,0.43 0.17,0.42 0.25,0.41 0.36,0.36 0.45,0.24 0.88,0.22 0.78,0.08 0.76,-0.09 0.7,-0.28 0.58,-0.48 0.42,-0.61 0.27,-0.7 0.14,-0.73 0.03,-0.29 0.02,-0.25 0.02,-0.25 0.01,-0.25 0.01,-0.25 0.01,-0.24 0.01,-0.25 v -0.24 l 0.01,-0.24 v -0.71 l 0.01,-0.47 0.01,-0.23 z"
             id="path4709"
             inkscape:connector-curvature="0"
             style="fill:none" />
          <path
             d="m 613.97207,290.01 c 0.34,2.1 1.71,4.31 3.5,6.61 1.24,1.58 1.93,3.93 2.13,7.36 0.51,8.39 1.83,15.97 7.77,17.49 1.1,0.28 1.54,0.67 1.31,1.31 -0.51,-0.05 -1.01,-0.1 -1.51,-0.14 0.18,2.41 -0.18,5.87 1.03,6.26 1.93,0.63 2.96,-0.04 3.16,-1.79 0.14,-1.25 0.09,-2.52 0.14,-3.78 -0.53,0.11 -1.05,0.38 -1.58,0.34 -0.75,-0.05 -0.75,-0.63 0.06,-0.83 1.53,-0.36 2.75,-1.48 3.79,-3.23 -1.2,0.87 -2.34,1.85 -3.58,1.93 -0.82,0.05 -0.73,-0.37 0.07,-0.69 5.75,-2.31 6.09,-6.82 6.53,-11.29 0.28,-2.84 0.79,-5.69 2.06,-8.26 2.02,-4.08 4.57,-6.98 6.95,-9.92 -5.06,1.14 -9.36,3.62 -10.11,9.16 -1.04,7.7 -0.7,15.78 -6.67,19.14 -2.86,-2.81 -3.74,-6.37 -4.05,-10.05 -0.56,-6.45 -1.26,-12.65 -5.85,-15.42 -2.06,-1.25 -3.73,-2.58 -5.15,-4.2 z"
             id="path4711"
             style="fill:#428c42;fill-opacity:1"
             inkscape:connector-curvature="0" />
          <path
             d="m 630.17207,301.85 c -0.83,0 -1.07,0.7 -1.04,1.57 0.02,0.91 0.53,1.48 1.27,1.39 0.73,-0.09 1.54,0.2 2.2,-0.12 0.77,-0.37 0.62,-0.97 0.64,-1.51 0.02,-0.62 -0.17,-1.22 -0.87,-1.27 -0.73,-0.05 -1.47,-0.06 -2.2,-0.06 z m 0,3.31 c -0.83,0 -1.07,0.7 -1.04,1.56 0.02,0.92 0.53,1.49 1.27,1.4 0.73,-0.09 1.54,0.2 2.2,-0.12 0.77,-0.37 0.62,-0.98 0.64,-1.51 0.02,-0.62 -0.17,-1.23 -0.87,-1.27 -0.73,-0.06 -1.47,-0.07 -2.2,-0.06 z m -0.12,3.77 c -0.83,0 -1.07,0.7 -1.04,1.57 0.03,0.91 0.53,1.48 1.28,1.39 0.72,-0.09 1.54,0.2 2.2,-0.12 0.76,-0.37 0.62,-0.97 0.64,-1.51 0.01,-0.62 -0.17,-1.22 -0.87,-1.27 -0.74,-0.05 -1.47,-0.06 -2.21,-0.06 z m -4.69,-7.31 c -0.18,0 -0.33,0.03 -0.45,0.09 l 0.04,0.17 0.12,0.56 0.11,0.57 0.1,0.57 0.1,0.58 0.06,0.42 h 0.15 c 0.73,-0.09 1.54,0.2 2.2,-0.12 0.77,-0.37 0.62,-0.98 0.64,-1.51 0.02,-0.62 -0.17,-1.23 -0.87,-1.27 -0.73,-0.06 -1.47,-0.07 -2.2,-0.06 z m 0.49,6.54 c 0.66,-0.02 1.36,0.18 1.94,-0.1 0.77,-0.37 0.62,-0.98 0.64,-1.51 0.02,-0.62 -0.17,-1.23 -0.87,-1.28 -0.68,-0.05 -1.36,-0.06 -2.04,-0.05 l 0.02,0.12 0.07,0.59 0.07,0.59 0.07,0.6 0.06,0.6 z m 0.38,3.51 c 0.56,0.02 1.12,0.14 1.61,-0.1 0.71,-0.34 0.58,-0.91 0.59,-1.4 0.02,-0.58 -0.15,-1.14 -0.81,-1.19 -0.57,-0.04 -1.13,-0.05 -1.7,-0.05 l 0.05,0.6 0.07,0.68 0.07,0.66 0.1,0.65 z m 0.93,3.41 c 0.24,0 0.47,-0.04 0.68,-0.14 0.71,-0.34 0.58,-0.91 0.59,-1.4 0.02,-0.58 -0.15,-1.14 -0.81,-1.19 -0.42,-0.03 -0.85,-0.05 -1.27,-0.05 l 0.1,0.5 0.16,0.62 0.18,0.62 0.2,0.6 z m 2.57,-2.61 c -0.76,0 -0.98,0.64 -0.95,1.43 0.02,0.83 0.48,1.35 1.16,1.26 0.66,-0.08 1.4,0.19 2,-0.1 l 0.07,-0.04 0.08,-0.16 0.23,-0.51 0.2,-0.51 v -0.16 c 0.02,-0.56 -0.15,-1.11 -0.79,-1.16 -0.66,-0.04 -1.33,-0.05 -2,-0.05 z m -1.33,3.13 c -0.4,0 -0.66,0.16 -0.81,0.42 l 0.17,0.34 0.32,0.55 0.36,0.53 0.39,0.52 0.27,0.32 c 0.07,0.01 0.14,0.01 0.21,0.02 l 0.15,-0.11 0.42,-0.34 0.39,-0.36 0.36,-0.39 0.34,-0.4 0.31,-0.43 0.02,-0.02 c -0.1,-0.32 -0.33,-0.56 -0.78,-0.59 -0.7,-0.05 -1.41,-0.06 -2.12,-0.06 z m 6.11,-13.8 c -0.68,0.1 -0.89,0.76 -0.86,1.56 0.01,0.58 0.22,1.02 0.56,1.24 l 0.06,-0.55 0.08,-0.72 0.07,-0.73 0.09,-0.73 z m -0.37,3.53 c -0.44,0.23 -0.57,0.79 -0.55,1.45 0.01,0.39 0.11,0.71 0.27,0.95 l 0.02,-0.15 0.08,-0.69 0.08,-0.7 0.08,-0.71 z m -4.14,-7.14 c -0.83,0.01 -1.07,0.7 -1.05,1.57 0.03,0.91 0.53,1.48 1.28,1.39 0.73,-0.09 1.54,0.21 2.2,-0.11 0.76,-0.37 0.62,-0.98 0.64,-1.51 0.02,-0.63 -0.17,-1.23 -0.87,-1.28 -0.73,-0.05 -1.47,-0.06 -2.2,-0.06 z m -0.12,-3.6 c -0.83,0.01 -1.07,0.71 -1.04,1.57 0.02,0.91 0.53,1.49 1.27,1.39 0.73,-0.09 1.54,0.21 2.2,-0.11 0.77,-0.37 0.62,-0.98 0.64,-1.51 0.02,-0.63 -0.17,-1.23 -0.87,-1.28 -0.73,-0.05 -1.47,-0.06 -2.2,-0.06 z m -4.42,-0.05 c -0.77,0 -1,0.65 -0.97,1.45 0.03,0.85 0.49,1.38 1.18,1.3 0.68,-0.09 1.44,0.19 2.05,-0.11 0.71,-0.34 0.58,-0.91 0.59,-1.4 0.02,-0.58 -0.15,-1.14 -0.8,-1.19 -0.68,-0.05 -1.37,-0.06 -2.05,-0.05 z m 0.04,3.36 c -0.71,0.01 -0.92,0.76 -0.89,1.7 0.02,0.99 0.45,1.61 1.09,1.51 0.63,-0.1 1.32,0.22 1.89,-0.12 0.66,-0.4 0.54,-1.06 0.55,-1.64 0.02,-0.68 -0.14,-1.33 -0.75,-1.39 -0.63,-0.05 -1.26,-0.06 -1.89,-0.06 z m 3.8,-7.54 c -0.83,0 -1.07,0.84 -1.04,1.87 0.03,1.09 0.53,1.77 1.27,1.66 0.73,-0.11 1.54,0.24 2.2,-0.14 0.77,-0.44 0.63,-1.16 0.64,-1.8 0.02,-0.74 -0.16,-1.46 -0.87,-1.52 -0.73,-0.07 -1.47,-0.07 -2.2,-0.07 z m -3.84,0.06 c -0.59,0 -0.76,0.82 -0.74,1.84 0.02,1.07 0.37,1.74 0.9,1.63 0.51,-0.11 1.09,0.24 1.55,-0.13 0.54,-0.44 0.44,-1.15 0.45,-1.78 0.01,-0.73 -0.12,-1.44 -0.61,-1.5 -0.52,-0.06 -1.04,-0.07 -1.55,-0.06 z m 3.31,-3.89 c -0.68,0 -0.88,0.79 -0.86,1.76 0.02,1.02 0.44,1.67 1.06,1.56 0.6,-0.1 1.28,0.23 1.83,-0.13 0.63,-0.41 0.51,-1.1 0.53,-1.69 0.01,-0.7 -0.14,-1.38 -0.72,-1.44 -0.61,-0.06 -1.22,-0.07 -1.84,-0.06 z m 4.92,11.71 c 0.02,-0.35 0.99,-0.39 1.03,-0.05 0.06,0.63 -0.05,1.51 -0.03,2.22 l -0.08,0.59 c -0.25,0.15 -0.9,0.09 -0.92,-0.17 -0.05,-0.75 -0.05,-1.84 0,-2.59 z m -0.24,-3.48 c -0.01,-0.67 1,-0.66 0.97,0 -0.03,0.82 0.19,1.44 0.2,2.25 0.01,0.7 -1.15,0.56 -1.07,-0.14 0.08,-0.79 -0.1,-1.33 -0.1,-2.11 z m 0.63,-1.32 c 0.06,0.37 -1.06,0.32 -1.12,-0.04 -0.12,-0.72 -0.2,-2.08 -0.24,-2.74 -0.02,-0.3 0.85,-0.2 0.87,0.1 0.06,0.64 0.38,1.96 0.49,2.68 z m -2.19,-6.6 c -0.01,-0.2 0.59,-0.2 0.63,0 0.15,0.81 0.53,1.73 0.78,2.64 0.1,0.37 -0.99,0.4 -1.12,0.05 -0.29,-0.79 -0.28,-1.79 -0.29,-2.69 z m -3.19,-3.21 c 0.29,-0.27 0.87,0.01 1.14,0.29 0.33,0.34 0.37,0.88 0.45,1.34 0.09,0.57 -0.18,0.51 -0.7,0.6 -0.55,0.09 -1.08,-0.02 -1.04,-0.74 0.03,-0.5 -0.22,-1.16 0.15,-1.49 z m 2.33,0.99 c -0.03,0.36 -0.18,0.8 0.05,1.09 0.18,0.23 0.59,0.07 0.89,0.1 0,0 -0.94,-1.24 -0.94,-1.19 z m -3.19,-0.92 c -0.56,0.09 -1.32,1.24 -1.66,1.99 -0.18,0.38 1.52,0.45 1.66,0.14 0.23,-0.51 0.41,-2.2 0,-2.13 z m -1.57,3.37 c 0.04,-0.38 1.19,-0.38 1.14,0 -0.1,0.73 0,1.75 0,2.42 0,0.33 -1.39,0.03 -1.38,-0.33 0.03,-0.63 0.17,-1.5 0.24,-2.09 z m -1.04,-0.09 c 0.11,-0.17 0.58,0.09 0.52,0.28 -0.2,0.66 0.11,1.68 -0.33,2.14 -0.17,0.17 -1.38,-0.13 -1.33,-0.33 0.17,-0.71 0.71,-1.46 1.14,-2.09 z m -1.57,3.37 c 0.12,-0.29 1,-0.01 0.9,0.28 -0.32,0.94 -0.29,2.04 -0.28,2.85 0,0.45 -1.3,0.11 -1.28,-0.33 0.03,-0.94 0.32,-1.99 0.66,-2.8 z m -0.81,4.32 c 0.12,-0.33 1.02,-0.25 1.05,0.1 0.04,0.58 0.16,1.45 0,1.95 -0.09,0.26 -0.6,0.17 -0.94,-0.04 l -0.23,-0.36 -0.06,-0.09 c 0.07,-0.47 0.04,-1.16 0.18,-1.56 z"
             id="path4713"
             inkscape:connector-curvature="0"
             style="fill:#eb872a" />
          <path
             d="m 621.99207,293.92 c -1.5,-2.75 -1.64,-5.4 -1.39,-8.01 0.3,1.7 0.98,3.02 2.2,3.79 -0.35,1.37 -0.61,2.77 -0.81,4.22 z"
             id="path4715"
             style="fill:#428c42;fill-opacity:1"
             inkscape:connector-curvature="0" />
        </g>
      </g>
    </g>
  </g>
</svg>
