<?xml version="1.0" encoding="UTF-8" standalone="no"?>
<!-- Created with Sodipodi ("http://www.sodipodi.com/") -->

<svg
   xmlns:dc="http://purl.org/dc/elements/1.1/"
   xmlns:cc="http://creativecommons.org/ns#"
   xmlns:rdf="http://www.w3.org/1999/02/22-rdf-syntax-ns#"
   xmlns:svg="http://www.w3.org/2000/svg"
   xmlns="http://www.w3.org/2000/svg"
   xmlns:sodipodi="http://sodipodi.sourceforge.net/DTD/sodipodi-0.dtd"
   xmlns:inkscape="http://www.inkscape.org/namespaces/inkscape"
   id="svg602"
   sodipodi:docname="sihgwa-Simple-pig.svg"
   inkscape:export-filename="C:\joanna\Gfx\drawings_vector\admin\thumbs\Hermann Schwarting\a_simple_pig_01.png"
   viewBox="0 0 122.94 83.115"
   sodipodi:version="0.32"
   inkscape:export-xdpi="216.68413"
   version="1.0"
   inkscape:output_extension="org.inkscape.output.svg.inkscape"
   inkscape:export-ydpi="216.68413"
   y="0"
   x="0"
   inkscape:version="0.92.1 r15371"
   width="131.136"
   height="88.655998">
  <defs
     id="defs14" />
  <sodipodi:namedview
     id="base"
     bordercolor="#666666"
     inkscape:pageshadow="2"
     guidetolerance="10.0"
     pagecolor="#ffffff"
     gridtolerance="10.0"
     inkscape:zoom="3.6266667"
     objecttolerance="10.0"
     borderopacity="1.0"
     inkscape:current-layer="svg602"
     inkscape:cx="23.161765"
     inkscape:cy="62.5"
     inkscape:window-y="-4"
     inkscape:window-x="-4"
     inkscape:window-height="744"
     showgrid="false"
     inkscape:pageopacity="0.0"
     inkscape:window-width="1280" />
  <path
     id="path615"
     style="stroke:#000000"
     d="m 101.43,42.615 c 0,22.079 -17.917,40 -39.996,40 -22.079,0 -40,-17.921 -40,-40 0,-22.079 17.921,-40 40,-40 22.079,-3e-4 39.996,17.921 39.996,40 z"
     inkscape:connector-curvature="0" />
  <path
     id="path616"
     style="fill:none;stroke:#000000;stroke-width:3;stroke-linecap:square"
     d="m 83.267,9.1847 c 22.433,-15.502 22.583,-2.343 38.173,-4.031 -8.94,10.733 -5.83,26.837 -22.997,21.341"
     inkscape:connector-curvature="0" />
  <path
     id="path617"
     style="fill:none;stroke:#000000;stroke-width:3;stroke-linecap:square"
     d="M 39.677,9.1437 C 17.243,-6.3583 17.094,6.8007 1.5,5.1127 c 8.941,10.733 5.835,26.837 23.001,21.341"
     inkscape:connector-curvature="0" />
  <path
     id="path618"
     style="fill:#ffffff;stroke:#000000"
     d="m 75.534,62.615 c 0,6.822 -6.139,12.36 -13.703,12.36 -7.564,0 -13.703,-5.538 -13.703,-12.36 0,-6.822 6.139,-12.36 13.703,-12.36 7.564,0 13.703,5.538 13.703,12.36 z"
     inkscape:connector-curvature="0" />
  <path
     id="path619"
     style="fill:#ffffff;stroke:#000000"
     d="m 46.152,35.892 c 0,2.521 -2.047,4.568 -4.568,4.568 -2.521,0 -4.568,-2.047 -4.568,-4.568 0,-2.521 2.047,-4.568 4.568,-4.568 2.521,0 4.568,2.047 4.568,4.568 z"
     inkscape:connector-curvature="0" />
  <path
     id="path620"
     style="fill:#ffffff;stroke:#000000"
     d="m 86.53,35.976 c 0,2.521 -2.047,4.568 -4.568,4.568 -2.521,0 -4.568,-2.047 -4.568,-4.568 0,-2.521 2.047,-4.568 4.568,-4.568 2.521,0 4.568,2.047 4.568,4.568 z"
     inkscape:connector-curvature="0" />
  <path
     id="path647"
     style="stroke:#000000"
     d="m 60.965,62.611 c 0,2.639 -2.249,4.781 -5.02,4.781 -2.771,0 -5.02,-2.142 -5.02,-4.781 0,-2.639 2.249,-4.781 5.02,-4.781 2.771,0 5.02,2.142 5.02,4.781 z"
     inkscape:connector-curvature="0" />
  <path
     id="path648"
     style="stroke:#000000"
     d="m 72.862,62.57 c 0,2.639 -2.249,4.781 -5.02,4.781 -2.771,0 -5.02,-2.142 -5.02,-4.781 0,-2.639 2.249,-4.781 5.02,-4.781 2.771,0 5.02,2.142 5.02,4.781 z"
     inkscape:connector-curvature="0" />
  <metadata
     id="metadata11">
    <rdf:RDF>
      <cc:Work>
        <dc:format>image/svg+xml</dc:format>
        <dc:type
           rdf:resource="http://purl.org/dc/dcmitype/StillImage" />
        <cc:license
           rdf:resource="http://creativecommons.org/licenses/publicdomain/" />
        <dc:publisher>
          <cc:Agent
             rdf:about="http://openclipart.org/">
            <dc:title>Openclipart</dc:title>
          </cc:Agent>
        </dc:publisher>
        <dc:title>Simple pig</dc:title>
        <dc:date>2009-04-06T05:55:58</dc:date>
        <dc:description>Simple pig head by Hermann Schwarting. From old OCAL site.</dc:description>
        <dc:source>https://openclipart.org/detail/24117/simple-pig-by-anonymous-24117</dc:source>
        <dc:creator>
          <cc:Agent>
            <dc:title>Anonymous</dc:title>
          </cc:Agent>
        </dc:creator>
        <dc:subject>
          <rdf:Bag>
            <rdf:li>animal</rdf:li>
            <rdf:li>basic</rdf:li>
            <rdf:li>black</rdf:li>
            <rdf:li>farm</rdf:li>
            <rdf:li>head</rdf:li>
            <rdf:li>mammal</rdf:li>
            <rdf:li>monochrome</rdf:li>
            <rdf:li>pig</rdf:li>
            <rdf:li>simple</rdf:li>
          </rdf:Bag>
        </dc:subject>
      </cc:Work>
      <cc:License
         rdf:about="http://creativecommons.org/licenses/publicdomain/">
        <cc:permits
           rdf:resource="http://creativecommons.org/ns#Reproduction" />
        <cc:permits
           rdf:resource="http://creativecommons.org/ns#Distribution" />
        <cc:permits
           rdf:resource="http://creativecommons.org/ns#DerivativeWorks" />
      </cc:License>
    </rdf:RDF>
  </metadata>
</svg>
