<?xml version="1.0" encoding="UTF-8" standalone="no"?>
<!-- Created with Inkscape (http://www.inkscape.org/) -->

<svg
   xmlns:dc="http://purl.org/dc/elements/1.1/"
   xmlns:cc="http://creativecommons.org/ns#"
   xmlns:rdf="http://www.w3.org/1999/02/22-rdf-syntax-ns#"
   xmlns:svg="http://www.w3.org/2000/svg"
   xmlns="http://www.w3.org/2000/svg"
   xmlns:sodipodi="http://sodipodi.sourceforge.net/DTD/sodipodi-0.dtd"
   xmlns:inkscape="http://www.inkscape.org/namespaces/inkscape"
   id="svg2816"
   sodipodi:docname="Three-Legged-Stool-Outline.svg"
   viewBox="0 0 720 780"
   version="1.2"
   inkscape:version="0.92.1 r15371"
   width="768"
   height="832">
  <defs
     id="defs12" />
  <sodipodi:namedview
     id="namedview10"
     bordercolor="#666666"
     inkscape:pageshadow="2"
     guidetolerance="10"
     pagecolor="#ffffff"
     gridtolerance="10"
     inkscape:window-maximized="0"
     inkscape:zoom="0.3025641"
     objecttolerance="10"
     borderopacity="1"
     inkscape:current-layer="svg2816"
     inkscape:cx="870.63559"
     inkscape:cy="390"
     inkscape:window-y="0"
     inkscape:window-x="0"
     inkscape:window-width="1228"
     showgrid="false"
     inkscape:pageopacity="0"
     inkscape:window-height="874" />
  <title
     id="title2928">Three Legged Stool Outline</title>
  <flowRoot
     id="flowRoot3242"
     xml:space="preserve"
     style="line-height:0.01%;font-family:'Bitstream Vera Sans';fill:#000000"
     transform="matrix(0.46608,0,0,0.46608,360.88,68.591)"><flowRegion
       id="flowRegion3244"><rect
         id="rect3246"
         y="147.7"
         width="374.28"
         x="1038.8"
         height="78.056999" /></flowRegion><flowPara
       id="flowPara3248"
       style="font-size:16px;line-height:1.25"> </flowPara></flowRoot>  <path
     id="path3258"
     style="fill:#000000"
     d="m 309.03,761.81 c -13.881,-10.54 -4.8103,-370.31 -3.4691,-575.33 -1.4618,-0.90347 -8.0766,-2.364 -22.549,-3.2457 -8.7712,-0.53436 -11.12,-1.0687 -19.891,-1.6031 -2.2385,7.4178 -4.4769,14.836 -6.7154,22.253 -41.095,142.28 -83.16,281.78 -129.05,425.19 -3.5744,14.042 -5.5108,16.733 -15.428,21.439 -18.519,8.7879 -89.105,5.3473 -97.741,-5.0588 -1.8642,-2.2462 0.06058,-12.095 6.3198,-32.338 39.792,-147.75 90.364,-289.73 133.81,-445.54 -0.017,-1.5905 -6.6113,-4.3644 -14.654,-6.1643 -21.97,-4.91 -43.952,-20.05 -50.217,-30.19 -8.705,-18.93 -11.587,-42.62 -0.465,-60.773 13.832,-21.536 23.142,-27.521 122.09,-47.363 98.95,-19.843 286.06,-8.695 355.64,11.86 69.575,20.555 67.056,28.346 69.171,61.232 1.2941,20.125 -1.7318,28.465 -14.772,40.716 -8.4972,7.9827 -27.615,19.954 -45.093,24.147 -7.6483,1.8348 -13.906,3.7846 -13.906,4.3328 0,0.54825 5.2448,18.025 11.655,38.836 46.831,141.23 89.491,289.22 131.66,429.76 3.7252,6.4084 -2.5745,13.612 -15.732,17.99 -14.487,4.8201 -76.366,4.0361 -86.447,-1.1768 -18.185,-3.9871 -147.02,-465.96 -149.52,-468.34 -14.454,-0.32447 -29.246,1.1517 -43.766,2.2694 -1.1633,191.77 2.2922,572.29 -0.27788,576.39 -2.5701,4.1053 -86.78,11.24 -100.66,0.69963 z m 86.017,-8.551 c 4.9009,-7.24 -0.67081,-378.81 0.0642,-568.21 h -36.908 -36.908 c -3.8532,174.09 -13.461,561.92 -2.56,568.6 6.4732,9.2511 70.217,5.469 76.311,-0.39543 z m -289.34,-111.68 c 7.5682,-7.0393 99.581,-306.44 143.6,-460.35 0,-0.68139 -10.299,-1.8384 -15.038,-2.571 -4.7385,-0.73267 -19.821,-3.2638 -33.517,-5.6247 -17.008,-2.9318 -31.868,-3.413 -33.039,-1.5179 -45.74,153.08 -89.806,284.87 -139.52,460.23 -4.6032,18.767 67.484,14.201 77.515,9.8282 z m 584.18,-4.8281 c 2.267,-2.7562 -87.509,-293.93 -133.53,-441.76 -4.351,-14.215 -8.7129,-25.843 -9.6932,-25.839 -3.5864,0.0154 -77.701,10.494 -78.313,11.196 -0.34734,0.39878 2.0924,9.6718 5.4216,20.607 49.824,148.37 123.51,425.9 135.27,438.66 6.8059,7.8384 77.317,4.5532 80.839,-2.8633 z m -262.6,-464.95 c 65.265,-4.4998 145.68,-19.171 171.26,-32.686 18.172,-9.5987 24.031,-17.143 22.899,-29.484 l -0.81446,-8.8768 -18.283,9.0677 c -33.107,16.419 -87.412,27.365 -169.93,34.251 -57.438,4.7932 -91.919,4.789 -149.78,-0.018 -83.286,-6.9198 -156.98,-26.346 -167.04,-33.062 -13.671,-9.1327 -22.85,-17.948 -23.07,-4.9652 -0.37871,22.347 26.265,35.681 63.294,45.785 24.192,6.6014 93.924,17.616 125.49,19.822 42.069,2.9398 104.64,3.0148 145.97,0.1656 z m 66.106,-45.115 c 49.55,-7.09 85.26,-16.3 105.75,-27.275 19.35,-10.363 22.59,-14.874 17.52,-24.364 -10.62,-19.83 -99.92,-40.419 -157.73,-46.484 -57.82,-6.064 -145.4,-5.69 -202.8,0.087 -57.39,5.777 -142.91,24.81 -155.49,44.006 -16.713,30.229 92.826,48.53 106.45,51.075 66.672,9.922 78.134,10.553 172.31,9.489 58.342,-0.65931 82.734,-2.0568 113.99,-6.531 v -5e-5 z"
     inkscape:connector-curvature="0" />
  <metadata
     id="metadata9">
    <rdf:RDF>
      <cc:Work>
        <dc:format>image/svg+xml</dc:format>
        <dc:type
           rdf:resource="http://purl.org/dc/dcmitype/StillImage" />
        <cc:license
           rdf:resource="http://creativecommons.org/licenses/publicdomain/" />
        <dc:publisher>
          <cc:Agent
             rdf:about="http://openclipart.org/">
            <dc:title>Openclipart</dc:title>
          </cc:Agent>
        </dc:publisher>
        <dc:title>Three Legged Stool Outline</dc:title>
        <dc:date>2010-03-15T13:02:03</dc:date>
        <dc:description>Simple three legged stool outline</dc:description>
        <dc:source>https://openclipart.org/detail/31807/three-legged-stool-outline-by-rygle</dc:source>
        <dc:creator>
          <cc:Agent>
            <dc:title>rygle</dc:title>
          </cc:Agent>
        </dc:creator>
        <dc:subject>
          <rdf:Bag>
            <rdf:li>balance</rdf:li>
            <rdf:li>balanced</rdf:li>
            <rdf:li>cartoon</rdf:li>
            <rdf:li>chair</rdf:li>
            <rdf:li>coloring book</rdf:li>
            <rdf:li>leg</rdf:li>
            <rdf:li>legged</rdf:li>
            <rdf:li>line art</rdf:li>
            <rdf:li>outline</rdf:li>
            <rdf:li>stool</rdf:li>
            <rdf:li>three</rdf:li>
            <rdf:li>wooden</rdf:li>
          </rdf:Bag>
        </dc:subject>
      </cc:Work>
      <cc:License
         rdf:about="http://creativecommons.org/licenses/publicdomain/">
        <cc:permits
           rdf:resource="http://creativecommons.org/ns#Reproduction" />
        <cc:permits
           rdf:resource="http://creativecommons.org/ns#Distribution" />
        <cc:permits
           rdf:resource="http://creativecommons.org/ns#DerivativeWorks" />
      </cc:License>
    </rdf:RDF>
  </metadata>
</svg>
