<?xml version="1.0" encoding="UTF-8" standalone="no"?>
<!-- Created with Inkscape (http://www.inkscape.org/) -->

<svg
   xmlns:dc="http://purl.org/dc/elements/1.1/"
   xmlns:cc="http://creativecommons.org/ns#"
   xmlns:rdf="http://www.w3.org/1999/02/22-rdf-syntax-ns#"
   xmlns:svg="http://www.w3.org/2000/svg"
   xmlns="http://www.w3.org/2000/svg"
   xmlns:sodipodi="http://sodipodi.sourceforge.net/DTD/sodipodi-0.dtd"
   xmlns:inkscape="http://www.inkscape.org/namespaces/inkscape"
   width="204.8"
   height="204.8"
   viewBox="0 0 191.99999 192"
   id="svg2"
   version="1.1"
   inkscape:version="0.92.1 r15371"
   sodipodi:docname="torch_symbolic.svg">
  <defs
     id="defs4">
    <pattern
       id="EMFhbasepattern"
       patternUnits="userSpaceOnUse"
       width="6"
       height="6"
       x="0"
       y="0" />
  </defs>
  <sodipodi:namedview
     id="base"
     pagecolor="#ffffff"
     bordercolor="#666666"
     borderopacity="1.0"
     inkscape:pageopacity="0.0"
     inkscape:pageshadow="2"
     inkscape:zoom="0.5"
     inkscape:cx="100.85088"
     inkscape:cy="102.86409"
     inkscape:document-units="px"
     inkscape:current-layer="layer1"
     showgrid="false"
     units="px"
     inkscape:snap-bbox="true"
     inkscape:bbox-nodes="true"
     inkscape:snap-bbox-edge-midpoints="true"
     inkscape:snap-bbox-midpoints="true"
     inkscape:snap-page="true"
     inkscape:object-nodes="true"
     inkscape:snap-object-midpoints="false"
     inkscape:snap-center="true">
    <inkscape:grid
       type="xygrid"
       id="grid3340"
       originx="0"
       originy="0"
       spacingx="1"
       spacingy="1" />
  </sodipodi:namedview>
  <metadata
     id="metadata7">
    <rdf:RDF>
      <cc:Work
         rdf:about="">
        <dc:format>image/svg+xml</dc:format>
        <dc:type
           rdf:resource="http://purl.org/dc/dcmitype/StillImage" />
        <dc:title />
      </cc:Work>
    </rdf:RDF>
  </metadata>
  <g
     inkscape:label="Layer 1"
     inkscape:groupmode="layer"
     id="layer1"
     transform="translate(0,-860.36216)">
    <g
       id="g4375"
       transform="rotate(45,70.927892,902.06196)"
       style="fill:#000000">
      <path
         style="color:#000000;clip-rule:nonzero;display:inline;overflow:visible;visibility:visible;opacity:1;isolation:auto;mix-blend-mode:normal;color-interpolation:sRGB;color-interpolation-filters:linearRGB;solid-color:#000000;solid-opacity:1;fill:#000000;fill-opacity:1;fill-rule:nonzero;stroke:none;stroke-width:1;stroke-linecap:round;stroke-linejoin:round;stroke-miterlimit:4;stroke-dasharray:none;stroke-opacity:1;color-rendering:auto;image-rendering:auto;shape-rendering:auto;text-rendering:auto;enable-background:accumulate"
         d="m 201.73438,51.710938 c 0,0 -0.0517,0.458315 -0.24219,1.240234 -0.19068,0.782682 -0.53178,1.869516 -1.17188,3.041016 -0.58767,1.07273 -1.41457,2.189264 -2.49414,3.097656 -0.93617,0.802524 -2.04624,1.448279 -3.30859,1.990234 -1.14533,0.490478 -2.3788,0.840048 -3.69922,1.113281 -1.25579,0.262379 -2.57328,0.425862 -3.99609,0.583985 -1.45734,0.159261 -2.78504,0.258829 -4.39844,0.429687 -1.14694,0.119303 -2.33271,0.259742 -3.55078,0.457031 -0.42807,0.0693 -0.86276,0.145602 -1.30274,0.230469 -1.6836,0.321394 -3.44319,0.777207 -5.22461,1.414063 -1.81628,0.64626 -3.60265,1.505376 -5.28515,2.582031 -1.75245,1.116196 -3.3236,2.490631 -4.63086,4.054687 -1.17782,1.423166 -2.04803,2.939751 -2.65821,4.439454 -0.68363,1.676896 -1.03624,3.316447 -1.1582,4.814453 -0.14756,1.830049 0.0522,3.423802 0.35352,4.689453 0.32869,1.382592 0.79296,2.428943 1.1289,3.085937 0.34248,0.669871 0.57422,1.001953 0.57422,1.001953 0,0 0.0282,-0.405309 0.14258,-1.11914 0.11375,-0.710855 0.32334,-1.728908 0.73828,-2.884766 0.38008,-1.057697 0.92697,-2.214985 1.69922,-3.330078 0.62955,-0.911319 1.3948,-1.779103 2.28711,-2.552734 0.79706,-0.688878 1.68043,-1.290974 2.61328,-1.757813 0.6928,-0.355674 1.43593,-0.649204 2.22266,-0.908203 -0.0288,0.06541 -0.0577,0.131208 -0.084,0.197266 -0.40772,1.000202 -0.61673,1.979546 -0.68945,2.873047 -0.0881,1.091461 0.0312,2.042017 0.21094,2.796875 0.19609,0.824698 0.47153,1.448021 0.67187,1.839843 0.20424,0.39953 0.34375,0.597657 0.34375,0.597657 0,0 0.0158,-0.242164 0.084,-0.667969 0.0678,-0.423946 0.19201,-1.029328 0.43945,-1.71875 0.22673,-0.630845 0.55509,-1.323134 1.01562,-1.988281 0.37551,-0.543511 0.83131,-1.061775 1.36329,-1.523438 0.47494,-0.411303 1.0022,-0.768437 1.55859,-1.046875 0.61458,-0.315476 1.29508,-0.548704 2.0293,-0.753906 0.71278,-0.197955 1.47013,-0.338999 2.27343,-0.472656 0.79643,-0.131862 1.64008,-0.239816 2.52735,-0.375 0.23213,-0.0349 0.46587,-0.07103 0.70312,-0.109375 0.67286,-0.108683 1.38255,-0.237599 2.11328,-0.398438 0.58851,-0.128382 1.19002,-0.279429 1.79883,-0.458984 -0.58544,0.699993 -1.12157,1.429011 -1.60547,2.173828 -0.81439,1.24728 -1.49616,2.503649 -2.06445,3.716797 -0.4219,0.895197 -0.78554,1.763104 -1.10352,2.583984 -0.11204,0.28949 -0.21883,0.575322 -0.32226,0.857422 -0.3994,1.079865 -0.7266,2.093951 -1.05664,3.039063 -0.33209,0.948435 -0.63791,1.835341 -0.99219,2.65625 -0.36577,0.843875 -0.73416,1.624821 -1.18555,2.318359 -0.85461,1.357192 -2.14584,2.502488 -3.5664,3.267578 -1.47075,0.795361 -2.9776,1.12068 -4.11914,1.244141 -1.13274,0.122463 -1.83594,0.06836 -1.83594,0.06836 0,0 0.41163,0.561278 1.40625,1.332031 0.97078,0.752273 2.6375,1.763233 4.99805,2.189453 2.29744,0.41187 5.22178,0.25281 8.17578,-1.17969 1.52134,-0.749085 2.94059,-1.746208 4.16992,-2.93945 1.18435,-1.142918 2.20626,-2.406373 3.04883,-3.726563 0.82858,-1.292513 1.49732,-2.592438 2.02929,-3.841797 0.13989,-0.326336 0.27122,-0.648747 0.39454,-0.966797 0.35087,-0.904863 0.64222,-1.785869 0.90039,-2.634765 0.34887,-1.137367 0.63221,-2.224981 0.91211,-3.226563 0.29115,-1.03239 0.54786,-1.975199 0.86132,-2.865234 0.32417,-0.931924 0.67941,-1.800515 1.13086,-2.599609 0.49682,-0.879118 1.04795,-1.653552 1.71485,-2.291016 0.75437,-0.738389 1.67218,-1.278663 2.55468,-1.638672 0.96499,-0.392076 1.84809,-0.557887 2.48829,-0.632812 0.63778,-0.07461 1.01171,-0.06836 1.01171,-0.06836 0,0 -0.23915,-0.2819 -0.77539,-0.710937 -0.52404,-0.419251 -1.40033,-1.015876 -2.64843,-1.458985 -1.14641,-0.408474 -2.66211,-0.705549 -4.43555,-0.537109 -0.61216,0.0614 -1.24081,0.173 -1.87695,0.337891 1.64075,-1.039355 3.09302,-2.273997 4.31445,-3.636719 1.45179,-1.610874 2.48934,-3.391138 3.13281,-5.142578 0.73291,-2.023676 0.86509,-3.89746 0.75586,-5.386719 -0.11734,-1.62018 -0.5238,-2.862992 -0.83984,-3.632813 -0.32314,-0.787052 -0.57031,-1.171874 -0.57031,-1.171874 z m -54.59376,31.933593 -8.48632,2.828125 -2.82813,8.484375 28.28516,28.285159 8.48437,-2.82813 2.82813,-8.48633 z m -11.31445,16.970699 -7.85547,10.09961 28.35938,14.17969 2.12304,-1.65234 z m -10.35937,13.32032 -6.99805,8.99804 24.58008,12.29102 9.77929,-7.60938 z m -9.50391,12.21875 -6.99805,8.99804 20.80078,10.40235 9.78321,-7.60938 z m -9.50391,12.21875 -6.998042,8.99804 17.025392,8.51368 9.77929,-7.60743 z m -9.501949,12.21875 -7,8.99804 13.248049,6.62305 9.7793,-7.60547 z m -9.505859,12.21875 -6.998047,8.99804 9.46875,4.73438 9.78125,-7.60742 z m -9.501953,12.21875 -7,8.99804 5.693359,2.84571 9.78125,-7.60743 z m -9.503907,12.21875 -11.814453,15.18945 16.509766,-12.8418 z"
         transform="rotate(-45,1089.2941,529.24944)"
         id="rect3338"
         inkscape:connector-curvature="0" />
    </g>
  </g>
</svg>
