<?xml version="1.0" encoding="UTF-8" standalone="no"?>
<!-- Created with Inkscape (http://www.inkscape.org/) -->

<svg
   xmlns:dc="http://purl.org/dc/elements/1.1/"
   xmlns:cc="http://creativecommons.org/ns#"
   xmlns:rdf="http://www.w3.org/1999/02/22-rdf-syntax-ns#"
   xmlns:svg="http://www.w3.org/2000/svg"
   xmlns="http://www.w3.org/2000/svg"
   xmlns:sodipodi="http://sodipodi.sourceforge.net/DTD/sodipodi-0.dtd"
   xmlns:inkscape="http://www.inkscape.org/namespaces/inkscape"
   id="svg4474"
   sodipodi:docname="uska-skullandbones.svg"
   viewBox="0 0 15.169 12.975"
   version="1.1"
   inkscape:version="0.92.1 r15371"
   width="16.180265"
   height="13.84">
  <defs
     id="defs19" />
  <sodipodi:namedview
     id="base"
     bordercolor="#666666"
     inkscape:pageshadow="2"
     inkscape:window-y="3"
     pagecolor="#ffffff"
     inkscape:window-height="575"
     inkscape:window-maximized="1"
     inkscape:zoom="22.4"
     inkscape:window-x="-5"
     showgrid="false"
     borderopacity="1.0"
     inkscape:current-layer="layer1"
     inkscape:cx="8.0129589"
     inkscape:cy="5.5958111"
     inkscape:window-width="1024"
     inkscape:pageopacity="0.0"
     inkscape:document-units="px" />
  <g
     id="layer1"
     inkscape:label="Layer 1"
     inkscape:groupmode="layer"
     transform="translate(67.81,-73.156)">
    <path
       id="rect4357"
       style="fill:#ffffff;stroke:#000000;stroke-width:0.5"
       d="m -65.647,73.406 c -0.22393,0 -0.45415,0.07914 -0.625,0.25 -0.21357,0.21357 -0.27214,0.50548 -0.21875,0.78125 -0.27985,-0.05911 -0.59517,0.03267 -0.8125,0.25 -0.34171,0.34171 -0.34171,0.87704 0,1.2188 0.34171,0.34171 0.90829,0.34171 1.25,0 0.0679,-0.0679 0.11533,-0.13741 0.15625,-0.21875 l 3.5625,3.5625 0.625,-0.625 -3.5625,-3.5625 c 0.08134,-0.04092 0.15085,-0.08835 0.21875,-0.15625 0.34171,-0.34171 0.34171,-0.90829 0,-1.25 -0.17086,-0.17086 -0.36982,-0.25 -0.59375,-0.25 z m 10.875,0 c -0.22393,0 -0.45415,0.07914 -0.625,0.25 -0.34171,0.34171 -0.34171,0.90829 0,1.25 0.0679,0.0679 0.13741,0.11533 0.21875,0.15625 l -3.5625,3.5625 0.625,0.625 3.5625,-3.5625 c 0.04092,0.08134 0.08835,0.15085 0.15625,0.21875 0.34171,0.34171 0.90829,0.34171 1.25,0 0.34171,-0.34171 0.34171,-0.87704 0,-1.2188 -0.21357,-0.21357 -0.50548,-0.30339 -0.78125,-0.25 0.05339,-0.27577 -0.03643,-0.56768 -0.25,-0.78125 -0.17085,-0.17086 -0.36982,-0.25 -0.59375,-0.25 z m -7.5625,6.625 -3.5625,3.5625 c -0.04092,-0.08134 -0.08835,-0.15085 -0.15625,-0.21875 -0.34171,-0.34171 -0.90829,-0.34171 -1.25,0 -0.34171,0.34171 -0.34171,0.87704 0,1.2188 0.21733,0.21733 0.53265,0.27786 0.8125,0.21875 -0.05911,0.27985 0.0014,0.59517 0.21875,0.8125 0.34171,0.34171 0.87704,0.34171 1.2188,0 0.34171,-0.34171 0.34171,-0.90829 0,-1.25 -0.0679,-0.0679 -0.13741,-0.11533 -0.21875,-0.15625 l 3.5625,-3.5625 -0.625,-0.625 z m 4.2188,0 -0.625,0.625 3.5625,3.5625 c -0.08134,0.04092 -0.15085,0.08835 -0.21875,0.15625 -0.34171,0.34171 -0.34171,0.90829 0,1.25 0.34171,0.34171 0.87704,0.34171 1.2188,0 0.21733,-0.21733 0.30911,-0.53265 0.25,-0.8125 0.27577,0.05339 0.56768,-0.0052 0.78125,-0.21875 0.34171,-0.34171 0.34171,-0.87704 0,-1.2188 -0.34171,-0.34171 -0.90829,-0.34171 -1.25,0 -0.0679,0.0679 -0.11533,0.13741 -0.15625,0.21875 l -3.5625,-3.5625 z"
       inkscape:connector-curvature="0" />
    <path
       id="rect4317"
       style="fill:#ffffff;stroke:#000000;stroke-width:0.5"
       d="m -59.906,74.812 c -2.5628,0 -4.6562,1.6844 -4.6562,3.7812 0,1.4265 0.98457,2.6637 2.4062,3.3125 v 1.8125 h 4.5 v -1.8125 c 1.4217,-0.64881 2.375,-1.886 2.375,-3.3125 0,-2.0968 -2.0622,-3.7812 -4.625,-3.7812 z"
       inkscape:connector-curvature="0" />
    <g
       id="g4369"
       style="fill:#ececec"
       transform="matrix(0.70711,0.70711,0.70711,-0.70711,-604.07,179.52)" />
    <g
       id="g4359"
       style="fill:#ececec"
       transform="matrix(-0.70711,0.70711,-0.70711,-0.70711,484.07,179.52)" />
    <g
       id="g4343"
       style="fill:#ececec"
       transform="matrix(0.70711,-0.70711,0.70711,0.70711,-604.07,-20.511)" />
    <circle
       id="path4319"
       style="fill:#000000"
       transform="matrix(1.3889,0,0,1.3889,-505.21,-544.06)"
       cx="319.34711"
       cy="449.11172"
       r="0.79549515" />
    <path
       id="path4321"
       style="fill:#000000"
       sodipodi:type="star"
       sodipodi:sides="3"
       sodipodi:r1="0.98821175"
       sodipodi:r2="0.49410588"
       sodipodi:arg1="-0.52359878"
       sodipodi:arg2="0.52359878"
       transform="rotate(180,129.74,266.93)"
       inkscape:randomized="0"
       sodipodi:cy="452.02853"
       sodipodi:cx="319.43549"
       inkscape:rounded="0"
       inkscape:flatsided="false"
       d="m 320.2913,451.53443 -0.42791,0.74116 -0.4279,0.74116 -0.42791,-0.74116 -0.42791,-0.74116 0.85582,0 z" />
    <circle
       id="path4323"
       style="fill:#000000"
       transform="matrix(1.3889,0,0,1.3889,-501.68,-543.98)"
       cx="319.34711"
       cy="449.11172"
       r="0.79549515" />
    <path
       id="path4325"
       style="fill:none;stroke:#000000;stroke-width:0.21052"
       d="m -61.19,83.028 v 0.68551"
       inkscape:connector-curvature="0" />
    <path
       id="path4327"
       style="fill:none;stroke:#000000;stroke-width:0.21052"
       d="m -60.387,83.028 v 0.68551"
       inkscape:connector-curvature="0" />
    <path
       id="path4329"
       style="fill:none;stroke:#000000;stroke-width:0.21052"
       d="m -59.584,83.028 v 0.68551"
       inkscape:connector-curvature="0" />
    <path
       id="path4331"
       style="fill:none;stroke:#000000;stroke-width:0.21052"
       d="m -58.781,83.028 v 0.68551"
       inkscape:connector-curvature="0" />
  </g>
  <metadata
     id="metadata16">
    <rdf:RDF>
      <cc:Work>
        <dc:format>image/svg+xml</dc:format>
        <dc:type
           rdf:resource="http://purl.org/dc/dcmitype/StillImage" />
        <cc:license
           rdf:resource="http://creativecommons.org/licenses/publicdomain/" />
        <dc:publisher>
          <cc:Agent
             rdf:about="http://openclipart.org/">
            <dc:title>Openclipart</dc:title>
          </cc:Agent>
        </dc:publisher>
        <dc:title>Skull and Crossbones</dc:title>
        <dc:date>2011-02-24T00:54:17</dc:date>
        <dc:description />
        <dc:source>https://openclipart.org/detail/121987/skull-and-crossbones-by-dear_theophilus</dc:source>
        <dc:creator>
          <cc:Agent>
            <dc:title>dear_theophilus</dc:title>
          </cc:Agent>
        </dc:creator>
        <dc:subject>
          <rdf:Bag>
            <rdf:li>bones</rdf:li>
            <rdf:li>crossbones</rdf:li>
            <rdf:li>flag</rdf:li>
            <rdf:li>pirate</rdf:li>
            <rdf:li>skull</rdf:li>
          </rdf:Bag>
        </dc:subject>
      </cc:Work>
      <cc:License
         rdf:about="http://creativecommons.org/licenses/publicdomain/">
        <cc:permits
           rdf:resource="http://creativecommons.org/ns#Reproduction" />
        <cc:permits
           rdf:resource="http://creativecommons.org/ns#Distribution" />
        <cc:permits
           rdf:resource="http://creativecommons.org/ns#DerivativeWorks" />
      </cc:License>
    </rdf:RDF>
  </metadata>
</svg>
