<?xml version="1.0" encoding="UTF-8" standalone="no"?>
<svg
   xmlns:dc="http://purl.org/dc/elements/1.1/"
   xmlns:cc="http://creativecommons.org/ns#"
   xmlns:rdf="http://www.w3.org/1999/02/22-rdf-syntax-ns#"
   xmlns:svg="http://www.w3.org/2000/svg"
   xmlns="http://www.w3.org/2000/svg"
   xmlns:sodipodi="http://sodipodi.sourceforge.net/DTD/sodipodi-0.dtd"
   xmlns:inkscape="http://www.inkscape.org/namespaces/inkscape"
   id="svg2"
   sodipodi:docname="stop-technoargia-Bulle-gauche-stop.svg"
   viewBox="0 0 275.21 173.53"
   sodipodi:version="0.32"
   version="1.0"
   inkscape:version="0.92.1 r15371"
   width="293.55731"
   height="185.09866">
  <defs
     id="defs30" />
  <sodipodi:namedview
     id="base"
     bordercolor="#666666"
     inkscape:pageshadow="2"
     inkscape:window-y="0"
     pagecolor="#ffffff"
     inkscape:window-maximized="0"
     inkscape:window-width="674"
     inkscape:zoom="4.2228117"
     inkscape:window-x="0"
     showgrid="false"
     borderopacity="1.0"
     inkscape:current-layer="svg2"
     inkscape:cx="138.86225"
     inkscape:cy="-772.33218"
     inkscape:window-height="645"
     inkscape:pageopacity="0.0" />
  <path
     id="path4832"
     style="color:#000000;fill:none;stroke:#030900;stroke-width:6.72200012;stroke-linecap:round;stroke-linejoin:round;stroke-opacity:0.36704"
     inkscape:connector-curvature="0"
     d="m 39.006,94.293 6.4,53.88 M 6.511,80.879 c 0.3698,0.646 18.917,14.997 19.636,15.197 0.719,0.19 23.983,-2.77 24.629,-3.14 C 51.423,92.566 65.775,74.015 65.971,73.297 66.167,72.578 63.2,49.314 62.831,48.667 62.461,48.021 43.913,33.668 43.194,33.473 42.476,33.277 19.212,36.243 18.565,36.613 17.918,36.983 3.566,55.531 3.37,56.249 3.1744,56.968 6.1408,80.232 6.5106,80.879 Z" />
  <path
     id="path4"
     style="fill:#000000;fill-opacity:0.33794998;stroke-opacity:0"
     inkscape:connector-curvature="0"
     d="m 182.21,0.034103 c -46,1 -92.996,24 -93.996,69 0,21.999 12.996,36.998997 31.996,45.998997 -9,2 -16,7 -16,13 0,4 2,6 5,8 -4,0 -7,2 -7,5 0,5 15,5 15,-1 v -1 c 14,4 35,-1 36,-12 v -1 c 53,8 120,-15 122,-63.998997 0,-42 -46,-63 -93,-62" />
  <path
     id="path6"
     style="fill:#ffffff;stroke:#000000;stroke-width:3"
     inkscape:connector-curvature="0"
     d="m 273.21,57.034 c -4,82.999 -183,91.999 -185,8 2.004,-75.998 185,-78.998 185,-8 z" />
  <path
     id="path8"
     style="fill:#ffffff;stroke:#000000;stroke-width:3"
     inkscape:connector-curvature="0"
     d="m 154.21,125.03 c -1,17 -47,19 -48,2 1,-19 48,-19 48,-2 z" />
  <path
     id="path10"
     style="fill:#ffffff;stroke:#000000;stroke-width:3"
     inkscape:connector-curvature="0"
     d="m 116.21,139.03 c 0,5 -14,6 -14,0 0,-6 14,-6 14,0 z" />
  <path
     id="path12"
     inkscape:connector-curvature="0"
     sodipodi:nodetypes="cc"
     style="fill:none;stroke:#000000;stroke-width:5;stroke-linecap:round;stroke-linejoin:round"
     d="m 63.448,156.5 c -16.187,2.67 -8.013,-4.45 -12.931,-13.68" />
  <path
     id="path14"
     style="fill:#f9e1e1;stroke:#000000;stroke-width:3"
     inkscape:connector-curvature="0"
     d="m 89.211,131.03 c 5,1 8.996,10 7,17 -1,8 -8,14 -12,13 -5,-1 -9,-9 -7,-17 1,-7 8,-14 12,-13 z" />
  <path
     id="path16"
     style="fill:#f7dfdf;stroke:#000000;stroke-width:3"
     inkscape:connector-curvature="0"
     d="m 62.211,132.03 c 5,-1 12,5 14,12 2,7 -1,16 -5,17 -5,1 -12,-4 -14,-12 -3,-7 0,-15 5,-17 z" />
  <path
     id="path18"
     style="fill:#1a1a1a;stroke:#000000"
     inkscape:connector-curvature="0"
     d="m 85.79,137.48 c 2,0 2,3 2,5 -1,2 -4,4 -5,3 -2,-1 -2,-3 -2,-5 1,-2 4,-4 5,-3 z" />
  <path
     id="path20"
     style="fill:#1a1a1a;stroke:#000000"
     inkscape:connector-curvature="0"
     d="m 61.291,136.01 c 1,0 4,1 5,3 0,2 0,5 -2,6 -1,0 -4,-1 -5,-3 0,-2 0,-5 2,-6 z" />
  <path
     id="path22"
     style="fill:none;stroke:#000000;stroke-width:3;stroke-linecap:round;stroke-linejoin:round"
     inkscape:connector-curvature="0"
     d="m 53.265,130.14 c 6.414,-5.73 21.73,-14.59 21.146,1.68" />
  <path
     id="path24"
     style="fill:none;stroke:#000000;stroke-width:3;stroke-linecap:round;stroke-linejoin:round"
     inkscape:connector-curvature="0"
     d="M 97.677,128.27 C 90.376,122.63 73.86,116.87 78.09,132.33" />
  <path
     id="path26"
     style="fill:#e5e5e5;stroke:#000000;stroke-width:3"
     inkscape:connector-curvature="0"
     d="m 58.211,166.03 c 3,0 5,1 5,3 0,1 -2,2 -5,2 -2,0 -4,-1 -4,-2 0,-2 2,-3 4,-3 z" />
  <path
     id="path28"
     style="fill:#e5e5e5;stroke:#000000;stroke-width:3"
     inkscape:connector-curvature="0"
     d="m 94.211,164.03 c 2,0 3.996,2 3.996,4 0,2 -1.996,3 -3.996,3 -2,0 -4,-1 -4,-3 0,-2 2,-4 4,-4 z" />
  <path
     id="path30"
     style="fill:#e5e5e5;stroke:#000000;stroke-width:3"
     inkscape:connector-curvature="0"
     d="m 67.211,164.03 c 2,0 4,2 4,4 0,2 -2,4 -4,4 -2,0 -4,-2 -4,-4 0,-2 2,-4 4,-4 z" />
  <path
     id="path32"
     style="fill:#e5e5e5;stroke:#000000;stroke-width:3"
     inkscape:connector-curvature="0"
     d="m 101.21,167.03 c 2,0 4,1 4,2 0,2 -2,3 -4,3 -2,0 -3.996,-1 -3.996,-3 0,-1 1.996,-2 3.996,-2 z" />
  <path
     id="path34"
     style="fill:#e5e5e5;stroke:#000000;stroke-width:3"
     inkscape:connector-curvature="0"
     d="m 86.211,165.03 c 2,0 3,2 3,3 0,2 -1,3 -3,3 -1,0 -3,-1 -3,-3 0,-1 2,-3 3,-3 z" />
  <path
     id="path36"
     inkscape:connector-curvature="0"
     sodipodi:nodetypes="cc"
     style="fill:none;stroke:#000000;stroke-width:3;stroke-linecap:round;stroke-linejoin:round"
     d="m 51.876,142.09 c 0.584,-10.97 -3.46,-6.06 -2.659,-9.65" />
  <path
     id="path2201"
     style="color:#000000;fill:none;stroke:#570900;stroke-width:6.72200012;stroke-linecap:round;stroke-linejoin:round"
     inkscape:connector-curvature="0"
     d="m 40.366,93.203 6.4,53.88" />
  <path
     id="path38"
     inkscape:connector-curvature="0"
     sodipodi:nodetypes="cz"
     style="fill:none;stroke:#000000;stroke-width:3;stroke-linecap:round;stroke-linejoin:round"
     d="m 40.067,138.99 c 5.229,-0.21 7.634,-2.28 10.494,0.12" />
  <path
     id="path40"
     inkscape:connector-curvature="0"
     sodipodi:nodetypes="cc"
     style="fill:none;stroke:#000000;stroke-width:3;stroke-linecap:round;stroke-linejoin:round"
     d="m 41.005,141.87 9.256,0.06" />
  <path
     id="path42"
     inkscape:connector-curvature="0"
     sodipodi:nodetypes="cc"
     style="fill:none;stroke:#000000;stroke-width:3;stroke-linecap:round;stroke-linejoin:round"
     d="m 40.863,143.91 c 4.969,1.74 4.568,1.98 9.568,-0.02" />
  <path
     id="path2199"
     style="fill:#ec0000"
     sodipodi:type="star"
     sodipodi:sides="8"
     sodipodi:r1="32.440304"
     sodipodi:r2="30.493887"
     sodipodi:arg1="0.83041278"
     sodipodi:arg2="1.2231119"
     transform="matrix(-1.0601,-0.34061,-0.34061,1.0601,263.87,88.004)"
     inkscape:randomized="0"
     sodipodi:cy="41.055634"
     sodipodi:cx="201.285"
     inkscape:rounded="0.03"
     inkscape:flatsided="true"
     d="m 223.1683,65.003386 c -0.54987,0.502463 -22.59898,8.493208 -23.34309,8.45969 -0.74411,-0.03352 -21.9855,-9.974287 -22.48796,-10.524151 -0.50246,-0.549865 -8.49321,-22.598979 -8.45969,-23.343086 0.0335,-0.744108 9.97429,-21.985496 10.52415,-22.487958 0.54987,-0.502463 22.59898,-8.493208 23.34309,-8.4596897 0.74411,0.033518 21.98549,9.9742867 22.48796,10.5241507 0.50246,0.549865 8.4932,22.598979 8.45969,23.343086 -0.0335,0.744108 -9.97429,21.985496 -10.52415,22.487958 z" />
  <path
     id="path7486"
     style="fill:#f6f9fa"
     sodipodi:type="star"
     d="m 223.1683,65.003386 c -0.54987,0.502463 -22.59898,8.493208 -23.34309,8.45969 -0.74411,-0.03352 -21.9855,-9.974287 -22.48796,-10.524151 -0.50246,-0.549865 -8.49321,-22.598979 -8.45969,-23.343086 0.0335,-0.744108 9.97429,-21.985496 10.52415,-22.487958 0.54987,-0.502463 22.59898,-8.493208 23.34309,-8.4596897 0.74411,0.033518 21.98549,9.9742867 22.48796,10.5241507 0.50246,0.549865 8.4932,22.598979 8.45969,23.343086 -0.0335,0.744108 -9.97429,21.985496 -10.52415,22.487958 z"
     sodipodi:r1="32.440304"
     sodipodi:r2="30.493887"
     transform="matrix(-0.95206,-0.3059,-0.3059,0.95206,240.7,85.216)"
     sodipodi:arg2="1.2231119"
     sodipodi:arg1="0.83041278"
     inkscape:randomized="0"
     sodipodi:cy="41.055634"
     sodipodi:cx="201.285"
     inkscape:rounded="0.03"
     inkscape:flatsided="true"
     sodipodi:sides="8" />
  <path
     id="flowRoot4822"
     inkscape:connector-curvature="0"
     d="m 17.055,60.806 c -0.044,0.045 -0.081,0.083 -0.112,0.116 -0.032,0.023 -0.059,0.056 -0.082,0.097 0.114,-0.035 0.233,-0.071 0.354,-0.107 0.121,-0.036 0.254,-0.065 0.399,-0.085 l 0.175,-0.025 c 0.585,-0.083 1.163,-0.004 1.733,0.238 0.576,0.241 1.07,0.656 1.481,1.243 0.043,0.061 0.078,0.118 0.105,0.171 0.027,0.043 0.058,0.091 0.092,0.143 l 0.916,1.01 c 0.043,0.061 0.089,0.121 0.139,0.18 0.055,0.049 0.104,0.109 0.148,0.179 0.203,0.275 0.374,0.573 0.513,0.896 0.146,0.321 0.266,0.66 0.36,1.017 0.093,0.348 0.164,0.709 0.211,1.082 0.054,0.372 0.094,0.742 0.12,1.109 l 0.003,0.028 c 0.022,0.557 -0.022,1.1 -0.13,1.628 -0.109,0.519 -0.263,1.016 -0.462,1.491 -0.193,0.465 -0.424,0.906 -0.694,1.324 -0.262,0.417 -0.543,0.795 -0.844,1.132 -0.557,0.63 -1.16,1.148 -1.809,1.553 -0.648,0.415 -1.323,0.673 -2.024,0.772 -0.062,0.009 -0.128,0.014 -0.198,0.014 -0.063,0 -0.126,0.004 -0.188,0.013 -0.503,0.005 -1.007,-0.076 -1.512,-0.242 -0.497,-0.167 -0.994,-0.381 -1.489,-0.643 l -1.3,-1.469 c -0.037,-0.013 -0.067,-0.028 -0.09,-0.044 -0.023,-0.016 -0.05,-0.035 -0.081,-0.06 -0.168,-0.441 -0.323,-0.894 -0.466,-1.358 -0.137,-0.475 -0.24,-0.983 -0.309,-1.524 L 12,70.573 c -0.014,-0.169 -0.003,-0.327 0.034,-0.475 0.043,-0.158 0.103,-0.295 0.179,-0.41 0.083,-0.126 0.174,-0.229 0.276,-0.31 0.109,-0.082 0.221,-0.136 0.337,-0.162 0.14,-10e-4 0.25,0.007 0.329,0.024 0.078,0.008 0.156,0.021 0.236,0.038 0.036,0.014 0.069,0.024 0.098,0.029 0.034,-0.005 0.07,0 0.107,0.013 0.029,0.015 0.063,0.029 0.1,0.043 0.042,0.004 0.089,0.011 0.139,0.023 0.051,0.012 0.097,0.02 0.14,0.023 0.041,-0.006 0.08,-0.002 0.117,0.012 0.016,0.017 0.027,0.025 0.034,0.024 l 0.174,0.046 c 0.109,0.032 0.221,0.059 0.336,0.081 0.115,0.021 0.228,0.034 0.341,0.037 0.027,-0.004 0.059,-0.004 0.095,0.001 0.035,0.004 0.07,0.004 0.105,-0.001 l 0.247,-0.035 c 0.22,-0.032 0.446,-0.078 0.676,-0.139 0.237,-0.062 0.465,-0.147 0.682,-0.254 0.225,-0.108 0.436,-0.233 0.636,-0.375 0.204,-0.152 0.381,-0.334 0.529,-0.545 l -0.867,0.123 c -0.268,0.038 -0.539,0.057 -0.812,0.058 -0.273,0.001 -0.546,-0.027 -0.819,-0.083 -0.273,-0.056 -0.54,-0.142 -0.8,-0.257 -0.261,-0.124 -0.513,-0.293 -0.757,-0.505 l -0.071,-0.061 c -0.078,-0.065 -0.143,-0.137 -0.195,-0.215 l -1.017,-1.138 -0.162,-0.12 c -0.055,-0.049 -0.103,-0.094 -0.143,-0.136 l 0.031,-0.004 c -0.214,-0.198 -0.394,-0.429 -0.54,-0.693 -0.147,-0.274 -0.267,-0.561 -0.361,-0.861 -0.094,-0.3 -0.169,-0.612 -0.224,-0.937 -0.048,-0.326 -0.083,-0.653 -0.104,-0.983 l -0.014,-0.283 c -0.051,-1.009 0.043,-2.006 0.282,-2.99 0.239,-0.993 0.586,-1.902 1.041,-2.727 0.219,-0.43 0.466,-0.826 0.743,-1.188 0.283,-0.363 0.585,-0.687 0.906,-0.97 0.322,-0.283 0.66,-0.512 1.016,-0.686 0.355,-0.183 0.722,-0.302 1.1,-0.355 l 0.166,-0.024 c 0.385,-0.054 0.777,-0.053 1.177,0.004 0.405,0.047 0.796,0.153 1.175,0.318 0.378,0.165 0.739,0.389 1.083,0.672 0.343,0.275 0.648,0.611 0.916,1.01 l 1.006,1.14 c 0.213,0.245 0.401,0.513 0.564,0.803 0.169,0.28 0.313,0.592 0.434,0.936 0.056,0.116 0.097,0.243 0.122,0.382 0.023,0.13 0.05,0.259 0.08,0.387 -0.011,0.021 -0.01,0.054 0.002,0.1 0.012,0.036 0.02,0.068 0.023,0.096 0.014,0.217 -0.011,0.406 -0.075,0.567 -0.057,0.16 -0.137,0.3 -0.241,0.419 -0.098,0.109 -0.21,0.196 -0.335,0.261 -0.126,0.056 -0.251,0.093 -0.374,0.11 -0.035,0.005 -0.07,0.005 -0.105,0.001 -0.036,-0.004 -0.067,-0.005 -0.095,-0.001 -0.521,-0.021 -1.041,-0.142 -1.559,-0.363 -0.212,-0.074 -0.43,-0.133 -0.653,-0.178 -0.217,-0.054 -0.434,-0.085 -0.652,-0.092 l -0.083,0.011 c -0.303,0.043 -0.6,0.152 -0.894,0.327 -0.294,0.165 -0.563,0.389 -0.807,0.67 m 4.735,5.698 C 21.768,66.165 21.732,65.823 21.681,65.479 21.637,65.134 21.574,64.796 21.49,64.466 21.406,64.136 21.3,63.823 21.171,63.528 21.043,63.233 20.886,62.96 20.7,62.711 20.325,62.185 19.872,61.817 19.341,61.607 18.816,61.387 18.286,61.32 17.75,61.406 c -0.221,0.022 -0.435,0.076 -0.641,0.162 -0.206,0.086 -0.423,0.169 -0.651,0.249 -0.208,0.077 -0.418,0.159 -0.631,0.247 -0.206,0.086 -0.419,0.145 -0.639,0.176 -0.1,0.043 -0.198,0.042 -0.295,-0.001 -0.089,-0.044 -0.167,-0.109 -0.234,-0.195 -0.068,-0.094 -0.121,-0.206 -0.158,-0.333 -0.037,-0.128 -0.057,-0.258 -0.06,-0.391 -0.025,-0.253 -0.018,-0.496 0.023,-0.73 0.046,-0.244 0.111,-0.477 0.195,-0.697 0.091,-0.222 0.198,-0.428 0.321,-0.616 0.122,-0.198 0.254,-0.373 0.396,-0.526 0.282,-0.316 0.596,-0.57 0.943,-0.762 0.347,-0.191 0.703,-0.308 1.069,-0.351 0.246,0.003 0.491,0.03 0.735,0.081 0.245,0.051 0.482,0.126 0.712,0.227 0.46,0.2 0.943,0.312 1.45,0.335 0.092,0.006 0.192,-0.008 0.3,-0.042 0.107,-0.035 0.202,-0.086 0.285,-0.155 0.088,-0.079 0.152,-0.178 0.193,-0.298 0.048,-0.121 0.054,-0.264 0.019,-0.43 -0.013,-0.103 -0.034,-0.209 -0.062,-0.319 -0.027,-0.11 -0.065,-0.214 -0.113,-0.312 -0.199,-0.58 -0.468,-1.069 -0.805,-1.467 -0.338,-0.399 -0.715,-0.716 -1.13,-0.951 -0.408,-0.237 -0.841,-0.394 -1.299,-0.471 -0.458,-0.078 -0.907,-0.081 -1.346,-0.009 -0.711,0.082 -1.369,0.385 -1.975,0.908 -0.599,0.522 -1.105,1.173 -1.518,1.954 -0.447,0.776 -0.791,1.632 -1.029,2.569 -0.233,0.926 -0.323,1.874 -0.27,2.845 0.006,0.322 0.03,0.647 0.071,0.973 0.042,0.327 0.107,0.646 0.195,0.956 0.094,0.3 0.21,0.583 0.349,0.848 0.145,0.255 0.323,0.472 0.534,0.651 0.213,0.188 0.439,0.337 0.677,0.445 0.245,0.108 0.493,0.187 0.744,0.237 0.252,0.05 0.503,0.076 0.756,0.078 0.258,-0.008 0.511,-0.025 0.76,-0.051 0.262,-0.037 0.526,-0.08 0.793,-0.127 0.266,-0.057 0.529,-0.113 0.788,-0.169 0.258,-0.065 0.519,-0.126 0.785,-0.183 0.273,-0.058 0.539,-0.114 0.798,-0.17 l 0.102,0.057 0.039,0.222 c 0.008,0.122 0.009,0.241 0.003,0.356 -10e-4,0.105 -0.007,0.22 -0.019,0.345 0.016,0.463 -0.033,0.874 -0.149,1.232 -0.117,0.349 -0.277,0.657 -0.482,0.923 -0.204,0.267 -0.442,0.491 -0.713,0.672 -0.271,0.181 -0.557,0.331 -0.857,0.449 -0.293,0.118 -0.59,0.208 -0.89,0.269 -0.302,0.053 -0.581,0.087 -0.838,0.105 -0.182,-0.003 -0.364,-0.024 -0.544,-0.065 -0.175,-0.052 -0.349,-0.103 -0.524,-0.154 -0.171,-0.023 -0.344,-0.06 -0.518,-0.112 -0.168,-0.052 -0.343,-0.079 -0.525,-0.082 -0.136,0.038 -0.25,0.131 -0.344,0.277 -0.086,0.145 -0.114,0.311 -0.084,0.496 0.071,0.446 0.164,0.875 0.279,1.286 0.121,0.401 0.253,0.805 0.395,1.212 0.436,0.233 0.881,0.426 1.334,0.58 0.453,0.145 0.91,0.213 1.371,0.205 0.744,-0.04 1.453,-0.254 2.125,-0.644 0.67,-0.399 1.29,-0.924 1.859,-1.575 0.275,-0.315 0.536,-0.661 0.782,-1.038 0.253,-0.387 0.47,-0.798 0.653,-1.232 0.183,-0.435 0.325,-0.892 0.425,-1.372 0.099,-0.489 0.141,-0.989 0.125,-1.499 m 3.163,-9.028 c -0.142,-0.065 -0.255,-0.159 -0.34,-0.28 -0.08,-0.131 -0.146,-0.264 -0.198,-0.399 l 0.022,0.011 c -0.015,-0.007 -0.027,-0.02 -0.036,-0.037 -0.002,-0.019 -0.005,-0.038 -0.007,-0.056 l -0.128,-0.267 c -0.101,-0.242 -0.186,-0.496 -0.255,-0.762 -0.061,-0.267 -0.097,-0.547 -0.106,-0.84 0.004,-0.295 0.052,-0.558 0.141,-0.79 0.097,-0.232 0.216,-0.429 0.356,-0.592 0.147,-0.163 0.309,-0.295 0.486,-0.396 0.175,-0.111 0.347,-0.187 0.517,-0.231 0.722,-0.216 1.445,-0.423 2.169,-0.621 0.73,-0.208 1.462,-0.398 2.197,-0.569 0.284,-0.078 0.567,-0.142 0.848,-0.191 0.288,-0.051 0.576,-0.096 0.865,-0.137 0.289,-0.041 0.582,-0.078 0.879,-0.111 0.296,-0.042 0.586,-0.074 0.87,-0.095 0.261,0.067 0.507,0.161 0.74,0.28 0.239,0.118 0.458,0.3 0.657,0.548 0.092,0.11 0.179,0.221 0.263,0.333 0.091,0.11 0.177,0.231 0.256,0.362 l 0.88,0.973 c 0.083,0.102 0.167,0.209 0.251,0.32 0.091,0.111 0.173,0.232 0.246,0.364 0.079,0.132 0.146,0.274 0.201,0.428 0.06,0.143 0.099,0.309 0.115,0.496 l -0.017,0.031 c 0.005,0.038 0.013,0.075 0.025,0.111 0.01,0.027 0.017,0.054 0.021,0.082 0.015,0.283 -0.015,0.544 -0.09,0.783 -0.076,0.229 -0.18,0.434 -0.311,0.614 -0.132,0.171 -0.282,0.315 -0.449,0.434 -0.16,0.118 -0.321,0.207 -0.481,0.268 -0.3,0.119 -0.589,0.212 -0.868,0.28 -0.272,0.067 -0.538,0.119 -0.8,0.156 -0.075,0.011 -0.154,0.022 -0.237,0.034 -0.076,0.011 -0.156,0.013 -0.241,0.006 0.063,1.929 0.107,3.851 0.133,5.766 0.024,1.906 0.035,3.819 0.034,5.738 -0.013,0.401 -0.041,0.809 -0.087,1.224 -0.04,0.405 -0.102,0.822 -0.188,1.252 -0.045,0.197 -0.1,0.399 -0.164,0.608 -0.064,0.218 -0.147,0.42 -0.249,0.605 -0.096,0.185 -0.216,0.344 -0.36,0.479 -0.136,0.142 -0.302,0.237 -0.499,0.284 l -0.104,0.015 c -0.289,0.041 -0.573,0.005 -0.854,-0.107 -0.273,-0.113 -0.52,-0.292 -0.74,-0.536 l -1.08,-1.229 C 28.947,71.938 28.707,71.677 28.517,71.334 28.325,70.981 28.213,70.57 28.182,70.099 l 0.011,-0.073 c -0.032,-0.48 -0.053,-0.947 -0.062,-1.402 -0.008,-0.455 -0.002,-0.902 0.019,-1.342 -0.006,-0.322 -0.008,-0.645 -0.007,-0.968 0.008,-0.324 0.02,-0.644 0.036,-0.96 -0.003,-0.076 -0.005,-0.146 -0.006,-0.213 -0.003,-0.075 -0.002,-0.152 0.002,-0.228 0.004,-0.466 0.012,-0.928 0.024,-1.386 0.011,-0.467 0.006,-0.922 -0.015,-1.366 -0.033,-0.536 -0.074,-1.082 -0.124,-1.635 -0.043,-0.564 -0.109,-1.139 -0.197,-1.725 -0.197,0.047 -0.395,0.094 -0.592,0.141 -0.197,0.047 -0.395,0.09 -0.593,0.127 -0.119,-0.002 -0.22,-0.026 -0.303,-0.071 -0.076,-0.046 -0.146,-0.103 -0.211,-0.169 L 24.953,57.476 M 35.019,53.681 C 34.992,53.409 34.905,53.17 34.76,52.962 34.622,52.754 34.479,52.565 34.331,52.396 34.18,52.199 34.007,52.053 33.813,51.957 c -0.188,-0.106 -0.384,-0.183 -0.586,-0.23 -0.568,0.052 -1.134,0.113 -1.699,0.184 -0.566,0.071 -1.126,0.183 -1.68,0.338 -0.742,0.172 -1.471,0.361 -2.187,0.567 -0.718,0.197 -1.445,0.4 -2.182,0.609 -0.128,0.038 -0.261,0.094 -0.398,0.171 -0.131,0.076 -0.252,0.173 -0.362,0.294 -0.105,0.11 -0.197,0.246 -0.274,0.409 -0.071,0.162 -0.107,0.348 -0.108,0.557 0.034,0.432 0.136,0.85 0.306,1.253 0.037,0.071 0.076,0.156 0.116,0.254 0.04,0.09 0.082,0.174 0.127,0.253 0.045,0.079 0.096,0.148 0.152,0.207 0.056,0.058 0.124,0.091 0.202,0.099 0.456,-0.103 0.906,-0.2 1.35,-0.291 0.442,-0.101 0.89,-0.188 1.343,-0.262 0.196,0.941 0.344,1.889 0.444,2.844 0.107,0.953 0.191,1.915 0.251,2.885 0.034,0.879 0.035,1.748 0.004,2.607 -0.024,0.859 -0.041,1.721 -0.05,2.587 -0.021,0.44 -0.025,0.882 -0.01,1.327 0.014,0.444 0.036,0.892 0.065,1.344 0.007,0.332 0.069,0.622 0.184,0.872 0.123,0.248 0.275,0.455 0.457,0.619 0.182,0.164 0.382,0.278 0.6,0.342 0.226,0.072 0.448,0.084 0.666,0.034 0.137,-0.029 0.253,-0.103 0.35,-0.221 0.106,-0.11 0.194,-0.241 0.266,-0.394 0.078,-0.154 0.142,-0.315 0.191,-0.483 0.054,-0.179 0.099,-0.351 0.134,-0.518 0.077,-0.381 0.137,-0.765 0.179,-1.151 0.042,-0.386 0.07,-0.779 0.082,-1.18 -0.009,-2.003 -0.024,-3.996 -0.044,-5.979 -0.02,-1.983 -0.063,-3.976 -0.128,-5.981 0.381,-0.035 0.764,-0.08 1.149,-0.135 0.391,-0.065 0.816,-0.192 1.276,-0.38 0.14,-0.049 0.278,-0.125 0.412,-0.23 0.14,-0.105 0.261,-0.232 0.361,-0.379 0.108,-0.148 0.184,-0.316 0.231,-0.503 0.053,-0.188 0.058,-0.393 0.016,-0.615 m 9.903,3.61 c -0.026,-0.206 -0.054,-0.425 -0.084,-0.658 -0.023,-0.235 -0.052,-0.463 -0.087,-0.686 -0.258,0.122 -0.476,0.305 -0.655,0.549 -0.174,0.234 -0.317,0.515 -0.429,0.844 -0.106,0.32 -0.188,0.669 -0.245,1.047 -0.05,0.378 -0.085,0.767 -0.104,1.169 -0.014,0.392 -0.017,0.781 -0.009,1.17 0.012,0.378 0.029,0.732 0.05,1.062 0.028,0.499 0.068,1.006 0.12,1.522 0.051,0.515 0.133,1.026 0.246,1.532 0.159,-0.127 0.295,-0.298 0.408,-0.514 0.12,-0.216 0.219,-0.454 0.298,-0.712 0.085,-0.269 0.156,-0.54 0.212,-0.814 0.055,-0.283 0.102,-0.551 0.14,-0.803 0.104,-0.728 0.165,-1.463 0.183,-2.207 0.024,-0.744 0.015,-1.484 -0.03,-2.219 l -0.014,-0.282 m -3.198,12.395 c -0.416,-0.349 -0.791,-0.771 -1.127,-1.265 -0.336,-0.493 -0.63,-1.017 -0.882,-1.57 -0.453,-0.971 -0.809,-2.013 -1.069,-3.126 -0.254,-1.123 -0.419,-2.287 -0.495,-3.492 l -0.02,-0.154 c -0.045,-1.134 10e-4,-2.285 0.14,-3.454 0.138,-1.179 0.412,-2.329 0.823,-3.452 l 0.007,0.056 c 0.183,-0.491 0.405,-0.95 0.666,-1.377 0.267,-0.437 0.561,-0.82 0.884,-1.151 0.328,-0.341 0.681,-0.619 1.06,-0.835 0.379,-0.215 0.775,-0.352 1.188,-0.411 l 0.268,-0.038 c 0.736,-0.104 1.436,0.034 2.101,0.414 0.671,0.38 1.253,0.934 1.744,1.662 l 0.941,1.035 c 0.147,0.169 0.29,0.353 0.427,0.552 0.137,0.199 0.266,0.414 0.386,0.644 l -0.014,-0.027 c 0.486,0.853 0.857,1.788 1.112,2.806 0.261,1.008 0.43,2.039 0.508,3.092 l 0.004,0.028 c 0.081,1.252 0.072,2.502 -0.029,3.751 -0.095,1.239 -0.317,2.444 -0.666,3.615 l -0.021,0.003 c -0.157,0.583 -0.356,1.162 -0.599,1.738 -0.243,0.566 -0.528,1.082 -0.854,1.546 -0.32,0.464 -0.683,0.852 -1.092,1.167 -0.408,0.314 -0.86,0.507 -1.355,0.577 l -0.155,0.022 C 45.027,72.124 44.483,72.031 43.972,71.761 43.47,71.5 43.011,71.138 42.595,70.674 l -0.871,-0.988 m 3.631,-12.457 c 0.06,0.808 0.083,1.622 0.068,2.441 -0.016,0.81 -0.082,1.622 -0.196,2.436 -0.053,0.35 -0.125,0.721 -0.216,1.114 -0.083,0.392 -0.197,0.76 -0.343,1.103 -0.145,0.344 -0.326,0.636 -0.54,0.875 -0.215,0.24 -0.477,0.386 -0.785,0.439 -0.21,0.002 -0.39,-0.063 -0.539,-0.194 -0.143,-0.132 -0.27,-0.303 -0.381,-0.516 -0.111,-0.212 -0.208,-0.45 -0.29,-0.714 -0.077,-0.274 -0.146,-0.544 -0.208,-0.811 -0.12,-0.505 -0.211,-1.025 -0.271,-1.558 -0.055,-0.543 -0.099,-1.083 -0.132,-1.62 -0.021,-0.386 -0.036,-0.807 -0.044,-1.262 -0.009,-0.454 0.003,-0.912 0.036,-1.373 0.032,-0.46 0.091,-0.91 0.175,-1.35 0.084,-0.439 0.206,-0.837 0.364,-1.192 0.165,-0.355 0.372,-0.656 0.621,-0.9 0.256,-0.245 0.572,-0.404 0.948,-0.477 0.334,-0.019 0.607,0.09 0.819,0.326 0.211,0.226 0.377,0.521 0.5,0.883 0.13,0.362 0.226,0.757 0.287,1.185 0.06,0.419 0.103,0.808 0.127,1.165 m 3.194,0.829 c -0.037,-0.508 -0.093,-1.008 -0.17,-1.501 -0.077,-0.502 -0.181,-0.99 -0.311,-1.466 -0.125,-0.486 -0.276,-0.954 -0.452,-1.404 -0.176,-0.45 -0.38,-0.872 -0.612,-1.266 -0.222,-0.425 -0.48,-0.802 -0.774,-1.13 -0.293,-0.329 -0.611,-0.597 -0.953,-0.805 -0.341,-0.208 -0.699,-0.352 -1.073,-0.432 -0.376,-0.089 -0.755,-0.097 -1.138,-0.024 -0.401,0.038 -0.789,0.16 -1.162,0.365 -0.366,0.204 -0.707,0.471 -1.023,0.8 -0.315,0.33 -0.599,0.712 -0.852,1.147 -0.247,0.425 -0.456,0.882 -0.625,1.372 -0.358,0.982 -0.603,2.009 -0.733,3.082 -0.123,1.072 -0.155,2.145 -0.096,3.22 0.07,1.159 0.227,2.29 0.473,3.396 0.252,1.104 0.604,2.142 1.056,3.113 0.214,0.473 0.465,0.931 0.752,1.375 0.287,0.434 0.604,0.812 0.953,1.133 0.349,0.321 0.723,0.562 1.121,0.724 0.406,0.161 0.832,0.205 1.278,0.132 0.463,-0.046 0.886,-0.216 1.27,-0.508 0.383,-0.292 0.726,-0.654 1.028,-1.086 0.301,-0.442 0.565,-0.931 0.791,-1.466 0.232,-0.546 0.425,-1.096 0.579,-1.65 0.338,-1.141 0.554,-2.311 0.647,-3.512 0.093,-1.201 0.102,-2.404 0.026,-3.609 m 8.528,-6.07 0.309,0.369 C 57.372,52.359 57.37,52.34 57.379,52.301 l -0.302,-0.313 m -0.04,3.083 c 0.172,-0.186 0.335,-0.394 0.488,-0.625 0.152,-0.24 0.237,-0.504 0.257,-0.791 -0.154,0.059 -0.301,0.142 -0.442,0.247 -0.14,0.106 -0.264,0.233 -0.372,0.381 -0.107,0.148 -0.19,0.322 -0.249,0.52 -0.053,0.188 -0.076,0.395 -0.068,0.622 0.063,-0.056 0.122,-0.117 0.177,-0.181 0.061,-0.066 0.129,-0.138 0.204,-0.215 l 0.005,0.042 m -3.266,13.432 c -0.16,-0.101 -0.3,-0.238 -0.42,-0.411 -0.121,-0.182 -0.226,-0.376 -0.316,-0.582 -0.083,-0.216 -0.153,-0.439 -0.21,-0.668 -0.052,-0.24 -0.089,-0.477 -0.111,-0.711 0,-0.162 -0.005,-0.313 -0.016,-0.454 -0.005,-0.151 -0.008,-0.308 -0.007,-0.469 -0.023,-0.235 -0.037,-0.456 -0.042,-0.664 0,-0.219 10e-4,-0.433 0.003,-0.642 10e-4,-0.817 -0.019,-1.636 -0.06,-2.457 -0.01,-0.188 -0.023,-0.376 -0.04,-0.564 -0.01,-0.189 -0.027,-0.376 -0.05,-0.563 l -0.029,-0.309 c -0.016,-0.406 -0.05,-0.805 -0.099,-1.197 -0.043,-0.393 -0.097,-0.794 -0.163,-1.203 l -0.176,-1.386 c -0.081,-0.53 -0.155,-1.056 -0.221,-1.578 -0.066,-0.523 -0.118,-1.067 -0.154,-1.632 -0.003,-0.132 -0.009,-0.26 -0.017,-0.382 -0.003,-0.133 -0.005,-0.26 -0.007,-0.384 l -0.012,-0.098 c -0.003,-0.018 -0.009,-0.037 -0.018,-0.054 -0.009,-0.018 -0.015,-0.041 -0.019,-0.069 l 0.003,-0.143 c -0.034,-0.489 0.008,-0.96 0.125,-1.414 0.118,-0.454 0.291,-0.858 0.519,-1.214 0.228,-0.355 0.496,-0.645 0.803,-0.869 0.314,-0.235 0.653,-0.378 1.018,-0.429 0.041,-0.006 0.079,-0.012 0.113,-0.017 0.04,-0.015 0.084,-0.026 0.132,-0.033 0.035,-0.005 0.066,-0.009 0.093,-0.013 0.035,-0.005 0.071,-0.019 0.11,-0.044 0.225,-0.051 0.464,-0.099 0.717,-0.145 0.253,-0.054 0.492,-0.098 0.719,-0.13 l 0.072,-0.01 c 0.647,-0.092 1.291,-0.013 1.932,0.238 0.64,0.242 1.225,0.658 1.755,1.247 l -0.02,0.003 c 0.068,0.095 0.136,0.19 0.204,0.285 0.067,0.085 0.134,0.175 0.202,0.27 l 0.916,1.01 -0.01,0.002 0.088,0.115 c 0.482,0.54 0.873,1.197 1.174,1.971 0.3,0.765 0.484,1.575 0.55,2.43 -0.007,0.058 -0.002,0.124 0.015,0.198 0.015,0.064 0.019,0.125 0.012,0.183 0.026,0.481 0.006,0.954 -0.061,1.419 -0.068,0.457 -0.177,0.9 -0.325,1.329 -0.143,0.419 -0.32,0.82 -0.531,1.201 -0.211,0.382 -0.443,0.733 -0.696,1.054 l -0.011,10e-4 c -0.531,0.674 -1.108,1.227 -1.733,1.657 -0.618,0.43 -1.259,0.787 -1.924,1.071 l 0.006,0.213 c 0.034,0.319 0.067,0.632 0.099,0.941 0.032,0.309 0.068,0.618 0.107,0.926 l 0.02,-0.003 c 0.015,0.064 0.024,0.134 0.027,0.21 0.009,0.074 0.021,0.139 0.035,0.194 0.048,0.269 0.086,0.539 0.113,0.81 0.033,0.262 0.06,0.529 0.081,0.801 0.016,0.074 0.024,0.135 0.023,0.182 0.006,0.047 0.011,0.089 0.016,0.126 0.023,0.348 -0.009,0.676 -0.096,0.983 -0.087,0.307 -0.211,0.576 -0.371,0.808 -0.158,0.241 -0.347,0.434 -0.567,0.579 -0.218,0.155 -0.445,0.249 -0.679,0.282 -0.137,0.019 -0.285,0.016 -0.442,-0.009 -0.189,-0.001 -0.366,-0.043 -0.53,-0.124 -0.157,-0.073 -0.3,-0.181 -0.43,-0.324 l -1.189,-1.341 m 4.468,-15.056 c 0.015,0.235 -0.009,0.457 -0.074,0.666 -0.057,0.208 -0.138,0.4 -0.242,0.576 -0.096,0.175 -0.208,0.343 -0.335,0.504 -0.121,0.15 -0.24,0.29 -0.356,0.421 -0.278,0.296 -0.578,0.557 -0.899,0.783 -0.315,0.225 -0.644,0.39 -0.988,0.496 -0.122,-0.467 -0.23,-0.936 -0.325,-1.407 -0.095,-0.471 -0.156,-0.956 -0.185,-1.456 -0.046,-0.421 -0.006,-0.797 0.12,-1.128 0.125,-0.341 0.299,-0.627 0.521,-0.858 0.223,-0.231 0.474,-0.405 0.754,-0.52 0.278,-0.125 0.551,-0.183 0.818,-0.174 0.09,-0.012 0.172,0.004 0.248,0.051 0.076,0.046 0.148,0.112 0.214,0.197 0.066,0.076 0.126,0.163 0.18,0.26 0.055,0.097 0.105,0.189 0.151,0.278 0.089,0.205 0.176,0.416 0.259,0.633 0.082,0.206 0.129,0.433 0.139,0.678 m 2.726,0.126 c -0.054,-0.809 -0.228,-1.578 -0.523,-2.305 -0.289,-0.729 -0.664,-1.341 -1.126,-1.836 -0.466,-0.523 -0.991,-0.885 -1.577,-1.087 -0.58,-0.212 -1.166,-0.271 -1.756,-0.178 -0.324,0.046 -0.634,0.109 -0.932,0.19 -0.299,0.071 -0.606,0.138 -0.92,0.201 -0.318,0.036 -0.614,0.159 -0.888,0.369 -0.275,0.21 -0.511,0.476 -0.708,0.799 -0.192,0.312 -0.331,0.674 -0.419,1.085 -0.088,0.412 -0.104,0.837 -0.049,1.275 l 0.018,0.14 c 0.006,0.655 0.047,1.309 0.123,1.964 0.082,0.643 0.17,1.286 0.266,1.928 0.072,0.684 0.159,1.365 0.259,2.044 0.099,0.67 0.165,1.359 0.199,2.067 0.064,0.617 0.107,1.229 0.127,1.834 0.028,0.604 0.039,1.22 0.035,1.848 -0.01,0.362 -0.003,0.727 0.023,1.094 0.024,0.357 0.038,0.716 0.042,1.077 0.024,0.243 0.069,0.489 0.135,0.736 0.072,0.236 0.163,0.456 0.273,0.659 0.109,0.194 0.237,0.351 0.386,0.473 0.155,0.12 0.331,0.181 0.527,0.181 0.247,0.07 0.486,0.05 0.717,-0.059 0.233,-0.099 0.434,-0.256 0.603,-0.47 0.174,-0.224 0.302,-0.49 0.382,-0.795 0.086,-0.317 0.1,-0.651 0.041,-1.004 -0.021,-0.329 -0.058,-0.652 -0.112,-0.967 -0.049,-0.326 -0.093,-0.652 -0.135,-0.978 -0.055,-0.325 -0.1,-0.651 -0.134,-0.979 -0.035,-0.327 -0.066,-0.656 -0.094,-0.984 0.001,-0.105 -0.006,-0.213 -0.02,-0.325 -0.008,-0.122 -0.012,-0.236 -0.011,-0.34 0.708,-0.272 1.384,-0.625 2.03,-1.058 0.652,-0.435 1.246,-0.994 1.783,-1.678 0.248,-0.311 0.47,-0.656 0.667,-1.036 0.204,-0.38 0.37,-0.779 0.5,-1.196 0.135,-0.428 0.226,-0.869 0.273,-1.322 0.055,-0.454 0.053,-0.91 -0.005,-1.367" />
  <metadata
     id="metadata29">
    <rdf:RDF>
      <cc:Work>
        <dc:format>image/svg+xml</dc:format>
        <dc:type
           rdf:resource="http://purl.org/dc/dcmitype/StillImage" />
        <cc:license
           rdf:resource="http://creativecommons.org/licenses/publicdomain/" />
        <dc:publisher>
          <cc:Agent
             rdf:about="http://openclipart.org/">
            <dc:title>Openclipart</dc:title>
          </cc:Agent>
        </dc:publisher>
      </cc:Work>
      <cc:License
         rdf:about="http://creativecommons.org/licenses/publicdomain/">
        <cc:permits
           rdf:resource="http://creativecommons.org/ns#Reproduction" />
        <cc:permits
           rdf:resource="http://creativecommons.org/ns#Distribution" />
        <cc:permits
           rdf:resource="http://creativecommons.org/ns#DerivativeWorks" />
      </cc:License>
    </rdf:RDF>
  </metadata>
</svg>
