<?xml version="1.0" encoding="UTF-8" standalone="no"?>
<!-- Created with Inkscape (http://www.inkscape.org/) -->

<svg
   xmlns:dc="http://purl.org/dc/elements/1.1/"
   xmlns:cc="http://creativecommons.org/ns#"
   xmlns:rdf="http://www.w3.org/1999/02/22-rdf-syntax-ns#"
   xmlns:svg="http://www.w3.org/2000/svg"
   xmlns="http://www.w3.org/2000/svg"
   xmlns:xlink="http://www.w3.org/1999/xlink"
   xmlns:sodipodi="http://sodipodi.sourceforge.net/DTD/sodipodi-0.dtd"
   xmlns:inkscape="http://www.inkscape.org/namespaces/inkscape"
   width="816"
   height="1056"
   id="svg2"
   version="1.1"
   inkscape:version="0.92.1 r15371"
   sodipodi:docname="p001.svg"
   inkscape:export-filename="001.png"
   inkscape:export-xdpi="300"
   inkscape:export-ydpi="300">
  <defs
     id="defs4" />
  <sodipodi:namedview
     id="base"
     pagecolor="#ffffff"
     bordercolor="#666666"
     borderopacity="1.0"
     inkscape:pageopacity="0.0"
     inkscape:pageshadow="2"
     inkscape:zoom="0.98994951"
     inkscape:cx="412.02782"
     inkscape:cy="464.33498"
     inkscape:document-units="px"
     inkscape:current-layer="layer1"
     showgrid="false"
     borderlayer="true"
     inkscape:window-width="1909"
     inkscape:window-height="1024"
     inkscape:window-x="1920"
     inkscape:window-y="0"
     inkscape:window-maximized="1" />
  <metadata
     id="metadata7">
    <rdf:RDF>
      <cc:Work
         rdf:about="">
        <dc:format>image/svg+xml</dc:format>
        <dc:type
           rdf:resource="http://purl.org/dc/dcmitype/StillImage" />
        <dc:title />
      </cc:Work>
    </rdf:RDF>
  </metadata>
  <g
     inkscape:label="Layer 1"
     inkscape:groupmode="layer"
     id="layer1"
     transform="translate(0,-66.519662)">
    <image
       sodipodi:absref="/home/muksihs/Documents/ᏣᎳᎩ/Lessons/Cherokee Language Lessons-Volume 2/artwork/comics/ahlosgi-jisdu-ale-na-adlvgwisgi/src.svg/x001.png"
       xlink:href="x001.png"
       width="706.66669"
       height="979.73334"
       id="image2993"
       x="54.666668"
       y="104.65299" />
    <text
       xml:space="preserve"
       style="font-style:normal;font-variant:normal;font-weight:500;font-stretch:normal;font-size:12.80000019px;line-height:0%;font-family:CherokeeHandone;-inkscape-font-specification:'CherokeeHandone Medium';text-align:center;letter-spacing:0px;word-spacing:0px;writing-mode:lr-tb;text-anchor:middle;fill:#000000;fill-opacity:1;stroke:#000000;stroke-width:1.06666672"
       x="508.09805"
       y="189.50191"
       id="text3015"><tspan
         sodipodi:role="line"
         id="tspan3017"
         x="508.09805"
         y="189.50191"
         style="font-size:25.60000038px;line-height:1;stroke-width:1.06666672">ᎾᏍ ᏓᎩᏏ</tspan><tspan
         sodipodi:role="line"
         x="508.09805"
         y="215.10191"
         id="tspan3021"
         style="font-size:25.60000038px;line-height:1;stroke-width:1.06666672">ᎠᏯᏄᎵ?</tspan></text>
    <text
       xml:space="preserve"
       style="font-style:normal;font-variant:normal;font-weight:500;font-stretch:normal;font-size:12.80000019px;line-height:0%;font-family:Cherokeehandlines;-inkscape-font-specification:'Cherokeehandlines Medium';text-align:center;letter-spacing:0px;word-spacing:0px;writing-mode:lr-tb;text-anchor:middle;fill:#000000;fill-opacity:1;stroke:none;stroke-width:1.06666672"
       x="508.0394"
       y="246.78473"
       id="text3025"><tspan
         sodipodi:role="line"
         id="tspan3027"
         x="508.0394"
         y="246.78473"
         style="font-size:34.13333511px;line-height:1;stroke-width:1.06666672">Ꭽ!</tspan></text>
    <path
       inkscape:connector-curvature="0"
       id="path3061"
       d="m 527.34259,223.23274 v -0.0683 c 0.0454,-0.13651 0.13652,-0.25029 0.27307,-0.34133 0.13652,-0.091 0.27305,-0.11376 0.4096,-0.0683 0.15927,0.0227 0.28443,0.1024 0.37547,0.23893 0.091,0.13656 0.12514,0.28447 0.1024,0.44374 -0.20482,0.9785 -0.36411,2.25282 -0.47787,3.82293 -0.18206,2.38934 -0.28446,3.72054 -0.3072,3.9936 -0.0683,0.63716 -0.20481,1.43361 -0.4096,2.38933 -0.22756,1.16055 -0.37548,1.94561 -0.44373,2.3552 -0.0456,0.22757 -0.1024,0.72818 -0.17067,1.50187 -0.0683,0.68268 -0.14793,1.2288 -0.23893,1.6384 -0.29583,1.31983 -0.95575,2.24143 -1.97974,2.7648 -1.06951,0.54613 -1.96836,0.65991 -2.69653,0.34133 -0.45512,-0.2048 -0.80783,-0.75093 -1.05813,-1.6384 -0.1593,-0.59163 -0.28445,-1.3767 -0.37547,-2.3552 -0.0683,-0.6599 -0.12516,-1.4791 -0.17067,-2.4576 -0.0455,-1.00123 -0.0683,-1.52461 -0.0683,-1.57013 -0.0227,-0.2503 -0.12517,-1.02399 -0.3072,-2.32107 -0.1593,-1.29705 -0.28445,-2.35519 -0.37547,-3.1744 -0.13653,-1.36531 -0.2048,-2.46896 -0.2048,-3.31093 0,-0.50061 0.0227,-0.92158 0.0683,-1.26293 0.0683,-0.4551 0.19341,-0.78505 0.37546,-0.98987 0.31857,-0.43233 0.88746,-0.7054 1.70667,-0.8192 0.59164,-0.0683 1.31982,-0.0568 2.18453,0.0341 1.45634,0.18207 2.71928,0.46651 3.7888,0.85334"
       style="font-style:normal;font-variant:normal;font-weight:500;font-stretch:normal;font-size:32px;line-height:100%;font-family:Cherokeehandlines;-inkscape-font-specification:'Cherokeehandlines Medium';text-align:center;letter-spacing:0px;word-spacing:0px;writing-mode:lr-tb;text-anchor:middle;fill:#ff0000;fill-opacity:1;stroke:#000000;stroke-width:1.06666672" />
    <path
       inkscape:connector-curvature="0"
       id="path3059"
       d="m 524.61193,244.9074 c -0.70543,-0.29582 -1.30845,-0.39822 -1.80907,-0.3072 -0.47788,0.091 -0.78508,0.36409 -0.9216,0.8192 -0.1593,0.47787 -0.091,0.97849 0.2048,1.50187 0.31857,0.52337 0.81919,0.85333 1.50187,0.98987 0.43234,0.11377 0.8078,0.0341 1.1264,-0.23894 0.31857,-0.27306 0.5006,-0.64853 0.54613,-1.1264 0.0683,-0.68266 -0.14793,-1.2288 -0.64853,-1.6384"
       style="font-style:normal;font-variant:normal;font-weight:500;font-stretch:normal;font-size:32px;line-height:100%;font-family:Cherokeehandlines;-inkscape-font-specification:'Cherokeehandlines Medium';text-align:center;letter-spacing:0px;word-spacing:0px;writing-mode:lr-tb;text-anchor:middle;fill:#ff0000;fill-opacity:1;stroke:#000000;stroke-width:1.06666672" />
    <path
       inkscape:connector-curvature="0"
       id="path3057"
       d="m 526.21619,245.18047 c 0.18204,0.47787 0.25031,0.97848 0.2048,1.50187 -0.091,0.75093 -0.42099,1.3767 -0.98986,1.87733 -0.54615,0.50062 -1.25157,0.67128 -2.11627,0.512 -1.00125,-0.22756 -1.74081,-0.75093 -2.21867,-1.57013 -0.47788,-0.8192 -0.59165,-1.62703 -0.34133,-2.42347 0.27305,-0.91022 0.88745,-1.45635 1.8432,-1.6384 0.22755,-0.0456 0.4551,-0.0568 0.68267,-0.0341 0.13652,-0.091 0.28443,-0.12516 0.44373,-0.1024 0.59164,0.11378 1.09225,0.31858 1.50187,0.6144 0.27305,0.11378 0.54612,0.25031 0.8192,0.4096 0.13652,0.091 0.21617,0.21618 0.23893,0.37546 0.0456,0.15929 0.0341,0.3072 -0.0341,0.44374 -0.0227,0 -0.0341,0.0114 -0.0341,0.0341"
       style="font-style:normal;font-variant:normal;font-weight:500;font-stretch:normal;font-size:32px;line-height:100%;font-family:Cherokeehandlines;-inkscape-font-specification:'Cherokeehandlines Medium';text-align:center;letter-spacing:0px;word-spacing:0px;writing-mode:lr-tb;text-anchor:middle;fill:#ff0000;fill-opacity:1;stroke:#000000;stroke-width:1.06666672" />
    <path
       inkscape:connector-curvature="0"
       id="path3053"
       d="m 494.17459,234.53087 -0.13653,0.0683 c -0.45513,0.0683 -0.94437,0.1024 -1.46773,0.1024 -0.27308,0.0683 -0.50063,0.1024 -0.68267,0.1024 -0.13655,1e-5 -0.2617,-0.0341 -0.37547,-0.1024 -1.09228,-0.0455 -1.67254,-0.0683 -1.7408,-0.0683 -0.56889,0.0227 -1.10365,0.14792 -1.60426,0.37547 -0.50063,0.22756 -1.05815,0.65991 -1.67254,1.29706 l -0.44373,0.44374 -0.23893,0.23893 -0.0341,0.0683 c -0.11378,0.34134 -0.14791,0.88747 -0.1024,1.6384 -1e-5,0.091 0.0227,0.43236 0.0683,1.024 0.0456,0.4096 0.0683,0.72818 0.0683,0.95573 -2e-5,0.13653 -0.0569,0.68267 -0.17067,1.6384 -0.0683,0.56888 -0.0683,1.00125 0,1.29707 0.0683,0.18204 0.20479,0.36408 0.4096,0.54613 0.0227,0.0227 0.1479,0.11378 0.37547,0.27307 0.18203,0.13653 0.32995,0.26168 0.44373,0.37546 0.091,0.091 0.29582,0.32995 0.6144,0.7168 0.22755,0.25031 0.40959,0.42097 0.54613,0.512 0.38684,0.27307 1.11501,0.43235 2.18454,0.47787 0.6599,0.0227 1.51323,-0.0114 2.56,-0.1024 0.5006,-0.0455 1.09225,-0.3641 1.77493,-0.95573 0.63714,-0.52339 1.14914,-1.09227 1.536,-1.70667 0.11376,-0.18205 0.22754,-0.59165 0.34133,-1.2288 0.091,-0.6144 0.17065,-1.3312 0.23894,-2.1504 0.11376,-1.77493 0.1024,-2.96959 -0.0341,-3.584 -0.11379,-0.36409 -0.43237,-0.78506 -0.95573,-1.26293 -0.50064,-0.50062 -0.95575,-0.81919 -1.36533,-0.95574 -0.0455,1e-5 -0.0911,-0.0114 -0.13654,-0.0341"
       style="font-style:normal;font-variant:normal;font-weight:500;font-stretch:normal;font-size:32px;line-height:100%;font-family:Cherokeehandlines;-inkscape-font-specification:'Cherokeehandlines Medium';text-align:center;letter-spacing:0px;word-spacing:0px;writing-mode:lr-tb;text-anchor:middle;fill:#ff0000;fill-opacity:1;stroke:#000000;stroke-width:1.06666672" />
    <path
       inkscape:connector-curvature="0"
       id="path3051"
       d="m 492.43379,233.57514 c 0.38683,-0.091 0.60301,-0.13653 0.64854,-0.13654 0.63714,-0.11377 1.16052,-0.1024 1.57013,0.0341 0.56887,0.15929 1.18327,0.55752 1.8432,1.19466 0.68264,0.63717 1.09224,1.25157 1.2288,1.8432 0.20478,0.72818 0.23891,2.048 0.1024,3.95947 -0.0683,0.84196 -0.15931,1.5929 -0.27307,2.2528 -0.13655,0.77368 -0.30722,1.31982 -0.512,1.6384 -0.43237,0.72818 -1.00126,1.38808 -1.70666,1.97973 -0.88748,0.75094 -1.71806,1.16054 -2.49174,1.2288 -1.06952,0.091 -1.96836,0.12515 -2.69653,0.1024 -1.27432,-0.0455 -2.2073,-0.27306 -2.79893,-0.68266 -0.20482,-0.13654 -0.45512,-0.37547 -0.75094,-0.7168 -0.29583,-0.3641 -0.47788,-0.58027 -0.54613,-0.64854 -0.0683,-0.0683 -0.18205,-0.15928 -0.34133,-0.27306 -0.20482,-0.15929 -0.34134,-0.26169 -0.4096,-0.3072 -0.38685,-0.31859 -0.63717,-0.68267 -0.75094,-1.09227 -0.13653,-0.45512 -0.15929,-1.05813 -0.0683,-1.80907 0.11377,-0.8647 0.17066,-1.35395 0.17066,-1.46773 0,-0.2048 -0.0114,-0.48924 -0.0341,-0.85333 -0.0683,-0.59164 -0.1024,-0.94436 -0.1024,-1.05814 -0.0683,-0.91022 -0.0114,-1.61563 0.17067,-2.11626 0.0455,-0.11377 0.12515,-0.23893 0.23893,-0.37547 0.0683,-0.091 0.17067,-0.20479 0.3072,-0.34133 l 0.44373,-0.44374 c 1.22879,-1.2743 2.58275,-1.94559 4.06187,-2.01386 0.34132,1e-5 0.79644,0.0227 1.36533,0.0683 0.59164,0.0227 1.03537,0.0341 1.3312,0.0341"
       style="font-style:normal;font-variant:normal;font-weight:500;font-stretch:normal;font-size:32px;line-height:100%;font-family:Cherokeehandlines;-inkscape-font-specification:'Cherokeehandlines Medium';text-align:center;letter-spacing:0px;word-spacing:0px;writing-mode:lr-tb;text-anchor:middle;fill:#ff0000;fill-opacity:1;stroke:#000000;stroke-width:1.06666672" />
    <path
       inkscape:connector-curvature="0"
       id="path3049"
       d="m 493.08233,237.9442 h -0.4096 -0.54614 c -0.22756,0.0227 -0.37548,0.0341 -0.44373,0.0341 -0.091,1e-5 -0.18206,-0.0227 -0.27307,-0.0683 -0.11379,1e-5 -0.31859,1e-5 -0.6144,0 -0.29583,-0.0227 -0.51201,-0.0341 -0.64853,-0.0341 -0.84196,0.0227 -1.31983,0.20481 -1.4336,0.54613 -0.0683,0.22756 -0.11378,0.8761 -0.13653,1.9456 -0.0227,0.50063 -0.0227,0.9216 0,1.26293 -2e-5,0.3641 0.0114,0.56889 0.0341,0.6144 0.20479,0.6144 0.7623,1.06952 1.67253,1.36534 0.93297,0.27306 1.67252,0.23893 2.21867,-0.1024 0.11376,-0.091 0.26167,-0.34134 0.44373,-0.75094 0.20479,-0.43235 0.31856,-0.77368 0.34134,-1.024 0.0454,-0.31857 0.0113,-0.77368 -0.1024,-1.36533 -0.1138,-0.84195 -0.18206,-1.3767 -0.2048,-1.60427 -2e-5,-0.091 0.0341,-0.3527 0.1024,-0.78506 v -0.0341"
       style="font-style:normal;font-variant:normal;font-weight:500;font-stretch:normal;font-size:32px;line-height:100%;font-family:Cherokeehandlines;-inkscape-font-specification:'Cherokeehandlines Medium';text-align:center;letter-spacing:0px;word-spacing:0px;writing-mode:lr-tb;text-anchor:middle;fill:#ff0000;fill-opacity:1;stroke:#000000;stroke-width:1.06666672" />
    <path
       inkscape:connector-curvature="0"
       id="path3047"
       d="m 493.04819,236.78367 c 0.091,1e-5 0.17066,0.0114 0.23894,0.0341 0.31856,0.0455 0.54612,0.14792 0.68266,0.3072 0.2503,0.25032 0.34132,0.60303 0.27307,1.05814 l -0.1024,0.512 c -1e-5,0.13653 0.0683,0.62578 0.2048,1.46773 0.11376,0.70543 0.14789,1.27431 0.1024,1.70667 -0.0455,0.36408 -0.18206,0.80781 -0.4096,1.3312 -0.29584,0.65991 -0.60304,1.08088 -0.9216,1.26293 -0.86473,0.54613 -1.92286,0.62578 -3.1744,0.23893 -1.27432,-0.4096 -2.08215,-1.09226 -2.42347,-2.048 -0.0683,-0.18205 -0.1024,-0.512 -0.1024,-0.98986 -0.0227,-0.36409 -0.0227,-0.80782 0,-1.3312 0.0227,-1.16054 0.091,-1.91146 0.2048,-2.2528 0.27306,-0.88746 1.10364,-1.34257 2.49174,-1.36534 0.15927,1e-5 0.38683,0.0114 0.68266,0.0341 0.31857,1e-5 0.54612,1e-5 0.68267,0 0.43234,1e-5 0.72817,-0.0455 0.88747,-0.13654 0.27305,-0.11377 0.5006,-0.0568 0.68266,0.17067"
       style="font-style:normal;font-variant:normal;font-weight:500;font-stretch:normal;font-size:32px;line-height:100%;font-family:Cherokeehandlines;-inkscape-font-specification:'Cherokeehandlines Medium';text-align:center;letter-spacing:0px;word-spacing:0px;writing-mode:lr-tb;text-anchor:middle;fill:#ffffff;fill-opacity:1;stroke:#000000;stroke-width:1.06666672" />
    <path
       inkscape:connector-curvature="0"
       id="path3045"
       d="m 501.03539,223.67647 c -2e-5,0.0911 0.0113,0.20482 0.0341,0.34133 -3e-5,0.40962 0.0454,0.94438 0.13653,1.60427 0.0683,0.47789 0.15926,1.05815 0.27307,1.7408 0.11376,0.65992 0.17064,1.01264 0.17066,1.05813 v 0.2048 c 0.0227,0.13655 0.0683,0.31859 0.13654,0.54614 0.27304,0.95574 0.43233,1.66117 0.47786,2.11626 0.0454,0.54615 0.0683,1.13779 0.0683,1.77494 0.0227,0.61441 0.0227,1.14916 0,1.60426 -2e-5,0.43237 -0.0341,1.03538 -0.1024,1.80907 -0.0455,0.7737 -0.0911,1.30845 -0.13653,1.60427 l -0.2048,1.80906 c -0.0911,0.88747 -0.14794,1.41085 -0.17067,1.57014 -0.13656,1.11501 -0.18207,1.97973 -0.13653,2.59413 0.0454,1.024 0.26166,1.66115 0.64853,1.91147 0.0454,0.0455 0.23891,0.091 0.58027,0.13653 0.40957,0.0455 0.85331,0.0683 1.3312,0.0683 0.50059,0.0227 0.93294,0.0114 1.29706,-0.0341 0.15927,-0.0227 0.2958,-0.0568 0.4096,-0.1024 0.0454,0 0.0796,-0.0114 0.1024,-0.0341 0.15927,-0.18205 0.35268,-0.46649 0.58027,-0.85333 0.3413,-0.6144 0.56886,-1.00125 0.68267,-1.16054 l 1.16053,-1.50186 c 0.5006,-0.65991 0.87606,-1.17191 1.1264,-1.536 0.22753,-0.31857 0.5461,-0.88747 0.95573,-1.70667 0.43232,-0.84195 0.81917,-1.46772 1.16054,-1.87733 0.091,-0.13653 0.51196,-0.62577 1.26293,-1.46774 0.47783,-0.50062 0.81917,-0.95572 1.024,-1.36533 0.182,-0.40959 0.22752,-1.10364 0.13653,-2.08213 -0.0228,-0.18204 -0.30723,-0.31857 -0.85333,-0.4096 -0.56892,-0.091 -1.46777,-0.1024 -2.69653,-0.0341 -1.72946,0.11379 -2.70794,0.17068 -2.93547,0.17067 -0.4779,10e-6 -0.86474,-0.0341 -1.16053,-0.1024 -0.47789,-0.11377 -0.78509,-0.32994 -0.9216,-0.64853 l -0.0683,-0.2048 v -0.0683 -0.23893 c -0.0228,-0.13653 -0.0341,-0.3527 -0.0341,-0.64854 v -1.9456 c -3e-5,-0.72816 0.0113,-1.37669 0.0341,-1.9456 v -0.64853 -0.2048 -0.0341 -0.0683 -0.0341 c 0.0227,-0.0683 0.0569,-0.13652 0.1024,-0.2048 0.22753,-0.38683 0.59161,-0.58025 1.09227,-0.58027 0.13651,2e-5 0.29579,0.0114 0.47786,0.0341 0.18202,0.0227 0.2958,0.0341 0.34134,0.0341 -4e-5,-0.13652 -0.0341,-0.32995 -0.1024,-0.58027 -0.0228,2e-5 -0.0455,-0.0113 -0.0683,-0.0341 -0.18207,-0.0683 -0.421,-0.13652 -0.7168,-0.2048 -0.56892,-0.11376 -1.36536,-0.18203 -2.38933,-0.2048 -0.84199,-0.0227 -1.63843,-0.0227 -2.38934,0 -0.27309,2e-5 -0.51202,0.0114 -0.7168,0.0341"
       style="font-style:normal;font-variant:normal;font-weight:500;font-stretch:normal;font-size:32px;line-height:100%;font-family:Cherokeehandlines;-inkscape-font-specification:'Cherokeehandlines Medium';text-align:center;letter-spacing:0px;word-spacing:0px;writing-mode:lr-tb;text-anchor:middle;fill:#ff0000;fill-opacity:1;stroke:#000000;stroke-width:1.06666672" />
    <path
       inkscape:connector-curvature="0"
       id="path3043"
       d="m 506.56499,230.91274 c 0.0227,10e-6 0.0454,0.0114 0.0683,0.0341 0.20477,0.0456 0.51197,0.0683 0.9216,0.0683 0.20477,1e-5 1.1605,-0.0569 2.8672,-0.17067 1.31979,-0.0683 2.29828,-0.0568 2.93547,0.0341 1.1605,0.18206 1.7749,0.68268 1.8432,1.50187 0.11373,1.16054 0.0227,2.03663 -0.27307,2.62827 -0.2276,0.52338 -0.61443,1.08089 -1.16053,1.67253 -0.77372,0.84196 -1.1947,1.29708 -1.26294,1.36533 -0.2731,0.3641 -0.60305,0.93298 -0.98986,1.70667 -0.45515,0.88747 -0.80786,1.51325 -1.05814,1.87733 l -1.16053,1.536 c -0.5234,0.65992 -0.89887,1.16054 -1.1264,1.50187 -0.0911,0.091 -0.29585,0.43235 -0.6144,1.024 -0.29585,0.52337 -0.56892,0.91022 -0.8192,1.16053 -0.13656,0.13654 -0.3186,0.23894 -0.54613,0.3072 -0.15932,0.0455 -0.36412,0.0797 -0.6144,0.1024 -0.40963,0.0683 -0.89887,0.091 -1.46774,0.0683 -0.5234,0 -1.00127,-0.0341 -1.4336,-0.1024 -0.5234,-0.0683 -0.89887,-0.17067 -1.1264,-0.3072 -0.68269,-0.47787 -1.05815,-1.41085 -1.1264,-2.79893 -0.0455,-0.68267 -2e-5,-1.61565 0.13654,-2.79894 0.0227,-0.15928 0.0797,-0.69403 0.17066,-1.60426 0.11376,-0.91022 0.18203,-1.50186 0.2048,-1.77494 0.0454,-0.27305 0.1024,-0.78505 0.17067,-1.536 0.0683,-0.77368 0.1024,-1.36532 0.1024,-1.77493 -2e-5,-0.43234 -0.0114,-0.94434 -0.0341,-1.536 -3e-5,-0.61439 -0.0227,-1.1719 -0.0683,-1.67253 -0.0455,-0.36408 -0.19344,-1.01261 -0.44373,-1.9456 -0.25034,-0.91021 -0.38687,-1.62701 -0.4096,-2.1504 v -0.17067 c -0.0683,-0.52336 -0.13656,-0.97848 -0.2048,-1.36533 -0.0911,-0.70541 -0.13656,-1.28568 -0.13654,-1.7408 -0.0227,-0.27305 -0.0227,-0.5006 0,-0.68267 0.0455,-0.2958 0.13651,-0.51198 0.27307,-0.64853 l 0.23893,-0.13654 c 0.0227,-0.0227 0.0569,-0.0341 0.1024,-0.0341 h 0.1024 c 0.0683,-0.0227 0.1479,-0.0341 0.23894,-0.0341 0.22753,-0.0227 0.51197,-0.0341 0.85333,-0.0341 0.84193,-0.0227 1.66113,-0.0227 2.4576,0 1.02398,0.0456 1.87731,0.12518 2.56,0.23894 0.40957,0.0683 0.73953,0.1593 0.98987,0.27306 0.38681,0.18207 0.61436,0.43238 0.68266,0.75094 0.18202,0.70544 0.18202,1.22882 0,1.57013 -0.18207,0.36411 -0.53478,0.53477 -1.05813,0.512 -0.0683,2e-5 -0.20483,-0.0113 -0.4096,-0.0341 -0.13656,-0.0227 -0.23896,-0.0341 -0.3072,-0.0341 h -0.0683 v 0.6144 c -0.0228,0.61442 -0.0341,1.26296 -0.0341,1.9456 v 1.9456 c -2e-5,0.27308 0.0113,0.48926 0.0341,0.64854"
       style="font-style:normal;font-variant:normal;font-weight:500;font-stretch:normal;font-size:32px;line-height:100%;font-family:Cherokeehandlines;-inkscape-font-specification:'Cherokeehandlines Medium';text-align:center;letter-spacing:0px;word-spacing:0px;writing-mode:lr-tb;text-anchor:middle;fill:#ff0000;fill-opacity:1;stroke:#000000;stroke-width:1.06666672" />
    <path
       inkscape:connector-curvature="0"
       id="path3041"
       d="m 509.63699,235.55487 -0.0341,-0.0341 c -0.25034,-0.091 -0.6258,-0.14791 -1.1264,-0.17067 -0.36412,1e-5 -0.8306,0.0114 -1.39947,0.0341 -0.0911,1e-5 -0.23896,0.0114 -0.44373,0.0341 -0.18207,1e-5 -0.30722,1e-5 -0.37547,0 v 3.44746 c -2e-5,0.0683 -0.0114,0.1593 -0.0341,0.27307 l 0.0683,-0.0683 c 0.13651,-0.15928 0.40957,-0.44373 0.8192,-0.85333 l 1.16053,-1.1264 1.024,-1.09227 0.34133,-0.44373"
       style="font-style:normal;font-variant:normal;font-weight:500;font-stretch:normal;font-size:32px;line-height:100%;font-family:Cherokeehandlines;-inkscape-font-specification:'Cherokeehandlines Medium';text-align:center;letter-spacing:0px;word-spacing:0px;writing-mode:lr-tb;text-anchor:middle;fill:#ff0000;fill-opacity:1;stroke:#000000;stroke-width:1.06666672" />
    <path
       inkscape:connector-curvature="0"
       id="path3036"
       d="m 507.17939,239.7874 -0.1024,0.17067 c -0.1138,0.1593 -0.2162,0.29583 -0.3072,0.4096 -0.18207,0.18205 -0.36412,0.31858 -0.54613,0.4096 -0.34136,0.13653 -0.64856,0.091 -0.9216,-0.13653 -0.29585,-0.25031 -0.40962,-0.63716 -0.34133,-1.16054 l 0.0683,-0.27306 0.0683,-0.2048 c -2e-5,-0.0455 -2e-5,-0.091 0,-0.13654 v -4.3008 c -2e-5,-0.15927 0.0568,-0.29581 0.17067,-0.4096 0.11374,-0.11377 0.25028,-0.17065 0.4096,-0.17066 0.20477,1e-5 0.36406,0.091 0.47786,0.27306 0.0683,1e-5 0.20478,1e-5 0.4096,0 0.20478,-0.0227 0.36407,-0.0341 0.47787,-0.0341 0.59161,-0.0227 1.09223,-0.0227 1.50187,0 0.61436,0.0227 1.09223,0.091 1.4336,0.2048 0.65988,0.25032 0.94432,0.65991 0.85333,1.2288 -0.0455,0.27308 -0.26172,0.63716 -0.64853,1.09227 l -1.09227,1.16053 -1.16053,1.16053 -0.75094,0.7168"
       style="font-style:normal;font-variant:normal;font-weight:500;font-stretch:normal;font-size:32px;line-height:100%;font-family:Cherokeehandlines;-inkscape-font-specification:'Cherokeehandlines Medium';text-align:center;letter-spacing:0px;word-spacing:0px;writing-mode:lr-tb;text-anchor:middle;fill:#ffffff;fill-opacity:1;stroke:#000000;stroke-width:1.06666672" />
    <text
       xml:space="preserve"
       style="font-style:normal;font-variant:normal;font-weight:500;font-stretch:normal;font-size:12.80000019px;line-height:0%;font-family:CherokeeHandone;-inkscape-font-specification:'CherokeeHandone Medium';text-align:center;letter-spacing:0px;word-spacing:0px;writing-mode:lr-tb;text-anchor:middle;fill:#000000;fill-opacity:1;stroke:#000000;stroke-width:1.06666672"
       x="150.3107"
       y="823.51453"
       id="text3075"><tspan
         sodipodi:role="line"
         id="tspan3077"
         x="150.3107"
         y="823.51453"
         style="font-size:25.60000038px;line-height:1;stroke-width:1.06666672">ᎣᏏᏲ ᏓᎩᏏ!</tspan><tspan
         sodipodi:role="line"
         x="150.3107"
         y="849.1145"
         id="tspan3079"
         style="font-size:25.60000038px;line-height:1;stroke-width:1.06666672">ᎣᏏᏊᏧ?</tspan></text>
    <text
       id="text3081"
       y="819.20447"
       x="283.38144"
       style="font-style:normal;font-variant:normal;font-weight:500;font-stretch:normal;font-size:12.80000019px;line-height:0%;font-family:CherokeeHandone;-inkscape-font-specification:'CherokeeHandone Medium';text-align:center;letter-spacing:0px;word-spacing:0px;writing-mode:lr-tb;text-anchor:middle;fill:#000000;fill-opacity:1;stroke:#000000;stroke-width:1.06666672"
       xml:space="preserve"><tspan
         id="tspan3085"
         y="819.20447"
         x="283.38144"
         sodipodi:role="line"
         style="font-size:25.60000038px;line-height:1;stroke-width:1.06666672">ᎣᏏᏲ!</tspan><tspan
         y="844.80444"
         x="283.38144"
         sodipodi:role="line"
         id="tspan3089"
         style="font-size:25.60000038px;line-height:1;stroke-width:1.06666672">ᎣᏏᏊ.</tspan></text>
    <text
       id="text3091"
       y="832.67322"
       x="411.60349"
       style="font-style:normal;font-variant:normal;font-weight:500;font-stretch:normal;font-size:12.80000019px;line-height:0%;font-family:CherokeeHandone;-inkscape-font-specification:'CherokeeHandone Medium';text-align:center;letter-spacing:0px;word-spacing:0px;writing-mode:lr-tb;text-anchor:middle;fill:#000000;fill-opacity:1;stroke:#000000;stroke-width:1.06666672"
       xml:space="preserve"><tspan
         id="tspan3095"
         y="832.67322"
         x="411.60349"
         sodipodi:role="line"
         style="font-size:25.60000038px;line-height:1;stroke-width:1.06666672">ᎾᏍ ᏌᏊ</tspan><tspan
         y="858.27319"
         x="411.60349"
         sodipodi:role="line"
         id="tspan3099"
         style="font-size:25.60000038px;line-height:1;stroke-width:1.06666672">ᎡᏙᏓ?</tspan></text>
    <text
       xml:space="preserve"
       style="font-style:normal;font-variant:normal;font-weight:500;font-stretch:normal;font-size:12.80000019px;line-height:0%;font-family:CherokeeHandone;-inkscape-font-specification:'CherokeeHandone Medium';text-align:center;letter-spacing:0px;word-spacing:0px;writing-mode:lr-tb;text-anchor:middle;fill:#000000;fill-opacity:1;stroke:#000000;stroke-width:1.06666672"
       x="579.40436"
       y="838.44165"
       id="text3101"><tspan
         id="tspan3105"
         sodipodi:role="line"
         x="579.40436"
         y="838.44165"
         style="font-size:25.60000038px;line-height:1;stroke-width:1.06666672">ᎾᏍ ᎯᏯᏠᏎ</tspan><tspan
         sodipodi:role="line"
         x="579.40436"
         y="864.04163"
         id="tspan3109"
         style="font-size:25.60000038px;line-height:1;stroke-width:1.06666672">ᎡᏙᏓ?</tspan></text>
  </g>
</svg>
