<?xml version="1.0" encoding="UTF-8" standalone="no"?>
<!-- Created with Inkscape (http://www.inkscape.org/) -->

<svg
   xmlns:osb="http://www.openswatchbook.org/uri/2009/osb"
   xmlns:dc="http://purl.org/dc/elements/1.1/"
   xmlns:cc="http://creativecommons.org/ns#"
   xmlns:rdf="http://www.w3.org/1999/02/22-rdf-syntax-ns#"
   xmlns:svg="http://www.w3.org/2000/svg"
   xmlns="http://www.w3.org/2000/svg"
   xmlns:xlink="http://www.w3.org/1999/xlink"
   xmlns:sodipodi="http://sodipodi.sourceforge.net/DTD/sodipodi-0.dtd"
   xmlns:inkscape="http://www.inkscape.org/namespaces/inkscape"
   width="816"
   height="1056"
   id="svg3255"
   version="1.1"
   inkscape:version="0.92.1 r15371"
   sodipodi:docname="p003.svg"
   inkscape:export-filename="003.png"
   inkscape:export-xdpi="300"
   inkscape:export-ydpi="300">
  <defs
     id="defs3257">
    <linearGradient
       id="linearGradient4115"
       osb:paint="solid">
      <stop
         style="stop-color:#ff0000;stop-opacity:1;"
         offset="0"
         id="stop4117" />
    </linearGradient>
  </defs>
  <sodipodi:namedview
     id="base"
     pagecolor="#ffffff"
     bordercolor="#666666"
     borderopacity="1.0"
     inkscape:pageopacity="0.0"
     inkscape:pageshadow="2"
     inkscape:zoom="2.121875"
     inkscape:cx="403.89836"
     inkscape:cy="787.94856"
     inkscape:document-units="px"
     inkscape:current-layer="layer1"
     showgrid="false"
     borderlayer="true"
     inkscape:window-width="1909"
     inkscape:window-height="1024"
     inkscape:window-x="1920"
     inkscape:window-y="0"
     inkscape:window-maximized="1" />
  <metadata
     id="metadata3260">
    <rdf:RDF>
      <cc:Work
         rdf:about="">
        <dc:format>image/svg+xml</dc:format>
        <dc:type
           rdf:resource="http://purl.org/dc/dcmitype/StillImage" />
        <dc:title />
      </cc:Work>
    </rdf:RDF>
  </metadata>
  <g
     inkscape:label="Layer 1"
     inkscape:groupmode="layer"
     id="layer1"
     transform="translate(0,-66.519662)">
    <image
       sodipodi:absref="/home/muksihs/Documents/ᏣᎳᎩ/Lessons/Cherokee Language Lessons-Volume 2/artwork/comics/ahlosgi-jisdu-ale-na-adlvgwisgi/src.svg/x003.png"
       xlink:href="x003.png"
       y="104.11966"
       x="54.666668"
       id="image3271"
       height="980.79999"
       width="706.66669" />
    <text
       xml:space="preserve"
       style="font-style:normal;font-variant:normal;font-weight:500;font-stretch:normal;font-size:12.80000019px;line-height:0%;font-family:CherokeeHandone;-inkscape-font-specification:'CherokeeHandone Medium';text-align:center;letter-spacing:0px;word-spacing:0px;writing-mode:lr-tb;text-anchor:middle;fill:#000000;fill-opacity:1;stroke:#000000;stroke-width:1.06666672"
       x="141.15199"
       y="144.69199"
       id="text3274"><tspan
         sodipodi:role="line"
         id="tspan3276"
         x="141.15199"
         y="144.69199"
         style="font-size:25.60000038px;line-height:1;stroke-width:1.06666672">ᎯᎠ ᎣᏏ</tspan><tspan
         sodipodi:role="line"
         x="141.15199"
         y="170.29199"
         id="tspan3278"
         style="font-size:25.60000038px;line-height:1;stroke-width:1.06666672">ᎠᏙᎩᏯᏍᏗ</tspan><tspan
         sodipodi:role="line"
         x="141.15199"
         y="195.89198"
         id="tspan3280"
         style="font-size:25.60000038px;line-height:1;stroke-width:1.06666672">ᎨᏎᏍᏗ.</tspan></text>
    <text
       id="text3282"
       y="143.07574"
       x="405.67728"
       style="font-style:normal;font-variant:normal;font-weight:500;font-stretch:normal;font-size:12.80000019px;line-height:0%;font-family:CherokeeHandone;-inkscape-font-specification:'CherokeeHandone Medium';text-align:center;letter-spacing:0px;word-spacing:0px;writing-mode:lr-tb;text-anchor:middle;fill:#000000;fill-opacity:1;stroke:#000000;stroke-width:1.06666672"
       xml:space="preserve"><tspan
         id="tspan3288"
         y="143.07574"
         x="405.67728"
         sodipodi:role="line"
         style="font-size:25.60000038px;line-height:1;stroke-width:1.06666672">ᎢᎬᏱ ᎠᎭᏂ,</tspan><tspan
         y="168.67575"
         x="405.67728"
         sodipodi:role="line"
         id="tspan3295"
         style="font-size:25.60000038px;line-height:1;stroke-width:1.06666672">ᎾᎯᏳ ᎠᎩᏐᏍᎬ.</tspan><tspan
         y="194.27574"
         x="405.67728"
         sodipodi:role="line"
         id="tspan3297"
         style="font-size:25.60000038px;line-height:1;stroke-width:1.06666672">ᎾᎯᏳ Ꮎ ᎠᎦᏴᎵ</tspan><tspan
         y="219.87575"
         x="405.67728"
         sodipodi:role="line"
         id="tspan3299"
         style="font-size:25.60000038px;line-height:1;stroke-width:1.06666672">ᏡᎬ ᎤᎿ. ᎰᏩᏧ?</tspan></text>
    <text
       xml:space="preserve"
       style="font-style:normal;font-variant:normal;font-weight:500;font-stretch:normal;font-size:12.80000019px;line-height:0%;font-family:CherokeeHandone;-inkscape-font-specification:'CherokeeHandone Medium';text-align:center;letter-spacing:0px;word-spacing:0px;writing-mode:lr-tb;text-anchor:middle;fill:#000000;fill-opacity:1;stroke:#000000;stroke-width:1.06666672"
       x="634.10645"
       y="163.00943"
       id="text3301"><tspan
         id="tspan3309"
         sodipodi:role="line"
         x="634.10645"
         y="163.00943"
         style="font-size:25.60000038px;line-height:1;stroke-width:1.06666672">ᎥᎥ. ᎰᏩ! Ꮎ ᎣᏍᏓ.</tspan><tspan
         sodipodi:role="line"
         x="634.10645"
         y="188.60944"
         id="tspan3320"
         style="font-size:25.60000038px;line-height:1;stroke-width:1.06666672">ᎯᎠ ᎠᎯᏓ ᎨᏎᏍᏗ!</tspan></text>
    <text
       id="text3322"
       y="464.16956"
       x="214.96048"
       style="font-style:normal;font-variant:normal;font-weight:500;font-stretch:normal;font-size:12.80000019px;line-height:0%;font-family:CherokeeHandone;-inkscape-font-specification:'CherokeeHandone Medium';text-align:center;letter-spacing:0px;word-spacing:0px;writing-mode:lr-tb;text-anchor:middle;fill:#000000;fill-opacity:1;stroke:#000000;stroke-width:1.06666672"
       xml:space="preserve"><tspan
         id="tspan3326"
         y="464.16956"
         x="214.96048"
         sodipodi:role="line"
         style="font-size:25.60000038px;line-height:1;stroke-width:1.06666672">ᎰᏩ...  ᏦᎢ...  ᏔᎵ...</tspan><tspan
         y="489.76956"
         x="214.96048"
         sodipodi:role="line"
         id="tspan3330"
         style="font-size:25.60000038px;line-height:1;stroke-width:1.06666672">ᏌᏊ...</tspan></text>
    <text
       xml:space="preserve"
       style="font-style:normal;font-variant:normal;font-weight:500;font-stretch:normal;font-size:12.80000019px;line-height:0%;font-family:CherokeeHandone;-inkscape-font-specification:'CherokeeHandone Medium';text-align:center;letter-spacing:0px;word-spacing:0px;writing-mode:lr-tb;text-anchor:middle;fill:#000000;fill-opacity:1;stroke:#000000;stroke-width:1.06666672"
       x="661.51727"
       y="482.13873"
       id="text3395"><tspan
         id="tspan3399"
         sodipodi:role="line"
         x="661.51727"
         y="482.13873"
         style="font-size:25.60000038px;line-height:1;stroke-width:1.06666672">Ꮎ ᏥᏍᏚ ᏙᏳ</tspan><tspan
         sodipodi:role="line"
         x="661.51727"
         y="507.73874"
         id="tspan3403"
         style="font-size:25.60000038px;line-height:1;stroke-width:1.06666672">ᎠᏯᏄᎵ.</tspan></text>
    <text
       id="text3405"
       y="787.09106"
       x="686.43158"
       style="font-style:normal;font-variant:normal;font-weight:500;font-stretch:normal;font-size:12.80000019px;line-height:0%;font-family:CherokeeHandone;-inkscape-font-specification:'CherokeeHandone Medium';text-align:center;letter-spacing:0px;word-spacing:0px;writing-mode:lr-tb;text-anchor:middle;fill:#000000;fill-opacity:1;stroke:#000000;stroke-width:1.06666672"
       xml:space="preserve"><tspan
         id="tspan3409"
         y="787.09106"
         x="686.43158"
         sodipodi:role="line"
         style="font-size:25.60000038px;line-height:1;stroke-width:1.06666672">Ꮎ ᏌᏊ ᎥᏝ</tspan><tspan
         y="812.69104"
         x="686.43158"
         sodipodi:role="line"
         id="tspan3413"
         style="font-size:25.60000038px;line-height:1;stroke-width:1.06666672">ᎠᏠᏍᎩ</tspan><tspan
         y="838.29108"
         x="686.43158"
         sodipodi:role="line"
         id="tspan3415"
         style="font-size:25.60000038px;line-height:1;stroke-width:1.06666672"> ᏱᎨᏎᏍᏗ!</tspan></text>
    <g
       id="g4132"
       transform="matrix(1.0380947,0,0,1.0380947,-406.50689,-39.230731)">
      <g
         id="g4121">
        <path
           style="font-style:normal;font-variant:normal;font-weight:500;font-stretch:normal;font-size:31.42130661px;line-height:100%;font-family:Cherokeehandlines;-inkscape-font-specification:'Cherokeehandlines Medium';text-align:center;letter-spacing:0px;word-spacing:0px;writing-mode:lr-tb;text-anchor:middle;fill:#ff0000;fill-opacity:1;stroke:#ff0000;stroke-width:1.06666672;stroke-opacity:1"
           d="m 782.22132,505.21216 c 0.31281,0.69267 1.21775,1.49706 2.7148,2.41315 1.47471,0.89377 2.62542,1.36299 3.45216,1.40768 2.07798,0.11172 4.10011,0.12289 6.06641,0.0335 2.79298,-0.13406 4.64754,-0.45805 5.56366,-0.97197 l 0.43571,-0.26813 c 0.13405,-0.11171 0.27927,-0.25695 0.43571,-0.4357 0.15638,-0.17875 0.27928,-0.32399 0.36867,-0.43571 l 0.4022,-0.56977 c 0.15638,-0.24579 0.26811,-0.41337 0.33516,-0.50275 0.067,-0.0894 0.1899,-0.27929 0.36867,-0.56978 0.17873,-0.31281 0.29045,-0.49156 0.33517,-0.53625 0.0894,-0.1564 0.3463,-0.49157 0.77087,-1.00549 0.2681,-0.35749 0.44686,-0.64796 0.53625,-0.87141 0.13404,-0.35749 0.22342,-1.16188 0.26813,-2.41315 0.0223,-1.1172 -2e-5,-2.5137 -0.067,-4.18952 -0.13409,-3.59736 -0.35753,-5.8988 -0.67032,-6.90431 l -0.13407,-0.10058 c -0.11173,-0.1117 -0.26815,-0.23459 -0.46922,-0.36867 -0.40222,-0.29046 -0.93847,-0.5921 -1.60878,-0.90494 -1.36299,-0.69264 -2.30145,-1.07249 -2.81534,-1.13954 -0.0894,-0.0223 -0.18995,-0.0335 -0.30165,-0.0335 -0.0894,0.0894 -0.20111,0.13409 -0.33515,0.13407 h -0.0335 -0.0335 c -0.73738,-0.067 -3.00529,-0.10048 -6.80377,-0.10058 -1.7205,-0.0223 -3.12817,-0.0223 -4.22302,0 -0.58094,0.0224 -1.039,0.0447 -1.37416,0.067 -0.17875,2e-5 -0.31282,0.0112 -0.40219,0.0335 -0.13407,0.13409 -0.31282,0.34635 -0.53625,0.6368 l -0.97197,1.50822 c -0.37985,0.55862 -0.69267,1.07253 -0.93845,1.54174 -0.26813,0.46925 -0.42454,0.77089 -0.46923,0.90494 0,0.0671 -0.0112,0.30166 -0.0335,0.70384 -0.0223,0.4022 -0.0335,0.93846 -0.0335,1.60876 -0.0223,1.31832 -0.0223,2.86006 0,4.62522 0.0223,1.80988 0.0447,3.32927 0.067,4.55819 0.0223,0.67032 0.0447,1.19541 0.067,1.57525 0.0223,0.2011 0.0447,0.3575 0.067,0.46923 v 0.067 0.0335"
           id="path4070"
           inkscape:connector-curvature="0" />
        <path
           style="font-style:normal;font-variant:normal;font-weight:500;font-stretch:normal;font-size:31.42130661px;line-height:100%;font-family:Cherokeehandlines;-inkscape-font-specification:'Cherokeehandlines Medium';text-align:center;letter-spacing:0px;word-spacing:0px;writing-mode:lr-tb;text-anchor:middle;fill:#ffffff;fill-opacity:1;stroke:#ff0000;stroke-width:1.06666672;stroke-opacity:1"
           d="m 785.27124,496.19636 c 0.20109,-0.11171 0.39101,-0.11171 0.56977,0 2.36846,0.0224 3.7538,0.0224 4.15599,0 0.0223,10e-6 0.0894,-0.0223 0.2011,-0.067 0.0447,-0.0223 0.11171,-0.0447 0.2011,-0.067 0.0894,-0.0447 0.14523,-0.0782 0.16757,-0.10059 0.22344,-0.0894 0.41336,-0.12288 0.56978,-0.10058 0.3575,10e-6 0.60328,0.16759 0.73735,0.50274 0.067,0.17876 0.0559,0.36868 -0.0335,0.56977 -0.0447,0.0894 -0.11173,0.17876 -0.20109,0.26813 -0.11174,0.15641 -0.27932,0.34634 -0.50274,0.56977 -0.35752,0.33516 -0.87144,0.78204 -1.54174,1.34064 l -1.54174,1.27361 -0.36868,0.30164 c 0.20108,0.11173 0.49156,0.21228 0.87142,0.30165 0.5139,0.13407 1.15071,0.23462 1.91041,0.30165 0.26812,0.0223 1.92158,0.0223 4.96037,0 1.43001,-0.0223 2.44666,-0.0335 3.04997,-0.0335 h 1.00548 0.33516 c 0.0447,0.0224 0.0782,0.0335 0.10058,0.0335 0.0447,10e-6 0.0894,0.0112 0.13406,0.0335 0.067,0.0224 0.13405,0.0559 0.2011,0.10059 0.1564,0.13408 0.26811,0.324 0.33516,0.56977 0.0223,0.15641 0.0447,0.324 0.067,0.50274 v 0.77087 0.60329 c -2e-5,0.15642 -0.0112,0.29048 -0.0335,0.40219 -0.0447,0.22345 -0.12291,0.4022 -0.23461,0.53626 -0.4469,0.46923 -1.41887,0.83791 -2.91591,1.10603 -1.29596,0.22345 -2.77066,0.34634 -4.42411,0.36868 -1.69816,0.0447 -3.17287,-0.0335 -4.42412,-0.23462 -0.69267,-0.0894 -1.26244,-0.21225 -1.70932,-0.36867 -0.55861,-0.17875 -0.9608,-0.41337 -1.20658,-0.70384 -0.33516,-0.37984 -0.59212,-1.05017 -0.77087,-2.01097 -0.0447,-0.29046 -0.12289,-0.93844 -0.23462,-1.94392 0,-0.0223 -0.0112,-0.13406 -0.0335,-0.33517 -0.0224,-0.22342 -0.0447,-0.35749 -0.067,-0.40219 0,-0.067 -0.0112,-0.20108 -0.0335,-0.40219 0,-0.20109 0,-0.33515 0,-0.40219 0,-0.0894 -0.0112,-0.2346 -0.0335,-0.43571 0,-0.20109 0,-0.34633 0,-0.43571 0.0223,-0.1117 0.0335,-0.25694 0.0335,-0.4357 0.0223,-0.17875 0.0447,-0.32398 0.067,-0.43572 0.0223,-0.13404 0.0447,-0.26811 0.067,-0.40219 0.0447,-0.1564 0.0894,-0.30164 0.13407,-0.43571 v -0.13406 c 0,-0.3128 0.14524,-0.50274 0.43571,-0.56978"
           id="path4074"
           inkscape:connector-curvature="0" />
        <path
           style="font-style:normal;font-variant:normal;font-weight:500;font-stretch:normal;font-size:31.42130661px;line-height:100%;font-family:Cherokeehandlines;-inkscape-font-specification:'Cherokeehandlines Medium';text-align:center;letter-spacing:0px;word-spacing:0px;writing-mode:lr-tb;text-anchor:middle;fill:#ffffff;fill-opacity:1;stroke:#ff0000;stroke-width:1.06666672;stroke-opacity:1"
           d="m 787.91904,489.29183 c 0.26812,2e-5 0.64797,2e-5 1.13954,0 0.51391,-0.0223 1.15071,-0.0447 1.91042,-0.067 0.75969,-0.0223 1.38533,-0.0335 1.8769,-0.0335 1.16188,-0.0447 2.10033,-0.0447 2.81535,0 0.96078,0.0671 1.61992,0.18994 1.97745,0.36867 0.26811,0.13408 0.53623,0.31283 0.80438,0.53626 0.26811,0.22345 0.54742,0.48041 0.8379,0.77087 0.29045,0.26815 0.50273,0.4469 0.63681,0.53625 0.0447,0.0224 0.1117,0.0671 0.2011,0.13407 0.13404,0.0894 0.22341,0.14525 0.26813,0.16758 0.29045,0.22346 0.49154,0.45806 0.60328,0.70384 0.0223,0.0671 0.0335,0.15642 0.0335,0.26812 0.0223,0.0671 0.0335,0.14526 0.0335,0.23462 v 0.60328 c 0.0223,0.49159 0.0223,1.07254 0,1.74284 -2e-5,0.71503 -0.0112,1.29597 -0.0335,1.74284 -2e-5,0.26814 -0.0112,0.4804 -0.0335,0.6368 -2e-5,0.0894 -0.0112,0.16759 -0.0335,0.23461 -2e-5,0.11173 -0.0224,0.20111 -0.067,0.26813 -0.0671,0.15642 -0.20112,0.25697 -0.40219,0.30165 -0.0671,0.0224 -0.14526,0.0447 -0.23462,0.067 -0.15642,0.0447 -0.36869,0.0782 -0.6368,0.10058 -0.46924,0.0447 -1.03902,0.0894 -1.70932,0.13407 -0.67034,0.0224 -1.26245,0.0335 -1.77635,0.0335 -0.26814,1e-5 -0.48042,-0.0112 -0.6368,-0.0335 h -0.23461 c -0.13408,-0.0223 -0.24581,-0.067 -0.33517,-0.13407 -0.49158,-0.37982 -0.55862,-0.91608 -0.20109,-1.60876 0.17873,-0.37984 0.50272,-0.83789 0.97196,-1.37416 l 1.07252,-1.20658 0.067,-0.067 c -0.67034,-0.15639 -1.45239,-0.24577 -2.34613,-0.26812 -0.87143,-0.0447 -1.63112,-0.0447 -2.27909,0 -0.64799,0.0447 -1.50823,0.11173 -2.58074,0.20108 -1.07252,0.0894 -1.85456,0.14526 -2.34612,0.16759 -0.0447,2e-5 -0.0894,0.0112 -0.13407,0.0335 -0.0223,2e-5 -0.0782,0.0224 -0.16758,0.067 -0.0894,0.0224 -0.17875,0.0447 -0.26813,0.0671 -0.5586,0.13408 -0.94962,0.0112 -1.17306,-0.36868 -0.11172,-0.22343 -0.1229,-0.48037 -0.0335,-0.77087 0.0447,-0.1117 0.12288,-0.25694 0.23461,-0.4357 0.0447,-0.0894 0.12288,-0.21226 0.23461,-0.36868 l 0.0671,-0.10059 c 0.46922,-1.16188 0.9161,-1.96626 1.34064,-2.41316 -0.0447,-0.11171 -0.0671,-0.22342 -0.067,-0.33516 -10e-6,-0.15639 0.0559,-0.27928 0.16758,-0.36867 0.13406,-0.1117 0.27929,-0.16757 0.43571,-0.16759"
           id="path4068"
           inkscape:connector-curvature="0" />
        <path
           style="font-style:normal;font-variant:normal;font-weight:500;font-stretch:normal;font-size:31.42130661px;line-height:100%;font-family:Cherokeehandlines;-inkscape-font-specification:'Cherokeehandlines Medium';text-align:center;letter-spacing:0px;word-spacing:0px;writing-mode:lr-tb;text-anchor:middle;fill:#ff0000;fill-opacity:1;stroke:#ff0000;stroke-width:1.06666672;stroke-opacity:1"
           d="m 812.53179,503.77093 c -0.0894,-0.0447 -0.21227,-0.0782 -0.36868,-0.10058 -0.33516,-0.0447 -0.79321,-0.067 -1.37416,-0.067 h -1.34064 c -0.0447,1.02783 -0.0782,2.16737 -0.10059,3.41863 -0.0223,1.02783 -0.0335,1.78752 -0.0335,2.2791 v 0.60328 h 0.6368 0.43571 0.40219 0.67032 c 0.42454,0.0447 0.99431,0.18993 1.70933,0.43572 0.62562,0.22343 1.08368,0.34633 1.37415,0.36867 0.93844,0.067 2.13385,-0.15641 3.58622,-0.67032 1.51938,-0.53625 2.45783,-1.13955 2.81535,-1.80986 0.17874,-0.33516 0.29046,-0.87142 0.33516,-1.60877 0.067,-1.11721 0.12288,-1.77635 0.16758,-1.97745 l 0.40219,-1.70933 0.30165,-1.40766 c 0.26811,-1.22892 0.44686,-2.24557 0.53626,-3.04997 0.0223,-0.0223 0.0335,-0.31281 0.0335,-0.87142 v -1.00548 c 0.0223,-0.89374 0.20108,-1.59758 0.53626,-2.11151 0.0894,-0.1564 0.36866,-0.44686 0.83789,-0.87142 l 1.37417,-1.24009 1.44118,-1.17307 0.53626,-0.4357 c 0.20108,-0.13405 0.36866,-0.21226 0.50274,-0.23461 0.3128,-0.0894 0.75968,-0.11171 1.34064,-0.067 0.17874,0.0224 0.58093,0.0782 1.20658,0.16757 0.0223,2e-5 0.0894,0.0112 0.2011,0.0335 0.13404,0.0224 0.22341,0.0335 0.26813,0.0335 0.0447,2e-5 0.12287,0.0224 0.23461,0.0671 0.13404,0.0224 0.23459,0.0447 0.30164,0.067 0.067,0.0224 0.15639,0.0671 0.26813,0.13406 0.1117,0.0447 0.20108,0.10058 0.26813,0.16758 0.0894,0.0447 0.16756,0.11175 0.23461,0.2011 0.0894,0.0894 0.16757,0.17877 0.23462,0.26813 0.78201,1.36301 1.09483,3.54155 0.93845,6.53563 -0.11174,2.14504 -0.4134,4.31241 -0.90494,6.50212 -0.0224,0.0447 -0.0447,0.11172 -0.067,0.2011 -3e-5,0.0894 -0.0112,0.21226 -0.0335,0.36867 -2e-5,0.13407 -0.0112,0.25696 -0.0335,0.36867 -0.0224,0.24579 -0.0559,0.44689 -0.10059,0.6033 -0.0671,0.24578 -0.15642,0.44688 -0.26813,0.60328 -0.2458,0.29048 -0.6033,0.48041 -1.07251,0.56977 -0.22346,0.0447 -0.59214,0.067 -1.10602,0.067 -0.44691,0.0224 -0.75973,0.0559 -0.93846,0.10059 -0.17877,0.0224 -0.30166,0.0782 -0.36867,0.16758 -2e-5,0.0224 -0.0112,0.067 -0.0335,0.13406 -10e-6,0.0447 -10e-6,0.10059 0,0.16758 -10e-6,0.22345 0.0223,0.49158 0.0671,0.80439 0.067,0.29047 0.14522,0.53625 0.23461,0.73735 0.0223,0.067 0.0558,0.13406 0.10059,0.2011 0.0447,0 0.1117,-0.0112 0.2011,-0.0335 0.15638,0 0.36865,-0.0335 0.6368,-0.10059 0.82671,-0.17875 1.28477,-0.26813 1.37416,-0.26813 0.11169,0 1.40765,-0.0224 3.88787,-0.067 1.00545,0 1.77632,-0.0112 2.3126,-0.0335 0.33513,-0.0223 0.59209,-0.0335 0.77087,-0.0335 h 0.0335 v -0.0671 -0.26813 -0.16758 -0.10058 c -4e-5,-0.60329 -0.10059,-1.00547 -0.30165,-1.20657 -0.0894,-0.11173 -0.2905,-0.17876 -0.60329,-0.2011 -0.648,-0.0447 -1.03902,-0.0894 -1.17306,-0.13407 -0.55863,-0.20109 -0.86028,-0.64797 -0.90494,-1.34064 -0.0224,-0.51391 0.0447,-1.17306 0.2011,-1.97745 0.20107,-0.9161 0.31279,-1.49705 0.33516,-1.74284 0.0894,-0.78203 0.16756,-1.88805 0.23461,-3.31808 0.067,-1.45235 0.12287,-2.48018 0.16759,-3.08348 0.0223,-0.26811 0.16755,-1.03898 0.43571,-2.3126 0.15637,-0.82672 0.18989,-1.49704 0.10058,-2.01097 -0.0447,-0.35749 -0.3687,-1.1507 -0.97196,-2.37965 -0.4916,-0.98311 -1.31833,-1.53054 -2.48018,-1.64228 -0.42457,-0.0223 -1.03903,-0.0111 -1.8434,0.0335 -1.20659,0.0671 -1.88808,0.10059 -2.04448,0.10059 -0.22345,2e-5 -0.6815,-0.0112 -1.37415,-0.0335 -0.67034,-0.0447 -1.18426,-0.0782 -1.54174,-0.10059 -1.27362,-0.0223 -2.10035,0.0671 -2.48019,0.26813 -0.17876,0.0894 -0.35752,0.21229 -0.53626,0.36867 -0.15641,0.13409 -0.30165,0.26816 -0.4357,0.4022 -0.11173,0.13409 -0.25697,0.32401 -0.43571,0.56977 -0.15643,0.2458 -0.26814,0.43573 -0.33516,0.56977 -0.0671,0.11174 -0.20111,0.32401 -0.4022,0.63681 -0.17876,0.31283 -0.29048,0.51393 -0.33515,0.60328 l -0.83791,1.20659 c -0.37985,0.53627 -0.68151,1.0055 -0.90493,1.40768 -0.20111,0.37986 -0.33517,0.75971 -0.4022,1.13954 -0.067,0.49158 -0.10058,0.81557 -0.10058,0.97196 -2e-5,0.15642 0.0223,0.48041 0.067,0.97197 l 0.10059,1.10603 c 0.067,1.25127 0.0223,2.77067 -0.13407,4.55819 -0.17876,2.07799 -0.45806,3.56387 -0.8379,4.45763 -0.26814,0.62563 -0.8826,1.3183 -1.84338,2.07799 -0.37986,0.29048 -0.77088,0.43571 -1.17307,0.43571 -0.31282,0 -0.67032,-0.10058 -1.07251,-0.30164 -0.82673,-0.3575 -1.38533,-0.79321 -1.67581,-1.30712 -0.22344,-0.4022 -0.27929,-0.90494 -0.16757,-1.50823 0.0223,-0.1564 0.0559,-0.3575 0.10059,-0.60329 0.067,-0.26812 0.11172,-0.45805 0.13407,-0.56977 0.0223,-0.11172 0.0223,-0.25695 0,-0.43572 -2e-5,-0.17874 -0.0447,-0.34632 -0.13407,-0.50274"
           id="path4080"
           inkscape:connector-curvature="0" />
        <path
           style="font-style:normal;font-variant:normal;font-weight:500;font-stretch:normal;font-size:31.42130661px;line-height:100%;font-family:Cherokeehandlines;-inkscape-font-specification:'Cherokeehandlines Medium';text-align:center;letter-spacing:0px;word-spacing:0px;writing-mode:lr-tb;text-anchor:middle;fill:#ff0000;fill-opacity:1;stroke:#ff0000;stroke-width:1.06666672;stroke-opacity:1"
           d="m 866.61871,506.4187 c 0.0223,-0.0894 0.0335,-0.21227 0.0335,-0.36868 0.0223,-0.31281 0.0335,-0.75969 0.0335,-1.34064 -3e-5,-0.98314 -0.0224,-2.35729 -0.067,-4.12248 -0.0224,-0.80437 -0.0559,-1.76517 -0.10059,-2.88238 -0.0447,-1.11719 -0.0782,-2.02212 -0.10058,-2.7148 -0.0224,-0.69265 -0.0335,-1.1507 -0.0335,-1.37416 -2e-5,-0.24577 0.0335,-0.72616 0.10059,-1.44119 l 0.10059,-1.74284 c 0.0223,-0.64796 -4e-5,-1.17303 -0.0671,-1.57525 -0.0447,-0.40217 -0.13408,-0.6703 -0.26813,-0.80439 -0.4469,-0.44686 -0.82675,-0.80436 -1.13954,-1.07251 -0.49159,-0.40216 -0.87144,-0.64796 -1.13955,-0.73735 -0.29048,-0.0894 -0.97198,-0.12287 -2.04448,-0.10059 -0.93846,0.0224 -2.11152,0.0782 -3.51918,0.16757 -2.4802,0.17879 -4.49117,0.36871 -6.03289,0.56978 -0.6033,0.0671 -1.25128,0.10059 -1.94393,0.10059 -0.69267,2e-5 -1.45237,-0.0111 -2.27909,-0.0335 -0.82674,-0.0447 -1.4412,-0.067 -1.84338,-0.067 -0.11174,2e-5 -0.21228,-0.0335 -0.30166,-0.10059 l -0.4357,0.30165 c -0.46922,0.26815 -0.82673,0.49159 -1.07252,0.67032 -0.78204,0.53628 -1.22892,1.01667 -1.34064,1.4412 -0.0894,0.35752 -0.0782,0.92729 0.0335,1.70931 0.15642,1.11723 0.23462,1.79872 0.23462,2.04448 0,0.22346 -0.0112,0.69268 -0.0335,1.40768 l -0.10058,2.68128 c -0.0223,1.09487 -0.0335,2.04449 -0.0335,2.84886 -0.0447,1.74285 -0.0671,3.10584 -0.0671,4.08896 0,0.58095 0.0112,1.03901 0.0335,1.37417 0.0223,0.1564 0.0335,0.29047 0.0335,0.40219 0,0.0223 0.0112,0.0447 0.0335,0.067 0.1564,0.26814 0.61445,0.81556 1.37415,1.6423 0.80439,0.89376 1.32948,1.43001 1.57526,1.60876 0.0894,0.067 0.34633,0.13407 0.77087,0.2011 0.46922,0.0447 1.09486,0.0894 1.8769,0.13406 1.40766,0.0447 3.18401,0.0335 5.32905,-0.0335 4.60286,-0.15641 7.52993,-0.39102 8.78121,-0.70384 0.067,1e-5 0.29045,-0.10059 0.67032,-0.30165 l 1.2401,-0.77086 1.20658,-0.80439 c 0.22341,-0.1564 0.39099,-0.27929 0.50274,-0.36867"
           id="path4092"
           inkscape:connector-curvature="0" />
        <path
           style="font-style:normal;font-variant:normal;font-weight:500;font-stretch:normal;font-size:31.42130661px;line-height:100%;font-family:Cherokeehandlines;-inkscape-font-specification:'Cherokeehandlines Medium';text-align:center;letter-spacing:0px;word-spacing:0px;writing-mode:lr-tb;text-anchor:middle;fill:#ffffff;fill-opacity:1;stroke:#ff0000;stroke-width:1.06666672;stroke-opacity:1"
           d="m 849.39127,489.0909 c -0.0224,-0.0223 -0.0335,-0.0558 -0.0335,-0.10059 -0.0223,-0.15639 0.0112,-0.29045 0.10059,-0.40219 0.11171,-0.13404 0.24577,-0.21225 0.40218,-0.23462 0.15641,-0.0223 0.49157,-0.0558 1.00549,-0.10058 l 1.57525,-0.2011 1.50822,-0.13406 c 2.07799,-0.17873 3.46332,-0.14522 4.156,0.10059 0.37983,0.13409 0.7932,0.46924 1.24009,1.00548 0.067,0.11174 0.15639,0.23463 0.26813,0.36867 l 0.30165,0.4022 c 0.067,0.0894 0.13404,0.16759 0.20109,0.23461 0.11171,0.11174 0.34631,0.27932 0.70384,0.50274 0.42452,0.24581 0.73733,0.50277 0.93845,0.77087 0.13405,0.20111 0.26811,0.54745 0.40219,1.039 0.1117,0.4469 0.18991,0.90495 0.23461,1.37415 0.067,0.55863 0.0782,1.02784 0.0335,1.40768 -0.0224,0.2458 -0.0671,0.4469 -0.13406,0.60329 -0.11175,0.26814 -0.2905,0.44689 -0.53626,0.53626 -0.31284,0.11173 -0.92729,0.17876 -1.84338,0.20109 -0.51393,0.0224 -1.40769,0.0112 -2.68129,-0.0335 -2.81536,-0.0894 -4.37945,-0.12288 -4.69225,-0.10059 -0.11173,3e-5 -0.29048,0.0112 -0.53625,0.0335 l -0.93846,0.13406 c -0.37985,0.0447 -0.70384,0.0894 -0.97196,0.13407 -0.58095,0.0671 -1.06135,0.11173 -1.44119,0.13405 -0.51392,0.0224 -0.8826,-0.0112 -1.10603,-0.10058 -0.2011,-0.067 -0.35751,-0.22344 -0.46922,-0.46923 -0.0671,-0.13405 -0.13407,-0.30163 -0.2011,-0.50274 -0.0894,-0.29046 -0.15642,-0.69265 -0.2011,-1.20658 -0.0447,-0.46921 -0.0671,-0.88257 -0.067,-1.2401 0.0223,-0.4692 0.0782,-0.79319 0.16757,-0.97195 0.17875,-0.42453 0.68149,-1.10602 1.50822,-2.04448 0.40219,-0.44687 0.77087,-0.82671 1.10604,-1.13956"
           id="path4090"
           inkscape:connector-curvature="0" />
        <path
           style="font-style:normal;font-variant:normal;font-weight:500;font-stretch:normal;font-size:31.42130661px;line-height:100%;font-family:Cherokeehandlines;-inkscape-font-specification:'Cherokeehandlines Medium';text-align:center;letter-spacing:0px;word-spacing:0px;writing-mode:lr-tb;text-anchor:middle;fill:#ffffff;fill-opacity:1;stroke:#ff0000;stroke-width:1.06666672;stroke-opacity:1"
           d="m 847.84958,499.01141 c 0.53624,0.20111 1.50821,0.31282 2.91589,0.33516 0.37984,1e-5 1.79869,-0.0223 4.25655,-0.067 1.80984,-0.0223 3.17283,0.0112 4.08895,0.10059 1.40765,0.13408 2.32376,0.48041 2.74832,1.039 0.13404,0.17876 0.20107,0.42455 0.20109,0.73735 -2e-5,0.20111 -0.0335,0.44689 -0.10058,0.73736 -0.0894,0.51392 -0.25698,1.10603 -0.50274,1.77635 -0.24581,0.64798 -0.4916,1.21776 -0.73736,1.70932 -0.13408,0.24578 -0.26815,0.45806 -0.4022,0.6368 -0.15642,0.22345 -0.31283,0.37985 -0.46922,0.46923 -0.31283,0.17875 -0.92729,0.34633 -1.84338,0.50274 -0.78206,0.11172 -1.67582,0.21227 -2.68128,0.30164 -1.0055,0.067 -1.91044,0.10059 -2.71481,0.10059 -0.91612,-0.0224 -1.54175,-0.10059 -1.8769,-0.23461 -0.24579,-0.0894 -0.56978,-0.24579 -0.97196,-0.46923 l -0.8379,-0.46923 c -0.0224,0 -0.0894,-0.0223 -0.2011,-0.067 -0.13407,-0.0447 -0.24579,-0.0782 -0.33516,-0.10059 -0.35751,-0.15641 -0.60329,-0.32398 -0.73735,-0.50274 -0.0894,-0.13406 -0.15642,-0.31281 -0.2011,-0.53626 -0.0223,-0.17874 -0.0447,-0.39101 -0.067,-0.6368 -0.0223,-0.3575 -0.0447,-0.87141 -0.0671,-1.54174 -0.067,-1.72048 -0.10059,-2.61425 -0.10059,-2.68129 v -0.23461 c -0.15641,-0.1564 -0.18993,-0.34632 -0.10058,-0.56977 0.067,-0.1564 0.16757,-0.25695 0.30164,-0.30164 0.13406,-0.067 0.27929,-0.0782 0.43571,-0.0335"
           id="path4084"
           inkscape:connector-curvature="0" />
        <path
           style="font-style:normal;font-variant:normal;font-weight:500;font-stretch:normal;font-size:31.42130661px;line-height:100%;font-family:Cherokeehandlines;-inkscape-font-specification:'Cherokeehandlines Medium';text-align:center;letter-spacing:0px;word-spacing:0px;writing-mode:lr-tb;text-anchor:middle;fill:#ff0000;fill-opacity:1;stroke:#ff0000;stroke-width:1.06666672;stroke-opacity:1"
           d="m 876.9943,507.9269 c -0.69267,-0.29047 -1.28479,-0.39102 -1.77635,-0.30165 -0.46922,0.0894 -0.77087,0.35751 -0.90493,0.80439 -0.15641,0.46922 -0.0894,0.96079 0.20109,1.4747 0.31282,0.51392 0.80439,0.8379 1.47471,0.97197 0.42453,0.11172 0.79321,0.0335 1.10604,-0.23461 0.3128,-0.26813 0.49156,-0.6368 0.53625,-1.10603 0.067,-0.67033 -0.14524,-1.20658 -0.63681,-1.60877"
           id="path4100"
           inkscape:connector-curvature="0" />
        <path
           style="font-style:normal;font-variant:normal;font-weight:500;font-stretch:normal;font-size:31.42130661px;line-height:100%;font-family:Cherokeehandlines;-inkscape-font-specification:'Cherokeehandlines Medium';text-align:center;letter-spacing:0px;word-spacing:0px;writing-mode:lr-tb;text-anchor:middle;fill:#ff0000;fill-opacity:1;stroke:#ff0000;stroke-width:1.06666672;stroke-opacity:1"
           d="m 879.27345,487.71668 c -0.93845,-0.35748 -2.08917,-0.61444 -3.45215,-0.77087 -0.73736,-0.0894 -1.363,-0.10048 -1.87691,-0.0335 -0.49157,0.0671 -0.80438,0.17877 -0.93844,0.33516 -0.0447,0.0671 -0.0782,0.22346 -0.10058,0.46922 -0.0447,0.26815 -0.067,0.62566 -0.067,1.07252 0,0.78205 0.067,1.82105 0.2011,3.11699 0.0894,0.8044 0.21226,1.85457 0.36867,3.1505 0.17875,1.27364 0.2793,2.04451 0.30164,2.31261 0,0.0224 0.0223,0.51393 0.067,1.47471 0.0447,0.96081 0.10059,1.77636 0.16757,2.44668 0.0894,0.89377 0.2011,1.5976 0.33517,2.11151 0.13406,0.51392 0.26812,0.79321 0.40219,0.8379 0.37985,0.17876 0.92727,0.0894 1.64229,-0.26813 0.69265,-0.35749 1.15071,-1.01664 1.37415,-1.97745 0.067,-0.33515 0.13406,-0.81554 0.2011,-1.44119 0.067,-0.80437 0.12288,-1.32946 0.16758,-1.57525 0.067,-0.40219 0.21226,-1.17305 0.43571,-2.31261 0.20109,-0.93844 0.33516,-1.69813 0.4022,-2.27909 0.067,-0.55859 0.16756,-1.84337 0.30164,-3.85435 0.0894,-1.18421 0.17874,-2.11148 0.26813,-2.78183 -0.0671,2e-5 -0.13407,-0.0111 -0.2011,-0.0335"
           id="path4060"
           inkscape:connector-curvature="0" />
      </g>
      <text
         id="text3162"
         y="509.61563"
         x="832.73956"
         style="font-style:normal;font-variant:normal;font-weight:500;font-stretch:normal;font-size:12.80000019px;line-height:0%;font-family:Cherokeehandlines;-inkscape-font-specification:'Cherokeehandlines Medium';text-align:center;letter-spacing:0px;word-spacing:0px;writing-mode:lr-tb;text-anchor:middle;fill:#000000;fill-opacity:1;stroke:none;stroke-width:1.06666672"
         xml:space="preserve"><tspan
           y="509.61563"
           x="832.73956"
           id="tspan3164"
           sodipodi:role="line"
           style="font-size:33.51605988px;line-height:1;stroke-width:1.06666672">ᏫᏁᎾ!</tspan></text>
    </g>
  </g>
</svg>
