<?xml version="1.0" encoding="UTF-8" standalone="no"?>
<!-- Created with Inkscape (http://www.inkscape.org/) -->

<svg
   xmlns:dc="http://purl.org/dc/elements/1.1/"
   xmlns:cc="http://creativecommons.org/ns#"
   xmlns:rdf="http://www.w3.org/1999/02/22-rdf-syntax-ns#"
   xmlns:svg="http://www.w3.org/2000/svg"
   xmlns="http://www.w3.org/2000/svg"
   xmlns:xlink="http://www.w3.org/1999/xlink"
   xmlns:sodipodi="http://sodipodi.sourceforge.net/DTD/sodipodi-0.dtd"
   xmlns:inkscape="http://www.inkscape.org/namespaces/inkscape"
   width="816"
   height="1056"
   id="svg3594"
   version="1.1"
   inkscape:version="0.92.1 r15371"
   sodipodi:docname="p006.svg"
   inkscape:export-filename="006.png"
   inkscape:export-xdpi="300"
   inkscape:export-ydpi="300">
  <defs
     id="defs3596" />
  <sodipodi:namedview
     id="base"
     pagecolor="#ffffff"
     bordercolor="#666666"
     borderopacity="1.0"
     inkscape:pageopacity="0.0"
     inkscape:pageshadow="2"
     inkscape:zoom="1.5003922"
     inkscape:cx="381.14849"
     inkscape:cy="890.68319"
     inkscape:document-units="px"
     inkscape:current-layer="layer1"
     showgrid="false"
     borderlayer="true"
     inkscape:window-width="1909"
     inkscape:window-height="1024"
     inkscape:window-x="1920"
     inkscape:window-y="0"
     inkscape:window-maximized="1" />
  <metadata
     id="metadata3599">
    <rdf:RDF>
      <cc:Work
         rdf:about="">
        <dc:format>image/svg+xml</dc:format>
        <dc:type
           rdf:resource="http://purl.org/dc/dcmitype/StillImage" />
        <dc:title />
      </cc:Work>
    </rdf:RDF>
  </metadata>
  <g
     inkscape:label="Layer 1"
     inkscape:groupmode="layer"
     id="layer1"
     transform="translate(0,-66.519662)">
    <image
       sodipodi:absref="/home/muksihs/Documents/ᏣᎳᎩ/Lessons/Cherokee Language Lessons-Volume 2/artwork/comics/ahlosgi-jisdu-ale-na-adlvgwisgi/src.svg/x006.png"
       xlink:href="x006.png"
       width="706.66669"
       height="994.66669"
       id="image3629"
       x="54.666668"
       y="97.186325" />
    <text
       xml:space="preserve"
       style="font-style:normal;font-variant:normal;font-weight:500;font-stretch:normal;font-size:12.80000019px;line-height:0%;font-family:CherokeeHandone;-inkscape-font-specification:'CherokeeHandone Medium';text-align:center;letter-spacing:0px;word-spacing:0px;writing-mode:lr-tb;text-anchor:middle;fill:#000000;fill-opacity:1;stroke:#000000;stroke-width:1.06666672"
       x="181.01933"
       y="173.24564"
       id="text3632"><tspan
         sodipodi:role="line"
         id="tspan3634"
         x="181.01933"
         y="173.24564"
         style="font-size:25.60000038px;line-height:1;stroke-width:1.06666672">ᎠᎭ! ᎤᎿ Ꮎ</tspan><tspan
         sodipodi:role="line"
         x="181.01933"
         y="198.84564"
         id="tspan3636"
         style="font-size:25.60000038px;line-height:1;stroke-width:1.06666672">ᎠᎦᏴᎵ ᏡᎬ.</tspan></text>
    <text
       id="text3638"
       y="316.99887"
       x="472.08194"
       style="font-style:normal;font-variant:normal;font-weight:500;font-stretch:normal;font-size:12.80000019px;line-height:0%;font-family:CherokeeHandone;-inkscape-font-specification:'CherokeeHandone Medium';text-align:center;letter-spacing:0px;word-spacing:0px;writing-mode:lr-tb;text-anchor:middle;fill:#000000;fill-opacity:1;stroke:#000000;stroke-width:1.06666672"
       xml:space="preserve"><tspan
         sodipodi:role="line"
         id="tspan3105"
         x="472.08194"
         y="316.99887"
         style="font-size:24.53333282px;line-height:1;stroke-width:1.06666672">Ꮎ ᏥᏍᏚ</tspan><tspan
         sodipodi:role="line"
         id="tspan3107"
         x="472.08194"
         y="341.5322"
         style="font-size:24.53333282px;line-height:1;stroke-width:1.06666672">ᎠᎯᏓ</tspan><tspan
         sodipodi:role="line"
         id="tspan3109"
         x="472.08194"
         y="366.06555"
         style="font-size:24.53333282px;line-height:1;stroke-width:1.06666672">ᏥᎶᎾᏍᏔᏅ.</tspan></text>
    <text
       xml:space="preserve"
       style="font-style:normal;font-variant:normal;font-weight:500;font-stretch:normal;font-size:12.80000019px;line-height:0%;font-family:CherokeeHandone;-inkscape-font-specification:'CherokeeHandone Medium';text-align:center;letter-spacing:0px;word-spacing:0px;writing-mode:lr-tb;text-anchor:middle;fill:#000000;fill-opacity:1;stroke:#000000;stroke-width:1.06666672"
       x="380.60715"
       y="534.21832"
       id="text3680"><tspan
         id="tspan3688"
         sodipodi:role="line"
         x="380.60715"
         y="534.21832"
         style="font-size:25.60000038px;line-height:1;stroke-width:1.06666672">ᎠᎴ ᎠᎭᏂ</tspan><tspan
         sodipodi:role="line"
         x="380.60715"
         y="559.8183"
         id="tspan3699"
         style="font-size:25.60000038px;line-height:1;stroke-width:1.06666672">Ꮎ ᏡᎬ...</tspan></text>
    <text
       id="text3701"
       y="506.02786"
       x="684.60718"
       style="font-style:normal;font-variant:normal;font-weight:500;font-stretch:normal;font-size:12.80000019px;line-height:0%;font-family:CherokeeHandone;-inkscape-font-specification:'CherokeeHandone Medium';text-align:center;letter-spacing:0px;word-spacing:0px;writing-mode:lr-tb;text-anchor:middle;fill:#000000;fill-opacity:1;stroke:#000000;stroke-width:1.06666672"
       xml:space="preserve"><tspan
         id="tspan3705"
         y="506.02786"
         x="684.60718"
         sodipodi:role="line"
         style="font-size:25.60000038px;line-height:1;stroke-width:1.06666672">ᎠᎴ ᏃᏊ</tspan><tspan
         y="531.62787"
         x="684.60718"
         sodipodi:role="line"
         id="tspan3709"
         style="font-size:25.60000038px;line-height:1;stroke-width:1.06666672">ᎠᏴ</tspan><tspan
         y="557.22784"
         x="684.60718"
         sodipodi:role="line"
         id="tspan3711"
         style="font-size:25.60000038px;line-height:1;stroke-width:1.06666672">ᏥᏠᏍᎩ!</tspan></text>
    <path
       inkscape:connector-curvature="0"
       id="path3751"
       d="m 303.95138,778.79077 v -0.0683 c 0.0454,-0.13652 0.13652,-0.25029 0.27307,-0.34134 0.13652,-0.091 0.27305,-0.11375 0.4096,-0.0683 0.15927,0.0228 0.28442,0.1024 0.37546,0.23893 0.091,0.13655 0.12515,0.28447 0.1024,0.44373 -0.20481,0.97851 -0.3641,2.25282 -0.47786,3.82294 -0.18206,2.38935 -0.28446,3.72054 -0.3072,3.9936 -0.0683,0.63717 -0.20481,1.43361 -0.4096,2.38933 -0.22758,1.16054 -0.37548,1.94561 -0.44374,2.3552 -0.0455,0.22756 -0.1024,0.72819 -0.17066,1.50187 -0.0683,0.68267 -0.14793,1.22881 -0.23894,1.6384 -0.29582,1.31983 -0.95574,2.24143 -1.97973,2.7648 -1.06952,0.54613 -1.96836,0.65991 -2.69653,0.34133 -0.45512,-0.2048 -0.80783,-0.75092 -1.05814,-1.6384 -0.15929,-0.59164 -0.28444,-1.3767 -0.37546,-2.3552 -0.0683,-0.6599 -0.12516,-1.4791 -0.17067,-2.4576 -0.0456,-1.00124 -0.0683,-1.52461 -0.0683,-1.57013 -0.0227,-0.2503 -0.12516,-1.02399 -0.3072,-2.32107 -0.15929,-1.29705 -0.28444,-2.35518 -0.37546,-3.1744 -0.13654,-1.36531 -0.2048,-2.46896 -0.2048,-3.31093 0,-0.5006 0.0227,-0.92158 0.0683,-1.26294 0.0683,-0.45508 0.19342,-0.78504 0.37547,-0.98986 0.31857,-0.43233 0.88746,-0.7054 1.70667,-0.8192 0.59164,-0.0683 1.31982,-0.0569 2.18453,0.0341 1.45634,0.18207 2.71928,0.46652 3.7888,0.85333"
       style="font-style:normal;font-variant:normal;font-weight:500;font-stretch:normal;font-size:32px;line-height:100%;font-family:Cherokeehandlines;-inkscape-font-specification:'Cherokeehandlines Medium';text-align:center;letter-spacing:0px;word-spacing:0px;writing-mode:lr-tb;text-anchor:middle;fill:#ff0000;fill-opacity:1;stroke:#000000;stroke-width:1.06666672" />
    <path
       inkscape:connector-curvature="0"
       id="path3749"
       d="m 301.22071,800.46544 c -0.70542,-0.29582 -1.30844,-0.39822 -1.80906,-0.3072 -0.47788,0.091 -0.78508,0.3641 -0.9216,0.8192 -0.1593,0.47787 -0.091,0.97849 0.2048,1.50187 0.31857,0.52338 0.81919,0.85333 1.50186,0.98986 0.43235,0.11378 0.80781,0.0341 1.1264,-0.23893 0.31858,-0.27307 0.50061,-0.64853 0.54614,-1.1264 0.0683,-0.68267 -0.14793,-1.2288 -0.64854,-1.6384"
       style="font-style:normal;font-variant:normal;font-weight:500;font-stretch:normal;font-size:32px;line-height:100%;font-family:Cherokeehandlines;-inkscape-font-specification:'Cherokeehandlines Medium';text-align:center;letter-spacing:0px;word-spacing:0px;writing-mode:lr-tb;text-anchor:middle;fill:#ff0000;fill-opacity:1;stroke:#000000;stroke-width:1.06666672" />
    <path
       inkscape:connector-curvature="0"
       id="path3747"
       d="m 302.82498,800.73851 c 0.18204,0.47786 0.25031,0.97848 0.2048,1.50186 -0.091,0.75094 -0.42099,1.37672 -0.98987,1.87734 -0.54614,0.50062 -1.25156,0.67128 -2.11626,0.512 -1.00125,-0.22757 -1.74081,-0.75094 -2.21867,-1.57014 -0.47788,-0.8192 -0.59165,-1.62702 -0.34133,-2.42346 0.27305,-0.91022 0.88745,-1.45636 1.8432,-1.6384 0.22755,-0.0455 0.4551,-0.0569 0.68266,-0.0341 0.13653,-0.091 0.28444,-0.12515 0.44374,-0.1024 0.59164,0.11378 1.09225,0.31858 1.50186,0.6144 0.27306,0.11378 0.54613,0.25032 0.8192,0.4096 0.13653,0.091 0.21618,0.21618 0.23894,0.37547 0.0455,0.1593 0.0341,0.3072 -0.0341,0.44373 -0.0227,0 -0.0341,0.0114 -0.0341,0.0341"
       style="font-style:normal;font-variant:normal;font-weight:500;font-stretch:normal;font-size:32px;line-height:100%;font-family:Cherokeehandlines;-inkscape-font-specification:'Cherokeehandlines Medium';text-align:center;letter-spacing:0px;word-spacing:0px;writing-mode:lr-tb;text-anchor:middle;fill:#ff0000;fill-opacity:1;stroke:#000000;stroke-width:1.06666672" />
    <path
       inkscape:connector-curvature="0"
       id="path3743"
       d="m 276.81645,781.45317 c -0.15931,0.15931 -0.35274,0.20482 -0.58027,0.13654 -0.0455,2e-5 -0.1024,-0.0114 -0.17067,-0.0341 -0.40962,0.0456 -0.73957,0.0683 -0.98986,0.0683 -0.20482,2e-5 -0.36411,-0.0796 -0.47787,-0.23893 -1.16055,-0.091 -2.56002,-0.1479 -4.1984,-0.17067 -3.16303,-0.0454 -5.13139,0.0228 -5.90507,0.2048 -0.72818,0.15931 -1.47911,0.71682 -2.2528,1.67253 -0.0683,0.0683 -0.14791,0.27309 -0.23893,0.6144 -0.091,0.38686 -0.18205,0.88749 -0.27307,1.50187 -0.18204,1.13779 -0.34134,2.54864 -0.47786,4.23253 -0.29583,3.66366 -0.3641,5.98472 -0.2048,6.9632 0.0227,0.18205 0.15928,0.48925 0.4096,0.9216 0.2503,0.43237 0.5575,0.89885 0.9216,1.39947 0.36408,0.47787 0.71679,0.89885 1.05813,1.26293 0.31857,0.31858 0.55751,0.52338 0.7168,0.6144 0.0455,0 0.0797,0.0114 0.1024,0.0341 0.11377,0.0227 0.26168,0.0455 0.44373,0.0683 0.36408,0.0455 0.86471,0.091 1.50187,0.13654 1.22879,0.13653 2.68514,0.27306 4.36907,0.4096 1.72941,0.13653 3.19714,0.23893 4.4032,0.3072 0.65989,0.0455 1.17189,0.0683 1.536,0.0683 h 0.6144 c 0.20478,-0.0227 0.51198,-0.19342 0.9216,-0.512 0.40958,-0.31858 0.86468,-0.7168 1.36533,-1.19466 1.02398,-1.00124 1.71802,-1.79769 2.08213,-2.38934 0.31855,-0.52337 0.5006,-1.39945 0.54614,-2.62826 0.0227,-0.34133 0.0227,-0.86471 0,-1.57014 -2e-5,-0.7054 0.0113,-1.20603 0.0341,-1.50186 -2e-5,-0.15928 0.0227,-0.43234 0.0683,-0.8192 0.0454,-0.40959 0.091,-0.92159 0.13653,-1.536 0.0683,-0.61439 0.12513,-1.13776 0.17067,-1.57014 0.0683,-0.95572 0.12513,-1.70664 0.17066,-2.2528 v -0.78506 l -0.0341,-0.3072 c -0.0683,-0.20478 -0.35273,-0.50061 -0.85333,-0.88747 l -0.64854,-0.47787 c -0.29585,-0.20478 -0.50065,-0.36406 -0.6144,-0.47786 -0.0911,-0.091 -0.22758,-0.20478 -0.4096,-0.34134 -0.15931,-0.15926 -0.28446,-0.27304 -0.37546,-0.34133 -0.0683,-0.091 -0.17069,-0.18203 -0.3072,-0.27307 -0.13656,-0.11376 -0.26172,-0.19339 -0.37547,-0.23893 -0.0911,-0.0454 -0.19345,-0.0796 -0.3072,-0.1024 -0.34135,-0.0683 -0.89887,-0.0568 -1.67253,0.0341 h -0.2048"
       style="font-style:normal;font-variant:normal;font-weight:500;font-stretch:normal;font-size:32px;line-height:100%;font-family:Cherokeehandlines;-inkscape-font-specification:'Cherokeehandlines Medium';text-align:center;letter-spacing:0px;word-spacing:0px;writing-mode:lr-tb;text-anchor:middle;fill:#ff0000;fill-opacity:1;stroke:#000000;stroke-width:1.06666672" />
    <path
       inkscape:connector-curvature="0"
       id="path3741"
       d="m 276.09965,780.39504 0.78506,-0.1024 c 0.88745,-0.11376 1.55874,-0.12513 2.01387,-0.0341 0.20478,0.0455 0.3982,0.1138 0.58027,0.2048 0.18201,0.091 0.36406,0.20482 0.54613,0.34133 l 0.44373,0.34133 c 0.11375,0.0911 0.26167,0.22758 0.44374,0.4096 0.18201,0.15931 0.28441,0.25034 0.3072,0.27307 0.11375,0.0911 0.2958,0.22757 0.54613,0.4096 l 0.68267,0.54613 c 0.65988,0.50064 1.06948,0.95576 1.2288,1.36534 0.0454,0.13655 0.0796,0.3641 0.1024,0.68266 -3e-5,0.22758 -0.0114,0.51202 -0.0341,0.85334 -0.0228,0.59166 -0.0683,1.36534 -0.13653,2.32106 -0.0455,0.43238 -0.1024,0.95575 -0.17067,1.57014 -0.0455,0.59166 -0.0911,1.09227 -0.13653,1.50186 -0.0455,0.38686 -0.0683,0.65993 -0.0683,0.8192 -0.0228,0.27308 -0.0341,0.73957 -0.0341,1.39947 0.0227,0.72818 0.0227,1.2857 0,1.67253 -0.0683,1.41085 -0.3186,2.46898 -0.75093,3.1744 -0.40962,0.65992 -1.14919,1.52463 -2.21867,2.59414 -0.54615,0.52338 -1.0354,0.95573 -1.46773,1.29706 -0.56891,0.4096 -1.02402,0.65992 -1.36534,0.75094 -0.13655,0.0227 -0.44375,0.0227 -0.9216,0 -0.38686,0 -0.91024,-0.0227 -1.57013,-0.0683 -1.22882,-0.0683 -2.70792,-0.17067 -4.43733,-0.3072 -1.50188,-0.11378 -2.95823,-0.25031 -4.36907,-0.4096 l -1.536,-0.17067 c -0.20481,-0.0227 -0.36409,-0.0455 -0.47787,-0.0683 -0.18204,-0.0227 -0.30721,-0.0569 -0.37546,-0.1024 -0.29583,-0.13654 -0.6713,-0.43236 -1.1264,-0.88747 -0.3641,-0.38684 -0.75095,-0.84195 -1.16054,-1.36533 -0.38684,-0.52337 -0.7168,-1.024 -0.98986,-1.50187 -0.29583,-0.54613 -0.47787,-0.97849 -0.54614,-1.29707 -0.18204,-1.04675 -0.11378,-3.4702 0.2048,-7.2704 0.13654,-1.75216 0.29582,-3.18576 0.47787,-4.3008 0.11377,-0.65989 0.22755,-1.19464 0.34133,-1.60426 0.11378,-0.52336 0.26169,-0.88745 0.44374,-1.09227 0.93297,-1.13776 1.8887,-1.8318 2.8672,-2.08213 0.81919,-0.18203 2.87857,-0.2503 6.17813,-0.2048 2.75341,0.0227 4.65349,0.13655 5.70027,0.34133"
       style="font-style:normal;font-variant:normal;font-weight:500;font-stretch:normal;font-size:32px;line-height:100%;font-family:Cherokeehandlines;-inkscape-font-specification:'Cherokeehandlines Medium';text-align:center;letter-spacing:0px;word-spacing:0px;writing-mode:lr-tb;text-anchor:middle;fill:#ff0000;fill-opacity:1;stroke:#000000;stroke-width:1.06666672" />
    <path
       inkscape:connector-curvature="0"
       id="path3739"
       d="m 267.49805,784.86651 c -0.29583,0.29584 -0.54615,0.60304 -0.75094,0.9216 -0.0455,0.31859 -0.0683,0.72819 -0.0683,1.2288 -0.0227,0.70544 -0.0341,1.14917 -0.0341,1.3312 -0.0227,0.47787 -0.11379,1.11504 -0.27306,1.91146 -0.20481,0.95575 -0.31859,1.58153 -0.34134,1.87734 -0.20481,1.34259 -0.0341,2.38934 0.512,3.14026 0.38684,0.54615 0.69404,0.95575 0.9216,1.2288 0.38684,0.43237 0.71679,0.69405 0.98987,0.78507 0.13652,0.0456 0.53474,0.11378 1.19467,0.2048 0.65989,0.091 1.38807,0.17067 2.18453,0.23893 0.86469,0.091 1.59288,0.14792 2.18453,0.17067 h 0.7168 c 0.0683,0 0.12515,-0.0114 0.17067,-0.0341 l 0.0683,-0.0683 c 0.091,-0.11377 0.1934,-0.26169 0.3072,-0.44373 0.20478,-0.34133 0.46646,-0.80782 0.78506,-1.39947 0.63714,-1.22879 0.98985,-2.01386 1.05814,-2.3552 0.0454,-0.18204 0.0683,-0.64852 0.0683,-1.39947 0.0227,-0.75092 -2e-5,-1.57012 -0.0683,-2.4576 -0.0455,-0.95572 -0.1024,-1.76354 -0.17067,-2.42346 -0.0456,-0.34133 -0.0911,-0.62576 -0.13653,-0.85334 l -0.0683,-0.3072 c -0.18207,-0.27304 -0.63717,-0.69402 -1.36533,-1.26293 -0.50064,-0.40958 -0.92162,-0.61438 -1.26294,-0.6144 -0.38685,2e-5 -1.58152,0.0797 -3.584,0.23893 -0.88747,0.0911 -1.61565,0.17069 -2.18453,0.23894 -0.31859,0.0227 -0.55752,0.0455 -0.7168,0.0683 -0.0683,0.0227 -0.11379,0.0341 -0.13653,0.0341"
       style="font-style:normal;font-variant:normal;font-weight:500;font-stretch:normal;font-size:32px;line-height:100%;font-family:Cherokeehandlines;-inkscape-font-specification:'Cherokeehandlines Medium';text-align:center;letter-spacing:0px;word-spacing:0px;writing-mode:lr-tb;text-anchor:middle;fill:#ff0000;fill-opacity:1;stroke:#000000;stroke-width:1.06666672" />
    <path
       inkscape:connector-curvature="0"
       id="path3737"
       d="m 265.51831,787.28997 c -0.15929,-0.0227 -0.28445,-0.1024 -0.37546,-0.23893 -0.0683,-0.13652 -0.091,-0.28443 -0.0683,-0.44373 0.11377,-0.47785 0.32994,-0.9671 0.64853,-1.46774 0.34133,-0.52336 0.70541,-0.93296 1.09227,-1.2288 0.091,-0.0683 0.20479,-0.12514 0.34133,-0.17066 0.0683,2e-5 0.15928,-0.0113 0.27307,-0.0341 l 0.78507,-0.1024 c 0.56887,-0.0683 1.30842,-0.14789 2.21866,-0.23893 2.04798,-0.15927 3.27678,-0.23891 3.6864,-0.23893 0.61438,0.0227 1.28567,0.31859 2.01387,0.88746 0.81918,0.63718 1.34256,1.14918 1.57013,1.536 0.091,0.13656 0.17065,0.36411 0.23894,0.68267 0.0683,0.25033 0.12513,0.56891 0.17066,0.95573 0.0683,0.68268 0.12514,1.51326 0.17067,2.49174 0.0683,0.91023 0.091,1.75219 0.0683,2.52586 -2e-5,0.84197 -0.0227,1.39948 -0.0683,1.67254 -0.1138,0.45511 -0.51202,1.33121 -1.19467,2.62826 -0.29584,0.59165 -0.5689,1.0809 -0.8192,1.46774 -0.13655,0.22756 -0.2617,0.4096 -0.37546,0.54613 -0.15931,0.2048 -0.30722,0.34133 -0.44374,0.4096 -0.13655,0.0683 -0.35273,0.11378 -0.64853,0.13653 h -0.85333 c -0.59166,-0.0227 -1.33122,-0.0797 -2.21867,-0.17066 -0.81921,-0.0683 -1.57014,-0.14791 -2.2528,-0.23894 -0.72819,-0.11377 -1.20606,-0.2048 -1.4336,-0.27306 -0.45512,-0.15929 -0.93299,-0.53476 -1.4336,-1.1264 -0.25032,-0.25031 -0.59166,-0.68266 -1.024,-1.29707 -0.70543,-1.00124 -0.94436,-2.33244 -0.7168,-3.9936 0.0455,-0.29581 0.15928,-0.94434 0.34133,-1.9456 0.15928,-0.72816 0.25031,-1.30843 0.27307,-1.7408 0.0227,-0.22754 0.0341,-0.55749 0.0341,-0.98987"
       style="font-style:normal;font-variant:normal;font-weight:500;font-stretch:normal;font-size:32px;line-height:100%;font-family:Cherokeehandlines;-inkscape-font-specification:'Cherokeehandlines Medium';text-align:center;letter-spacing:0px;word-spacing:0px;writing-mode:lr-tb;text-anchor:middle;fill:#ffffff;fill-opacity:1;stroke:#000000;stroke-width:1.06666672" />
    <path
       inkscape:connector-curvature="0"
       id="path3735"
       d="m 286.10071,782.47717 c 0.0454,0.13656 0.0683,0.25034 0.0683,0.34134 -3e-5,0.20482 0.0454,0.3641 0.13653,0.47786 0.11375,0.1138 0.30717,0.23896 0.58027,0.37547 0.0227,2e-5 0.0568,0.0114 0.1024,0.0341 0.22752,0.1138 0.40957,0.2162 0.54613,0.3072 0.15926,0.0911 0.32992,0.25033 0.512,0.47787 0.20477,0.22757 0.34131,0.48926 0.4096,0.78507 0.0683,0.31859 0.0454,0.71682 -0.0683,1.19466 -0.0228,0.091 -0.0683,0.26171 -0.13654,0.512 -0.0455,0.18206 -0.0683,0.3186 -0.0683,0.4096 -0.20483,1.25158 -0.48928,2.11628 -0.85334,2.59414 -0.31861,0.43236 -0.72821,0.68267 -1.2288,0.75093 -0.27309,0.0456 -0.56891,0.0227 -0.88746,-0.0683 v 0.0341 l -0.1024,0.98986 c -0.0228,0.27308 -0.0341,0.48926 -0.0341,0.64854 l 0.68267,-0.17067 1.024,-0.27307 0.68267,-0.17066 c 0.0227,10e-6 0.38681,-0.0227 1.09226,-0.0683 0.31855,-0.0227 0.52335,-0.0456 0.6144,-0.0683 0.0227,-0.0455 0.0454,-0.1024 0.0683,-0.17066 0.0683,-0.18204 0.14787,-0.45511 0.23893,-0.8192 0.20477,-0.6599 0.40957,-1.50186 0.6144,-2.52587 0.20477,-1.02399 0.36406,-1.90007 0.47787,-2.62827 0.0683,-0.36407 0.11374,-0.67127 0.13653,-0.9216 l 0.0341,-0.3072 c -0.0683,-0.18202 -0.25035,-0.47784 -0.54614,-0.88746 -0.27309,-0.38683 -0.51203,-0.6599 -0.7168,-0.8192 -0.0455,-0.0454 -0.23896,-0.091 -0.58026,-0.13654 -0.38688,-0.0683 -0.80785,-0.091 -1.26294,-0.0683 -0.47789,2e-5 -0.88749,0.0341 -1.2288,0.1024 -0.11381,0.0228 -0.21621,0.0455 -0.3072,0.0683"
       style="font-style:normal;font-variant:normal;font-weight:500;font-stretch:normal;font-size:32px;line-height:100%;font-family:Cherokeehandlines;-inkscape-font-specification:'Cherokeehandlines Medium';text-align:center;letter-spacing:0px;word-spacing:0px;writing-mode:lr-tb;text-anchor:middle;fill:#ff0000;fill-opacity:1;stroke:#000000;stroke-width:1.06666672" />
    <path
       inkscape:connector-curvature="0"
       id="path3733"
       d="m 284.94018,789.33797 c 0.40957,0.20481 0.73952,0.28446 0.98987,0.23894 0.18201,-0.0227 0.3413,-0.11376 0.47786,-0.27307 0.22752,-0.34132 0.43232,-1.04674 0.6144,-2.11627 0.0227,-0.11376 0.0569,-0.27305 0.1024,-0.47786 0.0683,-0.2503 0.11375,-0.40958 0.13654,-0.47787 0.0683,-0.31856 0.0796,-0.54611 0.0341,-0.68267 -0.0228,-0.20478 -0.1024,-0.35269 -0.23893,-0.44373 -0.11382,-0.11376 -0.34137,-0.25029 -0.68267,-0.4096 -0.25035,-0.11376 -0.45515,-0.21616 -0.6144,-0.3072 -0.13656,-0.11376 -0.29585,-0.30718 -0.47787,-0.58027 -0.15931,-0.27304 -0.25033,-0.58024 -0.27306,-0.9216 v -0.0341 c -0.0228,-0.0454 -0.0455,-0.1024 -0.0683,-0.17067 -0.0683,-0.29579 -0.0455,-0.55749 0.0683,-0.78506 0.18201,-0.2958 0.56886,-0.5006 1.16053,-0.6144 0.40957,-0.091 0.88744,-0.13652 1.4336,-0.13654 0.5461,-0.0227 1.03535,2e-5 1.46773,0.0683 0.54611,0.0911 0.93294,0.22757 1.16054,0.4096 0.27303,0.22757 0.58023,0.56891 0.9216,1.024 0.3868,0.52339 0.61437,0.95575 0.68266,1.29707 0.0454,0.13655 0.0569,0.37548 0.0341,0.7168 -0.0456,0.25032 -0.0911,0.5689 -0.13654,0.95573 -0.13656,0.79646 -0.30723,1.68393 -0.512,2.6624 -0.20483,1.04677 -0.40963,1.92286 -0.6144,2.62827 -0.0911,0.38686 -0.18208,0.69406 -0.27306,0.9216 -0.0456,0.13654 -0.0911,0.25032 -0.13654,0.34133 -0.0911,0.1593 -0.18208,0.27308 -0.27306,0.34133 -0.2731,0.18206 -0.70546,0.28446 -1.29707,0.3072 -0.11381,1e-5 -0.25035,0.0114 -0.4096,0.0341 -0.13656,10e-6 -0.25035,10e-6 -0.34133,0 -0.0683,10e-6 -0.13657,0.0114 -0.2048,0.0341 -0.0683,10e-6 -0.26172,0.0456 -0.58027,0.13653 l -1.05813,0.27307 -0.98987,0.23893 c -0.13656,0.0227 -0.25033,0.0455 -0.34133,0.0683 -0.0455,0.0227 -0.0797,0.0341 -0.1024,0.0341 h -0.1024 -0.1024 c -0.13657,-0.0227 -0.25034,-0.0797 -0.34134,-0.17066 -0.0683,-0.0683 -0.12518,-0.15928 -0.17066,-0.27307 v -0.13653 -0.13654 -0.34133 c 0.0227,-0.22754 0.0454,-0.5575 0.0683,-0.98987 l 0.1024,-0.98986 c 0.0227,-0.31857 0.0341,-0.51199 0.0341,-0.58027 v -0.1024 c -0.0228,-0.11376 -3e-5,-0.22754 0.0683,-0.34133 0.0683,-0.13653 0.17064,-0.22754 0.3072,-0.27307 0.15927,-0.0454 0.31855,-0.0341 0.47787,0.0341"
       style="font-style:normal;font-variant:normal;font-weight:500;font-stretch:normal;font-size:32px;line-height:100%;font-family:Cherokeehandlines;-inkscape-font-specification:'Cherokeehandlines Medium';text-align:center;letter-spacing:0px;word-spacing:0px;writing-mode:lr-tb;text-anchor:middle;fill:#ff0000;fill-opacity:1;stroke:#000000;stroke-width:1.06666672" />
    <path
       inkscape:connector-curvature="0"
       id="path3731"
       d="m 221.50285,783.02331 v 0.0341 c -0.0227,0.15931 -0.1024,0.28446 -0.23894,0.37547 -0.13653,0.0911 -0.28444,0.12517 -0.44373,0.1024 -0.15929,-0.0227 -0.28445,-0.1024 -0.37547,-0.23894 -0.091,-0.13651 -0.12516,-0.28442 -0.1024,-0.44373 0.0227,-0.13651 0.0455,-0.3982 0.0683,-0.78507 0.0227,-0.50059 0.0455,-0.86469 0.0683,-1.09226 0.11377,-1.02398 0.4551,-1.70665 1.024,-2.048 0.11377,-0.0683 0.3072,-0.11375 0.58026,-0.13654 0.2048,-0.0454 0.46649,-0.0796 0.78507,-0.1024 0.50062,-0.0454 1.19466,-0.091 2.08213,-0.13653 0.56889,-0.0227 1.26293,-0.0568 2.08214,-0.1024 0.84194,-0.0454 1.31981,-0.0683 1.4336,-0.0683 0.31857,-0.0227 1.39945,-0.1024 3.24266,-0.23893 1.84319,-0.15926 3.68638,-0.28442 5.5296,-0.37547 1.86594,-0.11375 3.64087,-0.19339 5.3248,-0.23893 3.18575,-0.0454 5.82539,0.0797 7.91894,0.37547 2.61685,0.36411 4.35765,1.01265 5.2224,1.9456 0.22752,0.25033 0.3868,0.6713 0.47786,1.26293 0.0454,0.40962 0.0683,0.92162 0.0683,1.536 -4e-5,0.40962 -0.0114,0.93299 -0.0341,1.57013 -0.0228,0.61442 -0.0341,0.97851 -0.0341,1.09227 -4e-5,1.13779 -0.0114,2.83308 -0.0341,5.08587 -0.0228,2.23006 -0.0341,3.91396 -0.0341,5.05173 -4e-5,0.25031 0.0113,0.63716 0.0341,1.16053 0.0454,0.52338 0.0683,0.89885 0.0683,1.1264 0.0227,1.00125 -0.0683,1.80907 -0.27307,2.42347 -0.18208,0.59165 -0.58031,1.19467 -1.19467,1.80907 -0.61443,0.6144 -1.20608,1.03538 -1.77493,1.26293 -0.40963,0.15929 -1.1947,0.28445 -2.3552,0.37547 -1.06955,0.091 -2.23008,0.13653 -3.4816,0.13653 -1.22883,0 -2.38936,-0.0341 -3.4816,-0.1024 -1.18332,-0.0683 -1.96838,-0.18205 -2.3552,-0.34133 -0.22758,-0.091 -0.70544,-0.4096 -1.4336,-0.95574 -0.47789,-0.34133 -0.8306,-0.512 -1.05813,-0.512 -0.0911,0 -0.3186,0.15929 -0.68267,0.47787 -0.56891,0.50062 -1.00126,0.79645 -1.29707,0.88747 -1.00125,0.31858 -3.39059,0.54613 -7.168,0.68266 -1.75219,0.0683 -3.18578,0.0797 -4.3008,0.0341 -0.65991,-0.0456 -1.19467,-0.091 -1.60426,-0.13654 -0.52338,-0.0683 -0.88747,-0.18204 -1.09227,-0.34133 -0.63716,-0.4096 -1.10365,-1.11502 -1.39947,-2.11627 -0.22756,-0.77368 -0.36409,-1.72942 -0.4096,-2.8672 -0.0455,-0.70542 -0.0455,-1.67252 0,-2.90133 0.0455,-1.38809 0.0683,-2.11626 0.0683,-2.18453 0,-0.15928 0,-0.50061 0,-1.024 -0.0227,-0.54613 -0.0227,-0.95573 0,-1.2288 0,-0.29581 0.0114,-0.65991 0.0341,-1.09227 0.0227,-0.45509 0.0797,-0.87607 0.17067,-1.26293 0.0683,-0.38683 0.17067,-0.7623 0.3072,-1.1264 0,-0.0227 0.0114,-0.0569 0.0341,-0.1024 0.0227,-0.11376 0.0456,-0.18203 0.0683,-0.2048 0.0683,-0.2503 0.17067,-0.43234 0.3072,-0.54614 0.13653,-0.13652 0.35271,-0.22754 0.64853,-0.27306 0.18204,-0.0454 0.42098,-0.0797 0.7168,-0.1024 0.56889,-0.0683 1.19466,-0.091 1.87734,-0.0683 0.75092,0.0227 1.3767,0.0797 1.87733,0.17067 0.29581,0.0455 0.54612,0.11379 0.75093,0.2048 0.31858,0.1593 0.51199,0.3641 0.58027,0.6144 0.091,0.31859 0.13652,0.86472 0.13653,1.6384 0.0227,0.34134 0.0227,0.63717 0,0.88746 -0.0227,0.34135 -0.0683,0.59166 -0.13653,0.75094 -0.11379,0.27307 -0.32996,0.50063 -0.64853,0.68266 -0.1593,0.0683 -0.39823,0.14793 -0.7168,0.23894 -0.50063,0.15929 -0.78508,0.27307 -0.85334,0.34133 -0.15929,0.20481 -0.27307,0.60303 -0.34133,1.19467 -0.0455,0.61441 -0.0227,1.31983 0.0683,2.11626 0.091,0.79645 0.2503,1.50188 0.47786,2.11627 0.20479,0.6144 0.40959,1.01263 0.6144,1.19467 0.75093,0.68266 2.18453,1.01263 4.3008,0.98986 0.95573,0 1.82043,-0.091 2.59414,-0.27306 0.79642,-0.18204 1.36531,-0.42097 1.70666,-0.7168 0.091,-0.0683 0.18203,-0.15929 0.27307,-0.27307 0.091,-0.11377 0.15928,-0.21617 0.2048,-0.3072 0.0683,-0.11377 0.15928,-0.26169 0.27307,-0.44373 0.11376,-0.18204 0.21616,-0.32996 0.3072,-0.44374 0.54611,-0.84195 1.13776,-1.34257 1.77493,-1.50186 1.41083,-0.31857 2.45758,-0.28444 3.14027,0.1024 0.54611,0.29583 0.92158,0.84196 1.1264,1.6384 0.20478,0.75093 0.35268,1.18329 0.44373,1.29706 0.18202,0.27307 0.56887,0.39823 1.16053,0.37547 1.57011,-0.091 2.99234,-0.27307 4.26667,-0.54613 0.88744,-0.2048 1.61562,-0.43236 2.18453,-0.68267 0.56886,-0.27307 0.91019,-0.5575 1.024,-0.85333 0.18201,-0.45511 0.25028,-1.21742 0.2048,-2.28694 -0.0228,-0.20479 -0.057,-0.6599 -0.1024,-1.36533 -0.0455,-0.56887 -0.0683,-0.98986 -0.0683,-1.26293 -3e-5,-1.82044 -0.13657,-3.45883 -0.4096,-4.9152 -0.38688,-2.04798 -0.9899,-3.39056 -1.80907,-4.02774 -0.6827,-0.50059 -1.97976,-0.72816 -3.8912,-0.68266 -0.59167,2e-5 -2.07078,0.1138 -4.43733,0.34133 -1.20607,0.1138 -2.83309,0.20482 -4.88107,0.27307 -2.20731,0.0683 -3.81157,0.14792 -4.8128,0.23893 -3.98223,0.36411 -7.30454,0.31859 -9.96693,-0.13653"
       style="font-style:normal;font-variant:normal;font-weight:500;font-stretch:normal;font-size:32px;line-height:100%;font-family:Cherokeehandlines;-inkscape-font-specification:'Cherokeehandlines Medium';text-align:center;letter-spacing:0px;word-spacing:0px;writing-mode:lr-tb;text-anchor:middle;fill:#ff0000;fill-opacity:1;stroke:#000000;stroke-width:1.06666672" />
    <path
       inkscape:connector-curvature="0"
       id="path3729"
       d="m 232.22071,788.82597 c -0.11379,0.1138 -0.21619,0.30721 -0.3072,0.58027 l -0.17066,0.44373 c -0.0683,0.27308 -0.11379,0.44375 -0.13654,0.512 -0.0228,0.0455 -0.0455,0.091 -0.0683,0.13654 -0.0228,0.18206 -0.0341,0.36409 -0.0341,0.54613 -1e-5,0.79646 0.0796,1.33121 0.23894,1.60427 0.0683,0.11379 0.29581,0.17067 0.68266,0.17066 0.43235,10e-6 1.02399,-0.0683 1.77494,-0.2048 0.34131,-0.0683 1.00122,-0.21617 1.97973,-0.44373 0.79643,-0.18204 1.29705,-0.28444 1.50187,-0.3072 2.16176,-0.11377 3.76601,-0.11377 4.8128,0 0.0683,10e-6 0.59161,0.091 1.57013,0.27307 0.86468,0.13654 1.58148,0.21619 2.1504,0.23893 0.77367,0.0683 1.37668,0.0455 1.80907,-0.0683 0.3413,-0.11377 0.52335,-0.26167 0.54613,-0.44373 0.0454,-0.2503 0.0683,-0.88746 0.0683,-1.91147 v -1.16053 -0.27307 c -0.0683,10e-6 -0.14795,-0.0114 -0.23894,-0.0341 -0.31861,-0.0454 -0.73958,-0.0683 -1.26293,-0.0683 -0.38687,10e-6 -0.87612,0.0114 -1.46773,0.0341 -0.56892,1e-5 -0.86474,1e-5 -0.88747,0 -2.86722,1e-5 -5.12002,0.0114 -6.7584,0.0341 -1.68392,0.0455 -3.01512,0.0911 -3.9936,0.13653 -0.59166,0.0456 -1.04677,0.091 -1.36533,0.13654 -0.15931,0.0228 -0.28446,0.0455 -0.37547,0.0683 h -0.0683"
       style="font-style:normal;font-variant:normal;font-weight:500;font-stretch:normal;font-size:32px;line-height:100%;font-family:Cherokeehandlines;-inkscape-font-specification:'Cherokeehandlines Medium';text-align:center;letter-spacing:0px;word-spacing:0px;writing-mode:lr-tb;text-anchor:middle;fill:#ff0000;fill-opacity:1;stroke:#000000;stroke-width:1.06666672" />
    <path
       inkscape:connector-curvature="0"
       id="path3727"
       d="m 231.09431,788.41637 c 0.13653,-0.20479 0.28443,-0.37545 0.44374,-0.512 0.11376,-0.091 0.27305,-0.15927 0.47786,-0.2048 0.13653,-0.0454 0.30719,-0.0797 0.512,-0.1024 0.34133,-0.0454 0.81919,-0.091 1.4336,-0.13653 1.00123,-0.0456 2.34381,-0.091 4.02774,-0.13653 1.66113,-0.0227 3.92531,-0.0341 6.79253,-0.0341 0.0227,10e-6 0.32993,10e-6 0.9216,0 0.59162,-0.0227 1.06948,-0.0341 1.4336,-0.0341 0.59162,10e-6 1.0581,0.0227 1.39947,0.0683 0.22752,0.0455 0.40957,0.091 0.54613,0.13653 0.27304,0.0683 0.46645,0.20481 0.58027,0.4096 0.0454,0.0911 0.0796,0.23894 0.1024,0.44373 0.0227,0.1138 0.0341,0.26171 0.0341,0.44374 v 1.2288 c -3e-5,1.04676 -0.0228,1.71806 -0.0683,2.01386 -0.0911,0.70543 -0.55754,1.17193 -1.39946,1.39947 -0.54617,0.1593 -1.27434,0.20481 -2.18454,0.13653 -0.61443,-0.0227 -1.36536,-0.11377 -2.2528,-0.27306 -0.97851,-0.15928 -1.49051,-0.23893 -1.536,-0.23894 -0.97851,-0.11377 -2.5145,-0.11377 -4.608,0 -0.18206,1e-5 -0.61442,0.091 -1.29706,0.27307 -1.00126,0.22756 -1.67256,0.37548 -2.01387,0.44373 -0.84197,0.18205 -1.52464,0.2617 -2.048,0.23894 -0.79646,-0.0227 -1.33121,-0.26169 -1.60427,-0.7168 -0.29584,-0.47786 -0.44374,-1.22879 -0.44373,-2.2528 0.0227,-0.22754 0.0454,-0.60301 0.0683,-1.1264 0.0227,-0.4551 0.0341,-0.75093 0.0341,-0.88747 -1e-5,-0.15927 0.0568,-0.29581 0.17067,-0.4096 0.11376,-0.11376 0.25029,-0.17066 0.4096,-0.17067 h 0.0683"
       style="font-style:normal;font-variant:normal;font-weight:500;font-stretch:normal;font-size:32px;line-height:100%;font-family:Cherokeehandlines;-inkscape-font-specification:'Cherokeehandlines Medium';text-align:center;letter-spacing:0px;word-spacing:0px;writing-mode:lr-tb;text-anchor:middle;fill:#ff0000;fill-opacity:1;stroke:#000000;stroke-width:1.06666672" />
    <text
       xml:space="preserve"
       style="font-style:normal;font-variant:normal;font-weight:500;font-stretch:normal;font-size:12.80000019px;line-height:0%;font-family:CherokeeHandone;-inkscape-font-specification:'CherokeeHandone Medium';text-align:center;letter-spacing:0px;word-spacing:0px;writing-mode:lr-tb;text-anchor:middle;fill:#000000;fill-opacity:1;stroke:#000000;stroke-width:1.06666672"
       x="438.81961"
       y="785.78552"
       id="text3767"><tspan
         id="tspan3773"
         sodipodi:role="line"
         x="438.81961"
         y="785.78552"
         style="font-size:25.60000038px;line-height:1;stroke-width:1.06666672">ᎣᏏᏲ ᏓᎩᏏ! ᏃᏊᏧ</tspan><tspan
         sodipodi:role="line"
         x="438.81961"
         y="811.3855"
         id="tspan3780"
         style="font-size:25.60000038px;line-height:1;stroke-width:1.06666672">ᏥᏠᏍᎩ ᏱᎩ?</tspan></text>
    <text
       id="text3782"
       y="765.23328"
       x="657.51337"
       style="font-style:normal;font-variant:normal;font-weight:500;font-stretch:normal;font-size:12.80000019px;line-height:0%;font-family:CherokeeHandone;-inkscape-font-specification:'CherokeeHandone Medium';text-align:center;letter-spacing:0px;word-spacing:0px;writing-mode:lr-tb;text-anchor:middle;fill:#000000;fill-opacity:1;stroke:#000000;stroke-width:1.06666672"
       xml:space="preserve"><tspan
         id="tspan3786"
         y="765.23328"
         x="657.51337"
         sodipodi:role="line"
         style="font-size:25.60000038px;line-height:1;stroke-width:1.06666672">ᎦᏙ? ᎯᏠᏍᎩ!</tspan><tspan
         y="790.83325"
         x="657.51337"
         sodipodi:role="line"
         id="tspan3790"
         style="font-size:25.60000038px;line-height:1;stroke-width:1.06666672">ᎦᏙᎲ?</tspan></text>
  </g>
</svg>
